<svg xmlns="http://www.w3.org/2000/svg" height="512" viewBox="0 -16 480 480" width="512" fill="#a1a1a1"><path d="M456 0H24C10.746 0 0 10.746 0 24v304c0 13.254 10.746 24 24 24h184v48H96a8 8 0 0 0-8 8v32a8 8 0 0 0 8 8h288a8 8 0 0 0 8-8v-32a8 8 0 0 0-8-8H272v-48h184c13.254 0 24-10.746 24-24V24c0-13.254-10.746-24-24-24zm-80 432H104v-16h272zm-120-32h-32v-48h32zm208-72a8 8 0 0 1-8 8H24a8 8 0 0 1-8-8V24a8 8 0 0 1 8-8h432a8 8 0 0 1 8 8zM347.574 168.84l-160-80a8 8 0 0 0-7.781.352C177.434 90.652 176 93.227 176 96v160a8 8 0 0 0 11.574 7.199l160-80a7.99 7.99 0 0 0 4.434-7.16 8 8 0 0 0-4.434-7.16zM192 243.055v-134.1L326.113 176zm0 0"/></svg>