<svg xmlns="http://www.w3.org/2000/svg" width="512" height="512" viewBox="0 0 46.999 46.999" fill="#acadad"><path d="M22.27 17.998l.6-3.85-.3-.485c-.044-.068-.036-.155.02-.214l.784-.848c.068-.072.2-.072.26 0l.784.848c.056.06.063.146.02.214l-.3.485.6 3.85c4.723-.08 7.582-.62 7.582-1.18 0-2.746-1.866-2.867-3.94-3.544-1.278-.415-2.86-.65-2.522-2.85.842-.77 1.135-2.355 1.135-2.355s1.12-.565 1.25-1.647c.095-.825-.336-1.208-.336-1.208V4.166C27.907 1.836 25.91 0 23.5 0s-4.398 1.835-4.398 4.166v1.046s-.43.383-.335 1.208c.13 1.082 1.25 1.647 1.25 1.647s.293 1.585 1.136 2.355c.338 2.202-1.245 2.436-2.523 2.85-2.074.678-3.94.8-3.94 3.544-.007.56 2.852 1.1 7.576 1.18zM9.124 43.852c-.854-.276-1.9-.437-1.682-1.904.563-.512.757-1.57.757-1.57s.746-.375.832-1.096c.063-.55-.224-.808-.224-.808v-.695c0-1.555-1.33-2.777-2.932-2.777s-2.932 1.223-2.932 2.777v.695s-.287.258-.224.808c.086.72.832 1.096.832 1.096s.194 1.058.757 1.57c.228 1.47-.828 1.628-1.682 1.904C1.246 44.3 0 44.38 0 46.213c0 .373 1.907.734 5.055.786l.4-2.563-.203-.326c-.026-.045-.024-.104.013-.145l.524-.562c.046-.05.126-.05.172 0l.524.562c.037.04.04.1.013.145l-.203.324.4 2.563c3.147-.05 5.055-.412 5.055-.785 0-1.83-1.245-1.913-2.626-2.36zm17.626 0c-.854-.276-1.9-.437-1.682-1.904.562-.512.757-1.57.757-1.57s.745-.375.83-1.096c.063-.55-.223-.808-.223-.808v-.695c0-1.555-1.332-2.777-2.933-2.777s-2.932 1.223-2.932 2.777v.695s-.287.258-.224.808c.086.72.832 1.096.832 1.096s.194 1.058.757 1.57c.228 1.47-.828 1.628-1.682 1.904-1.382.447-2.627.53-2.627 2.36 0 .373 1.907.734 5.055.786l.4-2.563-.203-.326c-.026-.043-.024-.103.013-.144l.524-.563c.046-.05.126-.05.172 0l.523.563c.037.04.04.1.014.144l-.203.326.4 2.562c3.146-.05 5.055-.412 5.055-.785.002-1.832-1.243-1.914-2.624-2.36zm17.624.002c-.854-.278-1.9-.437-1.684-1.904.564-.514.758-1.57.758-1.57s.748-.375.832-1.096c.063-.55-.223-.808-.223-.808v-.695c0-1.555-1.33-2.777-2.933-2.777s-2.933 1.223-2.933 2.777v.695s-.285.258-.224.808c.085.72.833 1.096.833 1.096s.192 1.058.758 1.57c.227 1.47-.83 1.626-1.684 1.904-1.383.444-2.627.527-2.627 2.36 0 .373 1.906.734 5.055.786l.4-2.563-.202-.327c-.025-.043-.023-.103.014-.142l.522-.563a.12.12 0 0 1 .174 0l.522.563a.12.12 0 0 1 .014.142l-.203.326.4 2.562c3.146-.05 5.055-.412 5.055-.785.002-1.83-1.242-1.914-2.624-2.358zm-38.5-10.956c.65 0 1.175-.525 1.175-1.176v-4.7h15.275v4.7c0 .65.525 1.176 1.175 1.176s1.175-.525 1.175-1.176v-4.7H39.95v4.7c0 .65.524 1.176 1.175 1.176s1.175-.525 1.175-1.176V25.85c0-.65-.524-1.176-1.175-1.176h-16.45V21.15c0-.65-.524-1.175-1.175-1.175s-1.175.526-1.175 1.175v3.525H5.875c-.65 0-1.175.525-1.175 1.176v5.875c.001.648.527 1.173 1.175 1.173z"/></svg>