<?xml version="1.0" encoding="UTF-8" standalone="no"?>
<!-- Created with Inkscape (http://www.inkscape.org/) -->

<svg
   xmlns:dc="http://purl.org/dc/elements/1.1/"
   xmlns:cc="http://creativecommons.org/ns#"
   xmlns:rdf="http://www.w3.org/1999/02/22-rdf-syntax-ns#"
   xmlns:svg="http://www.w3.org/2000/svg"
   xmlns="http://www.w3.org/2000/svg"
   xmlns:sodipodi="http://sodipodi.sourceforge.net/DTD/sodipodi-0.dtd"
   xmlns:inkscape="http://www.inkscape.org/namespaces/inkscape"
   width="5.3211241mm"
   height="5.3216529mm"
   viewBox="0 0 5.3211242 5.3216528"
   version="1.1"
   id="svg8"
   inkscape:version="0.92.4 (5da689c313, 2019-01-14)"
   sodipodi:docname="AcceptCall.svg">
  <defs
     id="defs2" />
  <sodipodi:namedview
     id="base"
     pagecolor="#ffffff"
     bordercolor="#666666"
     borderopacity="1.0"
     inkscape:pageopacity="0.0"
     inkscape:pageshadow="2"
     inkscape:zoom="7.9195959"
     inkscape:cx="46.281395"
     inkscape:cy="31.076834"
     inkscape:document-units="mm"
     inkscape:current-layer="layer1"
     showgrid="false"
     inkscape:window-width="1920"
     inkscape:window-height="1017"
     inkscape:window-x="1912"
     inkscape:window-y="-8"
     inkscape:window-maximized="1" />
  <metadata
     id="metadata5">
    <rdf:RDF>
      <cc:Work
         rdf:about="">
        <dc:format>image/svg+xml</dc:format>
        <dc:type
           rdf:resource="http://purl.org/dc/dcmitype/StillImage" />
        <dc:title></dc:title>
      </cc:Work>
    </rdf:RDF>
  </metadata>
  <g
     inkscape:label="Layer 1"
     inkscape:groupmode="layer"
     id="layer1"
     transform="translate(41.975073,-3.9031042)">
    <path
       style="opacity:1;fill:#3fb09a;fill-opacity:1;stroke:none;stroke-width:0.16631131;stroke-linecap:round;stroke-linejoin:round;stroke-miterlimit:4;stroke-dasharray:none;stroke-dashoffset:0;stroke-opacity:1"
       d="m -39.314254,3.9031042 c -1.469559,-7.06e-5 -2.66089,1.19126 -2.660819,2.6608262 -7.1e-5,1.4695665 1.19126,2.6608971 2.660819,2.6608265 1.469359,-2.117e-4 2.660375,-1.1914717 2.660305,-2.6608265 7e-5,-1.4693546 -1.190946,-2.6606145 -2.660305,-2.6608262 z m 0.558105,1.8040349 c 0.116696,0.010583 0.318326,0.4046361 0.318326,0.4046361 -0.214556,0.8546042 -0.6047,1.0080625 -1.055233,1.2743392 0,0 -0.316043,0.077188 -0.441318,0 -0.130968,-0.08068 -0.359547,-0.38735 -0.20774,-0.4123619 0.259056,-0.042439 0.309866,-0.100965 0.36122,-0.1369837 0.10705,-0.075106 0.151804,0.2487083 0.282152,0.2589389 0.290604,0.022931 0.671008,-0.3799416 0.681097,-0.6713008 0.005,-0.1434042 -0.351476,-0.2547055 -0.219107,-0.3100564 0.180785,-0.075635 0.191763,-0.3258961 0.236679,-0.3855155 0.01235,-0.016228 0.02727,-0.023283 0.04392,-0.021872 z"
       id="path2363"
       inkscape:connector-curvature="0"
       sodipodi:nodetypes="ccccccccccccccccc" />
  </g>
</svg>
