<svg xmlns="http://www.w3.org/2000/svg" width="64" height="64" fill="none" stroke-width="4"><path d="M32 48v4a6 6 0 1 1-12 0 6 6 0 0 1 .27-1.785A5.98 5.98 0 0 1 16 52a6 6 0 0 1-6-6 5.98 5.98 0 0 1 1.555-4.03c-.182.02-.368.03-.555.03a5 5 0 1 1 0-10m2.957-11.033A4.99 4.99 0 0 1 12 17a5 5 0 0 1 5-5 4.98 4.98 0 0 1 3.096 1.073C20.033 12.725 20 12.366 20 12a6 6 0 1 1 12 0v4M11 30a5 5 0 1 1 0-10c1.106 0 2.13.36 2.957.967" stroke="#0085ca" stroke-linecap="round" stroke-linejoin="round"/><g stroke="#ff6901"><circle cx="48" cy="12" r="4"/><circle cx="54" cy="32" r="4"/><circle cx="48" cy="52" r="4"/></g><path d="M40 20l-4 4m4 20l-4-4m2-8h4" stroke="#0085ca" stroke-linecap="round" stroke-linejoin="round"/><circle stroke="#ff6901" cx="26" cy="32" r="4"/></svg>