<svg xmlns="http://www.w3.org/2000/svg" width="181.78" height="297.865" viewBox="0 0 48.096 78.81"><defs><linearGradient id="A" x1="825.375" y1="1811.747" x2="825.416" y2="1811.666" gradientUnits="userSpaceOnUse"><stop offset="0" stop-color="#a3dbf1"/><stop offset="1" stop-color="#94d1e5"/></linearGradient></defs><g transform="matrix(.352778 0 0 -.352778 -275.96688 682.48629)"><path d="M782.27 1934.607h136.333v-223.4H782.27z" fill="#ebf7ff"/><path d="M850.436 1842.87c-25.352-.023-49.737-9.734-68.165-27.145v-104.517h136.333v104.432c-18.415 17.443-42.803 27.185-68.168 27.23z" fill="#fff"/><path d="M892.843 1920.546c-1.913 0-3.454-1.54-3.454-3.454s1.54-3.454 3.454-3.454h13.138c3.107.067 3.532-6.813 0-6.907h-9.234c-1.913 0-3.454-1.54-3.454-3.454s1.54-3.453 3.454-3.453h21.855v7.197c-1.937 1.06-2.097 4.734 0 6.142v7.383zm-110.574-54.574v-9.04c.877-1.447.83-3.555 0-4.87v-8.764h20.984c1.913 0 3.454 1.686 3.454 3.78s-1.54 3.78-3.454 3.78h-9.236c-3.532.103-3.107 7.63 0 7.557h13.14c1.913 0 3.454 1.686 3.454 3.78s-1.54 3.78-3.454 3.78z" fill="#e2f4ff"/><path d="M835.817 1816.87l29.24 1.128-24.673-7.286z" fill="#caf0ff"/><path d="M804.89 1806.465l-.863-10.226 4.768 4.467 20.768 13.045z" fill="url(#A)" transform="translate(35.494 4.247)"/><path d="M850.894 1796.908l14.162 21.1-20.768-13.045z" fill="#caf0ff"/><path d="M839.52 1800.485l6.288 2.628-1.52 1.84z" fill="#78b5cc"/></g></svg>