<svg xmlns="http://www.w3.org/2000/svg" width="97" height="85" fill="none" fill-rule="evenodd"><g fill="#0da5e4"><path d="M42.665 6.694l-.025-.04-.132-.175a7.51 7.51 0 0 0-.636-.701 9.77 9.77 0 0 0-2.921-1.968c-1.352-.6-3.113-.962-5.062-.814-.962.067-2.012.246-2.934.58a8.67 8.67 0 0 0-2.626 1.511c-1.598 1.32-2.81 3.174-3.678 5.03-.86 1.86-1.323 3.76-1.41 5.413-.096 1.655.154 3.05.434 3.986a10.09 10.09 0 0 0 .369 1.08l.153.375-.2-.358c-.127-.234-.3-.584-.483-1.045-.38-.916-.784-2.3-.863-4.042-.085-1.728.192-3.773.9-5.842a18.71 18.71 0 0 1 1.38-3.089c.568-1.026 1.322-1.984 2.205-2.83a10.57 10.57 0 0 1 3.059-2.049 11.93 11.93 0 0 1 1.701-.59L33.6.738c2.263-.41 4.53-.21 6.35.388 1.83.587 3.2 1.478 4.087 2.185.446.355.777.667 1.004.9l.263.282.104.123-2.742 2.08z"/><path d="M23.856 10.988l-.126-.048-.444-.148c-.404-.125-1.02-.294-1.82-.435-1.584-.27-3.984-.47-6.547.43a10.34 10.34 0 0 0-3.68 2.31l-.82.887c-.232.282-.485.63-.702.972a11.47 11.47 0 0 0-1.11 2.3 19.2 19.2 0 0 0-.995 5.464c-.06 1.89.238 3.815 1.05 5.514s2.157 3.118 3.795 4.1c1.65 1.017 3.47 1.617 5.315 1.96 1.835.33 3.666.354 5.358.068 1.695-.275 3.238-.863 4.563-1.584s2.424-1.604 3.318-2.457c.466-.4.834-.86 1.21-1.244l.936-1.143 1.187-1.702.4-.618-.367.638c-.227.424-.6 1.02-1.1 1.768l-.883 1.2-1.16 1.323c-.863.914-1.937 1.872-3.27 2.694-1.33.817-2.91 1.518-4.683 1.902-1.768.394-3.708.472-5.673.222a18.47 18.47 0 0 1-2.955-.627l-1.474-.523-1.416-.677c-1.878-.994-3.562-2.568-4.622-4.524s-1.512-4.17-1.558-6.294a21.28 21.28 0 0 1 .801-6.179c.296-.995.693-1.955 1.195-2.845.255-.452.517-.86.837-1.293.27-.372.626-.775.936-1.126 1.322-1.43 2.913-2.503 4.504-3.17 1.597-.664 3.16-.973 4.535-1.076 1.38-.11 2.576-.034 3.55.08a18.32 18.32 0 0 1 2.255.414l.607.167.23.073-1.18 3.227z"/><path d="M26.972 33.7l-.02-.054c-.01-.02-.014-.026-.02-.03s-.008.015.003.045c.02.04.014.05.1.14.065.058.07.065.077.077-.006.01.054.052.095.083l.333.232c1.043.67 2.742 1.676 3.975 3.138a8.43 8.43 0 0 1 1.437 2.359 8 8 0 0 1 .52 2.266c.06.666.018 1.214-.008 1.592l-.07.59-.086-.585c-.073-.367-.173-.892-.392-1.48-.212-.587-.527-1.24-.975-1.838s-1.018-1.14-1.66-1.575-1.344-.773-2.04-1.037l-2.02-.672-.494-.176c-.09-.037-.156-.058-.28-.122l-.267-.135c-.35-.196-.685-.51-.896-.763-.222-.264-.364-.504-.458-.7l-.107-.24-.046-.13 3.295-.998z"/></g><g stroke="#0da5e4" stroke-width="3.44"><path d="M8.586 30.446S-3.876 42.248 5.485 53.382a5.25 5.25 0 0 0 .657.647l1.077.895c.3.25.648.438 1.016.575.713.266 1.83.903.964 2.117-.96 1.344-1.664 2.863-1.923 4.492-.282 1.772-.26 3.937.772 5.9 0 0 4.193 14.833 15.967 4.955 1.45-1.44 2.44-1.163 2.564-.95"/><path d="M8.048 68.01s4.193 14.833 15.967 4.955c1.292-1.127 1.883-1.18 2.564-.95"/></g><g fill="#0da5e4"><path d="M43.207 55.23l-.31.14-.837.337a23.51 23.51 0 0 1-3.022.899c-1.268.282-2.775.52-4.406.525-1.627.027-3.376-.208-5.025-.742-.82-.278-1.62-.615-2.355-1.036-.37-.206-.73-.42-1.064-.665-.346-.224-.664-.48-.968-.737-.317-.244-.593-.52-.866-.788-.282-.258-.525-.54-.762-.814-.49-.53-.87-1.102-1.235-1.608l-.876-1.46-.59-1.165-.464-1.035.562.984c.167.32.42.677.696 1.093.263.426.626.86.997 1.344.403.458.822.973 1.343 1.435l.8.704.888.662c.31.213.627.422.97.598.33.197.68.36 1.04.517.7.32 1.467.554 2.232.732 1.537.335 3.12.392 4.582.224 1.465-.15 2.806-.495 3.923-.862s2.016-.773 2.625-1.068l.688-.36.22-.128 1.214 2.274z"/><path d="M26.975 55.015c-.01.01-.146.172-.426.407-.15.118-.306.25-.575.392l-.66.32c-.956.477-2.2 1.192-3.3 2.112-1.098.9-1.997 2.054-2.43 3.045-.222.5-.352.926-.418 1.236l-.092.492.04-.5c.034-.32.118-.772.292-1.298.333-1.06 1.14-2.353 2.186-3.422 1.036-1.08 2.255-1.964 3.198-2.565l.647-.4a2.69 2.69 0 0 0 .36-.274c.202-.183.296-.305.288-.294l.884.752zM64.84 72.612l.015.38-.006.6a8.7 8.7 0 0 1-.123 1.086 9.47 9.47 0 0 1-.589 1.983c-.52 1.236-1.227 2.286-2.002 3.2-.78.924-1.633 1.726-2.55 2.45a15.97 15.97 0 0 1-1.469 1.035l-.43.252-.32.166-.177.074-.35.15-.494.184c-.685.248-1.283.372-1.948.474a10.42 10.42 0 0 1-1.953.073c-1.3-.083-2.514-.404-3.624-.866a14.76 14.76 0 0 1-3.038-1.737l-1.323-1.072-1.247-1.242 2.38.115-1.165.937-.077.04c-.583.293-1.07.5-1.608.7l-1.6.545a20.74 20.74 0 0 1-3.304.72c-2.236.302-4.62.18-6.798-.674-.542-.213-1.062-.476-1.56-.768l-.723-.478-.676-.536a11.91 11.91 0 0 1-1.196-1.214c-.35-.437-.707-.87-1-1.388-.592-1.047-.855-2.25-.7-3.427.157-1.17.692-2.3 1.668-3.02l-.06.058c.152-.16.285-.273.436-.395l.455-.33c.3-.207.64-.382.98-.53.68-.292 1.4-.464 2.142-.485 1.472-.053 2.87.47 4.052 1.217-1.253-.633-2.664-.993-4.02-.808a5.37 5.37 0 0 0-1.905.628 5.63 5.63 0 0 0-.827.556l-.37.328c-.114.1-.235.24-.315.345l-.06.058c-.678.604-1.03 1.565-1.052 2.467-.024.914.283 1.84.8 2.57.26.376.6.726.95 1.077.35.338.723.643 1.1.926l.6.387.628.33a9.32 9.32 0 0 0 1.322.496c1.814.5 3.773.434 5.66-.01a17.97 17.97 0 0 0 2.782-.9l1.335-.606 1.224-.68-.273.196 1.97-1.928 1.3 1.175a12.9 12.9 0 0 0 1.003.81l1.127.743c.768.456 1.57.82 2.366 1.063s1.6.352 2.335.323a5.97 5.97 0 0 0 1.086-.155c.333-.088.727-.217.984-.35l.214-.1.504-.273c.088-.045.238-.162.238-.162.32-.22.665-.486 1-.767.654-.562 1.262-1.2 1.764-1.843s.9-1.334 1.134-1.985c.118-.325.195-.64.233-.94a3.56 3.56 0 0 0 .028-.426c-.005-.053.001-.063-.003-.15l-.03-.38 5.157-.3z"/><path d="M62.7 72.023l.134.058.457.18a17.99 17.99 0 0 0 1.86.567c.817.202 1.827.4 2.983.474 1.155.08 2.458.028 3.8-.294a9.31 9.31 0 0 0 3.89-1.997c1.2-1.04 2.195-2.436 2.85-4.116.642-1.654 1.038-3.632 1.165-5.557.12-1.94-.096-3.927-.822-5.718s-2.006-3.324-3.624-4.406c-1.612-1.1-3.483-1.8-5.35-2.18s-3.74-.44-5.472-.164c-1.74.25-3.316.86-4.67 1.598-1.356.744-2.475 1.648-3.382 2.528-.474.423-.848.886-1.23 1.283l-.95 1.177-1.2 1.752-.402.636.37-.657c.228-.436.606-1.05 1.1-1.82l.894-1.235 1.175-1.363c.877-.942 1.97-1.927 3.335-2.772 1.36-.836 2.98-1.563 4.803-1.924 1.814-.388 3.805-.43 5.812-.127s4.047.944 5.925 2.073c1.88 1.113 3.5 2.84 4.455 4.897.962 2.055 1.315 4.32 1.296 6.488-.04 2.186-.328 4.255-.99 6.303-.663 2.02-1.818 3.877-3.278 5.273-1.464 1.407-3.227 2.358-4.922 2.858-1.7.504-3.313.642-4.71.617a20.1 20.1 0 0 1-3.576-.38c-.977-.188-1.73-.402-2.248-.562l-.6-.2-.224-.083 1.334-3.206z"/><path d="M60.5 49.58l.02.052c.01.02.014.025.017.027s.007-.018-.005-.05c-.022-.04-.015-.052-.1-.143-.065-.058-.07-.065-.076-.078.008-.008-.055-.052-.095-.084l-.334-.237c-1.05-.688-2.768-1.722-3.994-3.224-.62-.74-1.107-1.584-1.42-2.407s-.45-1.624-.5-2.297c-.057-.674-.014-1.228.014-1.61l.07-.598.088.592c.07.373.173.904.4 1.5.2.598.525 1.26.968 1.874.448.612 1.014 1.17 1.658 1.62s1.348.8 2.046 1.075l2.036.697.5.183c.1.04.157.06.283.126l.27.14c.356.203.7.526.9.784a3.58 3.58 0 0 1 .453.698l.106.24.045.128-3.337.99z"/></g><path d="M78.906 52.91s12.828-8.376 3.467-19.748c-.197-.24-.42-.46-.657-.66l-.904-.767c-.3-.256-.822-.594-1.19-.735-.713-.27-2.112-1.177-.964-2.163C90.176 18.962 70.684.7 63.478 9.483c-1.45 1.47-2.44 1.188-2.564.97" stroke="#0da5e4" stroke-width="3.476"/><path d="M43.994 4.244l1.367-1.032 1.404-.895c.958-.56 1.957-1.06 3.017-1.454s2.17-.7 3.336-.81c.58-.053 1.17-.076 1.764-.02.592.04 1.18.165 1.755.324.568.185 1.12.413 1.63.7a8.24 8.24 0 0 1 1.41 1.023c.43.38.81.803 1.16 1.236l.507.688a7.06 7.06 0 0 1 .43.744c.516 1.048.735 2.242.56 3.393-.177 1.142-.7 2.243-1.667 2.967l.063-.063c-.152.164-.286.278-.436.402l-.455.337a6.25 6.25 0 0 1-.982.542c-.684.3-1.42.477-2.154.497-1.48.055-2.882-.485-4.06-1.25 1.252.642 2.67 1.01 4.023.817a5.25 5.25 0 0 0 1.899-.647c.29-.166.565-.355.818-.568a5.35 5.35 0 0 0 .364-.332 3.72 3.72 0 0 0 .309-.349l.01-.015.053-.048c.646-.593.995-1.527 1.032-2.413.043-.898-.224-1.8-.698-2.55a5.58 5.58 0 0 0-.403-.555l-.47-.507c-.334-.333-.68-.647-1.056-.91a6.33 6.33 0 0 0-1.168-.671c-.404-.18-.826-.3-1.25-.392-.432-.066-.864-.115-1.304-.094a7.06 7.06 0 0 0-1.318.159c-.878.178-1.745.52-2.58.935s-1.64.932-2.406 1.497l-1.117.892-1.008.943-2.38-2.534z" fill="#0da5e4"/><path d="M63.478 9.483c-1.292 1.15-1.884 1.205-2.564.97" stroke="#0da5e4" stroke-width="3.476"/><g fill="#0da5e4"><path d="M46.002 30.683l.3-.143.84-.347c.723-.273 1.76-.63 3.036-.924s2.794-.532 4.437-.538a15.9 15.9 0 0 1 2.521.17c.854.115 1.706.336 2.535.604.822.294 1.626.635 2.358 1.074a9.16 9.16 0 0 1 1.061.683c.347.228.657.497.964.756.608.523 1.15 1.075 1.612 1.636.244.27.46.55.654.83l.564.804.865 1.478.582 1.177.457 1.046-.557-.994c-.166-.32-.416-.684-.7-1.106-.26-.43-.617-.87-.988-1.362-.18-.25-.4-.476-.624-.726a7.75 7.75 0 0 0-.707-.736c-.494-.493-1.06-.966-1.678-1.398l-.965-.616c-.33-.2-.677-.378-1.038-.532-.708-.336-1.468-.572-2.232-.764-3.1-.73-6.312-.136-8.534.63-1.122.376-2.02.79-2.63 1.1l-.687.366-.22.13-1.248-2.286z"/><path d="M62.242 30.893c.01-.01.146-.175.427-.416.15-.122.307-.257.58-.403l.666-.33c.963-.5 2.213-1.228 3.305-2.173 1.1-.932 1.99-2.104 2.42-3.11.22-.5.35-.94.415-1.254l.09-.498-.04.507c-.033.322-.115.78-.286 1.314-.328 1.075-1.125 2.395-2.17 3.49-1.034 1.106-2.26 2.013-3.208 2.63l-.65.41a2.76 2.76 0 0 0-.362.281c-.202.187-.296.312-.288.3l-.902-.75z"/></g><path d="M44.463 6.104l.014 72.692" stroke="#0da5e4" stroke-width="5.16" stroke-linecap="round"/><path d="M55.588 63.466c0-10.787 8.77-19.533 19.6-19.533s19.6 8.746 19.6 19.533S85.998 83 75.18 83s-19.6-8.746-19.6-19.533" fill="#0da5e4"/><path d="M55.588 63.466c0-10.787 8.77-19.533 19.6-19.533s19.6 8.746 19.6 19.533S85.998 83 75.18 83s-19.6-8.746-19.6-19.533z" stroke="#0da5e4" stroke-width="3.01"/><path d="M87.463 65.908a1.65 1.65 0 0 1-1.646 1.641h-6.544v6.525a1.65 1.65 0 0 1-1.645 1.641h-4.9a1.65 1.65 0 0 1-1.646-1.641V67.55H64.54a1.65 1.65 0 0 1-1.646-1.641v-4.884a1.65 1.65 0 0 1 1.646-1.641h6.544v-6.525a1.65 1.65 0 0 1 1.646-1.641h4.9a1.65 1.65 0 0 1 1.645 1.641v6.525h6.544a1.65 1.65 0 0 1 1.646 1.641v4.884z" fill="#fff"/></svg>