<svg xmlns="http://www.w3.org/2000/svg" width="116" height="73" fill="none" fill-rule="evenodd"><g stroke="#00ccc8" stroke-width="4"><path d="M112.48 28.844s-2.8-3.636-3.647-8.287c0 0-1.546-3.67-6.836-4.72-.954-.19-1.897-.417-2.813-.74C94.382 13.4 79.708 8.06 69.138 2.546c0 0-9.754-3.044-3.817 5.243 0 0 11.96 9.978 23.835 11.077 0 0-2.036 3.382-1.612 6.342 0 0-15.268-5.412-31.723-5.158 0 0-18.32 1.69-12.47 15.22l13.996 22.915 28.84 12.176s5.916-6.215-3.35-10L79.74 59.03l17.388-17.42s1.478-1.964 1.1-4.488c-.057-.383.23-.73.62-.718 2.443.073 9.956-.02 13.55-3.673 0 0 2.12-1.522.085-3.9z"/><path d="M73.336 56.473l5.43-9.365-4.284-.254s-3.223-6.51-6.87-4.228l-2.97 1.86 4.92 10.485 10.327 4.1"/></g><g fill="#00ccc8"><path d="M50.562 13.28h-30.3a.68.68 0 0 1-.679-.676V10.46a.68.68 0 0 1 .679-.676h30.3a.68.68 0 0 1 .679.676v2.142a.68.68 0 0 1-.679.676m-8.595 41.21H22.514a.68.68 0 0 1-.68-.676V51.67c0-.373.303-.676.68-.676h19.453a.68.68 0 0 1 .679.676v2.142a.68.68 0 0 1-.679.676M35.52 34.072H16.068a.68.68 0 0 1-.68-.676v-2.142c0-.373.303-.676.68-.676H35.52a.68.68 0 0 1 .679.676v2.142a.68.68 0 0 1-.679.676m-23.912-.594a.78.78 0 0 1-.778.775h-3.1v3.083a.78.78 0 0 1-.778.775H4.647a.78.78 0 0 1-.778-.775v-3.083H.778A.78.78 0 0 1 0 33.478V31.17a.78.78 0 0 1 .778-.775H3.87v-3.083a.78.78 0 0 1 .778-.775H6.96a.78.78 0 0 1 .778.775v3.083h3.092a.78.78 0 0 1 .778.775v2.307z"/><path d="M18.467 53.893a.78.78 0 0 1-.778.775h-3.092v3.083a.78.78 0 0 1-.777.775h-2.315a.78.78 0 0 1-.778-.775v-3.083h-3.09a.78.78 0 0 1-.778-.775v-2.307a.78.78 0 0 1 .778-.775h3.092v-3.083a.78.78 0 0 1 .778-.775h2.315a.78.78 0 0 1 .777.775v3.083H17.7a.78.78 0 0 1 .778.775v2.307zm-2.375-41.208a.78.78 0 0 1-.778.775h-3.092v3.083a.78.78 0 0 1-.777.775H9.13a.78.78 0 0 1-.778-.775V13.46H5.26a.78.78 0 0 1-.778-.775v-2.307a.78.78 0 0 1 .778-.775h3.092V6.52a.78.78 0 0 1 .778-.775h2.315a.78.78 0 0 1 .777.775v3.083h3.092a.78.78 0 0 1 .778.775v2.307z"/></g></svg>