<?xml version="1.0" encoding="UTF-8" standalone="no"?>
<svg
   xmlns:dc="http://purl.org/dc/elements/1.1/"
   xmlns:cc="http://creativecommons.org/ns#"
   xmlns:rdf="http://www.w3.org/1999/02/22-rdf-syntax-ns#"
   xmlns:svg="http://www.w3.org/2000/svg"
   xmlns="http://www.w3.org/2000/svg"
   xmlns:sodipodi="http://sodipodi.sourceforge.net/DTD/sodipodi-0.dtd"
   xmlns:inkscape="http://www.inkscape.org/namespaces/inkscape"
   height="28.413471pt"
   viewBox="0 0 28.413471 28.413471"
   width="28.413471pt"
   version="1.1"
   id="svg10"
   sodipodi:docname="calendar.svg"
   inkscape:version="0.92.4 (5da689c313, 2019-01-14)">
  <metadata
     id="metadata16">
    <rdf:RDF>
      <cc:Work
         rdf:about="">
        <dc:format>image/svg+xml</dc:format>
        <dc:type
           rdf:resource="http://purl.org/dc/dcmitype/StillImage" />
        <dc:title></dc:title>
      </cc:Work>
    </rdf:RDF>
  </metadata>
  <defs
     id="defs14" />
  <sodipodi:namedview
     pagecolor="#ffffff"
     bordercolor="#666666"
     borderopacity="1"
     objecttolerance="10"
     gridtolerance="10"
     guidetolerance="10"
     inkscape:pageopacity="0"
     inkscape:pageshadow="2"
     inkscape:window-width="1920"
     inkscape:window-height="1017"
     id="namedview12"
     showgrid="false"
     inkscape:zoom="3.9111844"
     inkscape:cx="45.144122"
     inkscape:cy="1.970198"
     inkscape:window-x="1912"
     inkscape:window-y="-8"
     inkscape:window-maximized="1"
     inkscape:current-layer="svg10" />
  <g
     id="g922"
     transform="scale(0.05549506)"
     style="fill:#999999;fill-opacity:1">
    <path
       id="path902"
       d="M 453.33203,512 H 58.667969 C 26.304688,512 0,485.69531 0,453.33203 v -352 C 0,68.96875 26.304688,42.667969 58.667969,42.667969 H 453.33203 C 485.69531,42.667969 512,68.96875 512,101.33203 v 352 C 512,485.69531 485.69531,512 453.33203,512 Z M 58.667969,74.667969 C 43.96875,74.667969 32,86.632812 32,101.33203 v 352 C 32,468.03125 43.96875,480 58.667969,480 H 453.33203 C 468.03125,480 480,468.03125 480,453.33203 v -352 C 480,86.632812 468.03125,74.667969 453.33203,74.667969 Z m 0,0"
       inkscape:connector-curvature="0"
       style="fill:#999999;fill-opacity:1" />
    <path
       id="path904"
       d="M 496,202.66797 H 16 c -8.832031,0 -16,-7.16797 -16,-16 0,-8.83203 7.167969,-16 16,-16 h 480 c 8.83203,0 16,7.16797 16,16 0,8.83203 -7.16797,16 -16,16 z m 0,0"
       inkscape:connector-curvature="0"
       style="fill:#999999;fill-opacity:1" />
    <path
       id="path906"
       d="m 122.66797,128 c -8.83203,0 -16,-7.16797 -16,-16 V 16 c 0,-8.832031 7.16797,-16 16,-16 8.83203,0 16,7.167969 16,16 v 96 c 0,8.83203 -7.16797,16 -16,16 z m 0,0"
       inkscape:connector-curvature="0"
       style="fill:#999999;fill-opacity:1" />
    <path
       id="path908"
       d="m 389.33203,128 c -8.83203,0 -16,-7.16797 -16,-16 V 16 c 0,-8.832031 7.16797,-16 16,-16 8.83203,0 16,7.167969 16,16 v 96 c 0,8.83203 -7.16797,16 -16,16 z m 0,0"
       inkscape:connector-curvature="0"
       style="fill:#999999;fill-opacity:1" />
  </g>
</svg>
