<svg xmlns="http://www.w3.org/2000/svg" viewBox="0 0 511.999 511.999" width="512" height="512" fill="#062447"><path d="M470.238 31.48H41.762C18.735 31.48 0 50.214 0 73.242v250.53c0 23.03 18.735 41.764 41.763 41.764h24.415v103.08a11.91 11.91 0 0 0 7.35 11 12.08 12.08 0 0 0 4.553.906c3.1 0 6.145-1.2 8.422-3.487L198 365.535h272.236c23.028 0 41.762-18.735 41.762-41.764V73.242c.002-23.028-18.733-41.763-41.76-41.763zm0 310.243H193.062c-3.08 0-5.878 1.18-8 3.1l-.06.055c-.145.133-.293.263-.43.404L90 439.87v-86.24c0-.414-.02-.78-.063-1.105-.558-6.057-5.647-10.8-11.85-10.8H41.762c-9.898 0-17.95-8.053-17.95-17.95V73.242c0-9.898 8.052-17.95 17.95-17.95h428.475c9.9 0 17.95 8.052 17.95 17.95v250.53c0 9.897-8.052 17.95-17.95 17.95zm-296.25-223.286h-69.4a11.91 11.91 0 0 0-11.906 11.906 11.91 11.91 0 0 0 11.906 11.906h69.4a11.91 11.91 0 0 0 11.906-11.906 11.91 11.91 0 0 0-11.906-11.906zm123.75 68.163h-193.15a11.91 11.91 0 0 0-11.906 11.906 11.91 11.91 0 0 0 11.906 11.906h193.15a11.91 11.91 0 0 0 11.906-11.906 11.91 11.91 0 0 0-11.906-11.906zm109.676-68.163H243.507a11.91 11.91 0 0 0-11.906 11.906 11.91 11.91 0 0 0 11.906 11.906h163.907a11.91 11.91 0 0 0 11.906-11.906 11.91 11.91 0 0 0-11.906-11.906zm0 68.163h-43.102a11.91 11.91 0 0 0-11.906 11.906 11.91 11.91 0 0 0 11.906 11.906h43.102a11.91 11.91 0 0 0 11.906-11.906 11.91 11.91 0 0 0-11.906-11.906zm-195.007 68.165h-107.82a11.91 11.91 0 0 0-11.906 11.906 11.91 11.91 0 0 0 11.906 11.906h107.82a11.91 11.91 0 0 0 11.906-11.906 11.91 11.91 0 0 0-11.906-11.906zm195.007 0h-131.74a11.91 11.91 0 0 0-11.906 11.906 11.91 11.91 0 0 0 11.906 11.906h131.74a11.91 11.91 0 0 0 11.906-11.906 11.91 11.91 0 0 0-11.906-11.906z"/></svg>