<?xml version="1.0" encoding="UTF-8" standalone="no"?>
<!-- Created with Inkscape (http://www.inkscape.org/) -->

<svg
   xmlns:dc="http://purl.org/dc/elements/1.1/"
   xmlns:cc="http://creativecommons.org/ns#"
   xmlns:rdf="http://www.w3.org/1999/02/22-rdf-syntax-ns#"
   xmlns:svg="http://www.w3.org/2000/svg"
   xmlns="http://www.w3.org/2000/svg"
   xmlns:sodipodi="http://sodipodi.sourceforge.net/DTD/sodipodi-0.dtd"
   xmlns:inkscape="http://www.inkscape.org/namespaces/inkscape"
   version="1.1"
   id="svg2"
   width="100"
   height="100"
   viewBox="0 0 100 100"
   sodipodi:docname="coursecardmenuicon.svg"
   inkscape:version="0.92.3 (2405546, 2018-03-11)">
  <metadata
     id="metadata8">
    <rdf:RDF>
      <cc:Work
         rdf:about="">
        <dc:format>image/svg+xml</dc:format>
        <dc:type
           rdf:resource="http://purl.org/dc/dcmitype/StillImage" />
        <dc:title></dc:title>
      </cc:Work>
    </rdf:RDF>
  </metadata>
  <defs
     id="defs6" />
  <sodipodi:namedview
     pagecolor="#ffffff"
     bordercolor="#666666"
     borderopacity="1"
     objecttolerance="10"
     gridtolerance="10"
     guidetolerance="10"
     inkscape:pageopacity="0"
     inkscape:pageshadow="2"
     inkscape:window-width="1920"
     inkscape:window-height="1052"
     id="namedview4"
     showgrid="false"
     inkscape:pagecheckerboard="false"
     inkscape:zoom="3.337544"
     inkscape:cx="111.0116"
     inkscape:cy="50.500298"
     inkscape:window-x="0"
     inkscape:window-y="0"
     inkscape:window-maximized="1"
     inkscape:current-layer="svg2" />
  <path
     style="opacity:1;fill:#4d4d4d;fill-opacity:1;stroke:none;stroke-width:5.0657897;stroke-miterlimit:4;stroke-dasharray:none;stroke-opacity:1"
     d="M 16.143555,38.464844 A 11.535428,11.535428 0 0 0 4.6064451,50 11.535428,11.535428 0 0 0 16.143555,61.535156 11.535428,11.535428 0 0 0 27.678711,50 11.535428,11.535428 0 0 0 16.143555,38.464844 Z m 33.855469,0 A 11.535428,11.535428 0 0 0 38.463867,50 11.535428,11.535428 0 0 0 49.999024,61.535156 11.535428,11.535428 0 0 0 61.536133,50 11.535428,11.535428 0 0 0 49.999024,38.464844 Z m 33.857421,0 A 11.535428,11.535428 0 0 0 72.321289,50 11.535428,11.535428 0 0 0 83.856445,61.535156 11.535428,11.535428 0 0 0 95.393555,50 11.535428,11.535428 0 0 0 83.856445,38.464844 Z"
     id="path817"
     inkscape:connector-curvature="0" />
</svg>
