<svg xmlns="http://www.w3.org/2000/svg" xmlns:xlink="http://www.w3.org/1999/xlink" width="718.983" height="195.262" viewBox="0 0 190.231 51.663"><defs><filter id="A" x="-.035" width="1.071" y="-.163" height="1.327" color-interpolation-filters="sRGB"><feGaussianBlur stdDeviation="2.619"/></filter><path id="B" d="M-341.77 188.857c-.094-.25-.13-8.908-.08-19.238l.092-18.782h13.743l10.897-.048-2.674 7.487-4.788-.12-10.307.095v7.195l5.902-.044 6.827-.03-2.66 7.22-4.168.01-5.902.1v8.64c.07-.067 7.393-.1 7.393-.1l-2.696 7.78c-10.883.074-11.447.19-11.58-.17z"/><path id="C" d="M-249.903 174.442q-1.74 0-2.66 1.38-.906 1.365-.906 3.95 0 2.585.906 3.966.92 1.365 2.66 1.365 1.7 0 2.616-1.365.906-1.38.906-3.966 0-2.585-.906-3.95-.906-1.38-2.616-1.38zm0-4.11q4.223 0 6.59 2.505 2.382 2.505 2.382 6.937 0 4.432-2.382 6.937-2.367 2.505-6.59 2.505-4.238 0-6.635-2.505-2.382-2.505-2.382-6.937 0-4.432 2.382-6.937 2.397-2.505 6.635-2.505z"/></defs><g transform="matrix(1.00213 0 0 1.011557 348.899254 -146.167658)" opacity=".14" filter="url(#A)"><g transform="matrix(.964277 0 0 1.060927 2152.6666 -1964.7265)"><path d="M-2429.666 2023.637h-14.517l-2.29 6.56h-9.332l13.336-36.004h11.07l13.336 36.004h-9.332zm-12.202-6.68h9.863l-4.92-14.324z"/></g><g transform="matrix(.957048 0 0 1.059591 2152.6666 -1945.8877)"><path d="M-2430.6 1978.756h9.327v36.17h-9.327z"/></g><use xlink:href="#B"/><path d="M-317.257 164.776h9.338q4.165 0 6.386 2.076 2.236 2.06 2.236 5.883 0 3.84-2.236 5.916-2.22 2.06-6.386 2.06h-3.712v8.465h-5.626zm5.626 4.56v6.815h3.113q1.637 0 2.528-.882.892-.9.892-2.533 0-1.634-.892-2.517-.89-.882-2.528-.882z"/><path d="M-283.3 171.327v4.368q-1.68-.77-3.244-1.156-1.564-.385-2.952-.385-1.49 0-2.22.418-.716.4-.716 1.253 0 .7.54 1.06.555.37 1.973.546l.92.144q4.02.562 5.407 1.847 1.388 1.285 1.388 4.03 0 2.874-1.93 4.32-1.93 1.445-5.758 1.445-1.622 0-3.36-.29-1.724-.273-3.55-.835v-4.368q1.564.835 3.2 1.253 1.65.417 3.347.417 1.534 0 2.31-.466.775-.466.775-1.38 0-.77-.54-1.14-.526-.385-2.12-.594l-.92-.13q-3.493-.482-4.896-1.782-1.403-1.3-1.403-3.95 0-2.858 1.783-4.24 1.783-1.38 5.466-1.38 1.447 0 3.04.24 1.593.24 3.463.755z"/><path d="M-278.268 170.897h5.232v18.325h-5.232z"/><path d="M-267.98 163.764h5.232v25.458h-5.232z"/><use xlink:href="#C"/><path d="M-220.66 178.18v11.106h-5.26v-8.5q0-2.36-.102-3.257-.088-.896-.32-1.32-.307-.57-.833-.88-.526-.326-1.198-.326-1.637 0-2.572 1.417-.935 1.4-.935 3.892v8.972h-5.232v-18.238h5.232v2.67q1.184-1.596 2.514-2.345 1.33-.765 2.937-.765 2.835 0 4.296 1.938 1.476 1.938 1.476 5.634z"/><path d="M-278.28 163.73h5.3v4.746h-5.3z" opacity="1"/></g><g fill="#fff"><path d="M158.156 42.4h-14l-2.2 6.96h-9l12.86-38.197h10.673l12.86 38.197h-9zM146.4 35.323h9.5l-4.744-15.197zm28.426-24.335h8.927v38.326h-8.927z"/><use xlink:href="#B" x="348.36" y="-139.797"/><path d="M31.103 24.98h9.338q4.165 0 6.386 2.076 2.236 2.06 2.236 5.883 0 3.84-2.236 5.916-2.22 2.06-6.386 2.06h-3.71v8.465h-5.626zm5.626 4.56v6.815h3.113q1.637 0 2.528-.882.892-.9.892-2.533 0-1.634-.892-2.517-.9-.882-2.528-.882zm28.32 2v4.37q-1.68-.77-3.244-1.156-1.564-.385-2.952-.385-1.5 0-2.22.418-.716.4-.716 1.253 0 .7.54 1.06.555.37 1.973.546l.92.144q4.02.562 5.407 1.847 1.388 1.285 1.388 4.03 0 2.874-1.93 4.32-1.93 1.445-5.758 1.445-1.622 0-3.36-.3-1.724-.273-3.55-.835V43.93q1.564.835 3.2 1.253 1.65.417 3.347.417 1.534 0 2.3-.466.775-.466.775-1.38 0-.77-.54-1.14-.526-.385-2.12-.594l-.92-.13q-3.493-.482-4.896-1.782-1.403-1.3-1.403-3.95 0-2.858 1.783-4.24 1.783-1.38 5.466-1.38 1.447 0 3.04.24 1.593.24 3.463.755zm5.042-.43h5.232v18.325h-5.232zm10.288-7.132h5.232v25.458H80.38z"/><use xlink:href="#C" x="348.36" y="-139.796"/><path d="M127.7 38.383V49.49h-5.26v-8.5q0-2.36-.102-3.257-.088-.896-.32-1.32-.307-.57-.833-.88-.526-.326-1.198-.326-1.637 0-2.572 1.417-.935 1.4-.935 3.892v8.972h-5.232V31.25h5.232v2.67q1.184-1.596 2.514-2.345 1.33-.765 2.937-.765 2.835 0 4.296 1.938 1.476 1.938 1.476 5.634zm-57.62-14.45h5.3v4.746h-5.3z"/></g></svg>