<?xml version="1.0" encoding="UTF-8" standalone="no"?>
<!-- Created with Inkscape (http://www.inkscape.org/) -->

<svg
   xmlns:dc="http://purl.org/dc/elements/1.1/"
   xmlns:cc="http://creativecommons.org/ns#"
   xmlns:rdf="http://www.w3.org/1999/02/22-rdf-syntax-ns#"
   xmlns:svg="http://www.w3.org/2000/svg"
   xmlns="http://www.w3.org/2000/svg"
   xmlns:sodipodi="http://sodipodi.sourceforge.net/DTD/sodipodi-0.dtd"
   xmlns:inkscape="http://www.inkscape.org/namespaces/inkscape"
   width="190.23077mm"
   height="51.663277mm"
   viewBox="0 0 190.23078 51.663277"
   version="1.1"
   id="svg8"
   inkscape:version="0.92.4 (5da689c313, 2019-01-14)"
   sodipodi:docname="DarkfullLogoWhite.svg">
  <defs
     id="defs2">
    <filter
       inkscape:collect="always"
       style="color-interpolation-filters:sRGB"
       id="filter1058"
       x="-0.035466835"
       width="1.0709337"
       y="-0.16328956"
       height="1.3265791">
      <feGaussianBlur
         inkscape:collect="always"
         stdDeviation="2.6194218"
         id="feGaussianBlur1060" />
    </filter>
  </defs>
  <sodipodi:namedview
     id="base"
     pagecolor="#ffffff"
     bordercolor="#666666"
     borderopacity="1.0"
     inkscape:pageopacity="0.0"
     inkscape:pageshadow="2"
     inkscape:zoom="1.4"
     inkscape:cx="316.25559"
     inkscape:cy="53.139035"
     inkscape:document-units="mm"
     inkscape:current-layer="layer1"
     showgrid="false"
     inkscape:pagecheckerboard="false"
     inkscape:window-width="1920"
     inkscape:window-height="1017"
     inkscape:window-x="-8"
     inkscape:window-y="-8"
     inkscape:window-maximized="1"
     inkscape:showpageshadow="false"
     inkscape:snap-global="false" />
  <metadata
     id="metadata5">
    <rdf:RDF>
      <cc:Work
         rdf:about="">
        <dc:format>image/svg+xml</dc:format>
        <dc:type
           rdf:resource="http://purl.org/dc/dcmitype/StillImage" />
        <dc:title></dc:title>
      </cc:Work>
    </rdf:RDF>
  </metadata>
  <g
     inkscape:label="Layer 1"
     inkscape:groupmode="layer"
     id="layer1"
     transform="translate(349.4285,-201.80327)">
    <g
       id="g1088">
      <g
         transform="matrix(1.0021297,0,0,1.0115574,-0.52974574,55.635342)"
         id="g878"
         style="opacity:0.13999999;fill:#000000;filter:url(#filter1058)">
        <g
           aria-label="A"
           transform="matrix(0.9642771,0,0,1.0609269,2152.6666,-1964.7265)"
           style="font-style:normal;font-weight:normal;font-size:49.3872261px;line-height:1.25;font-family:sans-serif;letter-spacing:0px;word-spacing:0px;fill:#000000;fill-opacity:1;stroke:none;stroke-width:0.52856535;stroke-linecap:round;stroke-linejoin:bevel;stroke-miterlimit:4;stroke-dasharray:none;stroke-opacity:1"
           id="g856">
          <path
             inkscape:connector-curvature="0"
             d="m -2429.666,2023.6369 h -14.5171 l -2.2909,6.5593 h -9.3325 l 13.3356,-36.0035 h 11.0687 l 13.3355,36.0035 h -9.3325 z m -12.2021,-6.6798 h 9.863 l -4.9194,-14.3242 z"
             style="font-style:normal;font-variant:normal;font-weight:bold;font-stretch:normal;font-family:sans-serif;-inkscape-font-specification:'sans-serif Bold';fill:#000000;fill-opacity:1;stroke:none;stroke-width:0.52856535;stroke-linecap:round;stroke-linejoin:bevel;stroke-miterlimit:4;stroke-dasharray:none;stroke-opacity:1"
             id="path854" />
        </g>
        <g
           aria-label="I"
           transform="matrix(0.95704798,0,0,1.0595913,2152.6666,-1945.8877)"
           style="font-style:normal;font-weight:normal;font-size:49.61600494px;line-height:1.25;font-family:sans-serif;letter-spacing:0px;word-spacing:0px;fill:#000000;fill-opacity:1;stroke:none;stroke-width:0.52856529;stroke-linecap:round;stroke-linejoin:bevel;stroke-miterlimit:4;stroke-dasharray:none;stroke-opacity:1"
           id="g860">
          <path
             inkscape:connector-curvature="0"
             d="m -2430.6102,1978.7556 h 9.3272 v 36.1703 h -9.3272 z"
             style="font-style:normal;font-variant:normal;font-weight:bold;font-stretch:normal;font-family:sans-serif;-inkscape-font-specification:'sans-serif Bold';fill:#000000;fill-opacity:1;stroke:none;stroke-width:0.52856529;stroke-linecap:round;stroke-linejoin:bevel;stroke-miterlimit:4;stroke-dasharray:none;stroke-opacity:1"
             id="path858" />
        </g>
        <path
           style="fill:#000000;stroke:none;stroke-width:0.53513831;stroke-linecap:round;stroke-linejoin:bevel;stroke-miterlimit:4;stroke-dasharray:none;stroke-opacity:1"
           d="m -341.7689,188.85712 c -0.094,-0.25062 -0.129,-8.90768 -0.079,-19.23779 l 0.092,-18.78215 h 13.7427 l 10.897,-0.0482 -2.6736,7.48658 -4.7877,-0.11911 -10.3071,0.0953 v 3.59774 3.59774 l 5.9024,-0.0441 6.8273,-0.0287 -2.6589,7.2211 -4.1684,0.0113 -5.9024,0.0994 v 4.32028 4.32028 c 0.07,-0.0666 7.3932,-0.0994 7.3932,-0.0994 l -2.6964,7.77871 c -10.8834,0.0738 -11.4472,0.18851 -11.5811,-0.16954 z"
           id="path862"
           inkscape:connector-curvature="0"
           sodipodi:nodetypes="ccccccccccccccccccccc" />
        <path
           id="path864"
           style="font-style:normal;font-variant:normal;font-weight:bold;font-stretch:normal;font-size:31.37277603px;line-height:1.25;font-family:sans-serif;-inkscape-font-specification:'sans-serif Bold';letter-spacing:0px;word-spacing:0px;fill:#000000;fill-opacity:1;stroke:none;stroke-width:0.79124451"
           d="m -317.25743,164.77554 h 9.33822 q 4.16488,0 6.38622,2.07553 2.23584,2.0591 2.23584,5.88326 0,3.84049 -2.23584,5.91602 -2.22134,2.0592 -6.38622,2.0592 h -3.71193 v 8.46543 h -5.62629 z m 5.62629,4.55954 v 6.81483 h 3.11273 q 1.63675,0 2.52814,-0.88249 0.8915,-0.89881 0.8915,-2.53309 0,-1.63428 -0.8915,-2.51676 -0.89139,-0.88249 -2.52814,-0.88249 z"
           inkscape:connector-curvature="0" />
        <path
           id="path866"
           style="font-style:normal;font-variant:normal;font-weight:bold;font-stretch:normal;font-size:31.37277603px;line-height:1.25;font-family:sans-serif;-inkscape-font-specification:'sans-serif Bold';letter-spacing:0px;word-spacing:0px;fill:#000000;fill-opacity:1;stroke:none;stroke-width:0.78431946"
           d="m -283.3097,171.32705 v 4.3677 q -1.68053,-0.77077 -3.24419,-1.1561 -1.56367,-0.38544 -2.952,-0.38544 -1.49059,0 -2.22134,0.41752 -0.71605,0.40147 -0.71605,1.25254 0,0.69048 0.54071,1.05977 0.55531,0.3693 1.97283,0.54603 l 0.92069,0.14445 q 4.01882,0.56206 5.40715,1.84668 1.38823,1.28462 1.38823,4.03049 0,2.87428 -1.92895,4.31949 -1.92904,1.4452 -5.75783,1.4452 -1.62215,0 -3.36116,-0.289 -1.72441,-0.27306 -3.55118,-0.83502 v -4.36771 q 1.56366,0.83503 3.2004,1.25254 1.65134,0.41741 3.34656,0.41741 1.53448,0 2.30901,-0.46563 0.77454,-0.46562 0.77454,-1.38095 0,-0.77077 -0.54071,-1.14006 -0.52612,-0.38544 -2.11898,-0.59415 l -0.92069,-0.12851 q -3.49271,-0.48167 -4.89563,-1.78243 -1.40292,-1.30066 -1.40292,-3.95019 0,-2.85824 1.78289,-4.23919 1.78289,-1.38096 5.46554,-1.38096 1.44671,0 3.03966,0.24089 1.59286,0.24078 3.46342,0.75463 z"
           inkscape:connector-curvature="0" />
        <path
           sodipodi:nodetypes="ccccc"
           inkscape:connector-curvature="0"
           id="path868"
           style="font-style:normal;font-variant:normal;font-weight:bold;font-stretch:normal;font-size:31.37277603px;line-height:1.25;font-family:sans-serif;-inkscape-font-specification:'sans-serif Bold';letter-spacing:0px;word-spacing:0px;fill:#000000;fill-opacity:1;stroke:none;stroke-width:0.7917003"
           d="m -278.26792,170.89748 h 5.23172 v 18.32475 h -5.23172 z" />
        <path
           id="path870"
           style="font-style:normal;font-variant:normal;font-weight:bold;font-stretch:normal;font-size:31.37277603px;line-height:1.25;font-family:sans-serif;-inkscape-font-specification:'sans-serif Bold';letter-spacing:0px;word-spacing:0px;fill:#000000;fill-opacity:1;stroke:none;stroke-width:0.7917003"
           d="m -267.97982,163.76389 h 5.23171 v 25.45834 h -5.23171 z"
           inkscape:connector-curvature="0" />
        <path
           id="path872"
           style="font-style:normal;font-variant:normal;font-weight:bold;font-stretch:normal;font-size:31.37277603px;line-height:1.25;font-family:sans-serif;-inkscape-font-specification:'sans-serif Bold';letter-spacing:0px;word-spacing:0px;fill:#000000;fill-opacity:1;stroke:none;stroke-width:0.78431946"
           d="m -249.90259,174.44232 q -1.7391,0 -2.65969,1.38095 -0.90609,1.36491 -0.90609,3.95019 0,2.58528 0.90609,3.96623 0.92059,1.36491 2.65969,1.36491 1.70982,0 2.61582,-1.36491 0.90608,-1.38095 0.90608,-3.96623 0,-2.58528 -0.90608,-3.95019 -0.906,-1.38095 -2.61582,-1.38095 z m 0,-4.11079 q 4.22337,0 6.59076,2.50499 2.38209,2.50498 2.38209,6.93694 0,4.43196 -2.38209,6.93694 -2.36739,2.50498 -6.59076,2.50498 -4.23805,0 -6.63463,-2.50498 -2.38209,-2.50498 -2.38209,-6.93694 0,-4.43196 2.38209,-6.93694 2.39658,-2.50499 6.63463,-2.50499 z"
           inkscape:connector-curvature="0" />
        <path
           id="path874"
           style="font-style:normal;font-variant:normal;font-weight:bold;font-stretch:normal;font-size:31.37277603px;line-height:1.25;font-family:sans-serif;-inkscape-font-specification:'sans-serif Bold';letter-spacing:0px;word-spacing:0px;fill:#000000;fill-opacity:1;stroke:none;stroke-width:0.78982168"
           d="m -220.66045,178.17871 v 11.10559 h -5.26101 v -1.80753 -6.69265 q 0,-2.36113 -0.10226,-3.25682 -0.0878,-0.89557 -0.32149,-1.31897 -0.3069,-0.56987 -0.83302,-0.87931 -0.52612,-0.3257 -1.19829,-0.3257 -1.63674,0 -2.57203,1.41676 -0.93528,1.4004 -0.93528,3.89175 v 8.97247 h -5.23171 v -18.23789 h 5.23171 v 2.67047 q 1.1837,-1.59578 2.51355,-2.34488 1.32984,-0.76525 2.93739,-0.76525 2.83504,0 4.29644,1.93774 1.476,1.93774 1.476,5.63422 z"
           inkscape:connector-curvature="0" />
        <path
           inkscape:connector-curvature="0"
           style="opacity:1;fill:#000000;fill-opacity:1;stroke:none;stroke-width:0.98880816;stroke-linecap:round;stroke-linejoin:round;stroke-miterlimit:4;stroke-dasharray:none;stroke-opacity:1"
           d="m -278.2797,163.7298 h 5.2901 v 4.7463 h -5.2901 z"
           id="path876" />
      </g>
      <g
         transform="translate(-1.0690781,62.006531)"
         style="fill:#ffffff"
         id="g852">
        <g
           id="text1994"
           style="font-style:normal;font-weight:normal;font-size:49.3872261px;line-height:1.25;font-family:sans-serif;letter-spacing:0px;word-spacing:0px;fill:#ffffff;fill-opacity:1;stroke:none;stroke-width:0.52856535;stroke-linecap:round;stroke-linejoin:bevel;stroke-miterlimit:4;stroke-dasharray:none;stroke-opacity:1"
           transform="matrix(0.9642771,0,0,1.0609269,2152.6666,-1964.7265)"
           aria-label="A">
          <path
             id="path821"
             style="font-style:normal;font-variant:normal;font-weight:bold;font-stretch:normal;font-family:sans-serif;-inkscape-font-specification:'sans-serif Bold';fill:#ffffff;fill-opacity:1;stroke:none;stroke-width:0.52856535;stroke-linecap:round;stroke-linejoin:bevel;stroke-miterlimit:4;stroke-dasharray:none;stroke-opacity:1"
             d="m -2429.666,2023.6369 h -14.5171 l -2.2909,6.5593 h -9.3325 l 13.3356,-36.0035 h 11.0687 l 13.3355,36.0035 h -9.3325 z m -12.2021,-6.6798 h 9.863 l -4.9194,-14.3242 z"
             inkscape:connector-curvature="0" />
        </g>
        <g
           id="text1998"
           style="font-style:normal;font-weight:normal;font-size:49.61600494px;line-height:1.25;font-family:sans-serif;letter-spacing:0px;word-spacing:0px;fill:#ffffff;fill-opacity:1;stroke:none;stroke-width:0.52856529;stroke-linecap:round;stroke-linejoin:bevel;stroke-miterlimit:4;stroke-dasharray:none;stroke-opacity:1"
           transform="matrix(0.95704798,0,0,1.0595913,2152.6666,-1945.8877)"
           aria-label="I">
          <path
             id="path824"
             style="font-style:normal;font-variant:normal;font-weight:bold;font-stretch:normal;font-family:sans-serif;-inkscape-font-specification:'sans-serif Bold';fill:#ffffff;fill-opacity:1;stroke:none;stroke-width:0.52856529;stroke-linecap:round;stroke-linejoin:bevel;stroke-miterlimit:4;stroke-dasharray:none;stroke-opacity:1"
             d="m -2430.6102,1978.7556 h 9.3272 v 36.1703 h -9.3272 z"
             inkscape:connector-curvature="0" />
        </g>
        <path
           sodipodi:nodetypes="ccccccccccccccccccccc"
           inkscape:connector-curvature="0"
           id="path2000"
           d="m -341.7689,188.85712 c -0.094,-0.25062 -0.129,-8.90768 -0.079,-19.23779 l 0.092,-18.78215 h 13.7427 l 10.897,-0.0482 -2.6736,7.48658 -4.7877,-0.11911 -10.3071,0.0953 v 3.59774 3.59774 l 5.9024,-0.0441 6.8273,-0.0287 -2.6589,7.2211 -4.1684,0.0113 -5.9024,0.0994 v 4.32028 4.32028 c 0.07,-0.0666 7.3932,-0.0994 7.3932,-0.0994 l -2.6964,7.77871 c -10.8834,0.0738 -11.4472,0.18851 -11.5811,-0.16954 z"
           style="fill:#ffffff;stroke:none;stroke-width:0.53513831;stroke-linecap:round;stroke-linejoin:bevel;stroke-miterlimit:4;stroke-dasharray:none;stroke-opacity:1" />
        <path
           inkscape:connector-curvature="0"
           d="m -317.25743,164.77554 h 9.33822 q 4.16488,0 6.38622,2.07553 2.23584,2.0591 2.23584,5.88326 0,3.84049 -2.23584,5.91602 -2.22134,2.0592 -6.38622,2.0592 h -3.71193 v 8.46543 h -5.62629 z m 5.62629,4.55954 v 6.81483 h 3.11273 q 1.63675,0 2.52814,-0.88249 0.8915,-0.89881 0.8915,-2.53309 0,-1.63428 -0.8915,-2.51676 -0.89139,-0.88249 -2.52814,-0.88249 z"
           style="font-style:normal;font-variant:normal;font-weight:bold;font-stretch:normal;font-size:31.37277603px;line-height:1.25;font-family:sans-serif;-inkscape-font-specification:'sans-serif Bold';letter-spacing:0px;word-spacing:0px;fill:#ffffff;fill-opacity:1;stroke:none;stroke-width:0.79124451"
           id="path827" />
        <path
           inkscape:connector-curvature="0"
           d="m -283.3097,171.32705 v 4.3677 q -1.68053,-0.77077 -3.24419,-1.1561 -1.56367,-0.38544 -2.952,-0.38544 -1.49059,0 -2.22134,0.41752 -0.71605,0.40147 -0.71605,1.25254 0,0.69048 0.54071,1.05977 0.55531,0.3693 1.97283,0.54603 l 0.92069,0.14445 q 4.01882,0.56206 5.40715,1.84668 1.38823,1.28462 1.38823,4.03049 0,2.87428 -1.92895,4.31949 -1.92904,1.4452 -5.75783,1.4452 -1.62215,0 -3.36116,-0.289 -1.72441,-0.27306 -3.55118,-0.83502 v -4.36771 q 1.56366,0.83503 3.2004,1.25254 1.65134,0.41741 3.34656,0.41741 1.53448,0 2.30901,-0.46563 0.77454,-0.46562 0.77454,-1.38095 0,-0.77077 -0.54071,-1.14006 -0.52612,-0.38544 -2.11898,-0.59415 l -0.92069,-0.12851 q -3.49271,-0.48167 -4.89563,-1.78243 -1.40292,-1.30066 -1.40292,-3.95019 0,-2.85824 1.78289,-4.23919 1.78289,-1.38096 5.46554,-1.38096 1.44671,0 3.03966,0.24089 1.59286,0.24078 3.46342,0.75463 z"
           style="font-style:normal;font-variant:normal;font-weight:bold;font-stretch:normal;font-size:31.37277603px;line-height:1.25;font-family:sans-serif;-inkscape-font-specification:'sans-serif Bold';letter-spacing:0px;word-spacing:0px;fill:#ffffff;fill-opacity:1;stroke:none;stroke-width:0.78431946"
           id="path829" />
        <path
           d="m -278.26792,170.89748 h 5.23172 v 18.32475 h -5.23172 z"
           style="font-style:normal;font-variant:normal;font-weight:bold;font-stretch:normal;font-size:31.37277603px;line-height:1.25;font-family:sans-serif;-inkscape-font-specification:'sans-serif Bold';letter-spacing:0px;word-spacing:0px;fill:#ffffff;fill-opacity:1;stroke:none;stroke-width:0.7917003"
           id="path831"
           inkscape:connector-curvature="0"
           sodipodi:nodetypes="ccccc" />
        <path
           inkscape:connector-curvature="0"
           d="m -267.97982,163.76389 h 5.23171 v 25.45834 h -5.23171 z"
           style="font-style:normal;font-variant:normal;font-weight:bold;font-stretch:normal;font-size:31.37277603px;line-height:1.25;font-family:sans-serif;-inkscape-font-specification:'sans-serif Bold';letter-spacing:0px;word-spacing:0px;fill:#ffffff;fill-opacity:1;stroke:none;stroke-width:0.7917003"
           id="path833" />
        <path
           inkscape:connector-curvature="0"
           d="m -249.90259,174.44232 q -1.7391,0 -2.65969,1.38095 -0.90609,1.36491 -0.90609,3.95019 0,2.58528 0.90609,3.96623 0.92059,1.36491 2.65969,1.36491 1.70982,0 2.61582,-1.36491 0.90608,-1.38095 0.90608,-3.96623 0,-2.58528 -0.90608,-3.95019 -0.906,-1.38095 -2.61582,-1.38095 z m 0,-4.11079 q 4.22337,0 6.59076,2.50499 2.38209,2.50498 2.38209,6.93694 0,4.43196 -2.38209,6.93694 -2.36739,2.50498 -6.59076,2.50498 -4.23805,0 -6.63463,-2.50498 -2.38209,-2.50498 -2.38209,-6.93694 0,-4.43196 2.38209,-6.93694 2.39658,-2.50499 6.63463,-2.50499 z"
           style="font-style:normal;font-variant:normal;font-weight:bold;font-stretch:normal;font-size:31.37277603px;line-height:1.25;font-family:sans-serif;-inkscape-font-specification:'sans-serif Bold';letter-spacing:0px;word-spacing:0px;fill:#ffffff;fill-opacity:1;stroke:none;stroke-width:0.78431946"
           id="path835" />
        <path
           inkscape:connector-curvature="0"
           d="m -220.66045,178.17871 v 11.10559 h -5.26101 v -1.80753 -6.69265 q 0,-2.36113 -0.10226,-3.25682 -0.0878,-0.89557 -0.32149,-1.31897 -0.3069,-0.56987 -0.83302,-0.87931 -0.52612,-0.3257 -1.19829,-0.3257 -1.63674,0 -2.57203,1.41676 -0.93528,1.4004 -0.93528,3.89175 v 8.97247 h -5.23171 v -18.23789 h 5.23171 v 2.67047 q 1.1837,-1.59578 2.51355,-2.34488 1.32984,-0.76525 2.93739,-0.76525 2.83504,0 4.29644,1.93774 1.476,1.93774 1.476,5.63422 z"
           style="font-style:normal;font-variant:normal;font-weight:bold;font-stretch:normal;font-size:31.37277603px;line-height:1.25;font-family:sans-serif;-inkscape-font-specification:'sans-serif Bold';letter-spacing:0px;word-spacing:0px;fill:#ffffff;fill-opacity:1;stroke:none;stroke-width:0.78982168"
           id="path837" />
        <path
           id="rect2006"
           d="m -278.2797,163.7298 h 5.2901 v 4.7463 h -5.2901 z"
           style="opacity:1;fill:#ffffff;fill-opacity:1;stroke:none;stroke-width:0.98880816;stroke-linecap:round;stroke-linejoin:round;stroke-miterlimit:4;stroke-dasharray:none;stroke-opacity:1"
           inkscape:connector-curvature="0" />
      </g>
    </g>
  </g>
</svg>
