<svg xmlns="http://www.w3.org/2000/svg" width="512" height="512" viewBox="0 0 456.795 456.795" fill="#062447"><path d="M448.947 218.475c-.922-1.168-23.055-28.933-61-56.8-50.705-37.253-105.877-56.944-159.55-56.944s-108.844 19.7-159.55 56.944c-37.944 27.876-60.077 55.642-61 56.8L0 228.397l7.846 9.923c.923 1.168 23.056 28.934 61 56.8 50.707 37.252 105.88 56.943 159.55 56.943s108.845-19.7 159.55-56.943c37.945-27.877 60.078-55.643 61-56.8l7.848-9.923-7.848-9.922zm-220.55 96.564c-47.774 0-86.642-38.867-86.642-86.642a86.5 86.5 0 0 1 2.747-21.684l-19.78-3.33a106.44 106.44 0 0 0-2.966 25.013c0 30.86 13.182 58.696 34.204 78.187-27.06-9.996-50.072-24.023-67.44-36.7-21.516-15.715-37.64-31.6-46.834-41.478 9.197-9.872 25.32-25.764 46.834-41.478 17.367-12.686 40.38-26.713 67.44-36.7l13.27 14.958c15.498-14.512 36.312-23.412 59.168-23.412 47.774 0 86.64 38.867 86.64 86.642s-38.867 86.642-86.64 86.642zm139.877-45.164c-17.37 12.686-40.38 26.713-67.44 36.7 21.02-19.5 34.203-47.326 34.203-78.188s-13.182-58.697-34.203-78.188c27.06 9.997 50.07 24.024 67.44 36.7 21.516 15.715 37.64 31.6 46.834 41.477-9.197 9.874-25.32 25.767-46.834 41.48zm-195.014-58.32a57.62 57.62 0 0 0-2.507 16.843c0 31.834 25.807 57.642 57.642 57.642s57.64-25.807 57.64-57.642-25.807-57.642-57.64-57.642c-15.506 0-29.57 6.134-39.932 16.094l28.432 32.048-43.635-7.343z"/></svg>