<?xml version="1.0" encoding="UTF-8" standalone="no"?>
<!-- Generator: Adobe Illustrator 18.0.0, SVG Export Plug-In . SVG Version: 6.00 Build 0)  -->

<svg
   xmlns:dc="http://purl.org/dc/elements/1.1/"
   xmlns:cc="http://creativecommons.org/ns#"
   xmlns:rdf="http://www.w3.org/1999/02/22-rdf-syntax-ns#"
   xmlns:svg="http://www.w3.org/2000/svg"
   xmlns="http://www.w3.org/2000/svg"
   xmlns:sodipodi="http://sodipodi.sourceforge.net/DTD/sodipodi-0.dtd"
   xmlns:inkscape="http://www.inkscape.org/namespaces/inkscape"
   version="1.1"
   id="Capa_1"
   x="0px"
   y="0px"
   viewBox="0 0 489.914 489.914"
   style="enable-background:new 0 0 489.914 489.914;"
   xml:space="preserve"
   sodipodi:docname="favourite-symbol.svg"
   inkscape:version="0.92.3 (2405546, 2018-03-11)"><metadata
   id="metadata39"><rdf:RDF><cc:Work
       rdf:about=""><dc:format>image/svg+xml</dc:format><dc:type
         rdf:resource="http://purl.org/dc/dcmitype/StillImage" /><dc:title></dc:title></cc:Work></rdf:RDF></metadata><defs
   id="defs37" /><sodipodi:namedview
   pagecolor="#ffffff"
   bordercolor="#666666"
   borderopacity="1"
   objecttolerance="10"
   gridtolerance="10"
   guidetolerance="10"
   inkscape:pageopacity="0"
   inkscape:pageshadow="2"
   inkscape:window-width="1920"
   inkscape:window-height="1052"
   id="namedview35"
   showgrid="false"
   inkscape:zoom="0.4817172"
   inkscape:cx="244.957"
   inkscape:cy="244.957"
   inkscape:window-x="0"
   inkscape:window-y="0"
   inkscape:window-maximized="1"
   inkscape:current-layer="Capa_1" />
<path
   d="M483.871,204.522c5.38-4.725,7.395-12.197,5.123-18.98c-2.272-6.785-8.394-11.538-15.53-12.07l-142.249-10.618  c-6.607-0.502-12.376-4.609-14.982-10.682L259.738,21.184c-2.838-6.555-9.331-10.793-16.484-10.714  c-7.137,0.066-13.549,4.401-16.259,11.021l-54.056,132.016c-2.497,6.125-8.204,10.346-14.792,10.956l-142.04,13.245  c-7.117,0.66-13.146,5.527-15.29,12.343c-2.142,6.817,0.017,14.263,5.461,18.884l108.845,92.216  c5.046,4.288,7.299,11.005,5.851,17.452L89.682,457.786c-1.565,6.978,1.19,14.212,7.023,18.369c5.834,4.141,13.566,4.4,19.658,0.627  l121.315-75.039c5.624-3.477,12.715-3.545,18.417-0.159l122.686,72.767c6.14,3.642,13.888,3.256,19.624-0.998  c5.738-4.254,8.381-11.555,6.671-18.496l-33.839-138.575c-1.579-6.43,0.547-13.198,5.511-17.561L483.871,204.522z"
   id="path2"
   style="fill:#999999" />
<g
   id="g4">
</g>
<g
   id="g6">
</g>
<g
   id="g8">
</g>
<g
   id="g10">
</g>
<g
   id="g12">
</g>
<g
   id="g14">
</g>
<g
   id="g16">
</g>
<g
   id="g18">
</g>
<g
   id="g20">
</g>
<g
   id="g22">
</g>
<g
   id="g24">
</g>
<g
   id="g26">
</g>
<g
   id="g28">
</g>
<g
   id="g30">
</g>
<g
   id="g32">
</g>
</svg>