<svg xmlns="http://www.w3.org/2000/svg" xmlns:xlink="http://www.w3.org/1999/xlink" width="181.78" height="297.865" viewBox="0 0 48.096 78.81"><g transform="matrix(.352778 0 0 -.352778 -333.80161 683.37258)"><path d="M946.21 1937.118h136.333v-223.4H946.21z" fill="#eaffed"/><path d="M1014.375 1845.38c-25.352-.023-49.737-9.734-68.165-27.145V1713.72h136.333v104.432c-18.415 17.443-42.803 27.185-68.168 27.23z" fill="#fff"/><path d="M1056.782 1923.058c-1.913 0-3.454-1.54-3.454-3.454s1.54-3.454 3.454-3.454h13.138c3.107.067 3.532-6.813 0-6.907h-9.234c-1.913 0-3.454-1.54-3.454-3.454s1.54-3.453 3.454-3.453h21.855v7.197c-1.937 1.06-2.097 4.734 0 6.142v7.383zm-110.574-54.574v-9.04c.877-1.447.83-3.555 0-4.87v-8.764h20.984c1.913 0 3.454 1.686 3.454 3.78s-1.54 3.78-3.454 3.78h-9.236c-3.532.103-3.107 7.63 0 7.557h13.14c1.913 0 3.454 1.686 3.454 3.78s-1.54 3.78-3.454 3.78z" fill="#deffdb"/><ellipse ry="6.61" rx="1.911" transform="matrix(0 -1 -1 0 -.601 -16.517)" cy="-1027.324" cx="-1832.22" fill="#333"/><path d="M1031.3 1818.216c-.993-2.343-.176-3.95.678-5.246.517-.575-4.882-4.295-8.694-4.947-5.566-.953-16.844-.856-17.626-.796-6.372.483-8.255 2.978-8.866 6.424-.827 4.663 1.352 6.93 4.937 4.46 4.44-3.777 5.57-3.217 11.15-1.22a30.95 30.95 0 0 0 10.671 3.398c4.285.55 5.664-1.004 7.75-2.07z" fill="#3f87cf"/><path d="M1012.092 1816.623c3.15 1.835 6.52 3.274 10.505 3.517-1.12-4.547-5.778-4.378-10.505-3.517z" fill="#2364a3"/><ellipse cx="1160.309" cy="-1836.144" transform="matrix(1 0 .069868 -.997556 -.601 -16.517)" rx=".712" ry="6.839" fill="#d2eaf7"/><g fill="#98ba63"><path d="M1014.523 1808.905s4.054 4.054 9.723 2.14c-2.103-3.616-3.025-8.884-6.044-10.66-1.19-.7-3.575-1.55-4.092.638-.56 2.497-.22 5.486.413 7.883z"/><path d="M1023.795 1811.833l.45-.788-.85.108z"/></g><path d="M1014.072 1809.694s4.054 4.054 9.723 2.14c-2.103-3.616-3.025-8.884-6.044-10.66-1.19-.7-3.575-1.55-4.092.638-.562 2.497-.22 5.486.413 7.883z" fill="#a1cc5e"/><g fill="#98ba63"><use xlink:href="#B"/><path d="M1009.015 1810.742l.06-.38-.384.076z"/></g><use xlink:href="#B" x="-0.06" y="0.38" fill="#a1cc5e"/></g><defs ><path id="B" d="M1004.023 1809.67s2.727 1.756 5.052.693c-1.71-1.613-3.185-4.03-4.972-4.76-.704-.288-2.007-.61-1.824.422.223 1.176.97 2.553 1.744 3.646z"/></defs></svg>