<?xml version="1.0" encoding="UTF-8" standalone="no"?>
<!-- Created with Inkscape (http://www.inkscape.org/) -->

<svg
   xmlns:dc="http://purl.org/dc/elements/1.1/"
   xmlns:cc="http://creativecommons.org/ns#"
   xmlns:rdf="http://www.w3.org/1999/02/22-rdf-syntax-ns#"
   xmlns:svg="http://www.w3.org/2000/svg"
   xmlns="http://www.w3.org/2000/svg"
   xmlns:xlink="http://www.w3.org/1999/xlink"
   xmlns:sodipodi="http://sodipodi.sourceforge.net/DTD/sodipodi-0.dtd"
   xmlns:inkscape="http://www.inkscape.org/namespaces/inkscape"
   version="1.1"
   id="svg2"
   width="369.83362"
   height="307.82397"
   viewBox="0 0 369.83362 307.82397"
   sodipodi:docname="readingGirls.svg"
   inkscape:version="0.92.4 (5da689c313, 2019-01-14)">
  <metadata
     id="metadata8">
    <rdf:RDF>
      <cc:Work
         rdf:about="">
        <dc:format>image/svg+xml</dc:format>
        <dc:type
           rdf:resource="http://purl.org/dc/dcmitype/StillImage" />
        <dc:title></dc:title>
      </cc:Work>
    </rdf:RDF>
  </metadata>
  <defs
     id="defs6">
    <linearGradient
       inkscape:collect="always"
       id="linearGradient1038">
      <stop
         style="stop-color:#0a154a;stop-opacity:1"
         offset="0"
         id="stop1034" />
      <stop
         style="stop-color:#041f74;stop-opacity:1"
         offset="1"
         id="stop1036" />
    </linearGradient>
    <linearGradient
       inkscape:collect="always"
       id="linearGradient1007">
      <stop
         style="stop-color:#0a1958;stop-opacity:1;"
         offset="0"
         id="stop1003" />
      <stop
         style="stop-color:#062d77;stop-opacity:1"
         offset="1"
         id="stop1005" />
    </linearGradient>
    <linearGradient
       inkscape:collect="always"
       id="linearGradient868">
      <stop
         style="stop-color:#4ea6f4;stop-opacity:1"
         offset="0"
         id="stop864" />
      <stop
         style="stop-color:#4965f2;stop-opacity:1"
         offset="1"
         id="stop866" />
    </linearGradient>
    <linearGradient
       inkscape:collect="always"
       id="linearGradient858">
      <stop
         style="stop-color:#3f69f8;stop-opacity:1"
         offset="0"
         id="stop854" />
      <stop
         style="stop-color:#53bbf5;stop-opacity:1"
         offset="1"
         id="stop856" />
    </linearGradient>
    <linearGradient
       inkscape:collect="always"
       id="linearGradient848">
      <stop
         style="stop-color:#51c4fc;stop-opacity:1"
         offset="0"
         id="stop844" />
      <stop
         style="stop-color:#4378f7;stop-opacity:1"
         offset="1"
         id="stop846" />
    </linearGradient>
    <linearGradient
       inkscape:collect="always"
       id="linearGradient4583">
      <stop
         style="stop-color:#23c5a0;stop-opacity:1"
         offset="0"
         id="stop4579" />
      <stop
         style="stop-color:#2cd583;stop-opacity:1"
         offset="1"
         id="stop4581" />
    </linearGradient>
    <linearGradient
       inkscape:collect="always"
       xlink:href="#linearGradient4583"
       id="linearGradient4585"
       x1="1382.5574"
       y1="7937.8242"
       x2="1600.4755"
       y2="7819.8667"
       gradientUnits="userSpaceOnUse"
       gradientTransform="translate(324.40267,29.242641)" />
    <linearGradient
       inkscape:collect="always"
       xlink:href="#linearGradient848"
       id="linearGradient850"
       x1="917.9223"
       y1="7771.0684"
       x2="933.98615"
       y2="7748.5718"
       gradientUnits="userSpaceOnUse"
       gradientTransform="translate(19.625)" />
    <linearGradient
       inkscape:collect="always"
       xlink:href="#linearGradient858"
       id="linearGradient860"
       x1="936.90314"
       y1="7774.3701"
       x2="954.5108"
       y2="7774.3701"
       gradientUnits="userSpaceOnUse"
       gradientTransform="translate(3.75,-13.3125)" />
    <linearGradient
       inkscape:collect="always"
       xlink:href="#linearGradient868"
       id="linearGradient870"
       x1="950.77753"
       y1="7769.4438"
       x2="960.9812"
       y2="7758.5688"
       gradientUnits="userSpaceOnUse"
       gradientTransform="translate(0.27808001,-0.11209999)" />
    <linearGradient
       inkscape:collect="always"
       xlink:href="#linearGradient1007"
       id="linearGradient1009"
       x1="938.24988"
       y1="7788.8203"
       x2="963.9458"
       y2="7788.8203"
       gradientUnits="userSpaceOnUse" />
    <linearGradient
       inkscape:collect="always"
       xlink:href="#linearGradient1007"
       id="linearGradient1017"
       x1="950.21893"
       y1="7767.5098"
       x2="972.87952"
       y2="7767.5098"
       gradientUnits="userSpaceOnUse" />
    <linearGradient
       inkscape:collect="always"
       xlink:href="#linearGradient1038"
       id="linearGradient1040"
       x1="1089.6558"
       y1="7790.6304"
       x2="1101.8192"
       y2="7800.8804"
       gradientUnits="userSpaceOnUse"
       gradientTransform="matrix(0.9158318,0,0,1,121.3545,-3.09495)" />
    <linearGradient
       inkscape:collect="always"
       xlink:href="#linearGradient1038"
       id="linearGradient1056"
       x1="1134.1033"
       y1="7797.9292"
       x2="1149.1331"
       y2="7788.3833"
       gradientUnits="userSpaceOnUse"
       gradientTransform="translate(-10.606602,-4.4194173)" />
  </defs>
  <sodipodi:namedview
     pagecolor="#ffffff"
     bordercolor="#666666"
     borderopacity="1"
     objecttolerance="10"
     gridtolerance="10"
     guidetolerance="10"
     inkscape:pageopacity="0"
     inkscape:pageshadow="2"
     inkscape:window-width="1920"
     inkscape:window-height="1017"
     id="namedview4"
     showgrid="false"
     inkscape:snap-global="false"
     inkscape:zoom="0.5"
     inkscape:cx="56.12156"
     inkscape:cy="3.3253347"
     inkscape:window-x="-8"
     inkscape:window-y="-8"
     inkscape:window-maximized="1"
     inkscape:current-layer="svg2"
     inkscape:pagecheckerboard="true" />
  <g
     id="g1150"
     inkscape:export-xdpi="96"
     inkscape:export-ydpi="96"
     transform="translate(-1684.6196,-7763.2412)">
    <g
       transform="translate(801,29)"
       id="g1113">
      <g
         id="g1162"
         transform="translate(-0.29806622,0.07275017)" />
    </g>
    <g
       id="g1264"
       inkscape:export-xdpi="96"
       inkscape:export-ydpi="96">
      <g
         id="g1328"
         inkscape:export-xdpi="96"
         inkscape:export-ydpi="96">
        <path
           sodipodi:nodetypes="ssscccs"
           inkscape:connector-curvature="0"
           id="path4576"
           d="m 2054.4532,7908.4262 c 0,89.823 -105.9979,162.639 -184.5327,162.639 -101.9146,0 -170.985,-54.1587 -184.5328,-162.639 -3.0806,-24.6673 3.0157,-57.277 19.9073,-77.8829 42.5238,-54.1695 89.903,-5.7807 166.8596,-7.9048 69.9034,-4.7134 100.7472,-36.951 133.8413,-9.175 33.5387,22.0082 48.4573,54.4707 48.4573,94.9627 z"
           style="opacity:1;fill:url(#linearGradient4585);fill-opacity:1;stroke:none;stroke-width:1.12059748" />
        <g
           transform="translate(801,29)"
           id="g1202">
          <g
             id="g1288">
            <path
               style="fill:url(#linearGradient850);fill-opacity:1;stroke:none;stroke-width:0.05;stroke-linecap:butt;stroke-linejoin:miter;stroke-miterlimit:4;stroke-dasharray:none;stroke-opacity:1"
               d="m 944.62947,7747.8849 c -1.91651,1.3248 -3.11515,2.7148 -4.12229,4.1223 -2.05756,1.8584 -2.06162,13.9263 -2.95985,19.061 l 12.5,0.375 4.93881,-5.2254 -2.36114,-8.0928 -0.83969,-9.0764 -1.66633,-1.2227 z"
               id="path842"
               inkscape:connector-curvature="0"
               sodipodi:nodetypes="ccccccccc" />
            <g
               id="g933"
               transform="matrix(0.04175201,0.01759863,-0.01118741,0.06567899,1063.5199,7259.1193)">
              <g
                 id="g925">
                <path
                   sodipodi:nodetypes="csccccssccssccsccccccccccccccccccccsccccsscscssccscccccccccsccccssccccccscssscsscccccssssscssscssscssscssccccc"
                   inkscape:connector-curvature="0"
                   id="path923"
                   d="m -373.30391,7698.503 c 0.31135,-0.081 0.74335,-0.076 0.96,0.012 0.21665,0.088 -0.0381,0.1541 -0.56609,0.1475 -0.528,-0.01 -0.70526,-0.078 -0.39391,-0.1593 z m 4.63391,-0.3101 c 0.22,-0.089 0.58,-0.089 0.8,0 0.22,0.089 0.04,0.1614 -0.4,0.1614 -0.44,0 -0.62,-0.073 -0.4,-0.1614 z m -11.2,-0.3199 c 0.22,-0.089 0.58,-0.089 0.8,0 0.22,0.089 0.04,0.1614 -0.4,0.1614 -0.44,0 -0.62,-0.073 -0.4,-0.1614 z m -3.67391,-0.3267 c 0.31135,-0.081 0.74335,-0.076 0.96,0.012 0.21665,0.088 -0.0381,0.154 -0.56609,0.1475 -0.528,-0.01 -0.70526,-0.078 -0.39391,-0.1594 z m 20.73917,-0.2849 c 0.0154,-0.3728 0.0912,-0.4486 0.19334,-0.1933 0.0924,0.231 0.0811,0.507 -0.0252,0.6133 -0.10634,0.1063 -0.18197,-0.083 -0.16807,-0.42 z m -23.44526,-0.034 c 0.231,-0.092 0.507,-0.081 0.61333,0.025 0.10634,0.1063 -0.0827,0.1819 -0.42,0.1681 -0.37278,-0.015 -0.4486,-0.091 -0.19333,-0.1934 z m 16.38294,-33.3521 -0.008,-33.6586 2.1627,0.095 2.16271,0.095 0.19395,13.92 c 0.10666,7.656 0.21466,22.668 0.24,33.36 l 0.046,19.44 h -0.72 c -0.396,0 -1.47346,0.093 -2.39436,0.2039 l -1.67435,0.2011 -0.008,-33.6586 z m 3.11574,-10.6693 c -0.057,-1.804 -0.10371,-0.328 -0.10371,3.28 0,3.608 0.0467,5.084 0.10371,3.28 0.057,-1.804 0.057,-4.756 0,-6.56 z m -26.87868,43.3743 c 0.396,-0.076 1.044,-0.076 1.44,0 0.396,0.076 0.072,0.1386 -0.72,0.1386 -0.792,0 -1.116,-0.062 -0.72,-0.1386 z m -3.03391,-0.316 c 0.31135,-0.081 0.74335,-0.076 0.96,0.012 0.21665,0.088 -0.0381,0.1541 -0.56609,0.1475 -0.528,-0.01 -0.70526,-0.078 -0.39391,-0.1593 z m -3.66609,-0.3181 c 0.231,-0.092 0.507,-0.081 0.61333,0.025 0.10634,0.1063 -0.0827,0.1819 -0.42,0.168 -0.37278,-0.015 -0.4486,-0.091 -0.19333,-0.1933 z m -2.73391,-0.322 c 0.31135,-0.081 0.74335,-0.076 0.96,0.012 0.21665,0.088 -0.0381,0.154 -0.56609,0.1475 -0.528,-0.01 -0.70526,-0.078 -0.39391,-0.1593 z M -406.75,7695.31 c 0.22,-0.089 0.58,-0.089 0.8,0 0.22,0.089 0.04,0.1614 -0.4,0.1614 -0.44,0 -0.62,-0.073 -0.4,-0.1614 z m -2.54,-0.3266 c 0.231,-0.093 0.507,-0.081 0.61333,0.025 0.10634,0.1064 -0.0827,0.182 -0.42,0.1681 -0.37278,-0.015 -0.4486,-0.091 -0.19333,-0.1933 z m -1.14575,-15.141 c 0,-0.616 0.0659,-0.868 0.14635,-0.56 0.0805,0.308 0.0805,0.812 0,1.12 -0.0805,0.308 -0.14635,0.056 -0.14635,-0.56 z m 0,-2.56 c 0,-0.616 0.0659,-0.868 0.14635,-0.56 0.0805,0.308 0.0805,0.812 0,1.12 -0.0805,0.308 -0.14635,0.056 -0.14635,-0.56 z m 0.0308,-3.68 c 10e-4,-1.232 0.0593,-1.6968 0.12854,-1.0329 0.0693,0.664 0.0681,1.672 -0.003,2.24 -0.0707,0.5681 -0.12737,0.025 -0.12595,-1.2071 z m 0.007,-5.6 c 0,-1.496 0.0551,-2.108 0.1225,-1.36 0.0674,0.748 0.0674,1.972 0,2.72 -0.0674,0.748 -0.1225,0.136 -0.1225,-1.36 z m 47.35061,-13.44 c 0,-1.144 0.0581,-1.612 0.12907,-1.04 0.071,0.572 0.071,1.508 0,2.08 -0.071,0.572 -0.12907,0.104 -0.12907,-1.04 z m -0.0282,-3.52 c 0,-0.616 0.0659,-0.868 0.14635,-0.56 0.0805,0.308 0.0805,0.812 0,1.12 -0.0805,0.308 -0.14635,0.056 -0.14635,-0.56 z m -47.70372,-4.16 c 0,-0.44 0.0726,-0.62 0.16141,-0.4 0.0888,0.22 0.0888,0.58 0,0.8 -0.0888,0.22 -0.16141,0.04 -0.16141,-0.4 z m 0.0705,-5.44 c 0,-2.024 0.052,-2.852 0.11547,-1.84 0.0635,1.012 0.0635,2.668 0,3.68 -0.0635,1.012 -0.11547,0.184 -0.11547,-1.84 z m -0.0586,-4.64 c 0.007,-0.528 0.0782,-0.7053 0.15938,-0.3939 0.0811,0.3113 0.0758,0.7433 -0.0119,0.96 -0.0876,0.2166 -0.15403,-0.038 -0.14751,-0.5661 z"
                   style="fill:#fafafa;stroke-width:0.31999999" />
              </g>
              <path
                 style="fill:#012e75;stroke-width:0.31999999"
                 d="m -409.39153,7694.4966 c -0.20536,-0.2401 -0.48982,-16.8301 -0.6797,-39.6395 l -0.20935,-25.1477 7.16529,-0.2071 c 3.94091,-0.1138 12.91603,-0.3811 19.94472,-0.594 9.89499,-0.2996 12.80815,-0.3008 12.90667,-0.01 0.087,0.261 1.11926,0.3817 3.26425,0.3817 h 3.13701 l 0.16397,1.04 c 0.0902,0.572 0.17731,8.168 0.19363,16.88 0.0163,8.712 0.12553,23.6478 0.2427,33.1907 0.18124,14.7609 0.14582,17.3762 -0.23731,17.5213 -0.24769,0.094 -1.53035,0.045 -2.85035,-0.1092 l -2.4,-0.2798 2.04394,-0.042 2.04393,-0.041 -0.23587,-33.52 c -0.12973,-18.436 -0.29331,-33.5798 -0.3635,-33.6529 -0.0702,-0.073 -1.24382,-0.1976 -2.60806,-0.2767 l -2.48044,-0.1438 0.0795,8.9167 c 0.0437,4.9042 0.1157,20.3287 0.16,34.2768 2.8516,29.5159 -3.9279,25.0183 -39.28103,21.4565 z"
                 id="path927"
                 inkscape:connector-curvature="0"
                 sodipodi:nodetypes="csccccscccscccccscccccc" />
              <g
                 id="g931">
                <path
                   style="fill:#fafafa;stroke-width:0.31999999"
                   d="m -373.30391,7698.503 c 0.31135,-0.081 0.74335,-0.076 0.96,0.012 0.21665,0.088 -0.0381,0.1541 -0.56609,0.1475 -0.528,-0.01 -0.70526,-0.078 -0.39391,-0.1593 z m 4.63391,-0.3101 c 0.22,-0.089 0.58,-0.089 0.8,0 0.22,0.089 0.04,0.1614 -0.4,0.1614 -0.44,0 -0.62,-0.073 -0.4,-0.1614 z m -11.2,-0.3199 c 0.22,-0.089 0.58,-0.089 0.8,0 0.22,0.089 0.04,0.1614 -0.4,0.1614 -0.44,0 -0.62,-0.073 -0.4,-0.1614 z m -3.67391,-0.3267 c 0.31135,-0.081 0.74335,-0.076 0.96,0.012 0.21665,0.088 -0.0381,0.154 -0.56609,0.1475 -0.528,-0.01 -0.70526,-0.078 -0.39391,-0.1594 z m 20.73917,-0.2849 c 0.0154,-0.3728 0.0912,-0.4486 0.19334,-0.1933 0.0924,0.231 0.0811,0.507 -0.0252,0.6133 -0.10634,0.1063 -0.18197,-0.083 -0.16807,-0.42 z m -23.44526,-0.034 c 0.231,-0.092 0.507,-0.081 0.61333,0.025 0.10634,0.1063 -0.0827,0.1819 -0.42,0.1681 -0.37278,-0.015 -0.4486,-0.091 -0.19333,-0.1934 z m 16.38294,-33.3521 -0.008,-33.6586 2.1627,0.095 2.16271,0.095 0.19395,13.92 c 0.10666,7.656 0.21466,22.668 0.24,33.36 l 0.046,19.44 h -0.72 c -0.396,0 -1.47346,0.093 -2.39436,0.2039 l -1.67435,0.2011 -0.008,-33.6586 z m 3.11574,-10.6693 c -0.057,-1.804 -0.10371,-0.328 -0.10371,3.28 0,3.608 0.0467,5.084 0.10371,3.28 0.057,-1.804 0.057,-4.756 0,-6.56 z m -26.87868,43.3743 c 0.396,-0.076 1.044,-0.076 1.44,0 0.396,0.076 0.072,0.1386 -0.72,0.1386 -0.792,0 -1.116,-0.062 -0.72,-0.1386 z m -3.03391,-0.316 c 0.31135,-0.081 0.74335,-0.076 0.96,0.012 0.21665,0.088 -0.0381,0.1541 -0.56609,0.1475 -0.528,-0.01 -0.70526,-0.078 -0.39391,-0.1593 z m -3.66609,-0.3181 c 0.231,-0.092 0.507,-0.081 0.61333,0.025 0.10634,0.1063 -0.0827,0.1819 -0.42,0.168 -0.37278,-0.015 -0.4486,-0.091 -0.19333,-0.1933 z m -2.73391,-0.322 c 0.31135,-0.081 0.74335,-0.076 0.96,0.012 0.21665,0.088 -0.0381,0.154 -0.56609,0.1475 -0.528,-0.01 -0.70526,-0.078 -0.39391,-0.1593 z M -406.75,7695.31 c 0.22,-0.089 0.58,-0.089 0.8,0 0.22,0.089 0.04,0.1614 -0.4,0.1614 -0.44,0 -0.62,-0.073 -0.4,-0.1614 z m -2.54,-0.3266 c 0.231,-0.093 0.507,-0.081 0.61333,0.025 0.10634,0.1064 -0.0827,0.182 -0.42,0.1681 -0.37278,-0.015 -0.4486,-0.091 -0.19333,-0.1933 z m -1.14575,-15.141 c 0,-0.616 0.0659,-0.868 0.14635,-0.56 0.0805,0.308 0.0805,0.812 0,1.12 -0.0805,0.308 -0.14635,0.056 -0.14635,-0.56 z m 0,-2.56 c 0,-0.616 0.0659,-0.868 0.14635,-0.56 0.0805,0.308 0.0805,0.812 0,1.12 -0.0805,0.308 -0.14635,0.056 -0.14635,-0.56 z m 0.0308,-3.68 c 10e-4,-1.232 0.0593,-1.6968 0.12854,-1.0329 0.0693,0.664 0.0681,1.672 -0.003,2.24 -0.0707,0.5681 -0.12737,0.025 -0.12595,-1.2071 z m 0.007,-5.6 c 0,-1.496 0.0551,-2.108 0.1225,-1.36 0.0674,0.748 0.0674,1.972 0,2.72 -0.0674,0.748 -0.1225,0.136 -0.1225,-1.36 z m 47.35061,-13.44 c 0,-1.144 0.0581,-1.612 0.12907,-1.04 0.071,0.572 0.071,1.508 0,2.08 -0.071,0.572 -0.12907,0.104 -0.12907,-1.04 z m -0.0282,-3.52 c 0,-0.616 0.0659,-0.868 0.14635,-0.56 0.0805,0.308 0.0805,0.812 0,1.12 -0.0805,0.308 -0.14635,0.056 -0.14635,-0.56 z m -47.70372,-4.16 c 0,-0.44 0.0726,-0.62 0.16141,-0.4 0.0888,0.22 0.0888,0.58 0,0.8 -0.0888,0.22 -0.16141,0.04 -0.16141,-0.4 z m 0.0705,-5.44 c 0.10912,-4.4903 -0.0198,-0.3156 0.11547,1.84 -0.0635,1.012 -0.11547,0.184 -0.11547,-1.84 z"
                   id="path929"
                   inkscape:connector-curvature="0"
                   sodipodi:nodetypes="csccccssccssccsccccccccccccccccccccsccccsscscssccscccccccccsccccssccccccscssscsscccccssssscssscssscssccc" />
              </g>
              <path
                 style="fill:#e6e6e6;stroke:none;stroke-width:20.69148254px;stroke-linecap:butt;stroke-linejoin:miter;stroke-opacity:1"
                 d="m -409.39129,7694.4955 -0.88874,-64.7867 39.9301,0.1382 0.49202,67.6841 z"
                 id="path1164"
                 inkscape:connector-curvature="0" />
            </g>
            <g
               transform="matrix(1.4429361,-0.01046777,0.01142117,1.3224852,-514.77862,-2490.7415)"
               id="g993">
              <path
                 sodipodi:nodetypes="csccccscccscccccsccccccccccccc"
                 inkscape:connector-curvature="0"
                 id="path939"
                 d="m 960.98164,7756.6998 c 0.008,-0.01 -0.01,-0.8439 0.24452,-1.9602 l 0.2835,-1.2454 -0.20572,-0.1056 c -0.11315,-0.058 -0.37077,-0.1908 -0.57249,-0.2949 -0.28398,-0.1466 -0.36826,-0.1854 -0.37337,-0.1723 -0.005,0.012 -0.0353,0 -0.0974,-0.024 l -0.0908,-0.042 -0.0128,0.05 c -0.007,0.027 -0.0685,0.4033 -0.13648,0.8357 -0.068,0.4324 -0.18697,1.1727 -0.26434,1.6451 -0.11969,0.7306 -0.13894,0.861 -0.12898,0.8733 0.006,0.01 0.0439,0.023 0.0833,0.033 l 0.0716,0.018 -0.0588,-0.029 -0.0588,-0.029 0.26671,-1.6615 c 0.14669,-0.9139 0.26883,-1.6637 0.27143,-1.6664 0.003,0 0.0375,0.01 0.0776,0.021 l 0.0729,0.026 c -0.11958,0.7368 -0.11372,1.5228 -0.21506,2.1619 -0.17555,1.1103 -0.324,1.2389 -0.3115,1.2429 0.35984,0.1025 0.75204,0.2105 1.15498,0.3234 z m -1.15293,-0.3727 h 0.0362 c 0.0274,0.011 0.0282,0.012 0.006,0.013 -0.0308,0 -0.049,-0.01 -0.0423,-0.017 z m 0.0995,0.016 c 0.0453,0.028 0,0.01 0,0 z"
                 style="fill:#012e75;fill-opacity:0.91005291;stroke-width:0.01255815" />
              <g
                 id="g943"
                 transform="matrix(-0.02893454,-0.01330683,-0.00775299,0.04966175,1008.7914,7369.1297)">
                <path
                   sodipodi:nodetypes="csccccssccssccsccccccccccccccccccccsccccsscscssccscccccccccsccccssccccccscssscss"
                   inkscape:connector-curvature="0"
                   id="path941"
                   d="m -373.30391,7698.503 c 0.31135,-0.081 0.74335,-0.076 0.96,0.012 0.21665,0.088 -0.0381,0.1541 -0.56609,0.1475 -0.528,-0.01 -0.70526,-0.078 -0.39391,-0.1593 z m 4.63391,-0.3101 c 0.22,-0.089 0.58,-0.089 0.8,0 0.22,0.089 0.04,0.1614 -0.4,0.1614 -0.44,0 -0.62,-0.073 -0.4,-0.1614 z m -11.2,-0.3199 c 0.22,-0.089 0.58,-0.089 0.8,0 0.22,0.089 0.04,0.1614 -0.4,0.1614 -0.44,0 -0.62,-0.073 -0.4,-0.1614 z m -3.67391,-0.3267 c 0.31135,-0.081 0.74335,-0.076 0.96,0.012 0.21665,0.088 -0.0381,0.154 -0.56609,0.1475 -0.528,-0.01 -0.70526,-0.078 -0.39391,-0.1594 z m 20.73917,-0.2849 c 0.0154,-0.3728 0.0912,-0.4486 0.19334,-0.1933 0.0924,0.231 0.0811,0.507 -0.0252,0.6133 -0.10634,0.1063 -0.18197,-0.083 -0.16807,-0.42 z m -23.44526,-0.034 c 0.231,-0.092 0.507,-0.081 0.61333,0.025 0.10634,0.1063 -0.0827,0.1819 -0.42,0.1681 -0.37278,-0.015 -0.4486,-0.091 -0.19333,-0.1934 z m 16.38294,-33.3521 -0.008,-33.6586 2.1627,0.095 2.16271,0.095 0.19395,13.92 c 0.10666,7.656 0.21466,22.668 0.24,33.36 l 0.046,19.44 h -0.72 c -0.396,0 -1.47346,0.093 -2.39436,0.2039 l -1.67435,0.2011 -0.008,-33.6586 z m 3.11574,-10.6693 c -0.057,-1.804 -0.10371,-0.328 -0.10371,3.28 0,3.608 0.0467,5.084 0.10371,3.28 0.057,-1.804 0.057,-4.756 0,-6.56 z m -26.87868,43.3743 c 0.396,-0.076 1.044,-0.076 1.44,0 0.396,0.076 0.072,0.1386 -0.72,0.1386 -0.792,0 -1.116,-0.062 -0.72,-0.1386 z m -3.03391,-0.316 c 0.31135,-0.081 0.74335,-0.076 0.96,0.012 0.21665,0.088 -0.0381,0.1541 -0.56609,0.1475 -0.528,-0.01 -0.70526,-0.078 -0.39391,-0.1593 z m -3.66609,-0.3181 c 0.231,-0.092 0.507,-0.081 0.61333,0.025 0.10634,0.1063 -0.0827,0.1819 -0.42,0.168 -0.37278,-0.015 -0.4486,-0.091 -0.19333,-0.1933 z m -2.73391,-0.322 c 0.31135,-0.081 0.74335,-0.076 0.96,0.012 0.21665,0.088 -0.0381,0.154 -0.56609,0.1475 -0.528,-0.01 -0.70526,-0.078 -0.39391,-0.1593 z M -406.75,7695.31 c 0.22,-0.089 0.58,-0.089 0.8,0 0.22,0.089 0.04,0.1614 -0.4,0.1614 -0.44,0 -0.62,-0.073 -0.4,-0.1614 z m -2.54,-0.3266 c 0.231,-0.093 0.507,-0.081 0.61333,0.025 0.10634,0.1064 -0.0827,0.182 -0.42,0.1681 -0.37278,-0.015 -0.4486,-0.091 -0.19333,-0.1933 z m 46.24266,-40.421 c 0,-1.144 0.0581,-1.612 0.12907,-1.04 0.071,0.572 0.071,1.508 0,2.08 -0.071,0.572 -0.12907,0.104 -0.12907,-1.04 z m -0.0282,-3.52 c 0,-0.616 0.0659,-0.868 0.14635,-0.56 0.0805,0.308 0.0805,0.812 0,1.12 -0.0805,0.308 -0.14635,0.056 -0.14635,-0.56 z"
                   style="fill:#fafafa;stroke-width:0.31999999" />
              </g>
            </g>
            <path
               style="fill:#f2f2f2;stroke:none;stroke-width:1.12175918px;stroke-linecap:butt;stroke-linejoin:miter;stroke-opacity:1"
               d="m 960.44698,7757.3202 -1.67508,-0.4114 0.72563,-4.5124 1.67465,0.6789 z"
               id="path1166"
               inkscape:connector-curvature="0" />
            <path
               style="fill:#fbc59f;fill-opacity:1;stroke:none;stroke-width:0.05;stroke-linecap:butt;stroke-linejoin:miter;stroke-miterlimit:4;stroke-dasharray:none;stroke-opacity:1"
               d="m 957.33905,7758.6367 c 0.40409,-0.6928 0.83423,-1.3109 1.09488,-2.0641 0,0 0.94109,-0.07 1.06185,-0.2605 0.22876,-0.3616 -0.61927,-0.1696 -0.70351,-0.4317 -0.083,-0.258 0.31509,-0.7497 0.31509,-0.7497 0,0 -0.25068,-0.2679 -0.44379,-0.2172 -0.47791,0.1254 -1.01683,1.1564 -1.01683,1.1564 l -0.77313,1.5786 c 0.18349,0.3912 -0.47252,-0.76 0.46544,0.9882 z"
               id="path872"
               inkscape:connector-curvature="0"
               sodipodi:nodetypes="ccsscsccc" />
            <path
               style="fill:url(#linearGradient860);fill-opacity:1;stroke:none;stroke-width:0.05;stroke-linecap:butt;stroke-linejoin:miter;stroke-miterlimit:4;stroke-dasharray:none;stroke-opacity:1"
               d="m 940.72791,7755.852 3.28089,12.2444 c 0.43476,0.905 1.03348,1.6051 2.86266,0.7671 l 11.22855,-10.9187 -0.77514,-1.2967 -10.63075,8.1311 -1.45841,-10.7392 c -0.35059,-2.5816 -5.09209,-0.3686 -4.5078,1.812 z"
               id="path852"
               inkscape:connector-curvature="0"
               sodipodi:nodetypes="scccccss" />
            <path
               sodipodi:nodetypes="cccsscsccc"
               inkscape:connector-curvature="0"
               id="path874"
               d="m 959.88619,7758.8037 0.87412,-1.1296 0.56031,-0.9704 c 0,0 -0.0489,-0.9424 0.12536,-1.0862 0.33008,-0.2723 0.24589,0.5931 0.51644,0.6439 0.26642,0.05 0.70426,-0.4066 0.70426,-0.4066 0,0 0.29721,0.2151 0.27115,0.413 -0.0645,0.4899 -1.01983,1.1538 -1.01983,1.1538 l -0.99307,1.72 c -0.41103,-0.133 0.81329,0.3735 -1.03874,-0.3379 z"
               style="fill:#fbc59f;fill-opacity:1;stroke:none;stroke-width:0.05;stroke-linecap:butt;stroke-linejoin:miter;stroke-miterlimit:4;stroke-dasharray:none;stroke-opacity:1" />
            <path
               style="fill:url(#linearGradient870);fill-opacity:1;stroke:none;stroke-width:0.05;stroke-linecap:butt;stroke-linejoin:miter;stroke-miterlimit:4;stroke-dasharray:none;stroke-opacity:1"
               d="m 951.7058,7767.2081 8.82107,-9.2898 1.0377,0.3879 -3.89294,5.9174 -7.6243,6.8446 z"
               id="path862"
               inkscape:connector-curvature="0"
               sodipodi:nodetypes="cccccc" />
            <path
               style="fill:#fdcba0;fill-opacity:1;stroke:none;stroke-width:0.005;stroke-linecap:butt;stroke-linejoin:miter;stroke-miterlimit:4;stroke-dasharray:none;stroke-opacity:1"
               d="m 944.62947,7747.8849 c 2.11566,1.6477 4.24474,3.3735 5.48951,-0.059 0,0 -0.45122,-0.9181 -0.2567,-1.323 0.12876,-0.268 0.49268,-0.4256 0.78985,-0.4147 0.34862,0.013 0.50829,0.093 0.8467,0.01 0.35333,-0.088 0.47466,-0.6168 0.54636,-0.9463 0.0717,-0.3295 -0.0883,-0.9263 -0.0883,-0.9263 l -0.55916,-0.082 0.58109,0.035 0.0753,-0.7543 0.6965,-0.2263 -0.57887,-1.5078 -0.23298,-1.0313 c 0,0 0.25919,-0.7822 0.4154,-1.0437 0.13553,-0.2269 0.34006,-0.7163 0.34006,-0.7163 -1.67799,-2.2527 -5.4293,-1.3563 -6.5495,-0.5002 -1.35718,1.0372 -1.45522,3.286 -1.38856,5.6933 0,0 0.65819,0.8815 0.69178,1.4014 0.0544,0.8414 -0.81844,2.3934 -0.81844,2.3934 z"
               id="path840"
               inkscape:connector-curvature="0"
               sodipodi:nodetypes="ccsssscccccccscscscc" />
            <g
               id="g1001"
               transform="translate(-0.70267,0.1307)">
              <path
                 sodipodi:nodetypes="cscccccccsc"
                 inkscape:connector-curvature="0"
                 id="path995"
                 d="m 938.25,7770.9375 c -0.0286,6.8283 4.3625,8.0381 7.70841,7.7639 l 11.60853,-0.9514 c 0.28469,6.7138 -1.00296,15 -1.50444,22.5 0.14938,2.1891 -1.4809,1.5068 -0.7828,2.9215 l 2.26717,3.5316 0.35716,-0.1326 -0.83946,-3.8249 -0.24176,-2.1787 c 3.75759,-7.013 9.54588,-29.3352 6.03565,-29.3719 z"
                 style="fill:url(#linearGradient1009);fill-opacity:1;stroke:none;stroke-width:0.05;stroke-linecap:butt;stroke-linejoin:miter;stroke-miterlimit:4;stroke-dasharray:none;stroke-opacity:1" />
              <path
                 sodipodi:nodetypes="cssccccsscccc"
                 inkscape:connector-curvature="0"
                 id="path997"
                 d="m 950.21893,7771.1507 16.17507,-14.0096 c 1.03689,-0.898 1.39001,-0.066 1.52052,0.4075 1.50187,5.4487 1.85574,11.6095 2.04658,17.7137 l 2.9184,3.0148 -0.0274,0.033 -2.82349,-1.1554 c 0,0 -0.77773,-0.1232 -1.06355,-0.6427 -0.28615,-0.5201 0.35853,-0.6668 0.18291,-0.9334 -1.87726,-2.8494 -2.04219,-7.2164 -3.32846,-10.3937 -0.79634,-1.7924 -1.57769,-0.8483 -1.91955,-0.4314 l -4.70957,6.3976 z"
                 style="fill:url(#linearGradient1017);fill-opacity:1;stroke:none;stroke-width:0.05;stroke-linecap:butt;stroke-linejoin:miter;stroke-miterlimit:4;stroke-dasharray:none;stroke-opacity:1" />
            </g>
            <path
               style="fill:#061a5c;fill-opacity:1;stroke:none;stroke-width:0.005;stroke-linecap:butt;stroke-linejoin:miter;stroke-miterlimit:4;stroke-dasharray:none;stroke-opacity:1"
               d="m 941.98918,7746.2005 c -1.33169,-2.152 -2.4908,-5.1765 -0.78035,-7.2832 0.51682,-0.3931 1.03364,-0.6316 1.55046,0.6607 0.53225,0.4627 -0.80489,-0.2055 -0.49121,-0.3256 l 0.7278,-1.3427 c -0.12603,-1.0809 0.47308,-2.092 2.70807,-2.804 0.60949,-0.8 2.26865,-1.0122 4.73915,-0.7701 1.59991,0.8996 2.5815,2.2511 2.25109,4.5614 -2.04446,-1.7639 -2.50966,-0.9122 -2.90273,0.059 -5.78819,-1.4357 -4.81124,2.7509 -5.03533,5.576 -3.23613,-8.0504 -0.91515,5.1729 -2.76695,1.6685 z"
               id="path838"
               inkscape:connector-curvature="0"
               sodipodi:nodetypes="ccccccccccc" />
          </g>
        </g>
        <g
           transform="translate(789.36707,27.088388)"
           id="g1091">
          <g
             id="g1060"
             transform="translate(24.1352,-2.0945)">
            <path
               sodipodi:nodetypes="cccccccsssccsssc"
               inkscape:connector-curvature="0"
               id="path1032"
               d="m 1128.8347,7778.0763 h 11.3906 v 7.4375 h -18.3739 l 0.4007,16.6875 -0.5906,0.1745 c 0.051,1.7041 1.1634,2.3833 0,2.4274 l -4.555,0.066 c -0.8342,0.012 -0.2014,-0.7382 0.9399,-1.1437 0.6255,-0.2222 1.6587,0.4975 2.2575,0 0.2214,-0.1839 0.2226,-0.8782 0.2226,-0.8782 l -0.1821,-0.6076 c 0.1468,0 -2.5265,-13.1087 -1.9427,-19.2908 0.064,-0.6742 0.3536,-1.2532 0.9308,-1.5026 6.0902,-2.631 9.2871,-1.7471 9.471,-2.4859 0.1077,-0.4326 0.031,-0.8844 0.031,-0.8844 z"
               style="fill:url(#linearGradient1040);fill-opacity:1;stroke:none;stroke-width:0.04784955;stroke-linecap:butt;stroke-linejoin:miter;stroke-miterlimit:4;stroke-dasharray:none;stroke-opacity:1" />
            <path
               sodipodi:nodetypes="cccsscccscaasc"
               inkscape:connector-curvature="0"
               id="path1030"
               d="m 1133.5806,7778.0451 h 8.1759 c 1.8475,4.3052 1.1095,7.4569 -4.6846,8.3527 0,0 -5.4335,-0.2425 -7.0268,0.7954 -0.1851,0.1206 -0.1604,0.6368 0,0.8839 2.8727,4.4252 6.0733,14.1409 6.0733,14.1409 0,0.762 2.1733,0.3097 1.4839,1.6807 l -5.0203,5.0372 c 0.037,-0.8248 -0.2549,-1.523 0.266,-2.5338 0.4917,-0.954 2.9345,-1.9085 1.2424,-3.6297 -3.7295,-4.2749 -8.1991,-8.4754 -10.0005,-13.8882 -0.5189,-1.5591 -0.9214,-3.5108 -0.091,-4.9287 1.8023,-3.0774 7.8245,-3.3344 9.4265,-5.0607 0.2356,-0.2538 0.085,-0.6213 0.1552,-0.8497 z"
               style="fill:url(#linearGradient1056);fill-opacity:1;stroke:none;stroke-width:0.05;stroke-linecap:butt;stroke-linejoin:miter;stroke-miterlimit:4;stroke-dasharray:none;stroke-opacity:1" />
          </g>
          <g
             id="g1077">
            <path
               sodipodi:nodetypes="cccccccccacssc"
               inkscape:connector-curvature="0"
               id="path4587"
               d="m 1153.5908,7752.7504 c 1.9997,0.4134 4.9602,-0.6883 5.7462,1.6389 0.1145,1.1234 1.0169,0.01 1.1501,-0.9656 l 1.0417,-0.5134 c -0.7927,2.351 -0.1597,3.4627 -0.1777,5.1518 2.989,-1.3108 4.0008,-6.0298 1.5995,-8.412 l -0.079,-1.6586 c 1.0485,-0.3196 2.5338,-0.2617 2.5512,-1.4729 -0.3488,-2.255 -1.7462,-3.363 -3.7776,-3.7776 -1.4359,-0.1401 -1.3786,0.7824 -1.469,1.469 -0.1061,0.8056 0.5955,1.5838 1.2188,2.1111 0.1778,0.7456 0.1671,1.9434 -0.4746,1.7715 l -3.0868,-0.8271 c -3.1119,-0.8338 -3.992,2.7921 -4.2428,5.4849 z"
               style="fill:#081c5f;fill-opacity:1;stroke:#081c60;stroke-width:0.1;stroke-linecap:butt;stroke-linejoin:miter;stroke-miterlimit:4;stroke-dasharray:none;stroke-opacity:1" />
            <path
               sodipodi:nodetypes="ccsccccscccccccccc"
               inkscape:connector-curvature="0"
               id="path4589"
               d="m 1153.9099,7752.8432 c 0,0.4852 -0.074,1.1752 -0.2469,1.5819 0,0 -0.6149,0.785 -0.5116,0.9459 0.1352,0.2107 0.7837,0.1889 0.7837,0.1889 v 0.7169 h 0.4433 l -0.3684,0.1915 c 0,0 0.4654,1.033 0.9846,1.3027 0.7696,0.3998 2.3433,0.099 2.3433,0.099 l 0.4747,1.5939 c 1.2028,1.2647 2.8647,0.7222 3.6878,-0.3258 l -0.2058,-3.5023 c 0.2644,-0.3981 0.6196,-0.6808 0.5519,-1.5009 0.1429,-0.7399 -0.068,-1.0603 -0.3766,-1.2644 -0.6852,-0.2095 -1.0975,0.6719 -1.3486,1.5279 -0.6094,0.067 -0.1237,0.4391 -0.6724,0.3064 -0.8031,-3.1899 -3.5849,-1.561 -5.546,-1.8613 z"
               style="fill:#fdcba0;fill-opacity:1;stroke:none;stroke-width:0.00527092;stroke-linecap:butt;stroke-linejoin:miter;stroke-miterlimit:4;stroke-dasharray:none;stroke-opacity:1" />
            <g
               id="g1067">
              <path
                 style="fill:#2ace89;fill-opacity:1;stroke:none;stroke-width:0.01;stroke-linecap:butt;stroke-linejoin:miter;stroke-miterlimit:4;stroke-dasharray:none;stroke-opacity:1"
                 d="m 1153.2858,7776.4952 c 4.3229,0.4417 9.0925,2.6568 12.6773,-0.2567 -0.3715,-2.5413 0.4069,-5.1502 -1.1453,-7.6221 1.4856,-0.5589 2.952,-1.1233 3.4182,-1.9735 -2.1997,-2.5484 -2.0998,-7.4602 -6.7356,-7.5048 -1.2375,0.7829 -2.4749,1.3983 -3.7124,0.2765 -2.1967,-0.9439 -4.2981,3.0212 -5.529,4.3837 l 0.7109,12.1835 z"
                 id="path4591"
                 inkscape:connector-curvature="0"
                 sodipodi:nodetypes="ccccccccc" />
              <g
                 id="g1028"
                 transform="translate(24.4741,-0.6336)">
                <path
                   inkscape:connector-curvature="0"
                   id="path1023"
                   d="m 1126.4844,7766.5625 h 4.7692 l 1.57,6.1046 h -5.5144 z"
                   style="fill:#ffffff;stroke:none;stroke-width:0.0048986;stroke-linecap:butt;stroke-linejoin:miter;stroke-miterlimit:4;stroke-dasharray:none;stroke-opacity:1" />
                <path
                   sodipodi:nodetypes="ccsszssscccccc"
                   inkscape:connector-curvature="0"
                   id="path1019"
                   d="m 1140.3437,7769.25 2.5867,-1.4934 c 0.7624,1.9294 0.7063,4.1439 0.6207,6.3555 -0.09,2.3368 -2.4124,2.1891 -3.5895,1.4902 0,0 -5.4088,-3.3335 -6.9026,-4.1452 -1.4938,-0.8117 -0.4717,-0.5357 -1.0638,-0.6029 -1.2261,-0.139 -2.4931,-1.6426 -2.3233,-2.2761 0.126,-0.4702 0.9405,-0.504 1.4107,-0.378 0.3554,0.095 0.7805,0.7805 0.7805,0.7805 l -0.096,-0.3841 c 0.21,0.045 0.2974,-0.025 0.6015,0.2923 l 0.2873,1.0304 c 2.9361,1.9973 5.7542,2.4901 8.2072,3.4139 z"
                   style="fill:#fecba0;fill-opacity:1;stroke:none;stroke-width:0.05;stroke-linecap:butt;stroke-linejoin:miter;stroke-miterlimit:4;stroke-dasharray:none;stroke-opacity:1" />
                <path
                   sodipodi:nodetypes="ssccs"
                   inkscape:connector-curvature="0"
                   id="path1021"
                   d="m 1127.1953,7768.9894 c 0.4489,0.615 0.4358,1.485 0,1.8672 -0.261,0.2289 -0.6794,-0.2644 -0.9891,-0.5213 -0.113,-0.3063 -0.1697,-0.6935 0,-1.1165 0.3133,-0.109 0.8363,-0.4388 0.9891,-0.2294 z"
                   style="fill:#fecba0;fill-opacity:1;stroke:none;stroke-width:0.005;stroke-linecap:butt;stroke-linejoin:miter;stroke-miterlimit:4;stroke-dasharray:none;stroke-opacity:1" />
              </g>
            </g>
          </g>
        </g>
      </g>
    </g>
  </g>
</svg>
