<?xml version="1.0" encoding="UTF-8" standalone="no"?>
<!-- Created with Inkscape (http://www.inkscape.org/) -->

<svg
   xmlns:dc="http://purl.org/dc/elements/1.1/"
   xmlns:cc="http://creativecommons.org/ns#"
   xmlns:rdf="http://www.w3.org/1999/02/22-rdf-syntax-ns#"
   xmlns:svg="http://www.w3.org/2000/svg"
   xmlns="http://www.w3.org/2000/svg"
   xmlns:xlink="http://www.w3.org/1999/xlink"
   xmlns:sodipodi="http://sodipodi.sourceforge.net/DTD/sodipodi-0.dtd"
   xmlns:inkscape="http://www.inkscape.org/namespaces/inkscape"
   width="35.334934mm"
   height="36.878181mm"
   viewBox="0 0 35.334934 36.878181"
   version="1.1"
   id="svg8"
   inkscape:version="0.92.3 (2405546, 2018-03-11)"
   sodipodi:docname="HoverL.svg">
  <defs
     id="defs2">
    <clipPath
       clipPathUnits="userSpaceOnUse"
       id="clipPath1129">
      <path
         style="opacity:0.37400004;fill:url(#linearGradient1133);fill-opacity:1;stroke:none;stroke-width:0.53892726"
         d="m 1597.2266,2532.552 c 45.7969,15.999 85.3517,1.3409 98.46,-30.6385 14.9009,-36.3526 8.1275,-64.8455 -26.5197,-92.2727 -9.8922,-7.8308 -26.0499,-9.4424 -39.5278,-6.4639 -30.9092,7.2327 -7.5106,20.1959 -31.5618,51.2291 -11.1308,15.4078 -42.3624,13.8484 -35.3537,46.5151 3.6079,17.442 14.7615,24.7343 34.503,31.6309 z"
         id="path1131"
         inkscape:connector-curvature="0"
         sodipodi:nodetypes="ssscccs" />
    </clipPath>
    <clipPath
       clipPathUnits="userSpaceOnUse"
       id="clipPath1152">
      <path
         style="opacity:0.37400004;fill:url(#linearGradient1156);fill-opacity:1;stroke:none;stroke-width:0.53892726"
         d="m 1331.7215,2435.1128 c -18.8551,40.4515 -4.5727,75.4015 26.3959,88.9141 36.0094,15.7121 64.8455,8.1275 92.2727,-26.5197 7.8308,-9.8922 9.4424,-26.0499 6.4639,-39.5278 -5.7327,-21.1592 -15.6959,-7.2606 -46.7291,-31.3118 -15.4078,-11.1308 -19.6738,-28.9881 -43.5905,-23.2294 -16.192,5.8579 -29.0021,19.2082 -34.8129,31.6746 z"
         id="path1154"
         inkscape:connector-curvature="0"
         sodipodi:nodetypes="ssscccs" />
    </clipPath>
    <clipPath
       clipPathUnits="userSpaceOnUse"
       id="clipPath1175">
      <path
         style="opacity:0.37400004;fill:url(#linearGradient1179);fill-opacity:1;stroke:none;stroke-width:0.53892726"
         d="m 1668.0411,2716.2584 c -43.9017,15.999 -71.7934,-4.5356 -88.6898,-36.515 -19.2071,-36.3526 -0.308,-75.1414 12.8823,-86.6587 8.9662,-7.829 19.2745,-13.8618 33.1052,-10.8833 15.766,-0.017 15.4887,10.8852 32.466,31.6684 12.956,15.4078 52.2528,-5.1516 46.1137,64.5151 -1.5418,17.442 -16.9529,30.9769 -35.8774,37.8735 z"
         id="path1177"
         inkscape:connector-curvature="0"
         sodipodi:nodetypes="ssscccs" />
    </clipPath>
    <linearGradient
       inkscape:collect="always"
       xlink:href="#linearGradient1089"
       id="linearGradient1091"
       x1="1900.6587"
       y1="3844.437"
       x2="1918.1338"
       y2="3643.437"
       gradientUnits="userSpaceOnUse"
       gradientTransform="matrix(0,0.17385476,-0.17385476,0,307.90762,-277.8375)" />
    <linearGradient
       inkscape:collect="always"
       id="linearGradient1089">
      <stop
         style="stop-color:#1ec39f;stop-opacity:1"
         offset="0"
         id="stop1085" />
      <stop
         style="stop-color:#2bd080;stop-opacity:1"
         offset="1"
         id="stop1087" />
    </linearGradient>
  </defs>
  <sodipodi:namedview
     id="base"
     pagecolor="#ffffff"
     bordercolor="#666666"
     borderopacity="1.0"
     inkscape:pageopacity="0.0"
     inkscape:pageshadow="2"
     inkscape:zoom="3.959798"
     inkscape:cx="139.70001"
     inkscape:cy="73.376071"
     inkscape:document-units="mm"
     inkscape:current-layer="layer1"
     showgrid="false"
     inkscape:window-width="1920"
     inkscape:window-height="1021"
     inkscape:window-x="0"
     inkscape:window-y="0"
     inkscape:window-maximized="1"
     inkscape:snap-global="false" />
  <metadata
     id="metadata5">
    <rdf:RDF>
      <cc:Work
         rdf:about="">
        <dc:format>image/svg+xml</dc:format>
        <dc:type
           rdf:resource="http://purl.org/dc/dcmitype/StillImage" />
        <dc:title></dc:title>
      </cc:Work>
    </rdf:RDF>
  </metadata>
  <g
     inkscape:label="Layer 1"
     inkscape:groupmode="layer"
     id="layer1"
     transform="translate(362.25176,-35.149109)">
    <path
       style="opacity:1;fill:url(#linearGradient1091);fill-opacity:1;stroke:none;stroke-width:0.11827547"
       d="m -333.28696,68.956205 c -9.94996,5.029421 -18.29945,4.027201 -24.56276,-4.087048 -7.55006,-9.781254 -4.78177,-23.854645 3.70039,-28.241492 2.36385,-1.222548 5.79001,-2.354243 8.91594,-0.497323 4.91842,3.316906 0.87578,7.034222 12.11495,10.13226 3.56639,0.983063 5.42183,2.891025 6.04443,8.495469 0.75519,3.791752 -1.19403,11.661213 -6.21295,14.198134 z"
       id="path4576"
       inkscape:connector-curvature="0"
       sodipodi:nodetypes="ssscscs" />
  </g>
</svg>
