<?xml version="1.0" encoding="UTF-8" standalone="no"?>
<!-- Created with Inkscape (http://www.inkscape.org/) -->

<svg
   xmlns:dc="http://purl.org/dc/elements/1.1/"
   xmlns:cc="http://creativecommons.org/ns#"
   xmlns:rdf="http://www.w3.org/1999/02/22-rdf-syntax-ns#"
   xmlns:svg="http://www.w3.org/2000/svg"
   xmlns="http://www.w3.org/2000/svg"
   xmlns:sodipodi="http://sodipodi.sourceforge.net/DTD/sodipodi-0.dtd"
   xmlns:inkscape="http://www.inkscape.org/namespaces/inkscape"
   version="1.1"
   id="svg2"
   width="554"
   height="554"
   viewBox="0 0 554 554"
   sodipodi:docname="LogedinWhite.svg"
   inkscape:version="0.92.4 (5da689c313, 2019-01-14)">
  <metadata
     id="metadata8">
    <rdf:RDF>
      <cc:Work
         rdf:about="">
        <dc:format>image/svg+xml</dc:format>
        <dc:type
           rdf:resource="http://purl.org/dc/dcmitype/StillImage" />
        <dc:title></dc:title>
      </cc:Work>
    </rdf:RDF>
  </metadata>
  <defs
     id="defs6" />
  <sodipodi:namedview
     pagecolor="#ffffff"
     bordercolor="#666666"
     borderopacity="1"
     objecttolerance="10"
     gridtolerance="10"
     guidetolerance="10"
     inkscape:pageopacity="0"
     inkscape:pageshadow="2"
     inkscape:window-width="1920"
     inkscape:window-height="1017"
     id="namedview4"
     showgrid="false"
     inkscape:pagecheckerboard="true"
     inkscape:zoom="0.30122238"
     inkscape:cx="-424.78194"
     inkscape:cy="-4.5245122"
     inkscape:window-x="1912"
     inkscape:window-y="-8"
     inkscape:window-maximized="1"
     inkscape:current-layer="svg2" />
  <path
     id="path864"
     style="opacity:1;fill:none;fill-opacity:1;stroke:#ffffff;stroke-width:20;stroke-linecap:round;stroke-linejoin:round;stroke-miterlimit:4;stroke-dasharray:none;stroke-dashoffset:0;stroke-opacity:1"
     d="m 124.6689,439.67486 c -0.6242,-5.59047 -0.9447,-11.27532 -0.9447,-17.03779 0,-83.41192 67.1511,-150.56303 150.563,-150.56303 v 0 h 5.4256 c 83.4119,0 150.563,67.15111 150.563,150.56303 0,5.76248 -0.3205,11.44734 -0.9447,17.03782 M 351.0426,188.22608 A 74.042526,74.042526 0 0 1 277,262.26861 74.042526,74.042526 0 0 1 202.9575,188.22608 74.042526,74.042526 0 0 1 277,114.18355 a 74.042526,74.042526 0 0 1 74.0426,74.04253 z"
     inkscape:connector-curvature="0" />
</svg>
