<?xml version="1.0" encoding="UTF-8" standalone="no"?>
<!-- Created with Inkscape (http://www.inkscape.org/) -->

<svg
   xmlns:dc="http://purl.org/dc/elements/1.1/"
   xmlns:cc="http://creativecommons.org/ns#"
   xmlns:rdf="http://www.w3.org/1999/02/22-rdf-syntax-ns#"
   xmlns:svg="http://www.w3.org/2000/svg"
   xmlns="http://www.w3.org/2000/svg"
   xmlns:sodipodi="http://sodipodi.sourceforge.net/DTD/sodipodi-0.dtd"
   xmlns:inkscape="http://www.inkscape.org/namespaces/inkscape"
   version="1.1"
   id="svg2"
   width="554"
   height="554"
   viewBox="0 0 554 554"
   sodipodi:docname="Login.svg"
   inkscape:version="0.92.4 (5da689c313, 2019-01-14)">
  <metadata
     id="metadata8">
    <rdf:RDF>
      <cc:Work
         rdf:about="">
        <dc:format>image/svg+xml</dc:format>
        <dc:type
           rdf:resource="http://purl.org/dc/dcmitype/StillImage" />
        <dc:title></dc:title>
      </cc:Work>
    </rdf:RDF>
  </metadata>
  <defs
     id="defs6" />
  <sodipodi:namedview
     pagecolor="#ffffff"
     bordercolor="#666666"
     borderopacity="1"
     objecttolerance="10"
     gridtolerance="10"
     guidetolerance="10"
     inkscape:pageopacity="0"
     inkscape:pageshadow="2"
     inkscape:window-width="1920"
     inkscape:window-height="1017"
     id="namedview4"
     showgrid="false"
     inkscape:pagecheckerboard="true"
     inkscape:zoom="0.30122238"
     inkscape:cx="114.68661"
     inkscape:cy="-4.5245122"
     inkscape:window-x="-8"
     inkscape:window-y="-8"
     inkscape:window-maximized="1"
     inkscape:current-layer="svg2" />
  <g
     id="g845"
     transform="translate(1399.2151,-2.195818)">
    <path
       sodipodi:nodetypes="ccssccccccccscccsccscsssscccccccscssscccc"
       style="fill:#020202"
       d="m -1291.0811,447.46549 c -4.7892,-2.46126 -6.5598,-6.25527 -6.9523,-14.89727 -0.733,-16.14142 2.586,-38.05106 8.4587,-55.83799 15.8095,-47.88314 52.7332,-85.58967 100.2537,-102.37932 l 9.3565,-3.30578 -4.8565,-2.81682 c -6.5789,-3.81579 -8.8004,-5.56891 -16.2177,-12.79817 -18.3836,-17.91772 -27.2961,-42.26725 -25.0476,-68.43177 3.1693,-36.87855 30.8264,-68.13528 67.085,-75.81603 8.4031,-1.78006 25.7533,-2.02668 33.8238,-0.48079 18.0155,3.45089 32.9778,11.89667 46.6342,26.32375 6.3439,6.70183 9.1427,10.69073 13.2283,18.85265 7.1978,14.37932 9.3198,23.22564 9.3198,38.85228 0,9.48138 -0.5063,14.43191 -2.0965,20.5 -2.8749,10.96991 -9.6533,24.58551 -16.5139,33.17086 -5.462,6.83519 -17.5184,17.43466 -22.3219,19.62446 -1.2375,0.56414 -2.25,1.30937 -2.25,1.65607 0,0.3467 3.0375,1.43261 6.75,2.41313 22.6488,5.98188 49.4608,21.85157 68,40.2483 5.8528,5.80793 6.25,6.4928 6.25,10.77881 0,3.64396 -0.5948,5.24245 -2.918,7.84259 -2.4632,2.75677 -3.6082,3.26578 -7.3463,3.26578 -4.0064,0 -5.0226,-0.55016 -10.6641,-5.77319 -31.612,-29.26714 -64.7164,-42.09333 -104.4335,-40.46241 -50.3838,2.06894 -95.8347,32.17201 -118.1296,78.23974 -9.1869,18.98276 -13.1772,35.76443 -14.1468,59.49586 -0.3484,8.525 -1.051,16.31158 -1.5614,17.30351 -1.194,2.32039 -6.7169,5.69222 -9.3003,5.67801 -1.1,-0.006 -3.0817,-0.56687 -4.4036,-1.24626 z m 164.9036,-190.91655 c 6.539,-1.52086 19.7936,-8.12226 25,-12.45116 7.2083,-5.99357 12.862,-13.27909 16.9693,-21.86755 4.8502,-10.14149 6.4062,-16.82114 6.4062,-27.5 0,-10.77062 -1.5504,-17.33154 -6.6167,-28 -7.5865,-15.97554 -23.5349,-28.93396 -41.2588,-33.52367 -7.7473,-2.00621 -23.2527,-2.00621 -31,0 -22.2448,5.76042 -40.2633,23.77888 -46.0237,46.02367 -2.0062,7.7473 -2.0062,23.2527 0,31 4.586,17.70951 17.5324,33.64978 33.5237,41.27593 7.4587,3.55703 12.3244,5.02525 22,6.6385 3.4831,0.58076 15.6011,-0.34005 21,-1.59572 z"
       id="path832"
       inkscape:connector-curvature="0" />
    <path
       inkscape:connector-curvature="0"
       d="m -1111.9605,405.09875 h 155.66644 l -48.14124,-33.53121 m -107.5252,33.53121 h 155.66644 l -48.14124,33.53121"
       style="fill:none;stroke:#000000;stroke-width:20;stroke-linecap:round;stroke-linejoin:round;stroke-miterlimit:4;stroke-dasharray:none;stroke-opacity:1"
       id="path840" />
  </g>
</svg>
