<?xml version="1.0" encoding="UTF-8" standalone="no"?>
<!-- Created with Inkscape (http://www.inkscape.org/) -->

<svg
   xmlns:dc="http://purl.org/dc/elements/1.1/"
   xmlns:cc="http://creativecommons.org/ns#"
   xmlns:rdf="http://www.w3.org/1999/02/22-rdf-syntax-ns#"
   xmlns:svg="http://www.w3.org/2000/svg"
   xmlns="http://www.w3.org/2000/svg"
   xmlns:xlink="http://www.w3.org/1999/xlink"
   xmlns:sodipodi="http://sodipodi.sourceforge.net/DTD/sodipodi-0.dtd"
   xmlns:inkscape="http://www.inkscape.org/namespaces/inkscape"
   width="36.300228mm"
   height="34.16552mm"
   viewBox="0 0 36.300228 34.165519"
   version="1.1"
   id="svg8"
   inkscape:version="0.92.3 (2405546, 2018-03-11)"
   sodipodi:docname="mart.svg">
  <defs
     id="defs2">
    <clipPath
       clipPathUnits="userSpaceOnUse"
       id="clipPath1129">
      <path
         style="opacity:0.37400004;fill:url(#linearGradient1133);fill-opacity:1;stroke:none;stroke-width:0.53892726"
         d="m 1597.2266,2532.552 c 45.7969,15.999 85.3517,1.3409 98.46,-30.6385 14.9009,-36.3526 8.1275,-64.8455 -26.5197,-92.2727 -9.8922,-7.8308 -26.0499,-9.4424 -39.5278,-6.4639 -30.9092,7.2327 -7.5106,20.1959 -31.5618,51.2291 -11.1308,15.4078 -42.3624,13.8484 -35.3537,46.5151 3.6079,17.442 14.7615,24.7343 34.503,31.6309 z"
         id="path1131"
         inkscape:connector-curvature="0"
         sodipodi:nodetypes="ssscccs" />
    </clipPath>
    <clipPath
       clipPathUnits="userSpaceOnUse"
       id="clipPath1152">
      <path
         style="opacity:0.37400004;fill:url(#linearGradient1156);fill-opacity:1;stroke:none;stroke-width:0.53892726"
         d="m 1331.7215,2435.1128 c -18.8551,40.4515 -4.5727,75.4015 26.3959,88.9141 36.0094,15.7121 64.8455,8.1275 92.2727,-26.5197 7.8308,-9.8922 9.4424,-26.0499 6.4639,-39.5278 -5.7327,-21.1592 -15.6959,-7.2606 -46.7291,-31.3118 -15.4078,-11.1308 -19.6738,-28.9881 -43.5905,-23.2294 -16.192,5.8579 -29.0021,19.2082 -34.8129,31.6746 z"
         id="path1154"
         inkscape:connector-curvature="0"
         sodipodi:nodetypes="ssscccs" />
    </clipPath>
    <linearGradient
       gradientTransform="matrix(0.26458333,0,0,0.26458333,-765.14755,-841.61771)"
       gradientUnits="userSpaceOnUse"
       y2="3643.437"
       x2="1918.1338"
       y1="3844.437"
       x1="1900.6587"
       id="linearGradient1091"
       xlink:href="#linearGradient1089"
       inkscape:collect="always" />
    <linearGradient
       id="linearGradient1089"
       inkscape:collect="always">
      <stop
         id="stop1085"
         offset="0"
         style="stop-color:#1ec39f;stop-opacity:1" />
      <stop
         id="stop1087"
         offset="1"
         style="stop-color:#2bd080;stop-opacity:1" />
    </linearGradient>
  </defs>
  <sodipodi:namedview
     id="base"
     pagecolor="#ffffff"
     bordercolor="#666666"
     borderopacity="1.0"
     inkscape:pageopacity="0.0"
     inkscape:pageshadow="2"
     inkscape:zoom="2.8"
     inkscape:cx="161.48335"
     inkscape:cy="49.230793"
     inkscape:document-units="mm"
     inkscape:current-layer="layer1"
     showgrid="false"
     inkscape:window-width="1920"
     inkscape:window-height="1021"
     inkscape:window-x="0"
     inkscape:window-y="0"
     inkscape:window-maximized="1"
     inkscape:pagecheckerboard="true" />
  <metadata
     id="metadata5">
    <rdf:RDF>
      <cc:Work
         rdf:about="">
        <dc:format>image/svg+xml</dc:format>
        <dc:type
           rdf:resource="http://purl.org/dc/dcmitype/StillImage" />
        <dc:title></dc:title>
      </cc:Work>
    </rdf:RDF>
  </metadata>
  <g
     inkscape:label="Layer 1"
     inkscape:groupmode="layer"
     id="layer1"
     transform="translate(378.68279,-35.323124)">
    <g
       transform="matrix(0.15597863,0.63791162,-0.63791162,0.15597863,-224.81379,197.58752)"
       id="layer1-3"
       inkscape:label="Layer 1">
      <path
         sodipodi:nodetypes="ssscccs"
         inkscape:connector-curvature="0"
         id="path4576"
         d="m -241.95055,133.0748 c 7.82182,15.05653 3.04557,31.35892 -7.2368,38.19469 -13.34342,8.87071 -26.09308,5.33868 -37.99705,-8.7838 -2.61028,-3.09673 -4.39632,-7.89641 -3.80746,-12.3486 1.48883,-10.23072 9.0705,-8.47466 18.97896,-17.7255 4.94577,-4.33435 3.07781,-11.40359 14.55594,-10.82579 6.12426,0.26561 12.431,5.56902 15.50641,11.489 z"
         style="opacity:1;fill:url(#linearGradient1091);fill-opacity:1;stroke:none;stroke-width:0.17999917" />
    </g>
  </g>
</svg>
