<svg xmlns="http://www.w3.org/2000/svg" width="181.78" height="297.865" viewBox="0 0 48.096 78.81"><g transform="matrix(.352778 0 0 -.352778 -391.6357 683.37234)"><path d="M1110.15 1937.118h136.333v-223.4H1110.15z" fill="#fff1ea"/><path d="M1178.315 1845.38c-25.352-.023-49.737-9.734-68.165-27.145V1713.72h136.333v104.432c-18.415 17.443-42.803 27.185-68.168 27.23z" fill="#fff"/><path d="M1220.722 1923.058c-1.913 0-3.454-1.54-3.454-3.454s1.54-3.454 3.454-3.454h13.138c3.107.067 3.532-6.813 0-6.907h-9.234c-1.913 0-3.454-1.54-3.454-3.454s1.54-3.453 3.454-3.453h21.855v7.197c-1.937 1.06-2.097 4.734 0 6.142v7.383zm-110.574-54.574v-9.04c.877-1.447.83-3.555 0-4.87v-8.764h20.984c1.913 0 3.454 1.686 3.454 3.78s-1.54 3.78-3.454 3.78h-9.236c-3.532.103-3.107 7.63 0 7.557h13.14c1.913 0 3.454 1.686 3.454 3.78s-1.54 3.78-3.454 3.78z" fill="#fde8db"/><path d="M1169.224 1811.974c-1.784 1.08-4.386.132-6.08.413 0 0 6.982 5.97 10.286 3.754-1.364-1.208-3.225-2.67-4.205-4.167zm5.246-8.6c1.08-1.784.433-3.56.713-5.256 0 0 7.996 5.406 5.78 8.7-1.208-1.364-4.736-3.525-6.494-3.454z" fill="#f67947"/><path d="M1170.163 1809.234c-.397.347-6.786-3.663-5.068-6.532 2.457-2.89 9.178 2.533 8.37 2.815z" fill="#f0c65f"/><path d="M1187.28 1823.123c-.167 1.59-17.842-6.623-18.282-11.938-.45-5.218 3.45-8.398 6.945-7.958 5.32.67 16.308 11.003 15.73 13.59z" fill="#f3efd4"/><path d="M1187.28 1823.123s10.267 2.778 4.392-6.307c-2.28-.166-5.415 5.9-4.392 6.307z" fill="#f57946"/><path d="M1177.813 1810.36l-7.366-5.382c-1.2-.837-2.4.628-1.33 1.727l7.103 5.006c1.365 1.086 2.536-.468 1.592-1.352z" fill="#ed7b4a"/><circle cx="1296.04" cy="-1809.64" r="2.534" transform="matrix(1 0 0 -1 -112.477 5.991)" fill="#8b9faa" stroke="#64767a" stroke-width=".6" stroke-linejoin="round"/></g></svg>