<?xml version="1.0" encoding="UTF-8" standalone="no"?>
<!-- Created with Inkscape (http://www.inkscape.org/) -->

<svg
   xmlns:dc="http://purl.org/dc/elements/1.1/"
   xmlns:cc="http://creativecommons.org/ns#"
   xmlns:rdf="http://www.w3.org/1999/02/22-rdf-syntax-ns#"
   xmlns:svg="http://www.w3.org/2000/svg"
   xmlns="http://www.w3.org/2000/svg"
   xmlns:sodipodi="http://sodipodi.sourceforge.net/DTD/sodipodi-0.dtd"
   xmlns:inkscape="http://www.inkscape.org/namespaces/inkscape"
   width="4.0643706mm"
   height="4.3320866mm"
   viewBox="0 0 4.0643707 4.3320865"
   version="1.1"
   id="svg8"
   inkscape:version="0.92.4 (5da689c313, 2019-01-14)"
   sodipodi:docname="P3CustmBRanding.svg">
  <defs
     id="defs2" />
  <sodipodi:namedview
     id="base"
     pagecolor="#ffffff"
     bordercolor="#666666"
     borderopacity="1.0"
     inkscape:pageopacity="0.0"
     inkscape:pageshadow="2"
     inkscape:zoom="11.2"
     inkscape:cx="34.223003"
     inkscape:cy="7.3410954"
     inkscape:document-units="mm"
     inkscape:current-layer="layer1"
     showgrid="false"
     inkscape:window-width="1920"
     inkscape:window-height="1017"
     inkscape:window-x="1912"
     inkscape:window-y="-8"
     inkscape:window-maximized="1" />
  <metadata
     id="metadata5">
    <rdf:RDF>
      <cc:Work
         rdf:about="">
        <dc:format>image/svg+xml</dc:format>
        <dc:type
           rdf:resource="http://purl.org/dc/dcmitype/StillImage" />
        <dc:title></dc:title>
      </cc:Work>
    </rdf:RDF>
  </metadata>
  <g
     inkscape:label="Layer 1"
     inkscape:groupmode="layer"
     id="layer1"
     transform="translate(180.15182,-97.318503)">
    <g
       transform="matrix(0.35277777,0,0,-0.35277777,-13.563366,690.15252)"
       id="g983">
      <path
         inkscape:connector-curvature="0"
         d="m -465.40523,1672.7022 v -3.5305 c 0,-0.4331 -0.32098,-0.7818 -0.71967,-0.7818 h -0.28791 c -0.3987,0 -0.71967,0.3487 -0.71967,0.7818 v 3.5305 c 0,0.4331 0.32097,0.7817 0.71967,0.7817 h 0.28791 c 0.39869,0 0.71967,-0.3486 0.71967,-0.7817 z m -4.73917,5.1841 c -2.81265,0.1053 -2.10002,-3.587 -0.26549,-3.287 l 4.12768,0.014 v -1.2399 m -1.97757,6.9056 h 4.72503 c 0.95585,0 1.72535,-0.8358 1.72535,-1.8742 v -0.7497 c 0,-1.0383 -0.7695,-1.8741 -1.72535,-1.8741 h -4.72503 c -0.95584,0 -1.72535,0.8358 -1.72535,1.8741 v 0.7497 c 0,1.0384 0.76951,1.8742 1.72535,1.8742 z"
         style="opacity:1;fill:none;fill-opacity:1;stroke:#486ffa;stroke-width:0.39083087;stroke-linecap:round;stroke-linejoin:round;stroke-miterlimit:4;stroke-dasharray:none;stroke-dashoffset:0;stroke-opacity:1"
         id="rect971" />
      <path
         sodipodi:nodetypes="ccccc"
         inkscape:connector-curvature="0"
         id="path978"
         d="m -460.88569,1673.2017 c 1e-5,-0.5235 -0.42433,-0.9478 -0.94779,-0.9478 -0.52345,0 -0.94779,0.4243 -0.94778,0.9478 -1e-5,0.5235 0.66323,1.8503 0.94778,1.8503 0.28455,0 0.9478,-1.3268 0.94779,-1.8503 z"
         style="opacity:1;fill:none;fill-opacity:1;stroke:#32cf8f;stroke-width:0.375;stroke-linecap:round;stroke-linejoin:round;stroke-miterlimit:4;stroke-dasharray:none;stroke-dashoffset:0;stroke-opacity:1" />
    </g>
  </g>
</svg>
