<?xml version="1.0" encoding="UTF-8" standalone="no"?>
<!-- Created with Inkscape (http://www.inkscape.org/) -->

<svg
   xmlns:dc="http://purl.org/dc/elements/1.1/"
   xmlns:cc="http://creativecommons.org/ns#"
   xmlns:rdf="http://www.w3.org/1999/02/22-rdf-syntax-ns#"
   xmlns:svg="http://www.w3.org/2000/svg"
   xmlns="http://www.w3.org/2000/svg"
   xmlns:sodipodi="http://sodipodi.sourceforge.net/DTD/sodipodi-0.dtd"
   xmlns:inkscape="http://www.inkscape.org/namespaces/inkscape"
   width="48.095684mm"
   height="78.810371mm"
   viewBox="0 0 48.095685 78.81037"
   version="1.1"
   id="svg8"
   inkscape:version="0.92.4 (5da689c313, 2019-01-14)"
   sodipodi:docname="P4PricingCardgreen.svg">
  <defs
     id="defs2" />
  <sodipodi:namedview
     id="base"
     pagecolor="#ffffff"
     bordercolor="#666666"
     borderopacity="1.0"
     inkscape:pageopacity="0.0"
     inkscape:pageshadow="2"
     inkscape:zoom="0.98994949"
     inkscape:cx="318.50143"
     inkscape:cy="245.65844"
     inkscape:document-units="mm"
     inkscape:current-layer="layer1"
     showgrid="false"
     inkscape:window-width="1920"
     inkscape:window-height="1017"
     inkscape:window-x="1912"
     inkscape:window-y="-8"
     inkscape:window-maximized="1" />
  <metadata
     id="metadata5">
    <rdf:RDF>
      <cc:Work
         rdf:about="">
        <dc:format>image/svg+xml</dc:format>
        <dc:type
           rdf:resource="http://purl.org/dc/dcmitype/StillImage" />
        <dc:title></dc:title>
      </cc:Work>
    </rdf:RDF>
  </metadata>
  <g
     inkscape:label="Layer 1"
     inkscape:groupmode="layer"
     id="layer1"
     transform="translate(206.3272,-83.930287)">
    <g
       transform="matrix(0.35277777,0,0,-0.35277777,-540.12861,767.30258)"
       id="g1113">
      <g
         transform="translate(2.5482811,210.62116)"
         id="g915">
        <rect
           transform="scale(1,-1)"
           y="-1726.4972"
           x="943.66101"
           height="223.39929"
           width="136.33304"
           id="rect863"
           style="opacity:1;fill:#eaffed;fill-opacity:1;stroke:none;stroke-width:0.75;stroke-linecap:round;stroke-linejoin:round;stroke-miterlimit:4;stroke-dasharray:none;stroke-dashoffset:0;stroke-opacity:1" />
        <path
           id="path865"
           d="m 1011.8267,1634.7593 a 99.382968,99.382968 0 0 1 -68.16507,-27.145 v -104.5166 h 136.33307 v 104.4317 a 99.382968,99.382968 0 0 1 -68.168,27.2299 z"
           style="opacity:1;fill:#ffffff;fill-opacity:1;stroke:none;stroke-width:0.75;stroke-linecap:round;stroke-linejoin:round;stroke-miterlimit:4;stroke-dasharray:none;stroke-dashoffset:0;stroke-opacity:1"
           inkscape:connector-curvature="0" />
        <path
           inkscape:connector-curvature="0"
           id="path867"
           d="m 1054.2342,1712.437 c -1.9133,0 -3.4541,-1.5408 -3.4541,-3.4541 0,-1.9133 1.5408,-3.4541 3.4541,-3.4541 h 13.1382 c 3.107,0.067 3.5322,-6.8126 0,-6.9068 h -9.2344 c -1.9133,0 -3.4541,-1.5408 -3.4541,-3.4541 0,-1.9133 1.5408,-3.4526 3.4541,-3.4526 h 21.8554 v 7.1968 c -1.9374,1.0596 -2.0969,4.7344 0,6.1421 v 7.3828 z m -110.57373,-54.5742 v -9.0396 c 0.87712,-1.4473 0.83055,-3.5547 0,-4.8706 v -8.7641 h 20.98387 c 1.91333,0 3.45413,1.6857 3.45413,3.7793 0,2.0935 -1.5408,3.7792 -3.45413,3.7792 h -9.2358 c -3.5322,0.1032 -3.10702,7.6302 0,7.5572 h 13.13963 c 1.91332,0 3.45412,1.6858 3.45412,3.7793 0,2.0936 -1.5408,3.7793 -3.45412,3.7793 z"
           style="opacity:1;fill:#deffdb;fill-opacity:1;stroke:none;stroke-width:0.75;stroke-linecap:round;stroke-linejoin:round;stroke-miterlimit:4;stroke-dasharray:none;stroke-dashoffset:0;stroke-opacity:1" />
      </g>
      <g
         transform="translate(-0.60063561,-16.517479)"
         id="g1008">
        <ellipse
           ry="6.6096039"
           rx="1.9112108"
           transform="matrix(0,-1,-1,0,0,0)"
           cy="-1027.3239"
           cx="-1832.2198"
           id="ellipse938"
           style="opacity:1;fill:#333333;fill-opacity:1;stroke:none;stroke-width:0.52201068;stroke-linecap:round;stroke-linejoin:round;stroke-miterlimit:4;stroke-dasharray:none;stroke-dashoffset:0;stroke-opacity:1" />
        <g
           id="g934">
          <path
             sodipodi:nodetypes="ccsssccsc"
             inkscape:connector-curvature="0"
             id="path924"
             d="m 1031.9112,1834.7327 c -0.9934,-2.3432 -0.1761,-3.9506 0.6778,-5.2456 0.5171,-0.5746 -4.8825,-4.2947 -8.6943,-4.9475 -5.5657,-0.9531 -16.8441,-0.8555 -17.6256,-0.7963 -6.37169,0.4826 -8.25494,2.978 -8.86586,6.4237 -0.82677,4.6632 1.35209,6.9295 4.93726,4.4595 4.4412,-3.7769 5.5708,-3.2168 11.1488,-1.221 3.2599,1.7267 6.78,2.899 10.6709,3.3977 4.2849,0.5492 5.6641,-1.004 7.751,-2.0705 z"
             style="fill:#3f87cf;fill-opacity:1;stroke:none;stroke-width:0.075;stroke-linecap:butt;stroke-linejoin:miter;stroke-miterlimit:4;stroke-dasharray:none;stroke-opacity:1" />
          <path
             sodipodi:nodetypes="ccc"
             inkscape:connector-curvature="0"
             id="path928"
             d="m 1012.693,1833.1401 c 3.1485,1.8346 6.5206,3.2741 10.5051,3.5172 -1.1191,-4.5471 -5.7782,-4.3777 -10.5051,-3.5172 z"
             style="fill:#2364a3;fill-opacity:1;stroke:none;stroke-width:0.375;stroke-linecap:butt;stroke-linejoin:round;stroke-miterlimit:4;stroke-dasharray:none;stroke-opacity:1" />
        </g>
        <ellipse
           style="opacity:1;fill:#d2eaf7;fill-opacity:1;stroke:none;stroke-width:0.32399654;stroke-linecap:round;stroke-linejoin:round;stroke-miterlimit:4;stroke-dasharray:none;stroke-dashoffset:0;stroke-opacity:1"
           id="path936"
           cx="1160.3094"
           cy="-1836.1438"
           transform="matrix(1,0,0.06986776,-0.99755626,0,0)"
           rx="0.71159714"
           ry="6.8386722" />
        <g
           transform="translate(17.205317,21.262844)"
           id="g963">
          <path
             sodipodi:nodetypes="ccscc"
             inkscape:connector-curvature="0"
             id="path957"
             d="m 997.91855,1804.1593 c 0,0 4.05425,4.0543 9.72275,2.1398 -2.1028,-3.6157 -3.0254,-8.8838 -6.0439,-10.6613 -1.1895,-0.7005 -3.57465,-1.5505 -4.09175,0.6382 -0.5615,2.4973 -0.2212,5.4857 0.4129,7.8833 z"
             style="fill:#98ba63;fill-opacity:1;stroke:none;stroke-width:0.075;stroke-linecap:butt;stroke-linejoin:miter;stroke-miterlimit:4;stroke-dasharray:none;stroke-opacity:1" />
          <path
             style="fill:#98ba63;fill-opacity:1;stroke:none;stroke-width:0.75px;stroke-linecap:butt;stroke-linejoin:miter;stroke-opacity:1"
             d="m 1007.1909,1807.0874 0.4505,-0.7883 -0.8494,0.1079 z"
             id="path959"
             inkscape:connector-curvature="0" />
          <path
             style="fill:#a1cc5e;fill-opacity:1;stroke:none;stroke-width:0.075;stroke-linecap:butt;stroke-linejoin:miter;stroke-miterlimit:4;stroke-dasharray:none;stroke-opacity:1"
             d="m 997.46805,1804.9476 c 0,0 4.05425,4.0543 9.72275,2.1398 -2.1028,-3.6157 -3.0254,-8.8838 -6.0439,-10.6613 -1.18945,-0.7005 -3.57465,-1.5505 -4.09175,0.6382 -0.5615,2.4973 -0.2212,5.4857 0.4129,7.8833 z"
             id="path961"
             inkscape:connector-curvature="0"
             sodipodi:nodetypes="ccscc" />
        </g>
        <g
           id="g955"
           transform="matrix(0.47644072,-0.03084747,0.19625118,0.46408212,175.10641,1019.691)">
          <path
             style="fill:#98ba63;fill-opacity:1;stroke:none;stroke-width:0.075;stroke-linecap:butt;stroke-linejoin:miter;stroke-miterlimit:4;stroke-dasharray:none;stroke-opacity:1"
             d="m 997.91855,1804.1593 c 0,0 4.05425,4.0543 9.72275,2.1398 -2.1028,-3.6157 -3.0254,-8.8838 -6.0439,-10.6613 -1.1895,-0.7005 -3.57465,-1.5505 -4.09175,0.6382 -0.5615,2.4973 -0.2212,5.4857 0.4129,7.8833 z"
             id="path942"
             inkscape:connector-curvature="0"
             sodipodi:nodetypes="ccscc" />
          <path
             inkscape:connector-curvature="0"
             id="path948"
             d="m 1007.1909,1807.0874 0.4505,-0.7883 -0.8494,0.1079 z"
             style="fill:#98ba63;fill-opacity:1;stroke:none;stroke-width:0.75px;stroke-linecap:butt;stroke-linejoin:miter;stroke-opacity:1" />
          <path
             sodipodi:nodetypes="ccscc"
             inkscape:connector-curvature="0"
             id="path940"
             d="m 997.46805,1804.9476 c 0,0 4.05425,4.0543 9.72275,2.1398 -2.1028,-3.6157 -3.0254,-8.8838 -6.0439,-10.6613 -1.18945,-0.7005 -3.57465,-1.5505 -4.09175,0.6382 -0.5615,2.4973 -0.2212,5.4857 0.4129,7.8833 z"
             style="fill:#a1cc5e;fill-opacity:1;stroke:none;stroke-width:0.075;stroke-linecap:butt;stroke-linejoin:miter;stroke-miterlimit:4;stroke-dasharray:none;stroke-opacity:1" />
        </g>
      </g>
    </g>
  </g>
</svg>
