<?xml version="1.0" encoding="UTF-8" standalone="no"?>
<!-- Created with Inkscape (http://www.inkscape.org/) -->

<svg
   xmlns:dc="http://purl.org/dc/elements/1.1/"
   xmlns:cc="http://creativecommons.org/ns#"
   xmlns:rdf="http://www.w3.org/1999/02/22-rdf-syntax-ns#"
   xmlns:svg="http://www.w3.org/2000/svg"
   xmlns="http://www.w3.org/2000/svg"
   xmlns:sodipodi="http://sodipodi.sourceforge.net/DTD/sodipodi-0.dtd"
   xmlns:inkscape="http://www.inkscape.org/namespaces/inkscape"
   width="26.60766mm"
   height="1.5136mm"
   viewBox="0 0 26.60766 1.5136"
   version="1.1"
   id="svg8"
   inkscape:version="0.92.4 (5da689c313, 2019-01-14)"
   sodipodi:docname="PinkLineFromhr01Converted.svg">
  <defs
     id="defs2" />
  <sodipodi:namedview
     id="base"
     pagecolor="#ffffff"
     bordercolor="#666666"
     borderopacity="1.0"
     inkscape:pageopacity="0.0"
     inkscape:pageshadow="2"
     inkscape:zoom="5.6"
     inkscape:cx="104.29637"
     inkscape:cy="-2.790485"
     inkscape:document-units="mm"
     inkscape:current-layer="layer1"
     showgrid="false"
     inkscape:window-width="1920"
     inkscape:window-height="1017"
     inkscape:window-x="1912"
     inkscape:window-y="-8"
     inkscape:window-maximized="1" />
  <metadata
     id="metadata5">
    <rdf:RDF>
      <cc:Work
         rdf:about="">
        <dc:format>image/svg+xml</dc:format>
        <dc:type
           rdf:resource="http://purl.org/dc/dcmitype/StillImage" />
        <dc:title></dc:title>
      </cc:Work>
    </rdf:RDF>
  </metadata>
  <g
     inkscape:label="Layer 1"
     inkscape:groupmode="layer"
     id="layer1"
     transform="translate(426.05383,-166.97534)">
    <path
       style="opacity:1;fill:#ec486b;fill-opacity:1;stroke:none;stroke-width:0.02645833;stroke-linecap:round;stroke-linejoin:round;stroke-miterlimit:4;stroke-dasharray:none;stroke-dashoffset:0;stroke-opacity:1"
       d="m -425.4332,166.97534 c -0.34377,0 -0.62063,0.27686 -0.62063,0.62064 v 0.27233 c 0,0.34377 0.27686,0.62063 0.62063,0.62063 h 16.04346 c 0.34377,0 0.62063,-0.27686 0.62063,-0.62063 v -0.27233 c 0,-0.34378 -0.27686,-0.62064 -0.62063,-0.62064 z m 18.9797,0 c -0.34377,0 -0.62063,0.27686 -0.62063,0.62064 v 0.27233 c 0,0.34377 0.27686,0.62063 0.62063,0.62063 h 6.3867 c 0.34377,0 0.62063,-0.27686 0.62063,-0.62063 v -0.27233 c 0,-0.34378 -0.27686,-0.62064 -0.62063,-0.62064 z"
       id="rect864"
       inkscape:connector-curvature="0" />
  </g>
</svg>
