<svg xmlns="http://www.w3.org/2000/svg" width="110" height="119"><style><![CDATA[.B{fill:#fff}.C{fill-opacity:.85}.D{stroke-width:1.5}.E{stroke:#03b4ee}]]></style><g fill="none"><path d="M0 95.012h23.427v23.318H0zm28.632 0H52.06v23.318H28.632zm28.633 0H80.7v23.318H57.265zm28.632 0h23.427v23.318H85.897zM0 66.512h23.427V89.83H0zm28.632 0H52.06V89.83H28.632zm28.633 0H80.7V89.83H57.265zm28.632 0h23.427V89.83H85.897zM0 38.012h23.427V61.33H0zm28.632 0H52.06V61.33H28.632zm28.633 0H80.7V61.33H57.265zm28.632 0h23.427V61.33H85.897zm0-28.5h23.427V32.83H85.897zM55.98 7.757h23.427v23.318H55.98zM24.508 3.413h23.427V26.73H24.508z" fill="#03b4ee"/><path d="M0 95.012h23.427v23.318H0z" class="B C"/><path d="M.75 95.762h21.927v21.818H.75z" class="D E"/><path d="M28.632 95.012H52.06v23.318H28.632z" class="B C"/><path d="M29.382 95.762H51.31v21.818H29.382z" class="D E"/><path d="M57.265 95.012H80.69v23.318H57.265z" class="B C"/><path d="M58.015 95.762H79.94v21.818H58.015z" class="D E"/><path d="M85.897 95.012h23.427v23.318H85.897z" class="B C"/><path d="M86.647 95.762h21.927v21.818H86.647z" class="D E"/><path d="M0 66.512h23.427V89.83H0z" class="B C"/><path d="M.75 67.262h21.927V89.08H.75z" class="D E"/><path d="M28.632 66.512H52.06V89.83H28.632z" class="B C"/><path d="M29.382 67.262H51.31V89.08H29.382z" class="D E"/><path d="M57.265 66.512H80.69V89.83H57.265z" class="B C"/><path d="M58.015 67.262H79.94V89.08H58.015z" class="D E"/><path d="M85.897 66.512h23.427V89.83H85.897z" class="B C"/><path d="M86.647 67.262h21.927V89.08H86.647z" class="D E"/><path d="M0 38.012h23.427V61.33H0z" class="B C"/><path d="M.75 38.762h21.927V60.58H.75z" class="D E"/><path d="M28.632 38.012H52.06V61.33H28.632z" class="B C"/><path d="M29.382 38.762H51.31V60.58H29.382z" class="D E"/><path d="M57.265 38.012H80.69V61.33H57.265z" class="B C"/><path d="M58.015 38.762H79.94V60.58H58.015z" class="D E"/><path d="M85.897 38.012h23.427V61.33H85.897z" class="B C"/><path d="M86.647 38.762h21.927V60.58H86.647z" class="D E"/><path d="M52.456 4.344h23.427v23.318H52.456z" class="B C"/><path d="M53.206 5.094h21.927v21.818H53.206z" class="D E"/><path d="M20.982 0H44.41v23.318H20.982z" class="B C"/><path d="M21.732.75H43.66v21.818H21.732z" class="D E"/><path d="M85.897 9.512h23.427V32.83H85.897z" class="B C"/><path d="M86.647 10.262h21.927V32.08H86.647z" class="D E"/></g></svg>