<?xml version="1.0" encoding="UTF-8" standalone="no"?>
<!-- Generator: Adobe Illustrator 18.1.1, SVG Export Plug-In . SVG Version: 6.00 Build 0)  -->

<svg
   xmlns:dc="http://purl.org/dc/elements/1.1/"
   xmlns:cc="http://creativecommons.org/ns#"
   xmlns:rdf="http://www.w3.org/1999/02/22-rdf-syntax-ns#"
   xmlns:svg="http://www.w3.org/2000/svg"
   xmlns="http://www.w3.org/2000/svg"
   xmlns:sodipodi="http://sodipodi.sourceforge.net/DTD/sodipodi-0.dtd"
   xmlns:inkscape="http://www.inkscape.org/namespaces/inkscape"
   version="1.1"
   id="Capa_1"
   x="0px"
   y="0px"
   viewBox="0 0 41.283 41.299998"
   xml:space="preserve"
   sodipodi:docname="question-mark-button.svg"
   width="41.283001"
   height="41.299999"
   inkscape:version="0.92.4 (5da689c313, 2019-01-14)"><metadata
   id="metadata51"><rdf:RDF><cc:Work
       rdf:about=""><dc:format>image/svg+xml</dc:format><dc:type
         rdf:resource="http://purl.org/dc/dcmitype/StillImage" /><dc:title></dc:title></cc:Work></rdf:RDF></metadata><defs
   id="defs49" /><sodipodi:namedview
   pagecolor="#ffffff"
   bordercolor="#666666"
   borderopacity="1"
   objecttolerance="10"
   gridtolerance="10"
   guidetolerance="10"
   inkscape:pageopacity="0"
   inkscape:pageshadow="2"
   inkscape:window-width="1920"
   inkscape:window-height="1017"
   id="namedview47"
   showgrid="false"
   inkscape:zoom="2.2032392"
   inkscape:cx="-18.573324"
   inkscape:cy="34.904926"
   inkscape:window-x="-8"
   inkscape:window-y="-8"
   inkscape:window-maximized="1"
   inkscape:current-layer="Capa_1" />

<g
   id="g16"
   transform="translate(-103.88308,-133.40102)">
</g>
<g
   id="g18"
   transform="translate(-103.88308,-133.40102)">
</g>
<g
   id="g20"
   transform="translate(-103.88308,-133.40102)">
</g>
<g
   id="g22"
   transform="translate(-103.88308,-133.40102)">
</g>
<g
   id="g24"
   transform="translate(-103.88308,-133.40102)">
</g>
<g
   id="g26"
   transform="translate(-103.88308,-133.40102)">
</g>
<g
   id="g28"
   transform="translate(-103.88308,-133.40102)">
</g>
<g
   id="g30"
   transform="translate(-103.88308,-133.40102)">
</g>
<g
   id="g32"
   transform="translate(-103.88308,-133.40102)">
</g>
<g
   id="g34"
   transform="translate(-103.88308,-133.40102)">
</g>
<g
   id="g36"
   transform="translate(-103.88308,-133.40102)">
</g>
<g
   id="g38"
   transform="translate(-103.88308,-133.40102)">
</g>
<g
   id="g40"
   transform="translate(-103.88308,-133.40102)">
</g>
<g
   id="g42"
   transform="translate(-103.88308,-133.40102)">
</g>
<g
   id="g44"
   transform="translate(-103.88308,-133.40102)">
</g>
<g
   transform="translate(-0.00899948,-4.9951581e-4)"
   id="g974"><path
   sodipodi:nodetypes="scscssscscscscsssc"
   style="fill:#999999"
   d="m 20.642999,4.9951581e-4 c 5.698,0 10.857,2.31699998419 14.602,6.04699998419 3.73,3.746 6.047,8.9049995 6.047,14.6029995 0,5.698 -2.317,10.857 -6.047,14.603 -3.746,3.73 -8.904,6.047 -14.602,6.047 -5.698,0 -10.8559994,-2.317 -14.5859995,-6.047 -3.746,-3.746 -6.04800002,-8.904 -6.04800002,-14.603 0,-5.698 2.30100002,-10.8569995 6.04700002,-14.6029995 3.7310001,-3.73 8.8889995,-6.04699998419 14.5869995,-6.04699998419 z M 33.657999,7.6354995 c -3.333,-3.333 -7.936,-5.381 -13.015,-5.381 -5.079,0 -9.682,2.047 -13.0149995,5.381 -3.317,3.3329995 -5.381,7.9359995 -5.381,13.0149995 0,5.079 2.063,9.682 5.381,13.016 3.3329995,3.333 7.9359995,5.381 13.0149995,5.381 5.079,0 9.682,-2.048 13.015,-5.381 3.333,-3.333 5.397,-7.936 5.397,-13.016 0,-5.079 -2.063,-9.682 -5.397,-13.0149995 z"
   id="path965"
   inkscape:connector-curvature="0" /><text
   id="text969"
   y="28.937216"
   x="14.702599"
   style="font-style:normal;font-weight:normal;font-size:22.33052254px;line-height:1.25;font-family:sans-serif;letter-spacing:0px;word-spacing:0px;fill:#999999;fill-opacity:1;stroke:none;stroke-width:0.55826288"
   xml:space="preserve"><tspan
     style="fill:#999999;fill-opacity:1;stroke-width:0.55826288"
     y="28.937216"
     x="14.702599"
     id="tspan967"
     sodipodi:role="line">?</tspan></text>

</g></svg>