<?xml version="1.0" encoding="UTF-8" standalone="no"?>
<!-- Created with Inkscape (http://www.inkscape.org/) -->

<svg
   xmlns:dc="http://purl.org/dc/elements/1.1/"
   xmlns:cc="http://creativecommons.org/ns#"
   xmlns:rdf="http://www.w3.org/1999/02/22-rdf-syntax-ns#"
   xmlns:svg="http://www.w3.org/2000/svg"
   xmlns="http://www.w3.org/2000/svg"
   xmlns:sodipodi="http://sodipodi.sourceforge.net/DTD/sodipodi-0.dtd"
   xmlns:inkscape="http://www.inkscape.org/namespaces/inkscape"
   width="31.830101mm"
   height="31.670942mm"
   viewBox="0 0 31.830101 31.670942"
   version="1.1"
   id="svg8"
   inkscape:version="0.92.4 (5da689c313, 2019-01-14)"
   sodipodi:docname="RedsquareDot.svg">
  <defs
     id="defs2" />
  <sodipodi:namedview
     id="base"
     pagecolor="#ffffff"
     bordercolor="#666666"
     borderopacity="1.0"
     inkscape:pageopacity="0.0"
     inkscape:pageshadow="2"
     inkscape:zoom="0.49497475"
     inkscape:cx="777.16173"
     inkscape:cy="150.61477"
     inkscape:document-units="mm"
     inkscape:current-layer="layer1"
     showgrid="false"
     inkscape:window-width="1920"
     inkscape:window-height="1017"
     inkscape:window-x="1912"
     inkscape:window-y="-8"
     inkscape:window-maximized="1" />
  <metadata
     id="metadata5">
    <rdf:RDF>
      <cc:Work
         rdf:about="">
        <dc:format>image/svg+xml</dc:format>
        <dc:type
           rdf:resource="http://purl.org/dc/dcmitype/StillImage" />
        <dc:title></dc:title>
      </cc:Work>
    </rdf:RDF>
  </metadata>
  <g
     inkscape:label="Layer 1"
     inkscape:groupmode="layer"
     id="layer1"
     transform="translate(-11.346442,-63.072595)">
    <path
       inkscape:connector-curvature="0"
       id="path2533"
       d="m 11.634802,63.072595 a 0.28803917,0.28803917 0 0 0 -0.28836,0.28836 0.28803917,0.28803917 0 0 0 0.28836,0.287832 0.28803917,0.28803917 0 0 0 0.287832,-0.287832 0.28803917,0.28803917 0 0 0 -0.287832,-0.28836 z m 3.1254,0 a 0.28803917,0.28803917 0 0 0 -0.288361,0.28836 0.28803917,0.28803917 0 0 0 0.288361,0.287832 0.28803917,0.28803917 0 0 0 0.287831,-0.287832 0.28803917,0.28803917 0 0 0 -0.287831,-0.28836 z m 3.125364,0 a 0.28803917,0.28803917 0 0 0 -0.288361,0.28836 0.28803917,0.28803917 0 0 0 0.288361,0.287832 0.28803917,0.28803917 0 0 0 0.287831,-0.287832 0.28803917,0.28803917 0 0 0 -0.287831,-0.28836 z m 3.125399,0 a 0.28803917,0.28803917 0 0 0 -0.28836,0.28836 0.28803917,0.28803917 0 0 0 0.28836,0.287832 0.28803917,0.28803917 0 0 0 0.287832,-0.287832 0.28803917,0.28803917 0 0 0 -0.287832,-0.28836 z m 3.1254,0 a 0.28803917,0.28803917 0 0 0 -0.288361,0.28836 0.28803917,0.28803917 0 0 0 0.288361,0.287832 0.28803917,0.28803917 0 0 0 0.287831,-0.287832 0.28803917,0.28803917 0 0 0 -0.287831,-0.28836 z m 3.125385,0 a 0.28803917,0.28803917 0 0 0 -0.288353,0.28836 0.28803917,0.28803917 0 0 0 0.288353,0.287832 0.28803917,0.28803917 0 0 0 0.287839,-0.287832 0.28803917,0.28803917 0 0 0 -0.287839,-0.28836 z m 3.125389,0 a 0.28803917,0.28803917 0 0 0 -0.288354,0.28836 0.28803917,0.28803917 0 0 0 0.288354,0.287832 0.28803917,0.28803917 0 0 0 0.287838,-0.287832 0.28803917,0.28803917 0 0 0 -0.287838,-0.28836 z m 3.125392,0 a 0.28803917,0.28803917 0 0 0 -0.288353,0.28836 0.28803917,0.28803917 0 0 0 0.288353,0.287832 0.28803917,0.28803917 0 0 0 0.287839,-0.287832 0.28803917,0.28803917 0 0 0 -0.287839,-0.28836 z m 3.125393,0 a 0.28803917,0.28803917 0 0 0 -0.288358,0.28836 0.28803917,0.28803917 0 0 0 0.288358,0.287832 0.28803917,0.28803917 0 0 0 0.287835,-0.287832 0.28803917,0.28803917 0 0 0 -0.287835,-0.28836 z m 3.125387,0 a 0.28803917,0.28803917 0 0 0 -0.288353,0.28836 0.28803917,0.28803917 0 0 0 0.288353,0.287832 0.28803917,0.28803917 0 0 0 0.28784,-0.287832 0.28803917,0.28803917 0 0 0 -0.28784,-0.28836 z m 3.125393,0 a 0.28803917,0.28803917 0 0 0 -0.288356,0.28836 0.28803917,0.28803917 0 0 0 0.288356,0.287832 0.28803917,0.28803917 0 0 0 0.287838,-0.287832 0.28803917,0.28803917 0 0 0 -0.287838,-0.28836 z m -31.253902,2.827231 a 0.28803917,0.28803917 0 0 0 -0.28836,0.287832 0.28803917,0.28803917 0 0 0 0.28836,0.287831 0.28803917,0.28803917 0 0 0 0.287832,-0.287831 0.28803917,0.28803917 0 0 0 -0.287832,-0.287832 z m 3.1254,0 a 0.28803917,0.28803917 0 0 0 -0.288361,0.287832 0.28803917,0.28803917 0 0 0 0.288361,0.287831 0.28803917,0.28803917 0 0 0 0.287831,-0.287831 0.28803917,0.28803917 0 0 0 -0.287831,-0.287832 z m 3.125364,0 a 0.28803917,0.28803917 0 0 0 -0.288361,0.287832 0.28803917,0.28803917 0 0 0 0.288361,0.287831 0.28803917,0.28803917 0 0 0 0.287831,-0.287831 0.28803917,0.28803917 0 0 0 -0.287831,-0.287832 z m 3.125399,0 a 0.28803917,0.28803917 0 0 0 -0.28836,0.287832 0.28803917,0.28803917 0 0 0 0.28836,0.287831 0.28803917,0.28803917 0 0 0 0.287832,-0.287831 0.28803917,0.28803917 0 0 0 -0.287832,-0.287832 z m 3.1254,0 a 0.28803917,0.28803917 0 0 0 -0.288361,0.287832 0.28803917,0.28803917 0 0 0 0.288361,0.287831 0.28803917,0.28803917 0 0 0 0.287831,-0.287831 0.28803917,0.28803917 0 0 0 -0.287831,-0.287832 z m 3.125385,0 a 0.28803917,0.28803917 0 0 0 -0.288353,0.287832 0.28803917,0.28803917 0 0 0 0.288353,0.287831 0.28803917,0.28803917 0 0 0 0.287839,-0.287831 0.28803917,0.28803917 0 0 0 -0.287839,-0.287832 z m 3.125389,0 a 0.28803917,0.28803917 0 0 0 -0.288354,0.287832 0.28803917,0.28803917 0 0 0 0.288354,0.287831 0.28803917,0.28803917 0 0 0 0.287838,-0.287831 0.28803917,0.28803917 0 0 0 -0.287838,-0.287832 z m 3.125392,0 a 0.28803917,0.28803917 0 0 0 -0.288353,0.287832 0.28803917,0.28803917 0 0 0 0.288353,0.287831 0.28803917,0.28803917 0 0 0 0.287839,-0.287831 0.28803917,0.28803917 0 0 0 -0.287839,-0.287832 z m 3.125393,0 a 0.28803917,0.28803917 0 0 0 -0.288358,0.287832 0.28803917,0.28803917 0 0 0 0.288358,0.287831 0.28803917,0.28803917 0 0 0 0.287835,-0.287831 0.28803917,0.28803917 0 0 0 -0.287835,-0.287832 z m 3.125387,0 a 0.28803917,0.28803917 0 0 0 -0.288353,0.287832 0.28803917,0.28803917 0 0 0 0.288353,0.287831 0.28803917,0.28803917 0 0 0 0.28784,-0.287831 0.28803917,0.28803917 0 0 0 -0.28784,-0.287832 z m 3.125393,0 a 0.28803917,0.28803917 0 0 0 -0.288356,0.287832 0.28803917,0.28803917 0 0 0 0.288356,0.287831 0.28803917,0.28803917 0 0 0 0.287838,-0.287831 0.28803917,0.28803917 0 0 0 -0.287838,-0.287832 z m -31.253902,2.826703 a 0.28803917,0.28803917 0 0 0 -0.28836,0.287831 0.28803917,0.28803917 0 0 0 0.28836,0.28836 0.28803917,0.28803917 0 0 0 0.287832,-0.28836 0.28803917,0.28803917 0 0 0 -0.287832,-0.287831 z m 3.1254,0 a 0.28803917,0.28803917 0 0 0 -0.288361,0.287831 0.28803917,0.28803917 0 0 0 0.288361,0.28836 0.28803917,0.28803917 0 0 0 0.287831,-0.28836 0.28803917,0.28803917 0 0 0 -0.287831,-0.287831 z m 3.125364,0 a 0.28803917,0.28803917 0 0 0 -0.288361,0.287831 0.28803917,0.28803917 0 0 0 0.288361,0.28836 0.28803917,0.28803917 0 0 0 0.287831,-0.28836 0.28803917,0.28803917 0 0 0 -0.287831,-0.287831 z m 3.125399,0 a 0.28803917,0.28803917 0 0 0 -0.28836,0.287831 0.28803917,0.28803917 0 0 0 0.28836,0.28836 0.28803917,0.28803917 0 0 0 0.287832,-0.28836 0.28803917,0.28803917 0 0 0 -0.287832,-0.287831 z m 3.1254,0 a 0.28803917,0.28803917 0 0 0 -0.288361,0.287831 0.28803917,0.28803917 0 0 0 0.288361,0.28836 0.28803917,0.28803917 0 0 0 0.287831,-0.28836 0.28803917,0.28803917 0 0 0 -0.287831,-0.287831 z m 3.125385,0 a 0.28803917,0.28803917 0 0 0 -0.288353,0.287831 0.28803917,0.28803917 0 0 0 0.288353,0.28836 0.28803917,0.28803917 0 0 0 0.287839,-0.28836 0.28803917,0.28803917 0 0 0 -0.287839,-0.287831 z m 3.125389,0 a 0.28803917,0.28803917 0 0 0 -0.288354,0.287831 0.28803917,0.28803917 0 0 0 0.288354,0.28836 0.28803917,0.28803917 0 0 0 0.287838,-0.28836 0.28803917,0.28803917 0 0 0 -0.287838,-0.287831 z m 3.125392,0 a 0.28803917,0.28803917 0 0 0 -0.288353,0.287831 0.28803917,0.28803917 0 0 0 0.288353,0.28836 0.28803917,0.28803917 0 0 0 0.287839,-0.28836 0.28803917,0.28803917 0 0 0 -0.287839,-0.287831 z m 3.125393,0 a 0.28803917,0.28803917 0 0 0 -0.288358,0.287831 0.28803917,0.28803917 0 0 0 0.288358,0.28836 0.28803917,0.28803917 0 0 0 0.287835,-0.28836 0.28803917,0.28803917 0 0 0 -0.287835,-0.287831 z m 3.125387,0 a 0.28803917,0.28803917 0 0 0 -0.288353,0.287831 0.28803917,0.28803917 0 0 0 0.288353,0.28836 0.28803917,0.28803917 0 0 0 0.28784,-0.28836 0.28803917,0.28803917 0 0 0 -0.28784,-0.287831 z m 3.125393,0 a 0.28803917,0.28803917 0 0 0 -0.288356,0.287831 0.28803917,0.28803917 0 0 0 0.288356,0.28836 0.28803917,0.28803917 0 0 0 0.287838,-0.28836 0.28803917,0.28803917 0 0 0 -0.287838,-0.287831 z m -31.253902,2.826702 a 0.28803917,0.28803917 0 0 0 -0.28836,0.287832 0.28803917,0.28803917 0 0 0 0.28836,0.28836 0.28803917,0.28803917 0 0 0 0.287832,-0.28836 0.28803917,0.28803917 0 0 0 -0.287832,-0.287832 z m 3.1254,0 a 0.28803917,0.28803917 0 0 0 -0.288361,0.287832 0.28803917,0.28803917 0 0 0 0.288361,0.28836 0.28803917,0.28803917 0 0 0 0.287831,-0.28836 0.28803917,0.28803917 0 0 0 -0.287831,-0.287832 z m 3.125364,0 a 0.28803917,0.28803917 0 0 0 -0.288361,0.287832 0.28803917,0.28803917 0 0 0 0.288361,0.28836 0.28803917,0.28803917 0 0 0 0.287831,-0.28836 0.28803917,0.28803917 0 0 0 -0.287831,-0.287832 z m 3.125399,0 a 0.28803917,0.28803917 0 0 0 -0.28836,0.287832 0.28803917,0.28803917 0 0 0 0.28836,0.28836 0.28803917,0.28803917 0 0 0 0.287832,-0.28836 0.28803917,0.28803917 0 0 0 -0.287832,-0.287832 z m 3.1254,0 a 0.28803917,0.28803917 0 0 0 -0.288361,0.287832 0.28803917,0.28803917 0 0 0 0.288361,0.28836 0.28803917,0.28803917 0 0 0 0.287831,-0.28836 0.28803917,0.28803917 0 0 0 -0.287831,-0.287832 z m 3.125385,0 a 0.28803917,0.28803917 0 0 0 -0.288353,0.287832 0.28803917,0.28803917 0 0 0 0.288353,0.28836 0.28803917,0.28803917 0 0 0 0.287839,-0.28836 0.28803917,0.28803917 0 0 0 -0.287839,-0.287832 z m 3.125389,0 a 0.28803917,0.28803917 0 0 0 -0.288354,0.287832 0.28803917,0.28803917 0 0 0 0.288354,0.28836 0.28803917,0.28803917 0 0 0 0.287838,-0.28836 0.28803917,0.28803917 0 0 0 -0.287838,-0.287832 z m 3.125392,0 a 0.28803917,0.28803917 0 0 0 -0.288353,0.287832 0.28803917,0.28803917 0 0 0 0.288353,0.28836 0.28803917,0.28803917 0 0 0 0.287839,-0.28836 0.28803917,0.28803917 0 0 0 -0.287839,-0.287832 z m 3.125393,0 a 0.28803917,0.28803917 0 0 0 -0.288358,0.287832 0.28803917,0.28803917 0 0 0 0.288358,0.28836 0.28803917,0.28803917 0 0 0 0.287835,-0.28836 0.28803917,0.28803917 0 0 0 -0.287835,-0.287832 z m 3.125387,0 a 0.28803917,0.28803917 0 0 0 -0.288353,0.287832 0.28803917,0.28803917 0 0 0 0.288353,0.28836 0.28803917,0.28803917 0 0 0 0.28784,-0.28836 0.28803917,0.28803917 0 0 0 -0.28784,-0.287832 z m 3.125393,0 a 0.28803917,0.28803917 0 0 0 -0.288356,0.287832 0.28803917,0.28803917 0 0 0 0.288356,0.28836 0.28803917,0.28803917 0 0 0 0.287838,-0.28836 0.28803917,0.28803917 0 0 0 -0.287838,-0.287832 z m -31.253902,2.826702 a 0.28803917,0.28803917 0 0 0 -0.28836,0.288361 0.28803917,0.28803917 0 0 0 0.28836,0.287831 0.28803917,0.28803917 0 0 0 0.287832,-0.287831 0.28803917,0.28803917 0 0 0 -0.287832,-0.288361 z m 3.1254,0 a 0.28803917,0.28803917 0 0 0 -0.288361,0.288361 0.28803917,0.28803917 0 0 0 0.288361,0.287831 0.28803917,0.28803917 0 0 0 0.287831,-0.287831 0.28803917,0.28803917 0 0 0 -0.287831,-0.288361 z m 3.125364,0 a 0.28803917,0.28803917 0 0 0 -0.288361,0.288361 0.28803917,0.28803917 0 0 0 0.288361,0.287831 0.28803917,0.28803917 0 0 0 0.287831,-0.287831 0.28803917,0.28803917 0 0 0 -0.287831,-0.288361 z m 3.125399,0 a 0.28803917,0.28803917 0 0 0 -0.28836,0.288361 0.28803917,0.28803917 0 0 0 0.28836,0.287831 0.28803917,0.28803917 0 0 0 0.287832,-0.287831 0.28803917,0.28803917 0 0 0 -0.287832,-0.288361 z m 3.1254,0 a 0.28803917,0.28803917 0 0 0 -0.288361,0.288361 0.28803917,0.28803917 0 0 0 0.288361,0.287831 0.28803917,0.28803917 0 0 0 0.287831,-0.287831 0.28803917,0.28803917 0 0 0 -0.287831,-0.288361 z m 3.125385,0 a 0.28803917,0.28803917 0 0 0 -0.288353,0.288361 0.28803917,0.28803917 0 0 0 0.288353,0.287831 0.28803917,0.28803917 0 0 0 0.287839,-0.287831 0.28803917,0.28803917 0 0 0 -0.287839,-0.288361 z m 3.125389,0 a 0.28803917,0.28803917 0 0 0 -0.288354,0.288361 0.28803917,0.28803917 0 0 0 0.288354,0.287831 0.28803917,0.28803917 0 0 0 0.287838,-0.287831 0.28803917,0.28803917 0 0 0 -0.287838,-0.288361 z m 3.125392,0 a 0.28803917,0.28803917 0 0 0 -0.288353,0.288361 0.28803917,0.28803917 0 0 0 0.288353,0.287831 0.28803917,0.28803917 0 0 0 0.287839,-0.287831 0.28803917,0.28803917 0 0 0 -0.287839,-0.288361 z m 3.125393,0 a 0.28803917,0.28803917 0 0 0 -0.288358,0.288361 0.28803917,0.28803917 0 0 0 0.288358,0.287831 0.28803917,0.28803917 0 0 0 0.287835,-0.287831 0.28803917,0.28803917 0 0 0 -0.287835,-0.288361 z m 3.125387,0 a 0.28803917,0.28803917 0 0 0 -0.288353,0.288361 0.28803917,0.28803917 0 0 0 0.288353,0.287831 0.28803917,0.28803917 0 0 0 0.28784,-0.287831 0.28803917,0.28803917 0 0 0 -0.28784,-0.288361 z m 3.125393,0 a 0.28803917,0.28803917 0 0 0 -0.288356,0.288361 0.28803917,0.28803917 0 0 0 0.288356,0.287831 0.28803917,0.28803917 0 0 0 0.287838,-0.287831 0.28803917,0.28803917 0 0 0 -0.287838,-0.288361 z m -31.253902,2.826702 a 0.28803917,0.28803917 0 0 0 -0.28836,0.288326 0.28803917,0.28803917 0 0 0 0.28836,0.287867 0.28803917,0.28803917 0 0 0 0.287832,-0.287867 0.28803917,0.28803917 0 0 0 -0.287832,-0.288326 z m 3.1254,0 a 0.28803917,0.28803917 0 0 0 -0.288361,0.288326 0.28803917,0.28803917 0 0 0 0.288361,0.287867 0.28803917,0.28803917 0 0 0 0.287831,-0.287867 0.28803917,0.28803917 0 0 0 -0.287831,-0.288326 z m 3.125364,0 a 0.28803917,0.28803917 0 0 0 -0.288361,0.288326 0.28803917,0.28803917 0 0 0 0.288361,0.287867 0.28803917,0.28803917 0 0 0 0.287831,-0.287867 0.28803917,0.28803917 0 0 0 -0.287831,-0.288326 z m 3.125399,0 a 0.28803917,0.28803917 0 0 0 -0.28836,0.288326 0.28803917,0.28803917 0 0 0 0.28836,0.287867 0.28803917,0.28803917 0 0 0 0.287832,-0.287867 0.28803917,0.28803917 0 0 0 -0.287832,-0.288326 z m 3.1254,0 a 0.28803917,0.28803917 0 0 0 -0.288361,0.288326 0.28803917,0.28803917 0 0 0 0.288361,0.287867 0.28803917,0.28803917 0 0 0 0.287831,-0.287867 0.28803917,0.28803917 0 0 0 -0.287831,-0.288326 z m 3.125385,0 a 0.28803917,0.28803917 0 0 0 -0.288353,0.288326 0.28803917,0.28803917 0 0 0 0.288353,0.287867 0.28803917,0.28803917 0 0 0 0.287839,-0.287867 0.28803917,0.28803917 0 0 0 -0.287839,-0.288326 z m 3.125389,0 a 0.28803917,0.28803917 0 0 0 -0.288354,0.288326 0.28803917,0.28803917 0 0 0 0.288354,0.287867 0.28803917,0.28803917 0 0 0 0.287838,-0.287867 0.28803917,0.28803917 0 0 0 -0.287838,-0.288326 z m 3.125392,0 a 0.28803917,0.28803917 0 0 0 -0.288353,0.288326 0.28803917,0.28803917 0 0 0 0.288353,0.287867 0.28803917,0.28803917 0 0 0 0.287839,-0.287867 0.28803917,0.28803917 0 0 0 -0.287839,-0.288326 z m 3.125393,0 a 0.28803917,0.28803917 0 0 0 -0.288358,0.288326 0.28803917,0.28803917 0 0 0 0.288358,0.287867 0.28803917,0.28803917 0 0 0 0.287835,-0.287867 0.28803917,0.28803917 0 0 0 -0.287835,-0.288326 z m 3.125387,0 a 0.28803917,0.28803917 0 0 0 -0.288353,0.288326 0.28803917,0.28803917 0 0 0 0.288353,0.287867 0.28803917,0.28803917 0 0 0 0.28784,-0.287867 0.28803917,0.28803917 0 0 0 -0.28784,-0.288326 z m 3.125393,0 a 0.28803917,0.28803917 0 0 0 -0.288356,0.288326 0.28803917,0.28803917 0 0 0 0.288356,0.287867 0.28803917,0.28803917 0 0 0 0.287838,-0.287867 0.28803917,0.28803917 0 0 0 -0.287838,-0.288326 z m -31.253902,2.827197 a 0.28803917,0.28803917 0 0 0 -0.28836,0.287831 0.28803917,0.28803917 0 0 0 0.28836,0.287867 0.28803917,0.28803917 0 0 0 0.287832,-0.287867 0.28803917,0.28803917 0 0 0 -0.287832,-0.287831 z m 3.1254,0 a 0.28803917,0.28803917 0 0 0 -0.288361,0.287831 0.28803917,0.28803917 0 0 0 0.288361,0.287867 0.28803917,0.28803917 0 0 0 0.287831,-0.287867 0.28803917,0.28803917 0 0 0 -0.287831,-0.287831 z m 3.125364,0 a 0.28803917,0.28803917 0 0 0 -0.288361,0.287831 0.28803917,0.28803917 0 0 0 0.288361,0.287867 0.28803917,0.28803917 0 0 0 0.287831,-0.287867 0.28803917,0.28803917 0 0 0 -0.287831,-0.287831 z m 3.125399,0 a 0.28803917,0.28803917 0 0 0 -0.28836,0.287831 0.28803917,0.28803917 0 0 0 0.28836,0.287867 0.28803917,0.28803917 0 0 0 0.287832,-0.287867 0.28803917,0.28803917 0 0 0 -0.287832,-0.287831 z m 3.1254,0 a 0.28803917,0.28803917 0 0 0 -0.288361,0.287831 0.28803917,0.28803917 0 0 0 0.288361,0.287867 0.28803917,0.28803917 0 0 0 0.287831,-0.287867 0.28803917,0.28803917 0 0 0 -0.287831,-0.287831 z m 3.125385,0 a 0.28803917,0.28803917 0 0 0 -0.288353,0.287831 0.28803917,0.28803917 0 0 0 0.288353,0.287867 0.28803917,0.28803917 0 0 0 0.287839,-0.287867 0.28803917,0.28803917 0 0 0 -0.287839,-0.287831 z m 3.125389,0 a 0.28803917,0.28803917 0 0 0 -0.288354,0.287831 0.28803917,0.28803917 0 0 0 0.288354,0.287867 0.28803917,0.28803917 0 0 0 0.287838,-0.287867 0.28803917,0.28803917 0 0 0 -0.287838,-0.287831 z m 3.125392,0 a 0.28803917,0.28803917 0 0 0 -0.288353,0.287831 0.28803917,0.28803917 0 0 0 0.288353,0.287867 0.28803917,0.28803917 0 0 0 0.287839,-0.287867 0.28803917,0.28803917 0 0 0 -0.287839,-0.287831 z m 3.125393,0 a 0.28803917,0.28803917 0 0 0 -0.288358,0.287831 0.28803917,0.28803917 0 0 0 0.288358,0.287867 0.28803917,0.28803917 0 0 0 0.287835,-0.287867 0.28803917,0.28803917 0 0 0 -0.287835,-0.287831 z m 3.125387,0 a 0.28803917,0.28803917 0 0 0 -0.288353,0.287831 0.28803917,0.28803917 0 0 0 0.288353,0.287867 0.28803917,0.28803917 0 0 0 0.28784,-0.287867 0.28803917,0.28803917 0 0 0 -0.28784,-0.287831 z m 3.125393,0 a 0.28803917,0.28803917 0 0 0 -0.288356,0.287831 0.28803917,0.28803917 0 0 0 0.288356,0.287867 0.28803917,0.28803917 0 0 0 0.287838,-0.287867 0.28803917,0.28803917 0 0 0 -0.287838,-0.287831 z m -31.253902,2.826702 a 0.28803917,0.28803917 0 0 0 -0.28836,0.287832 0.28803917,0.28803917 0 0 0 0.28836,0.28836 0.28803917,0.28803917 0 0 0 0.287832,-0.28836 0.28803917,0.28803917 0 0 0 -0.287832,-0.287832 z m 3.1254,0 a 0.28803917,0.28803917 0 0 0 -0.288361,0.287832 0.28803917,0.28803917 0 0 0 0.288361,0.28836 0.28803917,0.28803917 0 0 0 0.287831,-0.28836 0.28803917,0.28803917 0 0 0 -0.287831,-0.287832 z m 3.125364,0 a 0.28803917,0.28803917 0 0 0 -0.288361,0.287832 0.28803917,0.28803917 0 0 0 0.288361,0.28836 0.28803917,0.28803917 0 0 0 0.287831,-0.28836 0.28803917,0.28803917 0 0 0 -0.287831,-0.287832 z m 3.125399,0 a 0.28803917,0.28803917 0 0 0 -0.28836,0.287832 0.28803917,0.28803917 0 0 0 0.28836,0.28836 0.28803917,0.28803917 0 0 0 0.287832,-0.28836 0.28803917,0.28803917 0 0 0 -0.287832,-0.287832 z m 3.1254,0 a 0.28803917,0.28803917 0 0 0 -0.288361,0.287832 0.28803917,0.28803917 0 0 0 0.288361,0.28836 0.28803917,0.28803917 0 0 0 0.287831,-0.28836 0.28803917,0.28803917 0 0 0 -0.287831,-0.287832 z m 3.125385,0 a 0.28803917,0.28803917 0 0 0 -0.288353,0.287832 0.28803917,0.28803917 0 0 0 0.288353,0.28836 0.28803917,0.28803917 0 0 0 0.287839,-0.28836 0.28803917,0.28803917 0 0 0 -0.287839,-0.287832 z m 3.125389,0 a 0.28803917,0.28803917 0 0 0 -0.288354,0.287832 0.28803917,0.28803917 0 0 0 0.288354,0.28836 0.28803917,0.28803917 0 0 0 0.287838,-0.28836 0.28803917,0.28803917 0 0 0 -0.287838,-0.287832 z m 3.125392,0 a 0.28803917,0.28803917 0 0 0 -0.288353,0.287832 0.28803917,0.28803917 0 0 0 0.288353,0.28836 0.28803917,0.28803917 0 0 0 0.287839,-0.28836 0.28803917,0.28803917 0 0 0 -0.287839,-0.287832 z m 3.125393,0 a 0.28803917,0.28803917 0 0 0 -0.288358,0.287832 0.28803917,0.28803917 0 0 0 0.288358,0.28836 0.28803917,0.28803917 0 0 0 0.287835,-0.28836 0.28803917,0.28803917 0 0 0 -0.287835,-0.287832 z m 3.125387,0 a 0.28803917,0.28803917 0 0 0 -0.288353,0.287832 0.28803917,0.28803917 0 0 0 0.288353,0.28836 0.28803917,0.28803917 0 0 0 0.28784,-0.28836 0.28803917,0.28803917 0 0 0 -0.28784,-0.287832 z m 3.125393,0 a 0.28803917,0.28803917 0 0 0 -0.288356,0.287832 0.28803917,0.28803917 0 0 0 0.288356,0.28836 0.28803917,0.28803917 0 0 0 0.287838,-0.28836 0.28803917,0.28803917 0 0 0 -0.287838,-0.287832 z m -31.253902,2.826703 a 0.28803917,0.28803917 0 0 0 -0.28836,0.287831 0.28803917,0.28803917 0 0 0 0.28836,0.28836 0.28803917,0.28803917 0 0 0 0.287832,-0.28836 0.28803917,0.28803917 0 0 0 -0.287832,-0.287831 z m 3.1254,0 a 0.28803917,0.28803917 0 0 0 -0.288361,0.287831 0.28803917,0.28803917 0 0 0 0.288361,0.28836 0.28803917,0.28803917 0 0 0 0.287831,-0.28836 0.28803917,0.28803917 0 0 0 -0.287831,-0.287831 z m 3.125364,0 a 0.28803917,0.28803917 0 0 0 -0.288361,0.287831 0.28803917,0.28803917 0 0 0 0.288361,0.28836 0.28803917,0.28803917 0 0 0 0.287831,-0.28836 0.28803917,0.28803917 0 0 0 -0.287831,-0.287831 z m 3.125399,0 a 0.28803917,0.28803917 0 0 0 -0.28836,0.287831 0.28803917,0.28803917 0 0 0 0.28836,0.28836 0.28803917,0.28803917 0 0 0 0.287832,-0.28836 0.28803917,0.28803917 0 0 0 -0.287832,-0.287831 z m 3.1254,0 a 0.28803917,0.28803917 0 0 0 -0.288361,0.287831 0.28803917,0.28803917 0 0 0 0.288361,0.28836 0.28803917,0.28803917 0 0 0 0.287831,-0.28836 0.28803917,0.28803917 0 0 0 -0.287831,-0.287831 z m 3.125385,0 a 0.28803917,0.28803917 0 0 0 -0.288353,0.287831 0.28803917,0.28803917 0 0 0 0.288353,0.28836 0.28803917,0.28803917 0 0 0 0.287839,-0.28836 0.28803917,0.28803917 0 0 0 -0.287839,-0.287831 z m 3.125389,0 a 0.28803917,0.28803917 0 0 0 -0.288354,0.287831 0.28803917,0.28803917 0 0 0 0.288354,0.28836 0.28803917,0.28803917 0 0 0 0.287838,-0.28836 0.28803917,0.28803917 0 0 0 -0.287838,-0.287831 z m 3.125392,0 a 0.28803917,0.28803917 0 0 0 -0.288353,0.287831 0.28803917,0.28803917 0 0 0 0.288353,0.28836 0.28803917,0.28803917 0 0 0 0.287839,-0.28836 0.28803917,0.28803917 0 0 0 -0.287839,-0.287831 z m 3.125393,0 a 0.28803917,0.28803917 0 0 0 -0.288358,0.287831 0.28803917,0.28803917 0 0 0 0.288358,0.28836 0.28803917,0.28803917 0 0 0 0.287835,-0.28836 0.28803917,0.28803917 0 0 0 -0.287835,-0.287831 z m 3.125387,0 a 0.28803917,0.28803917 0 0 0 -0.288353,0.287831 0.28803917,0.28803917 0 0 0 0.288353,0.28836 0.28803917,0.28803917 0 0 0 0.28784,-0.28836 0.28803917,0.28803917 0 0 0 -0.28784,-0.287831 z m 3.125393,0 a 0.28803917,0.28803917 0 0 0 -0.288356,0.287831 0.28803917,0.28803917 0 0 0 0.288356,0.28836 0.28803917,0.28803917 0 0 0 0.287838,-0.28836 0.28803917,0.28803917 0 0 0 -0.287838,-0.287831 z m -31.253902,2.826702 a 0.28803917,0.28803917 0 0 0 -0.28836,0.288361 0.28803917,0.28803917 0 0 0 0.28836,0.287831 0.28803917,0.28803917 0 0 0 0.287832,-0.287831 0.28803917,0.28803917 0 0 0 -0.287832,-0.288361 z m 3.1254,0 a 0.28803917,0.28803917 0 0 0 -0.288361,0.288361 0.28803917,0.28803917 0 0 0 0.288361,0.287831 0.28803917,0.28803917 0 0 0 0.287831,-0.287831 0.28803917,0.28803917 0 0 0 -0.287831,-0.288361 z m 3.125364,0 a 0.28803917,0.28803917 0 0 0 -0.288361,0.288361 0.28803917,0.28803917 0 0 0 0.288361,0.287831 0.28803917,0.28803917 0 0 0 0.287831,-0.287831 0.28803917,0.28803917 0 0 0 -0.287831,-0.288361 z m 3.125399,0 a 0.28803917,0.28803917 0 0 0 -0.28836,0.288361 0.28803917,0.28803917 0 0 0 0.28836,0.287831 0.28803917,0.28803917 0 0 0 0.287832,-0.287831 0.28803917,0.28803917 0 0 0 -0.287832,-0.288361 z m 3.1254,0 a 0.28803917,0.28803917 0 0 0 -0.288361,0.288361 0.28803917,0.28803917 0 0 0 0.288361,0.287831 0.28803917,0.28803917 0 0 0 0.287831,-0.287831 0.28803917,0.28803917 0 0 0 -0.287831,-0.288361 z m 3.125385,0 A 0.28803917,0.28803917 0 0 0 26.973397,88.8023 0.28803917,0.28803917 0 0 0 27.26175,89.090131 0.28803917,0.28803917 0 0 0 27.549589,88.8023 0.28803917,0.28803917 0 0 0 27.26175,88.513939 Z m 3.125389,0 a 0.28803917,0.28803917 0 0 0 -0.288354,0.288361 0.28803917,0.28803917 0 0 0 0.288354,0.287831 0.28803917,0.28803917 0 0 0 0.287838,-0.287831 0.28803917,0.28803917 0 0 0 -0.287838,-0.288361 z m 3.125392,0 A 0.28803917,0.28803917 0 0 0 33.224178,88.8023 0.28803917,0.28803917 0 0 0 33.512531,89.090131 0.28803917,0.28803917 0 0 0 33.80037,88.8023 0.28803917,0.28803917 0 0 0 33.512531,88.513939 Z m 3.125393,0 a 0.28803917,0.28803917 0 0 0 -0.288358,0.288361 0.28803917,0.28803917 0 0 0 0.288358,0.287831 0.28803917,0.28803917 0 0 0 0.287835,-0.287831 0.28803917,0.28803917 0 0 0 -0.287835,-0.288361 z m 3.125387,0 a 0.28803917,0.28803917 0 0 0 -0.288353,0.288361 0.28803917,0.28803917 0 0 0 0.288353,0.287831 0.28803917,0.28803917 0 0 0 0.28784,-0.287831 0.28803917,0.28803917 0 0 0 -0.28784,-0.288361 z m 3.125393,0 A 0.28803917,0.28803917 0 0 0 42.600348,88.8023 0.28803917,0.28803917 0 0 0 42.888704,89.090131 0.28803917,0.28803917 0 0 0 43.176542,88.8023 0.28803917,0.28803917 0 0 0 42.888704,88.513939 Z M 11.634802,91.34064 a 0.28803917,0.28803917 0 0 0 -0.28836,0.288362 0.28803917,0.28803917 0 0 0 0.28836,0.287832 0.28803917,0.28803917 0 0 0 0.287832,-0.287832 0.28803917,0.28803917 0 0 0 -0.287832,-0.288362 z m 3.1254,0 a 0.28803917,0.28803917 0 0 0 -0.288361,0.288362 0.28803917,0.28803917 0 0 0 0.288361,0.287832 0.28803917,0.28803917 0 0 0 0.287831,-0.287832 0.28803917,0.28803917 0 0 0 -0.287831,-0.288362 z m 3.125364,0 a 0.28803917,0.28803917 0 0 0 -0.288361,0.288362 0.28803917,0.28803917 0 0 0 0.288361,0.287832 0.28803917,0.28803917 0 0 0 0.287831,-0.287832 0.28803917,0.28803917 0 0 0 -0.287831,-0.288362 z m 3.125399,0 a 0.28803917,0.28803917 0 0 0 -0.28836,0.288362 0.28803917,0.28803917 0 0 0 0.28836,0.287832 0.28803917,0.28803917 0 0 0 0.287832,-0.287832 0.28803917,0.28803917 0 0 0 -0.287832,-0.288362 z m 3.1254,0 a 0.28803917,0.28803917 0 0 0 -0.288361,0.288362 0.28803917,0.28803917 0 0 0 0.288361,0.287832 0.28803917,0.28803917 0 0 0 0.287831,-0.287832 0.28803917,0.28803917 0 0 0 -0.287831,-0.288362 z m 3.125385,0 a 0.28803917,0.28803917 0 0 0 -0.288353,0.288362 0.28803917,0.28803917 0 0 0 0.288353,0.287832 0.28803917,0.28803917 0 0 0 0.287839,-0.287832 0.28803917,0.28803917 0 0 0 -0.287839,-0.288362 z m 3.125389,0 a 0.28803917,0.28803917 0 0 0 -0.288354,0.288362 0.28803917,0.28803917 0 0 0 0.288354,0.287832 0.28803917,0.28803917 0 0 0 0.287838,-0.287832 0.28803917,0.28803917 0 0 0 -0.287838,-0.288362 z m 3.125392,0 a 0.28803917,0.28803917 0 0 0 -0.288353,0.288362 0.28803917,0.28803917 0 0 0 0.288353,0.287832 0.28803917,0.28803917 0 0 0 0.287839,-0.287832 0.28803917,0.28803917 0 0 0 -0.287839,-0.288362 z m 3.125393,0 a 0.28803917,0.28803917 0 0 0 -0.288358,0.288362 0.28803917,0.28803917 0 0 0 0.288358,0.287832 0.28803917,0.28803917 0 0 0 0.287835,-0.287832 0.28803917,0.28803917 0 0 0 -0.287835,-0.288362 z m 3.125387,0 a 0.28803917,0.28803917 0 0 0 -0.288353,0.288362 0.28803917,0.28803917 0 0 0 0.288353,0.287832 0.28803917,0.28803917 0 0 0 0.28784,-0.287832 0.28803917,0.28803917 0 0 0 -0.28784,-0.288362 z m 3.125393,0 a 0.28803917,0.28803917 0 0 0 -0.288356,0.288362 0.28803917,0.28803917 0 0 0 0.288356,0.287832 0.28803917,0.28803917 0 0 0 0.287838,-0.287832 0.28803917,0.28803917 0 0 0 -0.287838,-0.288362 z m -31.253902,2.827232 a 0.28803917,0.28803917 0 0 0 -0.28836,0.287832 0.28803917,0.28803917 0 0 0 0.28836,0.287832 0.28803917,0.28803917 0 0 0 0.287832,-0.287832 0.28803917,0.28803917 0 0 0 -0.287832,-0.287832 z m 3.1254,0 a 0.28803917,0.28803917 0 0 0 -0.288361,0.287832 0.28803917,0.28803917 0 0 0 0.288361,0.287832 0.28803917,0.28803917 0 0 0 0.287831,-0.287832 0.28803917,0.28803917 0 0 0 -0.287831,-0.287832 z m 3.125364,0 a 0.28803917,0.28803917 0 0 0 -0.288361,0.287832 0.28803917,0.28803917 0 0 0 0.288361,0.287832 0.28803917,0.28803917 0 0 0 0.287831,-0.287832 0.28803917,0.28803917 0 0 0 -0.287831,-0.287832 z m 3.125399,0 a 0.28803917,0.28803917 0 0 0 -0.28836,0.287832 0.28803917,0.28803917 0 0 0 0.28836,0.287832 0.28803917,0.28803917 0 0 0 0.287832,-0.287832 0.28803917,0.28803917 0 0 0 -0.287832,-0.287832 z m 3.1254,0 a 0.28803917,0.28803917 0 0 0 -0.288361,0.287832 0.28803917,0.28803917 0 0 0 0.288361,0.287832 0.28803917,0.28803917 0 0 0 0.287831,-0.287832 0.28803917,0.28803917 0 0 0 -0.287831,-0.287832 z m 3.125385,0 a 0.28803917,0.28803917 0 0 0 -0.288353,0.287832 0.28803917,0.28803917 0 0 0 0.288353,0.287832 0.28803917,0.28803917 0 0 0 0.287839,-0.287832 0.28803917,0.28803917 0 0 0 -0.287839,-0.287832 z m 3.125389,0 a 0.28803917,0.28803917 0 0 0 -0.288354,0.287832 0.28803917,0.28803917 0 0 0 0.288354,0.287832 0.28803917,0.28803917 0 0 0 0.287838,-0.287832 0.28803917,0.28803917 0 0 0 -0.287838,-0.287832 z m 3.125392,0 a 0.28803917,0.28803917 0 0 0 -0.288353,0.287832 0.28803917,0.28803917 0 0 0 0.288353,0.287832 0.28803917,0.28803917 0 0 0 0.287839,-0.287832 0.28803917,0.28803917 0 0 0 -0.287839,-0.287832 z m 3.125393,0 a 0.28803917,0.28803917 0 0 0 -0.288358,0.287832 0.28803917,0.28803917 0 0 0 0.288358,0.287832 0.28803917,0.28803917 0 0 0 0.287835,-0.287832 0.28803917,0.28803917 0 0 0 -0.287835,-0.287832 z m 3.125387,0 a 0.28803917,0.28803917 0 0 0 -0.288353,0.287832 0.28803917,0.28803917 0 0 0 0.288353,0.287832 0.28803917,0.28803917 0 0 0 0.28784,-0.287832 0.28803917,0.28803917 0 0 0 -0.28784,-0.287832 z m 3.125393,0 a 0.28803917,0.28803917 0 0 0 -0.288356,0.287832 0.28803917,0.28803917 0 0 0 0.288356,0.287832 0.28803917,0.28803917 0 0 0 0.287838,-0.287832 0.28803917,0.28803917 0 0 0 -0.287838,-0.287832 z"
       style="opacity:1;fill:#e34f51;fill-opacity:1;stroke:none;stroke-width:0.02645833;stroke-linecap:round;stroke-linejoin:round;stroke-miterlimit:4;stroke-dasharray:none;stroke-dashoffset:0;stroke-opacity:1" />
  </g>
</svg>
