<svg xmlns="http://www.w3.org/2000/svg" xmlns:xlink="http://www.w3.org/1999/xlink" width="373.013" height="244.799"><style><![CDATA[.B{filter:url(#O)}.C{color-interpolation-filters:sRGB}.D{fill:#b796f1}.E{opacity:.465}.F{stroke-linejoin:round}]]></style><defs><linearGradient id="A" xlink:href="#p"><stop offset="0" stop-color="#05273c"/><stop offset="1" stop-color="#1c63b5"/></linearGradient><linearGradient id="B" xlink:href="#p"><stop offset="0" stop-color="#0aa7dc"/><stop offset="1" stop-color="#041525"/></linearGradient><linearGradient id="C" xlink:href="#p"><stop offset="0" stop-color="#0d274c"/><stop offset="1" stop-color="#046fc5"/></linearGradient><linearGradient id="D" xlink:href="#p"><stop offset="0" stop-color="#0d274c"/><stop offset="1" stop-color="#046fc5"/></linearGradient><linearGradient id="E" x1="888.972" y1="-1030.232" x2="888.924" y2="-1020.994" xlink:href="#p"><stop offset="0" stop-color="#333"/><stop offset=".7" stop-color="#fff"/><stop offset="1" stop-color="#333"/></linearGradient><linearGradient id="F" x1="508.816" y1="1103.928" x2="508.431" y2="1107.268" xlink:href="#p"><stop offset="0" stop-color="#6746c4"/><stop offset="1" stop-color="#876dd0"/></linearGradient><linearGradient id="G" x1="511.13" y1="1102.895" x2="510.725" y2="1108.132" xlink:href="#p"><stop offset="0" stop-color="#443393"/><stop offset="1" stop-color="#5a23b0"/></linearGradient><linearGradient id="H" x1="511.13" y1="1102.895" x2="510.725" y2="1108.132" xlink:href="#p"><stop offset="0" stop-color="#5d48bf"/><stop offset="1" stop-color="#5d32a1"/></linearGradient><linearGradient id="I" x1="508.816" y1="1103.928" x2="508.431" y2="1107.268" xlink:href="#p"><stop offset="0" stop-color="#876dd0"/><stop offset="1" stop-color="#876dd0" stop-opacity=".984"/></linearGradient><filter id="J" x="-.12" width="1.24" y="-.281" height="1.562" class="C"><feGaussianBlur stdDeviation=".399"/></filter><linearGradient xlink:href="#D" id="K" x1="-1353.96" y1="742.697" x2="-1349.794" y2="746.077"/><linearGradient xlink:href="#C" id="L" x1="687.79" y1="1581.894" x2="687.012" y2="1581.894"/><linearGradient xlink:href="#C" id="M" x1="687.79" y1="1581.894" x2="687.012" y2="1581.894"/><linearGradient xlink:href="#D" id="N" x1="-1353.96" y1="742.697" x2="-1349.794" y2="746.077"/><filter id="O" x="-.144" width="1.289" y="-.239" height="1.478" class="C"><feGaussianBlur stdDeviation=".361"/></filter><filter id="P" x="-.252" width="1.505" y="-.408" height="1.817" class="C"><feGaussianBlur stdDeviation=".112"/></filter><linearGradient id="Q" x1="569.064" y1="1051.321" x2="586.266" y2="1051.321" xlink:href="#p"><stop offset="0" stop-color="#6140cb"/><stop offset="1" stop-color="#572e8c"/></linearGradient><linearGradient id="R" x1="569.062" y1="1056.597" x2="586.293" y2="1056.597" xlink:href="#p"><stop offset="0" stop-color="#785fc7"/><stop offset="1" stop-color="#703db3"/></linearGradient><linearGradient id="S" x1="569.062" y1="1049.238" x2="586.293" y2="1049.238" xlink:href="#p"><stop offset="0" stop-color="#7657cd"/><stop offset="1" stop-color="#713eb4"/></linearGradient><linearGradient id="T" x1="577.797" y1="1044.673" x2="577.248" y2="1049.95" xlink:href="#p"><stop offset="0" stop-color="#7657cd"/><stop offset="1" stop-color="#713eb4" stop-opacity=".125"/></linearGradient><linearGradient id="U" x1="578.04" y1="1045.769" x2="577.178" y2="1045.769" xlink:href="#p"><stop offset="0" stop-color="#7a4ec4"/><stop offset="1" stop-color="#b095dc" stop-opacity=".968"/></linearGradient><filter id="V" x="-.497" width="1.994" y="-.039" height="1.078" class="C"><feGaussianBlur stdDeviation=".179"/></filter><linearGradient id="W" x1="578.063" y1="1042.127" x2="577.969" y2="1066.926" xlink:href="#p"><stop offset="0" stop-color="#c0b2e4"/><stop offset=".49" stop-color="#a78dd8"/><stop offset="1" stop-color="#9c7cd3" stop-opacity="0"/></linearGradient><linearGradient id="X" x1="-591.218" y1="-778.048" x2="-588.962" y2="-786.542" xlink:href="#p"><stop offset="0" stop-color="#0f2242"/><stop offset="1" stop-color="#005097"/></linearGradient><linearGradient id="Y" x1="-591.272" y1="-787.836" x2="-586.43" y2="-779.916" xlink:href="#p"><stop offset="0" stop-color="#016fbe"/><stop offset="1" stop-color="#041525"/></linearGradient><filter id="Z" x="-.151" width="1.301" y="-.107" height="1.215" class="C"><feGaussianBlur stdDeviation=".517"/></filter><filter id="a" x="-.154" width="1.308" y="-.255" height="1.509" class="C"><feGaussianBlur stdDeviation="1.444"/></filter><linearGradient xlink:href="#B" id="b" x1="517.184" y1="1061.373" x2="516.702" y2="1063.025"/><linearGradient xlink:href="#A" id="c" x1="515.424" y1="1062.638" x2="516.272" y2="1061.056"/><linearGradient xlink:href="#A" id="d" x1="515.424" y1="1062.638" x2="516.272" y2="1061.056"/><linearGradient xlink:href="#B" id="e" x1="517.184" y1="1061.373" x2="516.702" y2="1063.025"/><radialGradient id="f" cx="557.34" cy="-1065.171" fx="557.34" fy="-1065.171" r="5.441" gradientTransform="matrix(1.3707274,-3.1927066e-6,3.1713334e-6,1.3615512,-186.43196,387.96795)" xlink:href="#p"><stop offset="0" stop-color="#0aa7dc"/><stop offset=".649" stop-color="#fff"/><stop offset="1" stop-color="#4d4d4d" stop-opacity="0"/></radialGradient><filter id="g" x="-.112" width="1.225" y="-.053" height="1.106" class="C"><feGaussianBlur stdDeviation="2.637"/></filter><radialGradient id="h" cx="398.479" cy="-1035.594" fx="398.479" fy="-1035.594" r="25.31" gradientTransform="matrix(1.8112987,-0.01481597,-0.0014438,-0.18674011,-324.82766,859.68941)" xlink:href="#p"><stop offset="0" stop-color="#fff"/><stop offset=".439" stop-color="#d7d7d7"/><stop offset="1"/></radialGradient><linearGradient id="i" x1="192.196" y1="-1035.594" x2="568.794" y2="-1035.594" xlink:href="#p"><stop offset="0" stop-color="gray"/><stop offset=".517" stop-color="#eaeaea"/><stop offset="1" stop-color="#b9b9b9"/></linearGradient><linearGradient id="j" x1="401.294" y1="-1035.048" x2="401.289" y2="-1030.361" xlink:href="#p"><stop offset="0" stop-color="#898989"/><stop offset="1" stop-color="#ccc"/></linearGradient><filter id="k" x="-.076" width="1.152" y="-1.352" height="3.705" class="C"><feGaussianBlur stdDeviation="6.873"/></filter><linearGradient id="l" x1="789.381" y1="-1046.64" x2="789.381" y2="-1005.593" xlink:href="#p"><stop offset="0" stop-color="#4d4d4d"/><stop offset="1" stop-color="#4d4d4d" stop-opacity="0"/></linearGradient><path id="m" d="M593.282 1090.77l-3.038 1.883 2.96 1.745 3.037-1.82z"/><path id="n" d="M691.344 1577.172l-8.184.053.004 3.9c-.001.01-.001.022 0 .033.007.075.052.152.148.21l3.648 2.18c.206.123.535.12.74 0l3.492-2.127c.123-.075.16-.176.137-.272h.01z"/><path id="o" d="M586.116 1048.997l-8.048-5.09c-.232-.147-.63-.156-.857 0l-7.975 5.356c-.23.154-.233.35-.002.5l7.434 4.81c.23.15.62.143.857 0l8.6-5.078c.238-.137.238-.358.002-.5z"/><linearGradient id="p" gradientUnits="userSpaceOnUse"/></defs><g transform="matrix(1.333333 0 0 -1.333333 -857.39438 1574.8942)"><rect width="216.375" height="145.045" x="667.606" y="-1181.171" transform="scale(1 -1)" ry="6.099" fill="#f4f4f4"/><path d="M675.703 1174.276h199.792v-133.378H675.703z" opacity=".43" fill="#fff"/><path d="M675.366 1174.276H875.83V1043.55l-36.725 23.865-45.74-25.986h-66.92l-51.08 29.18z" fill="url(#Bw)"/><g transform="translate(377.876 -2.928)"><g transform="matrix(1 0 0 -1 -5.25 10.875)"><path d="M270.42-1036.476h265.495v1.763H270.42z" fill="url(#i)"/><path d="M270.42-1034.752h265.495v1.763c0 11.64-265.495 9.625-265.495 0z" fill="url(#j)"/></g><path d="M373.826 1048.054h49.213v-1.763c-16.347-.82-32.744-.928-49.213 0z" fill="url(#h)"/></g><rect width="216.905" height="12.198" x="675.703" y="-1040.898" transform="matrix(.977762 0 0 -1.343678 11.222712 -362.50649)" ry="6.099" opacity=".685" fill="url(#l)" filter="url(#k)"/><path transform="matrix(1 0 0 -1 305.16456 -5.638848)" d="M567.537-1142.064c-3.712 3.447 35.514-1.856 35.514-1.856a8.24 8.24 0 0 1 8.259 8.259v103.04a8.24 8.24 0 0 1-8.259 8.259h-39.757c-4.575 0-8.45-3.687-8.26-8.26l4.243-101.183c.192-4.57 11.612-11.372 8.26-8.26z" fill="#b3b3b3" filter="url(#g)"/><g transform="scale(1 -1)"><rect ry="8.259" y="-1138.282" x="860.2" height="119.557" width="56.275" fill="#f1f1f1"/><g fill="#040404"><circle r=".763" cy="-1135.355" cx="888.835"/><circle cx="879.469" cy="-1131.432" r="1.082"/><rect ry=".507" y="-1131.958" x="884.365" height="1.014" width="9.141"/></g><ellipse ry="4.351" rx="4.339" cy="-1025.746" cx="888.842" fill="#fff" fill-opacity=".6" stroke="url(#E)" stroke-width=".352" class="F"/></g><path d="M862.574 1124.9h52.388v-92.648h-52.388z" fill="#fefefe"/><g transform="translate(300.673 .011)"><g fill="#0d274c" class="B"><use xlink:href="#m"/><use xlink:href="#m" x="5.156" y="3.235"/><use xlink:href="#m" x="-0.375" y="6.61"/><use xlink:href="#m" x="-5.682" y="3.657"/><use xlink:href="#m" x="-11.297" y="0.282"/><use xlink:href="#m" x="-16.312" y="3.563"/><use xlink:href="#m" x="-11.109" y="6.61"/><use xlink:href="#m" x="-5.906" y="9.845"/><use xlink:href="#m" x="-4.969" y="-2.765"/></g><g transform="translate(65.063 12.516)"><g transform="translate(6.937 8.367)"><use xlink:href="#n" transform="matrix(.75 0 0 -.75 0 2268.0001)" fill="url(#M)"/><rect width="3.716" height="3.836" x="-1353.509" y="742.241" transform="matrix(-.853937 -.520376 -.858399 .512982 0 0)" ry=".325" fill="url(#N)"/></g><g class="D"><rect ry=".307" transform="matrix(.865413 -.501059 -.501059 -.865413 0 0)" y="-1205.358" x="-96.757" height=".613" width="1.806"/><rect width="1.806" height=".613" x="-1023.388" y="-647.547" transform="rotate(212.011)" ry=".307"/></g></g><g transform="translate(70.594 9.141)"><g transform="translate(6.937 8.367)"><use xlink:href="#n" transform="matrix(.75 0 0 -.75 0 2268.0001)" fill="url(#M)"/><rect ry=".325" transform="matrix(-.853937 -.520376 -.858399 .512982 0 0)" y="742.241" x="-1353.509" height="3.836" width="3.716" fill="url(#N)"/></g><g class="D"><rect width="1.806" height=".613" x="-96.757" y="-1205.358" transform="matrix(.865413 -.501059 -.501059 -.865413 0 0)" ry=".307"/><rect ry=".307" transform="rotate(212.011)" y="-647.547" x="-1023.388" height=".613" width="1.806"/></g></g><g transform="translate(65.25 6.187)"><g transform="translate(6.937 8.367)"><use xlink:href="#n" transform="matrix(.75 0 0 -.75 0 2268.0001)" fill="url(#M)"/><rect ry=".325" transform="matrix(-.853937 -.520376 -.858399 .512982 0 0)" y="742.241" x="-1353.509" height="3.836" width="3.716" fill="url(#N)"/></g><g class="D"><rect width="1.806" height=".613" x="-96.757" y="-1205.358" transform="matrix(.865413 -.501059 -.501059 -.865413 0 0)" ry=".307"/><rect ry=".307" transform="rotate(212.011)" y="-647.547" x="-1023.388" height=".613" width="1.806"/></g></g><g transform="translate(59.672 9.234)"><g transform="translate(6.937 8.367)"><use xlink:href="#n" transform="matrix(.75 0 0 -.75 0 2268.0001)" fill="url(#M)"/><rect ry=".325" transform="matrix(-.853937 -.520376 -.858399 .512982 0 0)" y="742.241" x="-1353.509" height="3.836" width="3.716" fill="url(#N)"/></g><g class="D"><rect width="1.806" height=".613" x="-96.757" y="-1205.358" transform="matrix(.865413 -.501059 -.501059 -.865413 0 0)" ry=".307"/><rect ry=".307" transform="rotate(212.011)" y="-647.547" x="-1023.388" height=".613" width="1.806"/></g></g><g transform="translate(54.516 6.094)"><g transform="translate(6.937 8.367)"><use xlink:href="#n" transform="matrix(.75 0 0 -.75 0 2268.0001)" fill="url(#M)"/><rect ry=".325" transform="matrix(-.853937 -.520376 -.858399 .512982 0 0)" y="742.241" x="-1353.509" height="3.836" width="3.716" fill="url(#N)"/></g><rect ry=".307" transform="rotate(212.011)" y="-647.547" x="-1023.388" height=".613" width="1.806" class="D"/></g><g transform="translate(59.766 2.672)"><g transform="translate(6.937 8.367)"><use xlink:href="#n" transform="matrix(.75 0 0 -.75 0 2268.0001)" fill="url(#M)"/><rect ry=".325" transform="matrix(-.853937 -.520376 -.858399 .512982 0 0)" y="742.241" x="-1353.509" height="3.836" width="3.716" fill="url(#N)"/></g><rect ry=".307" transform="rotate(212.011)" y="-647.547" x="-1023.388" height=".613" width="1.806" class="D"/></g><g transform="translate(76.125 5.813)"><g transform="translate(6.937 8.367)"><use xlink:href="#n" transform="matrix(.75 0 0 -.75 0 2268.0001)" fill="url(#L)"/><rect width="3.716" height="3.836" x="-1353.509" y="742.241" transform="matrix(-.853937 -.520376 -.858399 .512982 0 0)" ry=".325" fill="url(#K)"/></g><rect ry=".307" transform="matrix(.865413 -.501059 -.501059 -.865413 0 0)" y="-1205.358" x="-96.757" height=".613" width="1.806" class="D"/></g><g transform="translate(70.875 2.484)"><g transform="translate(6.937 8.367)"><use xlink:href="#n" transform="matrix(.75 0 0 -.75 0 2268.0001)" fill="url(#M)"/><rect ry=".325" transform="matrix(-.853937 -.520376 -.858399 .512982 0 0)" y="742.241" x="-1353.509" height="3.836" width="3.716" fill="url(#N)"/></g><rect width="1.806" height=".613" x="-96.757" y="-1205.358" transform="matrix(.865413 -.501059 -.501059 -.865413 0 0)" ry=".307" class="D"/></g><g transform="translate(72.83 8.096)"><use xlink:href="#n" transform="matrix(.75 0 0 -.75 0 2268.0001)" fill="url(#M)"/><rect ry=".325" transform="matrix(-.853937 -.520376 -.858399 .512982 0 0)" y="742.241" x="-1353.509" height="3.836" width="3.716" fill="url(#N)"/></g><ellipse cx="587.667" cy="-1100.405" transform="matrix(1.917502 0 0 -1.917502 -539.18574 -1009.6233)" rx=".535" ry=".33" fill="#0d274c" filter="url(#P)"/><g transform="translate(48.656 3.563)"><g transform="matrix(1.000069 0 0 -.966622 29.18968 2171.5111)"><path d="M509.79 1101.303l5.162 3.49-5.143 6.813z" fill="url(#H)"/><path d="M509.827 1101.303l-5.162 3.49 5.143 6.813z" fill="url(#I)"/></g><path d="M533.9 1103.593l5.125-2.895 5.162 2.895-5.125 3.375z" fill="#ae96ea"/><path transform="matrix(.996043 0 0 1.037399 20.978131 -41.041606)" d="M516.165 1103.663l3.992-2.305 4.01 2.315-4.095 1.097z" fill="#041a37" filter="url(#J)"/><g transform="translate(29.225 .338)"><path d="M509.79 1101.303l5.185 2.694-5.166 7.6z" fill="url(#G)"/><path d="M509.827 1101.303l-5.115 2.93 5.096 7.376z" fill="url(#F)"/></g></g></g><g transform="matrix(1.05758 0 0 .995968 276.86026 .310117)"><path d="M578.334 1037.68l-11.397 7.063 11.103 6.547 11.394-6.833z" opacity=".43" fill="#4d4d4d" filter="url(#a)"/><path d="M569.064 1056.71l8.03 5.332c.875.017 9.17-5.332 9.17-5.332l.02-10.975-8.62-5.37-8.6 5.57z" fill="url(#Q)"/><path d="M577.094 1051.136a.79.79 0 0 1-.426-.11l-7.434-4.81c-.23-.15-.23-.344.001-.498l7.976-5.357c.227-.156.625-.147.857 0l8.048 5.09c.236.14.237.362-.001.5l-8.6 5.077c-.118.072-.275.11-.43.1z" fill="url(#T)"/><path d="M577.248 1049.95c.107-.001.214-.027.296-.076l6.167-3.725c.164-.1.16-.25-.001-.356l-5.893-3.814c-.16-.104-.432-.106-.6 0l-5.86 3.907c.046-.186-.16.25 0 .354l5.587 3.634c.08.052.187.077.294.076z" fill="#9c7bd3"/><use xlink:href="#o" fill="url(#S)" class="E"/><path d="M577.356 1056.976c-.107 0-6.085-.036-6.085-.036l.015-5.853v-5.004l5.883-3.907c.16-.106.43-.105.6 0l5.893 3.814.002 4.068.03 6.84c-.082.05-6.22.075-6.328.076z" fill="#9c7cd3" fill-opacity=".553"/><use xlink:href="#o" y="3.713" fill="url(#S)" class="E"/><path d="M577.094 1062.04c-.147 0-.31-.035-.426-.1l-7.418-5.076c-.23-.15-.23-.344.001-.498l7.96-5.092c.227-.156.625-.147.857 0l8.048 5.09c.236.14.237.362-.001.5l-8.6 5.077c-.118.072-.283.1-.43.1z" fill="url(#R)" class="E"/><g fill="#fff"><path d="M577.248 1060.788c.107-.001.214-.027.296-.076l6.167-3.725c.164-.1.16-.25-.001-.356l-5.893-3.748c-.16-.104-.432-.106-.6 0l-5.86 3.84c-.16.105-.16.25 0 .354l5.587 3.634c.08.052.187.077.294.076z" opacity=".524"/><path d="M577.248 1059.13a.72.72 0 0 0 .296-.06l4.974-2.894c.164-.078.16-.197-.001-.28l-4.7-3.03c-.16-.082-.432-.083-.6 0l-4.666 3.137c.046-.146-.16.13 0 .212l4.394 2.856c.08.04.187.06.294.06z" opacity=".364"/></g><path d="M578.04 1051.29c-.34-.315-.606-.205-.862-.035l.018-10.9c.207-.144.62-.122.842.03z" fill="url(#U)" filter="url(#V)"/><path d="M571.27 1056.873l.025 13.752h12.463v-13.97c-.376-.217-.804-.703-1.104-.53l-4.865 2.817c-.238.145-.443.2-.6.2-.205.014-.72-.35-1.013-.545l-3.79-2.506s-1.365.773-1.115.84z" opacity=".678" fill="url(#W)"/><g transform="translate(23.743 12.272)"><ellipse cx="-589.635" cy="-782.898" transform="matrix(-.99677 -.455312 0 -1.032153 -27.686751 -43.752517)" rx="4.118" ry="4.936" opacity=".28" filter="url(#Z)"/><g transform="translate(32.602 -12.127)"><ellipse cx="-589.243" cy="-783.914" transform="matrix(-.897444 -.441129 0 -1 0 0)" rx="4.118" ry="4.936" fill="url(#Y)"/><path d="M530.69 1049.027l.92-.334-1.406-.55c-.07-.058.486.885.486.885z" fill="#016fbe"/><path d="M526.673 1038.773c.345-.144.696-.277 1.064-.382l.38 1.052z" fill="#04182a"/><ellipse ry="4.936" rx="4.118" transform="matrix(-.897444 -.441129 0 -1 0 0)" cy="-783.262" cx="-590.103" fill="url(#X)"/><g fill="#a0b6ef"><path d="M529.45 1045.59h.492v-2.672h-.492z"/><path d="M532.163 1043.022l-.07-.487-2.644.382.07.487z"/></g></g></g><g transform="translate(0 -.895)"><circle transform="scale(1 -1)" r="5.254" cy="-1062.366" cx="577.502" opacity=".43" fill="url(#f)" stroke="#fff" stroke-width=".375" class="F"/><g transform="matrix(1.181421 -.212855 .347064 1.240951 -400.47235 -143.75184)"><g transform="rotate(11.42 516.26 1060.482)"><path d="M516.27 1060.53l.518 2.62-1.633-.548z" fill="url(#c)"/><path d="M516.27 1060.53l.518 2.62 1.31-1.09z" fill="url(#b)"/></g><g transform="rotate(191.42 516.26 1060.482)"><path d="M516.27 1060.53l.518 2.62-1.633-.548z" fill="url(#d)"/><path d="M516.27 1060.53l.518 2.62 1.31-1.09z" fill="url(#e)"/></g></g></g></g></g></svg>