<svg xmlns="http://www.w3.org/2000/svg" xmlns:xlink="http://www.w3.org/1999/xlink" width="302.933" height="245.6"><style><![CDATA[.B{fill:#fff}.C{fill:#1c1a32}.D{fill:#ffd13b}.E{fill:#f4f1fc}.F{fill:#4d4d4d}.G{fill:#221d7b}.H{fill:#bcc0e3}.I{fill:#305089}.J{fill:#f8f7f2}.K{stroke-linejoin:round}.L{stroke-linecap:round}]]></style><defs><linearGradient id="A" xlink:href="#AY"><stop offset="0" stop-color="#d5dcf8"/><stop offset="1" stop-color="#d5dcf8" stop-opacity="0"/></linearGradient><linearGradient id="B" xlink:href="#AY"><stop offset="0" stop-color="#bfc4ec"/><stop offset="1" stop-color="#bfc4ec" stop-opacity="0"/></linearGradient><linearGradient id="C" xlink:href="#AY"><stop offset="0" stop-color="#463faf"/><stop offset="1" stop-color="#221d7b"/></linearGradient><linearGradient id="D" xlink:href="#AY"><stop offset="0" stop-color="#fff"/><stop offset="1" stop-color="#fff" stop-opacity="0"/></linearGradient><linearGradient id="E" xlink:href="#AY"><stop offset="0" stop-color="#a3aad4"/><stop offset="1" stop-color="#bcc1e9"/></linearGradient><linearGradient id="F" xlink:href="#AY"><stop offset="0" stop-color="#4d4abd"/><stop offset="1" stop-color="#11124a"/></linearGradient><linearGradient id="G" xlink:href="#AY"><stop offset="0" stop-color="#cfd8f7"/><stop offset="1" stop-color="#e7e8fa"/></linearGradient><linearGradient id="H" xlink:href="#AY"><stop offset="0" stop-color="#dcddef"/><stop offset="1" stop-color="#dcddef" stop-opacity="0"/></linearGradient><linearGradient id="I" xlink:href="#AY"><stop offset="0" stop-color="#bcc1e9"/><stop offset="1" stop-color="#cfd5f7"/></linearGradient><linearGradient id="J" xlink:href="#AY"><stop offset="0" stop-color="#f4ecff"/><stop offset="1" stop-color="#cfd3ff"/></linearGradient><linearGradient id="K" xlink:href="#AY"><stop offset="0" stop-color="#434592"/><stop offset="1" stop-color="#5b54c8"/></linearGradient><linearGradient id="L" xlink:href="#AY"><stop offset="0" stop-color="#e0e6f6"/><stop offset="1" stop-color="#d0d3fc"/></linearGradient><linearGradient xlink:href="#L" id="M" x1="266.947" y1="1655.679" x2="266.965" y2="1655.649"/><linearGradient xlink:href="#L" id="N" x1="294.047" y1="1671.453" x2="294.067" y2="1671.423"/><linearGradient xlink:href="#L" id="O" x1="267.915" y1="1671.122" x2="267.895" y2="1671.091"/><linearGradient xlink:href="#L" id="P" x1="294.902" y1="1655.726" x2="294.884" y2="1655.696"/><radialGradient id="Q" cx="278.254" cy="-1653.888" fx="278.254" fy="-1653.888" r="1.376" gradientTransform="matrix(0.8911365,0,0,0.84831827,30.312113,-250.87761)" xlink:href="#AY"><stop offset="0" stop-color="#423b67"/><stop offset="1" stop-color="#423bab" stop-opacity="0"/></radialGradient><linearGradient xlink:href="#K" id="R" x1="259.968" y1="1655.657" x2="259.986" y2="1650.553"/><linearGradient xlink:href="#K" id="S" x1="259.968" y1="1655.657" x2="259.986" y2="1650.553"/><linearGradient xlink:href="#K" id="T" x1="259.969" y1="1655.657" x2="259.988" y2="1650.553"/><linearGradient xlink:href="#K" id="U" x1="301.934" y1="1655.028" x2="301.952" y2="1649.923"/><linearGradient xlink:href="#J" id="V" x1="243.835" y1="1613.967" x2="243.853" y2="1613.934"/><linearGradient id="W" x1="215.612" y1="1624.283" x2="215.612" y2="1624.2" xlink:href="#AY"><stop offset="0" stop-color="#635ad1"/><stop offset="1" stop-color="#635a93"/></linearGradient><linearGradient xlink:href="#I" id="X" x1="-18.52" y1="1630.778" x2="-18.466" y2="1630.778"/><linearGradient xlink:href="#H" id="Y" x1="-18.49" y1="1629.879" x2="-27.234" y2="1629.51"/><linearGradient id="Z" x1="243.314" y1="1598.858" x2="271.814" y2="1584.608" xlink:href="#AY"><stop offset="0" stop-color="#807cf7"/><stop offset="1" stop-color="#cdd0f9"/></linearGradient><linearGradient id="a" x1="149.883" y1="1615.904" x2="121.383" y2="1601.386" xlink:href="#AY"><stop offset="0" stop-color="#807cf7"/><stop offset="1" stop-color="#f7cf47"/></linearGradient><linearGradient id="b" x1="46.151" y1="1577.047" x2="50.999" y2="1576.938" xlink:href="#AY"><stop offset="0" stop-color="#bcc1e7"/><stop offset="1" stop-color="#d0d4f7"/></linearGradient><linearGradient xlink:href="#F" id="c" x1="-73.023" y1="1555.772" x2="-55.321" y2="1550.999"/><linearGradient xlink:href="#F" id="d" x1="-44.196" y1="1581.07" x2="-41.903" y2="1550.058"/><linearGradient xlink:href="#F" id="e" x1="6.863" y1="1613.382" x2="9.156" y2="1582.37"/><linearGradient xlink:href="#G" id="f" x1="-61.37" y1="1547.949" x2="-59.919" y2="1544.017"/><linearGradient xlink:href="#E" id="g" x1="-79.309" y1="-1512.155" x2="-80.13" y2="-1502.103"/><linearGradient xlink:href="#D" id="h" x1="400.909" y1="-1721.265" x2="395.872" y2="-1738.006"/><linearGradient xlink:href="#C" id="i" x1="79.431" y1="1581.847" x2="90.068" y2="1562.816"/><linearGradient xlink:href="#C" id="j" x1="79.431" y1="1581.847" x2="90.068" y2="1562.816"/><linearGradient xlink:href="#B" id="k" x1="-58.476" y1="1561.795" x2="-77.731" y2="1563.081"/><linearGradient xlink:href="#E" id="l" x1="-79.309" y1="-1512.155" x2="-80.13" y2="-1502.103"/><linearGradient xlink:href="#F" id="m" x1="-44.196" y1="1581.071" x2="-41.903" y2="1550.059"/><linearGradient xlink:href="#G" id="n" x1="10.583" y1="1609.231" x2="7.656" y2="1614.932"/><linearGradient xlink:href="#J" id="o" x1="244.156" y1="1613.41" x2="244.203" y2="1613.328"/><linearGradient xlink:href="#F" id="p" x1="-73.023" y1="1555.772" x2="-55.321" y2="1550.999"/><linearGradient xlink:href="#D" id="q" x1="400.909" y1="-1721.265" x2="395.872" y2="-1738.006"/><linearGradient xlink:href="#B" id="r" x1="-56.081" y1="1571.69" x2="-75.335" y2="1572.977"/><linearGradient id="s" x1="22.491" y1="1630.974" x2="29.498" y2="1636.881" xlink:href="#AY"><stop offset="0" stop-color="#bfc4ec"/><stop offset="1" stop-color="#f7f8fc"/></linearGradient><linearGradient id="t" x1="49.315" y1="-1643.066" x2="49.498" y2="-1643.066" xlink:href="#AY"><stop offset="0" stop-color="#9d99d4"/><stop offset="1" stop-color="#bbb6f8"/></linearGradient><radialGradient id="u" gradientTransform="matrix(1.5566083,0,0,1,-25.995134,0)" cx="46.516" cy="-1645.342" fx="46.516" fy="-1645.342" r=".878" xlink:href="#AY"><stop offset="0" stop-color="#cd794d"/><stop offset="1" stop-color="#cd794d" stop-opacity="0"/></radialGradient><linearGradient id="v" x1="87.141" y1="1605.049" x2="95.518" y2="1614.032" xlink:href="#AY"><stop offset="0" stop-color="#1f1a6a"/><stop offset="1" stop-color="#4642b3"/></linearGradient><linearGradient id="w" x1="86.905" y1="1603.456" x2="96.35" y2="1615.057" xlink:href="#AY"><stop offset="0" stop-color="#f4f5fa"/><stop offset="1" stop-color="#bcc2e6"/></linearGradient><linearGradient id="x" x1="103.816" y1="90.432" x2="116.898" y2="75.539" xlink:href="#AY"><stop offset="0" stop-color="#bec2e7"/><stop offset="1" stop-color="#f5f5ff"/></linearGradient><linearGradient xlink:href="#I" id="y" x1="32.908" y1="1525.851" x2="33.188" y2="1525.857"/><linearGradient xlink:href="#H" id="z" x1="-9.773" y1="1534.326" x2="-32.77" y2="1532.508"/><linearGradient xlink:href="#I" id="AA" x1="33.157" y1="1525.851" x2="33.422" y2="1525.851"/><linearGradient xlink:href="#I" id="AB" x1="-18.52" y1="1630.778" x2="-18.466" y2="1630.778"/><linearGradient id="AC" x1="65.376" y1="1705.569" x2="46.886" y2="1704.997" xlink:href="#AY"><stop offset="0" stop-color="#dcddef" stop-opacity=".904"/><stop offset="1" stop-color="#dcddef" stop-opacity="0"/></linearGradient><linearGradient xlink:href="#H" id="AD" x1="67.038" y1="1698.173" x2="48.582" y2="1697.905"/><linearGradient id="AE" x1="895.368" y1="1643.064" x2="905.742" y2="1635.308" xlink:href="#AY"><stop offset="0" stop-color="#b3b3ef"/><stop offset="1" stop-color="#403baf"/></linearGradient><linearGradient id="AF" x1="896.967" y1="-1643.224" x2="893.543" y2="-1645.379" xlink:href="#AY"><stop offset="0" stop-color="#a8a8e9"/><stop offset="1" stop-color="#c2c8fc"/></linearGradient><linearGradient id="AG" x1="1021.045" y1="1729.991" x2="1021.112" y2="1729.845" xlink:href="#AY"><stop offset="0" stop-color="#5452cf"/><stop offset="1" stop-color="#4039a9"/></linearGradient><linearGradient id="AH" x1="1068.708" y1="1696.543" x2="946.467" y2="1750.275" xlink:href="#AY"><stop offset="0" stop-color="#e2e6f2"/><stop offset="1" stop-color="#fefefe"/></linearGradient><linearGradient xlink:href="#H" id="AI" x1="-18.49" y1="1629.879" x2="-27.234" y2="1629.51"/><linearGradient xlink:href="#A" id="AJ" x1="171.508" y1="1825.59" x2="154.811" y2="1853.299"/><linearGradient xlink:href="#A" id="AK" x1="171.508" y1="1825.589" x2="154.81" y2="1853.299"/><path id="AL" d="M170.72 1831.387c-6.166-3.535-44.767 3.7-20.418 6.497-15.32 8.003-16.047 14.63-8.883 17.368 5.858 2.24 17.412-.84 26.12-4.508z"/><path id="AM" d="M-13.734 1635.024v-5.766l-4.72-2.725-4.834 2.79-.01 5.676 4.828-3.023z"/><path id="AN" d="M-9.808 1526.452l-9.1-.133-14.713 7.86 24.372 13.842z"/><path id="AO" d="M-24.704 1539.283l15.444 8.74L4.36 1540l-14.218-9.047z"/><path id="AP" d="M47.172 1536.858l-.043-5.275-14.125-8.284-14.722 7.906-.174 4.926 14.845-8.32z"/><path id="AQ" d="M259.96 1657.388c-2.377.035-2.205-.425-2.212-.73.001-.028 1.553-6.437 1.553-6.437h.006c.036-.168.365-.297.758-.297s.72.13.758.297h.018l1.33 6.49c-.026.26.506.635-2.2.676z"/><path id="AR" d="M238.97 1671.14l12.117-7.945c.427.53.64 1.705-.586 2.11-3.763 1.243-7.276 2.463-10.664 3.422-1.274.36-1.44 1.61-.867 2.414z"/><path id="AS" d="M-18.505 1626.563h-7.478l-1.252 2.948.533 3.333 8.233.023z"/><path id="AT" d="M-23.297 1635l4.875 2.742 4.688-2.72-4.734-3.047z"/><path id="AU" d="M71.18 1581.665l6.913 3.724c4.866-.4 7.295-4.73 7.802-5.512.597-.92 3.264-6.72.682-9.436-.89-.935-5.57-4.886-6.893-4.98z"/><path id="AV" d="M-61.62 1555.447l-10.753-4.28 5.282-11.882 10.6 5.27.004.03c.945.285 1.558 1.227 1.558 2.672v2.668c0 2.423-2.627 5.033-3.724 5.502-.533.288-.85.44-1.462.472s-1.025-.214-1.504-.45z"/><path id="AW" d="M-70.648 1563.518s-1.613-1.484-1.922-2.484c-.62-2.004-.588-4.418.375-6.28 1.545-2.992 4.662-5.32 7.875-6.328 1.972-.62 4.123.535 6.187.422 1.062-.058 2.74-1.548 3.14-.562.347.856-2.297 1.547-2.297 1.547-.475.17-.255.425-.234.656.064.722 1.188 1.193 1.078 1.887-.062.395-.378.59-.668.563-.487-.05-.914-1.148-.914-1.148l-.95-.26c-1.147-.6-2.91-.33-4.406-.29-3.8 1.188-5.316 3.482-6.234 5.063 0 0-.668 1.866-.422 2.766.176.643 1.063 1.363 1.266 1.547.778.705-.934 3.577-1.875 2.906z"/><path id="AX" d="M-41.093 1561.468c-.428-.068-.4-.867-1.062-.747-.383.068-1.104-.237-1.23.157-.148.463 1.073.988 1.073.988l.4.53c2.77-.186.875-.937.83-.928z"/><linearGradient id="AY" gradientUnits="userSpaceOnUse"/></defs><g transform="matrix(1.333333 0 0 -1.333333 -178.95186 2565.133)"><use xlink:href="#AL" fill="url(#AK)"/><use xlink:href="#AL" x="39.988" y="-17.347" fill="url(#AJ)"/><g transform="translate(161.97 185.923)"><path d="M67.007 1689.795H51.225l-2.643 7.76 1.124 8.774 17.377.06z" fill="url(#AD)"/><path d="M56.892 1712.004l10.29 7.218 9.894-7.156-9.993-8.02z" class="E"/><use xlink:href="#AM" fill="url(#AB)" transform="matrix(2.11066 0 0 2.63228 106.06401 -2591.7734)"/><g transform="matrix(1.065402 -.043907 .048437 1.175322 -13.927239 -112.57893)"><use xlink:href="#AN" fill="url(#z)"/><use xlink:href="#AO" class="E"/><use xlink:href="#AP" fill="url(#y)" transform="translate(-42.812 3.152)"/></g><path d="M65.312 1697.238H49.53l-2.643 7.76 4.304 2.256 9.09-6.41z" fill="url(#AC)"/><path d="M69.513 1716.236c.23-1.685-2.77-4.824-2.77-4.824s-3.724 5.256-3.362 7.192c.267 1.43 2.292 2.113 3.9 1.354s2.23-2.267 2.23-3.722z" fill="#eead09"/><ellipse ry="1.656" rx="1.816" transform="matrix(.872002 -.489503 0 -1 -21.545 62.314)" cy="-1704.042" cx="100.944" class="B"/></g><g transform="translate(53.25 240)"><g transform="translate(42.455 20.106)"><path d="M226.418 1617.606l12.065-6.86 12.065 7.16-12.164 7.126z" fill="#f5d147"/><path d="M226.418 1617.606v-4.94l12.045-6.954.02 5.03z" fill="#d28d28"/><path d="M238.483 1610.745l12.065 7.16v-5.038l-12.085-7.153z" fill="#fcbc03"/><path d="M230.915 1620.42l12.005-7.048.075-1.657 2.27 1.475.017 1.566-11.86 7.218z" fill="url(#V)"/><rect width="4.241" height="1.877" x="-785.963" y="-1553.545" transform="matrix(.877021 -.480451 -.597213 -.802083 0 0)" ry=".939" class="J"/><g transform="translate(16.883 -10.054)" fill="none" stroke-width=".225" class="K L"><path d="M215.436 1631.455l6.33 13.27 7.582-14.11" stroke="url(#W)"/><path d="M215.554 1619.387l.06 4.848 6.155 20.488 5.906-20.344.123-4.805" stroke="url(#W)"/></g></g><use xlink:href="#AQ" fill="url(#T)"/><g transform="translate(-37.324 .232)"><use xlink:href="#AQ" x="39.712" y="20.385" fill="url(#S)"/><g transform="rotate(53.265 262.044 1726.604)"><use xlink:href="#AR" class="D"/><g transform="matrix(.622867 -.493173 -.392561 -.404709 -567.99389 1115.8658)"><circle r=".762" cy="-1670.043" cx="252.835" class="D"/><circle cx="252.835" cy="-1670.043" r=".481" class="F"/></g></g></g><use xlink:href="#AQ" x="39.712" y="20.385" fill="url(#R)"/><g transform="rotate(29.157 251.974 1777.703)"><use xlink:href="#AR" class="D"/><g transform="matrix(.622867 -.493173 -.392561 -.404709 -567.99389 1115.8658)"><circle cx="252.835" cy="-1670.043" r=".762" class="D"/><circle r=".481" cy="-1670.043" cx="252.835" class="F"/></g></g><path d="M301.926 1656.76c-2.377.035-2.205-.425-2.212-.73.001-.028 1.553-6.437 1.553-6.437h.006c.036-.168.365-.297.758-.297s.72.13.758.297h.018l1.33 6.49c-.026.26.506.635-2.2.675z" fill="url(#U)"/><g transform="matrix(1 0 0 -1 2.491 1.768)"><ellipse ry="1.293" rx="1.376" cy="-1653.934" cx="278.622" fill="#625ed2"/><ellipse cx="278.208" cy="-1653.934" rx="1.376" ry="1.293" fill="url(#Q)"/></g><path d="M275.105 1656.157l11.64.047 3.2 6.565-18.038-.047z" fill="#d0d3fc"/><rect ry="1.467" transform="matrix(1 0 0 -1 .315 2.685)" y="-1656.47" x="276.186" height="2.933" width="9.065" fill="#abb2e6"/><g transform="matrix(1 0 0 -1 .29 4.839)" fill="#495096"><ellipse ry=".563" rx=".605" cy="-1652.848" cx="277.968"/><ellipse cx="283.519" cy="-1652.848" rx=".605" ry=".563"/></g><path d="M290.125 1664.074l8.23 9.423c1.236-.972 1.9-.73 2.938.142l.316 1.69c-1.45-.528-2.7-.376-3.89.343-3.903-1.96-7.837-3.912-12.157-5.734z" fill="url(#N)"/><path d="M271.836 1663.743l-8.23 9.423c-1.118-.498-1.625-.242-2.808.047l-.446 1.787c1.45-.528 2.7-.376 3.89.343 3.903-1.96 7.837-3.912 12.157-5.734z" fill="url(#O)"/><path d="M275.105 1656.157l-13.52-3.588c-.554-1.505-2.794-.752-2.858-.444l-.496 2.115c-.167-.925 3.556-1.51 3.438-.124 3.392 2.713 6.788 5.458 10.236 8.606z" fill="url(#M)"/><path d="M286.744 1656.204l11.797-3.522c.408-.122 1.932-.907 1.932-.907.32-.462 2.525-.64 2.89.222l.3 1.777c-.22-.935-3.187-.897-3.483.39-3.392 2.713-6.788 5.458-10.236 8.606z" fill="url(#P)"/><g transform="matrix(.992851 0 0 -.946355 25.045799 87.770852)"><rect width="18.545" height="11.122" x="248.632" y="-1671.97" ry="1.222" class="B"/><rect ry=".89" y="-1670.461" x="251.147" height="8.105" width="13.514" fill="#6360dd"/></g><g transform="matrix(-.725181 .688558 .688558 .725181 -710.22081 279.68755)"><use xlink:href="#AR" class="D"/><g transform="matrix(.622867 -.493173 -.392561 -.404709 -567.99389 1115.8658)"><circle cx="252.835" cy="-1670.043" r=".762" class="D"/><circle r=".481" cy="-1670.043" cx="252.835" class="F"/></g></g><g transform="rotate(2.531 513.397 2951.767)"><use xlink:href="#AR" class="D"/><g transform="matrix(.622867 -.493173 -.392561 -.404709 -567.99389 1115.8658)"><circle r=".762" cy="-1670.043" cx="252.835" class="D"/><circle cx="252.835" cy="-1670.043" r=".481" class="F"/></g></g></g><g transform="translate(164.933 247.664)"><use xlink:href="#AS" fill="url(#Y)"/><use xlink:href="#AT" class="E"/><use xlink:href="#AM" fill="url(#X)"/></g><ellipse cx="-217.53" cy="-1731.445" transform="matrix(.965879 .258992 -.136089 -.990697 142.526 231.622)" rx="7.302" ry="8.635" fill="#5e5cc9"/><path d="M167.478 1898.552v-7.172l-6.563-3.562c.205 2.328.74 4.656 2.298 6.984 1.245 1.368 2.502 2.728 4.266 3.75z" class="B"/><path d="M167.478 1891.38l-6.563-3.562c.205 2.328-.057 1.54.607 3.902l5.956-.34z" fill="#f1b517"/><path d="M170.153 1899.428c-.446-.01-.908-.08-1.378-.205-3.895-1.044-7.58-5.72-8.228-10.446-.312-2.27.132-4.246 1.235-5.496s2.773-1.67 4.643-1.168c3.895 1.044 7.58 5.72 8.228 10.446.56 4.07-1.323 6.942-4.5 6.87zm-.48-1.36c2.727.063 4.343-2.387 3.863-5.858-.268-1.935-1.162-3.96-2.487-5.632s-2.97-2.85-4.577-3.277c-3.343-.9-5.6 1.655-5.043 5.684.267 1.935 1.162 3.96 2.486 5.632s2.97 2.85 4.576 3.278c.404.107.8.166 1.182.174z" fill="#5e5cc9"/><path d="M170.904 1899.202c-.446-.01-.908-.08-1.378-.205-3.895-1.044-7.58-5.72-8.228-10.446-.312-2.27.132-4.246 1.235-5.496s2.773-1.67 4.644-1.168c1.06.288 2.145.86 3.176 1.677 1.476.212 3.393.1 4.16.864-.9.25-1.56.692-1.92 1.406 1.5 1.94 2.508 4.27 2.814 6.498.56 4.07-1.323 6.942-4.5 6.87zm-.48-1.36c2.727.063 4.343-2.387 3.863-5.858-.268-1.935-1.162-3.96-2.487-5.632s-2.97-2.85-4.577-3.277c-3.343-.9-5.6 1.655-5.043 5.684.267 1.935 1.162 3.96 2.486 5.632s2.97 2.85 4.576 3.278c.404.107.8.166 1.182.174z" fill="#7e7ef8"/><g transform="translate(55.5 243.75)"><path d="M243.937 1610.328c-.367.02-.623-.253-.623-.734v-17.745c0-.64.455-1.4 1.02-1.702l20.77-11.083v-4.427l2.9 2.88 2.978-1.59c.566-.302 1.02-.03 1.02.612v17.747c0 .64-.455 1.4-1.02 1.702l-26.645 14.218a.96.96 0 0 1-.398.122z" fill="url(#Z)"/><ellipse cx="493.98" cy="-1765.066" rx="4.203" ry="4.935" transform="matrix(.956027 -.293278 .16931 -.985563 83.156 -2.198)" class="B"/><path d="M256.414 1597.178v-4.664l-3.684 3.674c-.548-1.306-.277-3.273.707-5.13l.034-.063c1.51-2.796 4.142-4.46 5.886-3.72s1.944 3.603.445 6.403c-.844 1.573-2.095 2.867-3.387 3.502z" fill="#4845b0"/><path d="M246.114 1603.7v-.75l4.688-3v.75zm0-2.53v-.75l4.688-3v.75zm1.513-3.703v-.545l3.14-1.746v.543zm15.663-7.427c-.195-1.622 1.943-6.516 2.222-6.557 0 0 3.286 2 3.43 3.82.187 2.367-.888 4.154-3.414 4.634-1.067.203-2.3-.237-2.238-1.897" class="B"/><ellipse ry="2.013" rx="1.669" cy="-1677.861" cx="337.843" transform="matrix(.965348 -.260968 .035797 -.999359 0 0)" fill="#8687da"/></g><path d="M149.26 1627.743c-.122-.01-.257-.055-.398-.136l-34.874-20.043c-.566-.323-1.027-1.1-1.02-1.74l.06-6.49-4.496-4.963 4.553-1.1.048-5.218c.006-.642.455-.897 1.02-.574l34.708 20.08c.566.323 1.02 1.1 1.02 1.74v17.745c0 .48-.256.744-.623.7z" fill="url(#a)" transform="translate(129.375 270.375)"/><path d="M275.75 1891.497v-.75l-29.52-17.11v.75zm0-2.53v-.75l-29.52-17.204v.75zm-16.375-11.962v-.545l-12.944-7.7v.543z" class="B"/><g transform="translate(242.595 302.313)"><g transform="matrix(.979353 0 .042662 .962076 -188.513845 39.853344)"><use xlink:href="#AU" transform="matrix(1.021082 0 -.045279 1.039419 55.685501 -66.413038)" fill="url(#j)"/><g transform="matrix(.945083 -.326829 .178999 -.983849 0 0)"><ellipse cx="392.527" cy="-1725.591" rx="7.274" ry="8.549" class="G"/><ellipse ry="7.752" rx="6.596" cy="-1725.591" cx="392.527" class="H"/></g><ellipse cx="399.016" cy="-1726.597" transform="matrix(.947279 -.320409 .182877 -.983136 0 0)" rx="5.886" ry="6.786" class="B"/></g><g transform="matrix(.860675 0 0 1 -9.177674 .331456)"><use xlink:href="#AV" fill="url(#f)"/><rect width="8.749" height="11.417" x="-83.529" y="-1513.405" transform="matrix(.879762 -.475415 0 -1 0 0)" rx="4.374" fill="url(#l)"/></g><path d="M-52.195 1570.145s1.692.817 2.725.916c2.07.198 4.457-.015 6.17-.725 2.75-1.14 3.682-3.233 4.307-5.467.287-1.028-.218-1.97-.4-3.18-.09-.622-.297-2.092-1.328-2.245-.895-.132.237 1.834.237 1.834-.102.3-.405.223-.618.19-.428-.068-.4-.867-1.062-.747-.383.068-1.104-.237-1.23.157-.148.463 1.073.988 1.073.988l.4.53c.752.618.728 1.663.893 2.537-.654 2.304-2.718 3.37-4.157 4.03 0 0-1.757.54-2.68.468-.66-.05-1.497-.507-1.706-.61-.806-.395-3.414.83-2.62 1.324z" fill="url(#m)"/><g transform="translate(-68.413 -46.404)"><path d="M10.5 1626.48c-.155.01-.294-.023-.415-.088h-.002l-.025-.015-17.243-10.264L4.325 1592.5l17.162 10.26a.71.71 0 0 1 .149.089h.006c.205.165.333.448.333.84v15.113c0 .88-.622 1.922-1.395 2.34l-9.536 5.153c-.193.104-.376.158-.543.168z" fill="url(#n)"/><rect width="14.01" height="18.284" x="-8.533" y="-1612.789" transform="matrix(.879762 -.475415 0 -1 0 0)" ry="1.586" fill="#bcc1e9"/></g><g transform="matrix(1.087357 0 0 1.087357 -307.76484 -201.66108)"><path d="M226.935 1617.132l12.065-6.86 12.065 7.16-12.164 7.126z" fill="#f5d147"/><path d="M226.935 1617.132v-4.94l12.045-6.954.02 5.03z" fill="#d28d28"/><path d="M239 1610.27l12.065 7.16v-5.038l-12.085-7.153z" fill="#fcbc03"/><path d="M231.51 1619.993l11.58-7.277.075-1.657 2.27 1.475.017 1.566-11.435 7.447z" fill="url(#o)"/><rect ry=".939" transform="matrix(.877021 -.480451 -.597213 -.802083 0 0)" y="-1553.545" x="-785.963" height="1.877" width="4.241" class="J"/></g><g transform="matrix(.924196 -.381919 0 -1 -109.719 -59.117)"><ellipse ry="2.3" rx="1.94" cy="-1637.721" cx="43.268" fill="#0c0e3f"/><ellipse cx="43.268" cy="-1637.721" rx="1.686" ry="1.999" fill="#0c0e75"/></g><use xlink:href="#AW" fill="url(#p)"/><use xlink:href="#AX" fill="url(#m)"/><g transform="translate(-151.56 -36.387)"><use xlink:href="#AU" fill="url(#j)"/><g transform="matrix(.979353 0 .042662 .962076 -51.70244 63.894355)"><g transform="matrix(.945083 -.326829 .178999 -.983849 0 0)"><ellipse cx="392.527" cy="-1725.591" rx="7.274" ry="8.549" class="G"/><ellipse ry="7.752" rx="6.596" cy="-1725.591" cx="392.527" class="H"/></g><ellipse cx="399.016" cy="-1726.597" transform="matrix(.947279 -.320409 .182877 -.983136 0 0)" rx="5.886" ry="6.786" fill="url(#q)"/></g></g><path d="M-62.554 1569.264H-78l5.37 2.32 10.74 6.198z" fill="url(#r)"/><g transform="translate(-86.235 -56.871)"><path d="M18.553 1628.297l.023 6.033c.53 5.803 10.505 5.638 11.246.83l.33-6.596c-1.312-2.325-7.824-4.158-11.6-.265z" fill="url(#s)"/><g transform="matrix(.980543 -.069292 .067638 .957134 -134.24308 74.683358)"><path d="M51.783 1631.637l1.77.82c1.86.862 1.494.827 1.588-2.338.037-1.243-.262-1.862-1.4-2.36l-1.817-.797c-1.138-.5-2.29.907-2.29 2.15s1.022 2.002 2.15 2.525z" fill="#807dff"/><g fill="#c9bfff"><circle transform="scale(1 -1)" r=".663" cy="-1629.225" cx="51.799"/><path d="M55.14 1630.3l-.02 1.32a.663.663 0 0 1 .019-1.321z"/></g></g><g transform="translate(-25.124 -3.248)"><path d="M49.358-1644.976c.163 0 .295.182.295.41v3.003c0 .226-.132.286-.295.286s-.295-.06-.295-.286v-3.003c0-.226.132-.41.295-.41z" transform="scale(1 -1)" fill="url(#t)"/><g transform="matrix(1 0 0 -1 2.386 -.017)"><circle r=".878" cy="-1645.482" cx="46.951" fill="#fa964a"/><circle cx="46.935" cy="-1645.474" r=".878" fill="url(#u)"/></g></g></g></g><g transform="translate(231.337 252.749)"><g transform="matrix(.979353 0 .042662 .962076 -137.454845 72.164344)"><use xlink:href="#AU" transform="matrix(1.021082 0 -.045279 1.039419 55.685501 -66.413038)" fill="url(#j)"/><g transform="matrix(.945083 -.326829 .178999 -.983849 0 0)"><ellipse cx="392.527" cy="-1725.591" rx="7.274" ry="8.549" class="G"/><ellipse ry="7.752" rx="6.596" cy="-1725.591" cx="392.527" class="H"/></g><ellipse cx="399.016" cy="-1726.597" transform="matrix(.947279 -.320409 .182877 -.983136 0 0)" rx="5.886" ry="6.786" class="B"/></g><g transform="matrix(.860675 0 0 1 41.88149 32.642564)"><use xlink:href="#AV" fill="url(#f)"/><rect width="8.749" height="11.417" x="-83.529" y="-1513.405" transform="matrix(.879762 -.475415 0 -1 0 0)" rx="4.374" fill="url(#g)"/></g><path d="M-1.136 1602.456s1.692.818 2.725.916c2.07.198 4.457-.015 6.17-.725 2.75-1.14 3.682-3.233 4.307-5.467.287-1.028-.218-1.97-.4-3.18-.09-.622-.297-2.092-1.328-2.245-.895-.132.237 1.834.237 1.834-.102.3-.405.223-.618.19-.428-.068-.4-.867-1.062-.747-.383.068-1.104-.237-1.23.157-.148.463 1.073.988 1.073.988l.4.53c.752.618.728 1.663.893 2.537-.654 2.304-2.718 3.37-4.157 4.03 0 0-1.757.54-2.68.468-.66-.05-1.497-.508-1.706-.61-.806-.395-3.414.83-2.62 1.324z" fill="url(#e)"/><g transform="matrix(1 0 0 .947166 -61.176465 96.664955)"><path d="M37.7 1570.037c-.086.13-.126.267-.13.403v.03l.325 20.06 26.2 1.76-.362-19.992c.006-.058.005-.116-.003-.174h.003c-.04-.26-.224-.51-.563-.706l-13.1-7.52a2.92 2.92 0 0 0-2.723.046l-9.215 5.708a1.32 1.32 0 0 0-.417.388z" fill="url(#b)"/><rect ry="1.586" transform="matrix(.850095 -.526629 .867456 .497514 0 0)" y="1559.032" x="-1547.22" height="18.284" width="14.01" fill="#f8f6f9"/></g><path d="M-9.946 1589.05l13.12-7.46 13.12 7.785-13.227 7.75z" fill="#7f7efd"/><path d="M-9.946 1589.05v-5.37l13.097-7.56.022 5.47z" fill="#372b97"/><path d="M3.173 1581.59l13.12 7.785v-5.478l-13.14-7.778z" fill="#5651cf"/><path d="M.596 1591.713l6.46-3.698 3.827 2.367-6.336 3.65z" fill="#6a67ea"/><rect width="4.611" height="2.041" x="-957.185" y="-1411.975" transform="matrix(.877021 -.480451 -.597213 -.802083 .597 .663)" ry="1.02" class="J"/><g transform="translate(51.059 32.311)"><g transform="matrix(.924196 -.381919 0 -1 -109.719 -59.117)"><ellipse cx="43.268" cy="-1637.721" rx="1.94" ry="2.3" fill="#0c0e3f"/><ellipse ry="1.999" rx="1.686" cy="-1637.721" cx="43.268" fill="#0c0e75"/></g><use xlink:href="#AW" fill="url(#c)"/></g><use xlink:href="#AX" x="51.059" y="32.312" fill="url(#d)"/><g transform="translate(-100.314 -4.17)"><use xlink:href="#AU" fill="url(#i)"/><g transform="matrix(.979353 0 .042662 .962076 -51.70244 63.894355)"><g transform="matrix(.945083 -.326829 .178999 -.983849 0 0)"><ellipse cx="392.527" cy="-1725.591" rx="7.274" ry="8.549" class="G"/><ellipse ry="7.752" rx="6.596" cy="-1725.591" cx="392.527" class="H"/></g><ellipse cx="399.016" cy="-1726.597" transform="matrix(.947279 -.320409 .182877 -.983136 0 0)" rx="5.886" ry="6.786" fill="url(#h)"/></g></g><g transform="translate(53.802 39.188)"><path d="M-64.95 1559.368s-3.636-.53-5.132.265c-4.68 2.486-6.993 4.34-6.993 4.34l4.435 2.753 8.353 1.16z" fill="url(#k)"/><g transform="translate(-134.625 -39.188)"><g transform="translate(-17.103 -4.64)"><path transform="matrix(.75 0 0 -.75 1.351235 1675.7045)" d="M114.143 73.54c-4.324-.257-10.61 7.41-10.44 13.055l.037 4.074 10.164 6 11.21-17.16-9.445-5.48c-.017-.01-.035-.02-.053-.03l-.4-.232-.012.016c-.336-.144-.69-.228-1.06-.25z" fill="url(#x)"/><path d="M86.78 1603.196l10.32 6.42v3.978c-2.248 6.67-10.405-1.136-10.35-7.342z" fill="url(#w)"/><path d="M87.235 1604.873l8.7 5.295v3.28c-1.564 5.414-8.76-1.733-8.734-6.057z" fill="url(#v)"/></g><path d="M75.622 1605.75s.472 2.75 1.59 1.077m-5.47-3.273s.704 2.793 1.533.804" fill="none" stroke="#fff" stroke-width=".375" class="K L"/></g></g></g><g transform="matrix(.930994 .048611 -.045604 .935033 -573.56344 104.28717)"><g transform="matrix(1 -.075197 0 1 166.1259 133.92323)"><path d="M896.17-1645.246c0 .57-.85 1.036-1.908 1.042s-1.925-.45-1.946-1.02.813-1.045 1.87-1.062 1.94.43 1.983 1" transform="scale(1 -1)" fill="url(#AF)"/><path d="M905.18 1645.54c-.535-7.222-10.688-11.018-15.435-9.094m13.1 9.094c-.343-5.178-8.238-8.34-12.17-6.73m9.745 6.73c-.268-3.97-6.144-5.696-8.847-4.817m6.473 4.81c-.136-2.416-4.058-3.585-5.685-2.81" fill="none" stroke="url(#AE)" stroke-width="1.125" class="K"/></g><path d="M989.343 1803.145l-.265 15.71 4.044-11.667z" fill="#e19100"/><path d="M933.962 1752.99l22.257-37.06c.47-.783 6.635.93 7.286.183 0 0-3.84-2.614-3.242-2.994l10.18-6.453c.517-.328 55.4-7.682 65.175-4.688l12.407 6.766-81.843 54.486z" fill="url(#AH)"/><path d="M974.926 1752.105l-2.4-.138.945 1.548zm-1.513 9.277l-2.45-.147 1.377-.988z" class="C"/><g transform="matrix(2.06108 -.503624 -.09699 2.379299 -1969.5226 -1069.1218)"><g transform="scale(1 -1)"><ellipse ry="1.929" rx="1.405" cy="-1504.979" cx="1499.01" class="C"/><ellipse cx="1497.822" cy="-1504.669" rx="1.405" ry="1.929" class="I"/></g><ellipse ry="1.414" rx="1.03" transform="matrix(.613203 0 0 -.613203 582.54141 580.36595)" cy="-1507.228" cx="1492.493" class="B"/></g><path d="M981.298 1747.62l-2.4-.138.945 1.548zm-1.513 9.278l-2.45-.147 1.377-.988z" class="C"/><g transform="matrix(2.06108 -.503624 -.09699 2.379299 -1963.1506 -1073.6058)"><g transform="scale(1 -1)"><ellipse ry="1.929" rx="1.405" cy="-1504.979" cx="1499.01" class="C"/><ellipse cx="1497.822" cy="-1504.669" rx="1.405" ry="1.929" class="I"/></g><ellipse ry="1.414" rx="1.03" transform="matrix(.613203 0 0 -.613203 582.54141 580.36595)" cy="-1507.228" cx="1492.493" class="B"/></g><path d="M1014.974 1724.287l-2.4-.138.945 1.548zm-1.514 9.277l-2.45-.147 1.377-.988z" class="C"/><g transform="matrix(2.06108 -.503624 -.09699 2.379299 -1929.4746 -1096.9398)"><g transform="scale(1 -1)"><ellipse ry="1.929" rx="1.405" cy="-1504.979" cx="1499.01" class="C"/><ellipse cx="1497.822" cy="-1504.669" rx="1.405" ry="1.929" class="I"/></g><ellipse ry="1.414" rx="1.03" transform="matrix(.613203 0 0 -.613203 582.54141 580.36595)" cy="-1507.228" cx="1492.493" class="B"/></g><g transform="matrix(1 0 -.070313 1 199.40564 -32.93767)"><path d="M959.177 1743.7l-2.4-.138.945 1.548zm-1.513 9.278l-2.45-.147 1.377-.988z" class="C"/><g transform="matrix(2.06108 -.503624 -.09699 2.379299 -1985.2716 -1077.5258)"><g transform="scale(1 -1)"><ellipse cx="1499.01" cy="-1504.979" rx="1.405" ry="1.929" class="C"/><ellipse ry="1.929" rx="1.405" cy="-1504.669" cx="1497.822" class="I"/></g><ellipse cx="1492.493" cy="-1507.228" transform="matrix(.613203 0 0 -.613203 582.54141 580.36595)" rx="1.03" ry="1.414" class="B"/></g></g><path d="M962.183 1769.056l54.83-38.1c-.27 10.324 10.553 12.663-1.883 30.04l-52.75 35.43z" fill="#e19101"/><path d="M962.38 1796.414l30.742 10.776 52.23-31.433-28.807-17.155z" fill="#ffd13e"/><path d="M962.183 1769.055l-.31-12.59c2.782-.86 3.7 7.822 11.54 4.917z" class="C"/><path d="M1044.965 1724.68l-.09-18.003 21.613 14.634-1.26 18.625z" fill="#3f3ea4"/><path d="M1020.052 1726.134l6.32 3.275-.25 2.8-4.584 2.53-4.527-3.803 3.014-1.498z" fill="url(#AG)"/><path d="M1017.014 1730.945l-.47 27.656 28.807 17.155.47-26.81z" fill="#fdbb05"/><path d="M1021.752 1752.818l.033-26.135-.788-.334-.108-3.78 7.857-5.258c-.147-.587.7 1.91 1.568 2.617 2.177 1.776 5.1.64 6.376-1.762 2.032-3.798.863-6.753.863-6.753l7.324-4.733.124 18.482-7.326 17.314z" fill="#362e95"/><path d="M1030.454 1730.95l.432 12.678c6.617-2.645 8.9-11.073 12.278-18.016l-.35-1.073z" fill="#bdc1e6"/><path d="M1021.752 1752.818l21.6 13.4 14.598-10.037-20.276-13.707z" fill="#5652cd"/><path d="M1037.675 1742.475l7.3-17.794c6.66 4.227 13.497 9.946 20.263 15.256l-7.276 16.244z" fill="#5950cd"/><path d="M1039.476 1742.662l17.315 11.84c.544.372 1.197.187 1.49-.46l5.646-12.548c.292-.648.093-1.473-.432-1.88l-17.17-13.286c-.525-.407-1.216-.2-1.49.46l-5.797 13.99c-.273.66-.11 1.507.432 1.88z" fill="#ebedfa"/><path d="M1052.283 1723.094l7.592 6.07c.394.315.595.32.597-.1l.028-5.89c0-.422-.182-1.125-.597-1.418l-7.62-5.377c-.414-.293-.597-.32-.597.1v5.198c0 .425.258 1.314.597 1.418-.202.12-.001-.001-.001-.001z" fill="#221a6f"/><path d="M1039.845 1715.418l-.664-.676v-3.62l5.694-3.224 22.024 14.754v3.57l-.707.466-21.355-13.913z" class="B"/><path d="M1039.18 1714.74v-4.836l5.694-3.224 22.024 14.754v4.757l-22.062-14.636z" fill="#cfd4fa"/><g transform="matrix(.836572 .547857 0 -1 0 0)" class="B"><rect width="4.26" height="1.437" x="1250.735" y="-1033.377" ry=".256"/><rect ry=".256" y="-1032.576" x="1269.044" height="1.437" width="4.26"/></g><path d="M962.148 1769.114l-.047-2.883 57.95-40.097.033 3.306z" fill="#3c3390"/><path d="M945.317 1796.413v-5.32h4.592c.163 0 .294-.132.294-.296v-.51c0-.164-.13-.294-.294-.294h-4.592v-11.578h4.592c.163 0 .294-.132.294-.296v-.51c0-.163-.13-.294-.294-.294h-4.592v-8.414l17.063.234v8.18h-1.263c-.163 0-.296.13-.296.294v.51c0 .164.132.296.296.296h1.263v11.578h-1.263c-.163 0-.296.13-.296.294v.51c0 .164.132.296.296.296h1.263v5.32z" fill="#fdbb05"/></g><g transform="translate(182.964 186.676)"><use xlink:href="#AS" fill="url(#AI)"/><use xlink:href="#AT" class="E"/><use xlink:href="#AM" fill="url(#AB)"/></g><g transform="translate(99.75 159.75)"><g transform="translate(33.941 88.565)"><g transform="translate(42.692 -2.917)"><use xlink:href="#AN" fill="url(#z)"/><use xlink:href="#AO" class="E"/><use xlink:href="#AP" fill="url(#y)" transform="translate(-42.812 3.152)"/></g><g transform="matrix(1.06298 0 0 1.207806 63.903994 -324.30135)"><use xlink:href="#AN" fill="url(#z)"/><path d="M-23.55 1539.94l14.3 8.08L4.36 1540l-13.813-7.153z" class="E"/><path d="M47.172 1536.858l.023-7.254-14.125-7.45-13.696 6.828-.11 7.807 14.096-7.084z" fill="url(#AA)" transform="translate(-42.812 3.152)"/></g><g transform="matrix(.870877 0 0 .870877 59.966562 203.93396)"><use xlink:href="#AN" fill="url(#z)"/><use xlink:href="#AO" class="E"/><use xlink:href="#AP" fill="url(#y)" transform="translate(-42.812 3.152)"/></g></g><path d="M88.2 1637.538c.253-1.873-3.043-4.947-3.043-4.947s-4.09 6.21-3.694 8.286c.294 1.534 2.518 2.035 4.286 1.008s2.45-2.754 2.45-4.347z" fill="#7979eb"/><ellipse cx="55.12" cy="-1581.12" transform="matrix(.830695 -.556727 0 -1 39.067 88.248)" rx="2.095" ry="1.814" class="B"/></g></g></svg>