<svg xmlns="http://www.w3.org/2000/svg" xmlns:xlink="http://www.w3.org/1999/xlink" height="272" width="480"><style><![CDATA[.B{fill:#fff}.C{fill:none}.D{stroke-linejoin:round}.E{stroke-linecap:round}.F{color-interpolation-filters:sRGB}.G{clip-path:url(#L)}.H{filter:url(#K)}.I{fill:#d6dcf5}.J{stroke-width:.5}.K{stroke-width:.3}.L{fill:#4ed8e6}.M{fill:#5efbc4}.N{fill:#7bfaef}.O{stroke-linejoin:miter}.P{stroke-miterlimit:4}.Q{stroke-dasharray:none}]]></style><defs><linearGradient id="A" xlink:href="#Am"><stop offset="0" stop-color="#4bf6ed"/><stop offset="1" stop-color="#3a80ee"/></linearGradient><linearGradient id="B" xlink:href="#Am"><stop offset="0" stop-color="#c9cdf1"/><stop offset="1" stop-color="#fff"/></linearGradient><linearGradient id="C" xlink:href="#Am"><stop offset="0" stop-color="#e7e9fd"/><stop offset="1" stop-color="#fbfcfc"/></linearGradient><linearGradient id="D" xlink:href="#Am"><stop offset="0" stop-color="#49fbeb"/><stop offset="1" stop-color="#3e8ce6"/></linearGradient><linearGradient id="E" xlink:href="#Am"><stop offset="0" stop-color="#49fbeb"/><stop offset="1" stop-color="#3e9be6"/></linearGradient><linearGradient id="F" xlink:href="#Am"><stop offset="0" stop-color="#55e0ea"/><stop offset="1" stop-color="#3771c9"/></linearGradient><linearGradient id="G" xlink:href="#Am"><stop offset="0" stop-color="#b1bde9"/><stop offset=".718" stop-color="#aac6ff" stop-opacity=".035"/><stop offset="1" stop-color="#b1bde9" stop-opacity="0"/></linearGradient><linearGradient id="H" xlink:href="#Am"><stop offset="0" stop-color="#fefefc"/><stop offset=".385" stop-color="#fff"/><stop offset="1" stop-color="#bac2eb"/></linearGradient><linearGradient id="I" xlink:href="#Am"><stop offset="0" stop-color="#a097f5"/><stop offset="1" stop-color="#a097f5" stop-opacity="0"/></linearGradient><linearGradient id="J" xlink:href="#Am"><stop offset="0" stop-color="#4793ea"/><stop offset="1" stop-color="#79edce"/></linearGradient><filter id="K" x="-.072" width="1.143" y="-.145" height="1.291" class="F"><feGaussianBlur stdDeviation=".844"/></filter><clipPath id="L"><path d="M296.985 225.69H312.1c14.362 1.184 11.035-6.27 13.887-9.07l-12.957-4.446-7.995-.925z" stroke="#000" stroke-width=".01" stroke-opacity="1" class="C O P Q"/></clipPath><linearGradient id="M" x1="347.081" y1="413.096" x2="347.173" y2="413.596" xlink:href="#Am"><stop offset="0" stop-color="#e4e7fa"/><stop offset="1" stop-color="#d2d6f6"/></linearGradient><linearGradient id="N" x1="269.698" y1="358.247" x2="300.26" y2="402.024" xlink:href="#Am"><stop offset="0" stop-color="#e4e7fa"/><stop offset=".003" stop-color="#d2d6f6"/><stop offset=".827" stop-color="#e4e7fa"/><stop offset=".84" stop-color="#d3d7f6"/><stop offset="1" stop-color="#d4d8f7"/></linearGradient><linearGradient xlink:href="#H" id="O" x1="275.407" y1="327.206" x2="299.2" y2="361.613"/><linearGradient xlink:href="#H" id="P" x1="316.292" y1="351.437" x2="340.085" y2="385.844"/><linearGradient id="Q" x1="344.624" y1="388.763" x2="348.587" y2="386.112" xlink:href="#Am"><stop offset="0" stop-color="#f9f9f9"/><stop offset="1" stop-color="#fff"/></linearGradient><linearGradient xlink:href="#G" id="R" x1="304.912" y1="416.819" x2="332.593" y2="374.18"/><linearGradient id="S" x1="333.412" y1="418.319" x2="444.843" y2="416.93" xlink:href="#Am"><stop offset="0" stop-color="#b1bde9"/><stop offset=".588" stop-color="#aac6ff" stop-opacity=".035"/><stop offset="1" stop-color="#b1bde9" stop-opacity="0"/></linearGradient><filter id="T" class="F"><feFlood flood-opacity="1" flood-color="#000069"/><feComposite in="SourceGraphic" operator="in"/><feGaussianBlur stdDeviation="3.6"/><feOffset dx="2.3" dy="1"/><feComposite in="SourceGraphic"/></filter><linearGradient xlink:href="#G" id="U" x1="274.412" y1="391.319" x2="332.593" y2="374.18"/><linearGradient id="V" x1="305.252" y1="410.883" x2="339.843" y2="380.18" xlink:href="#Am"><stop offset="0" stop-color="#b1bde9"/><stop offset=".881" stop-color="#aac6ff" stop-opacity=".035"/><stop offset="1" stop-color="#b1bde9" stop-opacity="0"/></linearGradient><linearGradient id="W" x1="253.568" y1="343.411" x2="361.215" y2="441.185" xlink:href="#Am"><stop offset="0" stop-color="#3d7ae5"/><stop offset="1" stop-color="#1f55b9"/></linearGradient><linearGradient id="X" x1="448.414" y1="89.181" x2="446.333" y2="116.042" xlink:href="#Am"><stop offset="0" stop-color="#428beb"/><stop offset="1" stop-color="#4bd9eb"/></linearGradient><linearGradient id="Y" x1="447.281" y1="99.957" x2="447.369" y2="105.056" xlink:href="#Am"><stop offset="0" stop-color="#65ecf3"/><stop offset=".61" stop-color="#45c5ec"/><stop offset="1" stop-color="#49d0eb"/></linearGradient><clipPath id="Z"><path d="M535.97 98.366l9.198-12.44h2.05l9.248 12.838c-.658 5.307-7.564 6.88-11.573 6.835-3.41-.038-7.873-3.224-8.923-7.233z" stroke="#000" stroke-width=".048" stroke-opacity="1" class="C O P Q"/></clipPath><linearGradient id="a" x1="546.117" y1="95.871" x2="546.117" y2="107.154" xlink:href="#Am"><stop offset="0" stop-color="#40dcc5"/><stop offset="1" stop-color="#40dcc5" stop-opacity="0"/></linearGradient><mask maskUnits="userSpaceOnUse" id="b"><path d="M535.87 85.926h20.696v19.6H535.87z" opacity="1" fill="url(#a)" fill-opacity="1" stroke="none"/></mask><linearGradient xlink:href="#F" id="c" x1="400.094" y1="82.154" x2="409.459" y2="82.154"/><linearGradient xlink:href="#F" id="d" x1="451.725" y1="392.656" x2="461.15" y2="392.656"/><filter id="e" x="-.304" width="1.608" y="-.376" height="1.751" class="F"><feGaussianBlur stdDeviation="1.465"/></filter><filter id="f" x="-.08" width="1.159" y="-.065" height="1.131" class="F"><feGaussianBlur stdDeviation=".061"/></filter><linearGradient id="g" x1="354.215" y1="80.934" x2="378" y2="228.434" xlink:href="#Am"><stop offset="0" stop-color="#f2f4ff"/><stop offset="1" stop-color="#f2f4ff" stop-opacity="0"/></linearGradient><linearGradient id="h" x1="153.962" y1="159.879" x2="195.1" y2="159.879" xlink:href="#Am"><stop offset="0" stop-color="#3f7ae7"/><stop offset="1" stop-color="#316ace"/></linearGradient><linearGradient xlink:href="#D" id="i" x1="154.036" y1="159.879" x2="195.1" y2="159.879"/><linearGradient id="j" x1="164.243" y1="141.633" x2="193.963" y2="141.633" xlink:href="#Am"><stop offset="0" stop-color="#95eed8"/><stop offset="1" stop-color="#95eed8" stop-opacity="0"/></linearGradient><radialGradient xlink:href="#F" id="k" cx="218.938" cy="144.058" fx="218.938" fy="144.058" r="1.237" gradientTransform="matrix(0.82143272,0.05357143,-0.06507881,0.99788013,48.470269,-11.423434)"/><radialGradient xlink:href="#F" id="l" gradientTransform="matrix(1.0267909,0.06696429,-0.08134851,1.2473501,5.8533522,-50.29376)" cx="218.938" cy="144.058" fx="218.938" fy="144.058" r="1.237"/><linearGradient xlink:href="#D" id="m" x1="217.254" y1="144.058" x2="220.622" y2="144.058"/><linearGradient xlink:href="#C" id="n" x1="216.941" y1="144.058" x2="220.935" y2="144.058"/><linearGradient xlink:href="#A" id="o" x1="230.709" y1="174.139" x2="230.655" y2="175.152"/><linearGradient xlink:href="#A" id="p" x1="231.562" y1="174.654" x2="231.508" y2="175.667"/><linearGradient xlink:href="#A" id="q" x1="232.415" y1="175.168" x2="232.361" y2="176.182"/><linearGradient xlink:href="#A" id="r" x1="233.268" y1="175.683" x2="233.214" y2="176.697"/><linearGradient xlink:href="#A" id="s" x1="234.974" y1="176.713" x2="234.92" y2="177.727"/><linearGradient xlink:href="#A" id="t" x1="234.121" y1="176.198" x2="234.067" y2="177.212"/><linearGradient id="u" x1="283.484" y1="469.938" x2="284.326" y2="465.526" xlink:href="#Am"><stop offset="0" stop-color="#c3cbef"/><stop offset="1" stop-color="#eff0fd" stop-opacity="0"/></linearGradient><linearGradient xlink:href="#B" id="v" x1="239.812" y1="451.426" x2="307.403" y2="453.813"/><linearGradient id="w" x1="313.909" y1="214.499" x2="319.021" y2="221.784" xlink:href="#Am"><stop offset="0" stop-color="#b9c3ee"/><stop offset="1" stop-color="#eceefb"/></linearGradient><linearGradient id="x" x1="319.93" y1="201.859" x2="312.331" y2="211.797" xlink:href="#Am"><stop offset="0" stop-color="#d3d8f6"/><stop offset="1" stop-color="#fff"/></linearGradient><linearGradient xlink:href="#J" id="y" x1="280.285" y1="284.21" x2="299.453" y2="284.21"/><linearGradient xlink:href="#J" id="z" x1="292.209" y1="284.563" x2="288.276" y2="284.563"/><linearGradient id="AA" x1="214.401" y1="170.193" x2="211.882" y2="169.815" xlink:href="#Am"><stop offset="0" stop-color="#dadff4"/><stop offset="1" stop-color="#dad7f4" stop-opacity=".38"/></linearGradient><linearGradient id="AB" x1="219.792" y1="169.346" x2="206.85" y2="169.346" xlink:href="#Am"><stop offset="0" stop-color="#3c80ec"/><stop offset="1" stop-color="#61d8ef"/></linearGradient><linearGradient id="AC" x1="216.922" y1="167.334" x2="209.97" y2="167.334" xlink:href="#Am"><stop offset="0" stop-color="#73daf1"/><stop offset=".486" stop-color="#53e3d9"/><stop offset=".487" stop-color="#5cecc5"/><stop offset="1" stop-color="#60eebf"/></linearGradient><linearGradient id="AD" x1="280.947" y1="291.715" x2="281.164" y2="291.887" xlink:href="#Am"><stop offset="0" stop-color="#a097f5"/><stop offset="1" stop-color="#fff"/></linearGradient><linearGradient xlink:href="#I" id="AE" x1="282.29" y1="292.395" x2="282.975" y2="292.705"/><linearGradient id="AF" x1="200.97" y1="159.978" x2="201.258" y2="160.111" xlink:href="#Am"><stop offset="0" stop-color="#a097f5"/><stop offset="1" stop-color="#a097f5" stop-opacity="0"/></linearGradient><linearGradient xlink:href="#I" id="AG" x1="202.164" y1="160.526" x2="202.849" y2="160.835"/><linearGradient xlink:href="#C" id="AH" x1="428.373" y1="70.688" x2="423.636" y2="57.901"/><linearGradient id="AI" x1="425.25" y1="59.571" x2="430.363" y2="70.138" xlink:href="#Am"><stop offset="0" stop-color="#49fbeb" stop-opacity=".545"/><stop offset="1" stop-color="#3e8ce6" stop-opacity=".556"/></linearGradient><linearGradient xlink:href="#C" id="AJ" x1="427.71" y1="69.532" x2="423.468" y2="59.645"/><linearGradient xlink:href="#B" id="AK" x1="485.477" y1="-31.508" x2="464.626" y2="-35.133"/><linearGradient xlink:href="#E" id="AL" x1="462.441" y1="-26.674" x2="481.328" y2="-25.987"/><linearGradient id="AM" x1="364.611" y1="183.799" x2="367.333" y2="190.485" xlink:href="#Am"><stop offset="0" stop-color="#4bcfed"/><stop offset="1" stop-color="#3a80ee"/></linearGradient><linearGradient id="AN" x1="394.888" y1="53.525" x2="408.748" y2="53.525" xlink:href="#Am"><stop offset="0" stop-color="#a7efe5"/><stop offset="1" stop-color="#81dbef"/></linearGradient><linearGradient id="AO" x1="394.102" y1="53.525" x2="408.378" y2="53.525" xlink:href="#Am"><stop offset="0" stop-color="#3071e6"/><stop offset="1" stop-color="#1046ad"/></linearGradient><linearGradient xlink:href="#E" id="AP" x1="395.683" y1="45.026" x2="399.142" y2="45.057"/><linearGradient xlink:href="#D" id="AQ" x1="400.365" y1="45.621" x2="404.059" y2="45.621"/><linearGradient id="AR" x1="404.711" y1="60.739" x2="405.862" y2="56.942" xlink:href="#Am"><stop offset="0" stop-color="#aeeee6"/><stop offset=".248" stop-color="#63dce7"/><stop offset=".625" stop-color="#1c5ed1"/><stop offset="1" stop-color="#fff"/></linearGradient><linearGradient id="AS" x1="403.08" y1="59.161" x2="406.336" y2="59.161" xlink:href="#Am"><stop offset="0" stop-color="#1c5ed1"/><stop offset="1" stop-color="#1c5ed1" stop-opacity=".884"/></linearGradient><linearGradient id="AT" x1="506.251" y1="-131.809" x2="507.084" y2="-133.831" xlink:href="#Am"><stop offset="0" stop-color="#fff"/><stop offset="1" stop-color="#89a6f0"/></linearGradient><linearGradient xlink:href="#C" id="AU" x1="495.648" y1="-34.039" x2="490.911" y2="-46.826"/><path id="AV" d="M295.813 225.813h19.375l8.906-8.906-18.73-5.018z"/><path id="AW" d="M318.82 201.036c-.4-.004-.802.083-1.112.26l-8.74 4.998c-.622.355-.634.935-.025 1.303l7.78 4.68a2.41 2.41 0 0 0 2.211.019l8.74-4.998c.622-.355.623-.935.01-1.303l-7.77-4.68c-.305-.184-.7-.275-1.1-.28z"/><path id="AX" d="M318.83 200.814c-.427-.005-.853.086-1.182.27l-9.3 5.172c-.662.367-.676.967-.027 1.348l8.277 4.842c.65.376 1.693.388 2.352.022l9.297-5.172c.662-.367.664-.967.012-1.348l-8.264-4.844c-.325-.19-.743-.283-1.17-.287zm-.04.398h.004c.397.005.786.092 1.088.27l7.71 4.52c.608.355.608.917-.01 1.26l-8.676 4.824c-.615.342-1.59.333-2.195-.018l-7.725-4.52c-.605-.355-.592-.916.025-1.258l8.678-4.824c.306-.17.703-.256 1.1-.252z"/><path id="AY" d="M280.213 296.218l.044-12.107 10.275 5.39 3.897-1.88 5.075-2.982-.066 10.21-7.44-2.11c-1.322-1.22-1.99-.476-2.746 0-2.91.995 4.918-4.348-8.54 3.015z"/><path id="AZ" d="M280.875 283.78l8.25-4.763 1.68.45 8.22 4.746-.796.796-7.466 4.31-1.607-.43-8.03-4.327z"/><path id="Aa" d="M289.388 278.84c-.392.004-.782.092-1.08.264l-7.58 4.363c-.596.343-.59.885.015 1.215l8.522 4.658a2.45 2.45 0 0 0 2.164-.022l7.582-4.36c.596-.343.59-.886-.015-1.217l-8.522-4.658c-.302-.165-.695-.246-1.086-.242zm.05.56c.35-.004.7.067.972.215l7.64 4.176c.54.296.547.783.013 1.1l-6.794 3.9a2.2 2.2 0 0 1-1.942.019l-7.637-4.176c-.54-.296-.547-.783-.013-1.1l6.792-3.908c.267-.154.62-.233.97-.236z"/><path id="Ab" d="M290.342 283.355a.43.43 0 0 0-.223.055l-1.75 1.05c-.125.074-.127.196-.005.273l1.557.982c.122.076.32.078.443.004l1.75-1.05c.125-.074.125-.196.002-.273l-1.555-.982c-.06-.04-.14-.058-.22-.06z"/><path id="Ac" d="M223.085 171.93l-8.635 5.01c-.577.453-1.8.782-2.718.09l-8.03-4.928.048-11.3 8.394 4.76c.818.475 1.715.504 2.705 0l8.24-4.983z"/><path id="Ad" d="M219.767 171.25l-5.7 3.285c-.396.3-.836.46-1.466 0l-5.736-3.215v-7.434l5.66 3.17c.562.314 1.178.334 1.857 0l5.34-3.13z"/><path id="Ae" d="M216.838 171.15l-3.104 1.81c-.216.165-.456.253-.8 0l-3.13-1.77v-4.094l3.167 1.746c.545.185.305.224.787 0l3.06-1.724z"/><path id="Af" d="M216.908 168.357l-3.056 1.764c-.213.16-.45.246-.787 0l-3.08-1.727v-3.993l3.118 1.703c.536.18.3.218.775 0l3.013-1.68z"/><path id="Ag" d="M280.877 286.8l.287.226v9.602l-.287-.226z"/><path id="Ah" d="M282.09 287.435l.884.398-.062 9.82-.82-.472z"/><path id="Ai" d="M200.97 155.095l.287.133v9.745l-.287-.133z"/><path id="Aj" d="M201.965 155.565l.884.398v9.745l-.884-.398z"/><path id="Ak" d="M424.932 58.902c-.387.01-.844.204-1.202.406.275-.07.542-.086.747.01 3.806 1.794 6.352 11.338 6.352 11.338-.03.234-.098.252-.22.403.592.088 1.198.12 1.052-.75 0 0-2.546-9.544-6.352-11.338-.11-.052-.24-.072-.377-.07z"/><path id="Al" d="M533.2 26.082c-.337.975-1.197 1.562-1.923 1.312s-1.04-1.243-.706-2.218 1.196-1.564 1.922-1.316 1.043 1.24.71 2.216l-1.316-.45z"/><linearGradient id="Am" gradientUnits="userSpaceOnUse"/></defs><path d="M400.346 83.3c1.484-2.933 6.947-3.24 8.86 0" stroke="url(#c)" class="C D E J"/><path d="M480 238.5v-192C403.623 17.564 336.367 66.497 283.5 117 149.815 63.237 104.27 198.295 24 272l456-.5z" fill="url(#g)"/><g transform="matrix(1.017092 0 0 1.103902 -57.189551 -350.45058)"><g transform="translate(-2.121 -1.414)"><g transform="translate(68.589 47.376)"><g transform="matrix(1.102242 0 0 1.102242 383.54438 275.86143)"><g transform="translate(-367 -30.5)"><g transform="matrix(.864962 .501837 -.866792 .498669 .177 -.088)"><rect ry="3.573" y="-63.375" x="253.991" height="48.632" width="137.916" fill="#b4baeb"/><rect width="137.916" height="48.632" x="252.993" y="-64.296" ry="3.573" fill="#eceefc"/></g><path d="M270.787 93.336l-.33.154-36.523 21.014c-1.742 1.002-1.745 2.622-.006 3.63l114.885 66.654c1.74 1.01 4.54 1.014 6.283.012l36.525-21.014c1.355-.78 1.644-1.927.895-2.875a3.03 3.03 0 0 1-.875.736l-35.96 20.69c-1.716.987-4.474.982-6.186-.012L236.38 116.7c-1.712-.993-1.708-2.587.008-3.574z" filter="url(#T)" class="B"/></g><rect ry="3.573" transform="matrix(.864962 .501837 -.866792 .498669 0 0)" y="113.325" x="7.614" height="48.632" width="137.916" fill="#f0f2ff"/></g><g transform="translate(-.5 -8)"><path d="M285.114 373.87l-11.907 4.198-8.94 8.663 28.166-3.11z" fill="url(#U)"/><path d="M331.99 387.12l-26.06 20.27-1.064 2.855 28-4.75 12.44-12.26z" fill="url(#V)"/><path d="M371.49 404.324l-7.252 40.422 45.84 2.838-.22-44.525z" fill="url(#S)"/><path d="M353.864 414.496l-18.436 10.645-1.064 2.855 17.5-1.25z" fill="url(#R)"/><path d="M338.313 420.063l-2.094 2.094-1.688 5.98 6.718-6.424z" fill="#e4e6fb"/><path d="M289.362 401.52l21.367-20.378-10.438-18.452-26.603 7.186 2.02 7.536z" fill="#e1e5f6"/><path d="M254.543 337.8l20.864-13.73s17.894 7.112 23.174 14.55c4.233 5.963 3.196 10.01 4.887 21.387 0 0-18.782 12.036-22.285 13.8 2.198-4.6 2.593-15.438-2.144-20.285a68.82 68.82 0 0 0-3.09-3.005c-1.314-1.193-3.17-2.287-5.298-3.782z" fill="url(#O)"/><path d="M263.995 350.904v11.738l5.115 3c2.08 1.218 3.13 1.222 4.02.887.9-.326 1.613-1.035 1.613-3 0-1.946-.39-4.667-1.3-6.04-.604-.923-1.504-1.812-2.652-2.67zm.063 18.8l.2 17.03 8.94-8.663 5.5 17.166-4.203-13.26c-.944-2.69-2.28-5.524-3.26-6.88-.962-1.345-2.254-2.483-3.865-3.436zm40.984 5.23l-.178 12.947 5.967 3.36c1.904 1.115 3.653 1.275 4.69.857 1.036-.437 1.68-1.417 1.68-3.314s-.747-4.722-1.783-6.355-2.504-3.01-4.408-4.127zm.04 20.402l-.22 14.912 9.482-9.482-2.47-1.328z" fill="url(#N)"/><path d="M295.428 362.03l20.864-13.73s18.02 7.024 23.174 14.55c4.85 7.08 3.196 13.898 4.887 25.276 0 0-17.115 12.505-19.898 13.8 1-6.413.217-19.434-4.442-24.13-.822-.828-2.114-1.837-3.4-3.005-1.314-1.193-3.126-2.022-5.254-3.517z" fill="url(#P)"/><path d="M254.543 337.8l-.354 42.994 10.078 5.94v-16.583l2.848 1.685c1.637.968 2.942 2.14 3.917 3.52.992 1.388 1.966 3.46 2.922 6.213l4.743 13.67 10.664 6.284-5.433-15.615c-1.1-3.174-2.212-5.7-3.305-7.576-1.076-1.887-2.3-3.412-3.672-4.575 2.5.6 4.367.34 5.598-.786 1.25-1.114 1.873-3.116 1.873-6.004 0-4.177-1.197-7.942-3.59-11.298-2.378-3.348-6.13-6.547-11.262-9.6l-15.028-8.266.442.354m40.295 66.854l9.973 5.877v-15.125l6.565 3.882c4.904 2.9 8.66 3.896 11.27 2.992 2.626-.912 3.938-3.65 3.938-8.2 0-4.542-1.312-8.816-3.938-12.823-2.6-4.02-6.394-7.265-11.332-10.122l-16.327-9.447zm43.51-17.765l-14.21 35.032 9.95 5.863 2.438-6.473 14.842 8.46 2.29 9.088 10.16 5.884-13.717-50.86-11.755-6.992M264.267 351.1l4.233 2.514c2.106 1.25 3.61 2.574 4.515 3.97.922 1.407 1.382 3.107 1.382 5.1 0 2.013-.46 3.186-1.382 3.52-.904.344-2.41-.108-4.515-1.355l-4.233-2.507V351.1m40.985 24.338l5.506 3.27c1.928 1.145 3.417 2.554 4.467 4.227s1.574 3.48 1.574 5.424-.524 3.14-1.574 3.587c-1.05.428-2.538.07-4.467-1.07l-5.506-3.26v-12.176m39.433 25.478l5.22 20.343-10.474-6.194 5.253-14.15" class="B"/><path d="M254.982 338.378l-.375 42.154 9.387 5.61.063-16.442 3.312 1.957c1.612.952 2.905 2.1 3.867 3.435.98 1.355 2.315 4.2 3.26 6.878l4.683 12.906 9.29 5.517-5.363-15.246c-1.096-3.1-2.183-5.565-3.263-7.398-1.062-1.842-3.243-3.552-3.405-4.512 2.47.587 4.564.25 6.057-1.165 1.407-1.333 1.502-3.706 1.407-5.642-.187-3.82-1.49-7.534-3.854-10.8-2.348-3.27-4.633-5.682-9.748-8.577l-15.318-8.668m40.566 23.866v42.618l9.315 5.384.218-14.914 6.794 4.102c4.84 2.83 8.424 3.866 11 2.984 2.592-.9 3.888-3.562 3.888-8.016 0-4.435-1.17-8.483-3.763-12.395-2.577-3.924-6.285-7.3-11.126-10.158l-16.327-9.606m29.28 59.962l9.602 5.658 2.452-6.408 15.043 8.554 2.37 9.09 9.676 5.615-13.625-50.35-11.512-6.762zm-60.96-71.604l5.116 3.017c2.08 1.22 3.565 2.513 4.458 3.877.9 1.374 1.302 4.096 1.302 6.042 0 1.965-.705 2.673-1.615 3-.893.336-1.94.332-4.02-.886l-5.116-3.01-.125-12.04m41.172 24.327l5.967 3.37c1.904 1.118 3.374 2.494 4.4 4.127s1.782 4.46 1.782 6.357-.643 2.878-1.68 3.314c-1.036.418-2.786.257-4.7-.858l-5.967-3.36.177-12.95m45.25 46.8l-11.09-6.6 5.53-15.05z" fill="url(#W)"/><path d="M339.432 415.064l5.253-14.15 5.22 20.343z" fill="url(#M)"/><path d="M338.8 387.24l23.227-10.758 11.672 6.9-23.144 10.856z" fill="url(#Q)"/><path d="M373.69 383.383l12.33 48.705-21.846 12.67-13.627-50.526z" fill="#e4e6fb"/></g></g><g stroke="#bcbdf1" class="C D E K"><path d="M317.198 488l22.445-12.958h5.618l12.922-7.46v-2.956l10.17-5.87m-50.593 16.056l7.768-4.485 7.044-.9 14.1-8.146.327-3.3 10.04-5.796m-26.903 15.492l13.66-7.886m-25.598 17.823l9.364-5.406"/><path d="M317.636 481.51l16.252-9.383"/><path d="M317 485.134l20.3-11.72v-3.154l12.628-7.3v-3.584l9.674-5.585M340.5 471.947l12.238-7.066v-3.934l9.764-5.637m-19.752 18.074l12.05-6.956m1.326-3.544l9.82-5.67"/></g><g transform="translate(51.515 311.66)"><path d="M379.083 104.294l6.813-4.396m-3.94 5.987l6.813-4.396m-4.073 6.12l6.813-4.396m-3.52 6.275l6.813-4.396m-4.537 6.01l6.813-4.396" stroke="#bdc4f4" class="C D E K"/><g transform="matrix(1.016163 0 0 .997831 -50.621093 -8.017636)"><path d="M448.526 89.7c-.94-.01-1.88.2-2.603.628l-20.473 12.045c-1.457.854-1.486 2.254-.06 3.14l18.222 11.282c1.43.876 3.728.9 5.18.046l20.473-12.045c1.457-.854 1.46-2.254.023-3.14l-18.195-11.282c-.715-.444-1.636-.663-2.576-.673z" fill="#c9d0f4"/><path d="M448.567 88.646c-.947-.01-1.894.204-2.625.64L425.3 101.54c-1.47.87-1.498 2.293-.06 3.195l18.372 11.478c1.442.89 3.76.915 5.222.047l20.642-12.254c1.47-.87 1.47-2.293.024-3.195L451.156 89.33c-.72-.452-1.65-.674-2.597-.685z" class="B"/><path d="M448.467 89.025c-.918-.01-1.835.198-2.543.62l-19.996 11.87c-1.423.842-1.45 2.22-.057 3.095l17.798 11.12c1.397.864 3.64.886 5.058.045l19.996-11.87c1.423-.842 1.425-2.22.023-3.095l-17.77-11.12c-.698-.438-1.598-.653-2.516-.663z" fill="url(#X)"/><path d="M440.97 102.544l5.87 3.66c.012-.032 6.475-3.864 6.475-3.864l-5.846-3.797z" fill="url(#Y)"/><g mask="url(#b)" transform="matrix(1.250236 0 0 .864114 -234.79355 16.422357)" clip-path="url(#Z)"><ellipse cx="546.216" cy="100.888" rx="12.988" ry="4.786" fill="#46adef"/><ellipse ry="4.505" rx="12.225" cy="99.326" cx="546.216" fill="#4bb2ef"/><ellipse cx="546.216" cy="97.826" rx="11.35" ry="4.183" fill="#51baf0"/><ellipse ry="3.834" rx="10.403" cy="96.045" cx="546.216" fill="#51bff0"/><ellipse cx="546.216" cy="94.67" rx="9.778" ry="3.604" fill="#54c9f4"/><ellipse ry="3.373" rx="9.153" cy="93.576" cx="546.216" fill="#5fd4f5"/><ellipse cx="546.216" cy="92.482" rx="8.56" ry="3.154" fill="#58dcf0"/><ellipse ry="2.82" rx="7.653" cy="90.951" cx="546.216" fill="#55e2ec"/><ellipse cx="546.216" cy="89.513" rx="6.778" ry="2.498" fill="#52e5db"/><ellipse ry="2.21" rx="5.997" cy="88.107" cx="546.216" fill="#40dcc5"/></g></g></g><path d="M451.978 393.56c1.493-2.292 6.99-2.533 8.918 0" stroke="url(#d)" stroke-width=".443" class="C D E"/></g><path d="M291.3 483.782c-8.794 1.66-11.988-5.628-12.533-7.644-2.217-8.188-1.676-17.546-2.44-24.88-.843-8.1.057-15.33 5.316-20.38 7.248-6.85 17.668-8.692 29.375-8.5 3.407.38 7.548.362 10.625 3.75l.875 1v.5c-1.732-1.634-4.49-3.393-7.022-3.11-6.066.188-11.408 4.91-12.184 5.985-4.064 3.603-6.9 7.53-9.17 11.876-2.28 4.364-3.67 8.913-4.22 14.094 0 0-.134 2.46-.406 3.656-.287 1.26-.75 2.48-1.28 3.656-.412.914-.99 1.745-1.47 2.625-.457.84-1.12 1.602-1.344 2.53-.15.628-.37 1.432.03 1.938.347.437 1.287.562 1.625.406s.1-.377.25-.5c.48-.42 1.242-.913 1.813-.625.312.158.25.656.313 1 .706 3.932-1.512 8.594.625 11.97.247.4 1.22.656 1.22.656z" fill="url(#v)"/><path d="M284.527 471.15l-1.09-.602-2.645-1.898s-.25-1.082.313-2.04c.414-.704 1.056-2.29 1.056-2.29l.684-1.79.684-2.04 2.73.984.794.078-.596 2.594c-.203.717-.454 1.4-.712 2.094l-1.026 2.594c-.422.927-.2 2.313-.2 2.313z" fill="url(#u)"/><g transform="translate(130.643 297.875)"><path d="M176.05 193l12.248-7.16c.274-28.9 4.552-22.916 6.364-37.467 1.385-11.124.084-26.805-15.026-21.2-15.044 7.562-20.066 20.338-21.19 33.786l-3.434 8.378c-.7 1.705-1.71 2.72-.697 3.444 1.656 1.186 2.894-1.367 3.568-2.725.447.288.753 1.9.63 2.594l.125 11.75c.03 2.763 2.458.612 3.625.125 3.508-1.462 5.743-4.16 9.28-4.312 4.086-.176 3.35 7.612 4.508 12.79z" stroke="url(#i)" stroke-width="1.5" class="C"/><path d="M176.3 193.75l12.248-7.16c.274-28.9 4.302-23.666 6.114-38.217 1.385-11.124.084-26.805-15.026-21.2-15.044 7.562-20.066 20.338-21.19 33.786l-3.434 8.378c-.7 1.705-1.883 3.16-.947 3.537 1.023.413 3.02-.524 3.693-1.882.447.288.535.96.41 1.657l.47 11.75c.1 2.76 2.458.612 3.625.125 3.508-1.462 5.743-4.16 9.28-4.312 4.086-.176 3.6 8.362 4.758 13.54z" fill="url(#h)"/></g><g transform="matrix(2.260699 1.978169 -.314955 2.331155 -166.51997 -318.09135)"><circle r="1.967" cy="144.058" cx="218.938" fill="url(#n)"/><circle cx="218.938" cy="144.058" r="1.684" stroke="url(#m)" stroke-width=".052" class="C D"/><circle r="1.547" cy="144.058" cx="218.938" fill="url(#l)"/><circle cx="218.938" cy="144.058" r="1.237" fill="url(#k)"/><circle r=".53" cy="144.058" cx="218.938" fill="#5ef8d7"/></g><g transform="matrix(1 -.346065 0 1 52.76771 379.90749)"><path d="M230.45 174.1h.43v2.707h-.43z" fill="url(#o)"/><path d="M231.303 174.625h.43v2.707h-.43z" fill="url(#p)"/><path d="M232.156 175.14h.43v2.707h-.43z" fill="url(#q)"/><path d="M233.01 175.654h.43v2.707h-.43z" fill="url(#r)"/><path d="M234.715 176.684h.43v2.707h-.43z" fill="url(#s)"/><path d="M233.862 176.17h.43v2.707h-.43z" fill="url(#t)"/></g><g transform="matrix(-.339725 .892584 -.605001 0 509.73571 207.01189)" stroke="#bcbdf1" class="C D E K"><path d="M268.3 180.628l19.78-11.46h5.618l12.922-7.46v-2.956l10.337-5.965m-50.442 15.973l7.45-4.307 7.044-.9 14.1-8.146.327-3.3 16.38-9.357m-33.243 19.053l13.66-7.886m-25.598 17.823l9.364-5.406m-9.256 8.904l15.58-9.007M267.3 178.2l18.43-10.67v-3.154l12.628-7.3V153.5l14.568-8.333m-23.998 20.896l12.238-7.066v-3.934l13.1-7.516M291.188 167.5l12.05-6.956"/><path d="M304.563 157l11.22-6.455"/></g><path d="M186.65 147.463l-2.105.187-2.823.247c-.272.027-.45.106-2.004.9l-.607.297-.95.467-3.607 1.72-.8.348c-.08.02-.564-.01-1.074-.07l-1.192-.132-.263-.024-1.12.71-1.576.907c-1.437.624-2.876.574-3.66-.127a2.32 2.32 0 0 1-.601-1.2c-.058-.504.07-1.13.36-1.746a6.16 6.16 0 0 1 .83-1.226c.233-.25.242-.267.17-.352-.513-.616-.523-.632-.627-1.008-.265-.958.088-2.246.904-3.302.32-.415.924-1.058 1.093-1.165.206-.13.236-.242.1-.38-.37-.38-.53-1.15-.37-1.803a5.13 5.13 0 0 1 .997-1.908c.817-.93 1.902-1.623 3.028-1.93.2-.054.387-.124.416-.154s.082-.163.117-.294c.137-.514.73-1.45 1.312-2.07.743-.792 1.876-1.555 2.807-1.89.835-.3 1.684-.434 2.293-.36l.508.06.178.02.205-.243a6.32 6.32 0 0 1 2.906-1.931c1.087-.338 2.182-.21 2.8.33a1.22 1.22 0 0 1 .439.61l.164.433c.02.078.023.077.54-.133 1.098-.446 2.366-.537 3.19-.23a2.59 2.59 0 0 1 1.002.695c.19.233.238.335.355.758l.153.487c.008 0 .166-.043.346-.094.487-.137 1.202-.195 1.613-.13.452.07.972.292 1.246.53.26.227.535.756.596 1.15.133.86-.32 2.048-1.132 2.976-.47.537-.696.727-1.488 1.253l-.74.49-.3.447-.397.582-.623.918-2.082 3.087.043.225.207.885c.354 1.435.358 1.487.128 1.763-.223.267-.466.38-.906.424zm-.488-1.35l-.18-.76c-.24-.933-.25-.882.37-1.797l1.06-1.57.855-1.34c-.002-.043-.214.08-.95.547-1.056.67-1.153.713-1.42.633-.172-.05-.177-.06-1.16-1.94l-.988-1.9-.22-.086c-.316-.124-.71-.128-1.16-.013l-.395.1-7.132 4.52-.004.293c-.017 1.138-.896 2.5-2.108 3.27-.355.225-.62.28-.818.172-.188-.103-.218-.272-.093-.528.097-.2.148-.25.637-.617.472-.354.793-.78.96-1.272a1.08 1.08 0 0 0-.069-.998c-.123-.237-.2-.326-.347-.4-.247-.123-.62-.173-.918-.123-.33.055-.487.014-.6-.158a.27.27 0 0 1-.044-.314c.18-.48.61-.7 1.4-.708.556-.004 1.016.12 1.345.365l.22.164 3.483-2.207-.12-.24c-.18-.358-.206-.864-.068-1.384.235-.888.846-1.73 1.77-2.44.34-.262.425-.313.61-.368.403-.12.7.086.6.435-.053.2-.275.457-.64.7-.322.224-.654.595-.875.977-.263.454-.298 1.14-.07 1.38l.09.096 1.265-.784 1.65-.925a4.41 4.41 0 0 1 .616-.18 1.3 1.3 0 0 0 .28-.069c.027-.017.286-.025.576-.017.42.01.6.046.88.17.58.26.637.337 1.52 2.08l.78 1.54 4.584-2.905.32-.32c.55-.55.854-1.075.953-1.64.08-.454.056-.664-.115-1-.242-.474-.695-.707-1.373-.706-.446.001-.8.083-1.34.31-.467.198-.648.237-.8.175-.186-.077-.223-.194-.216-.686.006-.398-.012-.48-.17-.793-.368-.728-1.07-1.007-2.144-.853-.56.08-.97.242-1.745.686-.533.305-.587.328-.745.317-.378-.028-.437-.117-.38-.567.054-.426-.04-.812-.252-1.038-.544-.58-1.596-.58-2.655-.007-.585.317-1.133.86-1.518 1.504-.27.45-.405.566-.754.645-.157.036-.285.012-.543-.098-.402-.172-.603-.217-1.003-.224-.747-.012-1.562.25-2.35.758-1.168.75-1.913 1.78-2.08 2.873-.066.43-.14.59-.368.776-.204.168-.326.206-.717.22a3.59 3.59 0 0 0-2.046.777c-.402.32-.888.868-1.035 1.17-.462.948-.287 1.74.462 2.09.316.148.364.24.27.504-.102.282-.202.385-.65.672-1.367.872-2.228 2.253-2.082 3.34.065.486.347.873.846 1.16.45.26.38.59-.236 1.108-.687.576-1.137 1.292-1.235 1.96-.092.633.05 1.024.485 1.35.484.36 1.424.37 2.252.022.266-.112.993-.562 4.858-3.012l4.536-2.898a2.43 2.43 0 0 0-.297-.141c-.91-.4-1.202-1.295-.77-2.4.21-.538.607-1.1.914-1.293.353-.224.682-.202.81.053.073.145.067.183-.064.413-.58 1.013-.656 1.358-.392 1.78.368.6 1.3.597 2.298.015.238-.14.506-.27.596-.292.203-.05.453.023.517.15.07.137.004.452-.124.596-.083.093-1.125.767-4.174 2.7l-4.045 2.613c.018.036.118.057.572.122.3.043.365.04.492-.015l2.933-1.388 1.51-.73 1.45-.718c1.72-.858 1.505-.79 2.932-.91l3.28-.306c.017-.01.01-.123-.012-.25z" fill="url(#j)" transform="translate(130.643 297.875)"/><path d="M317.063 444.9l-4.78.414c-.264.026-.436.102-1.943.85l-.59.284-.92.446-3.498 1.644-.786.333c-.078.02-.547-.01-1.042-.067l-1.156-.126-.255-.023-1.086.678-1.528.867c-1.393.596-2.788.548-3.548-.122-.26-.23-.54-.78-.583-1.146-.056-.48.07-1.08.35-1.667a5.88 5.88 0 0 1 .804-1.171c.226-.238.234-.255.166-.336-.497-.588-.507-.604-.608-.962-.257-.915.085-2.145.877-3.154.31-.397.896-1 1.06-1.113.2-.125.23-.23.098-.362-.36-.362-.513-1.1-.358-1.722.146-.59.554-1.36.967-1.823.792-.89 1.844-1.55 2.936-1.843.194-.052.375-.118.404-.147s.08-.155.113-.28c.132-.49.707-1.385 1.272-1.978.72-.757 1.82-1.486 2.72-1.806.8-.287 1.632-.414 2.224-.344l.492.057.173.02.198-.232c.73-.853 1.74-1.514 2.818-1.844 1.054-.323 2.116-.2 2.725.315.246.208.305.29.426.583l.16.413c.02.074.022.073.524-.127 1.065-.426 2.294-.513 3.094-.22.357.13.756.404.97.664.185.223.23.32.344.724l.148.465a9.83 9.83 0 0 0 .336-.09c.472-.13 1.165-.187 1.564-.125.44.068.942.28 1.208.507.253.217.52.722.578 1.1.13.822-.3 1.956-1.098 2.843-.456.513-.675.695-1.443 1.197l-.717.47-.292.427-.385.556-.604.877-2.018 2.948.042.215.2.846c.343 1.37.347 1.42.124 1.684-.216.255-.452.364-.88.405zm-.473-1.3l-.174-.727c-.232-.892-.243-.842.358-1.716l1.028-1.5.83-1.28c-.002-.04-.207.076-.922.522-1.024.64-1.118.68-1.376.605-.167-.05-.172-.058-1.125-1.854l-.958-1.805-.212-.082c-.306-.118-.687-.123-1.125-.012l-.383.096-6.915 4.316-.004.28c-.016 1.087-.87 2.39-2.044 3.122-.344.215-.6.268-.793.164-.182-.098-.21-.26-.09-.504.095-.19.143-.238.617-.59.457-.34.77-.745.93-1.215.132-.38.116-.603-.067-.953-.12-.226-.193-.31-.337-.38-.24-.117-.602-.165-.9-.118-.32.053-.472.014-.59-.15-.082-.114-.09-.172-.042-.3.174-.46.593-.67 1.347-.676.54-.004.985.115 1.304.348l.214.156 3.377-2.108-.117-.228c-.175-.342-.2-.825-.066-1.322.228-.848.82-1.652 1.716-2.33.33-.25.412-.3.6-.35.39-.116.67.082.583.416-.052.2-.267.436-.62.678-.312.214-.635.57-.85.933-.255.433-.29 1.1-.07 1.32l.088.092 1.227-.748 1.6-.883c.205-.074.474-.152.597-.172s.246-.05.272-.066.277-.024.56-.016c.406.01.582.044.855.164.562.247.618.322 1.474 1.987l.755 1.47 4.445-2.775.3-.306c.533-.527.828-1.027.924-1.565.077-.434.055-.634-.112-.954-.235-.453-.674-.675-1.332-.674-.432.001-.776.08-1.3.297-.453.19-.628.226-.776.167-.18-.073-.216-.185-.2-.655.006-.38-.012-.458-.165-.758-.357-.695-1.038-.962-2.08-.814-.542.077-.94.23-1.692.655-.516.29-.57.314-.722.302-.366-.027-.424-.112-.37-.542.052-.407-.04-.776-.245-.99-.528-.553-1.547-.555-2.574-.007-.567.303-1.098.82-1.472 1.436-.262.43-.392.54-.73.616-.152.034-.277.012-.526-.094-.4-.165-.585-.208-.972-.214-.724-.01-1.514.24-2.28.724-1.132.717-1.854 1.7-2.017 2.744-.064.412-.136.562-.357.74-.198.16-.317.197-.695.21-.694.027-1.413.296-1.984.742-.39.304-.86.83-1.003 1.117-.448.905-.278 1.66.448 1.995.306.14.353.228.26.48-.1.27-.196.368-.632.642-1.325.833-2.16 2.152-2.02 3.2.063.464.336.834.82 1.11.436.248.368.565-.23 1.058-.666.55-1.103 1.234-1.197 1.873-.09.605.047.978.47 1.29.47.344 1.38.353 2.184.02.258-.106.962-.537 4.7-2.876l4.4-2.768c-.005-.01-.135-.07-.288-.135-.884-.372-1.165-1.237-.746-2.29.205-.514.59-1.05.886-1.235.342-.214.66-.193.786.05.07.138.065.175-.062.394-.563.968-.636 1.297-.38 1.7.357.564 1.26.57 2.228.015.23-.132.49-.258.578-.28.196-.047.44.022.5.143.067.13.004.432-.12.57-.08.09-1.09.733-4.047 2.578l-3.922 2.496c.018.034.115.054.554.117.292.04.354.04.477-.014l2.844-1.326 1.463-.697 1.405-.686c1.668-.82 1.46-.756 2.843-.87l3.18-.292c.017-.01.01-.118-.012-.24z" class="B"/></g><g transform="translate(.448 -89.141)"><g transform="translate(-27.75 89.5)"><use xlink:href="#AV" transform="matrix(.672928 0 0 .635184 117.48032 69.500147)" fill="url(#w)" class="G H"/><use xlink:href="#AW" fill="url(#x)"/><use xlink:href="#AX" class="I"/></g><g class="B"><use xlink:href="#AY"/><use xlink:href="#AZ"/></g><use xlink:href="#Aa" fill="url(#y)"/><use xlink:href="#Ab" fill="url(#z)"/><g transform="matrix(1.02338 0 0 .994094 72.077403 125.50335)"><use xlink:href="#Ac" fill="url(#AA)"/><use xlink:href="#Ad" fill="url(#AB)"/><use xlink:href="#Ae" class="B"/><use xlink:href="#Af" fill="url(#AC)" transform="translate(-.117 2.784)"/></g><use xlink:href="#Ag" fill="url(#AD)"/><use xlink:href="#Ah" fill="url(#AE)"/><g transform="matrix(-1 0 0 1 500.60889 131.6211)"><use xlink:href="#Ai" fill="url(#AF)"/><use xlink:href="#Aj" fill="url(#AG)"/></g></g><g transform="translate(-85.361 -133.464)"><g transform="translate(-27.75 89.5)"><use xlink:href="#AV" transform="matrix(.672928 0 0 .635184 117.48032 69.500147)" fill="url(#w)" class="G H"/><use xlink:href="#AW" fill="url(#x)"/><use xlink:href="#AX" class="I"/></g><g class="B"><use xlink:href="#AY"/><use xlink:href="#AZ"/></g><use xlink:href="#Aa" fill="url(#y)"/><use xlink:href="#Ab" fill="url(#z)"/><g transform="matrix(1.02338 0 0 .994094 72.077403 125.50335)"><use xlink:href="#Ac" fill="url(#AA)"/><use xlink:href="#Ad" fill="url(#AB)"/><use xlink:href="#Ae" class="B"/><use xlink:href="#Af" fill="url(#AC)" transform="translate(-.117 2.784)"/></g><use xlink:href="#Ag" fill="url(#AD)"/><use xlink:href="#Ah" fill="url(#AE)"/><g transform="matrix(-1 0 0 1 500.60889 131.6211)"><use xlink:href="#Ai" fill="url(#AF)"/><use xlink:href="#Aj" fill="url(#AG)"/></g></g><g transform="translate(147.948 -179.641)"><g transform="translate(-27.75 89.5)"><use xlink:href="#AV" transform="matrix(.672928 0 0 .635184 117.48032 69.500147)" fill="url(#w)" class="G H"/><use xlink:href="#AW" fill="url(#x)"/><use xlink:href="#AX" class="I"/></g><g class="B"><use xlink:href="#AY"/><use xlink:href="#AZ"/></g><use xlink:href="#Aa" fill="url(#y)"/><use xlink:href="#Ab" fill="url(#z)"/><g transform="matrix(1.02338 0 0 .994094 72.077403 125.50335)"><use xlink:href="#Ac" fill="url(#AA)"/><use xlink:href="#Ad" fill="url(#AB)"/><use xlink:href="#Ae" class="B"/><use xlink:href="#Af" fill="url(#AC)" transform="translate(-.117 2.784)"/></g><use xlink:href="#Ag" fill="url(#AD)"/><use xlink:href="#Ah" fill="url(#AE)"/><g transform="matrix(-1 0 0 1 500.60889 131.6211)"><use xlink:href="#Ai" fill="url(#AF)"/><use xlink:href="#Aj" fill="url(#AG)"/></g></g><g transform="translate(81.948 -218.141)"><g transform="translate(-27.75 89.5)"><use xlink:href="#AV" transform="matrix(.672928 0 0 .635184 117.48032 69.500147)" fill="url(#w)" class="G H"/><use xlink:href="#AW" fill="url(#x)"/><use xlink:href="#AX" class="I"/></g><g class="B"><use xlink:href="#AY"/><use xlink:href="#AZ"/></g><use xlink:href="#Aa" fill="url(#y)"/><use xlink:href="#Ab" fill="url(#z)"/><g transform="matrix(1.02338 0 0 .994094 72.077403 125.50335)"><use xlink:href="#Ac" fill="url(#AA)"/><use xlink:href="#Ad" fill="url(#AB)"/><use xlink:href="#Ae" class="B"/><use xlink:href="#Af" fill="url(#AC)" transform="translate(-.117 2.784)"/></g><use xlink:href="#Ag" fill="url(#AD)"/><use xlink:href="#Ah" fill="url(#AE)"/><g transform="matrix(-1 0 0 1 500.60889 131.6211)"><use xlink:href="#Ai" fill="url(#AF)"/><use xlink:href="#Aj" fill="url(#AG)"/></g></g><g transform="translate(-69.681 99.302)"><g transform="matrix(-.947028 -.314451 -.314269 .949241 888.37968 30.49369)"><path d="M420.533 61.71c-.225-1.017 1.453-1.924 2.484-2.474.722-.386 1.897-.696 2.41-.48 4.408 1.852 6.74 11.77 6.74 11.77-.136.956-1.063 1.324-2.278.6-2.68-1.596-8.298-4.65-9.354-9.415z" fill="url(#AH)"/><use xlink:href="#Ak" fill="url(#AI)"/><path d="M420.69 62.087c-.202-.984 1.268-1.85 2.225-2.394.507-.288 1.263-.588 1.722-.38 3.947 1.79 6.59 11.324 6.59 11.324-.12.925-1.07 1.26-2.16.56-2.4-1.545-7.43-4.5-8.376-9.11z" fill="url(#AJ)"/></g><path d="M469.43-47.424c-3.38 1.206-6.195 4.643-7.062 8.125-1.23 4.938.074 10.332 3.438 14.875 4.298 6.702 12.204 5.85 16.875 0 3.54-3.594 5.38-12.72 2.063-20.375-3.27-3.8-10.435-4.365-15.312-2.625z" fill="url(#AK)"/><path d="M464.924-25.52c4.627 4.666 13.733 4.18 18.75-.062 1.95-3.503 1.656-3.83 2.264-5.434-4.598 7.493-18.655 6.747-23.483-.285.524 2.052 1.45 3.936 2.47 5.78z" opacity=".357" fill="url(#AL)"/><g transform="translate(62.448 -102.908)"><ellipse cx="365.647" cy="187.286" rx="3.119" ry="3.819" transform="matrix(.954348 -.298697 .310247 .950656 0 0)" fill="url(#AM)"/><path d="M405.406 67.797h.734v2.78h-.734z" class="L"/><path d="M405.406 67.002h.734v.565h-.734z" class="M"/><path d="M407.9 70.395v-.734h.848v.734z" class="L"/><path d="M407.322 70.395v-.734h.427v.734z" class="M"/><path d="M407.9 68.776v-.734h.848v.734z" class="L"/><path d="M407.322 68.776v-.734h.427v.734z" class="M"/></g><g transform="translate(95.383 -102.794)"><ellipse ry="9.016" rx="11.137" cy="44.488" cx="379.341" fill="#eaeaf7"/><ellipse transform="matrix(1.617458 0 0 1.617458 -234.1097 -27.21969)" cx="378.341" cy="44.488" rx="5.784" ry="4.682" filter="url(#e)" class="B"/><g transform="translate(-25.812 -8.125)"><path d="M394.732 49.937c-.638.56-.695 3.37 0 4.792.553 1.132 1.8 1.84 2.955 2.23 2.55.862 5.502.903 8.04 0 1.037-.37 2.122-1.068 2.606-2.097.52-1.105.588-2.628 0-3.694-.218-.396-.714-.558-1.133-.685-3.994-1.215-11.543-1.356-12.467-.546z" fill="url(#AN)"/><path d="M394.594 50.156c-.628.525-.684 3.165 0 4.5.544 1.063 1.77 1.727 2.906 2.094 2.508.81 5.41.848 7.906 0 1.02-.347 2.086-1.003 2.563-1.97.51-1.037.578-2.467 0-3.47-.214-.37-.702-.524-1.114-.643-3.928-1.14-11.35-1.273-12.26-.513z" fill="url(#AO)"/><g transform="translate(0 7.344)" stroke-width=".4" class="C D E"><path d="M395.648 45.803c.066-2.842 2.185-1.686 3.292.2" stroke="url(#AP)"/><path d="M400.565 46.367c.066-2.842 2.185-1.686 3.292.2" stroke="url(#AQ)"/></g></g><g transform="matrix(1.206293 .204535 -.204535 1.206293 -249.1961 -93.531788)"><use xlink:href="#Al" class="N"/><ellipse transform="matrix(.95574 .294213 -.361966 .932191 0 0)" ry="1.869" rx="1.338" cy="-132.326" cx="506.371" fill="#b3caf2"/><ellipse cx="508.604" cy="-141.265" rx="1.044" ry="1.532" transform="matrix(.950252 .311484 -.342592 .939484 0 0)" class="N"/><ellipse transform="matrix(.944544 .328386 -.325133 .945668 0 0)" ry="1.182" rx=".769" cy="-150.314" cx="511.007" fill="#174db2"/></g><g transform="translate(-25.594)"><g transform="matrix(1.008173 0 0 .675981 -3.432747 15.473908)"><ellipse cx="404.708" cy="59.161" rx="5.325" ry="1.348" stroke="url(#AR)" class="C D J"/><ellipse ry=".412" rx="1.628" cy="59.161" cx="404.708" fill="url(#AS)"/></g><g transform="matrix(.505437 0 0 -.337954 200.02865 73.115433)"><ellipse ry="1.348" rx="5.325" cy="59.161" cx="404.708" stroke="url(#AR)" class="C D J"/><ellipse cx="404.708" cy="59.161" rx="1.628" ry=".412" fill="url(#AS)"/></g></g></g><g transform="matrix(1.471196 .131066 -.07038 1.35616 -297.705489 -146.504342)"><use xlink:href="#Al" class="N"/><ellipse transform="matrix(.95574 .294213 -.361966 .932191 0 0)" ry="1.869" rx="1.338" cy="-132.326" cx="506.371" fill="url(#AT)"/><g transform="matrix(.944544 .328386 -.325133 .945668 0 0)"><ellipse cx="511.007" cy="-150.314" rx=".797" ry="1.225" fill="navy" filter="url(#f)"/><ellipse ry="1.182" rx=".769" cy="-150.314" cx="511.007" fill="#174db2"/></g></g><g transform="translate(-6.806 3.094)"><path d="M487.808-43.018c-.225-1.017 1.012-2.2 2-2.74.845-.47 2.38-.43 2.893-.216 4.408 1.852 6.74 11.77 6.74 11.77-.136.956-1.063 1.324-2.278.6-2.68-1.596-8.298-4.65-9.354-9.415z" fill="url(#AU)"/><use xlink:href="#Ak" x="67.275" y="-104.727" fill="url(#AI)"/></g></g></svg>