<svg xmlns="http://www.w3.org/2000/svg" xmlns:xlink="http://www.w3.org/1999/xlink" width="537.067" height="279.6"><style><![CDATA[.B{fill:#fff}.C{opacity:.705}.D{fill:#bcc1e7}.E{fill:#d0d4f9}.F{fill:#221d7b}.G{fill:#bcc0e3}.H{fill:#5551cc}.I{fill:#ffb06d}.J{fill:#6a67ea}.K{fill:#fbcfa8}.L{opacity:.745}.M{fill:#f8f6f9}.N{fill:#0c0e3f}.O{fill:#0c0e75}.P{stroke-linecap:round}.Q{fill:#ffb16e}.R{fill:#6a67eb}.S{fill:#fccfa8}.T{stroke-width:.375}.U{stroke-linejoin:round}]]></style><defs><linearGradient id="A" xlink:href="#BG"><stop offset="0" stop-color="#d0d4f9"/><stop offset="1" stop-color="#d0d4f9" stop-opacity="0"/></linearGradient><linearGradient id="B" xlink:href="#BG"><stop offset="0" stop-color="#b4b8dd"/><stop offset="1" stop-color="#939bc9"/></linearGradient><linearGradient id="C" xlink:href="#BG"><stop offset="0" stop-color="#38389a"/><stop offset="1" stop-color="#1c1968"/></linearGradient><linearGradient id="D" xlink:href="#BG"><stop offset="0" stop-color="#5452cf"/><stop offset="1" stop-color="#181566"/></linearGradient><linearGradient id="E" xlink:href="#BG"><stop offset="0" stop-color="#fffffd"/><stop offset="1" stop-color="#d2d5f4"/></linearGradient><linearGradient id="F" xlink:href="#BG"><stop offset="0" stop-color="#fc944b"/><stop offset="1" stop-color="#e87139"/></linearGradient><linearGradient id="G" xlink:href="#BG"><stop offset="0" stop-color="#433eb4"/><stop offset="1" stop-color="#382d95"/></linearGradient><linearGradient id="H" xlink:href="#BG"><stop offset="0" stop-color="#cbd0ed" stop-opacity=".705"/><stop offset="1" stop-color="#fefefe" stop-opacity="0"/></linearGradient><linearGradient id="I" x1="79.431" y1="1581.847" x2="90.068" y2="1562.816" xlink:href="#BG"><stop offset="0" stop-color="#463faf"/><stop offset="1" stop-color="#221d7b"/></linearGradient><linearGradient id="J" x1="-61.37" y1="1547.949" x2="-59.919" y2="1544.017" xlink:href="#BG"><stop offset="0" stop-color="#cfd8f7"/><stop offset="1" stop-color="#e7e8fa"/></linearGradient><linearGradient id="K" x1="-79.309" y1="-1512.155" x2="-80.13" y2="-1502.103" xlink:href="#BG"><stop offset="0" stop-color="#a3aad4"/><stop offset="1" stop-color="#bcc1e9"/></linearGradient><linearGradient id="L" xlink:href="#BG"><stop offset="0" stop-color="#4d4abd"/><stop offset="1" stop-color="#11124a"/></linearGradient><linearGradient xlink:href="#L" id="M" x1="-73.023" y1="1555.772" x2="-55.321" y2="1550.999"/><linearGradient id="N" x1="400.909" y1="-1721.265" x2="395.872" y2="-1738.006" xlink:href="#BG"><stop offset="0" stop-color="#fff"/><stop offset="1" stop-color="#fff" stop-opacity="0"/></linearGradient><linearGradient id="O" xlink:href="#BG"><stop offset="0" stop-color="#bfc4ec"/><stop offset="1" stop-color="#bfc4ec" stop-opacity="0"/></linearGradient><linearGradient xlink:href="#L" id="P" x1="6.863" y1="1613.382" x2="9.156" y2="1582.37"/><linearGradient xlink:href="#R" id="Q" x1="46.151" y1="1577.047" x2="50.999" y2="1576.938"/><linearGradient id="R" xlink:href="#BG"><stop offset="0" stop-color="#bcc1e7"/><stop offset="1" stop-color="#d0d4f7"/></linearGradient><linearGradient xlink:href="#O" id="S" x1="-58.476" y1="1561.795" x2="-77.731" y2="1563.081"/><linearGradient xlink:href="#U" id="T" x1="103.816" y1="90.432" x2="116.898" y2="75.539"/><linearGradient id="U" xlink:href="#BG"><stop offset="0" stop-color="#bec2e7"/><stop offset="1" stop-color="#f5f5ff"/></linearGradient><linearGradient xlink:href="#W" id="V" x1="86.905" y1="1603.456" x2="96.35" y2="1615.057"/><linearGradient id="W" xlink:href="#BG"><stop offset="0" stop-color="#f4f5fa"/><stop offset="1" stop-color="#bcc2e6"/></linearGradient><linearGradient xlink:href="#Y" id="X" x1="87.141" y1="1605.049" x2="95.518" y2="1614.032"/><linearGradient id="Y" xlink:href="#BG"><stop offset="0" stop-color="#1f1a6a"/><stop offset="1" stop-color="#4642b3"/></linearGradient><linearGradient id="Z" xlink:href="#BG"><stop offset="0" stop-color="#5452cf"/><stop offset="1" stop-color="#4039a9"/></linearGradient><linearGradient id="a" x1="90.625" y1="694.448" x2="91.27" y2="694.448" xlink:href="#BG"><stop offset="0" stop-color="#423ead"/><stop offset="1" stop-color="#3a2d96"/></linearGradient><linearGradient xlink:href="#H" id="b" x1="296.305" y1="1128.703" x2="331.344" y2="1128.703"/><linearGradient xlink:href="#H" id="c" x1="296.304" y1="1128.702" x2="331.343" y2="1128.702"/><linearGradient xlink:href="#H" id="d" x1="296.265" y1="1168.228" x2="312.511" y2="1168.335"/><linearGradient xlink:href="#H" id="e" x1="296.265" y1="1141.246" x2="312.511" y2="1141.37"/><linearGradient id="f" x1="318.122" y1="1067.031" x2="318.857" y2="1067.031" xlink:href="#BG"><stop offset="0" stop-color="#d1d5fa"/><stop offset="1" stop-color="#bcc1e7"/></linearGradient><linearGradient id="g" x1="316.211" y1="1078.822" x2="317.007" y2="1078.822" xlink:href="#BG"><stop offset="0" stop-color="#fc944b"/><stop offset="1" stop-color="#e6733a"/></linearGradient><linearGradient xlink:href="#G" id="h" x1="341.536" y1="1085.684" x2="341.907" y2="1085.684"/><linearGradient xlink:href="#H" id="i" x1="296.305" y1="1128.702" x2="331.344" y2="1128.702"/><linearGradient xlink:href="#H" id="j" x1="412.187" y1="1174.276" x2="447.226" y2="1174.276"/><linearGradient xlink:href="#H" id="k" x1="363.093" y1="1186.832" x2="379.338" y2="1186.938"/><linearGradient xlink:href="#H" id="l" x1="363.093" y1="1159.849" x2="379.338" y2="1159.973"/><linearGradient xlink:href="#G" id="m" x1="398.637" y1="1046.992" x2="399.008" y2="1046.992"/><linearGradient xlink:href="#F" id="n" x1="373.586" y1="1015.548" x2="374.343" y2="1015.548"/><linearGradient xlink:href="#F" id="o" x1="397.503" y1="1030.753" x2="398.26" y2="1030.753"/><linearGradient id="p" x1="417.907" y1="1017.857" x2="418.025" y2="1017.857" xlink:href="#BG"><stop offset="0" stop-color="#352e96"/><stop offset="1" stop-color="#22196c"/></linearGradient><linearGradient id="q" x1="398.637" y1="1046.992" x2="399.008" y2="1046.992" xlink:href="#BG"><stop offset="0" stop-color="#fc944b"/><stop offset="1" stop-color="#e67239"/></linearGradient><linearGradient id="r" x1="360.496" y1="1026.785" x2="360.898" y2="1026.785" xlink:href="#BG"><stop offset="0" stop-color="#423eaf"/><stop offset="1" stop-color="#362e95"/></linearGradient><linearGradient xlink:href="#H" id="s" x1="449.007" y1="880.681" x2="484.046" y2="880.681"/><linearGradient xlink:href="#H" id="t" x1="515.687" y1="897.245" x2="550.726" y2="897.245"/><linearGradient xlink:href="#H" id="u" x1="448.968" y1="920.207" x2="465.213" y2="920.313"/><linearGradient xlink:href="#H" id="v" x1="448.968" y1="893.224" x2="465.213" y2="893.348"/><linearGradient id="w" x1="264.994" y1="971.675" x2="250.617" y2="971.581" xlink:href="#BG"><stop offset="0" stop-color="#d06634"/><stop offset="1" stop-color="#f7a363"/></linearGradient><linearGradient xlink:href="#E" id="x" x1="318.26" y1="984.602" x2="329.108" y2="984.503"/><linearGradient xlink:href="#E" id="y" x1="307.773" y1="981.967" x2="321.204" y2="981.967"/><linearGradient xlink:href="#D" id="z" x1="309.302" y1="957.82" x2="321.038" y2="957.488"/><linearGradient xlink:href="#D" id="AA" x1="307.317" y1="961.287" x2="315.55" y2="961.287"/><linearGradient xlink:href="#D" id="AB" x1="307.914" y1="946.339" x2="315.279" y2="946.339"/><linearGradient xlink:href="#D" id="AC" x1="307.914" y1="946.339" x2="315.279" y2="946.339"/><linearGradient xlink:href="#L" id="AD" x1="520.089" y1="781.828" x2="517.795" y2="750.816"/><linearGradient xlink:href="#R" id="AE" x1="46.151" y1="1577.047" x2="50.999" y2="1576.938"/><linearGradient xlink:href="#O" id="AF" x1="-58.476" y1="1561.795" x2="-77.731" y2="1563.081"/><linearGradient xlink:href="#U" id="AG" x1="103.816" y1="90.432" x2="116.898" y2="75.539"/><linearGradient xlink:href="#W" id="AH" x1="86.905" y1="1603.456" x2="96.35" y2="1615.057"/><linearGradient xlink:href="#Y" id="AI" x1="87.141" y1="1605.049" x2="95.518" y2="1614.032"/><linearGradient xlink:href="#L" id="AJ" x1="553.247" y1="539.423" x2="543.71" y2="550.819"/><linearGradient xlink:href="#O" id="AK" x1="-71.393" y1="1561.795" x2="-52.139" y2="1563.081"/><linearGradient xlink:href="#C" id="AL" x1="362.847" y1="460.471" x2="384.175" y2="460.471"/><linearGradient xlink:href="#E" id="AM" x1="382.231" y1="455.222" x2="396.739" y2="455.222"/><linearGradient xlink:href="#E" id="AN" x1="409.044" y1="462.37" x2="396.786" y2="450.745"/><linearGradient xlink:href="#B" id="AO" x1="375.594" y1="447.56" x2="376.89" y2="447.56"/><linearGradient xlink:href="#B" id="AP" x1="378.104" y1="449.902" x2="378.325" y2="449.941"/><linearGradient xlink:href="#Z" id="AQ" x1="348.634" y1="437.986" x2="349.037" y2="437.995"/><linearGradient xlink:href="#B" id="AR" x1="375.594" y1="447.56" x2="376.89" y2="447.56"/><linearGradient xlink:href="#B" id="AS" x1="378.104" y1="449.902" x2="378.325" y2="449.941"/><linearGradient xlink:href="#C" id="AT" x1="320.108" y1="432.978" x2="342.169" y2="432.292"/><linearGradient xlink:href="#E" id="AU" x1="319.101" y1="426.767" x2="334.106" y2="426.301"/><linearGradient xlink:href="#E" id="AV" x1="347.056" y1="433.353" x2="334.015" y2="421.433"/><linearGradient id="AW" x1="371.531" y1="441.331" x2="422.385" y2="441.331" xlink:href="#BG"><stop offset="0" stop-color="#d0d4f9"/><stop offset=".048" stop-color="#bcc1e7"/><stop offset=".421" stop-color="#d0d4f9"/><stop offset=".447" stop-color="#bcc1e7"/><stop offset="1" stop-color="#bcc1e7"/></linearGradient><linearGradient xlink:href="#Z" id="AX" x1="422.272" y1="599.971" x2="422.717" y2="599.971"/><linearGradient xlink:href="#A" id="AY" x1="374.903" y1="423.823" x2="392.459" y2="427.62"/><linearGradient xlink:href="#A" id="AZ" x1="470.138" y1="744.826" x2="483.911" y2="729.684"/><linearGradient xlink:href="#A" id="Aa" x1="349.046" y1="816.801" x2="360.589" y2="801.145"/><linearGradient xlink:href="#A" id="Ab" x1="370.326" y1="739.261" x2="384.428" y2="754.916"/><path id="Ac" d="M71.18 1581.665l6.913 3.724c4.866-.4 7.295-4.73 7.802-5.512.597-.92 3.264-6.72.682-9.436-.89-.935-5.57-4.886-6.893-4.98z"/><path id="Ad" d="M-61.62 1555.447l-10.753-4.28 5.282-11.882 10.6 5.27.004.03c.945.285 1.558 1.227 1.558 2.672v2.668c0 2.423-2.627 5.033-3.724 5.502-.533.288-.85.44-1.462.472s-1.025-.214-1.504-.45z"/><path id="Ae" d="M37.7 1570.037c-.086.13-.126.267-.13.403v.03l.325 20.06 26.2 1.76-.362-19.992c.006-.058.005-.116-.003-.174h.003c-.04-.26-.224-.51-.563-.706l-13.1-7.52a2.92 2.92 0 0 0-2.723.046l-9.215 5.708a1.32 1.32 0 0 0-.417.388z"/><path id="Af" d="M-70.648 1563.518s-1.613-1.484-1.922-2.484c-.62-2.004-.588-4.418.375-6.28 1.545-2.992 4.662-5.32 7.875-6.328 1.972-.62 4.123.535 6.187.422 1.062-.058 2.74-1.548 3.14-.562.347.856-2.297 1.547-2.297 1.547-.475.17-.255.425-.234.656.064.722 1.188 1.193 1.078 1.887-.062.395-.378.59-.668.563-.487-.05-.914-1.148-.914-1.148l-.95-.26c-1.147-.6-2.91-.33-4.406-.29-3.8 1.188-5.316 3.482-6.234 5.063 0 0-.668 1.866-.422 2.766.176.643 1.063 1.363 1.266 1.547.778.705-.934 3.577-1.875 2.906z"/><path id="Ag" d="M-64.95 1559.368s-3.636-.53-5.132.265c-4.68 2.486-6.993 4.34-6.993 4.34l4.435 2.753 8.353 1.16z"/><path id="Ah" d="M114.143 73.54c-4.324-.257-10.61 7.41-10.44 13.055l.037 4.074 10.164 6 11.21-17.16-9.445-5.48c-.017-.01-.035-.02-.053-.03l-.4-.232-.012.016c-.336-.144-.69-.228-1.06-.25z"/><path id="Ai" d="M86.78 1603.196l10.32 6.42v3.978c-2.248 6.67-10.405-1.136-10.35-7.342z"/><path id="Aj" d="M87.235 1604.873l8.7 5.295v3.28c-1.564 5.414-8.76-1.733-8.734-6.057z"/><path id="Ak" d="M75.622 1605.75s.472 2.75 1.59 1.077m-5.47-3.273s.704 2.793 1.533.804"/><path id="Al" d="M294.068 1175.95l2.25-1.3 1.947 1.124-2.38 1.375z"/><path id="Am" d="M294.055 1128.808l.013 47.14 2.25-1.3-.013-47.14z"/><path id="An" d="M298.266 1175.774l-1.947-1.124-.013-47.14 1.947 1.124z"/><path id="Ao" d="M296.305 1127.508h35.04v2.39h-34.827z"/><path id="Ap" d="M296.32 1164.884l-.053 2.15 3.423-1.04z"/><path id="Aq" d="M362.868 1182.465l-.053 2.15-3.034-1.208z"/><path id="Ar" d="M298.39 1168.15l.053-2.15-2.124-1.115 15.9-9.264 3.716.2 46.932 26.646-2.523 1.518.026 2.03-13.272 8.255-2.017-1.22-2.495 1.274z"/><path id="As" d="M298.336 1170.3l.053-2.15-2.124-1.115 15.9-9.264 3.716.2 46.932 26.646-2.47 1.465.026 2.03-13.325 8.31-2.017-1.22-2.495 1.274z"/><path id="At" d="M298.28 1143.428l.11-2.15-2.124-1.115 15.9-9.264 3.716.2 46.932 26.646-2.47 1.465.026 2.03-13.325 8.31-2.017-1.22-2.495 1.274z"/><path id="Au" d="M307.384 1072.125l11.167-6.255 10.07 5.64-11.215 6.545z"/><path id="Av" d="M307.743 1072.33v-4.445l10.656-6.152 9.987 5.752-.04 4.232-9.77-5.64z"/><path id="Aw" d="M304.965 1084.314v-4.607l11.547-6.376 10.822 5.96-.044 4.385-10.586-5.845z"/><path id="Ax" d="M387.878 1055.287l.007-4.5 10.74-6.248 10.087 6.076-.044 4.386-9.85-5.96z"/><path id="Ay" d="M351.106 1034.348l.008-4.582 9.37-5.48 7.216 4.08-.048 4.464-6.96-3.963z"/><path id="Az" d="M366.058 451.12v-1.477l8.803-5.083c1.66-1.055 2.38-.373 3.267 0l6.398 4.05v1.5l-6.96-4.018c-1.477-.865-2.045-.333-2.744 0z"/><path id="BA" d="M369.806 453.132c8.065-4.802 8.676-5.46 8.836-5.38.452.226 1.3.817 1.3.817l.012 3.114-1.475-1.875c-.47-.616-1.115-.64-1.626-.436l-7.047 4.294z"/><path id="BB" d="M344.273 448.684l11.943-6.94c.23-.132.376-.492.15-.628l-7.027-4.225c-.226-.136-.454-.295-.683-.163l-12.13 7.034c-.23.132-.38.497-.15.628l7.214 4.13c.23.13.454.295.683.163z"/><path id="BC" d="M254.563 939.956s-.22-.001-.352-.13c-.45-.44-.246-1.758-.246-1.758 1.272-.598 2.597-1.007 3.902-1.56 0 0 2.695-.785 2.273 1.066-.527 1.5-3.574 2.836-3.574 2.836-.916-.413-1.736-.724-2.004-.457z"/><path id="BD" d="M256.643 939.153c.49.276.692.172.906.77l.44-.258c-.204-.532-.564-.534-1.07-.9z"/><path id="BE" d="M257.552 938.597c.49.276.674.178.888.776.166-.065.267-.18.398-.272-.204-.532-.505-.525-1.01-.89z"/><path id="BF" d="M253.552 955.074l.398-1.89c-1.027-4.107.402-9.068.663-13.623.04-.36 1.752-1.043 1.925.83 0 0 .112 7.992.467 11.503.17 1.673-.254 5.037-.254 5.037z"/><linearGradient id="BG" gradientUnits="userSpaceOnUse"/></defs><g transform="matrix(1.333333 0 0 -1.333333 -127.42147 1183.9682)"><path d="M449.988 732.418c5.396-2.643 14.19-6.34 16.972-5.513s5.033 3.248 7.37 4.924l6.05-2.84 14.915 10.15-5.57 3.168 7.002 4.766c1.925 2.17-9.82 7.636-13.843 7.085z" fill="url(#AZ)" class="L"/><path d="M328.592 804.684c4.824-2.635 13.42-4.735 16.072-4.176s4.932 2.546 7.234 3.874l5.42-2.847 14.656 8.005-4.948 3.105 6.88 3.758c1.957 1.786-8.565 7.27-12.354 7.027-17.165-3.397-25.368-10.93-32.96-18.746z" fill="url(#Aa)" class="L"/><path d="M337.695 758.683c6.643 3.954 18.976 6.387 23.013 4.994s7.796-5.272 11.462-7.983l7.484 4.243 23.25-16.45-9.72-9.54s12.366 3.33 13.9-2.956c2.274-9.324-11.298-11.63-16.958-10.624z" fill="url(#Ab)" class="L"/><g transform="matrix(1.256308 0 0 1.077583 -308.59383 -59.760352)"><g transform="matrix(-.979353 0 -.042662 .962076 664.405955 -759.389246)"><use xlink:href="#Ac" transform="matrix(1.021082 0 -.045279 1.039419 55.685501 -66.413038)" fill="url(#I)"/><g transform="matrix(.945083 -.326829 .178999 -.983849 0 0)"><ellipse cx="392.527" cy="-1725.591" rx="7.274" ry="8.549" class="F"/><ellipse ry="7.752" rx="6.596" cy="-1725.591" cx="392.527" class="G"/></g><ellipse cx="399.016" cy="-1726.597" transform="matrix(.947279 -.320409 .182877 -.983136 0 0)" rx="5.886" ry="6.786" class="B"/></g><g transform="matrix(-.860675 0 0 1 485.06987 -798.91144)"><use xlink:href="#Ad" fill="url(#J)"/><rect width="8.749" height="11.417" x="-83.529" y="-1513.405" transform="matrix(.879762 -.475415 0 -1 0 0)" rx="4.374" fill="url(#K)"/></g><path d="M528.087 770.902s-1.692.817-2.725.916c-2.07.198-4.363-.713-5.633-2.47-1.49-2.06-1.132-5.2-1.165-7.852-.013-1.07.218-1.97.4-3.18.09-.622.297-2.092 1.328-2.245.895-.132-.237 1.834-.237 1.834.102.3.407.224.618.19.413-.07.655-.644 1.062-.747.402-.103 1.113-.287 1.23.157.13.498-.745.62-1.073.988-.145.162-.4.53-.4.53-.752.618-.728 1.663-.893 2.537-.386 2.214-.443 4.498.615 5.922s1.688 2.29 4.25 2.098c.806-.395 3.414.83 2.62 1.324z" fill="url(#AD)"/><g transform="matrix(-1 0 0 .947166 588.12783 -734.88904)"><use xlink:href="#Ae" fill="url(#AE)"/><rect ry="1.586" transform="matrix(.850095 -.526629 .867456 .497514 0 0)" y="1559.032" x="-1547.22" height="18.284" width="14.01" class="M"/></g><g transform="matrix(-1 0 0 1 475.8922 -799.24289)"><g transform="matrix(.924196 -.381919 0 -1 -109.719 -59.117)"><ellipse cx="43.268" cy="-1637.721" rx="1.94" ry="2.3" class="N"/><ellipse ry="1.999" rx="1.686" cy="-1637.721" cx="43.268" class="O"/></g><use xlink:href="#Af" fill="url(#M)"/></g><g transform="matrix(-1 0 0 1 627.26496 -835.72355)"><use xlink:href="#Ac" fill="url(#I)"/><g transform="matrix(.979353 0 .042662 .962076 -51.70244 63.894355)"><g transform="matrix(.945083 -.326829 .178999 -.983849 0 0)"><ellipse cx="392.527" cy="-1725.591" rx="7.274" ry="8.549" class="F"/><ellipse ry="7.752" rx="6.596" cy="-1725.591" cx="392.527" class="G"/></g><ellipse cx="399.016" cy="-1726.597" transform="matrix(.947279 -.320409 .182877 -.983136 0 0)" rx="5.886" ry="6.786" fill="url(#N)"/></g></g><g transform="matrix(-1 0 0 1 473.14956 -792.3665)"><use xlink:href="#Ag" fill="url(#AF)"/><g transform="translate(-134.625 -39.188)"><g transform="translate(-17.103 -4.64)"><use xlink:href="#Ah" transform="matrix(.75 0 0 -.75 1.351235 1675.7045)" fill="url(#AG)"/><use xlink:href="#Ai" fill="url(#AH)"/><use xlink:href="#Aj" fill="url(#AI)"/></g><use xlink:href="#Ak" fill="none" stroke="#fff" class="P T U"/></g></g></g><g transform="translate(1.765 -212.424)"><g transform="translate(22.392 -96.812)"><g transform="translate(-21.37 -.284)"><use xlink:href="#Al" class="B"/><use xlink:href="#Am" class="E"/><use xlink:href="#An" class="D"/><use xlink:href="#Al" x="48.682" y="26.464" class="B"/><use xlink:href="#Am" x="48.683" y="26.465" class="E"/><use xlink:href="#An" x="48.684" y="26.466" class="D"/><use xlink:href="#Al" x="66.308" y="16.06" class="B"/><use xlink:href="#Am" x="66.308" y="16.059" class="E"/><use xlink:href="#An" x="66.308" y="16.059" class="D"/><use xlink:href="#Ao" fill="url(#b)" class="C"/><use xlink:href="#Ao" x="49.055" y="26.97" fill="url(#c)" class="C"/><use xlink:href="#Ao" x="66.68" y="16.564" fill="url(#b)" class="C"/><g class="H"><use xlink:href="#Ap"/><use xlink:href="#Aq"/><use xlink:href="#Ar"/></g><use xlink:href="#As" class="B"/><path d="M296.265 1167.034h35.04v2.39h-33.037l-.024-1.327z" fill="url(#d)" class="C"/><g class="H"><use xlink:href="#Ap" y="-26.871"/><use xlink:href="#Aq" y="-26.871"/><use xlink:href="#Ar" y="-26.872"/></g><g class="B"><use xlink:href="#At"/><use xlink:href="#Al" x="17.626" y="-10.407"/></g><use xlink:href="#Am" x="17.625" y="-10.406" class="E"/><use xlink:href="#An" x="17.626" y="-10.406" class="D"/><use xlink:href="#Ao" x="10.418" y="-18.514" fill="url(#b)" transform="translate(7.208 8.109)" class="C"/><path d="M296.265 1140.163l35.04-.31v2.787h-33.03l.115-1.362z" fill="url(#e)" class="C"/></g><g transform="translate(1.347 102.596)"><g transform="translate(-21.37 -.284)"><use xlink:href="#Au" class="B"/><use xlink:href="#Av" fill="url(#f)" transform="matrix(1.030861 0 0 1 -9.855842 -.204152)"/><ellipse ry="1.42" rx="2.372" transform="scale(1 -1)" cy="-1072.091" cx="318.62" fill="#7f7dfc"/></g><path d="M300.638 1081.177l11.74-6.482 10.586 5.845-11.79 6.783z" class="Q"/><use xlink:href="#Aw" fill="url(#g)" transform="translate(-4.327 -3.137)"/><path d="M305.7 1078.375l2.602-1.433 10.67 5.887-2.46 1.434z" class="B"/><path d="M314.588 1090.95l8.686-4.89 5.4 2.448-8.87 5.084z" class="R"/><path d="M314.588 1090.95v-4.607l8.494-4.783 5.646 2.563-.044 4.386-5.4-2.448z" fill="#5652cd"/><path d="M323.275 1086.06l4.39-2.472 5.4 2.448-4.39 2.472z" fill="#5452cd"/><path d="M337.327 1090.203l-.192-4.5 4.39-2.472 5.646 2.563-.044 4.385-5.4-2.448z" fill="url(#h)" transform="translate(-14.052 -4.144)"/><path d="M321.907 1088.694l1.17-.642 2.538 1.148-1.17.642z" class="B"/></g></g><g transform="translate(351.781 -545.175)"><g transform="matrix(.979353 0 .042662 .962076 -137.454845 72.164344)"><use xlink:href="#Ac" transform="matrix(1.021082 0 -.045279 1.039419 55.685501 -66.413038)" fill="url(#I)"/><g transform="matrix(.945083 -.326829 .178999 -.983849 0 0)"><ellipse ry="8.549" rx="7.274" cy="-1725.591" cx="392.527" class="F"/><ellipse cx="392.527" cy="-1725.591" rx="6.596" ry="7.752" class="G"/></g><ellipse ry="6.786" rx="5.886" transform="matrix(.947279 -.320409 .182877 -.983136 0 0)" cy="-1726.597" cx="399.016" class="B"/></g><g transform="matrix(.860675 0 0 1 41.88149 32.642564)"><use xlink:href="#Ad" fill="url(#J)"/><rect rx="4.374" transform="matrix(.879762 -.475415 0 -1 0 0)" y="-1513.405" x="-83.529" height="11.417" width="8.749" fill="url(#K)"/></g><path d="M-1.136 1602.456s1.692.818 2.725.916c2.07.198 4.457-.015 6.17-.725 2.75-1.14 3.682-3.233 4.307-5.467.287-1.028-.218-1.97-.4-3.18-.09-.622-.297-2.092-1.328-2.245-.895-.132.237 1.834.237 1.834-.102.3-.405.223-.618.19-.428-.068-.4-.867-1.062-.747-.383.068-1.104-.237-1.23.157-.148.463 1.073.988 1.073.988l.4.53c.752.618.728 1.663.893 2.537-.654 2.304-2.718 3.37-4.157 4.03 0 0-1.757.54-2.68.468-.66-.05-1.497-.508-1.706-.61-.806-.395-3.414.83-2.62 1.324z" fill="url(#P)"/><g transform="matrix(1 0 0 .947166 -61.176465 96.664955)"><use xlink:href="#Ae" fill="url(#Q)"/><rect width="14.01" height="18.284" x="-1547.22" y="1559.032" transform="matrix(.850095 -.526629 .867456 .497514 0 0)" ry="1.586" class="M"/></g><path d="M-9.946 1589.05l13.12-7.46 13.12 7.785-13.227 7.75z" class="I"/><path d="M-9.946 1589.05v-5.37l13.097-7.56.022 5.47z" fill="#e67239"/><path d="M3.173 1581.6l13.12 7.785v-5.478l-13.14-7.778z" fill="#fd964b"/><path d="M.595 1591.713l6.46-3.698 3.827 2.367-6.336 3.65z" fill="#ffc16a"/><rect width="4.611" height="2.041" x="-957.101" y="-1412.852" transform="matrix(.877021 -.480451 -.597213 -.802083 0 0)" ry="1.02" fill="#f8f7f2"/><g transform="translate(51.059 32.311)"><g transform="matrix(.924196 -.381919 0 -1 -109.719 -59.117)"><ellipse ry="2.3" rx="1.94" cy="-1637.721" cx="43.268" class="N"/><ellipse cx="43.268" cy="-1637.721" rx="1.686" ry="1.999" class="O"/></g><use xlink:href="#Af" fill="url(#M)"/></g><path d="M9.966 1593.78c-.428-.068-.4-.867-1.062-.747-.383.068-1.104-.237-1.23.157-.148.463 1.073.988 1.073.988l.4.53c2.77-.186.875-.937.83-.928z" fill="url(#P)"/><g transform="translate(-100.314 -4.17)"><use xlink:href="#Ac" fill="url(#I)"/><g transform="matrix(.979353 0 .042662 .962076 -51.70244 63.894355)"><g transform="matrix(.945083 -.326829 .178999 -.983849 0 0)"><ellipse ry="8.549" rx="7.274" cy="-1725.591" cx="392.527" class="F"/><ellipse cx="392.527" cy="-1725.591" rx="6.596" ry="7.752" class="G"/></g><ellipse ry="6.786" rx="5.886" transform="matrix(.947279 -.320409 .182877 -.983136 0 0)" cy="-1726.597" cx="399.016" fill="url(#N)"/></g></g><g transform="translate(53.802 39.188)"><use xlink:href="#Ag" fill="url(#S)"/><g transform="translate(-134.625 -39.188)"><g transform="translate(-17.103 -4.64)"><use xlink:href="#Ah" transform="matrix(.75 0 0 -.75 1.351235 1675.7045)" fill="url(#T)"/><use xlink:href="#Ai" fill="url(#V)"/><use xlink:href="#Aj" fill="url(#X)"/></g><use xlink:href="#Ak" fill="none" stroke="#fff" class="P T U"/></g></g></g><g transform="translate(-11.25 -146.812)"><use xlink:href="#Al" x="66.827" y="18.603" class="B"/><use xlink:href="#Am" x="66.827" y="18.602" class="E"/><use xlink:href="#An" x="66.827" y="18.603" class="D"/><use xlink:href="#Al" x="115.51" y="45.068" class="B"/><use xlink:href="#Am" x="115.51" y="45.068" class="E"/><use xlink:href="#An" x="115.51" y="45.068" class="D"/><use xlink:href="#Al" x="133.135" y="34.662" class="B"/><use xlink:href="#Am" x="133.145" y="34.662" class="E"/><use xlink:href="#An" x="133.134" y="34.662" class="D"/><use xlink:href="#Ao" x="66.827" y="18.604" fill="url(#i)" class="C"/><path d="M412.187 1173.08h35.04v2.39H412.4z" fill="url(#j)" class="C"/><use xlink:href="#Ao" x="133.507" y="35.168" fill="url(#i)" class="C"/><g class="H"><use xlink:href="#Ap" x="66.826" y="18.603"/><use xlink:href="#Aq" x="66.826" y="18.603"/><use xlink:href="#Ar" x="66.826" y="18.602"/></g><use xlink:href="#As" x="66.827" y="18.602" class="B"/><path d="M363.093 1185.638h35.04v2.39h-33.037l-.024-1.327z" fill="url(#k)" class="C"/><g class="H"><use xlink:href="#Ap" x="66.826" y="-8.267"/><use xlink:href="#Aq" x="66.826" y="-8.267"/><use xlink:href="#Ar" x="66.826" y="-8.268"/></g><use xlink:href="#At" x="66.827" y="18.604" class="B"/><path d="M363.093 1158.767l35.04-.31v2.787H365.1l.115-1.362z" fill="url(#l)" class="C"/><g transform="translate(12.83 146.489)"><path d="M366.37 1019.308l7.893-4.485 10.07 5.64-7.574 4.63z" class="I"/><path d="M366.16 1019.077v-4.445l7.71-4.382 10.295 5.752-.042 4.232-10.07-5.64z" fill="url(#n)" transform="translate(.208 .231)"/><g transform="translate(94.228 -31.731)"><path d="M296.823 1065.644l7.66-3.92 7.883 4.513-7.143 4.233z" class="I"/><path d="M390.3 1033.718v-6.036l7.478-3.82 8.107 4.625-.042 5.823-7.883-4.513z" fill="url(#o)" transform="translate(-93.487 31.926)"/><path d="M307.82 1061.04l-.006-.965 2.256 1.306.006.965z" fill="#5b54c8"/></g><g transform="translate(-32.218 3.845)"><path d="M415.004 1024.92l8.686-4.89 5.4 2.448-8.87 5.085z" class="R"/><path d="M415.004 1024.92v-4.607l8.494-4.783 5.646 2.563-.044 4.385-5.4-2.448z" fill="#372f96"/><path d="M412.96 1024.002l8.686-4.89 2.045.92-8.686 4.89z" fill="#5652cb"/><path d="M409.247 1022.974l.012-3.95 8.705-5.38 2.042.957-.028 4.405-2.045-.92z" fill="url(#p)" transform="translate(3.712 1.028)"/></g></g><use xlink:href="#Al" x="84.452" y="8.196" class="B"/><use xlink:href="#Am" x="84.453" y="8.197" class="E"/><use xlink:href="#An" x="84.454" y="8.196" class="D"/><use xlink:href="#Ao" x="10.418" y="-18.514" fill="url(#b)" transform="translate(74.035 26.712)" class="C"/><g transform="matrix(.97756 0 0 .950669 22.450332 204.65254)"><path d="M387.878 1055.287l10.94-6.248 9.85 5.96-10.858 6.145z" class="R"/><use xlink:href="#Ax" fill="url(#m)"/><g transform="translate(-8.154 13.722)"><path d="M379.918 1033.738l11.838-6.36 10.66 6.068-11.75 6.256z" class="I"/><use xlink:href="#Ax" fill="url(#q)" transform="matrix(1.082051 0 0 1.017963 -39.785746 -40.505376)"/><path d="M384.184 1034.206l4.096-2.205 6.666 3.71-4.196 2.138z" fill="#ffc16a"/><path d="M387.617 1034.738l1.07-.565 2.66 1.48-1.1.538z" class="B"/></g><path d="M361.447 1038.955l9.587-5.48 6.96 3.963-9.53 5.41z" class="J"/><use xlink:href="#Ay" fill="url(#r)" transform="translate(10.341 4.607)"/></g></g><g transform="translate(-41.365 87.77)"><use xlink:href="#Al" x="152.702" y="-248.023" class="B"/><use xlink:href="#Am" x="152.702" y="-248.022" class="E"/><use xlink:href="#An" x="152.702" y="-248.022" class="D"/><use xlink:href="#Al" x="201.385" y="-221.558" class="B"/><use xlink:href="#Am" x="201.385" y="-221.558" class="E"/><use xlink:href="#An" x="201.384" y="-221.557" class="D"/><use xlink:href="#Al" x="219.01" y="-231.963" class="B"/><use xlink:href="#Am" x="219.01" y="-231.963" class="E"/><use xlink:href="#An" x="219.01" y="-231.964" class="D"/><path d="M449.007 879.487h35.04v2.39H449.22z" fill="url(#s)" class="C"/><use xlink:href="#Ao" x="201.757" y="-221.052" fill="url(#b)" class="C"/><path d="M515.687 896.05h35.04v2.39H515.9z" fill="url(#t)" class="C"/><g class="H"><use xlink:href="#Ap" x="152.7" y="-248.022"/><use xlink:href="#Aq" x="152.702" y="-248.022"/><use xlink:href="#Ar" x="152.7" y="-248.023"/></g><use xlink:href="#As" x="152.702" y="-248.023" class="B"/><path d="M448.968 919.013h35.04v2.39H450.97l-.024-1.327z" fill="url(#u)" class="C"/><g class="H"><use xlink:href="#Ap" x="152.7" y="-274.892"/><use xlink:href="#Aq" x="152.702" y="-274.892"/><use xlink:href="#Ar" x="152.7" y="-274.893"/></g><use xlink:href="#At" x="152.702" y="-248.021" class="B"/><path d="M448.968 892.142l35.04-.31v2.787h-33.03l.115-1.362z" fill="url(#v)" class="C"/><use xlink:href="#Al" x="170.328" y="-258.43" class="B"/><use xlink:href="#Am" x="170.328" y="-258.428" class="E"/><use xlink:href="#An" x="170.328" y="-258.428" class="D"/><use xlink:href="#Ao" x="10.418" y="-18.514" fill="url(#b)" transform="translate(159.91 -239.913)" class="C"/><path d="M461.662 925.73l9.372-5.21 6.805 3.767-9.315 5.144z" class="J"/><use xlink:href="#Ay" fill="url(#r)" transform="matrix(.97756 0 0 .950669 118.4347 -57.592499)"/><path d="M472.265 932.503l11.216-6.27 10.362 5.653-11.258 6.56z" class="Q"/><use xlink:href="#Aw" fill="url(#g)" transform="matrix(.967162 0 .021173 .967162 154.35681 -116.20377)"/><path d="M477.112 929.794l2.487-1.386 10.445 5.694-2.35 1.387z" class="B"/><g transform="translate(179.861 -131.107)"><use xlink:href="#Au" class="B"/><use xlink:href="#Av" fill="url(#f)" transform="matrix(1.030861 0 0 1 -9.855842 -.204152)"/><ellipse cx="318.62" cy="-1072.091" transform="scale(1 -1)" rx="2.372" ry="1.42" fill="#7f7dfc"/></g></g></g><g transform="matrix(1 0 0 1.038072 -77.757585 229.69506)"><g transform="matrix(1.230369 0 .053597 1.036717 387.021341 -1121.837493)"><use xlink:href="#Ac" transform="matrix(1.021082 0 -.045279 1.039419 55.685501 -66.413038)" fill="url(#I)"/><g transform="matrix(.945083 -.326829 .178999 -.983849 0 0)"><ellipse cx="392.527" cy="-1725.591" rx="7.274" ry="8.549" class="F"/><ellipse ry="7.752" rx="6.596" cy="-1725.591" cx="392.527" class="G"/></g><ellipse cx="399.016" cy="-1726.597" transform="matrix(.947279 -.320409 .182877 -.983136 0 0)" rx="5.886" ry="6.786" class="B"/></g><g transform="matrix(1.081274 0 0 1.077583 612.05759 -1161.1777)"><use xlink:href="#Ad" fill="url(#J)"/><rect width="8.749" height="11.417" x="-83.529" y="-1513.405" transform="matrix(.879762 -.475415 0 -1 0 0)" rx="4.374" fill="url(#K)"/></g><path d="M542.824 530.774s2.96 1.21 4.31 2.298c2.7 2.178 4.34 5.442 3.884 8.534-.574 3.886-4.565 6.594-7.776 8.857-1.17.825-2.396.732-3.992 1.584-.82.438-2.762 1.477-4.17.44-1.22-.9 2.393-1.32 2.393-1.32.212-.367-.228-.656-.52-.865-.573-.4-1.523-.185-2.13-.558-.6-.368-1.66-1.014-1.288-1.532.417-.58 1.605.307 2.418.36.36.024 1.076-.018 1.076-.018 1.6.318 2.783-.616 3.984-1.186 3.008-1.48 5.705-3.396 6.078-5.83s.617-3.9-2.662-6.642c-1.417-.572-3.122-4.595-1.607-4.12z" fill="url(#AJ)"/><g transform="matrix(1.256308 0 0 1.02065 476.81767 -1092.9837)"><use xlink:href="#Ae" fill="url(#AE)"/><rect ry="1.586" transform="matrix(.850095 -.526629 .867456 .497514 0 0)" y="1559.032" x="-1547.22" height="18.284" width="14.01" class="M"/></g><g transform="matrix(0 1.256308 1.077583 0 -1153.7032 609.38206)"><g transform="matrix(.924196 -.381919 0 -1 -109.719 -59.117)"><ellipse cx="43.268" cy="-1637.721" rx="1.94" ry="2.3" class="N"/><ellipse ry="1.999" rx="1.686" cy="-1637.721" cx="43.268" class="O"/></g><use xlink:href="#Af" fill="url(#M)"/></g><g transform="matrix(1.256308 0 0 1.077583 432.75379 -1203.5637)"><use xlink:href="#Ac" fill="url(#I)"/><g transform="matrix(.979353 0 .042662 .962076 -51.70244 63.894355)"><g transform="matrix(.945083 -.326829 .178999 -.983849 0 0)"><ellipse cx="392.527" cy="-1725.591" rx="7.274" ry="8.549" class="F"/><ellipse ry="7.752" rx="6.596" cy="-1725.591" cx="392.527" class="G"/></g><ellipse cx="399.016" cy="-1726.597" transform="matrix(.947279 -.320409 .182877 -.983136 0 0)" rx="5.886" ry="6.786" fill="url(#N)"/></g></g><g transform="matrix(1.256308 0 0 1.077583 621.26583 -1154.9204)"><path d="M-64.92 1559.368s3.636-.53 5.132.265c4.68 2.486 6.993 4.34 6.993 4.34l-4.435 2.753-8.353 1.16z" fill="url(#AK)"/><use xlink:href="#Ah" transform="matrix(.75 0 0 -.75 -150.376765 1631.8765)" fill="url(#AG)"/><use xlink:href="#Ai" x="-151.728" y="-43.828" class="D"/></g><path d="M547.025 533.108s2.33.075 2.33-1.992v-2.022m-4.16 3.355s2.33.075 2.33-1.992v-2.022" fill="none" stroke="#4845c8" stroke-width=".357" class="P"/></g><g transform="translate(-1.252 277.825)"><g transform="translate(-.328 -1.5)"><path d="M313.305 453.873v20.815l59.762-34.538 19.125 11.12V435.28l-17.73-10.236 18.842-10.878 17.834 10.297v-6.23l-18.144-10.476z" fill="url(#AW)"/><path transform="matrix(.75 0 0 -.75 56.191105 890.22617)" d="M352 529.725l-19.9 18.02-1.287-.584v1.75L422.5 601.85l27.75-15.875v-1.756l-1.525.883z" fill="url(#AX)"/><path d="M373.066 440.15l20.813 11.906-73.688 42.188-15.89-14.39z" fill="#f3f2f8"/></g><path d="M374.134 423.543l26.026-.126-8.297 10.362z" fill="url(#AY)"/></g><g transform="translate(96.525 306.565)"><g transform="translate(-100.763 -25.986)"><use xlink:href="#Az" fill="url(#AO)"/><use xlink:href="#BA" fill="url(#AP)"/></g><g transform="matrix(1.034318 -.035999 .031234 1.004881 -147.211822 -15.827955)"><path d="M382.356 460.188l7.915 11.17 14.735-8.7-8.314-11.118z" class="B"/><path d="M362.847 459.323l7.453 10.22 13.875-7.97-7.828-10.172z" fill="url(#AL)" transform="matrix(1 0 0 1.029197 20.170286 -12.472226)"/><path d="M393.03 464.278l3.467-1.947-.928-1-3.467 1.947zm-1.625-1.778l3.467-1.947-.928-1-3.467 1.947z" fill="#ffb36d"/><path d="M382.356 460.188l-.114-1.07 14.675-8.734-.224 1.146z" fill="url(#AM)"/><path d="M405.007 462.648l.39-1.074-8.48-11.2-.224 1.146z" fill="url(#AN)"/></g></g><use xlink:href="#BB" fill="url(#AQ)" transform="translate(3.17 302.456)"/><path d="M339.433 746.65v.69l.996-.598z" fill="#5452cf"/><path d="M359.646 744.466v-.684l-1.154.666z" fill="#4039a9"/><use xlink:href="#BB" x="3.17" y="303.136" fill="#f3f2f8"/><g transform="translate(-5.943 333.75)"><g transform="translate(-44.017 -27.047)"><use xlink:href="#Az" fill="url(#AR)"/><use xlink:href="#BA" fill="url(#AS)"/></g><path d="M319.385 431.78l8.536 10.94 14.97-9.283-8.946-10.873z" class="B"/><path d="M320.072 431.83l8.037 10.3 14.095-8.74-8.424-10.238z" fill="url(#AT)"/><path d="M319.385 431.78l-.15-1.072 14.906-9.305-.196 1.16z" fill="url(#AU)"/><path d="M342.9 433.437l.37-1.094-9.12-10.94-.196 1.16z" fill="url(#AV)"/><path d="M329.298 433.086l5.98-3.77-2.405-3.054-5.91 3.72z" class="J"/><path d="M336.52 434.773l3.48-2.137-2.405-3.054-3.4 2.086z" fill="#f9944b"/><path d="M332.276 437.444l3.36-2.075-2.405-3.054-3.288 2.025z" fill="#ffaf6e"/><path d="M328.122 440.083l3.388-2.138-2.405-3.054-3.318 2.087z" class="I"/><path d="M325.294 435.95l3.382-2.134-3.156-3.443-3.312 2.084z" class="Q"/></g><g transform="translate(31.434 -207.893)"><path d="M262.072 980.45c.025.1-1.118-7.13 2.705-10.716 2.116-1.984-1.956-3.123-1.437-1.89.735 1.748-2.504 6.587-2.805 7.16-.265.597-1.127 3.944-.928 4.243s2.022 1.856 2.022 1.856z" fill="#fbd0ab"/><use xlink:href="#BC" fill="#26217b"/><g class="B"><use xlink:href="#BD"/><use xlink:href="#BE"/></g><use xlink:href="#BF" class="K"/><g transform="matrix(.879892 0 0 1 -1.823969 -7.387907)"><use xlink:href="#BC" x="41.323" y="9.374" fill="#26217b"/><g class="B"><use xlink:href="#BD" x="41.323" y="9.375"/><use xlink:href="#BE" x="41.323" y="9.375"/></g><use xlink:href="#BF" x="41.323" y="9.376" class="K"/></g><path d="M254.332 987.745c-1.903.49-1.78-2.562-2.672-3.844 0 0 4.313-3.328 2.016-10.172s-2.156-9.328-2.156-9.328l-.524-8.5c-.785-.94 8.677-4.792 13.883 3.624 1.744 2.82-3.703 15.844-3.703 15.844-.14 2.72-.047 2.813-.047 2.813s1.914 3.152 1.8 3.716c-.264 1.426-.742 2.04-1.446 4.073-.237 1.363-1.37 1.665-2.07 2.043-2.626 1.42-5.1-.27-5.1-.27z" fill="url(#w)"/><path d="M254.216 987.795l5.554-4.643s.727 2.25-.984 4.36-4.57.284-4.57.284z" class="K"/><path d="M253.646 985.167l-2.782-4.82c-1.78-3.083 1.042-8.594 2.266-8.494 1.164.95 3.644.944 4.453-.28.632-.958-2.088-.763-5.25-.75-1.433 1.164-4.087 4.212-4.008 6.445 0 0-.03 1.335.07 1.992.33 2.177 1.734 6.375 1.734 6.375 1.837 2.062 4.28.855 3.516-.47z" class="S"/><path d="M255.044 988.905c.28-.584 1.246-1.218 1.904-.97.2.075.53.397.333.634-.575-.517-1.652.08-2.237.337z" fill="#ebbf9a"/><path d="M254.9 988.998s1-1.627 2.363-.48c.93 1.134 1.188 1.583 1.38 2.578.176.91.106 2.454-.27 2.785s-1.095.963-1.49.777-1.827-1.61-1.83-2.4l-.155-3.26z" class="K"/><path d="M250.31 981.348c-.803.16-1.626 1.193-1.8 2.32-.2 1.217 1.027.44.975 3.48-.097 5.605 2.54 5.235 2.785 4.872-.368.804 4.14 7.757 6.244 2.254.34-.89-.238-.685-.43-.646-1.078.216-1.93.902-2.38-1.177-.385.2-1.005-2.43-.534-3.977.34-1.112-.71-.427-.905-.796-.215-.405.272-1.16.023-1.525-.173-.253-.503-.088-.743 0-.248.09-.673.53-.673.53-.172.135-.828-.345-.603-1.724.13-.793.102-1.76-.232-2.42-.374-.736-1.087-1.32-1.718-1.193z" fill="#34308e"/></g><g transform="translate(-8.667 -220.871)"><g transform="translate(-.315 .226)"><path d="M308.25 946.975s-.215-.2-.2-1.144c.43-1.376 1.59-1.558 2.983-.945s2.944.442 3.878 1.757c.44.62 1.226 2.154-.83 2.12s-2.95-.646-2.95-.646z" fill="url(#AB)"/><path d="M308.285 947.573l.005-.807c-.01-.012.35-.74 1.352-.515 1.192.268.565 1.462.565 1.462z" class="B"/><path d="M308.004 974.667c-1.72-.87.666-9.273 1.03-13.97 0 0-1.828-2.812-1.22-7.97s.47-5.156.47-5.156c.64-.65 1.28-.585 1.922.14 0 0 1.81 6.1 2.394 9.207l2.528 13.293c-2.375 1.484-3.536 5.033-7.125 4.453z" fill="url(#AA)"/><path d="M308.365 946.992s-.232-.15-.215-1.094.862-2.27 2.254-1.657c1.387.613 3.556.806 4.508 2.403.388.652 1.226 2.154-.83 2.12s-2.95-.646-2.95-.646z" fill="url(#AC)" transform="translate(9.161 -5.63)"/><path d="M317.446 941.943l.005-.807c-.01-.012.574-.962 1.574-.737 1.192.268.342 1.685.342 1.685z" class="B"/><path d="M309.16 973.432s-2.254-3.116 2.718-7.624 3.276-6.87 4.176-10.54c1.064-4.337 1.392-13.325 1.392-13.325.607-.7 1.22-1.384 2.52-.53 1.366 9.444 1.748 19.106 1.525 28.903z" fill="url(#z)"/></g><path d="M328.444 990.142c-.924-.69-.823-1.884-.857-2.25-.037-.4-.283-.458-.283-.458l1.404-1.033s-.012.74.567.868 1.146 1.174 1.256 1.63c.092.382-.506 1.377-1.435 1.292 0 0 .964.988.955 1.665-.002.137-.235.258-.37.21-.86-.3-1.237-1.927-1.237-1.927z" class="S"/><path d="M308.238 976.542s-2.906 3.094-1.734 7.97 3.24 8.48 5.302 8.668.792-3.464.792-3.464z" fill="#c2c6e9"/><path d="M320.05 990.792c-1.177 1.513-3.27 2.515-4.78 3.984 0 0-2.672-.28-3.703-1.64s-3.094-4.125-3.375-8.484l-.787-9.844c.328-.656 2.005-3.562 5.287-4.593s5.72-1.875 8.484.328c.25.923-1.235 20.36-1.125 20.25z" fill="url(#y)"/><path d="M321.28 989.437l1.028-6.33c1.65 1.48 3.63 2.407 4.806 4.674l1.99-1.293-5.07-6.894c-.996-1.168-3.182-2.42-4.574.53s-2.22 7.7-2.22 7.7c-.04 2.612 2.974 4.103 4.044 1.624z" fill="url(#x)"/><path d="M313.207 995.92c-.055-.894-.212-1.743-1.16-2.237 2.052-1.495 3.787-1.147 5.502-.68 0 0-.633.427-.762.762-.077.2-.18.674.033.646 2.812-.363 3.828 5.37 3.25 5.983l-5.038-.315z" class="S"/><path d="M312.7 1000.26l-.15-1.044c-.527-.453-.438-3.094.05-3.812 1.417-1.598 3.113-.86 3.828.53.686.003 1.257.426 1.59 1.707-.34 1.01.684 2.353 1.16 1.044.642.335 1.24 1.492 1.16 2.536 0 0 .144 1.23-.133 1.74-.514.95-1.525 1.696-2.57 1.972-.588.156-1.956-.497-1.956-.497-3.185-1.36-2.877-2.76-2.983-4.176z" fill="#5456c5"/></g><path d="M382.67 703.41l9.512-5.252 8.578 4.737-9.553 5.497z" class="J"/><path d="M81.512 698.898v-3.733L90.87 690l8.77 4.83-.036 3.554-8.578-4.737z" fill="url(#a)" transform="translate(301.159 4.513)"/></g></svg>