<svg xmlns="http://www.w3.org/2000/svg" xmlns:xlink="http://www.w3.org/1999/xlink" width="491.2" height="276.4" shape-rendering="crispEdges"><style><![CDATA[.B{fill:#fff}.C{color-interpolation-filters:sRGB}.D{fill:#a1aad3}.E{fill:#9da8d3}.F{fill:#213b91}.G{fill:#3e6eda}.H{fill:#c7cbc8}.I{font-family:sans-serif}.J{word-spacing:0px}.K{fill:#a2a4d6}.L{fill:#a2abd4}.M{fill:#1c1a32}.N{fill:#f6b0a8}.O{font-weight:bold}.P{fill:#9ca4cb}.Q{fill:#6c7556}.R{fill:#af8109}.S{fill:#f9b814}.T{fill:#4d4d4d}.U{fill:#96969e}.V{fill:#305089}.W{fill:#b1c66b}.X{fill:#244781}.Y{fill:#f0b0a4}.Z{fill:#db8e7e}.a{fill:#b3b3b3}.b{stroke-linejoin:round}.c{opacity:.385}.d{filter:url(#I)}.e{fill:#031847}.f{fill:#387ad0}.g{fill:#435da8}.h{fill:#74462f}.i{stroke-width:.395}]]></style><defs><linearGradient id="A" xlink:href="#AK"><stop offset="0" stop-color="#fff"/><stop offset="1" stop-color="#244781"/></linearGradient><linearGradient id="B" xlink:href="#AK"><stop offset="0" stop-color="#aba3bb"/><stop offset="1" stop-color="#cecdd3"/></linearGradient><linearGradient id="C" xlink:href="#AK"><stop offset="0" stop-color="navy"/><stop offset="1" stop-color="#000042"/></linearGradient><linearGradient id="D" xlink:href="#AK"><stop offset="0" stop-color="#ccc"/><stop offset="1" stop-color="#fff"/></linearGradient><filter id="E" x="-.101" width="1.202" y="-.122" height="1.245" class="C"><feGaussianBlur stdDeviation="1.401"/></filter><filter id="F" x="-.024" width="1.047" y="-.024" height="1.049" class="C"><feGaussianBlur stdDeviation=".095"/></filter><linearGradient id="G" x1="1358.783" y1="1802.12" x2="1368.473" y2="1790.751" xlink:href="#AK"><stop offset="0" stop-color="#ffc900"/><stop offset=".038" stop-color="#f8ba0d"/><stop offset=".967" stop-color="#fdc727"/><stop offset="1" stop-color="#c38605"/></linearGradient><filter id="H" x="-.035" width="1.069" y="-.018" height="1.035" class="C"><feGaussianBlur stdDeviation=".117"/></filter><filter id="I" x="-.263" width="1.526" y="-.434" height="1.867" class="C"><feGaussianBlur stdDeviation="1.212"/></filter><filter id="J" x="-.067" width="1.135" y="-.037" height="1.075" class="C"><feGaussianBlur stdDeviation=".202"/></filter><filter id="K" x="-.011" width="1.022" y="-.011" height="1.023" class="C"><feGaussianBlur stdDeviation=".088"/></filter><filter id="L" x="-.049" width="1.098" y="-.077" height="1.154" class="C"><feGaussianBlur stdDeviation="1.013"/></filter><linearGradient xlink:href="#D" id="M" x1="1408.747" y1="-1728.384" x2="1411.325" y2="-1728.038"/><linearGradient xlink:href="#C" id="N" x1="1416.83" y1="-1728.019" x2="1424" y2="-1728.019"/><linearGradient id="O" x1="1387.101" y1="1694.241" x2="1367.786" y2="1662.885" xlink:href="#AK"><stop offset="0" stop-color="#ccc"/><stop offset=".903" stop-color="#fff"/><stop offset=".937" stop-color="#ededed"/><stop offset="1" stop-color="#f9f9f9" stop-opacity=".978"/></linearGradient><linearGradient id="P" x1="1380.892" y1="1696.93" x2="1372.267" y2="1664.399" xlink:href="#AK"><stop offset="0" stop-color="#fcffff"/><stop offset="1" stop-color="#e6e6e6"/></linearGradient><filter id="Q" x="-.039" width="1.079" y="-.05" height="1.099" class="C"><feGaussianBlur stdDeviation=".57"/></filter><linearGradient id="R" x1="1427.289" y1="1856.038" x2="1427.339" y2="1856.038" xlink:href="#AK"><stop offset="0" stop-color="#f3f3f1"/><stop offset="1" stop-color="#cccbd0"/></linearGradient><linearGradient id="S" x1="1380.24" y1="1904.583" x2="1449.803" y2="1904.583" xlink:href="#AK"><stop offset="0" stop-color="#ececec"/><stop offset="1" stop-color="#ecefed"/></linearGradient><linearGradient xlink:href="#B" id="T" x1="1417.848" y1="1908.164" x2="1418.673" y2="1908.164"/><linearGradient xlink:href="#B" id="U" x1="1429.673" y1="1871.783" x2="1428.973" y2="1871.783"/><filter id="V" x="-.097" width="1.194" y="-.158" height="1.316" class="C"><feGaussianBlur stdDeviation="2.786"/></filter><filter id="W" x="-.068" width="1.136" y="-.11" height="1.22" class="C"><feGaussianBlur stdDeviation="2.686"/></filter><filter id="X" x="-.169" width="1.338" y="-.124" height="1.248" class="C"><feGaussianBlur stdDeviation=".109"/></filter><filter id="Y" x="-.092" width="1.184" y="-.101" height="1.201" class="C"><feGaussianBlur stdDeviation="1.708"/></filter><radialGradient xlink:href="#A" id="Z" cx="1417.381" cy="1652.921" fx="1417.381" fy="1652.921" r="2.839" gradientTransform="matrix(0.33977027,0.51871389,-1.3541379,0.88699341,3174.0807,-548.42424)"/><radialGradient xlink:href="#A" id="a" gradientTransform="matrix(0.33977027,0.51871389,-1.3541379,0.88699341,3174.0807,-548.42424)" cx="1417.381" cy="1652.921" fx="1417.381" fy="1652.921" r="2.839"/><linearGradient xlink:href="#C" id="b" x1="1416.83" y1="-1728.019" x2="1424" y2="-1728.019"/><linearGradient xlink:href="#D" id="c" x1="1408.747" y1="-1728.384" x2="1411.325" y2="-1728.038"/><path id="d" d="M1277.118 1970.594l55.85-32.382c.982-.57 1.1-.94.202-1.635l-30.563-23.6c-.9-.694-2.752-1.046-3.726-.46l-59.126 35.555c-.973.585-1.175 1.05-.203 1.635l33.84 20.426c.972.587 2.743 1.03 3.726.46z"/><path id="e" d="M1646.45 1877.63l12.14 7.03v-13.5l-12.14-7.03z"/><path id="f" d="M1647.06 1877.304l5.038 2.903v-12.144l-5.038-2.903z"/><path id="g" d="M1652.85 1880.608l5.18 2.973v-12.144l-5.18-2.973z"/><path id="h" d="M1346.8 1953.12c-1.283-1.51-3.122 2.478-2.386 4.1 2.923 4.4 9.845 7.153 15.18-6.894 1.224-3.222-1.363-7.088-2.917-2.52-.786 2.127-4.812 11.264-9.877 5.303z"/><path id="i" d="M1345.387 1961.146c-1.956-2.2-4.76 3.63-3.64 6.018 4.457 6.443 15.014 10.473 23.153-10.095 1.867-4.718-2.078-10.378-4.45-3.688-1.198 3.114-7.34 16.493-15.065 7.765z"/><path id="j" d="M1490.5 1924.823l34.013-20.075 6.394-3.728v-32.342c0-3.542-2.87-4.782-6.394-2.71l-40.377 23.743-.03 6.412v26c0 3.542 2.852 4.75 6.394 2.71z"/><path id="k" d="M1461.762 1810.05l-.074 3.85 13.697-7.732-.022-4.61z"/><path id="l" d="M1504.277 1818.3l-.074 3.85-28.82-15.982-.022-4.61z"/><path id="m" d="M1461.688 1813.898l28.212 16.414 14.303-8.164-28.82-15.982z"/><path id="n" d="M1467.764 1812.36c1.55 1.21 1.553 2.427.01 3.646l19.22 10.956c2.14-1.392 3.627-1.713 5.775-.013l5.056-2.998c-2.326-.54-1.668-3.124-.473-3.744l-17.96-10.594c-2.198 1.385-4.565 1.16-6.327-.353z"/><path id="o" d="M1474.415 1821.405l13.523-8.32 4.08 2.3-14.067 8.1z"/><path id="p" d="M1487.938 1813.085l.016-4.238 4.067 2.29v4.24z"/><path id="q" d="M1488.657 1785.013v-4.073l-13.353-8.436-.025 4.356z"/><path id="r" d="M1460.222 1801.74l28.435-16.726-13.374-8.153-27.884 16.66z"/><path id="s" d="M1482.606 1783.894c-1.796.705-2.167 1.94-.815 3.194l-17.825 10.898c-2.226-.824-3.46-.888-5 .554l-5-3.26c2.315-1.917.112-3.43-.69-3.58l18.666-10.97c1.88 1.698 4.556 1.656 6.32.2z"/><path id="t" d="M1475.304 1772.504l-.025 4.356-27.88 16.66-.024-4.5z"/><path id="u" d="M1459.617 1786.177l.01-4.42 3.085-1.804-.013 4.426z"/><path id="v" d="M1412.796 1955.882c-.438.806.822 1.97 1.89 1.7l4.55-7.8c.658-1.128-.067-2.004-.626-2.32l-5.002-2.825c-.572-.153-1.805 1.797-1.118 2.17l3.884 2.208c.334.205.172.45.095.602z"/><path id="w" d="M1413.204 1955.686c-.45.772.587 2.013 1.56 1.807l4.64-7.452c.67-1.077.1-1.997-.386-2.35l-4.25-3.144c-.498-.2-1.744 1.666-1.16 2.084l3.3 2.455c.283.226.12.458.04.605z"/><path id="x" d="M1531.864 1517.278c1.19-.847 3.23-2.058 3.117-3.117v-14.273c-.005-.628.96-.638 1.148 0v15.047c-.133 1.808-2.407 2.68-3.773 3.773-.626.005-.886-1.034-.492-1.43z"/><path id="y" d="M1474.53 1743.28l.655 1.177.456-.456-.43-1.185z"/><path id="z" d="M1504.044 1713.797l-.978-1.7-.878 1.02 1.765.696z"/><path id="AA" d="M1405.525 1659.78l5.93-3.656-.27-4.43-5.93 3.656z"/><path id="AB" d="M1414.542 1656.647l5.678-3.43-.215-4.023-5.463 3.363z"/><path id="AC" d="M1409.83 1649.403l1.465 2.28-5.952 3.603-1.465-2.28z"/><path id="AD" d="M1409.635 1649.592l1.5 2.124-5.583 3.38-1.5-2.124z"/><path id="AE" d="M1358.478 1860.6c.24-1.157.103-2.033-.366-2.662.54-.675 2.703-1.316 3.86.21-.716.63-.504 1.807-.632 2.783-1.116-.998-2.07-1.11-2.86-.333z"/><path id="AF" d="M1358.478 1860.6s.272-1.385.83-1.48c.895-.15 2.032 1.81 2.032 1.81-1.002-.904-2.003-1.797-2.86-.333z"/><path id="AG" d="M1357.37 1863.362c0 0 .856-3.607 2.107-3.748.887-.1 2.224 1.556 2.196 1.996l.7 2.04-2.074 1.73c-1.245-.12-2-.434-2.662-.787-.595-.36-.198-.82-.266-1.23z"/><path id="AH" d="M1217.097 1606.915c-.02.584.18 1.232.65 1.216.353-.012.78-.118 1.11-.083.413.044.633.256 1.02.117.683-.245 1.224-.674 1.176-1.505 1.2 1.487.724-.732.43-.675-.458.09.082-1.015-.02-1.454.187 1.116.946 1.806.753 3.162-.18 1.268-.874 2.178-1.78 2.475-.93.305-2.063-.563-3.33-.294-.564.12-.72-1.414-.01-2.96z"/><path id="AI" d="M1405.525 1659.78l5.93-3.656-.27-4.43-5.843 3.593z"/><path id="AJ" d="M1523.41 1762.238c.118-.748.443-1.83.154-1.925 0 0-4.008-1.124-4.425-.868-.98.602 2.023 2.092 2.182 2.658.648-.29 1.324-.385 2.09.135z"/><linearGradient id="AK" gradientUnits="userSpaceOnUse"/></defs><g transform="matrix(1.333333 0 0 -1.333333 -1565.2214 2579.9694)"><use xlink:href="#d" filter="url(#W)" transform="translate(100.091 -87.723)" class="a"/><use xlink:href="#d" x="99.716" y="-88.379" fill="#082475"/><path d="M1377.584 1883.528l55.85-32.382c.983-.57 1.1-.94.202-1.635l-30.563-23.6c-.9-.694-2.752-1.046-3.726-.46l-59.126 35.555c-.973.585-1.175 1.05-.203 1.635l33.84 20.426c.972.587 2.743 1.03 3.726.46z" fill="#f9f4f8"/><path d="M1373.837 1854.13c-.197-.01-.39-.067-.538-.17-.293-.21-.28-.524.032-.706l7.44-4.355a1.09 1.09 0 0 1 1.09.048c.293.21.28.525-.032.707l-7.44 4.355a1.02 1.02 0 0 1-.552.122zm-2.805-2.002c-.197-.01-.392-.067-.54-.17-.293-.21-.28-.524.032-.706l20.093-11.76a1.09 1.09 0 0 1 1.09.048c.293.21.28.524-.032.706l-20.092 11.763a1.02 1.02 0 0 1-.552.122zm-2.53-1.888c-.197-.01-.392-.067-.54-.17-.293-.21-.28-.525.032-.707l11.496-6.73a1.09 1.09 0 0 1 1.091.05c.293.21.28.524-.032.706l-11.496 6.73a1.02 1.02 0 0 1-.552.123zm15.56-2.093c-.197-.01-.392-.067-.54-.17-.293-.21-.28-.525.032-.707l14.34-8.395a1.09 1.09 0 0 1 1.091.05c.293.21.28.524-.032.706l-14.34 8.395a1.02 1.02 0 0 1-.552.123zm-1.572-6.095c-.197-.01-.392-.067-.54-.17-.293-.21-.28-.524.032-.706l8.076-4.727a1.09 1.09 0 0 1 1.09.048c.293.21.28.525-.032.707l-8.076 4.727c-.156.09-.354.13-.55.122zm12.057-3.688c-.197-.01-.39-.067-.538-.17-.293-.21-.28-.524.03-.706l14.342-8.395a1.09 1.09 0 0 1 1.09.048c.293.21.28.526-.032.708l-14.34 8.395a1.02 1.02 0 0 1-.552.121zm7.28-.615c-.197-.01-.392-.067-.54-.17-.293-.21-.28-.525.032-.707l20.093-11.76a1.09 1.09 0 0 1 1.09.05c.293.21.28.524-.032.706l-20.092 11.76a1.02 1.02 0 0 1-.552.123zm-9.15-1.658c-.197-.01-.39-.067-.538-.17-.293-.21-.28-.525.03-.707l3.97-2.323a1.09 1.09 0 0 1 1.091.048c.293.21.28.524-.032.706l-3.97 2.325a1.02 1.02 0 0 1-.552.123z" class="a"/><path d="M1358.905 1866.668l12.365-7.886c.5-.32.43-.947-.097-1.317l-6.996-4.906c-.53-.37-1.31-.34-1.8-.02l-12.365 7.886c-.502.32-.43.947.098 1.317l6.996 4.906c.528.37 1.31.34 1.8.02z" fill="#f7b314"/><path d="M1355.778 1857.192l4.077 3.355 3.72-2.137-4.05-3.572m-6.984 4.478l4.204 3.072 8.39-4.947 3.383 2.627m-14.335 4.042l7.088-4.283 3.372 2.84" fill="none" stroke="#bb7800" stroke-width=".802" stroke-linecap="round" class="b"/><path d="M1375.13 1873.197c-.595.583-1.014 1.55-.957 2.216.092 1.08 1.44 1.664 3.423 1.48 1.494-.14 3.117-.693 4.577-1.564 1.07-.638 2.092-1.468 2.67-2.17.427-.517.66-.967.756-1.455l.02-.106c.13-.503.326-.9-.882-1.44-.016-.038-.42-.177-.623-.216-1.038-.196-2.13.01-3.13.58-.318.182-.522.327-.913.65-.545.45-.585.468-1.3.578-1.125.172-2.03.43-2.673.765-.363.188-.728.445-.972.683zm1.207-.058c.356-.2.76-.317 1.067-.28.432.052.495.4.137.76-.437.44-1.265.68-1.622.472-.316-.184-.118-.634.42-.95zm-.207 1.673c.518-.335 1.182-.426 1.4-.19.22.227-.04.654-.58.946-.27.146-.636.246-.88.24-.557-.014-.632-.437-.15-.855a2.85 2.85 0 0 1 .198-.14zm2.198.138c.693-.41 1.48-.366 1.43.08-.045.402-.747.88-1.384.943-.408.04-.646-.098-.618-.354.024-.217.244-.473.572-.667zm2.886-1.056c.432-.235.946-.307 1.193-.166.296.168.15.58-.318.893-.374.25-.836.385-1.17.343-.415-.052-.483-.38-.155-.737.1-.097.286-.246.45-.332z" fill="#d4ccd9"/><g transform="matrix(1.00854 0 0 1.001988 -39.196683 169.2219)"><path d="M1390.937 1641.6l95.727 56.907c2.467 1.466 4.28 2.98 6.722 1.47l44.18-27.343c1.204-.745 1.537-3.864-.944-5.305l-98.355-57.144c-2.48-1.442-5.685-.887-8.13.616l-39.676 24.403c-2.445 1.504-1.992 4.93.475 6.396z" fill="#3846cf"/><path d="M1391.225 1641.76l96.513 57.286c2.487 1.476 4.317 3 6.777 1.48L1539.06 1673c1.213-.75 1.55-3.9-.952-5.34l-99.162-57.524c-2.5-1.45-5.732-.893-8.196.62l-40.002 24.566c-2.465 1.514-2.008 4.962.48 6.44z" fill="#a6a6c9"/><path d="M1388.436 1644.075l97.593 57.403c2.515 1.48 4.365 3.007 6.853 1.483l45.042-27.582c1.227-.75 1.567-3.898-.962-5.352l-100.272-57.642c-2.53-1.454-5.796-.895-8.288.622l-40.45 24.616c-2.492 1.517-2.03 4.973.484 6.452z" class="B"/><path d="M1390.12 1644.16l95.625 56.245c2.464 1.45 4.09 3.134 6.527 1.64l44.134-27.025c1.202-.736 2.402-2.782-1.88-5.244l-98.25-56.48c-2.478-1.425-4.74-.877-7.183.61l-39.634 24.12c-2.442 1.486-1.803 4.685.662 6.134z" fill="#3873cf"/><path d="M1498.693 1698.55c-1.503-.017-2.88-1.03-4.378-2.304l-2.357-2.004c-2.178-1.852-2.49-1.372-.064-2.887l24.518-15.325c5.272-3.296 5.416-2.05 7.652-.797 2.085 1.17 5.66 3.76 5.82 4.403.078.314-2.213 1.51-2.213 1.51l-26.83 16.743c-.758.473-1.466.67-2.15.662zm4.324-5.082c.392.01.792-.077 1.156-.327l17.023-10.635s1.454-.76 1.405-.958c-.102-.41-.067-.2-.44-.5-1.255-1.037-1.51-1.587-4.856.507l-15.558 9.735c-1.233.772-1.455.98-.678 1.443.367.282 1.128.722 1.95.744z" class="B"/><path d="M1428.84 1629.357l18.76 10.872-9.148 6.165-19.158-11.667z" fill="#0a31b0"/><path d="M1417.125 1637.325l15.084-9.454c.535-.335.716-1.172.164-1.48l-9.028-5.015c-.552-.307-1.182-.525-1.718-.192l-15.124 9.413c-.537.333-.716 1.17-.164 1.48l9.07 5.056c.552.308 1.183.527 1.718.192z" fill="#163673"/><path d="M1417.412 1636.286l13.142-8.236c.466-.292.624-1.022.143-1.29l-7.866-4.37c-.48-.267-1.03-.458-1.497-.167l-13.177 8.2c-.467.3-.624 1.02-.143 1.29l7.9 4.405c.48.268 1.03.46 1.497.167z" class="B"/></g><g transform="translate(-214.564 -4.452)"><path d="M1612.093 1829.582l38.243 23.492 30.815-19.18-38.966-23.204z" fill="#082455" filter="url(#V)"/><path d="M1649.446 1860.208l-36.187-28.397-1.166-1.292 30.114-18.283 38.944 22.596.07.857-2.58 2.817zm.694-6.375l26.218-16.198-34.05-20.105-26.363 16.772z" fill="#a2aee4"/><path d="M1612.093 1830.52l.02-.385 30.07-18.506 38.956 23.187.1.918-39.034-23.45z" fill="#223996"/><g transform="translate(214.519 3.712)"><path d="M1398.628 1827.984l.265 69.01 28.588-17.255 38.295 22.1v-69.62l-38.104-22z" fill="url(#R)"/><g transform="translate(.265 .663)"><g transform="translate(17.813 -.187)"><path d="M1417.74 1925.396l-37.5-22.687 31.22-18.937 38.344 22.22zm.602-5.53l22.75-14.055-29.546-17.445-22.875 14.553z" fill="url(#S)"/><path d="M1388.67 1902.918l6.205-4 23.4 13.523 16.838-10.21 5.977 3.578-22.75 14.055z" fill="url(#T)"/></g><path d="M1398.053 1902.52l-.217-5.948 31.37-20.414 38.588 22.697-.178 6.946-38.344-22.22z" fill="url(#U)"/><path d="M1412.688 1898.73l23.4 13.523 16.838-10.21-23.57-13.867z" fill="#3974ce"/></g></g><use xlink:href="#e" class="B"/><use xlink:href="#f" class="D"/><use xlink:href="#g" class="E"/><use xlink:href="#e" x="16.772" y="9.744" class="B"/><use xlink:href="#f" x="16.772" y="9.746" class="D"/><use xlink:href="#g" x="16.77" y="9.745" class="E"/><use xlink:href="#e" y="-18.94" class="B"/><use xlink:href="#f" y="-18.938" class="D"/><path d="M1652.85 1861.67l5.18 2.973V1852.5l-5.18-2.973z" class="E"/><use xlink:href="#e" x="16.772" y="-9.194" class="B"/><use xlink:href="#f" x="16.772" y="-9.194" class="D"/><use xlink:href="#g" x="16.77" y="-9.193" class="E"/><use xlink:href="#e" y="-44.73" class="B"/><use xlink:href="#f" y="-44.719" class="D"/><use xlink:href="#g" y="-44.718" class="E"/><use xlink:href="#e" x="16.772" y="-34.975" class="B"/><use xlink:href="#f" x="16.772" y="-34.974" class="D"/><use xlink:href="#g" x="16.77" y="-34.974" class="E"/><g transform="matrix(-.870297 0 0 1 2886.5831 1.4045)"><use xlink:href="#e" x="-213.784" y="-2.72" class="B"/><use xlink:href="#f" x="-213.784" y="-2.717" class="D"/><use xlink:href="#g" x="-213.785" y="-2.718" class="E"/><use xlink:href="#e" x="-197.012" y="7.027" class="B"/><use xlink:href="#f" x="-197.012" y="7.028" class="D"/><use xlink:href="#g" x="-197.013" y="7.028" class="E"/><use xlink:href="#e" x="-213.784" y="-21.656" class="B"/><use xlink:href="#f" x="-213.784" y="-21.654" class="D"/><use xlink:href="#g" x="-213.785" y="-21.655" class="E"/><use xlink:href="#e" x="-197.012" y="-11.91" class="B"/><use xlink:href="#f" x="-197.012" y="-11.91" class="D"/><use xlink:href="#g" x="-197.013" y="-11.91" class="E"/><use xlink:href="#e" x="-213.784" y="-47.437" class="B"/><use xlink:href="#f" x="-213.784" y="-47.436" class="D"/><use xlink:href="#g" x="-213.785" y="-47.436" class="E"/><use xlink:href="#e" x="-197.012" y="-37.692" class="B"/><use xlink:href="#f" x="-197.012" y="-37.691" class="D"/><use xlink:href="#g" x="-197.013" y="-37.691" class="E"/></g><path d="M1641.87 1837.32v1.193l38.424 22.208v-1.127z" class="B"/><path d="M1641.88 1833.1v4.287l38.283 22.208v-4.22z" fill="#979fc6"/><path d="M1641.88 1837.386v1.193l-29.028 18.097v-1.127z" class="a"/><path d="M1641.886 1833.166v4.287l-28.908 18.097v-4.22z" fill="#cbcbea"/><g transform="translate(216.1 6.227)"><path d="M1411.713 1900.365c-.208 0-.377-.167-.375-.375l.033-3.112 1.35-.86-.024 3.972c-.001.208-.167.375-.375.375zm12.047-6.328c-.208 0-.375-.167-.375-.375v-4.396l1.36-.854v5.25c0 .208-.167.375-.375.375z" class="B"/><g class="R"><rect width="25.318" height="11.682" x="1668.292" y="-2813.21" transform="matrix(.841153 -.540797 0 -1 5.226 2.924)" ry=".408"/><path d="M1407.94 1913.265l.7.5-.01-1.405zm21.098-25l.694.485-.895.438z"/></g><rect ry=".408" transform="matrix(.841153 -.540797 0 -1 5.226 2.924)" y="-2812.32" x="1667.504" height="11.682" width="25.318" class="S"/><text xml:space="preserve" x="1456.221" y="-2649.709" transform="matrix(.943537 -.605518 -.013038 -1.051474 0 0)" font-size="31.655" letter-spacing="0" filter="url(#K)" class="I J T"><tspan x="1456.221" y="-2649.709" font-size="6.331" class="O">BANK</tspan></text><text transform="matrix(.943537 -.605518 -.013038 -1.051474 0 0)" y="-2649.709" x="1456.221" xml:space="preserve" font-size="31.655" letter-spacing="0" class="B I J"><tspan y="-2649.709" x="1456.221" font-size="6.331" class="O">BANK</tspan></text></g></g><g transform="translate(2.063 50.951)"><rect width="33.35" height="6" x="1571.632" y="-2529.382" transform="matrix(.715593 -.417396 0 -.84292 212.55376 222.09256)" ry=".375" opacity=".4" filter="url(#E)" class="U"/><g transform="matrix(.865865 -.500278 0 -1 0 0)"><rect ry=".729" y="-2501.163" x="1548.375" height="33.079" width="20.671" fill="#172669"/><rect width="20.671" height="33.079" x="1547.763" y="-2500.525" ry=".729" fill="#f4f4fc"/></g><path d="M1340.785 1725.85l16.636-9.612c.35-.202.63-.7.63-1.094v-4.897c0-.404-.282-.567-.63-.364l-16.636 9.612c-.35.202-.63.7-.63 1.094v4.897c0 .404.282.566.63.364z" fill="#ccc"/><path d="M1343.518 1721.37l11.17-6.454c.235-.136.424-.463.424-.735v-.106c0-.27-.19-.38-.424-.245l-11.17 6.454c-.235.136-.424.463-.424.735v.106c0 .27.19.38.424.245z" class="B"/><path d="M1342.964 1703.26c-.152.014-.26-.098-.26-.302v-.105a.94.94 0 0 1 .425-.735l.79-.457v1.086l-.79.457a.4.4 0 0 1-.166.057zm1.707-.948v-1.086l.4-.237v1.085zm1.16-.67v-1.084l.974-.562v1.084zm1.724-.996v-1.084l1.27-.735v1.085zm2.02-1.168v-1.084l.74-.43v1.085zm1.49-.86v-1.086l.378-.218v1.085zm-8.104-.607c-.152.014-.26-.098-.26-.302v-.105a.94.94 0 0 1 .425-.735l.79-.457v1.086l-.79.457a.4.4 0 0 1-.166.057zm9.232-.045v-1.084l.973-.562v1.084zm-7.525-.902v-1.085l.4-.237v1.085zm9.248-.094v-1.084l.38-.22c.235-.136.423-.027.423.245v.106c0 .27-.188.598-.423.734zm-8.087-.577v-1.084l.974-.562v1.084zm1.724-.996v-1.084l1.27-.735v1.086zm2.02-1.168v-1.084l.74-.43v1.086zm1.49-.86v-1.085l.378-.218v1.085zm1.128-.652v-1.084l.973-.562v1.084zm1.723-.996v-1.084l.38-.22c.235-.136.423-.027.423.245v.106c0 .27-.188.598-.423.734z" class="U"/><g transform="matrix(1.09343 0 .34127 -1.006587 -118.04746 -155.90953)"><ellipse cx="1918.997" cy="-1850.578" rx="2.774" ry="4.847" fill="#b28a2a"/><ellipse ry="4.847" rx="2.774" cy="-1850.307" cx="1918.49" fill="#fbc503"/></g></g><g transform="translate(33.744 -49.502)"><ellipse cx="1405.15" cy="-2220.949" transform="matrix(1.371733 -.453162 0 -1.444648 -577.35166 -631.39178)" rx="5.529" ry="2.672" class="T c d"/><use xlink:href="#h" class="e"/><use xlink:href="#h" x="-0.805" y="0.132" class="f"/><use xlink:href="#i" class="e"/><use xlink:href="#i" x="-1.214" y="0.194" class="f"/><g transform="matrix(1 0 .0971 -.995275 -77.091 105.241)"><ellipse ry="5.462" rx="2.718" cy="-1849.205" cx="1608.298" class="e"/><ellipse cx="1607.59" cy="-1848.739" rx="2.718" ry="5.462" class="f"/></g></g><g transform="translate(-.193 -51.002)"><path d="M1346.5 1962.238l10.643-6.145 3.888 3.332-9.937 6.375z" fill="#fbc932"/><path d="M1357.153 1956.093v-14.48l4.357 2.438-.47 15.375z" fill="#ac8705"/><path d="M1346.5 1962.238l-.47-14.156-2.578 1.078 8.297-13.078 8.953 4.594-3.56.938v14.48z" fill="#ffbc13"/><path d="M1357.153 1941.613l4.357 2.438 2.364-1.26-3.16-2.116z" fill="#ffcc3b"/><path d="M1343.463 1949.16l2.678 2.424-.1-3.502z" fill="#b57e07"/><text xml:space="preserve" x="1155.946" y="-2122.274" transform="matrix(.891013 -.537989 -.088499 -.980539 129.71905 490.54095)" font-size="10.675" letter-spacing="0" fill="#666" filter="url(#F)" class="I J"><tspan x="1155.946" y="-2122.274">%</tspan></text><text transform="matrix(.916457 -.567742 -.091027 -1.034768 0 0)" y="-2551.973" x="1216.576" xml:space="preserve" font-size="9.942" letter-spacing="0" class="B I J"><tspan y="-2551.973" x="1216.576" class="O">%</tspan></text></g><g transform="translate(-26.631 -166.127)"><ellipse ry="2.672" rx="5.529" transform="matrix(1.124411 -.371457 0 -1.184179 -194.8253 -164.79484)" cy="-2220.949" cx="1405.15" class="T c d"/><g transform="translate(50.912 163.077)"><path d="M1362.2 1781.9c6.153-.545 11.326 7.393 10.805 13.126-4.883 3.602-7.248 7.36-9.347 11.137-3.455-.684-6.975-.772-10.607.133.094-9.24 6.883-24.195 9.148-24.395z" fill="url(#G)" transform="translate(-24.926 .53)"/><path d="M1325.21 1804.243l2.918 2.592 1.606-4.15-2.62-1.707z" fill="#ffc900"/><path d="M1334.34 1779.848c6.153-.545 11.326 7.393 10.805 13.126-4.883 3.602-7.248 7.36-9.347 11.137-3.455-.684-6.975-.772-10.607.133.094-9.24 6.883-24.194 9.148-24.395z" fill="#f6b70a"/><g transform="matrix(1 -.092581 0 1 27.043544 -30.603814)" class="I J"><text transform="matrix(.97662 -.329926 -.0357 -.988384 -19.409777 150.14034)" y="-2236.002" x="1272.543" xml:space="preserve" font-size="14.142" letter-spacing="0" fill="#333" fill-opacity=".533" filter="url(#H)"><tspan y="-2236.002" x="1272.543" class="O">$</tspan></text><text xml:space="preserve" x="1216.286" y="-2370" transform="matrix(1 -.32978 -.036555 -.987945 0 0)" font-size="14.142" letter-spacing="0" class="B"><tspan x="1216.286" y="-2370" class="O">$</tspan></text></g></g></g><g transform="translate(-49.881 -160.502)"><ellipse cx="1405.15" cy="-2220.949" transform="matrix(1.124411 -.371457 0 -1.184179 -93.664834 -167.18133)" rx="5.529" ry="2.672" class="T c d"/><g fill="#9caed4"><path d="M1497.015 1951.827c0-3.595-7.82-10.03-7.82-10.03s-6.945 14.47-6.945 18.066 3.305 4.71 7.383 2.492 7.383-6.933 7.383-10.53z"/><path d="M1484.374 1963.285l-2.718-1.02 2.46-.646zm4.82-21.487l-2.53-.937 2.094 2.338.555-1.1z"/></g><path d="M1494.483 1950.9c0-3.595-7.82-10.03-7.82-10.03s-7.742 11.377-6.945 18.066c0 3.596 3.305 4.71 7.383 2.492s7.383-6.933 7.383-10.53z" class="B"/><g transform="matrix(1.421969 0 -.188812 1.421969 -257.56538 -824.69206)"><g class="R"><ellipse ry="3.671" rx="3.529" transform="matrix(.823515 -.567295 0 -1 0 0)" cy="-2977.905" cx="1804.644"/><path d="M1483.397 1957.802l.766.386-.14-.696zm3.768-8.188l.807.4-.446.045z"/></g><ellipse cx="1803.557" cy="-2976.847" transform="matrix(.823515 -.567295 0 -1 0 0)" rx="3.529" ry="3.671" class="S"/></g><g transform="matrix(1 -.318884 0 1 49.031252 619.31407)"><g transform="matrix(.740306 -.510945 -.267657 -.883585 -107.38782 941.86388)" class="R"><circle r=".795" cy="-1793.032" cx="1434.292"/><circle r=".795" cy="-1793.032" cx="1437.084"/><circle cx="1439.877" cy="-1793.032" r=".795"/></g><g transform="matrix(.740306 -.510945 -.267657 -.883585 -107.58669 941.78102)" class="B"><circle cx="1434.292" cy="-1793.032" r=".795"/><circle cx="1437.084" cy="-1793.032" r=".795"/><circle r=".795" cy="-1793.032" cx="1439.877"/></g></g></g><use xlink:href="#j" fill="#40689b"/><use xlink:href="#j" x="-1.6" y="-1.193" fill="#f6f7fb"/><path d="M1488.9 1923.63l34.013-20.075 6.394-3.728v-10.8l-6.395 3.723-40.377 23.743s-1.873 4.185.485 6.828c2.316 2.597 3.044 1.66 5.88.308z" fill="#ceced0"/><path d="M1496.893 1902.777c-.185.03-.315-.106-.315-.37v-.136c0-.35.23-.79.516-.982l.96-.652v1.4l-.96.652a.49.49 0 0 1-.201.086zm2.073-1.356v-1.4l.498-.338v1.4zm1.41-.956v-1.4l1.183-.802v1.4zm2.094-1.42v-1.4l1.544-1.048v1.4zm2.455-1.664v-1.4l.9-.612v1.4zm1.81-1.228v-1.4l.46-.31v1.4zm-9.842-.15c-.185.03-.315-.106-.315-.37v-.136c0-.35.23-.79.516-.982l.96-.652v1.4l-.96.65c-.072.05-.14.077-.2.087zm11.212-.778v-1.4l1.18-.802v1.4zm-9.14-.578v-1.4l.498-.338v1.4zm11.23-.843v-1.4l.463-.313c.285-.193.514-.068.514.283v.136a1.32 1.32 0 0 1-.514.98zm-9.822-.114v-1.4l1.183-.802v1.4zm2.094-1.42v-1.4l1.544-1.048v1.4zm2.455-1.664v-1.4l.9-.612v1.4zm1.81-1.228v-1.4l.46-.31v1.4zm1.37-.93v-1.4l1.18-.802v1.4zm2.092-1.42v-1.4l.463-.313c.285-.193.514-.068.514.283v.136a1.32 1.32 0 0 1-.514.98z" class="U"/><path d="M1538.17 1874.817l41.36-22.68c2.24-1.228 4.028-4.3 4.028-6.852s-.993-.81-3.232.417l-41.36 22.68c-2.24 1.228-4.823 2.442-4.823 4.996s1.788 2.667 4.027 1.44z" fill="#cbcbc9" filter="url(#L)" transform="translate(-56.267 9.226)"/><g transform="translate(93.924 7.498)"><path d="M1587.86-2603.636c0 5.145-7.23 5.253-16.83 5.253s-17.38 2.017-17.38-3.128 7.782-3.7 17.38-3.7 16.83-3.58 16.83 1.566z" transform="matrix(1.022469 -.658772 0 -1.197213 -292.46202 -341.24448)" opacity=".406" fill="#999" filter="url(#Q)"/><g transform="translate(.563 .188)"><g transform="translate(-59.451 76.002)"><path d="M1392.05 1691.6l-.28-30.61c-1.384-7.56-8.457-10.456-12.844-3.984l-24.703 14.625.375 1.453c3.54-2.236 10.26-1.922 9.797 5.203l.832 28.3c.043 1.445 1.186.763 1.688.47z" fill="url(#O)"/><path d="M1391.205 1690.662l-.28-28.22c.26-6.885-7.706-10.933-8.72-3.844l-26.625 15.375s2.493-2.393 3.938-2.062c2.2.504 3.918 1.602 4.03 5.438l.832 28.3c.043 1.445 1.186.763 1.688.47z" fill="url(#P)"/><path d="M1354.596 1673.083l.984.89 26.625-15.375-.963-.727z" fill="#666"/></g><g opacity=".874"><path d="M1308.946 1775.628c-.232.007-.418-.026-.555-.11l-.028-.018-.898-.55.683-.24v-5.84l.013-1.525 17.303-10.67c.577-.356 1.112-.582 1.554-.682l-.01-.522.89.553c.188.092.305.25.305.497v7.674s-.044.015-2.74 1.68l-14.575 9.007c-.76.463-1.444.712-1.94.74z" opacity="1" fill="#000065"/><path d="M1310.015 1774.353l17.316-10.688v-7.673c0-.84-1.23-.777-2.74.155l-17.303 10.67-.013 1.525v6.166c0 .84 1.222.77 2.74-.155z" opacity="1" class="g"/></g></g><text transform="matrix(.994281 -.631464 0 -1.005752 0 0)" y="-2584.925" x="1317.024" xml:space="preserve" font-size="33.055" letter-spacing="0" class="I J"><tspan y="-2584.925" x="1317.024" font-size="6.611" class="B O">BILL</tspan></text><path d="M1306.724 1764.876v-.457l8.016-4.953v.457zm0-1.934v-.457l8.016-4.953v.457zm0-1.932v-.457l8.016-4.954v.457zm0-1.934v-.457l8.016-4.953v.456zm0-1.934v-.457l8.016-4.953v.457zm13.723-.666v-.457l8.016-4.953v.457zm-13.723-1.267v-.457l8.016-4.953v.457zm13.723-.666v-.457l8.016-4.953v.457zm-13.723-1.266v-.457l8.016-4.954v.457zm13.723-.668v-.456l8.016-4.954v.457zm-13.723-1.266v-.457l8.016-4.954v.457zm13.723-.666v-.457l8.016-4.954v.457zm0-1.934v-.457l8.016-4.953v.457zm0-1.934v-.457l8.016-4.953v.457zm0-1.934v-.457l8.016-4.953v.457zm0-1.932v-.457l8.016-4.954v.457z" opacity=".874" fill="#999"/></g><text transform="matrix(1 -.613321 0 -1 0 0)" y="-2829.991" x="1494.125" xml:space="preserve" font-size="30" letter-spacing="0" class="B I J"><tspan y="-2829.991" x="1494.125" font-size="4" class="O">E-BANKING</tspan></text><use xlink:href="#k" class="K"/><use xlink:href="#l" class="F"/><use xlink:href="#m" class="G"/><use xlink:href="#n" class="L"/><use xlink:href="#o" class="B"/><use xlink:href="#p" class="H"/><use xlink:href="#k" x="1.368" y="8.078" class="K"/><use xlink:href="#l" x="1.368" y="8.078" class="F"/><use xlink:href="#m" x="1.368" y="8.079" class="G"/><use xlink:href="#n" x="1.368" y="8.08" class="L"/><use xlink:href="#o" x="1.368" y="8.079" class="B"/><use xlink:href="#p" x="1.368" y="8.079" class="H"/><use xlink:href="#k" x="4.734" y="11.097" class="K"/><use xlink:href="#l" x="4.733" y="11.097" class="F"/><use xlink:href="#m" x="4.734" y="11.098" class="G"/><use xlink:href="#n" x="4.734" y="11.098" class="L"/><use xlink:href="#o" x="4.735" y="11.098" class="B"/><use xlink:href="#p" x="4.734" y="11.098" class="H"/><path d="M1471.932 1821.015l-.074 3.85 13.697-7.732-.022-4.6z" class="K"/><path d="M1514.447 1829.265l-.074 3.85-28.82-15.982-.022-4.6z" class="F"/><use xlink:href="#m" x="10.17" y="10.966" class="G"/><use xlink:href="#n" x="10.17" y="10.966" class="L"/><use xlink:href="#o" x="10.17" y="10.965" class="B"/><use xlink:href="#p" x="10.17" y="10.965" class="H"/><path d="M1487.57 1795.136l-.216 3.843 13.973-7.222.148-4.608z" class="K"/><path d="M1529.753 1804.947l-.216 3.843-28.2-17.033.148-4.608z" class="F"/><path d="M1487.355 1798.98l27.588 17.442 14.594-7.63-28.2-17.033z" class="G"/><path d="M1493.483 1797.666c1.504 1.268 1.462 2.482-.124 3.644l18.802 11.657c2.2-1.312 3.688-1.58 5.77.2l5.163-2.81c-2.305-.625-1.55-3.183-.335-3.76l-17.556-11.25c-2.247 1.303-4.604.992-6.3-.586z" class="L"/><path d="M1499.797 1806.95l13.82-7.816 3.992 2.44-14.355 7.566z" class="B"/><path d="M1513.617 1799.134l.172-4.235 3.98 2.437-.156 4.237z" class="H"/><use xlink:href="#k" x="25.488" y="-9.172" class="K"/><use xlink:href="#l" x="25.489" y="-9.172" class="F"/><use xlink:href="#m" x="25.489" y="-9.171" class="G"/><use xlink:href="#n" x="25.489" y="-9.17" class="L"/><use xlink:href="#o" x="25.489" y="-9.171" class="B"/><use xlink:href="#p" x="25.489" y="-9.171" class="H"/><path d="M1490.83 1806.314l-.074 3.85 13.697-7.732-.022-4.6z" class="K"/><path d="M1533.346 1814.564l-.074 3.85-28.82-15.982-.022-4.6z" class="F"/><use xlink:href="#m" x="29.069" y="-3.735" class="G"/><use xlink:href="#n" x="29.069" y="-3.735" class="L"/><use xlink:href="#o" x="29.069" y="-3.735" class="B"/><use xlink:href="#p" x="29.069" y="-3.735" class="H"/><use xlink:href="#k" x="24.804" y="0.536" class="K"/><use xlink:href="#l" x="24.803" y="0.536" class="F"/><use xlink:href="#m" x="24.804" y="0.537" class="G"/><use xlink:href="#n" x="24.804" y="0.537" class="L"/><use xlink:href="#o" x="24.805" y="0.537" class="B"/><use xlink:href="#p" x="24.804" y="0.537" class="H"/><use xlink:href="#q" class="F"/><use xlink:href="#r" class="G"/><use xlink:href="#s" class="P"/><path d="M1472.738 1794.372l-13.12-8.196 3.08-1.8 13.13 8.348z" class="H"/><use xlink:href="#t" class="P"/><use xlink:href="#u" class="B"/><use xlink:href="#q" x="6.565" y="1.76" class="F"/><use xlink:href="#r" x="6.565" y="1.76" class="G"/><use xlink:href="#s" x="6.564" y="1.76" class="P"/><path d="M1479.303 1796.132l-13.12-8.196 3.08-1.8 13.13 8.348z" class="H"/><use xlink:href="#t" x="6.566" y="1.76" class="P"/><use xlink:href="#u" x="6.565" y="1.76" class="B"/><use xlink:href="#q" x="0.913" y="10.862" class="F"/><use xlink:href="#r" x="0.913" y="10.86" class="G"/><use xlink:href="#s" x="0.914" y="10.862" class="P"/><path d="M1473.65 1805.234l-13.12-8.195 3.08-1.8 13.13 8.348z" class="H"/><use xlink:href="#t" x="0.913" y="10.862" class="P"/><use xlink:href="#u" x="0.913" y="10.863" class="B"/><g transform="translate(6.358 3.711)"><g transform="translate(-34.125 -88.125)"><g transform="matrix(.823515 -.567295 0 -1 41.25 89.25)"><ellipse cx="1670.254" cy="-2809.5" rx="8.88" ry="9.235" class="R"/><ellipse ry="9.235" rx="8.88" cy="-2808.502" cx="1669.31" class="S"/></g><use xlink:href="#v" transform="matrix(.922781 .069277 -.075746 1.00897 257.672137 -115.638122)" opacity=".392" fill="#666" filter="url(#J)"/><use xlink:href="#w" class="B"/></g><g transform="translate(34.875 -139.5)"><g transform="matrix(.823515 -.567295 0 -1 41.25 89.25)"><ellipse ry="9.235" rx="8.88" cy="-2809.5" cx="1670.254" class="R"/><ellipse cx="1669.31" cy="-2808.502" rx="8.88" ry="9.235" class="S"/></g><use xlink:href="#v" transform="matrix(.922781 .069277 -.075746 1.00897 257.672137 -115.638122)" opacity=".392" fill="#666" filter="url(#J)"/><use xlink:href="#w" class="B"/></g></g><g transform="translate(-5.528 2.459)"><path d="M1478.193 1755.52l37.957-21.914 6.7 11.606-4.225 7.317-9.888 2.65-6.03 6.03-19.875 13.138z" transform="matrix(1.065036 -.089693 .096802 1.149455 -264.85824 -123.04715)" opacity=".543" fill="gray" stroke="#000" stroke-width=".75" filter="url(#Y)"/><g transform="translate(-21.998 246.528)"><path d="M1496.79 1512.333l26.47-16.125c-.132 4.35 5.482 5.4-.595 12.723l-25.778 14.933z" fill="#fdc635"/><path d="M1496.887 1523.865l12.755 8.063 24.743-15.75-11.03-8.25z" fill="#fdb608"/><path d="M1496.63 1506.118c-.326 3.023 10.24-4.07 20.905-10.64 7.64-4.707 14.958-9.77 19.544-9.436l-1.313 5.065-38.94 21.227z" opacity=".51" class="M"/><use xlink:href="#x" fill="#9da9d3"/><path d="M1520.73 1512.473l11.625 6.234 3.258-2.742-.14-16.594-10.97-5.72v15.047z" fill="#9da9d9"/><use xlink:href="#x" x="-11.624" y="-6.235" fill="#f4f0f1"/><path d="M1496.79 1512.333l-.152-5.307c1.36-.363 1.92 3.388 5.753 2.163z" class="M"/><g transform="matrix(1.007187 -.212273 -.047396 1.002854 63.927612 316.30799)"><g transform="scale(1 -1)"><ellipse ry="1.929" rx="1.405" cy="-1504.786" cx="1498.104" class="M"/><ellipse cx="1497.822" cy="-1504.669" rx="1.405" ry="1.929" class="V"/></g><g transform="matrix(.613203 0 0 -.613203 582.54141 580.36595)"><ellipse ry="1.414" rx="1.03" cy="-1507.228" cx="1492.493" class="Q"/><ellipse cx="1492.493" cy="-1507.228" rx=".773" ry="1.062" class="W"/></g></g><g transform="matrix(1.007187 -.212273 -.047396 1.002854 67.724401 314.057695)"><g transform="scale(1 -1)"><ellipse cx="1498.104" cy="-1504.786" rx="1.405" ry="1.929" class="M"/><ellipse ry="1.929" rx="1.405" cy="-1504.669" cx="1497.822" class="V"/></g><g transform="matrix(.613203 0 0 -.613203 582.54141 580.36595)"><ellipse cx="1492.493" cy="-1507.228" rx="1.03" ry="1.414" class="Q"/><ellipse ry="1.062" rx=".773" cy="-1507.228" cx="1492.493" class="W"/></g></g><g transform="matrix(1.007187 -.212273 -.047396 1.002854 80.653945 306.20241)"><g transform="scale(1 -1)"><ellipse ry="1.929" rx="1.405" cy="-1504.786" cx="1498.104" class="M"/><ellipse cx="1497.822" cy="-1504.669" rx="1.405" ry="1.929" class="V"/></g><g transform="matrix(.613203 0 0 -.613203 582.54141 580.36595)"><ellipse ry="1.414" rx="1.03" cy="-1507.228" cx="1492.493" class="Q"/><ellipse cx="1492.493" cy="-1507.228" rx=".773" ry="1.062" class="W"/></g></g><g transform="matrix(1.007187 -.212273 -.047396 1.002854 94.224237 298.26882)"><g transform="scale(1 -1)"><ellipse cx="1498.104" cy="-1504.786" rx="1.405" ry="1.929" class="M"/><ellipse ry="1.929" rx="1.405" cy="-1504.669" cx="1497.822" class="V"/></g><g transform="matrix(.613203 0 0 -.613203 582.54141 580.36595)"><ellipse cx="1492.493" cy="-1507.228" rx="1.03" ry="1.414" class="Q"/><ellipse ry="1.062" rx=".773" cy="-1507.228" cx="1492.493" class="W"/></g></g><path d="M1537.244 1493.63l-.166-7.588 10.684 6.168-.616 7.85z" fill="#ccc"/><g transform="matrix(-.595173 .168762 .129852 .533381 2231.5543 433.2022)"><g transform="matrix(.948955 -.18814 -.01904 1.057566 104.84 195.57496)"><ellipse ry=".943" rx=".774" transform="matrix(1.616458 0 0 -1.821627 3341.5566 -1869.4533)" cy="-1853.688" cx="-1143.88" class="M"/><g transform="scale(1 -1)"><ellipse ry="1.414" rx="1.03" cy="-1507.228" cx="1492.493" class="Q"/><ellipse cx="1492.493" cy="-1507.228" rx=".773" ry="1.062" fill="#ff0" filter="url(#X)"/></g></g><g transform="matrix(.948955 -.18814 -.01904 1.057566 95.796922 205.04377)"><ellipse cx="-1143.88" cy="-1853.688" transform="matrix(1.616458 0 0 -1.821627 3341.5566 -1869.4533)" rx=".774" ry=".943" class="M"/><g transform="scale(1 -1)"><ellipse cx="1492.493" cy="-1507.228" rx="1.03" ry="1.414" class="Q"/><ellipse ry="1.062" rx=".773" cy="-1507.228" cx="1492.493" fill="#ff0" filter="url(#X)"/></g></g></g><path d="M1525.9 1505.5l.016-11.016-.385-.14-.053-1.594 3.84-2.216c-.072-.247.342.805.766 1.103 1.064.75 2.487.27 3.116-.743.993-1.6.174-3.896.422-2.846l3.457-1.995.182 7.8-3.58 7.298z" fill="#f0f5f1"/><path d="M1530.154 1496.272l.21 5.344c3.234-1.115 4.344-4.667 6-7.594l-.17-.452z" fill="#4b6ecc"/><path d="M1525.9 1505.49l10.556 5.648 7.134-4.23-9.91-5.777z" fill="#f3f5e8"/><path d="M1533.682 1501.13l3.563-7.5c3.255 1.782 6.596 4.192 9.902 6.43l-3.556 6.847z" fill="#e6e6e6"/><path d="M1534.562 1501.21l8.46 4.99c.266.157.585.08.728-.194l2.76-5.29a.62.62 0 0 0-.211-.792l-8.39-5.6c-.256-.172-.594-.084-.728.194l-2.833 5.896c-.133.278-.054.635.21.792z" fill="#4b6ecc"/></g></g><rect width="33.35" height="6" x="1571.632" y="-2529.382" transform="matrix(.941227 -.48659 0 -.982655 -42.655741 33.242172)" ry=".375" opacity=".4" filter="url(#E)" class="U"/><g transform="translate(-35.069 25.686)"><g class="g"><rect width="34.118" height="18.599" x="1701.872" y="-2596.2" transform="matrix(.866572 -.499053 0 -1 0 0)" ry="4.06"/><use xlink:href="#y"/><use xlink:href="#z"/></g><rect ry="4.06" transform="matrix(.866572 -.499053 0 -1 0 0)" y="-2594.261" x="1700.898" height="18.599" width="34.118" fill="#f5f4f2"/><g transform="matrix(.563908 -.345908 0 -.643312 682.79398 1104.528)"><rect width="13.358" height="5.204" x="1408.599" y="-1730.886" ry="2.602" fill="url(#b)"/><circle r="2.376" cy="-1728.284" cx="1411.173" fill="url(#c)" stroke="navy" class="b i"/></g><g class="g"><rect ry="4.06" transform="matrix(.866572 -.499053 0 -1 0 0)" y="-2596.2" x="1701.872" height="18.599" width="34.118"/><use xlink:href="#y"/><use xlink:href="#z"/></g><rect width="34.118" height="18.599" x="1700.898" y="-2594.261" transform="matrix(.866572 -.499053 0 -1 0 0)" ry="4.06" fill="#f5f4f2"/><g transform="matrix(.563908 -.345908 0 -.643312 682.79398 1104.528)"><rect ry="2.602" y="-1730.886" x="1408.599" height="5.204" width="13.358" fill="url(#N)"/><circle cx="1411.173" cy="-1728.284" r="2.376" fill="url(#M)" stroke="navy" class="b i"/></g><path d="M1488.508 1734.633v-1.037l11.104-6.538v1.037zm0-2.062v-1.037l11.104-6.538v1.037zm0-2.062v-1.037l11.104-6.538v1.037zm-.094-3.43v-1.037l11.103-6.538v1.037zm0-2.062v-1.037l11.103-6.538v1.037zm0-2.062v-1.037l11.103-6.538v1.037z" fill="gray"/></g><g transform="translate(55.154 178.191)"><g transform="matrix(-.680177 0 0 .658481 1636.7002 1284.6367)"><path d="M296.24 620.874c.012.084-.48-.094-.4-.292.322-.788 1.2-1.74 2.087-2.248.53-.3 2.158-.34 1.827-.004l-.563.572zm7.68-2s-.335-.635-.142-.7c.965-.28 1.948-.196 2.924-.165.53.017 1.617.065 1.583.192-.064.236-.502.3-.828.42-1.238.417-2.353.212-3.536.244z" fill="#683148"/><path d="M303.863 632.906l.066-14.054c1.194-.364 2.63-.227 3.097-.112-.09.193-2.237.647-2.004 1.535-.05 1.314-.033 1.783.075 2.664.66 5.38 2.323 11.064 3.48 15.88l-4.875-.07.07-2.484z" fill="#e4917f"/><path d="M302.34 638.805c1.164-.4 2.538-.198 3.91-.166-1.43-6.073-5.016-10.364-7.524-15.545-.93-1.277-.945-2.324-.464-3.248l.928-.945s-.908-.036-1.293.166c-.77.404-1.657 1.806-1.657 1.806.352.41.685.617 1.077 1.475 1.822 4.44 2.593 12.118 5.47 13.308z" fill="#f9b1a5"/><path d="M299.75 639.23c3.952-.965 7.7-.85 11.35-.068.13 5.45-.367 10.46-3.58 13.557l1.253 3.997s.806 3.665-.474 3.908c-.48.09-1.346-.073-1.343-.066l-.06-.002c-1.142-1.534-2.657-.07-2.754-.037h-.04s-.735-.11-.89-.212c-.962-.63-.928-2.983-.928-2.983l.815-5.268c-3.56-3.97-3.16-9.645-3.348-12.827z" fill="#1f2561"/><path d="M304.922 661.996c.03-.8-.232-1.287-.78-1.477 1.12-.925 2.148-.85 2.754.037-.83.014-.7.968-.68 1.225z" fill="#f5b3a7"/><path d="M303.878 667.79c-.464 0-.887-.28-1.206-.576-.515-.478-.712-1.453-.49-2.155.124-.4.91-.82.91-.82l2.42.52 2.188 2.064c-2.29.048-1.843-.355-2.96.612-.294.255-.587.354-.866.353zm2.092-2.89l.738-2.65s.346-.56.712-.05c.416.58.183 2.354.183 2.354z" fill="#e16b43"/><path d="M303.98 663.226s.95-1.682 1.732-1.624c.916.068 1.4 1.31 1.74 2.182.23.586.14 1.886.14 1.886l-3.083-.82z" fill="#fab4b2"/><path d="M304.006 663.044s.004.394.166.53c.485.408 1.31.042 1.873.332.59.303.793 1.595 1.425 1.392.24-.077.133-.746.133-.746s.787 1.453.414 2.038c-.177.278-.636.286-.96.232-.77-.13-.708-.96-1.492-1.19-.33-.096-2.303-.217-2.535-1.628-.075-.455.978-.96.978-.96z" fill="#ef804b"/><path d="M307.586 658.22c.092-1.968 2.85-4.417 3.05-4.292l2.055 1.276c1.546 2.747 1.525 4.69 1.8 6.73 0 0 .186.348.215.54.072.462.176.97-.1 1.4-.06.094-.38.067-.33-.033.15-.313-.1-.757-.215-.73-.233.01-.193 1.428-.116 1.65.094.27-.175.597-.613-.597-.18-.5-.224-.737-.066-1.235.095-.3.613-.713.613-.713l-.207-.48c-1.035-3.22-1.37-4.827-2.775-6.195-.37.127-.312.064-.42.28-.8 2.067-.813 3.587-1.173 4.26-.308.574-1.18.534-1.425.05-.3-.573-.312-1.264-.282-1.906z" fill="#f0ada7"/><path d="M301.67 658.57c.46-1.503 2.037-3.94 7.195-4.758 3.143-.673 6.498-.077 9.82.328.793-.327 1.54-.71 2.695-.586.183.124.345.25-.176.434l-1.23.234-.035.176s.512.015.598.117-.04.218-.187.34c-.336.28-.806.105-1.207.012-.13-.03-.363-.152-.363-.152l-8.59.588c-.126.001-.378-.02-.378-.02-3.05.978-5.04 2.65-6.103 4.696-.428.823-2.532.205-2.037-1.408z" fill="#f6b6ac"/></g><g transform="matrix(1.228244 0 0 1.334303 -307.855344 -489.257829)"><use xlink:href="#AA" class="B"/><use xlink:href="#AB" fill="url(#Z)" transform="translate(-8.883 2.884)"/><use xlink:href="#AC" class="B"/><use xlink:href="#AD" class="X"/></g></g><g transform="translate(134.958 256.38)"><g transform="matrix(.78821 0 0 .78821 998.06707 1046.6129)"><path d="M498.305 698.434c.428-1.03 1.217-2.474.723-2.65.463-.002 1.076.065 1.596.81-.556.2-.98 1.576-1.43 2.443-.296-.375-.552-.4-.9-.604z" fill="#e78f81"/><path d="M500.624 696.595c.325-.504.92-1.18.72-1.348 0 0-1.47-1.337-2.545-1.767-.734-.293-1.755-.012-1.912.005-.956.103 2.19 1.833 2.14 2.3.598.01 1.158.172 1.596.81z" class="h"/><path d="M487.272 721.24c-.124-8.126 1.352-15.915 2.87-23.695l1.617.094.07 12.363-.024 10.712z" fill="#288a79"/><path d="M490.183 720.78l1.8-11.435 6.463-11.236.96.53-3.712 12.098.166 10.673z" fill="#38a48a"/><path d="M490.4 697.586c-.054-1.115.107-2.77-.414-2.718.417-.2 1-.402 1.8.05-.417.418-.147 1.84-.182 2.817-.428-.212-.796-.1-1.193-.15z" fill="#e78f81"/><path d="M491.774 694.918c.078-.595.325-1.46.074-1.527l-4.852-.082c-.82.503 2.835 1.116 2.987 1.56.545-.246 1.12-.34 1.8.05z" class="h"/><path d="M485.983 733.182l-3.47-3.316c-1.047-1-3.12-.466-4.055.174l-2.004 1.326c-.292.52-1.066.774-1.37.127 0 0 .366.182.502.055.066-.498-.373-.21-.424-.237-.162.113.024-.385.255-.338.12.024.32-.013.416-.122.598-.686 2.516-2.19 2.516-2.19 1.34-1.165 4.197-.863 5.768.07a1791.83 1791.83 0 0 1 4.747 3.596z" fill="#e29082"/><path d="M487.577 736.334c-.495-1.16-1.163-2.15-1.875-3.094 1.016-.6 1.8-1.424 2.613-2.238.337.983.912 1.8 1.56 2.566-.403 1.293-.7 2.693-2.297 2.766z" fill="#e28029"/><path d="M487.272 721.24c-.24-1.067 4.027-.874 6.03-.402.848.2 3.616-.218 2.758.074-.374.127-.977 12.42-.68 15.352.028.28-.17.282-.602.572-.6.4-1.72.198-1.72.198-2.234-1.22-1.983-.16-2.884-.157-1.18.235-2.167.217-2.6-.542-.09 0-.204-10.816-.305-15.094z" fill="#ed9d2e"/><path d="M491.9 734.403c.652.046-1.694-1.03-2.646-1.086-.58-.033-1.746 1.268-2.613 1.9l-2.972 2.226-.652.52c-.5.26-.657.845-1.155.802 0 0-.472.113-.598.347-.12.224 1.083.043 1.72-.036.52-.065.724-1.568.724-1.568.824-1.437-.778.17 1-1.648 1.086-1.127 2.132-3.273 3.845-3.915 1.296-.486 5.41.41 4.14.322z" fill="#f6b5af"/><path d="M491.765 734.46c.116-.85.577-1.675 1.05-2.5l2.107 1.672c1.597 1.267.47 4.03-.945 2.945z" fill="#e4802a"/><path d="M490.45 738.865c.18-.865.077-1.52-.273-1.99.404-.504 2.02-.983 2.884.158-.535.47-.377 1.35-.472 2.08-.834-.746-1.547-.83-2.138-.25z" class="Y"/><path d="M490.45 738.865s.203-1.035.62-1.105c.67-.112 1.518 1.353 1.518 1.353-.75-.676-1.497-1.342-2.138-.25z" class="Z"/><path d="M489.622 740.936c0 0 .64-2.695 1.574-2.8.663-.075 1.662 1.163 1.64 1.492l.522 1.525-1.55 1.293c-.93-.09-1.495-.324-1.99-.588-.445-.27-.148-.612-.2-.92z" class="N"/><path d="M489.622 740.936c-.016.436.136.92.487.91.264-.01.582-.088.83-.062.31.033.473.192.763.088.5-.183.915-.504.88-1.125.89 1.11.54-.547.32-.505-.342.066.06-.758-.014-1.086.14.834.707 1.35.562 2.363-.135.948-.653 1.628-1.33 1.85-.696.228-1.542-.42-2.49-.22-.42.09-.538-1.057-.007-2.21z" fill="#3b5564"/></g><g transform="matrix(1.228244 0 0 1.334303 -353.269744 -582.568659)"><use xlink:href="#AA" class="B"/><use xlink:href="#AB" fill="url(#a)" transform="translate(-8.883 2.884)"/><use xlink:href="#AC" class="B"/><use xlink:href="#AD" class="X"/></g></g><path d="M1354.394 1835.135c.413-.482.932-.83 1.957-.524l2.948 11.496 2.685-17.037c1.187-.733 1.613-.2 2.022.365l-.928 19.357-6.795.762z" fill="#193fa0"/><path d="M1372.975 1855.972h1.02s.67-.993 1.2-.84c.37.108 0 .85 0 .85s1.444.077 1.866.375c.373.264-1.108-.04-1.108-.04s1.44.08 1.714.415c.214.262-1.037-.073-1.037-.073s1.514.13 1.514.498c0 .3-1.184.014-1.184.014s1.78-.02 1.443.352c-.733.8-3.94-.415-3.94-.415l-1.7.456zm-19.947-5.75s-.092-.456-.18-.67c-.33-.802-.794-1.02-.6-1.863.098-.403-.1-1.1.314-1.127.425-.04.73.26.885.658.182.464-.387.755-.3 1.243.085.423.95.88.95.88z" class="N"/><path d="M1355.753 1846.14c.116 2.147 1.007 4.41.398 6.397l-1.8-3.48-1.7 1.392 3.182 7.126.61.556c.22.2 4.8.085 3.682.223l2.17-.116 10.673-.2.232-3.016-9.115.265s-.62-.433-.762-.762c-1.125-2.585.405-8.523.405-8.523z" fill="#173490"/><use xlink:href="#AE" class="Y"/><use xlink:href="#AF" class="Z"/><use xlink:href="#AG" class="N"/><path d="M1357.37 1863.362c-.02.584.18 1.232.65 1.216.353-.012.78-.12 1.11-.083.413.044.633.256 1.02.117.683-.245 1.224-.674 1.176-1.505 1.2 1.487.724-.732.43-.675-.458.09.082-1.015-.02-1.454.187 1.116.946 1.806.753 3.162-.18 1.268-.874 2.178-1.78 2.475-.93.305-2.063-.563-3.33-.294-.564.12-.72-1.414-.01-2.96z" class="B"/><path d="M1356.486 1835.226c.092-.752.38-1.845.087-1.93 0 0-5.263-.374-5.67-.104-.96.635 3.313 1.4 3.492 1.97.637-.3 1.3-.43 2.092.062zm7.52-5.746c.1-1.07.375-2.63.087-2.75 0 0-5.207-.533-5.6-.148-.948.906 3.278 2 3.455 2.808.63-.443 1.295-.614 2.07.1z" class="h"/><g transform="translate(153.796 243.952)"><path d="M1217.276 1500.895c.413-.482.264-.906.932-.126l2.146 11.097 1.138-11.46c.507-.916.533-.644.94-.08l1.7 14.224-6.795.762z" fill="#193fa0"/><path d="M1216.807 1511.9c.116 2.147 1.007 4.41.398 6.397l-.312-.607 2.036-3.005-1.558-.696s-2.232 2.143-2.426 3.568c-.274 2.016 1.962 5.78 1.962 5.78l.61.556c.22.2 4.8.085 3.682.223 0 0 1.48.098 2.17-.116.37-.114.992-.604.992-.604.833-1.28.505-3.076.267-4.798-1.58-7.8.398.1-.365-.795 0 0 .772 2.368.464 2.95-.168.318-.188-.135-.33-.464-1.125-2.585.405-8.523.405-8.523z" fill="#a5afe6"/><path d="M1217.298 1514.62s.125-.142.202-.196c.534-.373.897-.93 1.76-.85.413.043 1.064-.254 1.16.15.1.415-.153.76-.525.97-.433.246-.802-.276-1.272-.1-.406.144-.875.874-.875.874z" class="N"/><g transform="matrix(-.734297 0 0 .734297 2116.3887 347.83075)"><use xlink:href="#AE" x="-140.272" y="-256.457" class="Y"/><use xlink:href="#AF" x="-140.272" y="-256.457" class="Z"/><use xlink:href="#AG" x="-140.273" y="-256.447" class="N"/><use xlink:href="#AH" fill="#312f57"/></g><path d="M1217.276 1500.886c-.038-.752-.102-1.018.017-1.103 0 0 1.483-1.07 1.65-.8.4.635-.652 1.262-.725 1.822-.26-.3-.616-.384-.936.1zm4.214-.48c-.038-.752-.102-1.018.017-1.103 0 0 1.65-.564 1.815-.293.4.635-.818.756-.9 1.316-.26-.3-.616-.384-.936.1z" class="B"/><g transform="matrix(-1.275592 0 0 .931698 3017.902592 -24.217169)"><use xlink:href="#AI" class="B"/><use xlink:href="#AB" fill="url(#a)" transform="translate(-8.883 2.884)"/><use xlink:href="#AC" class="B"/><use xlink:href="#AD" class="X"/></g></g><path d="M1521.322 1762.074c.43-.468.96-.796 1.974-.456l.54 12.6s5.8 2.285-3.134 3.34z" fill="#9caacf"/><use xlink:href="#AJ" fill="#1e264b"/><path d="M1524.296 1761.52c.43-.468.96-.796 1.974-.456l.54 12.6s.37 2.306-3.134 3.34z" fill="#9caacf"/><use xlink:href="#AJ" x="2.974" y="-0.553" fill="#1e264b"/><path d="M1517.26 1778.4l-.18-.67c-.3-.806-.32-.4-.402-1.206-.042-.413-.1-1.09.314-1.127.425-.04.73.26.885.658.182.464-.387.755-.3 1.243.085.423.646.902.646.902z" class="N"/><path d="M1519.984 1774.306c.116 2.147 1.17 5.278.562 7.264l-2.704-4.113-.8.665 3.04 7.62.61.556c.22.2 4.8.085 3.682.223l2.17-.116s1.17.41 1.558.066c.754-.67.232-3.016.232-3.016s-.62-.433-.762-.762c-1.125-2.585.405-8.522.405-8.522z" fill="#173490"/><g transform="matrix(.787996 0 0 .787996 563.12244 524.282)"><use xlink:href="#AE" x="-140.272" y="-256.457" class="Y"/><use xlink:href="#AF" x="-140.272" y="-256.457" class="Z"/><use xlink:href="#AG" x="-140.273" y="-256.447" class="N"/><use xlink:href="#AH" class="B"/></g><g fill="#a17d1e"><path d="M1520.262 1777.916l-3.62-1.7.143 1.01 3.6 1.943z"/><path d="M1516.9 1775.975l-.257.242.342.195.04-.262zm3.74 2.952l-.257.242-.294-.6.425.067z"/></g><path d="M1520.52 1777.674l-3.62-1.7.143 1.01 3.6 1.943z" fill="#e6e6e6"/><path d="M1521.6 1778.803l-.702-.1s-.56.618-.9.462c-.244-.11.083-.585.083-.585s-.987-.194-1.248-.44c-.23-.218.76.135.76.135s-.984-.197-1.14-.454c-.122-.2.707.152.707.152s-1.03-.238-.994-.49c.028-.2.816.106.816.106s-1.228-.16-.96-.384c.584-.485 2.672.672 2.672.672l1.223-.146z" class="N"/><path d="M1526.87 1785.48l-1.658-4.375-4.33-1.945-.18-1.602s3.86.237 5.404 1.526c1.342 1.12 2.855 4.003 2.836 4.958-.057 2.832-1.454 2.433-2.074 1.44z" fill="#1734a2"/><g transform="translate(272.855 303.349)"><g transform="matrix(1.125259 .202117 -.092266 1.061922 -245.765578 -572.316226)"><use xlink:href="#AI" class="B"/><use xlink:href="#AB" fill="url(#a)" transform="translate(-8.883 2.884)"/><use xlink:href="#AC" class="B"/><use xlink:href="#AD" class="X"/></g><path d="M1178.84 1469.32c.032-.082-.11-.697.077-1.08.63-.417 1.704-1.526 3.586-1.646 0 0 1.232.393 1.465.924.06.137-.07.257-.2.343-.474.34-1.536-.24-1.414-.666-1.664.86-1.806 2.046-2.02 3.2-.07.39-.656.7-1.008.56-.506-.216-.494-1.632-.494-1.632z" fill="#f1c793"/><path d="M1178.23 1468.808c-.105-.077-.16-.166-.097-.284.182-.335 1.257-.396 1.988.59.792 1.07.37 2.38.056 2.17-.23-.155-.235-.345-.266-.53.187-.996.102-1.82-1.68-1.947z" fill="#dda649"/><path d="M1176.2 1473.734c.38-2.018.906-3.83 1.913-4.956.813-.466 2.862 1.005 1.94 2.407l-.612.067c-.802 1.14-1.2 2.612-1.45 4.226-.214.316.02.496-.755.982l-1.847-2.953z" fill="#f2b91b"/><path d="M1185.76 1458.35l2.062 3.664c.085 1.367 0 2.676-2.34 3.2-2.3-3.012-.48-2.333-1.288-4.418l-.44-1.338z" fill="#f5b576"/><path d="M1188.686 1462.056c-.027 1.406-.22 2.738-2.597 3.092-2.035-3.27-.286-2.426-.92-4.627l-.364-1.613 1.974-1.14 1.907 4.29z" fill="#f2c492"/><path d="M1180.037 1466.223c2.863.152 2.93-.93 6.893-1.152-.2-2.863-3.107-3.41-3.806-7.41-1.137.145-1.37 4.588-6.593 5.308z" fill="#098d91"/><path d="M1175.163 1462.902c2.716-.478 4.34.15 4.966 1.78.428 1.117.35 1.077-.025 1.993-.14.343-2.356 1.606-.6 3.806.952.738 2.123 1.317 1.502 3.205l.768 2.504c-.36.166-.235.45-1.202.467l-3.472.1s-1.26-1.33-1.567-2.246c-.48-1.424-.136-4.53-.136-4.53-.688-1.49-.84-2.982-.334-4.473.286-.868.553-1.736.1-2.604z" fill="#f2c138"/><path d="M1182.55 1480.16c0-2.854-5.04-2.78-3.895-9.49-3.9 2.786-.514 6.38-.496 7.483l.047 2.927c.234 2.918 4.942 2.255 4.343-.92z" fill="#162e9c"/><path d="M1182.66 1469.35c.034-.084-.12-.713.082-1.107.673-.426 1.822-1.562 3.834-1.684 0 0 1.318.402 1.567.946.065.14-.076.263-.203.35-.507.347-1.643-.247-1.512-.682-1.78.88-1.932 2.094-2.162 3.275-.074.4-.7.727-1.078.572-.54-.22-.53-1.67-.53-1.67z" fill="#f1c793"/><path d="M1182.006 1468.827c-.113-.08-.172-.17-.104-.3.195-.343 1.345-.406 2.126.605.847 1.095.396 2.437.06 2.22-.247-.158-.25-.353-.285-.544.2-1.02.11-1.862-1.798-1.993z" fill="#dda649"/><path d="M1179.837 1473.87c.406-2.065.968-3.92 2.045-5.072.87-.477 3.06 1.028 2.076 2.463l-.654.07c-.858 1.166-1.294 2.673-1.552 4.325-.23.324.02.507-.807 1.005l-1.975-3.023z" fill="#f2c138"/></g></g></svg>