<svg xmlns="http://www.w3.org/2000/svg" xmlns:xlink="http://www.w3.org/1999/xlink" height="366" width="444"><style><![CDATA[.B{stroke-linejoin:round}.C{fill:#2b6dd0}.D{font-size:6px}.E{font-family:sans-serif}.F{word-spacing:0px}.G{fill:#fff}.H{stroke-width:1.267}.I{fill:none}.J{stroke-linecap:round}.K{stroke-width:1.434}.L{fill-opacity:.74}.M{fill:#40397f}.N{fill:#aadedc}.O{stroke:#dcdae5}.P{stroke-width:.75}.Q{color-interpolation-filters:sRGB}.R{stroke-width:1.671}]]></style><defs><linearGradient id="A" xlink:href="#Aj"><stop offset="0" stop-color="#24bcaa"/><stop offset="1" stop-color="#24c2f4" stop-opacity=".984"/></linearGradient><linearGradient id="B" xlink:href="#Aj"><stop offset="0" stop-color="#243caa"/><stop offset="1" stop-color="#2d79d9"/></linearGradient><linearGradient id="C" xlink:href="#Aj"><stop offset="0" stop-color="#71c5ea"/><stop offset="1" stop-color="#e4f2fb"/></linearGradient><linearGradient id="D" xlink:href="#Aj"><stop offset="0" stop-color="#86bbc3"/><stop offset="1" stop-color="#e1e1df"/></linearGradient><clipPath id="E"><path d="M-359.5 1225.645c-17.175-42.114-41.438-54.458-21.022-81.687 33.043-46.907 102.252-56.395 128.836-49.853 31.26 8.893 24.675 67.84 57.144 71.885 129.184 16.092 74.61 136.105 22.205 131.405-8.12-.728-21.927-74.306-22.89-71.45-29.078 70.04-127.137 90.76-164.274-.3z" fill="#2268e2" stroke="none" class="L"/></clipPath><linearGradient xlink:href="#D" id="F" x1="269.276" y1="675.669" x2="274.866" y2="670.001"/><linearGradient xlink:href="#D" id="G" x1="243.041" y1="660.241" x2="248.631" y2="654.573"/><linearGradient xlink:href="#D" id="H" x1="245.956" y1="661.955" x2="251.546" y2="656.287"/><linearGradient xlink:href="#D" id="I" x1="248.873" y1="663.67" x2="254.463" y2="658.002"/><linearGradient xlink:href="#D" id="J" x1="251.789" y1="665.384" x2="257.379" y2="659.716"/><linearGradient xlink:href="#D" id="K" x1="254.706" y1="667.097" x2="260.296" y2="661.429"/><linearGradient xlink:href="#D" id="L" x1="257.621" y1="668.812" x2="263.211" y2="663.144"/><linearGradient xlink:href="#D" id="M" x1="260.536" y1="670.527" x2="266.126" y2="664.859"/><linearGradient xlink:href="#D" id="N" x1="263.454" y1="672.241" x2="269.044" y2="666.573"/><linearGradient xlink:href="#D" id="O" x1="266.37" y1="673.955" x2="271.96" y2="668.287"/><linearGradient xlink:href="#D" id="P" x1="240.126" y1="658.527" x2="245.716" y2="652.859"/><linearGradient id="Q" x1="-220.898" y1="-747.359" x2="-210.759" y2="-667.358" xlink:href="#Aj"><stop offset="0" stop-color="#0e61b1"/><stop offset=".726" stop-color="#5e98ca"/><stop offset="1" stop-color="#4d4d4d" stop-opacity="0"/></linearGradient><mask maskUnits="userSpaceOnUse" id="R"><path transform="matrix(.992764 -.120078 0 -1 0 0)" d="M-246.663-748.164h48.704v82.738h-48.704z" opacity="1" fill="url(#Q)" fill-opacity="1" stroke="none"/></mask><linearGradient id="S" x1="-121.356" y1="-583.533" x2="-106.64" y2="-484.134" xlink:href="#Aj"><stop offset="0" stop-color="#b6e3ff"/><stop offset="1" stop-color="#0e65b4"/></linearGradient><linearGradient id="T" x1="-364.093" y1="404.547" x2="-360.045" y2="427.8" xlink:href="#Aj"><stop offset="0" stop-color="#91b6e0"/><stop offset="1" stop-color="#73b4f8"/></linearGradient><linearGradient id="U" x1="-275.234" y1="535.742" x2="-246.154" y2="552.409" xlink:href="#Aj"><stop offset="0" stop-color="#93e1f8"/><stop offset="1" stop-color="#f2ffff"/></linearGradient><linearGradient xlink:href="#C" id="V" x1="-273.738" y1="532.726" x2="-244.5" y2="549.255"/><linearGradient xlink:href="#C" id="W" x1="-271.736" y1="58.435" x2="-231.573" y2="58.435"/><linearGradient id="X" x1="-277.325" y1="533.696" x2="-274.9" y2="528.634" xlink:href="#Aj"><stop offset="0" stop-color="#224887"/><stop offset="1" stop-color="#2e78b7"/></linearGradient><linearGradient id="Y" x1="-100.15" y1="532.56" x2="-59.233" y2="464.31" xlink:href="#Aj"><stop offset="0" stop-color="#acc9eb"/><stop offset=".11" stop-color="#fbfbfd"/><stop offset=".807" stop-color="#fff"/><stop offset=".884" stop-color="#b0cbfa"/><stop offset="1" stop-color="#fbffff"/></linearGradient><linearGradient id="Z" x1="-86.199" y1="455.025" x2="-77.627" y2="462.212" xlink:href="#Aj"><stop offset="0" stop-color="#213387"/><stop offset="1" stop-color="#0b1047"/></linearGradient><linearGradient id="a" x1="-195.126" y1="448.134" x2="-310.102" y2="439.118" xlink:href="#Aj"><stop offset="0" stop-color="#0f177f"/><stop offset="1" stop-color="#0a1227"/></linearGradient><linearGradient id="b" x1="-312.158" y1="460.79" x2="-194.669" y2="460.79" xlink:href="#Aj"><stop offset="0" stop-color="#0f177f"/><stop offset="1" stop-color="#091f59"/></linearGradient><linearGradient id="c" x1="-322.738" y1="446.842" x2="-261.671" y2="482.935" xlink:href="#Aj"><stop offset="0" stop-color="#25378b"/><stop offset="1" stop-color="#51a7e0"/></linearGradient><linearGradient id="d" x1="-365.791" y1="409.424" x2="-232.626" y2="489.636" xlink:href="#Aj"><stop offset="0" stop-color="#4c9ad6"/><stop offset="1" stop-color="#25378b"/></linearGradient><filter id="e" x="-.008" width="1.017" y="-.022" height="1.043" class="Q"><feGaussianBlur stdDeviation=".425"/></filter><linearGradient id="f" x1="-192.934" y1="460.228" x2="-324.581" y2="453.665" xlink:href="#Aj"><stop offset="0" stop-color="#b4f2ec"/><stop offset="1" stop-color="#b4c7e8" stop-opacity="0"/></linearGradient><linearGradient xlink:href="#B" id="g" x1="-722.029" y1="294.592" x2="-696.673" y2="294.58"/><linearGradient xlink:href="#A" id="h" x1="-723.27" y1="294.593" x2="-695.433" y2="294.579"/><linearGradient xlink:href="#B" id="i" x1="-722.027" y1="294.592" x2="-696.672" y2="294.58"/><linearGradient xlink:href="#A" id="j" x1="-723.268" y1="294.592" x2="-695.431" y2="294.579"/><linearGradient xlink:href="#B" id="k" x1="-722.028" y1="294.592" x2="-696.673" y2="294.58"/><linearGradient xlink:href="#A" id="l" x1="-723.269" y1="294.592" x2="-695.432" y2="294.579"/><linearGradient xlink:href="#A" id="m" x1="-723.269" y1="294.593" x2="-695.432" y2="294.58"/><linearGradient xlink:href="#A" id="n" x1="-723.269" y1="294.593" x2="-695.432" y2="294.579"/><linearGradient xlink:href="#B" id="o" x1="-722.027" y1="294.591" x2="-696.672" y2="294.579"/><linearGradient xlink:href="#A" id="p" x1="-723.27" y1="294.592" x2="-695.433" y2="294.579"/><clipPath id="q"><path transform="scale(1 -1)" d="M-391.805-460.963h26.815v45.4h-26.815z" opacity=".573" fill-opacity="1" stroke="none" class="C"/></clipPath><filter id="r" x="-.01" width="1.02" y="-.019" height="1.037" class="Q"><feGaussianBlur stdDeviation=".128"/></filter><linearGradient xlink:href="#B" id="s" x1="-379.695" y1="-417.097" x2="-354.881" y2="-417.097"/><linearGradient xlink:href="#A" id="t" x1="-380.909" y1="-417.097" x2="-353.667" y2="-417.097"/><linearGradient xlink:href="#B" id="u" x1="-379.612" y1="-420.315" x2="-354.798" y2="-420.315"/><linearGradient xlink:href="#A" id="v" x1="-380.826" y1="-420.315" x2="-353.584" y2="-420.315"/><linearGradient xlink:href="#B" id="w" x1="-379.53" y1="-423.469" x2="-354.717" y2="-423.469"/><linearGradient xlink:href="#A" id="x" x1="-380.745" y1="-423.469" x2="-353.503" y2="-423.469"/><linearGradient xlink:href="#B" id="y" x1="-379.447" y1="-426.686" x2="-354.634" y2="-426.686"/><linearGradient xlink:href="#A" id="z" x1="-380.662" y1="-426.686" x2="-353.42" y2="-426.686"/><linearGradient xlink:href="#B" id="AA" x1="-379.369" y1="-429.713" x2="-354.556" y2="-429.713"/><linearGradient xlink:href="#A" id="AB" x1="-380.584" y1="-429.713" x2="-353.342" y2="-429.713"/><linearGradient xlink:href="#B" id="AC" x1="-379.287" y1="-432.93" x2="-354.473" y2="-432.93"/><linearGradient xlink:href="#A" id="AD" x1="-380.501" y1="-432.93" x2="-353.259" y2="-432.93"/><linearGradient xlink:href="#B" id="AE" x1="-379.205" y1="-436.085" x2="-354.392" y2="-436.085"/><linearGradient xlink:href="#A" id="AF" x1="-380.42" y1="-436.085" x2="-353.178" y2="-436.085"/><linearGradient xlink:href="#B" id="AG" x1="-379.122" y1="-439.302" x2="-354.309" y2="-439.302"/><linearGradient xlink:href="#A" id="AH" x1="-380.336" y1="-439.302" x2="-353.095" y2="-439.302"/><linearGradient xlink:href="#B" id="AI" x1="-379.043" y1="-442.392" x2="-354.229" y2="-442.392"/><linearGradient xlink:href="#A" id="AJ" x1="-380.257" y1="-442.392" x2="-353.015" y2="-442.392"/><linearGradient xlink:href="#B" id="AK" x1="-378.96" y1="-445.61" x2="-354.147" y2="-445.61"/><linearGradient xlink:href="#A" id="AL" x1="-380.174" y1="-445.61" x2="-352.932" y2="-445.61"/><linearGradient xlink:href="#B" id="AM" x1="-378.878" y1="-448.764" x2="-354.065" y2="-448.764"/><linearGradient xlink:href="#A" id="AN" x1="-380.093" y1="-448.764" x2="-352.851" y2="-448.764"/><linearGradient xlink:href="#B" id="AO" x1="-378.795" y1="-451.981" x2="-353.982" y2="-451.981"/><linearGradient xlink:href="#A" id="AP" x1="-380.01" y1="-451.981" x2="-352.768" y2="-451.981"/><linearGradient id="AQ" x1="-303.965" y1="-306.606" x2="-275.835" y2="-306.699" xlink:href="#Aj"><stop offset="0" stop-color="#25bfe8"/><stop offset="1" stop-color="#e7eefb"/></linearGradient><linearGradient id="AR" x1="-9.376" y1="469.554" x2="-11.989" y2="439.837" xlink:href="#Aj"><stop offset="0" stop-color="#7bebff"/><stop offset="1" stop-color="#0a1962"/></linearGradient><linearGradient id="AS" x1="4.416" y1="456" x2="70.415" y2="456" xlink:href="#Aj"><stop offset="0" stop-color="#dbe1d9"/><stop offset="1" stop-color="#69bfe0"/></linearGradient><path id="AT" d="M289.038 1274.128l.637-28.828 5.203 1.17.105 27.552zm-11.414-2.602l.85-16.67 3.397-13.326 4.726 2.282-2.336 12.05-.105 15.662zm23.253-.265l-4.14-24.634 6.158-.637 3.346 24.422zm-29.28-19.085l-4.22-4.222 10.194-10.192 3.822 3.45z"/><path id="AU" d="M292.76 1261.308c-1.007 0-1.972-.4-2.684-1.112s-1.112-1.678-1.11-2.685c0-2.096 1.7-3.795 3.795-3.795s3.795 1.7 3.795 3.795c0 1.007-.4 1.973-1.11 2.685s-1.677 1.112-2.684 1.112zm-11.202-2.974a3.9 3.9 0 0 1-3.902-3.902c.001-2.155 1.748-3.9 3.902-3.9s3.902 1.746 3.902 3.9a3.9 3.9 0 0 1-3.902 3.902zm19.96 0c-1.98 0-3.583-1.604-3.583-3.583s1.604-3.583 3.583-3.583 3.583 1.604 3.583 3.583-1.604 3.583-3.583 3.583z"/><path id="AV" d="M302.97 1246.515l-5.556-64.418c-.666-14.453-30.268-13.576-30.933 0l3.153 42.495c.63 6.156 8.728 22.008 27.48 21.923z"/><path id="AW" d="M124.328 1241.8c-3.294 0-5.946-2.652-5.946-5.946v-18.157c0-3.294 2.652-5.946 5.946-5.946h5.414c3.294 0 5.947 2.652 5.947 5.946v18.157c0 3.294-2.653 5.946-5.947 5.946zm70.124 0c-3.294 0-5.946-2.652-5.946-5.946v-18.157c0-3.294 2.652-5.946 5.946-5.946h5.416c3.294 0 5.946 2.652 5.946 5.946v18.157c0 3.294-2.652 5.946-5.946 5.946z"/><path id="AX" d="M230.308 1201.09c-1.044-.027-2.102-.16-3.16-.404l-23.832-5.5a15.66 15.66 0 0 1-12.166-15.705h-57.4l-.05-.046c-.944 7.78-7.53 13.77-15.574 13.77h-24.46a15.66 15.66 0 0 1-15.696-15.694v-1.774c0-8.695 7-15.696 15.696-15.696h19.786l-1.025-.982 12.158-45.37c1.64-5.694 4.705-12.325 13.13-13.13h49.642c8.985-.322 15.695 6.68 17.268 13.903l12.313 49.252-.684.42 18.36 4.236c8.473 1.955 13.72 10.35 11.764 18.823l-.398 1.73a15.66 15.66 0 0 1-15.662 12.167z"/><path id="AY" d="M113.656 1193.022v-18.128a7.16 7.16 0 0 0-7.174-7.174h-2.77a7.16 7.16 0 0 0-7.174 7.174v18.128"/><path id="AZ" d="M221.132 1199.476l4.703-17.507a7.16 7.16 0 0 0-5.068-8.79l-2.675-.718c-3.84-1.03-7.787 1.222-8.8 5.068l-4.703 18.038"/><path id="Aa" d="M122.595 1120.968c.555-6.925 4.92-21.19 16.8-20.453l47.287-.033c7.957-.568 18.183 5.43 19.234 19.752-25.887 1.025-21.807 23.413-39.85 23.573-21.054-.912-14.13-24.755-43.462-22.84z"/><path id="Ab" d="M263 663.178l-5.387 1.806 1.117 5.46"/><path id="Ac" d="M-391.045 422.024l.095-2.396c1.725-5 26.245-4.65 26.634-.337l-.028 2.373z"/><path id="Ad" d="M-354.88-417.097c0 .842-1.307 1.65-3.634 2.244s-5.482.93-8.773.93-6.446-.334-8.773-.93-3.634-1.402-3.634-2.244c0-1.753 5.555-3.173 12.407-3.173s12.407 1.42 12.407 3.173z"/><path id="Ae" d="M-354.717-423.47c0 1.753-5.555 3.173-12.407 3.173s-12.407-1.42-12.407-3.173c0-.842 1.307-1.65 3.634-2.244s5.482-.93 8.773-.93 6.446.334 8.773.93 3.634 1.402 3.634 2.244z"/><path id="Af" d="M-354.556-429.713c0 1.753-5.555 3.173-12.407 3.173s-12.407-1.42-12.407-3.173 5.555-3.173 12.407-3.173 12.407 1.42 12.407 3.173z"/><path id="Ag" d="M-306.398-302.5l-4.316-1.034 4.227-1.126-6.168-1.73-5.51-1.845 3.878-1 5.134 1.99 5.895 1.748 4.338-1.142-.767-.244c-3.78-1.193-6.19-2.153-7.154-2.86-.958-.71-.618-1.28 1.022-1.7 1.732-.446 4.173-.5 7.286-.137 3.087.35 6.57 1.05 10.408 2.086l3.165-.82 3.85 1.11-3.03.804c1.503.462 2.95.93 4.34 1.403a118.64 118.64 0 0 1 3.97 1.427l-3.27.882c-1.15-.51-2.395-1.006-3.738-1.484-1.35-.486-2.807-.957-4.375-1.413l-3.877 1.028.7.23c3.715 1.184 5.913 2.084 6.67 2.722.774.633.37 1.16-1.212 1.588-1.593.43-3.776.524-6.576.274-2.836-.256-6.377-.874-10.685-1.873l-4.203 1.114m11.59-5.22l3.59-.945c-1.216-.315-2.35-.53-3.4-.645-1.03-.113-1.793-.105-2.287.024-.55.144-.65.348-.297.612.36.26 1.16.58 2.396.954m-.408 2.256l-3.808 1c1.475.368 2.715.602 3.726.703 1.02.105 1.826.078 2.418-.08.61-.163.736-.367.38-.614-.348-.25-1.25-.59-2.716-1.018"/><path id="Ah" d="M-696.673 294.58a3.978 12.686 89.272 0 0-12.233-3.975 3.978 12.686 89.272 0 0-13.122 3.987 3.978 12.686 89.272 0 0 12.233 3.975 3.978 12.686 89.272 0 0 13.122-3.987z"/><path id="Ai" d="M-723.048 298.694l.37-3.006c2.33-6.25 26.724-5.415 26.63.005l-.3 2.978z"/><linearGradient id="Aj" gradientUnits="userSpaceOnUse"/></defs><g transform="matrix(1.333333 0 0 -1.333333 971.9503 644.74138)"><path d="M231.644 1188.104h46.55v-15.166h-46.55z" class="M"/><use xlink:href="#AT" fill="#3d3781"/><g class="G"><use xlink:href="#AU"/><use xlink:href="#AV"/></g><path d="M89.713 1161.22h15.077v-46.612H89.713z" class="M"/><use xlink:href="#AW" fill="#3f3981"/><g transform="matrix(1 0 0 -1 .099 .797)"><rect ry="31.503" rx="30.668" y="-1269.444" x="125.237" height="84.69" width="76.273" class="G"/><rect width="56.661" height="62.166" x="135.267" y="-1258.182" rx="22.783" ry="23.124" fill="#3d3a81"/><g class="N"><circle cx="150.084" cy="-1234.716" r="3.604"/><circle r="3.604" cy="-1234.716" cx="174.505"/></g></g><path d="M162.817 1218.452c-4.467.003-8.11 3.032-8.188 6.8H171c-.08-3.78-3.724-6.81-8.193-6.8z" class="N"/><use xlink:href="#AX" class="G"/><rect ry=".265" transform="matrix(1 0 0 -1 444.569 -8.813)" y="-1195.866" x="-294.161" height="7.958" width="24.326" fill="#dff0ea"/><g fill="#a6d9da"><use xlink:href="#AY"/><use xlink:href="#AZ"/></g><g transform="matrix(1 0 0 -1 444.569 -8.813)"><circle r="7.76" cy="-1167.561" cx="-281.173" fill="#aad7da" stroke="#40446a" class="B R"/><rect ry="10.777" y="-1108.769" x="-302.085" height="21.554" width="41.516" class="G"/></g><rect width="45.338" height="30.048" x="1089.763" y="-369.19" transform="matrix(0 1 1 0 444.569 -8.813)" ry="15.024" class="G"/><use xlink:href="#Aa" fill="#a7d9da"/><path d="M-253.1 1224.462c-38.29-24.545-41.438-54.458-21.022-81.686 33.043-46.907 102.252-56.395 128.836-49.853 52.726 15 69.494 93.147 56.46 131.84-29.078 70.04-118.728 28.896-164.274-.3z" fill="#2268e2"/><g clip-path="url(#E)" transform="translate(106.497 -1.168)"><path d="M-212.925 1196.917h46.55v-15.166h-46.55z" class="M"/><path d="M-155.53 1282.94l.637-28.828 5.203 1.17.105 27.552zm-11.414-2.602l.85-16.67 3.397-13.326 4.726 2.282-2.336 12.05-.105 15.662zm23.253-.265l-4.14-24.634 6.158-.637 3.346 24.422zm-29.28-19.085l-4.22-4.222 10.194-10.192 3.822 3.45z" fill="#3d3781"/><g class="G"><path d="M-151.8 1270.12c-1.007 0-1.972-.4-2.684-1.112s-1.112-1.678-1.1-2.685c0-2.096 1.7-3.795 3.795-3.795s3.795 1.7 3.795 3.795c0 1.007-.4 1.973-1.1 2.685a3.79 3.79 0 0 1-2.684 1.112zm-11.202-2.974a3.9 3.9 0 0 1-3.902-3.902c.001-2.155 1.748-3.9 3.902-3.9s3.902 1.746 3.902 3.9a3.9 3.9 0 0 1-3.902 3.902zm19.96 0c-1.98 0-3.583-1.604-3.583-3.583s1.604-3.583 3.583-3.583 3.583 1.604 3.583 3.583-1.604 3.583-3.583 3.583zm1.442-11.818l-5.556-64.418c-.666-14.453-30.268-13.576-30.933 0l3.153 42.495c.63 6.156 8.728 22.008 27.48 21.923z"/></g><path d="M-354.856 1170.034h15.077v-46.612h-15.077z" class="M"/><path d="M-320.24 1250.623c-3.294 0-5.946-2.652-5.946-5.946v-18.157c0-3.294 2.652-5.946 5.946-5.946h5.414c3.294 0 5.947 2.652 5.947 5.946v18.157c0 3.294-2.653 5.946-5.947 5.946zm70.124 0c-3.294 0-5.946-2.652-5.946-5.946v-18.157c0-3.294 2.652-5.946 5.946-5.946h5.416c3.294 0 5.946 2.652 5.946 5.946v18.157c0 3.294-2.652 5.946-5.946 5.946z" fill="#3f3981"/><g transform="matrix(1 0 0 -1 -444.47 9.61)"><rect ry="31.503" rx="30.668" y="-1269.444" x="125.237" height="84.69" width="76.273" class="G"/><rect width="56.661" height="62.166" x="135.267" y="-1258.182" rx="22.783" ry="23.124" fill="#3d3a81"/><g class="N"><circle cx="150.084" cy="-1234.716" r="3.604"/><circle r="3.604" cy="-1234.716" cx="174.505"/></g></g><path d="M-281.752 1227.265c-4.467.003-8.11 3.032-8.188 6.8h16.38c-.08-3.78-3.724-6.81-8.193-6.8z" class="N"/><path d="M-214.26 1209.904c-1.044-.027-2.102-.16-3.16-.404l-23.832-5.5a15.66 15.66 0 0 1-12.166-15.705h-57.4l-.05-.046c-.944 7.78-7.53 13.77-15.574 13.77h-24.46a15.66 15.66 0 0 1-15.696-15.694v-1.774c0-8.695 7-15.696 15.696-15.696h19.786l-1.025-.982 12.158-45.37c1.64-5.694 4.705-12.325 13.13-13.13h49.642c8.985-.322 15.695 6.68 17.268 13.903l12.313 49.252-.684.42 18.36 4.236c8.473 1.955 13.72 10.35 11.764 18.823l-.398 1.73a15.66 15.66 0 0 1-15.662 12.167z" class="G"/><rect ry=".265" transform="scale(1 -1)" y="-1195.866" x="-294.161" height="7.958" width="24.326" fill="#dff0ea"/><g fill="#a6d9da"><path d="M-330.913 1201.835v-18.128a7.16 7.16 0 0 0-7.174-7.174h-2.77a7.16 7.16 0 0 0-7.174 7.174v18.128m124.594 6.455l4.703-17.507a7.16 7.16 0 0 0-5.068-8.79l-2.675-.718c-3.84-1.03-7.787 1.222-8.8 5.068l-4.703 18.038"/></g><g transform="scale(1 -1)"><circle r="7.76" cy="-1167.561" cx="-281.173" fill="#aad7da" stroke="#40446a" class="B R"/><g class="G"><rect ry="10.777" y="-1108.769" x="-302.085" height="21.554" width="41.516"/></g></g><rect width="45.338" height="30.048" x="1089.763" y="-369.19" transform="matrix(0 1 1 0 0 0)" ry="15.024" class="G"/><path d="M-321.974 1129.78c.555-6.925 4.92-21.19 16.8-20.453l47.287-.033c7.957-.568 18.183 5.43 19.234 19.752-25.887 1.025-21.807 23.413-39.85 23.573-21.054-.912-14.13-24.755-43.462-22.84z" fill="#a7d9da"/></g><g transform="matrix(1 .120954 0 1 -227.91032 116.81052)" class="D E F"><text transform="scale(1 -1)" y="-747.603" x="-243.225" xml:space="preserve" letter-spacing="0"><tspan y="-747.603" x="-243.225">1</tspan><tspan y="-740.103" x="-243.225">1</tspan><tspan y="-732.603" x="-243.225">1</tspan><tspan y="-725.103" x="-243.225">0</tspan><tspan y="-717.603" x="-243.225">1</tspan><tspan y="-710.103" x="-243.225">0</tspan><tspan y="-702.603" x="-243.225">0</tspan></text><text xml:space="preserve" x="-238.595" y="-743.699" transform="scale(1 -1)" letter-spacing="0"><tspan x="-238.595" y="-743.699">1</tspan><tspan x="-238.595" y="-736.199">1</tspan><tspan x="-238.595" y="-728.699">1</tspan><tspan x="-238.595" y="-721.199">0</tspan><tspan x="-238.595" y="-713.699">1</tspan><tspan x="-238.595" y="-706.199">0</tspan><tspan x="-238.595" y="-698.699">0</tspan></text><text transform="scale(1 -1)" y="-754.661" x="-233.965" xml:space="preserve" letter-spacing="0"><tspan y="-754.661" x="-233.965">1</tspan><tspan y="-747.161" x="-233.965">1</tspan><tspan y="-739.661" x="-233.965">1</tspan><tspan y="-732.161" x="-233.965">0</tspan><tspan y="-724.661" x="-233.965">1</tspan><tspan y="-717.161" x="-233.965">0</tspan><tspan y="-709.661" x="-233.965">0</tspan></text><text transform="scale(1 -1)" y="-750.757" x="-229.335" xml:space="preserve" letter-spacing="0"><tspan y="-750.757" x="-229.335">1</tspan><tspan y="-743.257" x="-229.335">1</tspan><tspan y="-735.757" x="-229.335">1</tspan><tspan y="-728.257" x="-229.335">0</tspan><tspan y="-720.757" x="-229.335">1</tspan><tspan y="-713.257" x="-229.335">0</tspan><tspan y="-705.757" x="-229.335">0</tspan></text><text transform="scale(1 -1)" y="-743.549" x="-224.705" xml:space="preserve" letter-spacing="0"><tspan y="-743.549" x="-224.705">1</tspan><tspan y="-736.049" x="-224.705">1</tspan><tspan y="-728.549" x="-224.705">1</tspan><tspan y="-721.049" x="-224.705">0</tspan><tspan y="-713.549" x="-224.705">1</tspan><tspan y="-706.049" x="-224.705">0</tspan><tspan y="-698.549" x="-224.705">0</tspan></text><text transform="scale(1 -1)" y="-760.592" x="-220.075" xml:space="preserve" letter-spacing="0"><tspan y="-760.592" x="-220.075">1</tspan><tspan y="-753.092" x="-220.075">1</tspan><tspan y="-745.592" x="-220.075">1</tspan><tspan y="-738.092" x="-220.075">0</tspan><tspan y="-730.592" x="-220.075">1</tspan><tspan y="-723.092" x="-220.075">0</tspan><tspan y="-715.592" x="-220.075">0</tspan></text><text transform="scale(1 -1)" y="-757.289" x="-215.445" xml:space="preserve" letter-spacing="0"><tspan y="-757.289" x="-215.445">1</tspan><tspan y="-749.789" x="-215.445">1</tspan><tspan y="-742.289" x="-215.445">1</tspan><tspan y="-734.789" x="-215.445">0</tspan><tspan y="-727.289" x="-215.445">1</tspan><tspan y="-719.789" x="-215.445">0</tspan><tspan y="-712.289" x="-215.445">0</tspan></text><text transform="scale(1 -1)" y="-767.95" x="-210.816" xml:space="preserve" letter-spacing="0"><tspan y="-767.95" x="-210.816">1</tspan><tspan y="-760.45" x="-210.816">1</tspan><tspan y="-752.95" x="-210.816">1</tspan><tspan y="-745.45" x="-210.816">0</tspan><tspan y="-737.95" x="-210.816">1</tspan><tspan y="-730.45" x="-210.816">0</tspan><tspan y="-722.95" x="-210.816">0</tspan></text><text transform="scale(1 -1)" y="-764.421" x="-206.186" xml:space="preserve" letter-spacing="0"><tspan y="-764.421" x="-206.186">1</tspan><tspan y="-756.921" x="-206.186">1</tspan><tspan y="-749.421" x="-206.186">1</tspan><tspan y="-741.921" x="-206.186">0</tspan><tspan y="-734.421" x="-206.186">1</tspan><tspan y="-726.921" x="-206.186">0</tspan><tspan y="-719.421" x="-206.186">0</tspan></text><text xml:space="preserve" x="-201.556" y="-757.063" transform="scale(1 -1)" letter-spacing="0"><tspan x="-201.556" y="-757.063">1</tspan><tspan x="-201.556" y="-749.563">1</tspan><tspan x="-201.556" y="-742.063">1</tspan><tspan x="-201.556" y="-734.563">0</tspan><tspan x="-201.556" y="-727.063">1</tspan><tspan x="-201.556" y="-719.563">0</tspan><tspan x="-201.556" y="-712.063">0</tspan></text></g><g transform="translate(-436.67 -374.225)"><g transform="translate(-.466 .483)"><g transform="translate(-312.331 60.664)" class="B"><path d="M85.263 626.664V604.79l-23.36-12.954c-2.382-1.398-1.446-5.026.212-5.946l51.284-29.04 24.102 14.175c1.326.7 1.465 3-.212 4.088l-10.405 6.583c-1.373 1.2-1.177 3.132.265 4.247l3.982 2.92m29.046-5.36L177.52 573.5c1.24-.56 2.848.1 4.053.854l43.715 25.24m37.716 22.196l57.715 33.322c3.576 2.1 4.185 6.08 1.974 7.37L310 669.8m-37.804 64.4v-21.623l17.006 10.2c1.433.77 2.866.725 4.298-.206l21.548-13.083c1.244-.584 1.524-3.124.694-3.604l-20.67-12.327c-2.25-1.468-.777-4.03.286-4.64l11.187-6.982c.85-.472 1.116-2.545.225-3.04l-15.992-8.972" class="I J O P"/><g transform="scale(1 -1)" class="G L"><g stroke-width=".309" class="O"><ellipse cx="128.914" cy="-570.53" rx="2.677" ry="1.907"/><ellipse ry="1.907" rx="2.677" cy="-568.014" cx="123.921"/><ellipse cx="119.604" cy="-564.899" rx="2.677" ry="1.907"/></g><g stroke="#d1d1d1" stroke-width=".45"><ellipse ry="1.225" rx="1.955" cy="-587.405" cx="144.761"/><ellipse ry="1.225" rx="1.955" cy="-592.741" cx="154.981"/><ellipse cx="159.785" cy="-595.661" rx="1.955" ry="1.225"/></g></g><g transform="matrix(.983848 .077719 .035223 .930575 -19.350861 25.536708)" class="I J P"><use xlink:href="#Ab" stroke="url(#F)"/><use xlink:href="#Ab" x="26.235" y="15.428" stroke="url(#G)"/><use xlink:href="#Ab" x="23.32" y="13.714" stroke="url(#H)"/><use xlink:href="#Ab" x="20.403" y="11.999" stroke="url(#I)"/><use xlink:href="#Ab" x="17.487" y="10.285" stroke="url(#J)"/><use xlink:href="#Ab" x="14.57" y="8.572" stroke="url(#K)"/><use xlink:href="#Ab" x="11.655" y="6.857" stroke="url(#L)"/><use xlink:href="#Ab" x="8.74" y="5.142" stroke="url(#M)"/><use xlink:href="#Ab" x="5.822" y="3.428" stroke="url(#N)"/><use xlink:href="#Ab" x="2.906" y="1.714" stroke="url(#O)"/><use xlink:href="#Ab" x="29.15" y="17.142" stroke="url(#P)"/></g><path d="M299.787 698.397c-.394-.247-.958-.343-1.57-.267s-1.228.318-1.712.676c-1.02.753-1.197 1.81-.372 2.352.833.548 2.35.352 3.363-.432.48-.372.78-.827.83-1.264s-.144-.816-.54-1.064m4.695 2.943c-.417-.26-1-.362-1.623-.28a3.56 3.56 0 0 0-1.722.719c-1.01.8-1.14 1.92-.265 2.496.883.58 2.43.37 3.43-.464.475-.395.757-.88.788-1.343s-.19-.865-.607-1.127m4.97 3.115c-.44-.277-1.045-.382-1.68-.295s-1.26.362-1.73.767c-.995.852-1.07 2.044-.145 2.654.937.616 2.515.39 3.5-.5.467-.42.732-.936.74-1.43s-.24-.918-.683-1.196" stroke="#d1d1d1" stroke-width=".469" class="G J"/></g><g transform="matrix(-1.336302 -.012216 -.054205 .81894 -113.75168 207.92519)"><g transform="scale(1 -1)"><circle cx="-55.889" cy="-567.894" r="5.706" fill="#56d0ff"/><g stroke="#c2d6dd" stroke-width=".15" class="B I"><circle r="7.061" cy="-567.894" cx="-55.889"/><circle cx="-55.889" cy="-567.894" r="8.744"/><circle cx="-55.889" cy="-567.894" r="10.708"/><circle r="11.962" cy="-567.894" cx="-55.889"/><circle cx="-55.889" cy="-567.894" r="13.419"/></g></g><g stroke="#56d0ff" class="J B I"><path d="M-42.632 565.808a13.42 13.42 0 0 0-9.127-10.683m-12.28 23.43a13.42 13.42 0 0 0 18.531-2.154" stroke-width="1.875"/><path d="M-59.182 578.083a10.71 10.71 0 0 0 13.816-12.178" stroke-width="1.42"/><path d="M-48.023 564.076c-1.31-2.697-3.91-4.535-6.888-4.87s-5.923.88-7.8 3.217" stroke-width="1.696"/><path d="M-55.6 560.84a7.06 7.06 0 0 0-3.818 13.17 7.06 7.06 0 0 0 9.496-9.893" stroke-width=".79"/><path d="M-45.745 561.554c-3.107-4.97-9.36-6.958-14.767-4.692s-8.375 8.117-7 13.818" stroke-width=".629"/></g></g></g><g transform="matrix(1 .120954 0 1 .409212 26.263001)" mask="url(#R)" fill="#0e65b2" class="D E F"><text xml:space="preserve" x="-243.225" y="-747.603" transform="scale(1 -1)" letter-spacing="0"><tspan x="-243.225" y="-747.603">1</tspan><tspan x="-243.225" y="-740.103">1</tspan><tspan x="-243.225" y="-732.603">1</tspan><tspan x="-243.225" y="-725.103">0</tspan><tspan x="-243.225" y="-717.603">1</tspan><tspan x="-243.225" y="-710.103">0</tspan><tspan x="-243.225" y="-702.603">0</tspan></text><text transform="scale(1 -1)" y="-743.699" x="-238.595" xml:space="preserve" letter-spacing="0"><tspan y="-743.699" x="-238.595">1</tspan><tspan y="-736.199" x="-238.595">1</tspan><tspan y="-728.699" x="-238.595">1</tspan><tspan y="-721.199" x="-238.595">0</tspan><tspan y="-713.699" x="-238.595">1</tspan><tspan y="-706.199" x="-238.595">0</tspan><tspan y="-698.699" x="-238.595">0</tspan></text><text xml:space="preserve" x="-233.965" y="-754.661" transform="scale(1 -1)" letter-spacing="0"><tspan x="-233.965" y="-754.661">1</tspan><tspan x="-233.965" y="-747.161">1</tspan><tspan x="-233.965" y="-739.661">1</tspan><tspan x="-233.965" y="-732.161">0</tspan><tspan x="-233.965" y="-724.661">1</tspan><tspan x="-233.965" y="-717.161">0</tspan><tspan x="-233.965" y="-709.661">0</tspan></text><text xml:space="preserve" x="-229.335" y="-750.757" transform="scale(1 -1)" letter-spacing="0"><tspan x="-229.335" y="-750.757">1</tspan><tspan x="-229.335" y="-743.257">1</tspan><tspan x="-229.335" y="-735.757">1</tspan><tspan x="-229.335" y="-728.257">0</tspan><tspan x="-229.335" y="-720.757">1</tspan><tspan x="-229.335" y="-713.257">0</tspan><tspan x="-229.335" y="-705.757">0</tspan></text><text xml:space="preserve" x="-224.705" y="-743.549" transform="scale(1 -1)" letter-spacing="0"><tspan x="-224.705" y="-743.549">1</tspan><tspan x="-224.705" y="-736.049">1</tspan><tspan x="-224.705" y="-728.549">1</tspan><tspan x="-224.705" y="-721.049">0</tspan><tspan x="-224.705" y="-713.549">1</tspan><tspan x="-224.705" y="-706.049">0</tspan><tspan x="-224.705" y="-698.549">0</tspan></text><text xml:space="preserve" x="-220.075" y="-760.592" transform="scale(1 -1)" letter-spacing="0"><tspan x="-220.075" y="-760.592">1</tspan><tspan x="-220.075" y="-753.092">1</tspan><tspan x="-220.075" y="-745.592">1</tspan><tspan x="-220.075" y="-738.092">0</tspan><tspan x="-220.075" y="-730.592">1</tspan><tspan x="-220.075" y="-723.092">0</tspan><tspan x="-220.075" y="-715.592">0</tspan></text><text xml:space="preserve" x="-215.445" y="-757.289" transform="scale(1 -1)" letter-spacing="0"><tspan x="-215.445" y="-757.289">1</tspan><tspan x="-215.445" y="-749.789">1</tspan><tspan x="-215.445" y="-742.289">1</tspan><tspan x="-215.445" y="-734.789">0</tspan><tspan x="-215.445" y="-727.289">1</tspan><tspan x="-215.445" y="-719.789">0</tspan><tspan x="-215.445" y="-712.289">0</tspan></text><text xml:space="preserve" x="-210.816" y="-767.95" transform="scale(1 -1)" letter-spacing="0"><tspan x="-210.816" y="-767.95">1</tspan><tspan x="-210.816" y="-760.45">1</tspan><tspan x="-210.816" y="-752.95">1</tspan><tspan x="-210.816" y="-745.45">0</tspan><tspan x="-210.816" y="-737.95">1</tspan><tspan x="-210.816" y="-730.45">0</tspan><tspan x="-210.816" y="-722.95">0</tspan></text><text xml:space="preserve" x="-206.186" y="-764.421" transform="scale(1 -1)" letter-spacing="0"><tspan x="-206.186" y="-764.421">1</tspan><tspan x="-206.186" y="-756.921">1</tspan><tspan x="-206.186" y="-749.421">1</tspan><tspan x="-206.186" y="-741.921">0</tspan><tspan x="-206.186" y="-734.421">1</tspan><tspan x="-206.186" y="-726.921">0</tspan><tspan x="-206.186" y="-719.421">0</tspan></text><text transform="scale(1 -1)" y="-757.063" x="-201.556" xml:space="preserve" letter-spacing="0"><tspan y="-757.063" x="-201.556">1</tspan><tspan y="-749.563" x="-201.556">1</tspan><tspan y="-742.063" x="-201.556">1</tspan><tspan y="-734.563" x="-201.556">0</tspan><tspan y="-727.063" x="-201.556">1</tspan><tspan y="-719.563" x="-201.556">0</tspan><tspan y="-712.063" x="-201.556">0</tspan></text></g></g><g transform="rotate(1.34 15714.49 -18141.405)"><path d="M-189.937 774.88l68.572 40.455c2.1.923 3.352-.6 3.4-2.315l.46-58.747-70.244-40.067c-1.593-.487-3.848-.214-3.882 2.08l.308 55.98c.053.98.037 1.98 1.384 2.614z" fill="#53d0ff"/><path d="M-120.488 816.756a3.1 3.1 0 0 1-1.094-.278L-190.5 775.72c-1.354-.638-1.337-1.645-1.4-2.634l-.31-56.395c.034-2.313 2.44-3.64 4.924-2.248l1.474.842c-2.118-.58-4.05.43-4.077 2.318l.3 54.658c.052.958.035 1.935 1.35 2.553l66.954 39.5c1.608.707 2.698-.055 3.12-1.228l-.01 1.058c-.04 1.412-.88 2.682-2.325 2.6z" fill="#172a55"/><path d="M-187.628 774.22l65.842 38.724c2.016.884 3.218-.565 3.266-2.216l.443-56.234-67.78-38.57c-1.53-.466-3.364.01-3.396 2.208l.295 53.584c.05.94.036 1.897 1.33 2.503z" fill="#0e65b4"/><path transform="matrix(.737552 0 0 -.735271 -73.334556 395.484964)" d="M-64.275-568.12c-.432.02-.906.134-1.418.36l-30.05 17.73-32.047 100.084 33.88-19.34 30.814-98.633c-.35-.148-.744-.22-1.182-.2zm-38.727 22.37l-7.055 4.162-32.07 99.822 5.57-3.18zm-15.53 9.162l-24.135 14.238-14.293 46.168-.125 22.797 12.547 3.434z" fill="url(#S)"/></g><path transform="translate(-368.049 -70.534)" d="M-201.036 373.176c-2.9-2.144-4.504-1.67-5.486-1.122l-48.944 29.492c-.46.224-.22 1.72-.22 1.72-1-.226-2.682-3.77-2.17-6.035l49.34-29.87c.982-.547 2.576-1.023 5.486 1.12l67.307 40.49c.677.544.928 4.54.354 4.89.1-1.652-2.107-2.934-3.477-3.72-20.917-11.993-62.2-36.967-62.2-36.967z" fill="#e9efef" filter="url(#e)"/><g transform="translate(-310.674 -120.409)"><path d="M-311.812 452.538l47.787-28.042c.95-.514 2.495-.96 5.313 1.053l65.052 38.127c1.057.823.973 3.32-.598 4.236l-49.998 28.48-22.64-12.924-44.847-26.812c-1.758-.927-1.385-3.494-.068-4.12z" fill="url(#f)"/><path d="M-311.06 453.26l46.796-27.46c.93-.503 2.443-.94 5.203 1.03l63.703 37.336c1.035.806.953 3.253-.586 4.148l-48.96 27.89-22.172-12.656-43.917-26.256c-1.72-.908-1.356-3.422-.066-4.033z" fill="url(#b)"/><path d="M-258.41 425.677c-2.9-2.11-4.487-1.64-5.465-1.103l-48.757 29.006c-.457.22-.22 1.692-.22 1.692-.997-.223-1.88-2.272-1.37-4.5l49.153-29.38c.978-.538 2.566-1.006 5.465 1.103l67.05 39.822c.674.535.132 3.03-.44 3.376.1-1.625-2.1-2.886-3.464-3.66l-61.952-36.358z" fill="url(#a)"/></g><path d="M-615.082 334.22l60.958 35.194c1.926 1.314 3.946.983 6.107-.576l18.93-10.93c2.667-1.373 1.51-4 0-4.954l-56.5-32.626c-3.313-1.91-6.04-2.5-10.615 0l-17.692 10.214c-1.655.94-2.32 2.48-1.18 3.677z" fill="#172772"/><path d="M-336.15 456.258l59.532 34.37c1.88 1.284 3.853.96 5.964-.562l18.487-10.674c2.604-1.34 1.476-3.906 0-4.838l-55.188-31.863c-3.235-1.864-5.9-2.442-10.366 0L-335 452.667c-1.616.92-2.267 2.423-1.15 3.59z" fill="url(#c)" transform="translate(-277.914 -121.799)"/><path transform="translate(-283.727 -115.612)" d="M-323.166 451.998l-2.946-1.684c-.266-.152-.213-.43.118-.625l1.98-1.164c.33-.194.81-.227 1.076-.075l2.94 1.688c.264.152.2.43-.12.624l-1.977 1.16c-.33.194-.807.228-1.072.077m36.477 20.48l-2.816-1.6c-.254-.144-.198-.414.124-.604l1.93-1.138c.322-.2.785-.227 1.038-.082l2.8 1.603c.253.144.196.413-.125.602l-1.925 1.136c-.32.2-.784.226-1.037.082m-27.18-15.268l-2.926-1.654c-.264-.15-.213-.426.115-.62l1.962-1.16c.328-.194.804-.23 1.067-.08l2.92 1.66c.262.15.21.424-.117.617l-1.957 1.158c-.327.193-.802.23-1.065.08m9.17 5.15l-2.89-1.635c-.26-.148-.21-.42.117-.614l1.952-1.153c.326-.193.798-.23 1.058-.08l2.885 1.638c.26.147.206.42-.118.613l-1.947 1.15c-.325.192-.796.228-1.055.082m9.06 5.09l-2.857-1.616c-.258-.146-.204-.417.12-.608l1.94-1.147c.324-.19.792-.228 1.05-.082l2.85 1.62c.256.145.202.416-.12.607l-1.934 1.144c-.323.19-.8.228-1.046.083m-24.398-20.774c-.248-.162-.172-.442.172-.63l2.058-1.117c.343-.186.818-.206 1.066-.043l51.206 29.07c.23.152.15.42-.18.6l-1.985 1.08c-.33.18-.784.204-1.016.053l-51.32-29.013m52.99 30c-.25-.14-.196-.406.12-.595l1.898-1.133c.317-.19.773-.228 1.022-.087l2.762 1.56c.248.14.194.405-.122.593l-1.893 1.13c-.316.188-.77.228-1.02.088l-2.768-1.556m-47.547-33.22c-.267-.152-.173-.443.17-.63l2.05-1.122c.342-.187.8-.198 1.067-.046l48.684 27.807c.25.142.154.42-.176.602l-1.98 1.088c-.33.18-.767.195-1.017.053l-48.796-27.752m51.3 29.245c-.25-.14-.173-.413.15-.598l1.94-1.11c.323-.185.768-.21 1.02-.07l4.21 2.367c.25.14.17.412-.15.597l-1.934 1.107c-.322.185-.764.21-1.014.07l-4.22-2.363m-45.766-32.487c-.295-.17-.155-.506.23-.7l2.31-1.222c.386-.204.865-.195 1.16-.026l56.546 32.51c.273.157.13.477-.24.674l-2.22 1.18c-.37.197-.823.192-1.096.036l-56.7-32.44" fill="url(#d)"/><path d="M-560.05 328.888l17.67 10.264c.557.383 1.15.292 1.793-.15l7.166-3.728c.79-.39.465-1.147.027-1.425l-16.382-9.515c-.96-.557-1.757-.733-3.11-.025l-6.8 3.525c-.5.267-.694.708-.366 1.055z" fill="#172772"/><path d="M-336.15 456.258l59.532 34.37c1.88 1.284 3.853.96 5.964-.562l23.42-13.02c2.604-1.34 1.476-3.906 0-4.84l-55.188-31.863c-3.235-1.864-5.9-2.442-10.366 0l-22.2 12.32c-1.616.92-2.267 2.423-1.15 3.59z" fill="url(#c)" transform="matrix(.293076 .00236 -.00551 .287553 -458.72128 198.55431)"/><g transform="matrix(1.049324 0 0 1.051451 -310.54853 -180.50328)"><path d="M-278.913 536.174l4.725-2.124 29.836 17.626-3.132 2.124z" fill="url(#U)"/><path d="M-274.188 534.05l.09-2.705 29.762 17.496-.017 2.835z" fill="url(#V)"/><path d="M-274.188 534.05l.225-6.02-4.956 2.004.005 6.14z" fill="url(#X)"/><path d="M-232.058 44.512l-1.255.765.114 1.763-35.827 20.2-.2-1.764-2.51 2.452.07 1.72-.062.037.172 2.66 39.984-23.586-.326-2.637z" transform="matrix(.75 0 0 -.75 -70.295037 582.29995)" fill="url(#W)"/></g><g transform="translate(-175.312 -6)"><path d="M-386.056 432.688l66.953 39.5c2.05.902 3.273-.576 3.32-2.26l.45-57.36-68.923-39.342c-1.555-.476-3.42.01-3.454 2.252l.3 54.658c.052.958.036 1.935 1.35 2.553z" fill="#7baac4"/><path d="M-384.433 432.22l63.807 37.644c1.953.86 3.12-.55 3.165-2.154l.43-54.665-65.684-37.493c-1.482-.453-3.26.01-3.29 2.147l.286 52.09c.05.913.035 1.844 1.288 2.433z" stroke="#7aacdf" stroke-width=".715" class="I"/><path d="M-358.174 432.21a8.78 5.293 54.822 0 1-4.541-1.881 8.78 5.293 54.822 0 1-4.818-10.995 8.78 5.293 54.822 0 1 8.086-.836 8.78 5.293 54.822 0 1 4.818 10.994 8.78 5.293 54.822 0 1-3.545 2.719zm5.427-11.982c-.684.05-1.308-.1-1.617-.13-4.014-6.068-7.725-7.67-12.14-7.238-2.86.327-6.173-3.597-5.593-8.317l.53-8.972 21.713 11.786-.158 9.662c-.3 2.51-1.596 3.124-2.736 3.208z" fill="url(#T)"/><path d="M-348.433 435.642l25.022 15.048m-24.965-16.92l25.022 15.048m-25.004-16.92l25.022 15.048m-25.064-16.91l10.423 6.258" stroke="#91b6e0" class="B I J P"/></g><g transform="matrix(.921501 0 0 .951795 -483.47251 -118.81331)"><path d="M-89.79 453.588l18.237 8.897c-2.703 3.547-9.014 3.85-12.335 2.56-5.297-2.13-4.874-7.16-5.902-11.456z" fill="url(#Z)"/><path d="M-122.087 524.14l15.394-9.068c2.493-1.05 3.054-2.5 3-4.078l.21-47.695c-.102-2.308.86-3.686 2.25-4.687l7.22-4.594c5.35-2.703 7.093 2.478 9.188 6.89 1.044 2.544 5.44 7.07 10.547 3.375l7.5-4.828 28.172 16.125-10.36 5.813c-1.18.778-2.762.466-3.937-.14l-16.453-9.516c-1.6-.686-6.62 2.983-6.562 5.86l.07 50.09c-.182 1.647-.91 2.574-3.78 4.176l-14.714 8.592z" fill="url(#Y)"/><path d="M-99.924 503.717l21.094 11.906m-21.094-14.906l20.625 11.625m-20.625-14.437l21 12m-21-15l10.22 5.906m-10.22-9.844l20.25 11.25m-20.25-14.812l20.156 11.906" stroke="#e3e3e3" class="I J P"/></g><g transform="matrix(1 .015742 -.090499 .998575 -420.49914 -69.035448)"><g transform="matrix(.948718 0 0 -.598639 18.980378 155.35357)"><ellipse ry="9.745" rx="16.805" cy="-353.852" cx="-212.703" fill="url(#CI)"/><ellipse cx="-212.703" cy="-353.852" rx="15.117" ry="8.204" opacity=".734" filter="url(#r)" class="C"/></g><g clip-path="url(#q)" transform="matrix(1.020447 0 0 1.257001 202.864 -158.8613)"><use xlink:href="#Ac" class="C"/><use xlink:href="#Ad" transform="matrix(.999913 -.013181 .025773 -.999668 0 0)" fill="url(#s)" stroke="url(#t)" class="B H"/><path d="M-391.045 425.24l.095-2.396c1.725-5 26.245-4.65 26.634-.337l-.028 2.373z" class="C"/><path transform="matrix(.999913 -.013181 .025773 -.999668 0 0)" d="M-354.8-420.315c0 .842-1.307 1.65-3.634 2.244s-5.482.93-8.773.93-6.446-.334-8.773-.93-3.634-1.402-3.634-2.244c0-1.753 5.555-3.173 12.407-3.173s12.407 1.42 12.407 3.173z" fill="url(#u)" stroke="url(#v)" class="B H"/><path d="M-391.045 428.392l.095-2.396c1.725-5 26.245-4.65 26.634-.337l-.028 2.373z" class="C"/><use xlink:href="#Ae" transform="matrix(.999913 -.013181 .025773 -.999668 0 0)" fill="url(#w)" stroke="url(#x)" class="B H"/><path d="M-391.045 431.607l.095-2.396c1.725-5 26.245-4.65 26.634-.337l-.028 2.373z" class="C"/><path transform="matrix(.999913 -.013181 .025773 -.999668 0 0)" d="M-354.634-426.686c0 1.753-5.555 3.173-12.407 3.173s-12.407-1.42-12.407-3.173c0-.842 1.307-1.65 3.634-2.244s5.482-.93 8.773-.93 6.446.334 8.773.93 3.634 1.402 3.634 2.244z" fill="url(#y)" stroke="url(#z)" class="B H"/><path d="M-391.045 434.63l.095-2.396c1.725-5 26.245-4.65 26.634-.337l-.028 2.373z" class="C"/><use xlink:href="#Af" transform="matrix(.999913 -.013181 .025773 -.999668 0 0)" fill="url(#AA)" stroke="url(#AB)" class="B H"/><path d="M-391.045 437.847l.095-2.396c1.725-5 26.245-4.65 26.634-.337l-.028 2.373z" class="C"/><path transform="matrix(.999913 -.013181 .025773 -.999668 0 0)" d="M-354.473-432.93c0 .842-1.307 1.65-3.634 2.244s-5.482.93-8.773.93-6.446-.334-8.773-.93-3.634-1.402-3.634-2.244c0-1.753 5.555-3.173 12.407-3.173s12.407 1.42 12.407 3.173z" fill="url(#AC)" stroke="url(#AD)" class="B H"/><path d="M-391.045 441l.095-2.396c1.725-5 26.245-4.65 26.634-.337l-.028 2.373z" class="C"/><path transform="matrix(.999913 -.013181 .025773 -.999668 0 0)" d="M-354.392-436.085c0 .842-1.307 1.65-3.634 2.244s-5.482.93-8.773.93-6.446-.334-8.773-.93-3.634-1.402-3.634-2.244c0-1.753 5.555-3.173 12.407-3.173s12.407 1.42 12.407 3.173z" fill="url(#AE)" stroke="url(#AF)" class="B H"/><path d="M-391.045 444.214l.095-2.396c1.725-5 26.245-4.65 26.634-.337l-.028 2.373z" class="C"/><path transform="matrix(.999913 -.013181 .025773 -.999668 0 0)" d="M-354.31-439.302c0 1.753-5.555 3.173-12.407 3.173s-12.407-1.42-12.407-3.173c0-.842 1.307-1.65 3.634-2.244s5.482-.93 8.773-.93 6.446.334 8.773.93 3.634 1.402 3.634 2.244z" fill="url(#AG)" stroke="url(#AH)" class="B H"/><path d="M-391.045 447.302l.095-2.396c1.725-5 26.245-4.65 26.634-.337l-.028 2.373z" class="C"/><path transform="matrix(.999913 -.013181 .025773 -.999668 0 0)" d="M-354.23-442.392c0 1.753-5.555 3.173-12.407 3.173s-12.407-1.42-12.407-3.173c0-.842 1.307-1.65 3.634-2.244s5.482-.93 8.773-.93 6.446.334 8.773.93 3.634 1.402 3.634 2.244z" fill="url(#AI)" stroke="url(#AJ)" class="B H"/><path d="M-391.045 450.517l.095-2.396c1.725-5 26.245-4.65 26.634-.337l-.028 2.373z" class="C"/><path transform="matrix(.999913 -.013181 .025773 -.999668 0 0)" d="M-354.147-445.6c0 1.753-5.555 3.173-12.407 3.173s-12.407-1.42-12.407-3.173 5.555-3.173 12.407-3.173 12.407 1.42 12.407 3.173z" fill="url(#AK)" stroke="url(#AL)" class="B H"/><path d="M-391.045 453.67l.095-2.396c1.725-5 26.245-4.65 26.634-.337l-.028 2.373z" class="C"/><path transform="matrix(.999913 -.013181 .025773 -.999668 0 0)" d="M-354.065-448.764c0 .842-1.307 1.65-3.634 2.244s-5.482.93-8.773.93-6.446-.334-8.773-.93-3.634-1.402-3.634-2.244c0-1.753 5.555-3.173 12.407-3.173s12.407 1.42 12.407 3.173z" fill="url(#AM)" stroke="url(#AN)" class="B H"/><path d="M-391.045 456.885l.095-2.396c1.725-5 26.245-4.65 26.634-.337l-.028 2.373z" class="C"/><path transform="matrix(.999913 -.013181 .025773 -.999668 0 0)" d="M-353.982-451.98c0 .842-1.307 1.65-3.634 2.244s-5.482.93-8.773.93-6.446-.334-8.773-.93-3.634-1.402-3.634-2.244c0-1.753 5.555-3.173 12.407-3.173s12.407 1.42 12.407 3.173z" fill="url(#AO)" stroke="url(#AP)" class="B H"/></g></g><use xlink:href="#Ag" fill="url(#AQ)" transform="matrix(.029429 .115116 1.265717 -.282071 -244.63043 290.33316)"/><g transform="translate(102.884 -1.326)"><ellipse cx="-681.709" cy="-302.399" transform="matrix(.999876 .01574 .090258 -.995918 0 0)" rx="15.945" ry="5.849" fill="url(#Bz)"/><g class="C"><ellipse ry="8.204" rx="15.117" transform="matrix(.948718 .014934 .054176 -.597787 -487.95307 82.083088)" cy="-353.852" cx="-212.703" opacity=".734" filter="url(#r)"/><path d="M-722.682 294.658l.37-3.006c2.33-6.25 26.748-5.415 26.654.005l-.3 2.978z"/></g><use xlink:href="#Ah" fill="url(#g)" stroke="url(#h)" class="B K"/><use xlink:href="#Ai" class="C"/><use xlink:href="#Ah" x="-0.367" y="4.036" fill="url(#i)" stroke="url(#j)" class="B K"/><use xlink:href="#Ai" x="-0.359" y="3.956" class="C"/><use xlink:href="#Ah" x="-0.725" y="7.993" fill="url(#k)" stroke="url(#l)" class="B K"/><path d="M-723.773 306.686l.37-3.006c2.33-6.25 26.63-5.415 26.537.005l-.3 2.978z" class="C"/><g transform="translate(1.078 -12.891)"><use xlink:href="#Ah" x="-2.159" y="23.817" fill="url(#k)" stroke="url(#m)" class="B K"/><use xlink:href="#Ai" x="-2.159" y="23.816" class="C"/><use xlink:href="#Ah" x="-2.525" y="27.853" fill="url(#k)" stroke="url(#n)" class="B K"/><path d="M-725.558 326.387l.37-3.006c2.33-6.25 26.77-5.415 26.678.005l-.3 2.978z" class="C"/><use xlink:href="#Ah" x="-2.877" y="31.73" fill="url(#o)" stroke="url(#j)" class="B K"/><path d="M-725.924 330.423l.37-3.006c2.33-6.25 26.763-5.415 26.67.005l-.3 2.978z" class="C"/><use xlink:href="#Ah" x="-3.242" y="35.765" fill="url(#k)" stroke="url(#n)" class="B K"/><path d="M-726.282 334.38l.37-3.006c2.33-6.25 26.747-5.415 26.654.005l-.3 2.978z" class="C"/><use xlink:href="#Ah" x="-3.6" y="39.722" fill="url(#g)" stroke="url(#p)" class="B K"/><path d="M-726.648 338.416l.37-3.006c2.33-6.25 26.78-5.415 26.687.005l-.3 2.978z" class="C"/><use xlink:href="#Ah" x="-3.967" y="43.758" fill="url(#i)" stroke="url(#j)" class="B K"/></g></g><use xlink:href="#Ag" fill="url(#AQ)" transform="matrix(.029429 .115116 1.265717 -.282071 -212.41288 272.03677)"/><g transform="translate(-534.318 -79.239)"><path d="M6.686 452.318l35.796 22.506c.79.496 1.937.127 2.82-.394l23.684-13.97c.883-.52.658-1.572-.148-2.065l-36.25-22.2c-.805-.493-1.93-.13-2.82.394l-23.23 13.662c-.89.524-.642 1.568.148 2.065z" opacity=".76" fill="url(#AS)"/><path d="M-40.917 452.082c-1.384-.984-.884-2.33 0-2.835l22.093-13.188c1.83-1.043 3.5-.59 5.613.576l34.693 21.406c.388.182 1.037 1.933.105 2.644L.052 473.835c-1.347.853-3.087.322-4.184-.342z" fill="url(#AR)" transform="translate(48.188 2.813)"/><path d="M7.538 455.807c-1.372-.944-.876-2.234 0-2.72l21.904-12.646c1.814-1 3.47-.567 5.565.552l34.396 20.527c.385.175 1.03 1.854.104 2.536l-21.352 12.61c-1.335.818-3.06.31-4.148-.328z" fill="#1265b5"/><path d="M49.49 475.882L9.9 451.75l15.09-8.71 40.09 23.643z" fill="#56d0ff"/><rect ry=".504" transform="matrix(.825662 .564165 .823725 -.566989 0 0)" y="-389.357" x="410.568" height="4.33" width="6.118" fill="#3154ba"/><g transform="matrix(-1.051828 -.615206 .646957 -.572326 273.07997 159.50386)" fill="#3154ba"><rect ry=".322" y="-456.117" x="-76.629" height="3.597" width="1.529"/><rect ry=".322" y="-456.112" x="-73.172" height="3.597" width="1.529"/><rect ry=".322" y="-456.108" x="-69.714" height="3.597" width="1.529"/><rect ry=".322" y="-456.103" x="-66.256" height="3.597" width="1.529"/><rect ry=".322" y="-456.135" x="-62.798" height="3.597" width="1.529"/><rect ry=".322" y="-456.13" x="-59.341" height="3.597" width="1.529"/><rect ry=".322" y="-456.126" x="-55.883" height="3.597" width="1.529"/><rect ry=".322" y="-456.121" x="-52.426" height="3.597" width="1.529"/><rect ry=".322" y="-456.117" x="-48.968" height="3.597" width="1.529"/></g></g></g></svg>