<svg xmlns="http://www.w3.org/2000/svg" xmlns:xlink="http://www.w3.org/1999/xlink" width="672.933" height="358.933"><style><![CDATA[.B{fill:#221d7b}.C{fill:#bcc0e3}.D{fill:#0c0e3f}.E{fill:#0c0e75}.F{fill:#fff}.G{color-interpolation-filters:sRGB}]]></style><defs><linearGradient id="A" xlink:href="#Au"><stop offset="0" stop-color="#cfd1f8"/><stop offset="1" stop-color="#eaecf5"/></linearGradient><linearGradient id="B" xlink:href="#Au"><stop offset="0" stop-color="#413faa"/><stop offset="1" stop-color="#5650d2"/></linearGradient><linearGradient id="C" xlink:href="#Au"><stop offset="0" stop-color="#f6924f"/><stop offset="1" stop-color="#e57244"/></linearGradient><linearGradient id="D" xlink:href="#Au"><stop offset="0" stop-color="#f6924f"/><stop offset="1" stop-color="#df733a"/></linearGradient><linearGradient xlink:href="#D" id="E" x1="256.941" y1="744.71" x2="257.844" y2="744.684"/><linearGradient xlink:href="#C" id="F" x1="-114.685" y1="329.254" x2="-107.139" y2="328.578"/><linearGradient xlink:href="#C" id="G" x1="-105.039" y1="320.918" x2="-98.265" y2="324.296"/><linearGradient xlink:href="#C" id="H" x1="-105.13" y1="310.415" x2="-103.457" y2="310.309"/><linearGradient xlink:href="#C" id="I" x1="-11.077" y1="326.348" x2="12.286" y2="330.553"/><linearGradient xlink:href="#C" id="J" x1="2.869" y1="340.825" x2="-18.968" y2="339.773"/><linearGradient id="K" x1="66.785" y1="-242.783" x2="38.03" y2="-242.623" xlink:href="#Au"><stop offset="0" stop-color="#4d469f"/><stop offset="1" stop-color="#8983e5"/></linearGradient><linearGradient id="L" xlink:href="#Au"><stop offset="0" stop-color="#d5dcf8"/><stop offset="1" stop-color="#d5dcf8" stop-opacity="0"/></linearGradient><linearGradient xlink:href="#L" id="M" x1="508.129" y1="803.532" x2="536.911" y2="851.296"/><linearGradient id="N" xlink:href="#Au"><stop offset="0" stop-color="#dcddef"/><stop offset="1" stop-color="#dcddef" stop-opacity="0"/></linearGradient><linearGradient y2="1626.034" x2="30.154" y1="1626.034" x1="18.553" id="O" xlink:href="#Au"><stop offset="0" stop-color="#dcddef"/><stop offset="1" stop-color="#dee2f9"/></linearGradient><linearGradient id="P" x1="367.296" y1="880.112" x2="419.108" y2="859.657" xlink:href="#Au"><stop offset="0" stop-color="#807cf7"/><stop offset="1" stop-color="#fcb068"/></linearGradient><linearGradient xlink:href="#R" id="Q" x1="313.283" y1="728.371" x2="294.947" y2="695.567"/><linearGradient id="R" xlink:href="#Au"><stop offset="0" stop-color="#463faf"/><stop offset="1" stop-color="#221d7b"/></linearGradient><linearGradient xlink:href="#T" id="S" x1="296.142" y1="732.516" x2="293.988" y2="727.496"/><linearGradient id="T" xlink:href="#Au"><stop offset="0" stop-color="#cfd8f7"/><stop offset="1" stop-color="#e7e8fa"/></linearGradient><linearGradient xlink:href="#V" id="U" x1="-364.395" y1="-542.923" x2="-365.66" y2="-525.596"/><linearGradient id="V" xlink:href="#Au"><stop offset="0" stop-color="#a3aad4"/><stop offset="1" stop-color="#bcc1e9"/></linearGradient><linearGradient id="W" xlink:href="#Au"><stop offset="0" stop-color="#4d4abd"/><stop offset="1" stop-color="#11124a"/></linearGradient><linearGradient xlink:href="#W" id="X" x1="315.146" y1="746.308" x2="284.632" y2="738.081"/><linearGradient id="Y" x1="400.909" y1="-1721.265" x2="395.872" y2="-1738.006" xlink:href="#Au"><stop offset="0" stop-color="#fff"/><stop offset="1" stop-color="#fff" stop-opacity="0"/></linearGradient><linearGradient id="Z" xlink:href="#Au"><stop offset="0" stop-color="#bfc4ec"/><stop offset="1" stop-color="#bfc4ec" stop-opacity="0"/></linearGradient><linearGradient xlink:href="#W" id="a" x1="265.033" y1="790.314" x2="261.08" y2="736.858"/><linearGradient xlink:href="#c" id="b" x1="303.188" y1="750.296" x2="294.831" y2="750.097"/><linearGradient id="c" xlink:href="#Au"><stop offset="0" stop-color="#bcc1e7"/><stop offset="1" stop-color="#d0d4f7"/></linearGradient><linearGradient xlink:href="#Z" id="d" x1="285.344" y1="768.542" x2="318.534" y2="770.759"/><linearGradient id="e" x1="103.816" y1="90.432" x2="116.898" y2="75.539" xlink:href="#Au"><stop offset="0" stop-color="#bec2e7"/><stop offset="1" stop-color="#f5f5ff"/></linearGradient><linearGradient id="f" x1="86.905" y1="1603.456" x2="96.35" y2="1615.057" xlink:href="#Au"><stop offset="0" stop-color="#f4f5fa"/><stop offset="1" stop-color="#bcc2e6"/></linearGradient><linearGradient id="g" x1="87.141" y1="1605.049" x2="95.518" y2="1614.032" xlink:href="#Au"><stop offset="0" stop-color="#1f1a6a"/><stop offset="1" stop-color="#4642b3"/></linearGradient><linearGradient xlink:href="#N" id="h" x1="-18.49" y1="1629.879" x2="-27.234" y2="1629.51"/><linearGradient id="i" x1="-18.52" y1="1630.778" x2="-18.466" y2="1630.778" xlink:href="#Au"><stop offset="0" stop-color="#bcc1e9"/><stop offset="1" stop-color="#cfd5f7"/></linearGradient><linearGradient xlink:href="#R" id="j" x1="79.431" y1="1581.847" x2="90.068" y2="1562.816"/><linearGradient xlink:href="#W" id="k" x1="277.049" y1="569.471" x2="273.097" y2="516.015"/><linearGradient xlink:href="#N" id="l" x1="265.026" y1="799.235" x2="283.854" y2="798.88"/><linearGradient xlink:href="#B" id="m" x1="265.092" y1="801.303" x2="264.975" y2="801.303"/><linearGradient xlink:href="#N" id="n" x1="527.287" y1="782.671" x2="546.114" y2="782.317"/><linearGradient xlink:href="#B" id="o" x1="527.352" y1="784.739" x2="527.236" y2="784.739"/><linearGradient xlink:href="#T" id="p" x1="409.72" y1="493.421" x2="407.345" y2="487.653"/><linearGradient xlink:href="#V" id="q" x1="-494.445" y1="-242.367" x2="-495.825" y2="-224.022"/><linearGradient xlink:href="#W" id="r" x1="375.878" y1="556.378" x2="371.518" y2="494.963"/><linearGradient xlink:href="#T" id="s" x1="10.583" y1="1609.231" x2="7.656" y2="1614.932"/><linearGradient xlink:href="#W" id="t" x1="-73.023" y1="1555.772" x2="-55.321" y2="1550.999"/><linearGradient xlink:href="#W" id="u" x1="376.731" y1="555.689" x2="372.371" y2="494.273"/><linearGradient xlink:href="#R" id="v" x1="428.982" y1="490.455" x2="408.759" y2="452.766"/><linearGradient xlink:href="#Z" id="w" x1="398.471" y1="536.75" x2="435.077" y2="539.297"/><linearGradient xlink:href="#O" id="x"/><linearGradient id="y" x1="49.315" y1="-1643.066" x2="49.498" y2="-1643.066" xlink:href="#Au"><stop offset="0" stop-color="#9d99d4"/><stop offset="1" stop-color="#bbb6f8"/></linearGradient><radialGradient id="z" gradientTransform="matrix(1.5566083,0,0,1,-25.995134,0)" cx="46.516" cy="-1645.342" fx="46.516" fy="-1645.342" r=".878" xlink:href="#Au"><stop offset="0" stop-color="#cd794d"/><stop offset="1" stop-color="#cd794d" stop-opacity="0"/></radialGradient><linearGradient xlink:href="#O" id="AA"/><linearGradient xlink:href="#C" id="AB" x1="2.869" y1="340.825" x2="-18.968" y2="339.773"/><linearGradient xlink:href="#C" id="AC" x1="-11.077" y1="326.348" x2="12.286" y2="330.553"/><linearGradient xlink:href="#L" id="AD" x1="508.129" y1="803.532" x2="536.911" y2="851.296"/><linearGradient xlink:href="#T" id="AE" x1="-61.37" y1="1547.949" x2="-59.919" y2="1544.017"/><linearGradient xlink:href="#V" id="AF" x1="-79.309" y1="-1512.155" x2="-80.13" y2="-1502.103"/><linearGradient xlink:href="#W" id="AG" x1="277.05" y1="569.471" x2="273.097" y2="516.015"/><linearGradient xlink:href="#c" id="AH" x1="46.151" y1="1577.047" x2="50.999" y2="1576.938"/><linearGradient xlink:href="#D" id="AI" x1="-123.212" y1="321.368" x2="-122.309" y2="321.342"/><linearGradient xlink:href="#C" id="AJ" x1="-114.684" y1="329.254" x2="-107.139" y2="328.579"/><linearGradient xlink:href="#C" id="AK" x1="-105.039" y1="320.918" x2="-98.264" y2="324.297"/><linearGradient xlink:href="#C" id="AL" x1="-105.131" y1="310.416" x2="-103.459" y2="310.31"/><linearGradient xlink:href="#W" id="AM" x1="276.625" y1="569.869" x2="272.672" y2="516.413"/><linearGradient xlink:href="#A" id="AN" x1="394.399" y1="445.516" x2="406.928" y2="427.89"/><linearGradient id="AO" x1="395.478" y1="443.821" x2="406.124" y2="428.845" xlink:href="#Au"><stop offset="0" stop-color="#4e47ba"/><stop offset="1" stop-color="#211c76"/></linearGradient><filter id="AP" x="-.014" width="1.027" y="-.011" height="1.021" class="G"><feGaussianBlur stdDeviation=".092"/></filter><linearGradient xlink:href="#A" id="AQ" x1="357.748" y1="391.089" x2="355.764" y2="394.206"/><linearGradient xlink:href="#Z" id="AR" x1="216.018" y1="445.78" x2="268.706" y2="450.716"/><linearGradient xlink:href="#L" id="AS" x1="508.128" y1="803.532" x2="536.91" y2="851.296"/><filter id="AT" x="-.011" width="1.021" y="-.014" height="1.028" class="G"><feGaussianBlur stdDeviation=".195"/></filter><path id="AU" d="M-18.505 1626.563h-7.478l-1.252 2.948.533 3.333 8.233.023z"/><path id="AV" d="M-23.297 1635l4.875 2.742 4.688-2.72-4.734-3.047z"/><path id="AW" d="M-13.734 1635.024v-5.766l-4.72-2.725-4.834 2.79-.01 5.676 4.828-3.023z"/><path id="AX" d="M509.487 813.526c10.63-6.093 77.166 6.378 35.195 11.198 26.406 13.795 27.66 25.22 15.312 29.938-10.098 3.86-30.014-1.45-45.022-7.77z"/><path id="AY" d="M71.18 1581.665l6.913 3.724c4.866-.4 7.295-4.73 7.802-5.512.597-.92 3.264-6.72.682-9.436-.89-.935-5.57-4.886-6.893-4.98z"/><path id="AZ" d="M410.127 507.8l17.595-7.812-8.642-21.686-17.344 9.616-.006.055c-1.546.52-2.55 2.24-2.55 4.877v4.87c0 4.423 4.298 9.186 6.094 10.042.872.526 1.39.803 2.392.86s1.677-.4 2.46-.823z"/><path id="Aa" d="M393.492 532.473s-3.217 1.48-5.18 1.672c-3.945.39-8.716.702-11.73-1.322-4.672-3.138-6.627-7.438-7.232-11.57-.308-2.103-1.07-4.128-.744-6.334.168-1.134.564-3.82 2.524-4.097 1.702-.242-.45 3.348-.45 3.348.194.53.77.408 1.175.345.803-.124.742-1.582 2.02-1.364.728.124 2.105-.463 2.338.287.27.867-2.04 1.803-2.04 1.803l-.74.968c-1.43 1.128-.853 3.036-1.166 4.63 1.243 4.204 5.167 8.273 7.903 9.48 0 0 3.34.983 5.098.854 1.256-.09 2.845-.926 3.244-1.114 1.532-.722 6.49 1.517 4.982 2.416z"/><path id="Ab" d="M10.5 1626.48c-.155.01-.294-.023-.415-.088h-.002l-.025-.015-17.243-10.264L4.325 1592.5l17.162 10.26a.71.71 0 0 1 .149.089h.006c.205.165.333.448.333.84v15.113c0 .88-.622 1.922-1.395 2.34l-9.536 5.153c-.193.104-.376.158-.543.168z"/><path id="Ac" d="M-70.648 1563.518s-1.613-1.484-1.922-2.484c-.62-2.004-.588-4.418.375-6.28 1.545-2.992 4.662-5.32 7.875-6.328 1.972-.62 4.123.535 6.187.422 1.062-.058 2.74-1.548 3.14-.562.347.856-2.297 1.547-2.297 1.547-.475.17-.255.425-.234.656.064.722 1.188 1.193 1.078 1.887-.062.395-.378.59-.668.563-.487-.05-.914-1.148-.914-1.148l-.95-.26c-1.147-.6-2.91-.33-4.406-.29-3.8 1.188-5.316 3.482-6.234 5.063 0 0-.668 1.866-.422 2.766.176.643 1.063 1.363 1.266 1.547.778.705-.934 3.577-1.875 2.906z"/><path id="Ad" d="M444.667 488.645l-13.142 6.797c-9.252-.71-13.87-8.634-14.834-10.06-1.136-1.68-6.205-12.266-1.296-17.222 1.69-1.707 10.587-8.917 13.104-9.087z"/><path id="Ae" d="M410.777 532.422h29.365l-10.208 4.234-20.417 11.312z"/><path id="Af" d="M18.553 1628.297l.023 6.033c.53 5.803 10.505 5.638 11.246.83l.33-6.596c-1.312-2.325-7.824-4.158-11.6-.265z"/><path id="Ag" d="M51.783 1631.637l1.77.82c1.86.862 1.494.827 1.588-2.338.037-1.243-.262-1.862-1.4-2.36l-1.817-.797c-1.138-.5-2.29.907-2.29 2.15s1.022 2.002 2.15 2.525z"/><path id="Ah" d="M55.14 1630.3l-.02 1.32a.663.663 0 0 1 .019-1.321z"/><path id="Ai" d="M-6.847 346.242a12.731 7.459 0 0 1-12.732-7.459 12.731 7.459 0 0 1 .623-2.273c2.006 2.577 6.43 4.37 11.58 4.37 5.67 0 10.467-2.172 12.116-5.172a12.731 7.459 0 0 1 1.146 3.075 12.731 7.459 0 0 1-12.731 7.459z"/><path id="Aj" d="M-25.985 339.1l-.558-5.654.01-.005-.01-.208c0-6.2 8.58-11.228 19.166-11.228 10.043 0 18.276 4.526 19.093 10.286l.013.01.558 5.654-.01-.022a19.165 11.228 0 0 0-19.125-10.566 19.165 11.228 0 0 0-19.166 11.228 19.165 11.228 0 0 0 .031.501z"/><path id="Ak" d="M-6.847 349.824a19.165 11.228 0 0 1-19.166-11.228 19.165 11.228 0 0 1 19.166-11.228 19.165 11.228 0 0 1 19.165 11.228 19.165 11.228 0 0 1-19.165 11.228zm0-3.582a12.731 7.459 0 0 0 12.731-7.459 12.731 7.459 0 0 0-12.731-7.459 12.731 7.459 0 0 0-12.732 7.459 12.731 7.459 0 0 0 12.732 7.459z"/><path id="Al" d="M370.83 517.504c.813-.124.742-1.582 2.02-1.364.728.124 2.1-.432 2.338.287.28.846-2.04 1.803-2.04 1.803l-.74.968c-3.206 4.2-1.664-1.7-1.577-1.694z"/><path id="Am" d="M-70.648 1563.518s-1.613-1.484-1.922-2.484c-.62-2.004-.588-4.418.375-6.28 1.545-2.992 4.662-5.32 7.875-6.328 1.972-.62 4.123.535 6.187.422l.844.984c-.475.17-.255.425-.234.656.064.722 1.188 1.193 1.078 1.887-.062.395-.378.59-.668.563-.487-.05-.914-1.148-.914-1.148l-.95-.26c-1.147-.6-2.91-.33-4.406-.29-3.8 1.188-5.316 3.482-6.234 5.063 0 0-.668 1.866-.422 2.766.176.643 1.063 1.363 1.266 1.547.778.705-.934 3.577-1.875 2.906z"/><path id="An" d="M290.837 550.637s-2.916 1.41-4.697 1.58c-3.57.34-7.682-.026-10.635-1.25-4.742-1.964-6.347-5.572-7.423-9.423-.495-1.773.376-3.398.673-5.48.153-1.07.51-3.607 2.29-3.87 1.543-.228-.408 3.162-.408 3.162.176.5.698.384 1.065.326.737-.117.672-1.494 1.83-1.288.66.117 1.903-.408 2.12.27.254.8-1.85 1.703-1.85 1.703l-.67.914c-1.297 1.065-1.255 2.867-1.538 4.372 1.127 3.97 4.685 5.808 7.166 6.947 0 0 3.028.93 4.622.807 1.14-.086 2.58-.875 2.94-1.052 1.39-.682 5.885 1.433 4.517 2.282z"/><path id="Ao" d="M-117.717 319.622c-1.116 5.3 3.467 8.787 11.404 6.95l4.655 3.68-9.9 5.03-6.157-3.116-1.915-4.805 1.365-2.404c.1-1.893.372-3.557.557-5.335z"/><path id="Ap" d="M-97.904 330.815c-.002.002 2.29-8.702-5.923-13.494-7.72-4.505-3.012 4.823-3.012 4.823z"/><path id="Aq" d="M-112.732 318.277s-1.09-6.457.375-7.62 7.996-4.73 7.996-4.73l21.998 12.613-.024 5.497-21.11-9.514z"/><path id="Ar" d="M-122.254 322.532l3.508 2.025c.627.248.562.65.294 1.098-2.875 9.488 20.096 9.302 12.34 1.157-3.59-4.165-9.53-6.47-5.256-10.85l7.433-4.655 21.548 12.73-3.716 2.39-16.192-10.087-3.398 2.017c-2.084 1.237-.244 2.96 1.7 4.14 12.123 7.374 5.1 14.528-4.406 14.122-9.276.213-18.788-5.372-17.573-10.246.703-1.417 2.273-4.675 3.72-3.84z"/><path id="As" d="M395.9 444.1l14.718-8.31c.435-.246.767-.887.77-1.4l.045-10.398c.002-.514-.334-.702-.77-.456l-14.718 8.31c-.435.246-.767.887-.77 1.4l-.045 10.398c-.002.514.27.456.77.456z"/><path id="At" d="M311.052 759.66s2.78-2.558 3.313-4.282c1.066-3.455 1.013-7.615-.646-10.827-2.664-5.157-8.037-9.168-13.574-10.908-3.4-1.068-7.107.922-10.666.727-1.83-.1-4.725-2.67-5.414-.97-.597 1.475 3.96 2.666 3.96 2.666.82.29.44.732.404 1.13-.1 1.244-2.047 2.056-1.858 3.252.107.68.652 1.02 1.15.97.84-.085 1.576-1.98 1.576-1.98l1.636-.45c1.977-1.035 5.014-.57 7.595-.5 6.55 2.047 9.164 6.002 10.746 8.726 0 0 1.152 3.217.727 4.767-.303 1.108-1.832 2.35-2.182 2.666-1.342 1.216 1.6 6.165 3.232 5.01z"/><linearGradient id="Au" gradientUnits="userSpaceOnUse"/></defs><g transform="matrix(1.333333 0 0 -1.333333 -80.364639 1235.8328)"><g transform="matrix(1 0 0 -1 367.466 433.73)"><ellipse cx="52.673" cy="-243.42" rx="13.866" ry="8.176" fill="url(#K)"/><ellipse ry="8.176" rx="13.547" cy="-246.074" cx="52.46" fill="#f5f6f7"/></g><g transform="translate(-58.562 -29.731)"><path d="M368.428 870.424c-.667-.65-1.132-1.497-1.132-2.16v-24.496c0-.885.828-1.093 1.856-.467L406.91 866.3l6.265-3.138-.463 6.03 4.883 3.616c1.028.626 1.856 1.843 1.856 2.728v24.498c0 .885-.828 1.093-1.856.467l-48.44-29.508c-.257-.156-.502-.35-.724-.567z" fill="url(#P)"/><g transform="matrix(1.817967 1.844019 0 1.380413 76.132931 -1652.011)"><ellipse transform="matrix(.956027 -.293278 .16931 -.985563 0 0)" ry="4.935" rx="4.203" cy="-1765.066" cx="493.98" class="F"/><path d="M173.258 1599.376v-4.664l-3.684 3.674a3.415 5.778 31.128 0 1 .707-5.131l.034-.063a3.415 5.778 31.128 0 1 5.886-3.721 3.415 5.778 31.128 0 1 .445 6.403 3.415 5.778 31.128 0 1-3.387 3.502z" fill="#4845b0"/></g><path d="M372.385 865.3v-1.035l8.522 4.503v1.035zm0-3.494v-1.035l8.522 4.503v1.035zm2.75-2.32v-.752l5.7 3.38v.75zm28.475 18.626c-.355-2.6 3.532-5.413 4.04-4.955 0 0 5.975 8.822 6.236 11.6.34 3.613-1.614 4.097-6.206.102-1.94-1.687-4.184-4.572-4.07-6.746" class="F"/><ellipse transform="matrix(.777421 .62898 .049484 -.998775 0 0)" cx="559.415" cy="-530.066" rx="3.767" ry="2.647" fill="#8687da"/></g><g transform="matrix(-2.153011 0 0 2.071693 384.27286 -2484.316)"><use xlink:href="#AU" fill="url(#h)"/><use xlink:href="#AV" fill="#f4f1fc"/><use xlink:href="#AW" fill="url(#i)"/></g><g transform="matrix(.663753 0 0 .663753 115.48466 274.13648)"><path d="M265.058 792.57h16.1l2.696 6.107-1.147 6.906-17.726.048z" fill="url(#l)"/><path d="M275.376 810.05l-10.496 5.68-10.092-5.632 10.193-6.312z" fill="#7f7df7"/><path d="M254.788 810.097v-11.945l10.16-5.645 10.41 5.783.02 11.758-10.395-6.264z" fill="url(#m)"/></g><g transform="matrix(.628188 0 0 .628188 215.21666 303.97133)"><path d="M527.32 776.005h16.1l2.696 6.107-1.147 6.906-17.726.048z" fill="url(#n)"/><path d="M537.637 793.485l-10.496 5.68-10.092-5.632 10.193-6.312z" fill="#feaf6a"/><path d="M517.05 793.534V781.59l10.16-5.645 10.41 5.783.02 11.758-10.395-6.264z" fill="url(#o)"/></g><use xlink:href="#AX" fill="url(#AD)"/><g transform="matrix(.987401 0 0 1 86.035853 353.72865)"><g transform="matrix(-1.86189 0 -.081107 1.75586 650.24552 -2258.866066)"><use xlink:href="#AY" transform="matrix(1.021082 0 -.045279 1.039419 55.685501 -66.413038)" fill="url(#j)"/><g transform="matrix(.945083 -.326829 .178999 -.983849 0 0)"><ellipse cx="392.527" cy="-1725.591" rx="7.274" ry="8.549" class="B"/><ellipse ry="7.752" rx="6.596" cy="-1725.591" cx="392.527" class="C"/></g><ellipse cx="399.016" cy="-1726.597" transform="matrix(.947279 -.320409 .182877 -.983136 0 0)" rx="5.886" ry="6.786" class="F"/></g><use xlink:href="#AZ" fill="url(#p)"/><rect width="14.705" height="20.838" x="-501.538" y="-244.648" transform="matrix(-.856454 -.516224 0 -1 0 0)" ry="7.984" rx="7.353" fill="url(#q)"/><use xlink:href="#Aa" fill="url(#r)"/><g transform="matrix(-1.901143 0 0 1.825074 421.91606 -2416.2925)"><use xlink:href="#Ab" fill="url(#s)"/><rect width="14.01" height="18.284" x="-8.533" y="-1612.789" transform="matrix(.879762 -.475415 0 -1 0 0)" ry="1.586" fill="#bcc1e9"/></g><g transform="matrix(-1.901143 0 0 1.825074 291.85398 -2331.602)"><g transform="matrix(.924196 -.381919 0 -1 -109.719 -59.117)"><ellipse ry="2.3" rx="1.94" cy="-1637.721" cx="43.268" class="D"/><ellipse cx="43.268" cy="-1637.721" rx="1.686" ry="1.999" class="E"/></g><use xlink:href="#Ac" fill="url(#t)"/></g><use xlink:href="#Ad" fill="url(#v)"/><g transform="matrix(-1.86189 0 -.081107 1.75586 678.2854 -2281.3988)"><g transform="matrix(.945083 -.326829 .178999 -.983849 0 0)"><ellipse cx="392.527" cy="-1725.591" rx="7.274" ry="8.549" class="B"/><ellipse ry="7.752" rx="6.596" cy="-1725.591" cx="392.527" class="C"/></g><ellipse cx="399.016" cy="-1726.597" transform="matrix(.947279 -.320409 .182877 -.983136 0 0)" rx="5.886" ry="6.786" fill="url(#Y)"/></g><use xlink:href="#Ae" fill="url(#w)"/><g transform="matrix(-1.901143 0 0 1.825074 455.79854 -2435.3964)"><use xlink:href="#Af" fill="url(#x)"/><g transform="matrix(.980543 -.069292 .067638 .957134 -134.24308 74.683358)"><use xlink:href="#Ag" fill="#807dff"/><g fill="#c9bfff"><circle transform="scale(1 -1)" r=".663" cy="-1629.225" cx="51.799"/><use xlink:href="#Ah"/></g></g></g><g transform="matrix(-1.901143 0 0 1.825074 503.56359 -2441.3247)"><path d="M49.358-1644.976c.163 0 .295.182.295.41v3.003c0 .226-.132.286-.295.286s-.295-.06-.295-.286v-3.003c0-.226.132-.41.295-.41z" transform="scale(1 -1)" fill="url(#y)"/><g transform="matrix(1 0 0 -1 2.386 -.017)"><circle r=".878" cy="-1645.482" cx="46.951" fill="#fa964a"/><circle cx="46.935" cy="-1645.474" r=".878" fill="url(#z)"/></g></g><g transform="translate(390.442 168.225)"><use xlink:href="#Ai" fill="url(#J)"/><use xlink:href="#Aj" fill="url(#I)"/><use xlink:href="#Ak" fill="#eff3fe"/></g><use xlink:href="#Al" fill="url(#u)"/><g transform="matrix(-1.901143 0 0 1.825074 291.85398 -2331.602)"><g transform="matrix(.924196 -.381919 0 -1 -109.719 -59.117)"><ellipse cx="43.268" cy="-1637.721" rx="1.94" ry="2.3" class="D"/><ellipse ry="1.999" rx="1.686" cy="-1637.721" cx="43.268" class="E"/></g><use xlink:href="#Am" fill="url(#t)"/></g></g><g transform="translate(.601)"><use xlink:href="#AX" x="-128.687" y="-77.298" fill="url(#AS)"/><g transform="matrix(.987401 0 0 1 -43.04772 277.17392)"><g transform="matrix(-1.86189 0 -.081107 1.75586 650.24552 -2258.866066)"><use xlink:href="#AY" transform="matrix(1.021082 0 -.045279 1.039419 55.685501 -66.413038)" fill="url(#j)"/><g transform="matrix(.945083 -.326829 .178999 -.983849 0 0)"><ellipse cx="392.527" cy="-1725.591" rx="7.274" ry="8.549" class="B"/><ellipse ry="7.752" rx="6.596" cy="-1725.591" cx="392.527" class="C"/></g><ellipse cx="399.016" cy="-1726.597" transform="matrix(.947279 -.320409 .182877 -.983136 0 0)" rx="5.886" ry="6.786" class="F"/></g><use xlink:href="#AZ" fill="url(#p)"/><rect width="14.705" height="20.838" x="-501.538" y="-244.648" transform="matrix(-.856454 -.516224 0 -1 0 0)" ry="7.984" rx="7.353" fill="url(#q)"/><use xlink:href="#Aa" fill="url(#r)"/><g transform="matrix(-1.901143 0 0 1.825074 421.91606 -2416.2925)"><use xlink:href="#Ab" fill="url(#s)"/><rect width="14.01" height="18.284" x="-8.533" y="-1612.789" transform="matrix(.879762 -.475415 0 -1 0 0)" ry="1.586" fill="#bcc1e9"/></g><g transform="matrix(-1.901143 0 0 1.825074 291.85398 -2331.602)"><g transform="matrix(.924196 -.381919 0 -1 -109.719 -59.117)"><ellipse ry="2.3" rx="1.94" cy="-1637.721" cx="43.268" class="D"/><ellipse cx="43.268" cy="-1637.721" rx="1.686" ry="1.999" class="E"/></g><use xlink:href="#Ac" fill="url(#t)"/></g><use xlink:href="#Ad" fill="url(#v)"/><g transform="matrix(-1.86189 0 -.081107 1.75586 678.2854 -2281.3988)"><g transform="matrix(.945083 -.326829 .178999 -.983849 0 0)"><ellipse cx="392.527" cy="-1725.591" rx="7.274" ry="8.549" class="B"/><ellipse ry="7.752" rx="6.596" cy="-1725.591" cx="392.527" class="C"/></g><ellipse cx="399.016" cy="-1726.597" transform="matrix(.947279 -.320409 .182877 -.983136 0 0)" rx="5.886" ry="6.786" fill="url(#Y)"/></g><use xlink:href="#Ae" fill="url(#w)"/><g transform="matrix(-1.901143 0 0 1.825074 455.79854 -2435.3964)"><use xlink:href="#Af" fill="url(#AA)"/><g transform="matrix(.980543 -.069292 .067638 .957134 -134.24308 74.683358)"><use xlink:href="#Ag" fill="#807dff"/><g fill="#c9bfff"><circle transform="scale(1 -1)" r=".663" cy="-1629.225" cx="51.799"/><use xlink:href="#Ah"/></g></g></g><g transform="translate(390.442 168.225)"><use xlink:href="#Ai" fill="url(#AB)"/><use xlink:href="#Aj" fill="url(#AC)"/><use xlink:href="#Ak" fill="#eff3fe"/></g><use xlink:href="#Al" fill="url(#u)"/><g transform="matrix(-1.901143 0 0 1.825074 291.85398 -2331.602)"><g transform="matrix(.924196 -.381919 0 -1 -109.719 -59.117)"><ellipse cx="43.268" cy="-1637.721" rx="1.94" ry="2.3" class="D"/><ellipse ry="1.999" rx="1.686" cy="-1637.721" cx="43.268" class="E"/></g><use xlink:href="#Am" fill="url(#t)"/></g></g></g><g transform="translate(117.875 294.311)"><use xlink:href="#AX" x="-185.05" y="-333.844" fill="url(#AD)"/><g transform="matrix(-1.688135 0 -.073538 1.658354 525.81308 -2087.163624)"><use xlink:href="#AY" transform="matrix(1.021082 0 -.045279 1.039419 55.685501 -66.413038)" fill="url(#j)"/><g transform="matrix(.945083 -.326829 .178999 -.983849 0 0)"><ellipse cx="392.527" cy="-1725.591" rx="7.274" ry="8.549" class="B"/><ellipse ry="7.752" rx="6.596" cy="-1725.591" cx="392.527" class="C"/></g><ellipse cx="399.016" cy="-1726.597" transform="matrix(.947279 -.320409 .182877 -.983136 0 0)" rx="5.886" ry="6.786" class="F"/></g><g transform="matrix(-1.483567 0 0 1.723725 216.68698 -2155.289)"><path d="M-61.62 1555.447l-10.753-4.28 5.282-11.882 10.6 5.27.004.03c.945.285 1.558 1.227 1.558 2.672v2.668c0 2.423-2.627 5.033-3.724 5.502-.533.288-.85.44-1.462.472s-1.025-.214-1.504-.45z" fill="url(#AE)"/><rect width="8.749" height="11.417" x="-83.529" y="-1513.405" transform="matrix(.879762 -.475415 0 -1 0 0)" rx="4.374" fill="url(#AF)"/></g><use xlink:href="#An" fill="url(#AG)"/><g transform="matrix(-1.723725 0 0 1.632654 394.33057 -2044.932)"><path d="M37.7 1570.037c-.086.13-.126.267-.13.403v.03l.325 20.06 26.2 1.76-.362-19.992c.006-.058.005-.116-.003-.174h.003c-.04-.26-.224-.51-.563-.706l-13.1-7.52a2.92 2.92 0 0 0-2.723.046l-9.215 5.708a1.32 1.32 0 0 0-.417.388z" fill="url(#AH)"/><rect ry="1.586" transform="matrix(.850095 -.526629 .867456 .497514 0 0)" y="1559.032" x="-1547.22" height="18.284" width="14.01" fill="#f8f6f9"/></g><g transform="matrix(-1.723725 0 0 1.723725 200.8672 -2155.8603)"><g transform="matrix(.924196 -.381919 0 -1 -109.719 -59.117)"><ellipse cx="43.268" cy="-1637.721" rx="1.94" ry="2.3" class="D"/><ellipse ry="1.999" rx="1.686" cy="-1637.721" cx="43.268" class="E"/></g><use xlink:href="#Ac" fill="url(#t)"/></g><g transform="matrix(-1.723725 0 0 1.723725 461.79223 -2218.743)"><use xlink:href="#AY" fill="url(#j)"/><g transform="matrix(.979353 0 .042662 .962076 -51.70244 63.894355)"><g transform="matrix(.945083 -.326829 .178999 -.983849 0 0)"><ellipse cx="392.527" cy="-1725.591" rx="7.274" ry="8.549" class="B"/><ellipse ry="7.752" rx="6.596" cy="-1725.591" cx="392.527" class="C"/></g><ellipse cx="399.016" cy="-1726.597" transform="matrix(.947279 -.320409 .182877 -.983136 0 0)" rx="5.886" ry="6.786" fill="url(#Y)"/></g></g><g transform="translate(391.746 202.897)"><path d="M-125.973 326.373v-6.114s1.63-4.39 3.213-3.85c1.3.44 5.04 3.214 5.043 3.212l-.557 5.335z" fill="url(#AI)"/><use xlink:href="#Ao" fill="url(#AJ)"/><use xlink:href="#Ap" fill="url(#AK)"/><use xlink:href="#Aq" fill="url(#AL)"/><use xlink:href="#Ar" fill="#fbf5fa"/></g><g transform="matrix(-1.723725 0 0 1.723725 200.8672 -2155.8603)"><g transform="matrix(.924196 -.381919 0 -1 -109.719 -59.117)"><ellipse ry="2.3" rx="1.94" cy="-1637.721" cx="43.268" class="D"/><ellipse cx="43.268" cy="-1637.721" rx="1.686" ry="1.999" class="E"/></g><use xlink:href="#Ac" fill="url(#t)"/></g><path d="M271.275 536.08c.744-.084.71-.694 1.407-.983.62-.257 1.56-.578 1.854-.034.327.604-1.16 1.703-1.16 1.703l-.46.705c-2.616 4.018-3.787-1.148-1.642-1.39z" fill="url(#AM)"/><g transform="translate(73.46 106.109)"><path d="M236.586 438.07l7.7.017c7.154 4.277 11.403 6.337 11.338 7.45-.107 1.842-7.745 4.943-7.677 4.9l.056 7.18-13.534 7.51z" fill="url(#AR)"/><g transform="translate(-142.381 64.995)"><g transform="translate(25.695 -4.141)"><path d="M346.785 406.41a.47.47 0 0 1-.318-.089l-11.115-5.73 10.934-6.202.005-.892c.003-.605.393-1.347.905-1.622l6.076-3.252v-11.407l10.953 5.69c.264.036.437.27.435.668l-.053 12.237c-.002.605-.393 1.35-.905 1.623l-16.56 8.86c-.128.07-.248.105-.357.113z" fill="url(#AQ)"/><g transform="matrix(1 .028529 0 1 -59.08295 -56.560746)"><path d="M395.038 445.768l16.56-9.335c.512-.29.902-1.043.905-1.65l.053-12.24c.003-.605-.393-.826-.905-.537l-16.56 9.335c-.512.29-.902 1.043-.905 1.65l-.053 12.24c-.003.605.393.826.905.537z" fill="url(#AN)"/><use xlink:href="#As" fill="url(#AO)" filter="url(#AP)"/><use xlink:href="#As" fill="url(#AO)"/></g></g><path d="M365.606 388.475c-.123.004-.21-.09-.21-.25 0-.213.152-.462.343-.558l1.25-.628c.2-.096.344-.002.344.21s-.154.462-.344.558l-1.25.63c-.048.024-.092.035-.133.037zm7.46-4.38c-.123.004-.21-.09-.21-.25 0-.213.152-.462.343-.558l1.25-.628c.2-.096.344-.002.344.21s-.154.462-.344.558l-1.25.63c-.048.024-.092.035-.133.037zm-4.488-.063c-.216.013-.366-.148-.366-.432 0-.378.267-.827.6-1.006l2.115-1.137c.333-.18.602-.02.602.36s-.27.827-.602 1.006l-2.115 1.138a.57.57 0 0 1-.234.072z" class="F"/></g></g></g><use xlink:href="#AX" x="-196.642" y="-113.399" fill="url(#M)"/><g transform="matrix(-1.688135 0 -.073538 1.658355 514.220898 -1866.718507)"><use xlink:href="#AY" transform="matrix(1.021082 0 -.045279 1.039419 55.685501 -66.413038)" fill="url(#j)"/><g transform="matrix(.945083 -.326829 .178999 -.983849 0 0)"><ellipse cx="392.527" cy="-1725.591" rx="7.274" ry="8.549" class="B"/><ellipse ry="7.752" rx="6.596" cy="-1725.591" cx="392.527" class="C"/></g><ellipse cx="399.016" cy="-1726.597" transform="matrix(.947279 -.320409 .182877 -.983136 0 0)" rx="5.886" ry="6.786" class="F"/></g><path d="M296.5 746.32l15.953-7.378-7.836-20.482-15.726 9.082-.005.052c-1.402.49-2.31 2.115-2.31 4.606v4.6c0 4.177 3.897 8.676 5.525 9.484.79.496 1.26.76 2.17.813s1.52-.37 2.23-.777z" fill="url(#S)"/><rect width="13.483" height="19.68" x="-370.898" y="-545.077" transform="matrix(-.846905 -.531745 0 -1 0 0)" ry="7.54" rx="6.742" fill="url(#U)"/><use xlink:href="#An" x="-11.592" y="220.445" fill="url(#k)"/><path d="M317.737 738.84a1.19 1.19 0 0 1 .224.659v.047l-.56 32.75-45.162 2.874.623-32.64c-.01-.095-.01-.19.005-.284h-.005c.07-.424.385-.835.97-1.153l22.597-12.275c1.314-.714 3.406-.68 4.694.075l15.883 9.32c.322.19.56.404.718.633z" fill="url(#b)"/><rect ry="2.698" transform="matrix(-.862488 -.506077 -.878716 .477345 0 0)" y="589.282" x="-969.969" height="31.112" width="23.803" fill="#f8f6f9"/><g transform="matrix(-1.59306 -.658323 0 -1.723725 378.40051 -2037.3168)"><ellipse cx="43.268" cy="-1637.721" rx="1.94" ry="2.3" class="D"/><ellipse ry="1.999" rx="1.686" cy="-1637.721" cx="43.268" class="E"/></g><use xlink:href="#At" fill="url(#X)"/><path d="M327.504 728.057l-11.916 6.42c-8.388-.672-12.575-8.154-13.45-9.502-1.03-1.587-5.626-11.585-1.175-16.265 1.533-1.612 9.6-8.422 11.88-8.582z" fill="url(#Q)"/><g transform="matrix(-1.688135 0 -.073538 1.658355 539.32083 -1888.1616)"><g transform="matrix(.945083 -.326829 .178999 -.983849 0 0)"><ellipse cx="392.527" cy="-1725.591" rx="7.274" ry="8.549" class="B"/><ellipse ry="7.752" rx="6.596" cy="-1725.591" cx="392.527" class="C"/></g><ellipse cx="399.016" cy="-1726.597" transform="matrix(.947279 -.320409 .182877 -.983136 0 0)" rx="5.886" ry="6.786" fill="url(#Y)"/></g><path d="M296.5 764.36s6.267-.913 8.846.457c8.07 4.285 12.054 7.48 12.054 7.48l-7.644 4.745-14.398 2z" fill="url(#d)"/><g transform="matrix(-1.723725 0 0 1.723725 416.60394 -1991.1107)"><g transform="translate(-17.103 -4.64)"><path transform="matrix(.75 0 0 -.75 1.351235 1675.7045)" d="M114.143 73.54c-4.324-.257-10.61 7.41-10.44 13.055l.037 4.074 10.164 6 11.21-17.16-9.445-5.48c-.017-.01-.035-.02-.053-.03l-.4-.232-.012.016c-.336-.144-.69-.228-1.06-.25z" fill="url(#e)"/><path d="M86.78 1603.196l10.32 6.42v3.978c-2.248 6.67-10.405-1.136-10.35-7.342z" fill="url(#f)"/><path d="M87.235 1604.873l8.7 5.295v3.28c-1.564 5.414-8.76-1.733-8.734-6.057z" fill="url(#g)"/></g><path d="M75.622 1605.75s.472 2.75 1.59 1.077m-5.47-3.273s.704 2.793 1.533.804" fill="none" stroke="#fff" stroke-width=".375" stroke-linecap="round" stroke-linejoin="round"/></g><path d="M254.18 749.715V743.6s1.63-4.39 3.213-3.85c1.3.44 5.04 3.214 5.043 3.212l-.557 5.335z" fill="url(#E)"/><use xlink:href="#Ao" x="380.154" y="423.342" fill="url(#F)"/><use xlink:href="#Ap" x="380.154" y="423.342" fill="url(#G)"/><use xlink:href="#Aq" x="380.152" y="423.343" fill="url(#H)"/><use xlink:href="#Ar" x="380.154" y="423.342" fill="#fbf5fa"/><g transform="matrix(-1.59306 -.658323 0 -1.723725 378.40051 -2037.3168)"><ellipse ry="2.3" rx="1.94" cy="-1637.721" cx="43.268" class="D"/><ellipse cx="43.268" cy="-1637.721" rx="1.686" ry="1.999" class="E"/></g><use xlink:href="#At" fill="url(#X)"/><path d="M259.683 756.524c.744-.084.71-.694 1.407-.983.62-.257 1.56-.578 1.854-.034.327.604-1.16 1.703-1.16 1.703l-.46.705c-2.616 4.018-3.787-1.15-1.642-1.39z" fill="url(#a)"/><g transform="matrix(-2.097323 0 0 2.018108 293.666 -2605.9548)"><use xlink:href="#AU" fill="url(#h)"/><use xlink:href="#AV" fill="#f4f1fc"/><use xlink:href="#AW" fill="url(#i)"/></g><path d="M390.58 233.487l-.194-.96-1.703-.754-.895.4-.97.395c-.135-.028-1.41-1.49-1.383-1.585.015-.05.275-.43.578-.84l.55-.745-.274-.77-.282-.853c-.004-.045-.438-.232-.964-.416l-.957-.334.087-.77.11-1.057c.023-.274.07-.296 1.074-.5l1.05-.214.2-.43c.1-.237.317-.594.46-.794l.26-.363-.41-.873-.398-.92c.007-.026.383-.336.835-.7l.87-.682c.027-.02.432.19.9.468l.85.507.722-.244.93-.307c.155-.047.304-.29.575-.933l.417-.902c.028-.018.55-.01 1.16.014l1.1.046.335 1.877 1.708.793.832-.376.978-.42c.18-.056 1.566 1.475 1.474 1.63a22.61 22.61 0 0 1-.595.817l-.53.707.222.66.282.863c.046.155.28.272 1.02.51l.96.308-.107 1.03c-.123 1.192-.022 1.09-1.353 1.36-.75.15-.902.22-.973.425-.046.135-.243.497-.437.804l-.353.558.402.835.384.9c-.02.067-1.235 1.085-1.583 1.327-.158.1-.247.106-.447-.02l-.822-.517-.573-.36-.832.286-.935.298c-.057.006-.283.43-.504.942l-.4.93-.832-.047-1.136-.053c-.288-.005-.314-.056-.498-.967zm2.964-3.744c1.71-.394 2.95-1.81 2.977-3.4.02-1.136-.346-1.898-1.287-2.675-.348-.288-.548-.363-1.454-.547-.933-.2-1.117-.196-1.654-.058-2.035.525-3.298 2.343-2.922 4.207.372 1.844 2.3 2.943 4.34 2.472zm-19.785-3.102c.234-1.46-1.32-2.425-2.7-1.68l-.42.228-.223-.247c-.123-.136-.4-.518-.595-.85l-.372-.604.424-.253c1.296-.772 1.01-2.722-.442-3.017-.49-.1-.495-.105-.453-.486.058-.526.336-1.455.47-1.57.06-.052.336-.072.613-.045a1.85 1.85 0 0 0 1.623-.634c.554-.648.623-1.3.21-1.983l-.23-.38.65-.444c.357-.244.792-.494.965-.555.298-.105.324-.098.485.13.462.657 1.11.902 1.937.736.658-.132 1.197-.603 1.422-1.242l.172-.488 2.17.38-.118.407c-.13.444-.09.738.148 1.166.49.873 1.84 1.13 2.68.51l.28-.207.558.805c.307.443.544.85.528.907s-.21.222-.434.37c-1.27.845-.857 2.706.67 3.017l.423.086-.6 2.033-.472-.086c-.942-.172-1.843.4-2.117 1.342-.153.53-.115.79.195 1.315l.22.37-1.908 1.147-.212-.317c-.64-.956-2.142-1.035-2.955-.156-.2.217-.412.558-.47.757-.095.328-.14.363-.452.36-.2-.003-.665-.07-1.054-.148l-.707-.144zm2.946-1.478c.863-.07 2.074-.48 2.674-.904 2.288-1.618 2.965-4.34 1.612-6.477-1.422-2.247-4.534-2.874-7.022-1.414-2 1.174-2.932 3.213-2.452 5.373.244 1.1 1.39 2.474 2.478 2.97a6.58 6.58 0 0 0 2.709.453zm-1.64-2.32a2.68 2.68 0 0 1-1.466-2.276c-.024-1.428 1.166-2.71 2.68-2.89 2.066-.245 3.592 1.408 3.05 3.302-.5 1.748-2.568 2.652-4.264 1.865zm12.793-4.8c.113-.39.1-.484-.09-.622-.305-.22-.5-.173-.833.205-.155.176-.32.312-.368.302-.15-.03-1.058-.99-1.03-1.088.015-.05.195-.222.4-.378.337-.257.367-.312.305-.562-.07-.283-.236-.33-.977-.28-.208.014-.238-.045-.23-.457a3.94 3.94 0 0 1 .113-.826c.095-.328.125-.348.424-.287.77.157 1.16-.334.646-.815l-.368-.314c-.116-.067.358-.552.872-.894l.426-.283.273.37c.3.422.336.433.665.294.236-.1.35-.47.292-.947-.025-.205.637-.282 1.288-.15.413.084.42.092.36.508-.098.678.34.91.84.445l.358-.36c.07-.098.68.388 1.008.8l.24.302-.444.314c-.398.282-.435.338-.36.546.088.24.47.37.935.317.205-.023.25.028.27.305.013.183-.007.55-.046.82l-.07.487-.504-.047c-.586-.055-.56-.065-.752.264-.128.218-.108.292.144.527l.377.322c.1.058-.34.55-.835.932l-.352.273-.345-.388c-.3-.348-.372-.378-.6-.295-.264.096-.374.347-.37.844.001.25-.038.282-.38.31-.21.018-.613.017-.898-.002l-.518-.035zm1.16-1.63c.972-.072 1.672-.905 1.523-1.815-.103-.635-.482-1-1.186-1.143-.918-.186-1.685.256-1.936 1.116-.184.632-.01 1.18.488 1.54.447.323.53.345 1.11.303zm12.175 2.436c.08-.273-.142-1-.383-1.258-.135-.144-.584-.38-1.05-.548-.96-.348-1.258-.318-2.015.208l-.46.32-.676-.55a9.86 9.86 0 0 1-1.142-1.111l-.466-.562.32-.35c.183-.2.383-.56.466-.84.127-.424.11-.575-.128-1.113-.15-.342-.267-.65-.258-.682s-.147-.177-.347-.32c-.26-.186-.533-.28-.95-.333l-.587-.072-.035-.656c-.043-.802.06-1.904.214-2.26.1-.21.206-.274.572-.313.78-.084 1.226-.45 1.662-1.36.374-.78.375-.8.232-1.28-.08-.27-.262-.607-.406-.746l-.26-.253.472-.53c.55-.617 1.92-1.758 2.076-1.727.058.012.197.112.307.223s.434.278.718.37c.494.16.557.153 1.412-.163 1.05-.39 1.347-.68 1.507-1.486l.105-.53.43-.068a11.58 11.58 0 0 1 2.375-.058c.55.048.623.078.63.252.05 1.068.295 1.423 1.22 1.767l.688.294c.15.14 1.05-.11 1.503-.417l.484-.33.432.33c.537.41 1.513 1.39 1.682 1.694.12.216.1.247-.21.62-.54.63-.617 1.086-.31 1.82l.38.825c.162.27.863.586 1.352.6.387.02.407.037.463.44.066.47-.027 2.142-.142 2.546-.062.22-.135.26-.443.253-.203-.005-.606.107-.897.25-.48.235-.56.323-.868.95-.187.38-.362.794-.39.92-.07.33.218 1.11.48 1.3.125.1.215.203.2.25-.06.206-1.096 1.234-1.758 1.744l-.722.556-.344-.274c-.205-.163-.556-.317-.868-.38-.45-.092-.637-.064-1.328.202-.933.358-1.203.636-1.417 1.46l-.148.57-.538.052c-1.56.15-2.922.028-2.84-.257zm1.556-3.833c2.08.107 4.264-1.028 5.3-2.755 1.76-2.937.148-6.523-3.246-7.22-3.897-.8-7.52 2.508-6.774 6.18.284 1.398 1.538 2.85 2.933 3.396.856.335.943.354 1.787.397zm-1.63-2.15c-.705-.48-1.05-.898-1.29-1.557-.74-2.057.64-4.268 2.96-4.74.937-.19 1.704-.086 2.503.34 1.197.64 1.805 1.663 1.782 2.997-.022 1.23-.797 2.415-1.995 3.05-.876.465-1.55.572-2.574.41-.717-.114-.935-.193-1.387-.5z" fill="#d8e0f8" filter="url(#AT)" transform="matrix(1.441067 -.460554 -.600476 -1.370807 54.670345 1185.4124)"/><path d="M476.87 686.382l.297 1.407-2 1.817-1.535-.15-1.633-.095c-.178.1-1.14 2.69-1.042 2.8.052.064.654.46 1.336.884l1.24.768.068 1.184.107 1.3c.02.064-.492.52-1.14 1.014l-1.178.898.588 1.016.795 1.398c.198.365.28.374 1.85.192l1.64-.2.546.498a10.08 10.08 0 0 0 1.141.876l.594.378-.068 1.386-.02 1.443c.025.032.754.284 1.618.56l1.664.535c.052.017.508-.458 1.015-1.056l.92-1.087 1.187.001 1.526-.008c.25-.007.61.256 1.4 1.014l1.143 1.044c.05.012.8-.238 1.663-.554l1.57-.575-.643-2.727 1.984-1.874 1.424.132 1.663.126c.295-.006 1.37-2.743 1.145-2.914-.087-.066-.694-.447-1.348-.846l-1.19-.725-.077-1.01-.112-1.313c-.027-.234.24-.5 1.164-1.167l1.198-.864-.77-1.36c-.894-1.578-.687-1.485-2.767-1.24-1.17.137-1.43.116-1.657-.135-.148-.164-.648-.57-1.112-.9l-.844-.603.08-1.33c.043-.73.05-1.366.013-1.4-.068-.083-2.43-.92-3.078-1.09-.294-.078-.42-.03-.63.235l-.874 1.087-.6.756-1.37-.01c-.754-.005-1.44.005-1.526.023s-.667-.46-1.292-1.06l-1.137-1.09-1.17.448-1.605.596c-.412.14-.42.22-.138 1.554zm6.52 3.766c2.7-.247 5.336 1.122 6.332 3.29.71 1.548.64 2.762-.248 4.26-.33.555-.57.75-1.767 1.42-1.23.7-1.493.783-2.348.84-3.248.218-6.16-1.693-6.737-4.42-.572-2.7 1.547-5.093 4.77-5.388zm-26.65 13.364c1.213 1.892-.447 3.933-2.885 3.545l-.744-.118-.173.44c-.095.242-.25.9-.346 1.44l-.173 1 .763.15c2.332.462 3.09 3.265 1.175 4.34-.648.363-.65.372-.36.875.4.694 1.358 1.84 1.62 1.936.117.043.527-.056.9-.22.885-.38 1.862-.336 2.72.122 1.187.633 1.678 1.496 1.492 2.622l-.104.63 1.203.31c.662.17 1.437.312 1.724.316.492.007.526-.015.62-.402.272-1.113 1.056-1.747 2.35-1.9 1.027-.122 2.087.275 2.794 1.047l.54.6 2.898-1.52-.414-.503c-.452-.55-.575-.97-.486-1.667.18-1.423 1.974-2.4 3.554-1.935l.527.155.32-1.36c.176-.748.274-1.417.217-1.486s-.438-.208-.847-.308c-2.34-.573-2.86-3.315-.844-4.444l.56-.313-2.07-2.515-.628.335c-1.255.67-2.896.3-3.856-.864-.54-.655-.64-1.032-.51-1.892l.093-.6-3.438-.694-.115.532c-.348 1.605-2.466 2.406-4.165 1.575-.42-.205-.928-.575-1.132-.822-.334-.405-.42-.433-.866-.284-.273.092-.916.4-1.43.69l-.933.523zm5.133.67c1.286-.3 3.277-.298 4.396.008 4.27 1.165 6.88 4.583 6.213 8.137-.7 3.734-4.808 6.027-9.27 5.172-3.59-.688-6.154-3.054-6.76-6.236-.31-1.62.52-4.032 1.79-5.21.795-.74 2.458-1.595 3.632-1.87zm-.97 3.937c-.967.912-1.282 2.515-.746 3.796.823 1.97 3.308 3.18 5.6 2.728 3.124-.616 4.33-3.584 2.413-5.93-1.77-2.167-5.293-2.453-7.265-.593zm21.318.7c.398.484.434.617.243.894-.307.443-.616.467-1.323.103-.33-.17-.65-.28-.712-.245-.197.1-.93 1.845-.83 1.966.052.064.415.214.805.334.64.197.717.258.777.63.07.42-.142.56-1.24.833-.308.076-.316.172-.056.73.165.354.46.84.658 1.08.334.405.4.42.784.198 1.017-.57 1.873-.076 1.42.82-.138.272-.292.543-.342.6-.127.145.847.592 1.794.824l.784.192.17-.635c.194-.72.224-.75.78-.71.4.028.785.482 1 1.164.088.293 1.087.094 1.946-.388.545-.306.55-.32.213-.862-.548-.885-.056-1.403.945-.997.33.135.66.283.732.33.158.103.747-.845.97-1.563l.164-.524-.83-.226c-.743-.203-.83-.263-.845-.583-.017-.37.454-.722 1.157-.866.31-.063.344-.154.207-.542-.1-.256-.34-.753-.56-1.102l-.395-.635-.7.297c-.812.346-.767.346-1.243-.015-.315-.24-.33-.35-.11-.79.142-.28.3-.558.35-.615.11-.125-.82-.596-1.763-.893l-.672-.212-.264.69c-.237.62-.308.7-.7.68-.438-.01-.747-.303-1.04-.986-.148-.342-.224-.37-.732-.252a11.07 11.07 0 0 0-1.293.416l-.725.287zm2.65 1.7c1.444-.35 2.952.47 3.285 1.787.232.918-.095 1.593-1.023 2.113-1.212.678-2.58.425-3.46-.638-.645-.78-.724-1.613-.222-2.335.45-.648.557-.718 1.42-.926zm16.08-8.947c.278.338.395 1.436.203 1.9-.107.26-.615.788-1.185 1.235-1.174.92-1.622 1.015-3.028.643l-.855-.226-.645 1.064c-.355.585-.795 1.507-.98 2.05l-.334.985.672.334c.384.19.888.593 1.177.94.437.522.503.738.484 1.584-.012.54.005 1.013.038 1.053s-.105.3-.307.6c-.26.374-.6.63-1.17.894l-.803.37.343.916c.42 1.12 1.23 2.58 1.666 3 .257.247.46.28 1.013.166 1.173-.244 2.037.05 3.21 1.098 1.007.898 1.015.91 1.102 1.648.048.41-.013.953-.136 1.2l-.224.467 1 .51c1.163.593 3.824 1.526 4.028 1.412.077-.043.216-.245.31-.448s.46-.58.813-.838c.615-.448.71-.467 2.132-.427 1.747.05 2.35.313 3.064 1.343l.47.677.66-.105c.94-.15 2.448-.593 3.457-1.015.762-.32.852-.394.758-.636-.57-1.486-.43-2.087.697-2.985.417-.332.784-.656.816-.72.13-.262 1.58-.334 2.416-.12l.895.23.425-.65c.53-.808 1.344-2.604 1.407-3.097.044-.35.01-.39-.675-.755-1.156-.617-1.54-1.205-1.54-2.35 0-.54.024-1.128.052-1.306.07-.445.892-1.2 1.583-1.46.547-.204.564-.238.404-.815-.186-.674-1.325-2.924-1.733-3.425-.22-.27-.35-.295-.8-.143-.29.1-.938.132-1.442.07-.83-.1-1-.185-1.822-.904-.498-.436-1-.922-1.112-1.08-.3-.42-.352-1.62-.088-2.003.125-.18.188-.377.14-.436-.2-.255-2.32-1.187-3.58-1.58l-1.375-.43-.33.534c-.197.318-.61.69-1.023.922-.595.333-.88.38-2.035.335-1.56-.06-2.116-.318-2.92-1.35l-.556-.715-.807.176c-2.338.51-4.228 1.307-3.938 1.66zm4.544 4.537c2.935-1.105 6.762-.555 9.292 1.336 4.3 3.215 4.13 8.874-.342 11.39-5.136 2.9-12.344.026-13.474-5.353-.43-2.048.505-4.615 2.188-6.006 1.032-.853 1.146-.92 2.336-1.368zm-1.06 3.698c-.728.982-.976 1.715-.922 2.728.168 3.16 3.485 5.556 7.112 5.135 1.464-.17 2.508-.667 3.402-1.62 1.34-1.428 1.603-3.112.768-4.93-.77-1.676-2.598-2.943-4.707-3.263-1.542-.234-2.575-.07-3.955.625-.965.486-1.23.695-1.698 1.323z" fill="#c5cbef"/></g></svg>