<svg xmlns="http://www.w3.org/2000/svg" xmlns:xlink="http://www.w3.org/1999/xlink" width="297.911" height="297.912"><style><![CDATA[.B{stroke-linejoin:round}.C{fill:#719ddf}.D{stroke-linecap:round}.E{fill:#c7d5fd}.F{color-interpolation-filters:sRGB}.G{stroke-width:.343}]]></style><defs><linearGradient id="A" xlink:href="#U"><stop offset="0" stop-color="#74d0db"/><stop offset="1" stop-color="#0b487a"/></linearGradient><linearGradient id="B" xlink:href="#U"><stop offset="0" stop-color="#77d4de"/><stop offset="1" stop-color="#0f5180"/></linearGradient><linearGradient id="C" xlink:href="#U"><stop offset="0" stop-color="#074b5d"/><stop offset="1" stop-opacity="0"/></linearGradient><linearGradient id="D" x1="309.172" y1="-1369.155" x2="267.764" y2="-1344.637" xlink:href="#U"><stop offset="0" stop-color="#0a7a97"/><stop offset=".303" stop-color="#0b7b99"/><stop offset="1" stop-color="#0a7b98" stop-opacity=".746"/></linearGradient><linearGradient xlink:href="#C" id="E" x1="342.231" y1="1347.265" x2="310.614" y2="1328.159"/><linearGradient xlink:href="#C" id="F" x1="350.279" y1="1406.174" x2="282.599" y2="1351.801"/><linearGradient id="G" x1="217.916" y1="-1309.735" x2="256.027" y2="-1336.516" xlink:href="#U"><stop offset="0" stop-color="#7ed3eb"/><stop offset="1" stop-color="#6fc9e5"/></linearGradient><radialGradient id="H" cx="236.494" cy="-1327.981" fx="236.494" fy="-1327.981" r="13.771" gradientTransform="matrix(0.97260583,0.00554229,-0.00225933,0.39648456,3.4641389,-803.19981)" xlink:href="#U"><stop offset="0" stop-color="#396999"/><stop offset="1" stop-color="#103d5f"/></radialGradient><radialGradient xlink:href="#B" id="I" cx="268.916" cy="-1329.32" fx="268.916" fy="-1329.32" r="1.641" gradientTransform="matrix(1.6571657,0.00721198,-0.00688419,1.5818479,-181.95944,771.47589)"/><radialGradient xlink:href="#A" id="J" cx="274.546" cy="-1329.558" fx="274.546" fy="-1329.558" r="1.641" gradientTransform="matrix(2.042809,0.08570529,-0.13909516,3.315371,-471.23382,3054.8904)"/><radialGradient xlink:href="#B" id="K" gradientTransform="matrix(1.6571657,0.00721198,-0.00688419,1.5818479,-181.95944,771.47589)" cx="268.916" cy="-1329.32" fx="268.916" fy="-1329.32" r="1.641"/><radialGradient xlink:href="#A" id="L" gradientTransform="matrix(2.042809,0.08570529,-0.13909516,3.315371,-471.23382,3054.8904)" cx="274.546" cy="-1329.558" fx="274.546" fy="-1329.558" r="1.641"/><radialGradient xlink:href="#A" id="M" gradientTransform="matrix(6.5511503,0.16466418,-0.44606877,6.3697683,-1157.5848,8290.9718)" cx="274.546" cy="-1329.558" fx="274.546" fy="-1329.558" r="1.641"/><linearGradient id="N" x1="154.167" y1="1361.827" x2="152.524" y2="1328.549" xlink:href="#U"><stop offset="0" stop-color="#9bdaf0"/><stop offset="1" stop-color="#9bdaf0" stop-opacity="0"/></linearGradient><radialGradient id="O" cx="305.94" cy="-1313.356" fx="305.94" fy="-1313.356" r="2.484" gradientTransform="matrix(0.74449447,0.01651033,-0.00915702,0.41291438,66.142919,-776.1038)" xlink:href="#U"><stop offset="0" stop-color="#9aa3af"/><stop offset="1" stop-color="#003074"/></radialGradient><filter id="P" x="-.036" width="1.071" y="-.073" height="1.146" class="F"><feGaussianBlur stdDeviation=".063"/></filter><filter id="Q" x="-.022" width="1.044" y="-.027" height="1.053" class="F"><feGaussianBlur stdDeviation=".204"/></filter><linearGradient id="R" x1="268.196" y1="1334.076" x2="268.571" y2="1334.076" xlink:href="#U"><stop offset="0" stop-color="#a6dbe0"/><stop offset="1" stop-color="#fff"/></linearGradient><path id="S" d="M-73.966 1254.948c2.948-3.54 8.94-4.02 12.463-.207 0 0-.72 1.06-1.276 1.314-1.044.475-3.66.188-3.66.188-.17.438-.24.876-.113 1.314.865.83 1.706 1.707 1.933 3.8.3.208.76 1.828.075 1.53l-.03 1.533c-.442 3.974-5.658 2.876-6.112.584-.11-.564-.176-2.02-.108-2.032-.967.21-.275-1.66.038-1.67.134-1.953.905-2.858 1.727-3.68.167-.408.227-.87.094-1.426 0 0-2.454.443-3.585 0-.595-.233-1.445-1.258-1.445-1.258z"/><path id="T" d="M231.132 1327.68c-.058 1.373-1.225 2.457-2.646 2.457s-2.59-1.084-2.646-2.457"/><linearGradient id="U" gradientUnits="userSpaceOnUse"/></defs><g transform="matrix(1.333333 0 0 -1.333333 170.88499 1927.8011)"><g fill="none" stroke="#71a8ff" stroke-width=".375" class="B"><path d="M-83.764 1376.303c23.127 36.92 71.673 48.323 108.82 25.562s49.028-71.193 26.635-108.56-70.705-49.73-108.293-27.706-50.424 70.21-28.774 108.014" opacity=".8"/><path d="M-88.8 1283.268c-27.896 39.68-18.628 94.426 20.775 122.713s94.237 19.56 122.912-19.562 20.49-94.04-18.348-123.1-93.833-21.417-123.274 17.13" opacity=".9"/><path d="M21.62 1426.124c50.45-20.877 74.673-78.492 54.295-129.146s-77.75-75.444-128.604-55.568-76.208 77.002-56.835 128.05 76.246 76.965 127.482 58.097" opacity=".6"/><path d="M-88.3 1408.582c40.83 39.4 105.775 38.565 145.578-1.873s39.608-105.39-.436-145.59-104.993-40.647-145.586-1.002-41.68 104.587-2.44 145.57"/><path d="M95.082 1334.133c0-61.166-49.265-110.92-110.428-111.524s-111.4 48.167-112.61 109.32 47.065 111.87 108.204 113.683 112.33-45.958 114.745-107.076" opacity=".5"/></g><path transform="matrix(2.280505 .861032 .871749 -2.280531 515.4961 -2015.4268)" d="M303.306-1337.935l-14.41 2.292-13.162 2.142-9.2-11.332-8.436-10.328 5.22-13.625 4.726-12.47 14.41-2.292 13.162-2.142 9.2 11.332 8.436 10.328-5.22 13.625z" fill="url(#D)"/><g transform="scale(1 -1)" fill="#719fe0"><circle r="1.614" cy="-1407.325" cx="-89.753"/><circle cx="19.853" cy="-1426.777" r="1.614"/><circle r="1.614" cy="-1314.979" cx="83.733"/><circle cx="71.086" cy="-1327.514" r="2.571"/><circle r="2.571" cy="-1281.993" cx="-88.193"/><circle r="1.614" cy="-1256.368" cx="-1.847"/><circle cx="-31.577" cy="-1231.523" r="1.614"/></g><circle transform="matrix(1 0 0 -1 -328.184 8.673)" r="8.446" cy="-1251.846" cx="260.539" opacity=".77" class="E"/><use xlink:href="#S" class="C"/><g transform="matrix(.778013 0 0 .778013 -133.98856 380.87893)"><circle transform="scale(1 -1)" r="8.446" cy="-1251.846" cx="260.539" opacity=".77" class="E"/><use xlink:href="#S" x="328.184" y="-8.673" class="C"/></g><g transform="matrix(.652438 0 0 .652438 -194.15378 596.69337)"><circle cx="260.539" cy="-1251.846" r="8.446" transform="scale(1 -1)" opacity=".77" class="E"/><use xlink:href="#S" x="328.184" y="-8.673" class="C"/></g><path d="M71.03 1379.998c-.164 0-.296-.132-.296-.296v-3.917c0-.163.132-.294.296-.294h6.116l-.826-2.33 3.127 2.336a.29.29 0 0 1 .253.287v3.917c0 .164-.13.296-.294.296z" stroke="#79a7ec" stroke-width=".075" class="B C"/><path d="M-66.844 1329.275l3.937 16.886 2.272 9.92c1.45 11.716 23 11.256 22.565-2.953l-7.8-16.886z" fill="#003768"/><path d="M-49.066 1358.8c-5.82-1.144-7.185-4.613-8.178-7.534l-1.06-.38.606-5.83.568-.076c2.254-6.553 6.453-7.843 8.062-7.95z" fill="#bddbe0"/><path d="M-49.066 1358.8c5.82-1.144 7.185-4.613 8.178-7.534l1.06-.38-.606-5.83-.568-.076c-2.254-6.553-6.457-7.843-8.066-7.95z" fill="#fff"/><path d="M-49.693 1311.192H-72.02c1.442 6 1.136 12.2 3.802 16.652 1.897 3.17 4.76 3.473 9.958 6.158l2.89-6.907 2.035 1.66 3.587-5.568z" fill="#5ebbc3"/><path d="M-58.26 1334l2.623 2.354 5.603-3.672c-1.717-1.956-3.174-4.303-5.335-5.59z" fill="#f0f0f0"/><path d="M-50.034 1332.683l-3.3-3.93 4.058-6.255c6.53 2.98 5.518 5.196 8.043 11.503l-3.16 4.967z" fill="#fefefe"/><path d="M-49.8 1311.192h22.327c-1.442 6-1.136 12.2-3.802 16.652-1.897 3.17-4.76 3.473-9.958 6.158l-2.89-6.907-2.035 1.66-3.587-5.568z" fill="#bddbdf"/><path d="M-48.965 1368.375c-7.318 0-13.25-6.376-13.25-14.24.002-.498.028-.996.08-1.49-.365-.312-.675-.955-.902-2.098l.056-3.344c.02-1.147-.015-2.167 4.272-3.67.776-.332 1.023.08 1.142.67l-.717 7.495c-.352.747-.827.388-1.3.053-.53.474-1.05.9-1.528 1.055.404 7.512 5.745 13.366 12.203 13.375 6.373-.004 11.677-5.707 12.194-13.112-.598.033-1.288-.494-1.996-1.13-.473.335-.95.692-1.3-.054l-.717-7.495c.12-.59.366-1.002 1.142-.67 4.287 1.503 4.252 2.524 4.272 3.67l.056 3.344c-.153.767-.343 1.304-.56 1.674a15.29 15.29 0 0 1 .109 1.725c0 7.865-5.933 14.24-13.25 14.24z" fill="#fff"/><path d="M-40.712 1345.76c-1.318-1.39-3.225-2.286-5.15-2.673-.204.588-1.07 1-2.074 1-.562 0-1.102-.134-1.5-.372s-.62-.56-.62-.897c0-.7.95-1.268 2.12-1.268 1.045.001 1.933.457 2.093 1.074 2.006.427 4.05 1.187 5.13 2.67z" fill="#003667"/><path d="M-40.976 1348.73s.417 4.687-3.75 6.03c-1.402.452-4.157.66-5.7 1.652-1.252.806-2.817 2.223-2.696 4.01s-.65 4.466 3.478 3.98c3.936-.463 6.2-.864 8.29-3.548s2.495-5.338 2.495-5.338.353-4.258.05-5.184c-.1-.3-.715 0-1.06-.098-.592-.17-.032-1.397-1.108-1.507z" fill="#185f93"/><path d="M263.16 1338.665l-1.658-4.443 6.938-4.547 6.52 7.1-.398.497-4.972-2.188z" fill="url(#R)" transform="matrix(.807692 0 0 .807692 -266.85034 258.71516)"/><g transform="matrix(.965602 0 0 .965602 -137.89125 120.74783)"><rect ry=".573" transform="rotate(90)" y="-143.257" x="1228.819" height="20.92" width="10.523" fill="url(#M)"/><g transform="translate(-134.812 -64.875)"><g transform="translate(29.455)"><g transform="scale(1 -1)"><rect width="48.656" height="37.594" x="212.245" y="-1341.127" ry="7.621" fill="#7dd2eb"/><rect ry="6.384" y="-1338.078" x="216.192" height="31.495" width="40.763" fill="url(#G)"/></g><g transform="matrix(1.068225 0 0 1 -16.562093 -.46875)"><g transform="scale(1 -1)"><rect ry="5.834" y="-1334.529" x="220.771" height="11.669" width="31.605" fill="#10558e"/><rect width="27.542" height="10.169" x="222.802" y="-1333.779" ry="5.084" fill="url(#H)"/></g><g fill="none" stroke="#92f6f6" stroke-width=".848" class="B D"><use xlink:href="#T"/><use xlink:href="#T" x="15.895"/></g></g><g transform="translate(-63.905 -2.386)"><g transform="scale(1 -1)"><rect width="3.281" height="5.519" x="271.189" y="-1332.126" ry=".251" fill="url(#I)"/><rect ry=".298" y="-1335.002" x="272.905" height="10.888" width="3.281" fill="url(#J)"/></g><g transform="matrix(-1 0 0 -1 600.83943 -.033146)"><rect ry=".251" y="-1332.126" x="271.189" height="5.519" width="3.281" fill="url(#K)"/><rect width="3.281" height="10.888" x="272.905" y="-1335.002" ry=".298" fill="url(#L)"/></g></g></g><path d="M255.548 1306.254c6.242 3.848 13.85 4.992 21.498-.107m-35.198 10.876c9.588-12.14 29.984-22.608 48.34-.083" fill="none" stroke="#5596b8" class="B D G"/></g><path d="M111.988 1235.184h39.72a4.6 4.6 0 0 0 4.608-4.608v-9.907c0-10.5-7.693-24.67-24.576-24.67h-.063c-17.63 0-24.167 15.702-24.2 20.733l-.094 13.844c-.017 2.553 2.055 4.608 4.608 4.608zm44.327-4.608l.035-10.098c0-13.548-10.987-24.456-24.636-24.456-12.404 0-22.6 9.01-24.368 20.822" fill="#8fddfe"/><path d="M134.79 1361.85h34.99a4.05 4.05 0 0 0 4.059-4.059v-8.727c0-9.25-6.777-21.733-21.65-21.733h-.055c-15.532 0-21.3 13.833-21.32 18.265l-.083 12.196c-.015 2.25 1.8 4.06 4.06 4.06zm39.05-4.06l.03-8.896c0-11.936-9.68-21.544-21.703-21.544-10.927 0-19.92 7.937-21.467 18.344" fill="url(#N)" transform="translate(-20.437 -129)"/><path d="M119.9 1235.047l-.483-12.856s-6.796-9.204-8.975-13.876m34.92 26.78l.436-12.716 7.053-14.016" fill="none" stroke="#5596b8" class="B D G"/><g transform="matrix(.999488 0 0 1.065361 -167.62724 -154.00492)"><g fill="none" stroke-width=".75" class="B D"><path d="M328.65 1328.434c.948-.375 11.257-17.063-20.11-18.797" stroke="#086c90"/><path d="M342.383 1323.442c.948-.375 11.456-16.632-19.91-18.366" stroke="#4fa8ec" filter="url(#Q)" transform="translate(-13.93 5.058)"/></g><g transform="translate(.348 -3.646)"><ellipse cx="305.94" cy="-1313.356" transform="scale(1 -1)" rx="2.484" ry="1.213" fill="#00184c"/><ellipse ry="1.03" rx="2.109" transform="matrix(1.041481 0 0 -1.041481 -12.690779 -54.47969)" cy="-1313.356" cx="305.94" fill="url(#O)" filter="url(#P)"/></g></g></g><path d="M343.8 1337.473l-41.1-29.288-11.667 21.152 36.195 24.973z" fill="url(#E)" transform="translate(-308.122 8.485)"/><path d="M29.693 1366.192c-7.776 0-14.08-5.048-14.08-11.276.006-3.19 1.7-6.23 4.66-8.365l-1.625-6.796 5.265 4.89c1.816-.66 3.786-1.003 5.78-1.007 3.734 0 7.316 1.188 9.956 3.303s4.124 4.983 4.124 7.974c-.001 6.228-6.304 11.276-14.08 11.276z" fill="#fd8a0d"/><g transform="translate(-308.122 8.485)"><path d="M333.49 1360.91l-41.1-29.288-29.105 30.902 35.73 24.377z" fill="url(#F)"/><path d="M309.827 1393.196c-7.13 0-12.908-4.628-12.908-10.337.006-2.925 1.558-5.712 4.273-7.668l-1.5-6.23 4.827 4.482c1.665-.605 3.47-.92 5.298-.923 3.424 0 6.707 1.09 9.128 3.028s3.78 4.57 3.78 7.31c-.001 5.71-5.78 10.338-12.908 10.337z" fill="#f64d11"/><g fill="#fff"><path d="M306.245 1379.795h1.22v-1.528h-1.22zm1.185.884h-1.15v.927q0 .608.168 1 .168.4.7.9l.542.535q.343.32.493.602.156.283.156.578 0 .535-.397.866-.4.33-1.04.33-.475 0-1.017-.2-.535-.2-1.12-.614v1.13q.566.343 1.143.5.584.168 1.203.168 1.107 0 1.775-.584.674-.584.674-1.54 0-.457-.217-.872-.217-.4-.758-.927l-.53-.517q-.283-.283-.403-.445-.114-.156-.162-.307-.036-.126-.054-.307-.018-.18-.018-.493zm4.868-.884h1.22v-1.528h-1.22zm0 7.455h1.22v-3.94l-.12-2.148h-.975l-.126 2.148z"/><path d="M323.797 1382.972c6.56 0 11.876-4.258 11.877-9.512-.006-2.69-1.434-5.255-3.932-7.056l2.074-4.654-5.144 3.046c-1.532-.556-3.193-.846-4.875-.85-6.56 0-11.877 4.26-11.877 9.513s5.318 9.512 11.877 9.512z"/></g><path d="M319.596 1372.994c-.168 0-.33-.067-.448-.185s-.186-.28-.185-.448c0-.35.284-.632.633-.632s.632.283.632.632-.283.633-.632.634zm2.8 0c-.168 0-.33-.067-.448-.185s-.186-.28-.185-.448c0-.35.284-.632.633-.632s.632.283.632.632-.283.633-.632.634zm2.8 0c-.168 0-.33-.067-.448-.185s-.186-.28-.185-.448c0-.35.284-.632.633-.632s.632.283.632.632-.283.633-.632.634zm2.8 0c-.35 0-.633-.284-.632-.634s.283-.632.632-.632.633.283.633.632c0 .168-.067.33-.185.448s-.28.186-.448.185z" fill="#003365"/></g></g></svg>