<svg xmlns="http://www.w3.org/2000/svg" xmlns:xlink="http://www.w3.org/1999/xlink" width="390.857" height="264.35"><defs><linearGradient id="A" x1="1075.817" y1="851.286" x2="1078.232" y2="853.919" gradientUnits="userSpaceOnUse"><stop offset="0" stop-color="#8fb1b2"/><stop offset="1" stop-color="#8fb1b2" stop-opacity="0"/></linearGradient><linearGradient id="B" x1="1099.896" y1="857.978" x2="1098.059" y2="860.662" gradientUnits="userSpaceOnUse"><stop offset="0" stop-color="#8fb5b6"/><stop offset="1" stop-color="#fff" stop-opacity="0"/></linearGradient><linearGradient id="C" x1="1090.57" y1="853.658" x2="1091.457" y2="856.834" gradientUnits="userSpaceOnUse"><stop offset="0" stop-color="#1c5278"/><stop offset="1" stop-color="#1c5278" stop-opacity="0"/></linearGradient><linearGradient id="D" x1="826.972" y1="796.997" x2="828.429" y2="796.997" gradientUnits="userSpaceOnUse"><stop offset="0" stop-color="#f7b787"/><stop offset="1" stop-color="#f9c39c"/></linearGradient><path id="E" d="M962.56 876.91h5.906v-2.906h-5.906z"/><path id="F" d="M969.563 876.12h11.07v-1.326h-11.07z"/><path id="G" d="M1031.327 811.898v-1.984h14.105v1.984zm0-2.96v-1.066h14.105v1.066zm0-2.043v-.533h14.105v.533zm0-1.475v-.805h14.105v.805zm0-1.782v-1.392h14.105v1.392zm0-2.37v-1.1h14.105v1.1zm0-2.043v-1.658h14.105v1.658z"/></defs><g transform="matrix(1.333333 0 0 -1.333333 -1184.281446 1208.167521)"><path d="M960.004 905.47h159.655V790.964H960.004z" fill="#acf" stroke="#b1c1db" stroke-width="1.309" stroke-linejoin="round"/><path d="M1051.708 895.028c-.044-.02-5.318-.56-5.318-.56l2.152-1.62-7.825-8.257-11.998 4.192-12.72-15.027-12.048 7.474-11.8-13.072 1.182-.986 10.85 12.64 12.018-7.713L1029 887.4l12.072-4.263 8.724 8.755 2.225-1.676-.313 4.802z" fill="#fff"/><path d="M967.417 889.992h25.678v-5.256h-25.678z" fill="#022249"/><g transform="matrix(1.167993 0 0 1.167993 -156.46211 -141.77493)"><use xlink:href="#E" fill="#388c8e"/><use xlink:href="#F" fill="#fff"/><use xlink:href="#E" y="-4.72" fill="#0b273f"/><use xlink:href="#F" y="-4.722" fill="#fff"/><use xlink:href="#E" y="-9.445" fill="#295185"/><use xlink:href="#F" y="-9.445" fill="#fff"/><use xlink:href="#E" y="-14.168" fill="#295185"/><use xlink:href="#F" y="-14.168" fill="#fff"/></g><g stroke-linejoin="round"><g fill="none" stroke-width="4.951"><path d="M1001.573 842.025a12.59 12.59 0 0 0 21.599 7.969" stroke="#fff"/><path d="M1003.343 834.74a12.59 12.59 0 0 0-1.761 7.42" stroke="#0f8b97"/><path d="M1025.803 836.477a12.59 12.59 0 0 0-22.463-1.732" stroke="#002046"/></g><path d="M1023.118 850.05a12.59 12.59 0 0 0 2.691-13.559" fill="#1553a6" stroke="#1a54a8" stroke-width="4.951"/></g><path d="M1026.868 830.676l13.472-14.75-.915-.835-13.472 14.75zm-26.668 1.328l-17.176-10.2-.633 1.065 17.176 10.2z" fill="#fff"/><path d="M1091.305 849.046l12.052 12.702-1.763 1.637-8.877-9.022z" fill="url(#B)"/><path d="M1090.874 849.575l-3.206 5.76 3.256 3.61 5.242-4.772z" fill="url(#C)"/><path d="M1072.798 855.14l2.41 2.27 3.025-5.326-2.15-1.66z" fill="url(#A)"/><path d="M1057.167 849.577h51.4v17.74l-16.425-16.425-7.802 7.802-8.267-8.267-4.262 7.382-6.46-6.46-4.28 4.28z" fill="#fff"/><path d="M1059.473 872.337h10.937v-1.432h-10.937zm5.324-5.943h3.6v-1.78h-3.6z" fill="#617077"/><path d="M1071.05 866.394h2.652v-1.607h-2.652z" fill="#8fb5b6"/><g fill="#fff"><path d="M1036.62 850.353h15.55v-2.573h-15.55zm4.506 19.4v-1.834h12.866v1.834zm0-2.737v-.985h12.866v.985zm0-1.9v-.493h12.866v.493zm0-1.364v-.744h12.866v.744zm0-1.648v-1.287h12.866v1.287zm0-2.2v-1.018h12.866v1.018zm0-1.9v-1.533h12.866v1.533zm-1.04-12.72v-1.984h14.105v1.984zm0-2.96v-1.066h14.105v1.066zm0-2.043v-.533h14.105v.533zm0-1.475V838h14.105v.805zm0-1.782v-1.392h14.105v1.392zm0-2.37v-1.1h14.105v1.1zm0-2.043v-1.658h14.105v1.658z"/><use xlink:href="#G"/><use xlink:href="#G" x="-55.954" y="7.665"/><path d="M1111.886 825.123l-3.406-2.013-3.974-2.33-3.447 1.943-4.006 2.276-.04 3.957-.032 4.607 3.406 2.013 3.974 2.33 3.447-1.943 4.006-2.276.04-3.957zm-18 1.645l-2.328-1.376-2.716-1.593-2.356 1.328-2.738 1.556-.028 2.704-.022 3.15 2.328 1.376 2.716 1.593 2.356-1.328 2.738-1.556.028-2.704zm-14.622 1.375l-1.343-.794-1.566-.92-1.36.766-1.58.897-.016 1.56-.013 1.816 1.343.794 1.566.92 1.36-.766 1.58-.897.016-1.56z"/></g><path d="M1075.5 865.154c-.32.776.503 1.348 1.026 1.045l41.435-51.825-2.633-2.14z" fill="#11203f"/><g transform="translate(-24.66)"><path d="M930.72 766.057l3.066-4.68s1.266-2.87-1.423-3.64c-10.043-2.875-12.53-21.21-14.624-34.787.29-1.594 2.01-2.233 3.31-3.15 4.423 14.24 6.523 23.377 16.226 33.708 1.918 2.043 3.382 2.795 3.956 6.638v11.497z" fill="#edad6f"/><path d="M922.37 711.308c.293-.8 1.932-1.404 1.45-2.108-.65-.952-2.535.277-3.367.794-3.18 1.973-3.778 9.4-3.778 9.4-.704.398-3.5-1.558-1.615 1.752-.2 1.45.948 2.418 2.573 2.847.278-1.605 1.304-3.273 3.887-4.05 0 0-.143-5.9.85-8.623z" fill="#336296"/><path d="M926.08 765.64l3.066-4.68s2.282-1.993.548-4.188c-6.406-8.107-3.414-24.308-.06-38.73.288-1.594 2.557-1.357 3.86-2.275.738 16.612-.196 23.417 1.553 37.76.34 2.78.973 2.357 1.547 6.2v11.497z" fill="#f9c687"/><path d="M940.126 711.34c.712-.47 2.88-.36 2.913-1.213.044-1.152-2.202-1.286-3.178-1.366-3.73-.306-8.624 5.297-8.624 5.297-.802-.1-1.885-3.335-2.34.446-1.024 1.046-.677 2.508.373 3.82 1.18-1.124 2.34-1.854 4.878-.942 0 0 3.567-4.45 5.98-6.04z" fill="#336296"/><path d="M932.732 834.563c-2.643-.134-5.5-3.886-2.896-7.574l8.994-19.23c2.178-5.66 5.196-6.756 8.022-8.894l20.59-10.17.176-.043a.62.62 0 0 0 .247-.177c.182-.224.095-.118.306-.432.17-.25 1.012-.84 1.012-.84.135-.095.427.023.264.353l-.35.413s.246.02.37-.013c.455-.117 1.062-.963 1.3-.64.17.228-.18 1.132-1.365 1.628-1.013.422-.904.448-1.367.505-.064.01-.097-.015-.182-.024-.25-.135-.347.097-.502.162l-23.568 18.57-8.113 24c-.58 1.78-1.737 2.467-2.938 2.406z" fill="#f0b366"/><path d="M912.872 770.602c2-2.258 13.37-6.32 19.93-4.49 3.36.937 4.087 3.8 8.98 4.325 3.612.395 5.898-1.03 9.526-.82 5.363.308 8.486 5.037 8.486 5.037-6.996 8.624-12.862 18.512-16.425 29.73-1.463 6.55.543 11.362-.055 17.684 5.01 6.462-3.29 8.827-5.393 13.906l-6.077.41c-5.908-.88-7.24-5.78-6.816-7.364 1.505-5.617 4.558-10.62 5.2-15.932 0 0-6.152-8.98-5.968-14.07.6-16.634-6.844-22.947-11.388-28.415z" fill="#1b4f7f"/><path d="M931.248 832.755c-2.643-.134-5.5-3.886-2.896-7.574l8.994-19.23c2.178-5.66 5.196-6.756 8.022-8.894l20.59-10.17.176-.043a.62.62 0 0 0 .247-.177c.182-.224.095-.118.306-.432.17-.25 1.012-.84 1.012-.84.135-.095.427.023.264.353l-.35.413s.246.02.37-.013c.455-.117 1.062-.963 1.3-.64.17.228-.18 1.132-1.365 1.628-1.013.422-.904.448-1.367.505-.064.01-.097-.015-.182-.024-.25-.135-.347.097-.502.162L942.3 806.35l-8.113 24c-.58 1.78-1.737 2.467-2.938 2.406z" fill="#f3c182"/><path d="M941.37 840.134c-1.622 1.224 1.125 6.132 2.382 5.283.67-4.39.13-6.534-2.382-5.283z" fill="#002c5f"/><path d="M937.92 835.973c-2.05-2.84-5.688-1.04-6.077.41.907 2.257.76 3.724.52 5.12l.85 7.555 6.68 3.75 4.16-1.204-.325-2.26s.283-3.117-.304-4.5c-.845-1.993-2.3-4.132-4.353-4.818-.502-.168-1.56.3-1.56.3-.036-1.396-.34-2.956.41-4.353z" fill="#f5c293"/><path d="M927.13 841.96c.833-.863 4.674-4.3 6.465 1.85.325 1.117 1.566 1.587 1.566 1.587-2.143.498.22 4.26.81 1.593.224-1.01 2.195 4.022 3.92 4.868.684.335 1.53.388 2.284-.04s1.55-2.478 1.55-2.478 1.413 2.484.93 3.64c-.912 2.176-3.768 3.34-6.117 3.562-4.37.415-7.35-3.398-8.052-6.852-.564-2.776-.906-7.812-3.356-7.73z" fill="#002046"/><path d="M1035.335 728.544c-5.814 10.313-17.14 20.537-18.503 27.93l-32.082-12.66-.767 14.3 5.694 9.198 6.022-1.314c5.786 1.562 10.23 2.062 17.902 2.805 3.227 1.11 7.866 1.374 9.855-2.245l13.138-32.994c.19-2.474.046-4.778-1.26-5.01z" fill="#4775a6"/><path d="M995.778 722.223c4.98 8.595 10.024 16.87 14.87 26.136l-29.684.37 7.743 12.31c24.87-.8 35.753-8.372 32.055-16.415-2.014-4.38-13.82-15.877-21.177-23.425-1.584-.88-2.806-.357-3.807 1.022z" fill="#5886b7"/><path d="M984.37 742.07h7.278l-.93-14.014h-4.917z" fill="#1a4e7d"/><rect ry="1.861" transform="scale(1 -1)" y="-748.757" x="971.454" height="6.898" width="39.967" fill="#1fc2d3"/><path d="M987.04 728.443h1.974V715.6h-1.974z" fill="#205277"/><g transform="scale(1 -1)"><rect ry=".852" y="-717.603" x="974.266" height="3.794" width="27.642" fill="#27577c"/><circle cx="1000.049" cy="-712.125" r="1.684"/><circle r="1.684" cy="-712.125" cx="976.452"/></g><path d="M1034.02 730.844c.692-1.558 1.348-3.377 2.44-2.1 0 0 6.1 4.985 7.22 7.123.284.542-1.18.563-1.78.445-1.608-.315-2.387-2.474-3.968-2.904-.432-.117-1.336.135-1.336.135-.048-2.58-1.488-2.28-2.574-2.7zm-38.242-8.62c-1.167-1.197-2.6-2.47-.856-2.847 0 0 7.643-3 10.22-3.06.653-.015-.016 1.197-.4 1.643-1.058 1.194-3.492.963-4.648 2.1-.315.307-.498 1.152-.498 1.152-2.495-1.002-2.883.304-3.807 1.022z" fill="#022541"/><g transform="matrix(1.167993 0 0 1.167993 14.835202 -137.75908)"><path d="M835.985 768.426c-.593-.703-3.923 1.278-7.67 3.557s-2.534 4.392-1.942 5.095 3.247-1.63 6.994-3.91 3.21-4.04 2.618-4.743z" fill="#003164"/><path d="M830.683 795.715l-.133-.133-.966.484.253.378s.013 1.476-.78 1.954c-.86.52-1.527-.28-1.914-.864-.31-.47-.345-1.214-.042-1.69.122-.19.65-1.356.625-.27-.007.326-.284 1.596.44 1.304s.17-.988.31-1.528c.1-.382.848-.905.848-.905z" fill="#f9c39c"/><path d="M828.43 796.85s-.454.638-.85.638a.69.69 0 0 1-.609-.609c0-.383 1.046-.373 1.046-.373z" fill="url(#D)" transform="translate(.829 -.492)"/><path d="M816.388 791.797c-8.68-10.203 4.103-29.523 10.78-32.812 4.16-2.513 12.7 7.686 7.973 11.153l-8.16 6.706 7.594-5.672c11.958-6.215 2.576 19.345-3.892 24.543l-1.822-1.57c2.05-2.486 3.2-5.915 3.28-8.176l-7.26 5.568c-2.513 1.928-5.552-2.273-8.495.258z" fill="#003c7c"/><path d="M816.862 791.274c.708 1.594 1.32.197 2.188 6.73 0 0 1.668 6.478 4.243 8.12.96.612 3.41.16 3.41.16s2.217-7.054.797-9.422c-.623-1.038-3.562.703-3.562.703s-1.038-1.118-1.22-1.828c-.306-1.2.328-3.703.328-3.703-3.53-1.564-5.108-1.386-6.183-.758z" fill="#f9c29b"/><path d="M827.37 806.123c-7.24-.538-3.356-9.868-6.63-8.982-.788-2.18-3.928-2.852-3.613 3.48.136 2.73-1.865 4.38-.133 7.756.9 1.734 4.023 2.87 5.966 2.718 2.426-.19 6.558-4.812 4.408-4.972z" fill="#40566b"/></g><path d="M967.017 742.836c-5.312 10.506-13.763 19.718-9.04 34.92.208.668.445 1.275 1.15 1.69 1.573.924 3.36.635 5.153.307.87-.16 1.63-.08 1.815-.758l8.554-31.443c.184-.678-.805-1.057-1.15-1.69-.915-1.678-2.086-3.2-4.667-3.784-.85-.195-1.488.112-1.815.758z" fill="#1bc5d2"/></g><path d="M1055.457 714.177l-16.466 29.26c-.28 4.484 0 8.776 7.677 10.53 7.512-9.88 1.573-7.652 4.225-14.492l8.3-25.23c-1.375-1.235-2.63-1.353-3.737-.07z" fill="#f5b576"/><path d="M1059.194 714.246c.68-1.52 1.576-3.19-.1-3.128 0 0-7.796-1.108-10.13-.51-.59.152.384 1.22.877 1.573 1.32.95 3.436.1 4.822.944.38.233.804 1.05.804 1.05 1.934-1.662 2.685-.428 3.737.07z" fill="#022541"/><path d="M1050.162 712.277l-14.006 31.295c.1 4.61.72 8.98 8.517 10.143 6.675-10.727.94-7.96 3.02-15.176l6.2-26.5c-1.472-1.15-2.733-1.168-3.73.236z" fill="#f2c492"/><path d="M1053.892 712.04c.552-1.613 1.308-3.392-.367-3.19 0 0-7.86-.493-10.138.312-.577.204.483 1.215 1.003 1.537 1.393.863 3.432-.19 4.884.57.396.208.887 1.008.887 1.008 1.79-1.86 2.64-.66 3.73-.236z" fill="#022541"/><path d="M1041.925 773.886c-.117.27-1.1 2.443-.697 3.833 2.26 7.612 8.316 14.39 15.215 18.312.647.368 2.207.348 2.207.348s3.982 2.136 5.824 1.46c.477-.175.438-.784.346-1.284-.365-1.982-4.37-3.252-5.08-1.94l-1.514-.674c-.15.086-8.65-11.796-10.027-18.854-.256-1.3.068-3.312-1.16-3.833-1.765-.747-5.1 2.633-5.1 2.633z" fill="#f1c793"/><g transform="matrix(1.167993 0 0 1.167993 -155.98373 -140.82506)"><path d="M1044.966 768.9c-8.04.426-8.23-2.615-19.36-3.234.534-8.04 8.727-9.58 10.688-20.812 3.195.408 3.846 12.886 18.516 14.906z" fill="#1b4f7f"/><path d="M1029.895 780.63c.163-.35.18-.655-.156-.852-.956-.56-3.84.9-4.324 4.456-.524 3.85 2.456 6.484 2.97 5.488.38-.73.115-1.21-.07-1.722-1.918-2.2-2.88-4.375 1.577-7.37z" fill="#8fcddc"/><path d="M1058.653 759.57c-7.63-1.343-12.192.422-13.946 4.997-1.202 3.136-.985 3.025.07 5.597.395.962 6.616 4.5 1.688 10.688-2.674 2.074-5.963 3.698-4.22 9-3.887-4.454-7.856-8.175-12.094-9.47-2.785.06-6.004 6.797-1.594 8.906l1.688-.75c3.723 1.633 6.9 4.687 9.844 8.344 1.012.465.66 1.264 3.375 1.313l9.75.28s3.535-3.737 4.4-6.31c1.345-4 .382-12.723.382-12.723 1.933-4.187 2.362-8.375.938-12.562-.804-2.437-1.553-4.875-.28-7.312z" fill="#b6dee8"/></g><path d="M1056.287 802.96c0-9.36 16.53-9.116 12.775-31.126 12.792 9.14 1.684 20.93 1.626 24.545l-.155 9.6c-.77 9.573-16.212 7.397-14.247-3.02z" fill="#002046" stroke="#000" stroke-width=".026"/><path d="M1094.535 741.79c5.312 10.506 13.763 19.718 9.04 34.92-.208.668-.69 1.014-1.15 1.69-1 1.467-15.5 6.564-19.443 4.194-.76-.456-2.303-1.324-2.417-2.018l-1.386-8.386c1.814-11.93.272-16.112.115-24.755-.013-.702 1.845-2.207 2.19-2.84.915-1.678 8.656-2.97 11.237-3.565.85-.195 1.488.112 1.815.758z" fill="#1bc5d2"/><path d="M1081.78 739.492h-7.278l.93-14.014h4.916z" fill="#1a4e7d"/><rect width="39.967" height="6.898" x="-1094.697" y="-746.178" transform="scale(-1)" ry="1.861" fill="#1fc2d3"/><path d="M1079.11 725.865h-1.974v-12.853h1.974z" fill="#205277"/><g transform="scale(-1)"><rect width="27.642" height="3.794" x="-1091.885" y="-715.025" ry=".852" fill="#27577c"/><circle r="1.684" cy="-709.547" cx="-1066.102"/><circle cx="-1089.699" cy="-709.547" r="1.684"/></g><path d="M1173.53 720.313s-6.363-3.27-6.105-3.805c.454-.94 1.446-1.37 2.573-1.45 1.25-.088 3.518.913 4.6 1.232 1.036.306.583.54 1.642.33.604-.12 1.03-.788 1.643-.85 1.05-.103 3.04.876 3.04.876s-.574 2.426-1.15 3.422c-.475.822-1.04 1.095-1.04 1.095-1.55-1.056-3.286-1.326-5.2-.85z" fill="#164677"/><path d="M1145.725 721.11c6.527 11.7 7.793 25.627 7.986 39.993-.468 2.212-.012 4.996 1.424 8.377l8.305 27.597c-5.993-.618-12.07-.763-16.88 2.787-2.166-15.2-1.037-32.11-1.29-47.693-.19-11.67-2.083-31.106-4.857-31.475 1.806-.766 3.577-.645 5.31.415z" fill="#1b4f7f"/><path d="M1173.53 720.313c-.753 12.852-4.155 24.22-8.21 36.452 0 0-3.6 7.055-4.108 10.578-1.62 11.216-7.334 33.34-7.334 33.34l13.685-4.76c4.455-3.57 3.328-26.624 3.504-29.236 8.188-9.55 7.298-29.57 7.665-45.524-2.3-1.82-4.177-1.305-5.2-.85z" fill="#1f5b93"/><path d="M1140.414 720.694s-6.684-2.73-6.468-3.286c.38-.976 1.342-1.486 2.47-1.66 1.25-.192 3.62.62 4.736.847 1.07.22.632.49 1.682.19.6-.17.97-.87 1.583-.982 1.048-.2 3.134.62 3.134.62s-.324 2.334-.82 3.374c-.4.858-1.007 1.31-1.007 1.31-1.65-.924-3.422-1.05-5.31-.415z" fill="#164677"/><path d="M1142.32 829.217l-3.285-4.818c-1.095-2.153-5.007-2.585-7.774-1.97l-22.228 4.927c-2.23-.142-5.285-1.185-5.147-1.97.295-1.676.72-2.845 2.52-1.752.332.634 1.168 1.117 2.957 1.314 0 0 2.88-2.104 4.49-2.847 6.487-2.998 13.675-5.913 20.914-5.858 2.246.017 5.05.628 6.46 1.916l6.132 4.927z" fill="#eeb98d"/><path d="M1146.482 798.7c-1.46-4.227 14.554-.68 22.447-4.27 1.683 9.84 5.916 17.98 4.818 29.674l5.037 7.446c-5.037 4.745-4.6 9.5-14.782 14.235l-10.812-2.478c-2.877-.63-5.435-1.603-6.434-4.256l-2.026-16.918 5.037 1.423c1.146-10.286-2.996-16.13-3.285-24.856z" fill="#b6dee8"/><path d="M1141.062 830.84c.553-7.175 3.018-8.094 5.092-10.293 1.196-1.304 2.402.448 3.613 3.01-3.996 3.35-3.976 8.6-3.01 15.494-2.23-2.447-4.6-4.78-5.694-8.212z" fill="#e8f7fc"/><path d="M1155.923 841.54c.116-.814-1.87-.4-2.46.16-1.432 1.378-1.59 2.95.034 5.075.55.72 1.692.577 2.3-.156-1.045-.646-2.693-1.486.117-5.078z" fill="#eef6f8"/><path d="M1154.62 851.372c-.858-1.223-.618-6.007.025-7.725 1.577-2.678 6.856-2.12 7.86 1.1-.93 2.817-1.647 5.26-1.314 8.924z" fill="#f5ca9d"/><path d="M1153.086 851.674c2.988-2.637 6.258.15 7.583 1.916 0 0-.782-1.65-1.478-2.2-1.255-.97-3.19-1.99-4.5-1.588-1.202.37-1.615 1.86-1.615 1.86z" fill="#cd9e6b"/><path d="M1152.538 861.353c-1.468-1.724-.94-10.88 2.284-10.846s4.136 1.043 5.107 1.988a2.61 2.61 0 0 1 .205.228c.608.752 1.57 1.72 1.547 2-.027.3.328 1.97.328 1.97l-2.518 6.762z" fill="#f5ca9d"/><path d="M1160.066 858.408s-.64 3.153-1.916 3.394c-.924.175-1.26-1.633-2.2-1.78-1.247-.196-2.853.304-3.53 1.37-.895 1.403-1.12 2.55-.328 3.34 2.028 2.02 6.447 1.02 8.54-.876 1.315-1.19 3.096-1.235 2.217-4.736s1.12-5.724-1.04-7.035c0 0-1.15-1.763-.84-1.138.34.687-.82 2.55.012 5.566.57 2.084-.337 2.91-.528 1.132-.055-.512-.392.764-.392.764z" fill="#40566b"/><path d="M1172.615 824.656l2.555-7.356c.333-2.164-.605-2.422-1.006-3.484l-11.46-16.26-2.245-5.265c.4-1.966.975-3.723 3.407-3.252 1.874 1.017.81 3.654.774 6.58 0 0 12.06 8.98 15.253 15.486 1.354 2.76 1.766 8.157 1.24 9.136l-1.372 9.44z" fill="#eeb98d"/><path d="M1165.37 832.318l5.256-6.296c4.366-5.23 12.353.154 8.486 5.2l-5.2 6.79c-5.31 6.932-12.23-1.274-8.54-5.694z" fill="#e8f7fc"/><path d="M1157.748 841.403c-.667-.48.998-1.632 1.82-1.665 1.986-.08 4.275 2.544 4.684 5.188.14.896-1.366 1.92-2.323 1.858-.598-1.54-1.297-4.066-4.18-5.38z" fill="#eef6f8"/><g fill="#2461a4"><circle cx="1156.258" cy="-839.9" r="1.369" transform="scale(1 -1)"/><path d="M1155.656 814.934c0-1.058-.858-1.916-1.916-1.916s-1.916.858-1.916 1.916 3.158 23.87 4.216 23.87-.383-22.813-.383-23.87z"/></g><path d="M1056.442 796.03c.647.368 2.207.348 2.207.348s3.982 2.136 5.824 1.46c.477-.175.438-.784.346-1.284-.365-1.982-4.37-3.252-5.08-1.94l-1.514-.674z" fill="#f1c793"/></g></svg>