<svg xmlns="http://www.w3.org/2000/svg" width="120" height="120"><style><![CDATA[.B{stroke-width:1.5}.C{stroke:#03b4ee}]]></style><g fill="none"><path fill="#03b4ee" d="M8.632 8.454h110.48v110.773H8.632z"/><path fill="#fff" fill-opacity=".8" d="M0 0h110.48v110.773H0z"/><g class="B C"><path d="M.75.75h108.98v109.273H.75z"/><path d="M31.632 71.68V37.596L78.848 71.68V37.596"/></g><path fill="#fff" d="M20.9 26.945h21.462v21.302H20.9z"/><path d="M21.65 27.695h19.962v19.802H21.65z" class="B C"/><path fill="#fff" d="M68.117 26.945H89.58v21.302H68.117z"/><path d="M68.867 27.695H88.83v19.802H68.867z" class="B C"/><path fill="#fff" d="M20.9 61.03h21.462V82.33H20.9z"/><path d="M21.65 61.78h19.962V81.58H21.65z" class="B C"/><path fill="#fff" d="M68.117 61.03H89.58V82.33H68.117z"/><path d="M68.867 61.78H88.83V81.58H68.867z" class="B C"/></g></svg>