<?xml version="1.0" encoding="UTF-8" standalone="no"?>
<!-- Created with Inkscape (http://www.inkscape.org/) -->

<svg
   xmlns:dc="http://purl.org/dc/elements/1.1/"
   xmlns:cc="http://creativecommons.org/ns#"
   xmlns:rdf="http://www.w3.org/1999/02/22-rdf-syntax-ns#"
   xmlns:svg="http://www.w3.org/2000/svg"
   xmlns="http://www.w3.org/2000/svg"
   xmlns:xlink="http://www.w3.org/1999/xlink"
   xmlns:sodipodi="http://sodipodi.sourceforge.net/DTD/sodipodi-0.dtd"
   xmlns:inkscape="http://www.inkscape.org/namespaces/inkscape"
   width="166.88307mm"
   height="100.95468mm"
   viewBox="0 0 166.88307 100.95469"
   version="1.1"
   id="svg8"
   inkscape:version="0.92.4 (5da689c313, 2019-01-14)"
   sodipodi:docname="Subpage2footer.svg">
  <defs
     id="defs2">
    <clipPath
       clipPathUnits="userSpaceOnUse"
       id="clipPath1129">
      <path
         style="opacity:0.37400004;fill:url(#linearGradient1133);fill-opacity:1;stroke:none;stroke-width:0.53892726"
         d="m 1597.2266,2532.552 c 45.7969,15.999 85.3517,1.3409 98.46,-30.6385 14.9009,-36.3526 8.1275,-64.8455 -26.5197,-92.2727 -9.8922,-7.8308 -26.0499,-9.4424 -39.5278,-6.4639 -30.9092,7.2327 -7.5106,20.1959 -31.5618,51.2291 -11.1308,15.4078 -42.3624,13.8484 -35.3537,46.5151 3.6079,17.442 14.7615,24.7343 34.503,31.6309 z"
         id="path1131"
         inkscape:connector-curvature="0"
         sodipodi:nodetypes="ssscccs" />
    </clipPath>
    <clipPath
       clipPathUnits="userSpaceOnUse"
       id="clipPath1152">
      <path
         style="opacity:0.37400004;fill:url(#linearGradient1156);fill-opacity:1;stroke:none;stroke-width:0.53892726"
         d="m 1331.7215,2435.1128 c -18.8551,40.4515 -4.5727,75.4015 26.3959,88.9141 36.0094,15.7121 64.8455,8.1275 92.2727,-26.5197 7.8308,-9.8922 9.4424,-26.0499 6.4639,-39.5278 -5.7327,-21.1592 -15.6959,-7.2606 -46.7291,-31.3118 -15.4078,-11.1308 -19.6738,-28.9881 -43.5905,-23.2294 -16.192,5.8579 -29.0021,19.2082 -34.8129,31.6746 z"
         id="path1154"
         inkscape:connector-curvature="0"
         sodipodi:nodetypes="ssscccs" />
    </clipPath>
    <clipPath
       clipPathUnits="userSpaceOnUse"
       id="clipPath1175">
      <path
         style="opacity:0.37400004;fill:url(#linearGradient1179);fill-opacity:1;stroke:none;stroke-width:0.53892726"
         d="m 1668.0411,2716.2584 c -43.9017,15.999 -71.7934,-4.5356 -88.6898,-36.515 -19.2071,-36.3526 -0.308,-75.1414 12.8823,-86.6587 8.9662,-7.829 19.2745,-13.8618 33.1052,-10.8833 15.766,-0.017 15.4887,10.8852 32.466,31.6684 12.956,15.4078 52.2528,-5.1516 46.1137,64.5151 -1.5418,17.442 -16.9529,30.9769 -35.8774,37.8735 z"
         id="path1177"
         inkscape:connector-curvature="0"
         sodipodi:nodetypes="ssscccs" />
    </clipPath>
    <clipPath
       clipPathUnits="userSpaceOnUse"
       id="clipPath1198">
      <path
         style="opacity:0.37400004;fill:#800000;fill-opacity:1;stroke:none;stroke-width:0.82182699"
         d="m 1359.5825,2759.1713 c 76.5404,6.5246 131.2341,-44.3919 139.13,-94.5858 8.9754,-57.0581 -39.6087,-109.2287 -79.3877,-111.4861 -19.7156,-1.1188 -39.9184,1.3017 -59.4977,10.3283 -44.7481,21.273 -33.3794,45.3354 -37.1385,85.4078 -3.0927,32.9686 -51.5704,33.5103 -28.2747,77.541 12.2318,23.5575 32.1746,29.9824 65.1686,32.7948 z"
         id="path1200"
         inkscape:connector-curvature="0"
         sodipodi:nodetypes="ssscscs" />
    </clipPath>
    <clipPath
       clipPathUnits="userSpaceOnUse"
       id="clipPath1240">
      <path
         sodipodi:nodetypes="ssscccs"
         inkscape:connector-curvature="0"
         id="path1242"
         d="m 1442.2915,3119.6896 c -32.629,26.1952 -76.7369,17.366 -94.4874,-7.5727 -22.7824,-32.0081 -26.319,-69.3331 -4.0881,-94.901 8.2783,-9.5209 21.8621,-15.2125 35.6585,-15.6443 31.7384,-0.6008 18.2625,12.068 49.2145,36.2236 14.582,12.1927 29.2652,3.6982 30.5158,37.0849 0.7979,17.7934 -1.9012,32.8378 -16.8133,44.8095 z"
         style="opacity:0.37400004;fill:url(#linearGradient1244);fill-opacity:1;stroke:none;stroke-width:0.53892726" />
    </clipPath>
    <clipPath
       clipPathUnits="userSpaceOnUse"
       id="clipPath1262">
      <path
         style="opacity:1;fill:#800000;fill-opacity:0.53038677;stroke:none;stroke-width:0.1;stroke-linecap:butt;stroke-linejoin:round;stroke-miterlimit:4;stroke-dasharray:none;stroke-dashoffset:0;stroke-opacity:1"
         d="m 1659.8238,3123.0278 c -19.2999,1.7214 -73.4587,10.5117 -74.4669,-56.5369 -0.3167,-21.0599 4.3815,-65.0792 36.9679,-72.531 26.7268,-6.1118 76.0134,25.103 83.7249,63.657 14.8145,36.5594 -25.2469,63.5397 -46.2259,65.4109 z"
         id="path1264"
         inkscape:connector-curvature="0"
         sodipodi:nodetypes="ssscs" />
    </clipPath>
    <clipPath
       clipPathUnits="userSpaceOnUse"
       id="clipPath1296">
      <path
         sodipodi:nodetypes="ssssccs"
         inkscape:connector-curvature="0"
         id="path1298"
         d="m 1362.4416,3203.4321 c 43.0362,-22.3876 84.9886,-9.6513 102.538,20.1233 19.9494,33.8463 14.8481,60.8938 -13.3966,95.4714 -7.9815,9.7711 -16.4438,19.8094 -37.489,15.2356 -18.0654,-3.9262 -15.9801,-5.1247 -44.2245,-32.397 -13.5632,-12.4244 -51.2863,-6.8914 -45.1814,-54.059 1.075,-17.7788 19.202,-34.7238 37.7535,-44.3743 z"
         style="opacity:0.37400004;fill:url(#linearGradient1300);fill-opacity:1;stroke:none;stroke-width:0.53892726" />
    </clipPath>
    <clipPath
       clipPathUnits="userSpaceOnUse"
       id="clipPath1319">
      <path
         style="opacity:0.37400004;fill:url(#linearGradient1323);fill-opacity:1;stroke:none;stroke-width:0.53892726"
         d="m 1575.7514,3233.5372 c -13.3015,46.6518 9.3577,81.3083 42.047,92.5296 37.1597,12.7559 67.9378,2.3336 96.1481,-32.272 7.9718,-9.779 15.4019,-30.6892 6.7002,-50.3895 -7.4695,-16.9109 -19.1857,-7.203 -51.5685,-29.4039 -14.8922,-10.7958 -20.2193,-40.7303 -57.4259,-26.3503 -17.202,4.6189 -30.1672,25.776 -35.9009,45.8861 z"
         id="path1321"
         inkscape:connector-curvature="0"
         sodipodi:nodetypes="ssssccs" />
    </clipPath>
    <clipPath
       clipPathUnits="userSpaceOnUse"
       id="clipPath1343">
      <path
         sodipodi:nodetypes="ssssccs"
         inkscape:connector-curvature="0"
         id="path1345"
         d="m 1336.0487,3445.6647 c -20.3594,44.0319 -3.3352,81.777 27.2242,97.9209 34.7386,18.3518 70.6477,13.5242 103.8726,-16.2999 9.3889,-8.4278 15.0151,-24.7546 9.4662,-45.564 -4.763,-17.863 -23.8506,-9.0242 -41.4483,-40.2107 -13.0425,-12.9699 -13.6739,-43.3682 -52.6574,-34.9181 -17.7095,1.9017 -37.6811,20.091 -46.4573,39.0718 z"
         style="opacity:0.37400004;fill:url(#linearGradient1347);fill-opacity:1;stroke:none;stroke-width:0.53892726" />
    </clipPath>
    <clipPath
       clipPathUnits="userSpaceOnUse"
       id="clipPath1366">
      <path
         style="opacity:1;fill:#800000;fill-opacity:0.53038677;stroke:none;stroke-width:0.0962778;stroke-linecap:butt;stroke-linejoin:round;stroke-miterlimit:4;stroke-dasharray:none;stroke-dashoffset:0;stroke-opacity:1"
         d="m 1722.9165,3486.0802 c 2.1005,18.0896 5.3715,76.2622 -58.5325,72.7099 -25.249,-1.4036 -76.4521,-35.0929 -85.5632,-65.2305 -7.6914,-25.4414 23.0957,-71.7473 62.8076,-78.6576 41.8216,-8.9179 74.4419,12.2189 81.2881,71.1782 z"
         id="path1368"
         inkscape:connector-curvature="0"
         sodipodi:nodetypes="ssscs" />
    </clipPath>
    <clipPath
       clipPathUnits="userSpaceOnUse"
       id="clipPath1366-7">
      <path
         style="opacity:1;fill:#800000;fill-opacity:0.53038677;stroke:none;stroke-width:0.0962778;stroke-linecap:butt;stroke-linejoin:round;stroke-miterlimit:4;stroke-dasharray:none;stroke-dashoffset:0;stroke-opacity:1"
         d="m 1722.9165,3486.0802 c 2.1005,18.0896 5.3715,76.2622 -58.5325,72.7099 -25.249,-1.4036 -76.4521,-35.0929 -85.5632,-65.2305 -7.6914,-25.4414 23.0957,-71.7473 62.8076,-78.6576 41.8216,-8.9179 74.4419,12.2189 81.2881,71.1782 z"
         id="path1368-4"
         inkscape:connector-curvature="0"
         sodipodi:nodetypes="ssscs" />
    </clipPath>
    <clipPath
       clipPathUnits="userSpaceOnUse"
       id="clipPath1387">
      <path
         sodipodi:nodetypes="ssscs"
         inkscape:connector-curvature="0"
         id="path1389"
         d="m 1428.2385,3766.689 c -21.5719,6.6783 -80.1523,25.9746 -97.4593,-50.9259 -5.4361,-24.1543 -16.3857,-79.5048 24.6351,-92.4519 30.4983,-9.6259 84.6458,10.6318 118.2222,55.6148 25.6876,38.4593 -21.9492,80.5038 -45.398,87.763 z"
         style="opacity:1;fill:#800000;fill-opacity:0.53038677;stroke:none;stroke-width:0.11702319;stroke-linecap:butt;stroke-linejoin:round;stroke-miterlimit:4;stroke-dasharray:none;stroke-dashoffset:0;stroke-opacity:1" />
    </clipPath>
    <linearGradient
       inkscape:collect="always"
       xlink:href="#linearGradient1977"
       id="linearGradient1985"
       gradientUnits="userSpaceOnUse"
       gradientTransform="translate(109.4939,1666.1934)"
       x1="2207.1008"
       y1="7070.8252"
       x2="2430.5122"
       y2="6400.5322" />
    <linearGradient
       id="linearGradient1977"
       inkscape:collect="always">
      <stop
         id="stop1973"
         offset="0"
         style="stop-color:#0b1343;stop-opacity:1;" />
      <stop
         id="stop1975"
         offset="1"
         style="stop-color:#012880;stop-opacity:1" />
    </linearGradient>
    <linearGradient
       inkscape:collect="always"
       xlink:href="#linearGradient1993"
       id="linearGradient1995"
       x1="2656.2388"
       y1="7909.1406"
       x2="2032.5706"
       y2="8341.8906"
       gradientUnits="userSpaceOnUse"
       gradientTransform="translate(90.164001,-57.9547)" />
    <linearGradient
       inkscape:collect="always"
       id="linearGradient1993">
      <stop
         style="stop-color:#012270;stop-opacity:1"
         offset="0"
         id="stop1989" />
      <stop
         id="stop1997"
         offset="0.61073369"
         style="stop-color:#01257b;stop-opacity:1" />
      <stop
         style="stop-color:#02226f;stop-opacity:0"
         offset="1"
         id="stop1991" />
    </linearGradient>
  </defs>
  <sodipodi:namedview
     id="base"
     pagecolor="#ffffff"
     bordercolor="#666666"
     borderopacity="1.0"
     inkscape:pageopacity="0.0"
     inkscape:pageshadow="2"
     inkscape:zoom="0.49497475"
     inkscape:cx="521.94486"
     inkscape:cy="328.08935"
     inkscape:document-units="mm"
     inkscape:current-layer="layer1"
     showgrid="false"
     inkscape:window-width="1920"
     inkscape:window-height="1017"
     inkscape:window-x="1912"
     inkscape:window-y="-8"
     inkscape:window-maximized="1" />
  <metadata
     id="metadata5">
    <rdf:RDF>
      <cc:Work
         rdf:about="">
        <dc:format>image/svg+xml</dc:format>
        <dc:type
           rdf:resource="http://purl.org/dc/dcmitype/StillImage" />
        <dc:title></dc:title>
      </cc:Work>
    </rdf:RDF>
  </metadata>
  <g
     inkscape:label="Layer 1"
     inkscape:groupmode="layer"
     id="layer1"
     transform="translate(521.52757,-138.55726)">
    <g
       transform="matrix(0.26458333,0,0,0.26458333,-1095.5455,-1965.1427)"
       id="g2001">
      <path
         style="opacity:1;fill:url(#linearGradient1985);fill-opacity:1;stroke:none;stroke-width:0.5;stroke-linecap:butt;stroke-linejoin:miter;stroke-miterlimit:4;stroke-dasharray:none;stroke-opacity:1"
         d="m 2170.7666,8154.3992 -1.25,178.1539 h 630.7392 v -364.623 c -208.6864,-59.7645 -236.1398,54.9002 -351.1658,92.6442 -100.8438,33.0904 -200.0204,-21.1094 -278.3234,93.8249 z"
         id="path1983"
         inkscape:connector-curvature="0"
         sodipodi:nodetypes="ccccsc" />
      <path
         inkscape:connector-curvature="0"
         id="path1946"
         d="m 2693.4316,7951.0414 c -116.4644,0.5791 -152.5164,79.5009 -244.1778,109.5781 -100.8438,33.0904 -200.0212,-21.1101 -278.3242,93.8242 47.9931,-22.0297 79.3408,-7.0864 115.0254,-1.0468 46.7581,7.9137 112.3037,27.4977 135.5879,-8.8321 24.8616,-38.791 56.04,75.8034 123.1992,-11.4668 77.6523,-137.2881 91.9326,0.3821 137.668,4.4082 60.7244,5.3455 38.4526,-159.4166 117.8457,-87.7129 v -81.8632 c -42.3145,-12.1051 -77.176,-17.0361 -106.8242,-16.8887 z"
         style="opacity:1;fill:url(#linearGradient1995);fill-opacity:1;stroke:none;stroke-width:0.5;stroke-linecap:butt;stroke-linejoin:miter;stroke-miterlimit:4;stroke-dasharray:none;stroke-opacity:1" />
    </g>
  </g>
</svg>
