<svg xmlns="http://www.w3.org/2000/svg" viewBox="0 0 46.195 46.195" width="512" height="512" fill="#062447"><path d="M35.765 8.264c-5.898 0-10.555 4.782-10.555 10.68s4.844 10.68 10.742 10.68c.06 0 .148-.008.207-.01-2.332 1.857-5.26 2.976-8.467 2.976-1.475 0-2.662 1.196-2.662 2.67s.95 2.67 2.424 2.67c10.47-.001 18.74-8.518 18.74-18.987 0-5.902-4.534-10.68-10.43-10.68zm-25.015 0C4.852 8.264.187 13.046.187 18.944s4.84 10.68 10.74 10.68c.06 0 .146-.008.205-.01C8.8 31.472 5.87 32.6 2.663 32.6 1.188 32.6 0 33.787 0 35.26s.964 2.67 2.44 2.67c10.47-.001 18.756-8.518 18.756-18.987 0-5.902-4.55-10.68-10.445-10.68z"/></svg>