<svg xmlns="http://www.w3.org/2000/svg" xmlns:xlink="http://www.w3.org/1999/xlink" width="99" height="98"><g fill="none" fill-rule="evenodd"><g stroke="#00cc6f" stroke-width="3.113"><path d="M86.885 86.095H63.06l-6.132 3h-16.06l-5.548-3H12.06V40.95c0-2.903 2.36-5.257 5.27-5.257h64.286c2.9 0 5.27 2.354 5.27 5.257v45.146z"/><path d="M93.297 95.482H5.24l-2.725-9.387H35.22l5.548 3h15.963l6.62-3h31.83z"/></g><path d="M96.47 29.336c1.188 17.194-12.44 31.5-29.42 31.5-4.82 0-12.493-3.142-15.01-4.232a2.16 2.16 0 0 0-1.69-.01l-15.323 6.38 7.482-13.46c.34-.61.364-1.346.06-1.976-1.346-2.8-5.012-10.91-5.012-16.124 0-16.94 14.35-30.537 31.584-29.35 14.544 1 26.326 12.755 27.33 27.265" fill="#fefefe"/><path d="M96.47 29.336c1.188 17.194-12.44 31.5-29.42 31.5-4.82 0-12.493-3.142-15.01-4.232a2.16 2.16 0 0 0-1.69-.01l-15.323 6.38 7.482-13.46c.34-.61.364-1.346.06-1.976-1.346-2.8-5.012-10.91-5.012-16.124 0-16.94 14.35-30.537 31.584-29.35 14.544 1 26.326 12.755 27.33 27.265z" stroke="#00cc6f" stroke-width="3.113"/><use xlink:href="#B" fill="#00cc6f"/><use xlink:href="#B" stroke="#00cc6f" stroke-width=".5"/><use xlink:href="#C" fill="#00cc6f"/><use xlink:href="#C" stroke="#00cc6f" stroke-width=".5"/><path d="M33.528 72.135c0 .49-.4.9-.892.9h-3.548v3.54c0 .49-.402.9-.892.9H25.54c-.49 0-.892-.4-.892-.9v-3.54H21.1c-.49 0-.892-.4-.892-.9v-2.65c0-.49.402-.9.892-.9h3.548v-3.54c0-.49.402-.9.892-.9h2.657c.5 0 .892.4.892.9v3.54h3.548c.49 0 .892.4.892.9v2.65z" fill="#00cc6f"/></g><defs ><path id="B" d="M81.765 41.283c.87 1.005.81 2.587-.13 3.527l-2.104 2.1c-.94.94-2.528.993-3.537.12l-3.627-3.136-3.665-6.1a.59.59 0 0 0-.321-.257l-1.608-.534 4.94-4.93.536 1.604a.59.59 0 0 0 .256.321l6.192 3.73 3.068 3.547zm.71 4.364c1.372-1.37 1.457-3.674.2-5.14l-3.13-3.62a.59.59 0 0 0-.142-.12l-6.085-3.665-.77-2.307c-.065-.195-.227-.343-.427-.39-.045-.01-.09-.016-.136-.016-.156 0-.308.06-.42.174l-6.3 6.285a.59.59 0 0 0 .232.981l2.312.77 3.6 5.983c.033.054.073.102.12.143l3.698 3.198c1.47 1.272 3.783 1.192 5.155-.177l2.105-2.1z"/><path id="C" d="M81.415 19.367a5.33 5.33 0 0 1-1.464 4.813 5.36 5.36 0 0 1-5.734 1.195c-.22-.086-.47-.034-.636.132L60.425 38.63c-.167.166-.22.416-.133.635.776 1.975.306 4.22-1.197 5.72-1.277 1.274-3.093 1.805-4.825 1.46l3.492-3.483a.59.59 0 0 0 0-.838l-3.36-3.352c-.232-.232-.608-.232-.84 0l-3.492 3.484c-.344-1.728.187-3.54 1.464-4.813 1.503-1.5 3.754-1.97 5.733-1.195a.6.6 0 0 0 .637-.133L71.06 22.993a.59.59 0 0 0 .132-.635 5.33 5.33 0 0 1 1.198-5.72 5.36 5.36 0 0 1 4.824-1.46l-3.492 3.484a.59.59 0 0 0 0 .837l3.36 3.352c.232.232.608.232.84 0l3.492-3.483zM64.15 28.21l-1.26 1.258-5.937-5.923c-.038-.04-.082-.07-.13-.098l-3.65-2.037-1.406-2.807 1.495-1.49 2.813 1.403 2.042 3.643a.61.61 0 0 0 .098.13l5.937 5.922zm16.64-3.19a6.51 6.51 0 0 0 1.464-6.991c-.073-.186-.236-.323-.43-.364s-.4.02-.542.16l-3.778 3.77-2.52-2.514 3.778-3.77a.59.59 0 0 0-.203-.971 6.54 6.54 0 0 0-7.007 1.46 6.51 6.51 0 0 0-1.597 6.62l-4.963 4.952-5.878-5.865-2.1-3.73a.59.59 0 0 0-.253-.241L53.4 15.86c-.084-.042-.175-.062-.266-.062-.154 0-.306.06-.42.173l-2.1 2.095a.59.59 0 0 0-.111.684l1.68 3.352a.6.6 0 0 0 .241.252l3.74 2.086 5.878 5.864-4.72 4.71c-2.326-.752-4.892-.148-6.637 1.593a6.51 6.51 0 0 0-1.463 6.991c.073.186.235.322.43.364s.4-.02.54-.16l3.78-3.77 2.52 2.514-3.778 3.77c-.142.14-.202.344-.162.54s.178.357.365.43c2.42.946 5.17.373 7.007-1.46a6.51 6.51 0 0 0 1.596-6.62L74.154 26.6c2.326.752 4.893.147 6.636-1.593z"/></defs></svg>