<svg xmlns="http://www.w3.org/2000/svg" width="116" height="120"><style><![CDATA[.B{stroke-width:1.5}.C{stroke:#03b4ee}.D{fill:#fff}.E{fill:#03b4ee}.F{fill-opacity:.9}]]></style><g fill="none"><path d="M109.17 112.837L79.765 91.903h29.406l-29.406 20.934h29.406zm-72.177 0V91.903H7.586v20.934M36.993 25.6L7.586 46.545m0-20.945h29.406v20.934" class="B C"/><path d="M.903 19.068H14.27v13.084H.903z" class="D"/><path d="M1.653 19.818H13.52v11.584H1.653z" class="B C"/><path d="M30.31 19.068h13.366v13.084H30.31z" class="D"/><path d="M31.06 19.818h11.866v11.584H31.06z" class="B C"/><path d="M.903 40.003H14.27v13.084H.903z" class="D"/><path d="M1.653 40.753H13.52v11.584H1.653z" class="B C"/><path d="M30.31 40.003h13.366v13.084H30.31z" class="D"/><path d="M31.06 40.753h11.866v11.584H31.06z" class="B C"/><path d="M.903 85.36H14.27v13.084H.903z" class="D"/><path d="M1.653 86.11H13.52v11.584H1.653z" class="B C"/><path d="M30.31 85.36h13.366v13.084H30.31z" class="D"/><path d="M31.06 86.11h11.866v11.584H31.06z" class="B C"/><path d="M.903 106.295H14.27v13.084H.903z" class="D"/><path d="M1.653 107.045H13.52v11.584H1.653z" class="B C"/><path d="M30.31 106.295h13.366v13.084H30.31z" class="D"/><path d="M31.06 107.045h11.866v11.584H31.06zm48.705-60.5V25.6l29.406 20.934V25.6" class="B C"/><path d="M73.082 19.068h13.366v13.084H73.082z" class="D"/><path d="M73.832 19.818h11.866v11.584H73.832z" class="B C"/><path d="M102.487 19.068h13.366v13.084h-13.366z" class="D"/><path d="M103.237 19.818h11.866v11.584h-11.866z" class="B C"/><path d="M73.082 40.003h13.366v13.084H73.082z" class="D"/><path d="M73.832 40.753h11.866v11.584H73.832z" class="B C"/><path d="M102.487 40.003h13.366v13.084h-13.366z" class="D"/><path d="M103.237 40.753h11.866v11.584h-11.866z" class="B C"/><path d="M73.082 85.36h13.366v13.084H73.082z" class="D"/><path d="M73.832 86.11h11.866v11.584H73.832z" class="B C"/><path d="M102.487 85.36h13.366v13.084h-13.366z" class="D"/><path d="M103.237 86.11h11.866v11.584h-11.866z" class="B C"/><path d="M73.082 106.295h13.366v13.084H73.082z" class="D"/><path d="M73.832 107.045h11.866v11.584H73.832z" class="B C"/><path d="M102.487 106.295h13.366v13.084h-13.366z" class="D"/><path d="M103.237 107.045h11.866v11.584h-11.866z" class="B C"/><path d="M.903.81H44v7.103H.903z" class="E"/><path d="M.001 0H23.95v7.103H.001z" class="D F"/><path d="M.75.75H23.2v5.603H.75z" class="B C"/><path d="M.903 71.155H44.01v7.103H.903z" class="E"/><path d="M0 70.345h14.37v7.103H0z" class="D F"/><path d="M.75 71.095h12.87v5.603H.75z" class="B C"/><path d="M72.747 71.155h43.107v7.103H72.747z" class="E"/><path d="M71.844 70.345h33.527v7.103H71.844z" class="D F"/><path d="M72.594 71.095h32.027v5.603H72.594z" class="B C"/><path d="M72.747.81h43.107v7.103H72.747z" class="E"/><path d="M71.844 0h43.107v7.103H71.844z" class="D F"/><path d="M72.594.75H114.2v5.603H72.594z" class="B C"/></g></svg>