<?xml version="1.0" encoding="UTF-8" standalone="no"?>
<!-- Created with Inkscape (http://www.inkscape.org/) -->

<svg
   xmlns:dc="http://purl.org/dc/elements/1.1/"
   xmlns:cc="http://creativecommons.org/ns#"
   xmlns:rdf="http://www.w3.org/1999/02/22-rdf-syntax-ns#"
   xmlns:svg="http://www.w3.org/2000/svg"
   xmlns="http://www.w3.org/2000/svg"
   xmlns:sodipodi="http://sodipodi.sourceforge.net/DTD/sodipodi-0.dtd"
   xmlns:inkscape="http://www.inkscape.org/namespaces/inkscape"
   width="6.3673635mm"
   height="5.6145873mm"
   viewBox="0 0 6.3673636 5.6145873"
   version="1.1"
   id="svg8"
   inkscape:version="0.92.3 (2405546, 2018-03-11)"
   sodipodi:docname="WorldChat.svg">
  <defs
     id="defs2" />
  <sodipodi:namedview
     id="base"
     pagecolor="#ffffff"
     bordercolor="#666666"
     borderopacity="1.0"
     inkscape:pageopacity="0.0"
     inkscape:pageshadow="2"
     inkscape:zoom="15.839192"
     inkscape:cx="14.866201"
     inkscape:cy="9.047762"
     inkscape:document-units="mm"
     inkscape:current-layer="layer1"
     showgrid="false"
     inkscape:window-width="1920"
     inkscape:window-height="1021"
     inkscape:window-x="0"
     inkscape:window-y="0"
     inkscape:window-maximized="1" />
  <metadata
     id="metadata5">
    <rdf:RDF>
      <cc:Work
         rdf:about="">
        <dc:format>image/svg+xml</dc:format>
        <dc:type
           rdf:resource="http://purl.org/dc/dcmitype/StillImage" />
        <dc:title />
      </cc:Work>
    </rdf:RDF>
  </metadata>
  <g
     inkscape:label="Layer 1"
     inkscape:groupmode="layer"
     id="layer1"
     transform="translate(50.87392,3.3102673)">
    <g
       id="g871">
      <path
         sodipodi:nodetypes="cssscccc"
         inkscape:connector-curvature="0"
         transform="matrix(0.26458333,0,0,0.26458333,-43.42378,-3.4606073)"
         id="path861"
         d="m -11.214251,16.910246 c -1.211077,1.097095 -2.69753,1.593087 -4.331643,1.593087 -3.636757,0 -6.584932,-2.948175 -6.584932,-6.584932 0,-3.6367575 2.948175,-6.5849319 6.584932,-6.584932 3.636758,-1e-7 6.5849323,2.9481744 6.5849324,6.584932 v 0 0 c 10e-8,0.927645 -0.1959974,1.844823 -0.5751515,2.691444"
         style="opacity:1;fill:none;fill-opacity:1;stroke:#d85252;stroke-width:0.49999997;stroke-linecap:round;stroke-linejoin:round;stroke-miterlimit:4;stroke-dasharray:none;stroke-dashoffset:0;stroke-opacity:1" />
      <ellipse
         cy="-0.28381342"
         cx="-47.519417"
         id="ellipse823"
         style="opacity:1;fill:none;fill-opacity:1;stroke:#d85252;stroke-width:0.13229166;stroke-linecap:round;stroke-linejoin:round;stroke-miterlimit:4;stroke-dasharray:none;stroke-dashoffset:0;stroke-opacity:1"
         rx="0.6736874"
         ry="1.766987" />
      <path
         style="fill:none;stroke:#d85252;stroke-width:0.13229166;stroke-linecap:butt;stroke-linejoin:miter;stroke-miterlimit:4;stroke-dasharray:none;stroke-opacity:1"
         d="m -49.296763,-0.24875598 h 3.519607"
         id="path825"
         inkscape:connector-curvature="0" />
      <path
         id="path827"
         d="m -49.879573,-3.1787517 h -0.225309 v 0 c -0.187801,0 -0.338995,0.1511652 -0.338995,0.3389841 0,0.1877836 0.151194,0.3389842 0.338995,0.3389842 h 0.855758 l 0.187071,0.396875 0.187071,-0.396875 h 1.015958 c 0.187801,0 0.338994,-0.1512006 0.338994,-0.3389842 0,-0.1878189 -0.151193,-0.3389841 -0.338994,-0.3389841 h -1.704806"
         style="opacity:1;fill:none;fill-opacity:1;stroke:#d85252;stroke-width:0.13229166;stroke-linecap:round;stroke-linejoin:round;stroke-miterlimit:4;stroke-dasharray:none;stroke-dashoffset:0;stroke-opacity:1"
         inkscape:connector-curvature="0" />
      <path
         style="opacity:1;fill:none;fill-opacity:1;stroke:#d85252;stroke-width:0.13229166;stroke-linecap:round;stroke-linejoin:round;stroke-miterlimit:4;stroke-dasharray:none;stroke-dashoffset:0;stroke-opacity:1"
         d="m -46.16924,0.40416512 h -0.152453 v 0 c -0.127074,0 -0.229376,0.13476111 -0.229376,0.30215416 0,0.16739305 0.102302,0.30218942 0.229376,0.30218942 h 0.579035 l 0.126577,0.3537303 0.126577,-0.3537303 h 0.687429 c 0.127075,0 0.229373,-0.13479637 0.229373,-0.30218942 0,-0.16739305 -0.102298,-0.30215416 -0.229373,-0.30215416 h -1.153526"
         id="path829"
         inkscape:connector-curvature="0" />
      <path
         inkscape:connector-curvature="0"
         id="path831"
         d="m -48.844079,1.275879 h -1.660334 v 0 c -0.168064,0 -0.303361,0.1347611 -0.303361,0.3021542 0,0.167393 0.135297,0.3021894 0.303361,0.3021894 l 0.401997,0.00423 0.167404,0.3537303 0.167403,-0.3537303 1.27296,-0.00423 c 0.16806,0 0.303354,-0.1347964 0.303354,-0.3021894 0,-0.1673931 -0.135294,-0.3021542 -0.303354,-0.3021542 h -0.06688"
         style="opacity:1;fill:none;fill-opacity:1;stroke:#d85252;stroke-width:0.13229166;stroke-linecap:round;stroke-linejoin:round;stroke-miterlimit:4;stroke-dasharray:none;stroke-dashoffset:0;stroke-opacity:1"
         sodipodi:nodetypes="cccsscccsssc" />
      <circle
         style="opacity:1;fill:none;fill-opacity:1;stroke:#d85252;stroke-width:0.13229166;stroke-linecap:round;stroke-linejoin:round;stroke-miterlimit:4;stroke-dasharray:none;stroke-dashoffset:0;stroke-opacity:1"
         id="circle833"
         cx="-45.876537"
         cy="-2.4295049"
         r="0.30401909" />
      <path
         style="opacity:1;fill:none;fill-opacity:1;stroke:#d85252;stroke-width:0.13229166;stroke-linecap:round;stroke-linejoin:round;stroke-miterlimit:4;stroke-dasharray:none;stroke-dashoffset:0;stroke-opacity:1"
         d="m -45.061906,-2.4177748 c -10e-6,0.4563533 -0.826336,1.3232694 -0.826336,1.3232694 0,0 -0.826322,-0.8669161 -0.826333,-1.3232694 -7e-6,-0.4563886 0.369959,-0.8263467 0.826333,-0.8263467 0.456378,0 0.826343,0.3699581 0.826336,0.8263467 z"
         id="path835"
         inkscape:connector-curvature="0"
         sodipodi:nodetypes="ccccc" />
    </g>
  </g>
</svg>
