<?xml version="1.0" encoding="UTF-8" standalone="no"?>
<!-- Generator: Adobe Illustrator 19.1.0, SVG Export Plug-In . SVG Version: 6.00 Build 0)  -->

<svg
   xmlns:dc="http://purl.org/dc/elements/1.1/"
   xmlns:cc="http://creativecommons.org/ns#"
   xmlns:rdf="http://www.w3.org/1999/02/22-rdf-syntax-ns#"
   xmlns:svg="http://www.w3.org/2000/svg"
   xmlns="http://www.w3.org/2000/svg"
   xmlns:sodipodi="http://sodipodi.sourceforge.net/DTD/sodipodi-0.dtd"
   xmlns:inkscape="http://www.inkscape.org/namespaces/inkscape"
   version="1.1"
   id="Capa_1"
   x="0px"
   y="0px"
   viewBox="0 0 41.301 41.301"
   style="enable-background:new 0 0 41.301 41.301;"
   xml:space="preserve"
   sodipodi:docname="clockincourse.svg"
   inkscape:version="0.92.4 (5da689c313, 2019-01-14)"><metadata
   id="metadata39"><rdf:RDF><cc:Work
       rdf:about=""><dc:format>image/svg+xml</dc:format><dc:type
         rdf:resource="http://purl.org/dc/dcmitype/StillImage" /><dc:title></dc:title></cc:Work></rdf:RDF></metadata><defs
   id="defs37">















	

		
		
	
			
		
			
		
				
			</defs><sodipodi:namedview
   pagecolor="#ffffff"
   bordercolor="#666666"
   borderopacity="1"
   objecttolerance="10"
   gridtolerance="10"
   guidetolerance="10"
   inkscape:pageopacity="0"
   inkscape:pageshadow="2"
   inkscape:window-width="1920"
   inkscape:window-height="1017"
   id="namedview35"
   showgrid="false"
   inkscape:zoom="5.7141475"
   inkscape:cx="20.078641"
   inkscape:cy="6.4036488"
   inkscape:window-x="-8"
   inkscape:window-y="-8"
   inkscape:window-maximized="1"
   inkscape:current-layer="Capa_1" />
<path
   style="fill:#999999"
   d="m 20.642999,4.9934387e-4 c 5.698,0 10.857,2.31699995613 14.602,6.04699995613 3.73,3.746 6.047,8.9049997 6.047,14.6029997 0,5.698 -2.317,10.857 -6.047,14.603 -3.746,3.73 -8.904,6.047 -14.602,6.047 -5.698,0 -10.8559997,-2.317 -14.5859997,-6.047 -3.746,-3.746 -6.04799996,-8.904 -6.04799996,-14.603 0,-5.698 2.30099996,-10.8569997 6.04699996,-14.6029997 3.731,-3.73 8.8889997,-6.04699995613 14.5869997,-6.04699995613 z M 31.166999,19.523499 c 0.619,0 1.111,0.508 1.111,1.127 0,0.619 -0.492,1.127 -1.111,1.127 h -10.492 -0.032 c -0.413,0 -0.778,-0.238 -0.968,-0.571 l -0.016,-0.016 v 0 l -0.016,-0.032 v 0 -0.016 0 l -0.016,-0.032 v 0 l -0.016,-0.032 v 0 -0.016 0 l -0.016,-0.032 v 0 l -0.016,-0.016 v 0 -0.032 0 l -0.016,-0.032 v 0 -0.016 0 l -0.016,-0.032 v 0 -0.032 0 -0.016 -0.016 l -0.016,-0.016 v 0 -0.032 0 -0.032 0 -0.028 0 -0.016 0 -0.032 0 -0.032 0 -13.4439997 c 0,-0.619 0.492,-1.111 1.111,-1.111 0.619,0 1.127,0.492 1.127,1.111 V 19.523499 Z m 2.491,-11.8879997 c -3.333,-3.333 -7.936,-5.381 -13.015,-5.381 -5.079,0 -9.682,2.047 -13.0149997,5.381 -3.317,3.3329997 -5.381,7.9359997 -5.381,13.0149997 0,5.079 2.063,9.682 5.381,13.016 3.3329997,3.333 7.9359997,5.381 13.0149997,5.381 5.079,0 9.682,-2.048 13.015,-5.381 3.333,-3.333 5.397,-7.936 5.397,-13.016 0,-5.079 -2.063,-9.682 -5.397,-13.0149997 z"
   id="path2"
   inkscape:connector-curvature="0" />
<g
   id="g4">
</g>
<g
   id="g6">
</g>
<g
   id="g8">
</g>
<g
   id="g10">
</g>
<g
   id="g12">
</g>
<g
   id="g14">
</g>
<g
   id="g16">
</g>
<g
   id="g18">
</g>
<g
   id="g20">
</g>
<g
   id="g22">
</g>
<g
   id="g24">
</g>
<g
   id="g26">
</g>
<g
   id="g28">
</g>
<g
   id="g30">
</g>
<g
   id="g32">
</g>
</svg>