<?xml version="1.0" encoding="UTF-8" standalone="no"?>
<svg
   xmlns:dc="http://purl.org/dc/elements/1.1/"
   xmlns:cc="http://creativecommons.org/ns#"
   xmlns:rdf="http://www.w3.org/1999/02/22-rdf-syntax-ns#"
   xmlns:svg="http://www.w3.org/2000/svg"
   xmlns="http://www.w3.org/2000/svg"
   xmlns:xlink="http://www.w3.org/1999/xlink"
   xmlns:sodipodi="http://sodipodi.sourceforge.net/DTD/sodipodi-0.dtd"
   xmlns:inkscape="http://www.inkscape.org/namespaces/inkscape"
   id="svg8"
   version="1.1"
   viewBox="0 0 370.41667 68.791665"
   height="260"
   width="1400"
   sodipodi:docname="drawing-2.svg"
   inkscape:version="0.92.3 (2405546, 2018-03-11)">
  <sodipodi:namedview
     pagecolor="#ffffff"
     bordercolor="#666666"
     borderopacity="1"
     objecttolerance="10"
     gridtolerance="10"
     guidetolerance="10"
     inkscape:pageopacity="0"
     inkscape:pageshadow="2"
     inkscape:window-width="1920"
     inkscape:window-height="1019"
     id="namedview83"
     showgrid="false"
     inkscape:zoom="0.85862966"
     inkscape:cx="687.00419"
     inkscape:cy="36.699136"
     inkscape:window-x="0"
     inkscape:window-y="0"
     inkscape:window-maximized="1"
     inkscape:current-layer="g894" />
  <defs
     id="defs2">
    <linearGradient
       id="linearGradient851">
      <stop
         id="stop847"
         offset="0"
         style="stop-color:#ffffff;stop-opacity:1" />
      <stop
         style="stop-color:#cccccc;stop-opacity:1"
         offset="0.44523811"
         id="stop866" />
      <stop
         style="stop-color:#cccccc;stop-opacity:1"
         offset="0.55476195"
         id="stop864" />
      <stop
         id="stop849"
         offset="1"
         style="stop-color:#ffffff;stop-opacity:1" />
    </linearGradient>
    <linearGradient
       gradientUnits="userSpaceOnUse"
       y2="167.60172"
       x2="-5.7193484"
       y1="167.60172"
       x1="-290.71341"
       id="linearGradient853"
       xlink:href="#linearGradient851" />
  </defs>
  <metadata
     id="metadata5">
    <rdf:RDF>
      <cc:Work
         rdf:about="">
        <dc:format>image/svg+xml</dc:format>
        <dc:type
           rdf:resource="http://purl.org/dc/dcmitype/StillImage" />
        <dc:title></dc:title>
      </cc:Work>
    </rdf:RDF>
  </metadata>
  <g
     transform="translate(305.45446,-111.16608)"
     id="layer1">
    <g
       transform="translate(26.45834,-1.5853344)"
       id="g1272">
      <g
         id="g862"
         transform="matrix(0.9452381,0,0,1,-8.0338159,0)">
        <rect
           y="159.39963"
           x="-305.45447"
           height="16.404167"
           width="317.5"
           id="rect845"
           style="opacity:1;fill:url(#linearGradient853);fill-opacity:1;fill-rule:nonzero;stroke-width:0.21529177" />
        <text
           id="text857"
           y="171.05112"
           x="-162.51488"
           style="font-style:normal;font-variant:normal;font-weight:bold;font-stretch:normal;font-size:10.58333302px;line-height:1.25;font-family:Sawasdee;-inkscape-font-specification:'Sawasdee Bold';letter-spacing:0px;word-spacing:0px;fill:#000000;fill-opacity:1;stroke:none;stroke-width:0.26458332"
           xml:space="preserve"><tspan
             style="font-style:normal;font-variant:normal;font-weight:bold;font-stretch:normal;font-family:Calibri;-inkscape-font-specification:'Calibri Bold';stroke-width:0.26458332"
             y="171.05112"
             x="-162.51488"
             id="tspan855">Invoice</tspan></text>
      </g>
      <g
         id="g1199"
         transform="translate(27.456478)">
        <g
           id="g1300"
           transform="translate(-250.81388,-125.47156)">
          <g
             transform="translate(-73.219374,9.7134154)"
             id="g1054">
            <g
               id="g1025"
               transform="translate(-28.545944,-2.5390605)">
              <path
                 id="path1012"
                 d="m 40.427037,237.03166 c -3.701682,0 -6.681763,2.98008 -6.681763,6.68176 v 1.66812 c 0,2.93698 1.876025,5.4201 4.499985,6.32054 l 1.724441,-1.61902 c -2.14511,-0.65076 -4.349089,-2.54332 -4.349089,-4.7904 v -1.25677 c 0,-2.78846 2.290236,-5.03329 5.13457,-5.03329 h 11.017417 l 2.070674,-1.94407 c -0.199133,-0.0177 -0.401243,-0.0269 -0.605131,-0.0269 z"
                 style="opacity:1;fill:#e4372c;fill-opacity:1;stroke:#e4372c;stroke-width:0.38787916;stroke-linecap:round;stroke-linejoin:round;stroke-miterlimit:4;stroke-dasharray:none;stroke-opacity:1" />
              <path
                 style="opacity:1;fill:#a6aaad;fill-opacity:1;stroke:#a6aaad;stroke-width:0.38787916;stroke-linecap:round;stroke-linejoin:round;stroke-miterlimit:4;stroke-dasharray:none;stroke-opacity:1"
                 d="m 49.032371,256.41268 c 3.701682,0 6.681763,-2.98008 6.681763,-6.68176 v -1.66812 c 0,-2.93698 -1.876025,-5.4201 -4.499985,-6.32054 l -1.724441,1.61902 c 2.14511,0.65076 4.349089,2.54332 4.349089,4.7904 v 1.25677 c 0,2.78846 -2.290236,5.03329 -5.13457,5.03329 H 37.68681 l -2.070674,1.94407 c 0.199133,0.0177 0.401243,0.0269 0.605131,0.0269 z"
                 id="path1021" />
            </g>
            <g
               id="g1046"
               transform="translate(-28.186098,-2.6369855)">
              <path
                 id="path1039"
                 d="m 40.909013,241.47476 c -1.712029,0 -3.09025,1.37822 -3.09025,3.09025 v 0.2005 c 0,1.71202 1.378221,3.09025 3.09025,3.09025 h 1.106393 l 2.024682,-1.85415 h -2.690275 c -0.780833,0 -1.409733,-0.58447 -1.409733,-1.31051 v -0.0848 c 0,-0.72604 0.6289,-1.31052 1.409733,-1.31052 h 5.645134 l 1.954919,-1.79007 c -0.143772,-0.0203 -0.290722,-0.031 -0.440283,-0.031 z"
                 style="opacity:1;fill:#e23c33;fill-opacity:1;stroke:#e23c33;stroke-width:0.42648417;stroke-linecap:round;stroke-linejoin:round;stroke-miterlimit:4;stroke-dasharray:none;stroke-opacity:1" />
              <path
                 style="opacity:1;fill:#a3a7aa;fill-opacity:1;stroke:#a3a7aa;stroke-width:0.42648417;stroke-linecap:round;stroke-linejoin:round;stroke-miterlimit:4;stroke-dasharray:none;stroke-opacity:1"
                 d="m 47.830703,252.16543 c 1.712029,0 3.09025,-1.37822 3.09025,-3.09025 v -0.2005 c 0,-1.71202 -1.378221,-3.09025 -3.09025,-3.09025 H 46.72431 l -2.024682,1.85415 h 2.690275 c 0.780833,0 1.409733,0.58447 1.409733,1.31051 v 0.0848 c 0,0.72604 -0.6289,1.31052 -1.409733,1.31052 h -5.645134 l -1.954919,1.79007 c 0.143772,0.0203 0.290722,0.031 0.440283,0.031 z"
                 id="path1042" />
            </g>
          </g>
          <g
             id="g1266">
            <g
               id="g1148"
               style="fill:#ffffff;stroke:none"
               transform="translate(54.485434,-12.945685)">
              <g
                 id="g1171"
                 transform="translate(-66.817382,9.8889726)">
                <rect
                   ry="0.18898809"
                   y="269.43454"
                   x="-66.274605"
                   height="8.4572172"
                   width="42.286087"
                   id="rect1056"
                   style="opacity:1;fill:#e33b37;fill-opacity:1;stroke:none;stroke-width:0.38787916;stroke-linecap:round;stroke-linejoin:round;stroke-miterlimit:4;stroke-dasharray:none;stroke-opacity:1" />
                <g
                   transform="translate(42.293371,-15.349103)"
                   id="g1158">
                  <path
                     id="path1081"
                     d="m -107.41729,291.68802 1.32799,-1.07743 h 2.60588 c 0.14702,-0.0849 0.13523,-0.31447 0,-0.39255 h -2.46389 c -1.29576,-0.52651 -1.27735,-2.03063 0,-2.69775 h 4.35148 l -1.08578,1.1693 h -2.93997 c -0.17696,0.1682 -0.1215,0.30197 0,0.42596 h 2.64764 c 1.36229,0.63198 0.94033,2.21611 0,2.6727 z"
                     style="fill:#ffffff;stroke:none;stroke-width:0.02645833;stroke-linecap:butt;stroke-linejoin:miter;stroke-miterlimit:4;stroke-dasharray:none;stroke-opacity:1" />
                  <path
                     id="path1083"
                     d="m -100.56444,287.01001 -1.12211,1.37016 v 2.39779 c 1.29044,1.07159 2.95422,1.79375 4.606583,0 v -3.24823 h -0.850445 v 2.7167 c -0.738488,0.6319 -1.558636,0.87182 -2.610398,0 z"
                     style="fill:#ffffff;stroke:none;stroke-width:0.02645833;stroke-linecap:butt;stroke-linejoin:miter;stroke-miterlimit:4;stroke-dasharray:none;stroke-opacity:1" />
                  <path
                     id="path1085"
                     transform="matrix(0.26458333,0,0,0.26458333,0,228.20834)"
                     d="m -364.99609,224.47461 v 12.85742 l 4.73242,4.375 v -7.09765 h 9.73047 c 4.12702,-1.62584 5.51126,-8.06053 0,-10.13477 z m 5.31836,4.14844 h 8.05078 c 0.34976,0 0.63086,0.28109 0.63086,0.63086 v 0.0937 c 0,0.34976 -0.2811,0.63086 -0.63086,0.63086 h -8.05078 c -0.34977,0 -0.63086,-0.2811 -0.63086,-0.63086 v -0.0937 c 0,-0.34977 0.28109,-0.63086 0.63086,-0.63086 z"
                     style="fill:#ffffff;stroke:none;stroke-width:0.09999999;stroke-linecap:butt;stroke-linejoin:miter;stroke-miterlimit:4;stroke-dasharray:none;stroke-opacity:1" />
                  <path
                     id="path1089"
                     d="m -91.3867,287.5061 v 4.2168 h 4.866444 v -1.01581 h -3.567152 v -0.50791 h 2.8112 v -1.03943 h -2.763951 v -0.50791 h 2.870256 l 0.956751,-1.1103 z"
                     style="fill:#ffffff;stroke:none;stroke-width:0.02645833;stroke-linecap:butt;stroke-linejoin:miter;stroke-miterlimit:4;stroke-dasharray:none;stroke-opacity:1" />
                  <path
                     id="path1091"
                     transform="matrix(0.26458333,0,0,0.26458333,0,228.20834)"
                     d="m -325.17383,224.17188 v 13.25781 l 3.25,3.5664 v -10.38671 h 0.78906 l 10.03907,9.34374 5.71484,-0.0293 -5.46289,-5.49414 c 5.35047,-3.75028 3.0906,-9.4397 -0.82031,-10.25781 z m 4.45117,4.45117 h 8.04883 c 0.34977,0 0.63086,0.28109 0.63086,0.63086 v 0.0937 c 0,0.34976 -0.28109,0.63086 -0.63086,0.63086 h -8.04883 c -0.34976,0 -0.63281,-0.2811 -0.63281,-0.63086 v -0.0937 c 0,-0.34977 0.28305,-0.63086 0.63281,-0.63086 z"
                     style="fill:#ffffff;stroke:none;stroke-width:0.09999999;stroke-linecap:butt;stroke-linejoin:miter;stroke-miterlimit:4;stroke-dasharray:none;stroke-opacity:1" />
                  <path
                     id="path1095"
                     d="m -79.409357,285.78181 a 0.64964656,0.64964656 0 0 0 -0.650092,0.64957 0.64964656,0.64964656 0 0 0 0.650092,0.64957 0.64964656,0.64964656 0 0 0 0.649571,-0.64957 0.64964656,0.64964656 0 0 0 -0.649571,-0.64957 z m -0.874366,1.65365 v 0.72036 h 0.484209 v 3.02359 h -0.484209 v 0.83871 h 2.291332 v -0.83871 h -0.791165 v -3.74395 z"
                     style="opacity:1;fill:#ffffff;fill-opacity:1;stroke:none;stroke-width:0.02645833;stroke-linecap:round;stroke-linejoin:round;stroke-miterlimit:4;stroke-dasharray:none;stroke-opacity:1" />
                  <path
                     id="path1104"
                     d="m -75.688654,287.50625 a 2.3741629,2.1143043 0 0 0 -2.374532,2.11408 2.3741629,2.1143043 0 0 0 2.374532,2.1146 2.3741629,2.1143043 0 0 0 2.374014,-2.1146 2.3741629,2.1143043 0 0 0 -2.374014,-2.11408 z m 0,1.14205 a 1.1712172,0.97217689 0 0 1 1.170988,0.97203 1.1712172,0.97217689 0 0 1 -1.170988,0.97204 1.1712172,0.97217689 0 0 1 -1.171506,-0.97204 1.1712172,0.97217689 0 0 1 1.171506,-0.97203 z"
                     style="opacity:1;fill:#ffffff;fill-opacity:1;stroke:none;stroke-width:0.02496841;stroke-linecap:round;stroke-linejoin:round;stroke-miterlimit:4;stroke-dasharray:none;stroke-opacity:1" />
                  <path
                     id="path1109"
                     transform="matrix(0.26458333,0,0,0.26458333,0,228.20834)"
                     d="m -275.39844,224.16211 v 13.25977 l 4.77735,4.59765 v -11.29492 l 9.50781,8.70508 h 6.25 l -5.9375,-5.3125 c 3.50197,-0.84896 6.56183,-7.13608 -0.35742,-9.95508 z m 5.56055,4.46094 h 8.05078 c 0.34977,0 0.63086,0.28109 0.63086,0.63086 v 0.0937 c 0,0.34976 -0.28109,0.63086 -0.63086,0.63086 h -8.05078 c -0.34977,0 -0.63086,-0.2811 -0.63086,-0.63086 v -0.0937 c 0,-0.34977 0.28109,-0.63086 0.63086,-0.63086 z"
                     style="fill:#ffffff;stroke:none;stroke-width:0.09999999;stroke-linecap:butt;stroke-linejoin:miter;stroke-miterlimit:4;stroke-dasharray:none;stroke-opacity:1" />
                </g>
              </g>
            </g>
            <g
               id="g1240">
              <g
                 transform="translate(0.14942217)"
                 style="fill:#4d4d4d;stroke:#4d4d4d"
                 id="g1225">
                <text
                   xml:space="preserve"
                   style="font-style:normal;font-weight:normal;font-size:3.53812003px;line-height:1.25;font-family:sans-serif;letter-spacing:0px;word-spacing:0px;fill:#4d4d4d;fill-opacity:1;stroke:#4d4d4d;stroke-width:0.088453"
                   x="-79.842667"
                   y="275.82666"
                   id="text1175"
                   transform="scale(0.98725065,1.012914)"><tspan
                     id="tspan1173"
                     x="-79.842667"
                     y="275.82666"
                     style="font-style:normal;font-variant:normal;font-weight:bold;font-stretch:normal;font-family:Sawasdee;-inkscape-font-specification:'Sawasdee Bold';fill:#4d4d4d;stroke:#4d4d4d;stroke-width:0.088453">D</tspan></text>
                <rect
                   style="opacity:1;fill:#4d4d4d;fill-opacity:1;stroke:#4d4d4d;stroke-width:0.02645833;stroke-linecap:round;stroke-linejoin:round;stroke-miterlimit:4;stroke-dasharray:none;stroke-opacity:1"
                   id="rect1177"
                   width="0.64964658"
                   height="2.6222098"
                   x="-71.200371"
                   y="276.77127" />
                <path
                   style="fill:#4d4d4d;fill-opacity:1;stroke:#4d4d4d;stroke-width:0.02645833;stroke-linecap:butt;stroke-linejoin:miter;stroke-miterlimit:4;stroke-dasharray:none;stroke-opacity:1"
                   d="m -64.764108,277.45045 c 0,0 1.06957,0.0501 1.098492,0 0.02892,-0.0501 0,-0.6024 0,-0.6024 h -1.145738 c -1.03446,0 -1.147438,2.46865 0,2.46865 h 1.157552 v -1.15755 h -0.318918 v 0.48428 h -0.773671 c -0.429866,-0.12917 -0.460472,-1.00675 -0.01772,-1.19298 z"
                   id="path1192" />
                <rect
                   y="276.77127"
                   x="-58.732155"
                   height="2.6222098"
                   width="0.64964658"
                   id="rect1194"
                   style="opacity:1;fill:#4d4d4d;fill-opacity:1;stroke:#4d4d4d;stroke-width:0.02645833;stroke-linecap:round;stroke-linejoin:round;stroke-miterlimit:4;stroke-dasharray:none;stroke-opacity:1" />
                <path
                   style="opacity:1;fill:#4d4d4d;fill-opacity:1;stroke:#4d4d4d;stroke-width:0.02645833;stroke-linecap:round;stroke-linejoin:round;stroke-miterlimit:4;stroke-dasharray:none;stroke-opacity:1"
                   d="m -38.621936,276.77135 v 1.97249 0.64957 h 0.649573 1.281575 v -0.64957 h -1.281575 v -1.97249 z"
                   id="rect1198" />
                <path
                   style="opacity:1;fill:#4d4d4d;fill-opacity:1;stroke:#4d4d4d;stroke-width:0.02581854;stroke-linecap:round;stroke-linejoin:round;stroke-miterlimit:4;stroke-dasharray:none;stroke-opacity:1"
                   d="m -53.17513,276.82793 v 0.64958 h 0.622699 v 1.85931 h 0.649574 v -1.85931 h 0.623218 v -0.64958 z"
                   id="rect1196" />
                <text
                   xml:space="preserve"
                   style="font-style:normal;font-weight:normal;font-size:3.72034812px;line-height:1.25;font-family:sans-serif;letter-spacing:0px;word-spacing:0px;fill:#4d4d4d;fill-opacity:1;stroke:#4d4d4d;stroke-width:0.0930087"
                   x="-46.390423"
                   y="279.43845"
                   id="text1214"><tspan
                     id="tspan1212"
                     x="-46.390423"
                     y="279.43845"
                     style="font-style:normal;font-variant:normal;font-weight:bold;font-stretch:normal;font-family:Sawasdee;-inkscape-font-specification:'Sawasdee Bold';fill:#4d4d4d;stroke:#4d4d4d;stroke-width:0.0930087">A</tspan></text>
              </g>
              <path
                 id="path1227"
                 d="m -78.54569,280.42617 h 42.164362"
                 style="fill:#4d4d4d;fill-opacity:1;stroke:#4d4d4d;stroke-width:0.26458332;stroke-linecap:round;stroke-linejoin:miter;stroke-miterlimit:4;stroke-dasharray:none;stroke-opacity:1" />
            </g>
          </g>
        </g>
        <g
           transform="translate(30.842916,2.7897857)"
           id="g894">
          <g
             id="g896"
             transform="translate(-31.739042,-4.6221906)">
            <path
               style="stroke-width:0.01402291"
               d="m -79.680843,148.88757 c -0.25177,0.58163 -0.54978,1.11702 -0.89506,1.60925 -0.47065,0.67104 -0.85601,1.13552 -1.15299,1.39345 -0.46038,0.42338 -0.95363,0.64021 -1.48183,0.65254 -0.37919,0 -0.83648,-0.1079 -1.36879,-0.32678 -0.53406,-0.21786 -1.02485,-0.32576 -1.47361,-0.32576 -0.47065,0 -0.97542,0.1079 -1.51533,0.32576 -0.54074,0.21888 -0.97634,0.33295 -1.3094,0.34425 -0.50651,0.0216 -1.01138,-0.20141 -1.51533,-0.67001 -0.32164,-0.28054 -0.72395,-0.76146 -1.20591,-1.44278 -0.5171,-0.72755 -0.94222,-1.57123 -1.27528,-2.53308 -0.35668,-1.03893 -0.53549,-2.04497 -0.53549,-3.01895 0,-1.11568 0.24108,-2.07795 0.72396,-2.88432 0.3795,-0.64771 0.88437,-1.15865 1.51625,-1.53373 0.63189,-0.37508 1.31464,-0.56622 2.0499,-0.57845 0.40232,0 0.9299,0.12445 1.58552,0.36902 0.65377,0.2454 1.07356,0.36984 1.2576,0.36984 0.1376,0 0.60393,-0.14551 1.39448,-0.4356 0.7476,-0.26904 1.37856,-0.38043 1.89545,-0.33655 1.40065,0.11304 2.45293,0.66518 3.15274,1.65992 -1.25267,0.759 -1.87232,1.82207 -1.85999,3.18583 0.0113,1.06225 0.39666,1.94621 1.15402,2.64807 0.34322,0.32576 0.72652,0.57753 1.15299,0.75633 -0.0925,0.26821 -0.19011,0.52512 -0.2939,0.77175 z m -3.21235,-12.64077 c 0,0.83259 -0.30417,1.60997 -0.91047,2.32951 -0.73166,0.8554 -1.61665,1.34968 -2.57635,1.27168 -0.0122,-0.0999 -0.0193,-0.20501 -0.0193,-0.31548 0,-0.79928 0.34796,-1.65467 0.96587,-2.35407 0.30849,-0.35412 0.70083,-0.64856 1.17662,-0.88345 0.47476,-0.23138 0.92383,-0.35933 1.34618,-0.38124 0.0123,0.1113 0.0175,0.22261 0.0175,0.33304 z"
               id="path4"
               inkscape:connector-curvature="0" />
            <g
               transform="translate(-7.6171814,2.5826416)"
               id="g886">
              <text
                 xml:space="preserve"
                 style="font-style:normal;font-weight:normal;font-size:10.58333302px;line-height:1.25;font-family:sans-serif;letter-spacing:0px;word-spacing:0px;fill:#000000;fill-opacity:1;stroke:none;stroke-width:0.26458332"
                 x="-69.030357"
                 y="142.91608"
                 id="text876"><tspan
                   id="tspan874"
                   x="-69.030357"
                   y="142.91608"
                   style="font-style:normal;font-variant:normal;font-weight:bold;font-stretch:normal;font-size:5.64444447px;font-family:Sawasdee;-inkscape-font-specification:'Sawasdee Bold';stroke-width:0.26458332">Authorised</tspan></text>
              <text
                 id="text880"
                 y="148.9637"
                 x="-69.520943"
                 style="font-style:normal;font-weight:normal;font-size:10.58333302px;line-height:1.25;font-family:sans-serif;letter-spacing:0px;word-spacing:0px;fill:#000000;fill-opacity:1;stroke:none;stroke-width:0.26458332"
                 xml:space="preserve"><tspan
                   style="font-style:normal;font-variant:normal;font-weight:bold;font-stretch:normal;font-size:5.64444447px;font-family:Sawasdee;-inkscape-font-specification:'Sawasdee Bold';stroke-width:0.26458332"
                   y="148.9637"
                   x="-69.520943"
                   id="tspan878">Reseller</tspan></text>
            </g>
          </g>
        </g>
        <g
           transform="translate(-39.092033)"
           id="g1131">
          <text
             xml:space="preserve"
             style="font-style:normal;font-weight:normal;font-size:10.58333302px;line-height:1.25;font-family:sans-serif;letter-spacing:0px;word-spacing:0px;fill:#000000;fill-opacity:1;stroke:none;stroke-width:0.26458332"
             x="-226.40503"
             y="125.68406"
             id="text898"><tspan
               id="tspan896"
               x="-226.40503"
               y="125.68406"
               style="font-style:normal;font-variant:normal;font-weight:bold;font-stretch:normal;font-family:Calibri;-inkscape-font-specification:'Calibri Bold';stroke-width:0.26458332">Superior Digital Pvt. Ltd.</tspan></text>
          <text
             xml:space="preserve"
             style="font-style:normal;font-variant:normal;font-weight:normal;font-stretch:normal;font-size:10.58333302px;line-height:1.25;font-family:Calibri;-inkscape-font-specification:Calibri;letter-spacing:0px;word-spacing:0px;fill:#000000;fill-opacity:1;stroke:none;stroke-width:0.26458332"
             x="-226.16629"
             y="132.9183"
             id="text902"><tspan
               id="tspan900"
               x="-226.16629"
               y="132.9183"
               style="font-size:4.93888903px;stroke-width:0.26458332">#111, 6th Main Road,</tspan></text>
          <text
             id="text906"
             y="138.20998"
             x="-226.16629"
             style="font-style:normal;font-variant:normal;font-weight:normal;font-stretch:normal;font-size:10.58333302px;line-height:1.25;font-family:Calibri;-inkscape-font-specification:Calibri;letter-spacing:0px;word-spacing:0px;fill:#000000;fill-opacity:1;stroke:none;stroke-width:0.26458332"
             xml:space="preserve"><tspan
               style="font-size:4.93888903px;stroke-width:0.26458332"
               y="138.20998"
               x="-226.16629"
               id="tspan904">MRCR Layout, Vijayanagar                    <tspan
   id="tspan1293"
   style="font-style:normal;font-variant:normal;font-weight:bold;font-stretch:normal;font-family:Calibri;-inkscape-font-specification:'Calibri Bold'">GSTIN/UIN:</tspan> 29AAYCS0407L1ZQ</tspan></text>
          <text
             xml:space="preserve"
             style="font-style:normal;font-variant:normal;font-weight:normal;font-stretch:normal;font-size:10.58333302px;line-height:1.25;font-family:Calibri;-inkscape-font-specification:Calibri;letter-spacing:0px;word-spacing:0px;fill:#000000;fill-opacity:1;stroke:none;stroke-width:0.26458332"
             x="-226.16629"
             y="143.50165"
             id="text910"><tspan
               id="tspan908"
               x="-226.16629"
               y="143.50165"
               style="font-size:4.93888903px;stroke-width:0.26458332">Bangalore - 560040                                <tspan
   id="tspan1295"
   style="font-style:normal;font-variant:normal;font-weight:bold;font-stretch:normal;font-family:Calibri;-inkscape-font-specification:'Calibri Bold'">State Name:</tspan> Karnataka, Code: 29</tspan></text>
          <text
             id="text914"
             y="148.79332"
             x="-226.16629"
             style="font-style:normal;font-variant:normal;font-weight:normal;font-stretch:normal;font-size:10.58333302px;line-height:1.25;font-family:Calibri;-inkscape-font-specification:Calibri;letter-spacing:0px;word-spacing:0px;fill:#000000;fill-opacity:1;stroke:none;stroke-width:0.26458332"
             xml:space="preserve"><tspan
               style="font-size:4.93888903px;stroke-width:0.26458332"
               y="148.79332"
               x="-226.16629"
               id="tspan912"><tspan
   style="font-style:normal;font-variant:normal;font-weight:bold;font-stretch:normal;font-family:Calibri;-inkscape-font-specification:'Calibri Bold'"
   id="tspan916">Tel:</tspan> 080-23116047                                 <tspan
   id="tspan1297"
   style="font-style:normal;font-variant:normal;font-weight:bold;font-stretch:normal;font-family:Calibri;-inkscape-font-specification:'Calibri Bold'">Company's PAN:</tspan> AAYCS0407L</tspan></text>
          <text
             xml:space="preserve"
             style="font-style:normal;font-variant:normal;font-weight:normal;font-stretch:normal;font-size:10.58333302px;line-height:1.25;font-family:Calibri;-inkscape-font-specification:Calibri;letter-spacing:0px;word-spacing:0px;fill:#000000;fill-opacity:1;stroke:none;stroke-width:0.26458332"
             x="-226.16629"
             y="154.08499"
             id="text922"><tspan
               id="tspan920"
               x="-226.16629"
               y="154.08499"
               style="font-size:4.93888903px;stroke-width:0.26458332"><tspan
   id="tspan918"
   style="font-style:normal;font-variant:normal;font-weight:bold;font-stretch:normal;font-family:Calibri;-inkscape-font-specification:'Calibri Bold'">e-mail:</tspan> sachin@superiorsystems.in</tspan></text>
        </g>
        <g
           transform="translate(-3.0720961)"
           id="g1115">
          <text
             xml:space="preserve"
             style="font-style:normal;font-variant:normal;font-weight:normal;font-stretch:normal;font-size:10.58333302px;line-height:1.25;font-family:Calibri;-inkscape-font-specification:Calibri;letter-spacing:0px;word-spacing:0px;fill:#000000;fill-opacity:1;stroke:none;stroke-width:0.26458332"
             x="-146.13751"
             y="136.67947"
             id="text926"><tspan
               id="tspan924"
               x="-146.13751"
               y="145.9399"
               style="font-size:4.93888903px;stroke-width:0.26458332" /></text>
          <text
             id="text934"
             y="141.97115"
             x="-146.13751"
             style="font-style:normal;font-variant:normal;font-weight:normal;font-stretch:normal;font-size:10.58333302px;line-height:1.25;font-family:Calibri;-inkscape-font-specification:Calibri;letter-spacing:0px;word-spacing:0px;fill:#000000;fill-opacity:1;stroke:none;stroke-width:0.26458332"
             xml:space="preserve"><tspan
               style="font-size:4.93888903px;stroke-width:0.26458332"
               y="151.23157"
               x="-146.13751"
               id="tspan932" /></text>
          <text
             xml:space="preserve"
             style="font-style:normal;font-variant:normal;font-weight:normal;font-stretch:normal;font-size:10.58333302px;line-height:1.25;font-family:Calibri;-inkscape-font-specification:Calibri;letter-spacing:0px;word-spacing:0px;fill:#000000;fill-opacity:1;stroke:none;stroke-width:0.26458332"
             x="-146.13751"
             y="147.26282"
             id="text944"><tspan
               id="tspan942"
               x="-146.13751"
               y="156.52324"
               style="font-size:4.93888903px;stroke-width:0.26458332" /></text>
        </g>
      </g>
    </g>
  </g>
</svg>
