<svg width="28" height="26" viewBox="0 0 28 26" fill="none" xmlns="http://www.w3.org/2000/svg">
<path d="M12.1862 3.53024H3.48582C2.82654 3.53024 2.19426 3.78157 1.72808 4.22895C1.2619 4.67632 1 5.28309 1 5.91577V22.6145C1 23.2472 1.2619 23.8539 1.72808 24.3013C2.19426 24.7487 2.82654 25 3.48582 25H20.8866C21.5459 25 22.1781 24.7487 22.6443 24.3013C23.1105 23.8539 23.3724 23.2472 23.3724 22.6145V14.2651" stroke="#797979" stroke-width="2" stroke-linecap="round" stroke-linejoin="round"/>
<path d="M21.508 1.74109C22.0024 1.26658 22.6731 1 23.3723 1C24.0716 1 24.7422 1.26658 25.2367 1.74109C25.7312 2.2156 26.0089 2.85918 26.0089 3.53024C26.0089 4.2013 25.7312 4.84487 25.2367 5.31938L13.429 16.6506L8.4574 17.8434L9.70031 13.0724L21.508 1.74109Z" stroke="#797979" stroke-width="2" stroke-linecap="round" stroke-linejoin="round"/>
</svg>
