<?xml version="1.0" encoding="UTF-8" standalone="no"?>
<!-- Created with Inkscape (http://www.inkscape.org/) -->

<svg
   xmlns:dc="http://purl.org/dc/elements/1.1/"
   xmlns:cc="http://creativecommons.org/ns#"
   xmlns:rdf="http://www.w3.org/1999/02/22-rdf-syntax-ns#"
   xmlns:svg="http://www.w3.org/2000/svg"
   xmlns="http://www.w3.org/2000/svg"
   xmlns:sodipodi="http://sodipodi.sourceforge.net/DTD/sodipodi-0.dtd"
   xmlns:inkscape="http://www.inkscape.org/namespaces/inkscape"
   width="177.51755mm"
   height="38.690697mm"
   viewBox="0 0 177.51755 38.690696"
   version="1.1"
   id="svg8"
   inkscape:version="0.92.4 (5da689c313, 2019-01-14)"
   sodipodi:docname="LightFullLogoDarkBlue.svg">
  <defs
     id="defs2" />
  <sodipodi:namedview
     id="base"
     pagecolor="#ffffff"
     bordercolor="#666666"
     borderopacity="1.0"
     inkscape:pageopacity="0.0"
     inkscape:pageshadow="2"
     inkscape:zoom="0.98994949"
     inkscape:cx="447.82525"
     inkscape:cy="-193.45565"
     inkscape:document-units="mm"
     inkscape:current-layer="layer1"
     showgrid="false"
     inkscape:pagecheckerboard="true"
     inkscape:window-width="1920"
     inkscape:window-height="1017"
     inkscape:window-x="-8"
     inkscape:window-y="-8"
     inkscape:window-maximized="1" />
  <metadata
     id="metadata5">
    <rdf:RDF>
      <cc:Work
         rdf:about="">
        <dc:format>image/svg+xml</dc:format>
        <dc:type
           rdf:resource="http://purl.org/dc/dcmitype/StillImage" />
        <dc:title></dc:title>
      </cc:Work>
    </rdf:RDF>
  </metadata>
  <g
     inkscape:label="Layer 1"
     inkscape:groupmode="layer"
     id="layer1"
     transform="translate(451.61595,-137.04752)">
    <g
       id="g863">
      <g
         aria-label="A"
         transform="matrix(0.9642771,0,0,1.0687237,2043.1856,-1938.424)"
         style="font-style:normal;font-weight:normal;font-size:49.3872261px;line-height:1.25;font-family:sans-serif;letter-spacing:0px;word-spacing:0px;fill:#fa4616;fill-opacity:1;stroke:none;stroke-width:0.52856535;stroke-linecap:round;stroke-linejoin:bevel;stroke-miterlimit:4;stroke-dasharray:none;stroke-opacity:1"
         id="text1958">
        <path
           d="m -2429.666,1971.6801 h -14.5171 l -2.2909,6.5593 h -9.3325 l 13.3356,-36.0035 h 11.0687 l 13.3355,36.0035 h -9.3325 z m -12.2021,-6.6798 h 9.863 l -4.9194,-14.3242 z"
           style="font-style:normal;font-variant:normal;font-weight:bold;font-stretch:normal;font-family:sans-serif;-inkscape-font-specification:'sans-serif Bold';fill:#fa4616;fill-opacity:1;stroke:none;stroke-width:0.52856535;stroke-linecap:round;stroke-linejoin:bevel;stroke-miterlimit:4;stroke-dasharray:none;stroke-opacity:1"
           id="path821"
           inkscape:connector-curvature="0" />
      </g>
      <g
         aria-label="I"
         transform="matrix(0.95704798,0,0,1.0618374,2043.1856,-1909.0533)"
         style="font-style:normal;font-weight:normal;font-size:49.61600494px;line-height:1.25;font-family:sans-serif;letter-spacing:0px;word-spacing:0px;fill:#fa4616;fill-opacity:1;stroke:none;stroke-width:0.52856529;stroke-linecap:round;stroke-linejoin:bevel;stroke-miterlimit:4;stroke-dasharray:none;stroke-opacity:1"
         id="text1962">
        <path
           d="m -2430.6102,1927.1884 h 9.3272 v 36.1702 h -9.3272 z"
           style="font-style:normal;font-variant:normal;font-weight:bold;font-stretch:normal;font-family:sans-serif;-inkscape-font-specification:'sans-serif Bold';fill:#fa4616;fill-opacity:1;stroke:none;stroke-width:0.52856529;stroke-linecap:round;stroke-linejoin:bevel;stroke-miterlimit:4;stroke-dasharray:none;stroke-opacity:1"
           id="path824"
           inkscape:connector-curvature="0" />
      </g>
      <path
         sodipodi:nodetypes="ccccccccccccccccccccc"
         inkscape:connector-curvature="0"
         id="path1964"
         d="m -451.2499,175.31702 c -0.094,-0.25021 -0.129,-8.89296 -0.079,-19.206 l 0.092,-18.75113 h 13.7427 l 10.897,-0.0481 -2.6736,7.47422 -4.7877,-0.11892 -10.3071,0.0952 v 3.59179 3.59179 l 5.9024,-0.044 6.8273,-0.0286 -2.6589,7.20917 -4.1684,0.0112 -5.9024,0.0993 v 4.31314 4.31314 c 0.07,-0.0665 7.3932,-0.0993 7.3932,-0.0993 l -2.6964,7.76585 c -10.8834,0.0736 -11.4472,0.1882 -11.5811,-0.16925 z"
         style="fill:#032757;fill-opacity:1;stroke:none;stroke-width:0.53469598;stroke-linecap:round;stroke-linejoin:bevel;stroke-miterlimit:4;stroke-dasharray:none;stroke-opacity:1" />
      <g
         aria-label="Psilon"
         transform="matrix(0.95397918,0,0,1.0482409,2043.1856,-1876.3727)"
         style="font-style:normal;font-weight:normal;font-size:31.37277603px;line-height:1.25;font-family:sans-serif;letter-spacing:0px;word-spacing:0px;fill:#032757;fill-opacity:1;stroke:none;stroke-width:0.78431946"
         id="text1968">
        <path
           d="m -2589.0754,1934.3559 h 9.7887 q 4.3658,0 6.6943,1.9915 2.3437,1.9759 2.3437,5.6452 0,3.6851 -2.3437,5.6765 -2.3285,1.9758 -6.6943,1.9758 h -3.891 v 8.1228 h -5.8977 z m 5.8977,4.3751 v 6.5389 h 3.2629 q 1.7157,0 2.6501,-0.8467 0.9345,-0.8625 0.9345,-2.4306 0,-1.5681 -0.9345,-2.4149 -0.9344,-0.8467 -2.6501,-0.8467 z"
           style="font-style:normal;font-variant:normal;font-weight:bold;font-stretch:normal;font-family:sans-serif;-inkscape-font-specification:'sans-serif Bold';fill:#032757;fill-opacity:1;stroke-width:0.7935394;stroke:none"
           id="path827"
           inkscape:connector-curvature="0" />
        <path
           d="m -2553.49,1940.606 v 4.1667 q -1.7616,-0.7353 -3.4007,-1.103 -1.6391,-0.3676 -3.0944,-0.3676 -1.5625,0 -2.3285,0.3983 -0.7506,0.3829 -0.7506,1.1948 0,0.6587 0.5668,1.0111 0.5821,0.3523 2.068,0.5208 l 0.9651,0.1379 q 4.2127,0.5361 5.668,1.7616 1.4552,1.2255 1.4552,3.845 0,2.7421 -2.022,4.1208 -2.0221,1.3787 -6.0356,1.3787 -1.7004,0 -3.5233,-0.2758 -1.8076,-0.2604 -3.7225,-0.7966 v -4.1667 q 1.6391,0.7966 3.3548,1.1949 1.731,0.3983 3.508,0.3983 1.6085,0 2.4204,-0.4443 0.8119,-0.4442 0.8119,-1.3174 0,-0.7353 -0.5668,-1.0876 -0.5515,-0.3676 -2.2212,-0.5668 l -0.9651,-0.1225 q -3.6612,-0.4596 -5.1318,-1.7004 -1.4706,-1.2408 -1.4706,-3.7684 0,-2.7268 1.8689,-4.0442 1.8689,-1.3174 5.7292,-1.3174 1.5165,0 3.1863,0.2298 1.6697,0.2298 3.6305,0.72 z"
           style="font-style:normal;font-variant:normal;font-weight:bold;font-stretch:normal;font-family:sans-serif;-inkscape-font-specification:'sans-serif Bold';fill:#032757;fill-opacity:1;stroke-width:0.78431946;stroke:none"
           id="path829"
           inkscape:connector-curvature="0" />
        <path
           d="m -2548.205,1940.2214 h 5.4841 v 17.5463 h -5.4841 z"
           style="font-style:normal;font-variant:normal;font-weight:bold;font-stretch:normal;font-family:sans-serif;-inkscape-font-specification:'sans-serif Bold';fill:#032757;fill-opacity:1;stroke-width:0.79316819;stroke:none"
           id="path831"
           inkscape:connector-curvature="0"
           sodipodi:nodetypes="ccccc" />
        <path
           d="m -2537.4206,1933.3908 h 5.4841 v 24.3769 h -5.4841 z"
           style="font-style:normal;font-variant:normal;font-weight:bold;font-stretch:normal;font-family:sans-serif;-inkscape-font-specification:'sans-serif Bold';fill:#032757;fill-opacity:1;stroke-width:0.79316819;stroke:none"
           id="path833"
           inkscape:connector-curvature="0" />
        <path
           d="m -2518.4713,1943.5778 q -1.823,0 -2.788,1.3174 -0.9498,1.3021 -0.9498,3.7684 0,2.4663 0.9498,3.7838 0.965,1.3021 2.788,1.3021 1.7923,0 2.742,-1.3021 0.9498,-1.3175 0.9498,-3.7838 0,-2.4663 -0.9498,-3.7684 -0.9497,-1.3174 -2.742,-1.3174 z m 0,-3.9216 q 4.4271,0 6.9087,2.3897 2.497,2.3898 2.497,6.6177 0,4.228 -2.497,6.6177 -2.4816,2.3898 -6.9087,2.3898 -4.4425,0 -6.9547,-2.3898 -2.497,-2.3897 -2.497,-6.6177 0,-4.2279 2.497,-6.6177 2.5122,-2.3897 6.9547,-2.3897 z"
           style="font-style:normal;font-variant:normal;font-weight:bold;font-stretch:normal;font-family:sans-serif;-inkscape-font-specification:'sans-serif Bold';fill:#032757;fill-opacity:1;stroke-width:0.78431946;stroke:none"
           id="path835"
           inkscape:connector-curvature="0" />
        <path
           d="m -2487.8185,1946.9256 v 10.6618 h -5.5148 v -1.7353 -6.4252 q 0,-2.2668 -0.1072,-3.1266 -0.092,-0.8599 -0.337,-1.2663 -0.3217,-0.5472 -0.8732,-0.8442 -0.5515,-0.3126 -1.2561,-0.3126 -1.7157,0 -2.6961,1.36 -0.9804,1.3445 -0.9804,3.7364 v 8.6138 h -5.4841 v -17.5091 h 5.4841 v 2.5638 q 1.2408,-1.532 2.6348,-2.2511 1.394,-0.7348 3.0791,-0.7348 2.9718,0 4.5037,1.8603 1.5472,1.8604 1.5472,5.4091 z"
           style="font-style:normal;font-variant:normal;font-weight:bold;font-stretch:normal;font-family:sans-serif;-inkscape-font-specification:'sans-serif Bold';fill:#032757;fill-opacity:1;stroke-width:0.79232645;stroke:none"
           id="path837"
           inkscape:connector-curvature="0" />
      </g>
      <path
         style="opacity:1;fill:#fa4616;fill-opacity:1;stroke:none;stroke-width:0.98880816;stroke-linecap:round;stroke-linejoin:round;stroke-miterlimit:4;stroke-dasharray:none;stroke-opacity:1"
         d="m -387.7607,150.2525 h 5.2901 v 4.7463 h -5.2901 z"
         id="rect1970"
         inkscape:connector-curvature="0" />
    </g>
  </g>
</svg>
