<?xml version="1.0" encoding="UTF-8" standalone="no"?>
<!-- Created with Inkscape (http://www.inkscape.org/) -->

<svg
   xmlns:dc="http://purl.org/dc/elements/1.1/"
   xmlns:cc="http://creativecommons.org/ns#"
   xmlns:rdf="http://www.w3.org/1999/02/22-rdf-syntax-ns#"
   xmlns:svg="http://www.w3.org/2000/svg"
   xmlns="http://www.w3.org/2000/svg"
   xmlns:xlink="http://www.w3.org/1999/xlink"
   xmlns:sodipodi="http://sodipodi.sourceforge.net/DTD/sodipodi-0.dtd"
   xmlns:inkscape="http://www.inkscape.org/namespaces/inkscape"
   width="1200"
   height="260"
   viewBox="0 0 317.50001 68.791665"
   version="1.1"
   id="svg8"
   inkscape:version="0.92.3 (2405546, 2018-03-11)"
   sodipodi:docname="newinvPlain.svg">
  <defs
     id="defs2">
    <linearGradient
       inkscape:collect="always"
       id="linearGradient832">
      <stop
         style="stop-color:#cccccc;stop-opacity:0"
         offset="0"
         id="stop828" />
      <stop
         id="stop842"
         offset="0.43333331"
         style="stop-color:#cccccc;stop-opacity:1" />
      <stop
         id="stop840"
         offset="0.57499999"
         style="stop-color:#cccccc;stop-opacity:1" />
      <stop
         style="stop-color:#cccccc;stop-opacity:0;"
         offset="1"
         id="stop830" />
    </linearGradient>
    <linearGradient
       inkscape:collect="always"
       xlink:href="#linearGradient832"
       id="linearGradient834"
       x1="10.583333"
       y1="284.64017"
       x2="301.625"
       y2="284.64017"
       gradientUnits="userSpaceOnUse"
       gradientTransform="translate(0.40090429)" />
  </defs>
  <sodipodi:namedview
     id="base"
     pagecolor="#ffffff"
     bordercolor="#666666"
     borderopacity="1.0"
     inkscape:pageopacity="0.0"
     inkscape:pageshadow="2"
     inkscape:zoom="0.7"
     inkscape:cx="457.68375"
     inkscape:cy="42.033093"
     inkscape:document-units="px"
     inkscape:current-layer="g1502"
     showgrid="false"
     units="px"
     inkscape:pagecheckerboard="true"
     inkscape:window-width="1920"
     inkscape:window-height="1019"
     inkscape:window-x="0"
     inkscape:window-y="0"
     inkscape:window-maximized="1"
     inkscape:snap-global="false" />
  <metadata
     id="metadata5">
    <rdf:RDF>
      <cc:Work
         rdf:about="">
        <dc:format>image/svg+xml</dc:format>
        <dc:type
           rdf:resource="http://purl.org/dc/dcmitype/StillImage" />
        <dc:title />
      </cc:Work>
    </rdf:RDF>
  </metadata>
  <g
     inkscape:label="Layer 1"
     inkscape:groupmode="layer"
     id="layer1"
     transform="translate(0,-228.20834)">
    <text
       id="text875"
       y="253.30966"
       x="79.181732"
       style="font-style:normal;font-weight:normal;font-size:10.58333302px;line-height:1.25;font-family:sans-serif;letter-spacing:0px;word-spacing:0px;fill:#000000;fill-opacity:1;stroke:none;stroke-width:0.26458332"
       xml:space="preserve"><tspan
         style="font-style:normal;font-variant:normal;font-weight:bold;font-stretch:normal;font-family:Calibri;-inkscape-font-specification:'Calibri Bold';stroke-width:0.26458332"
         y="262.67343"
         x="79.181732"
         id="tspan873"
         sodipodi:role="line" /></text>
    <g
       aria-label="c"
       transform="scale(0.98442948,1.0158168)"
       style="font-style:normal;font-weight:normal;font-size:3.54825974px;line-height:1.25;font-family:sans-serif;letter-spacing:0px;word-spacing:0px;fill:#000000;fill-opacity:1;stroke:none;stroke-width:0.08870649"
       id="text1185" />
    <g
       id="g1502">
      <g
         id="g1028">
        <g
           id="g1300"
           transform="translate(92.604167,-8.4790861)">
          <g
             transform="translate(-73.219374,9.7134154)"
             id="g1054">
            <g
               id="g1025"
               transform="translate(-28.545944,-2.5390605)">
              <path
                 inkscape:connector-curvature="0"
                 id="path1012"
                 d="m 40.427037,237.03166 c -3.701682,0 -6.681763,2.98008 -6.681763,6.68176 v 1.66812 c 0,2.93698 1.876025,5.4201 4.499985,6.32054 l 1.724441,-1.61902 c -2.14511,-0.65076 -4.349089,-2.54332 -4.349089,-4.7904 v -1.25677 c 0,-2.78846 2.290236,-5.03329 5.13457,-5.03329 h 11.017417 l 2.070674,-1.94407 c -0.199133,-0.0177 -0.401243,-0.0269 -0.605131,-0.0269 z"
                 style="opacity:1;fill:#e4372c;fill-opacity:1;stroke:#e4372c;stroke-width:0.38787916;stroke-linecap:round;stroke-linejoin:round;stroke-miterlimit:4;stroke-dasharray:none;stroke-opacity:1" />
              <path
                 style="opacity:1;fill:#a6aaad;fill-opacity:1;stroke:#a6aaad;stroke-width:0.38787916;stroke-linecap:round;stroke-linejoin:round;stroke-miterlimit:4;stroke-dasharray:none;stroke-opacity:1"
                 d="m 49.032371,256.41268 c 3.701682,0 6.681763,-2.98008 6.681763,-6.68176 v -1.66812 c 0,-2.93698 -1.876025,-5.4201 -4.499985,-6.32054 l -1.724441,1.61902 c 2.14511,0.65076 4.349089,2.54332 4.349089,4.7904 v 1.25677 c 0,2.78846 -2.290236,5.03329 -5.13457,5.03329 H 37.68681 l -2.070674,1.94407 c 0.199133,0.0177 0.401243,0.0269 0.605131,0.0269 z"
                 id="path1021"
                 inkscape:connector-curvature="0" />
            </g>
            <g
               id="g1046"
               transform="translate(-28.186098,-2.6369855)">
              <path
                 inkscape:connector-curvature="0"
                 id="path1039"
                 d="m 40.909013,241.47476 c -1.712029,0 -3.09025,1.37822 -3.09025,3.09025 v 0.2005 c 0,1.71202 1.378221,3.09025 3.09025,3.09025 h 1.106393 l 2.024682,-1.85415 h -2.690275 c -0.780833,0 -1.409733,-0.58447 -1.409733,-1.31051 v -0.0848 c 0,-0.72604 0.6289,-1.31052 1.409733,-1.31052 h 5.645134 l 1.954919,-1.79007 c -0.143772,-0.0203 -0.290722,-0.031 -0.440283,-0.031 z"
                 style="opacity:1;fill:#e23c33;fill-opacity:1;stroke:#e23c33;stroke-width:0.42648417;stroke-linecap:round;stroke-linejoin:round;stroke-miterlimit:4;stroke-dasharray:none;stroke-opacity:1" />
              <path
                 style="opacity:1;fill:#a3a7aa;fill-opacity:1;stroke:#a3a7aa;stroke-width:0.42648417;stroke-linecap:round;stroke-linejoin:round;stroke-miterlimit:4;stroke-dasharray:none;stroke-opacity:1"
                 d="m 47.830703,252.16543 c 1.712029,0 3.09025,-1.37822 3.09025,-3.09025 v -0.2005 c 0,-1.71202 -1.378221,-3.09025 -3.09025,-3.09025 H 46.72431 l -2.024682,1.85415 h 2.690275 c 0.780833,0 1.409733,0.58447 1.409733,1.31051 v 0.0848 c 0,0.72604 -0.6289,1.31052 -1.409733,1.31052 h -5.645134 l -1.954919,1.79007 c 0.143772,0.0203 0.290722,0.031 0.440283,0.031 z"
                 id="path1042"
                 inkscape:connector-curvature="0" />
            </g>
          </g>
          <g
             id="g1266">
            <g
               id="g1148"
               style="fill:#ffffff;stroke:none"
               transform="translate(54.485434,-12.945685)">
              <g
                 id="g1171"
                 transform="translate(-66.817382,9.8889726)">
                <rect
                   ry="0.18898809"
                   y="269.43454"
                   x="-66.274605"
                   height="8.4572172"
                   width="42.286087"
                   id="rect1056"
                   style="opacity:1;fill:#e33b37;fill-opacity:1;stroke:none;stroke-width:0.38787916;stroke-linecap:round;stroke-linejoin:round;stroke-miterlimit:4;stroke-dasharray:none;stroke-opacity:1" />
                <g
                   transform="translate(42.293371,-15.349103)"
                   id="g1158">
                  <path
                     sodipodi:nodetypes="ccccccccccccc"
                     inkscape:connector-curvature="0"
                     id="path1081"
                     d="m -107.41729,291.68802 1.32799,-1.07743 h 2.60588 c 0.14702,-0.0849 0.13523,-0.31447 0,-0.39255 h -2.46389 c -1.29576,-0.52651 -1.27735,-2.03063 0,-2.69775 h 4.35148 l -1.08578,1.1693 h -2.93997 c -0.17696,0.1682 -0.1215,0.30197 0,0.42596 h 2.64764 c 1.36229,0.63198 0.94033,2.21611 0,2.6727 z"
                     style="fill:#ffffff;stroke:none;stroke-width:0.02645833;stroke-linecap:butt;stroke-linejoin:miter;stroke-miterlimit:4;stroke-dasharray:none;stroke-opacity:1" />
                  <path
                     sodipodi:nodetypes="ccccccccc"
                     inkscape:connector-curvature="0"
                     id="path1083"
                     d="m -100.56444,287.01001 -1.12211,1.37016 v 2.39779 c 1.29044,1.07159 2.95422,1.79375 4.606583,0 v -3.24823 h -0.850445 v 2.7167 c -0.738488,0.6319 -1.558636,0.87182 -2.610398,0 z"
                     style="fill:#ffffff;stroke:none;stroke-width:0.02645833;stroke-linecap:butt;stroke-linejoin:miter;stroke-miterlimit:4;stroke-dasharray:none;stroke-opacity:1" />
                  <path
                     inkscape:connector-curvature="0"
                     id="path1085"
                     transform="matrix(0.26458333,0,0,0.26458333,0,228.20834)"
                     d="m -364.99609,224.47461 v 12.85742 l 4.73242,4.375 v -7.09765 h 9.73047 c 4.12702,-1.62584 5.51126,-8.06053 0,-10.13477 z m 5.31836,4.14844 h 8.05078 c 0.34976,0 0.63086,0.28109 0.63086,0.63086 v 0.0937 c 0,0.34976 -0.2811,0.63086 -0.63086,0.63086 h -8.05078 c -0.34977,0 -0.63086,-0.2811 -0.63086,-0.63086 v -0.0937 c 0,-0.34977 0.28109,-0.63086 0.63086,-0.63086 z"
                     style="fill:#ffffff;stroke:none;stroke-width:0.09999999;stroke-linecap:butt;stroke-linejoin:miter;stroke-miterlimit:4;stroke-dasharray:none;stroke-opacity:1" />
                  <path
                     inkscape:connector-curvature="0"
                     id="path1089"
                     d="m -91.3867,287.5061 v 4.2168 h 4.866444 v -1.01581 h -3.567152 v -0.50791 h 2.8112 v -1.03943 h -2.763951 v -0.50791 h 2.870256 l 0.956751,-1.1103 z"
                     style="fill:#ffffff;stroke:none;stroke-width:0.02645833;stroke-linecap:butt;stroke-linejoin:miter;stroke-miterlimit:4;stroke-dasharray:none;stroke-opacity:1" />
                  <path
                     inkscape:connector-curvature="0"
                     id="path1091"
                     transform="matrix(0.26458333,0,0,0.26458333,0,228.20834)"
                     d="m -325.17383,224.17188 v 13.25781 l 3.25,3.5664 v -10.38671 h 0.78906 l 10.03907,9.34374 5.71484,-0.0293 -5.46289,-5.49414 c 5.35047,-3.75028 3.0906,-9.4397 -0.82031,-10.25781 z m 4.45117,4.45117 h 8.04883 c 0.34977,0 0.63086,0.28109 0.63086,0.63086 v 0.0937 c 0,0.34976 -0.28109,0.63086 -0.63086,0.63086 h -8.04883 c -0.34976,0 -0.63281,-0.2811 -0.63281,-0.63086 v -0.0937 c 0,-0.34977 0.28305,-0.63086 0.63281,-0.63086 z"
                     style="fill:#ffffff;stroke:none;stroke-width:0.09999999;stroke-linecap:butt;stroke-linejoin:miter;stroke-miterlimit:4;stroke-dasharray:none;stroke-opacity:1" />
                  <path
                     id="path1095"
                     d="m -79.409357,285.78181 a 0.64964656,0.64964656 0 0 0 -0.650092,0.64957 0.64964656,0.64964656 0 0 0 0.650092,0.64957 0.64964656,0.64964656 0 0 0 0.649571,-0.64957 0.64964656,0.64964656 0 0 0 -0.649571,-0.64957 z m -0.874366,1.65365 v 0.72036 h 0.484209 v 3.02359 h -0.484209 v 0.83871 h 2.291332 v -0.83871 h -0.791165 v -3.74395 z"
                     style="opacity:1;fill:#ffffff;fill-opacity:1;stroke:none;stroke-width:0.02645833;stroke-linecap:round;stroke-linejoin:round;stroke-miterlimit:4;stroke-dasharray:none;stroke-opacity:1"
                     inkscape:connector-curvature="0" />
                  <path
                     id="path1104"
                     d="m -75.688654,287.50625 a 2.3741629,2.1143043 0 0 0 -2.374532,2.11408 2.3741629,2.1143043 0 0 0 2.374532,2.1146 2.3741629,2.1143043 0 0 0 2.374014,-2.1146 2.3741629,2.1143043 0 0 0 -2.374014,-2.11408 z m 0,1.14205 a 1.1712172,0.97217689 0 0 1 1.170988,0.97203 1.1712172,0.97217689 0 0 1 -1.170988,0.97204 1.1712172,0.97217689 0 0 1 -1.171506,-0.97204 1.1712172,0.97217689 0 0 1 1.171506,-0.97203 z"
                     style="opacity:1;fill:#ffffff;fill-opacity:1;stroke:none;stroke-width:0.02496841;stroke-linecap:round;stroke-linejoin:round;stroke-miterlimit:4;stroke-dasharray:none;stroke-opacity:1"
                     inkscape:connector-curvature="0" />
                  <path
                     inkscape:connector-curvature="0"
                     id="path1109"
                     transform="matrix(0.26458333,0,0,0.26458333,0,228.20834)"
                     d="m -275.39844,224.16211 v 13.25977 l 4.77735,4.59765 v -11.29492 l 9.50781,8.70508 h 6.25 l -5.9375,-5.3125 c 3.50197,-0.84896 6.56183,-7.13608 -0.35742,-9.95508 z m 5.56055,4.46094 h 8.05078 c 0.34977,0 0.63086,0.28109 0.63086,0.63086 v 0.0937 c 0,0.34976 -0.28109,0.63086 -0.63086,0.63086 h -8.05078 c -0.34977,0 -0.63086,-0.2811 -0.63086,-0.63086 v -0.0937 c 0,-0.34977 0.28109,-0.63086 0.63086,-0.63086 z"
                     style="fill:#ffffff;stroke:none;stroke-width:0.09999999;stroke-linecap:butt;stroke-linejoin:miter;stroke-miterlimit:4;stroke-dasharray:none;stroke-opacity:1" />
                </g>
              </g>
            </g>
            <g
               id="g1240">
              <g
                 transform="translate(0.14942217)"
                 style="fill:#4d4d4d;stroke:#4d4d4d"
                 id="g1225">
                <text
                   xml:space="preserve"
                   style="font-style:normal;font-weight:normal;font-size:3.53812003px;line-height:1.25;font-family:sans-serif;letter-spacing:0px;word-spacing:0px;fill:#4d4d4d;fill-opacity:1;stroke:#4d4d4d;stroke-width:0.088453"
                   x="-79.842667"
                   y="275.82666"
                   id="text1175"
                   transform="scale(0.98725065,1.012914)"><tspan
                     sodipodi:role="line"
                     id="tspan1173"
                     x="-79.842667"
                     y="275.82666"
                     style="font-style:normal;font-variant:normal;font-weight:bold;font-stretch:normal;font-family:sans-serif;-inkscape-font-specification:'sans-serif Bold';fill:#4d4d4d;stroke:#4d4d4d;stroke-width:0.088453">D</tspan></text>
                <rect
                   style="opacity:1;fill:#4d4d4d;fill-opacity:1;stroke:#4d4d4d;stroke-width:0.02645833;stroke-linecap:round;stroke-linejoin:round;stroke-miterlimit:4;stroke-dasharray:none;stroke-opacity:1"
                   id="rect1177"
                   width="0.64964658"
                   height="2.6222098"
                   x="-71.200371"
                   y="276.77127" />
                <path
                   style="fill:#4d4d4d;fill-opacity:1;stroke:#4d4d4d;stroke-width:0.02645833;stroke-linecap:butt;stroke-linejoin:miter;stroke-miterlimit:4;stroke-dasharray:none;stroke-opacity:1"
                   d="m -64.764108,277.45045 c 0,0 1.06957,0.0501 1.098492,0 0.02892,-0.0501 0,-0.6024 0,-0.6024 h -1.145738 c -1.03446,0 -1.147438,2.46865 0,2.46865 h 1.157552 v -1.15755 h -0.318918 v 0.48428 h -0.773671 c -0.429866,-0.12917 -0.460472,-1.00675 -0.01772,-1.19298 z"
                   id="path1192"
                   inkscape:connector-curvature="0"
                   sodipodi:nodetypes="cccsscccccc" />
                <rect
                   y="276.77127"
                   x="-58.732155"
                   height="2.6222098"
                   width="0.64964658"
                   id="rect1194"
                   style="opacity:1;fill:#4d4d4d;fill-opacity:1;stroke:#4d4d4d;stroke-width:0.02645833;stroke-linecap:round;stroke-linejoin:round;stroke-miterlimit:4;stroke-dasharray:none;stroke-opacity:1" />
                <path
                   style="opacity:1;fill:#4d4d4d;fill-opacity:1;stroke:#4d4d4d;stroke-width:0.02645833;stroke-linecap:round;stroke-linejoin:round;stroke-miterlimit:4;stroke-dasharray:none;stroke-opacity:1"
                   d="m -38.621936,276.77135 v 1.97249 0.64957 h 0.649573 1.281575 v -0.64957 h -1.281575 v -1.97249 z"
                   id="rect1198"
                   inkscape:connector-curvature="0" />
                <path
                   style="opacity:1;fill:#4d4d4d;fill-opacity:1;stroke:#4d4d4d;stroke-width:0.02581854;stroke-linecap:round;stroke-linejoin:round;stroke-miterlimit:4;stroke-dasharray:none;stroke-opacity:1"
                   d="m -53.17513,276.82793 v 0.64958 h 0.622699 v 1.85931 h 0.649574 v -1.85931 h 0.623218 v -0.64958 z"
                   id="rect1196"
                   inkscape:connector-curvature="0" />
                <text
                   xml:space="preserve"
                   style="font-style:normal;font-weight:normal;font-size:3.72034812px;line-height:1.25;font-family:sans-serif;letter-spacing:0px;word-spacing:0px;fill:#4d4d4d;fill-opacity:1;stroke:#4d4d4d;stroke-width:0.0930087"
                   x="-46.390423"
                   y="279.43845"
                   id="text1214"><tspan
                     sodipodi:role="line"
                     id="tspan1212"
                     x="-46.390423"
                     y="279.43845"
                     style="font-style:normal;font-variant:normal;font-weight:bold;font-stretch:normal;font-family:sans-serif;-inkscape-font-specification:'sans-serif Bold';fill:#4d4d4d;stroke:#4d4d4d;stroke-width:0.0930087">A</tspan></text>
              </g>
              <path
                 inkscape:connector-curvature="0"
                 id="path1227"
                 d="m -78.54569,280.42617 h 42.164362"
                 style="fill:#4d4d4d;fill-opacity:1;stroke:#4d4d4d;stroke-width:0.26458332;stroke-linecap:round;stroke-linejoin:miter;stroke-miterlimit:4;stroke-dasharray:none;stroke-opacity:1" />
            </g>
          </g>
        </g>
        <g
           id="g960">
          <rect
             y="276.43808"
             x="0.77888048"
             height="16.404167"
             width="317.5"
             id="rect826"
             style="opacity:1;fill:url(#linearGradient834);fill-opacity:1;stroke:none;stroke-width:0.47014889;stroke-miterlimit:4;stroke-dasharray:none;stroke-opacity:1" />
          <text
             id="text838"
             y="288.08957"
             x="143.3405"
             style="font-style:normal;font-weight:normal;font-size:10.58333302px;line-height:1.25;font-family:sans-serif;letter-spacing:0px;word-spacing:0px;fill:#000000;fill-opacity:1;stroke:none;stroke-width:0.26458332"
             xml:space="preserve"><tspan
               style="font-style:normal;font-variant:normal;font-weight:bold;font-stretch:normal;font-family:Calibri;-inkscape-font-specification:'Calibri Bold';stroke-width:0.26458332"
               y="288.08957"
               x="143.3405"
               id="tspan836"
               sodipodi:role="line">Invoice</tspan></text>
          <text
             id="text871"
             y="242.72632"
             x="79.181732"
             style="font-style:normal;font-weight:normal;font-size:10.58333302px;line-height:1.25;font-family:sans-serif;letter-spacing:0px;word-spacing:0px;fill:#000000;fill-opacity:1;stroke:none;stroke-width:0.26458332"
             xml:space="preserve"><tspan
               style="font-style:normal;font-variant:normal;font-weight:bold;font-stretch:normal;font-family:Calibri;-inkscape-font-specification:'Calibri Bold';stroke-width:0.26458332"
               y="242.72632"
               x="79.181732"
               id="tspan869"
               sodipodi:role="line">Superior Digital Pvt.  Ltd</tspan></text>
          <text
             xml:space="preserve"
             style="font-style:normal;font-weight:normal;font-size:10.58333302px;line-height:1.25;font-family:sans-serif;letter-spacing:0px;word-spacing:0px;fill:#000000;fill-opacity:1;stroke:none;stroke-width:0.26458332"
             x="79.181732"
             y="250.1441"
             id="text879"><tspan
               sodipodi:role="line"
               id="tspan877"
               x="79.181732"
               y="250.1441"
               style="font-style:normal;font-variant:normal;font-weight:normal;font-stretch:normal;font-size:4.93888903px;font-family:Calibri;-inkscape-font-specification:Calibri;stroke-width:0.26458332">#111,6th Main Road</tspan></text>
          <text
             id="text883"
             y="255.43578"
             x="79.181732"
             style="font-style:normal;font-weight:normal;font-size:10.58333302px;line-height:1.25;font-family:sans-serif;letter-spacing:0px;word-spacing:0px;fill:#000000;fill-opacity:1;stroke:none;stroke-width:0.26458332"
             xml:space="preserve"><tspan
               style="font-style:normal;font-variant:normal;font-weight:normal;font-stretch:normal;font-size:4.93888903px;font-family:Calibri;-inkscape-font-specification:Calibri;stroke-width:0.26458332"
               y="255.43578"
               x="79.181732"
               id="tspan881"
               sodipodi:role="line">MRCR Layout, Vijayanagar</tspan></text>
          <text
             xml:space="preserve"
             style="font-style:normal;font-weight:normal;font-size:10.58333302px;line-height:1.25;font-family:sans-serif;letter-spacing:0px;word-spacing:0px;fill:#000000;fill-opacity:1;stroke:none;stroke-width:0.26458332"
             x="79.181732"
             y="260.72745"
             id="text887"><tspan
               sodipodi:role="line"
               id="tspan885"
               x="79.181732"
               y="260.72745"
               style="font-style:normal;font-variant:normal;font-weight:normal;font-stretch:normal;font-size:4.93888903px;font-family:Calibri;-inkscape-font-specification:Calibri;stroke-width:0.26458332">Bangalore - 560040</tspan></text>
          <text
             id="text891"
             y="266.0191"
             x="79.181732"
             style="font-style:normal;font-weight:normal;font-size:10.58333302px;line-height:1.25;font-family:sans-serif;letter-spacing:0px;word-spacing:0px;fill:#000000;fill-opacity:1;stroke:none;stroke-width:0.26458332"
             xml:space="preserve"><tspan
               style="font-style:normal;font-variant:normal;font-weight:normal;font-stretch:normal;font-size:4.93888903px;font-family:Calibri;-inkscape-font-specification:Calibri;stroke-width:0.26458332"
               y="266.0191"
               x="79.181732"
               id="tspan889"
               sodipodi:role="line"><tspan
   id="tspan893"
   style="font-style:normal;font-variant:normal;font-weight:bold;font-stretch:normal;font-family:Calibri;-inkscape-font-specification:'Calibri Bold'">Tel:</tspan> 080-23116047</tspan></text>
          <text
             xml:space="preserve"
             style="font-style:normal;font-weight:normal;font-size:10.58333302px;line-height:1.25;font-family:sans-serif;letter-spacing:0px;word-spacing:0px;fill:#000000;fill-opacity:1;stroke:none;stroke-width:0.26458332"
             x="79.181732"
             y="271.0304"
             id="text899"><tspan
               sodipodi:role="line"
               id="tspan897"
               x="79.181732"
               y="271.0304"
               style="font-style:normal;font-variant:normal;font-weight:normal;font-stretch:normal;font-size:4.93888903px;font-family:Calibri;-inkscape-font-specification:Calibri;stroke-width:0.26458332"><tspan
   style="font-style:normal;font-variant:normal;font-weight:bold;font-stretch:normal;font-family:Calibri;-inkscape-font-specification:'Calibri Bold'"
   id="tspan895">e-mail:</tspan> sachin@superiorsvstems.in</tspan></text>
          <text
             xml:space="preserve"
             style="font-style:normal;font-weight:normal;font-size:10.58333302px;line-height:1.25;font-family:sans-serif;letter-spacing:0px;word-spacing:0px;fill:#000000;fill-opacity:1;stroke:none;stroke-width:0.26458332"
             x="152.41359"
             y="255.43578"
             id="text903"><tspan
               sodipodi:role="line"
               id="tspan901"
               x="152.41359"
               y="255.43578"
               style="font-style:normal;font-variant:normal;font-weight:normal;font-stretch:normal;font-size:4.93888903px;font-family:Calibri;-inkscape-font-specification:Calibri;stroke-width:0.26458332"><tspan
   id="tspan915"
   style="font-style:normal;font-variant:normal;font-weight:bold;font-stretch:normal;font-family:Calibri;-inkscape-font-specification:'Calibri Bold'">GSTIN/UIN:</tspan> 29AAYCS0407L1ZQ</tspan></text>
          <text
             id="text907"
             y="260.72745"
             x="152.41359"
             style="font-style:normal;font-weight:normal;font-size:10.58333302px;line-height:1.25;font-family:sans-serif;letter-spacing:0px;word-spacing:0px;fill:#000000;fill-opacity:1;stroke:none;stroke-width:0.26458332"
             xml:space="preserve"><tspan
               style="font-style:normal;font-variant:normal;font-weight:normal;font-stretch:normal;font-size:4.93888903px;font-family:Calibri;-inkscape-font-specification:Calibri;stroke-width:0.26458332"
               y="260.72745"
               x="152.41359"
               id="tspan905"
               sodipodi:role="line"><tspan
   id="tspan919"
   style="font-style:normal;font-variant:normal;font-weight:bold;font-stretch:normal;font-family:Calibri;-inkscape-font-specification:'Calibri Bold'">State Name:</tspan> Karnataka, <tspan
   id="tspan917"
   style="font-style:normal;font-variant:normal;font-weight:bold;font-stretch:normal;font-family:Calibri;-inkscape-font-specification:'Calibri Bold'">Code:</tspan> 29</tspan></text>
          <text
             xml:space="preserve"
             style="font-style:normal;font-weight:normal;font-size:10.58333302px;line-height:1.25;font-family:sans-serif;letter-spacing:0px;word-spacing:0px;fill:#000000;fill-opacity:1;stroke:none;stroke-width:0.26458332"
             x="152.41359"
             y="266.0191"
             id="text913"><tspan
               sodipodi:role="line"
               id="tspan911"
               x="152.41359"
               y="266.0191"
               style="font-style:normal;font-variant:normal;font-weight:normal;font-stretch:normal;font-size:4.93888903px;font-family:Calibri;-inkscape-font-specification:Calibri;stroke-width:0.26458332"><tspan
   style="font-style:normal;font-variant:normal;font-weight:bold;font-stretch:normal;font-family:Calibri;-inkscape-font-specification:'Calibri Bold'"
   id="tspan909">Company's PAN:</tspan> AAYCS0407L</tspan></text>
          <path
             style="stroke-width:0.01413379"
             d="m 256.72615,268.69055 c -0.25377,0.58623 -0.55413,1.12586 -0.90214,1.62198 -0.47437,0.67634 -0.86278,1.1445 -1.1621,1.40446 -0.46402,0.42673 -0.96119,0.64527 -1.49356,0.65771 -0.38219,0 -0.84309,-0.10878 -1.37961,-0.32936 -0.53827,-0.21958 -1.03294,-0.32835 -1.48526,-0.32835 -0.47437,0 -0.98313,0.10878 -1.52731,0.32835 -0.54502,0.22059 -0.98407,0.33557 -1.31974,0.34697 -0.51053,0.0218 -1.01939,-0.203 -1.52731,-0.67532 -0.32419,-0.28276 -0.72969,-0.76748 -1.21547,-1.45418 -0.52117,-0.73331 -0.94965,-1.58366 -1.28536,-2.55311 -0.3595,-1.04715 -0.53972,-2.06114 -0.53972,-3.04282 0,-1.12451 0.24299,-2.09438 0.72968,-2.90714 0.38251,-0.65283 0.89137,-1.1678 1.52825,-1.54585 0.63687,-0.37803 1.32503,-0.5707 2.06611,-0.58301 0.4055,0 0.93726,0.12535 1.59806,0.37193 0.65893,0.24734 1.08204,0.37277 1.26755,0.37277 0.13861,0 0.6087,-0.14667 1.4055,-0.43906 0.75351,-0.27116 1.38945,-0.38343 1.91043,-0.3392 1.41173,0.11398 2.47233,0.67043 3.17767,1.67304 -1.26257,0.76501 -1.88713,1.83648 -1.8747,3.21101 0.011,1.07066 0.39981,1.9616 1.16313,2.66903 0.34596,0.32832 0.73228,0.58208 1.16212,0.7623 -0.0931,0.27032 -0.19162,0.52926 -0.29622,0.77785 z m -3.23774,-12.74071 c 0,0.83917 -0.30659,1.62269 -0.91768,2.34793 -0.73745,0.86216 -1.62944,1.36034 -2.59671,1.28174 -0.0126,-0.10073 -0.0194,-0.20664 -0.0194,-0.31798 0,-0.8056 0.35069,-1.66776 0.9735,-2.3727 0.31093,-0.35691 0.70636,-0.65368 1.18592,-0.89042 0.47851,-0.23322 0.93114,-0.36219 1.35683,-0.38426 0.0126,0.11225 0.0177,0.22438 0.0177,0.33567 z"
             id="path4"
             inkscape:connector-curvature="0" />
          <text
             id="text1413"
             y="264.4205"
             x="258.85382"
             style="font-style:normal;font-weight:normal;font-size:10.58333302px;line-height:1.25;font-family:sans-serif;letter-spacing:0px;word-spacing:0px;fill:#000000;fill-opacity:1;stroke:none;stroke-width:0.26458332"
             xml:space="preserve"><tspan
               style="font-style:normal;font-variant:normal;font-weight:bold;font-stretch:normal;font-size:5.64444447px;font-family:sans-serif;-inkscape-font-specification:'sans-serif Bold';letter-spacing:0px;stroke-width:0.26458332"
               y="264.4205"
               x="258.85382"
               id="tspan1411"
               sodipodi:role="line">Authorised</tspan></text>
          <text
             xml:space="preserve"
             style="font-style:normal;font-weight:normal;font-size:10.58333302px;line-height:1.25;font-family:sans-serif;letter-spacing:0px;word-spacing:0px;fill:#000000;fill-opacity:1;stroke:none;stroke-width:0.26458332"
             x="258.85382"
             y="271.36951"
             id="text1417"><tspan
               sodipodi:role="line"
               id="tspan1415"
               x="258.85382"
               y="271.36951"
               style="font-style:normal;font-variant:normal;font-weight:bold;font-stretch:normal;font-size:5.64444447px;font-family:sans-serif;-inkscape-font-specification:'sans-serif Bold';letter-spacing:0px;stroke-width:0.26458332">Reseller</tspan></text>
        </g>
      </g>
    </g>
  </g>
</svg>
