<?xml version="1.0" encoding="UTF-8" standalone="no"?>
<!-- Generator: Adobe Illustrator 16.0.0, SVG Export Plug-In . SVG Version: 6.00 Build 0)  -->

<svg
   xmlns:dc="http://purl.org/dc/elements/1.1/"
   xmlns:cc="http://creativecommons.org/ns#"
   xmlns:rdf="http://www.w3.org/1999/02/22-rdf-syntax-ns#"
   xmlns:svg="http://www.w3.org/2000/svg"
   xmlns="http://www.w3.org/2000/svg"
   xmlns:sodipodi="http://sodipodi.sourceforge.net/DTD/sodipodi-0.dtd"
   xmlns:inkscape="http://www.inkscape.org/namespaces/inkscape"
   version="1.1"
   id="Layer_1"
   x="0px"
   y="0px"
   width="3000"
   height="1500"
   viewBox="0 0 3000 1500"
   enable-background="new 0 0 3000 3000"
   xml:space="preserve"
   inkscape:version="0.91 r13725"
   sodipodi:docname="uipath-logo.svg"><metadata
     id="metadata15"><rdf:RDF><cc:Work
         rdf:about=""><dc:format>image/svg+xml</dc:format><dc:type
           rdf:resource="http://purl.org/dc/dcmitype/StillImage" /><dc:title>UiPath_Logo_full</dc:title></cc:Work></rdf:RDF></metadata><defs
     id="defs13" /><sodipodi:namedview
     pagecolor="#ffffff"
     bordercolor="#666666"
     borderopacity="1"
     objecttolerance="10"
     gridtolerance="10"
     guidetolerance="10"
     inkscape:pageopacity="0"
     inkscape:pageshadow="2"
     inkscape:window-width="1920"
     inkscape:window-height="1053"
     id="namedview11"
     showgrid="false"
     inkscape:zoom="0.078666667"
     inkscape:cx="1500"
     inkscape:cy="1474.5763"
     inkscape:window-x="1600"
     inkscape:window-y="0"
     inkscape:window-maximized="1"
     inkscape:current-layer="Layer_1" /><title
     id="title3">UiPath_Logo_full</title><desc
     id="desc5">Created with Sketch.</desc><g
     id="Page-1"
     transform="translate(0,-750)"><g
       id="g8"><path
         id="UiPath_Logo_full_8_"
         d="m 169.921,1047.285 905.432,0 0,905.43 -905.432,0 0,-905.43 z m 811.267,811.266 0,-717.102 -717.102,0 0,717.102 717.102,0 0,0 z m -635.613,-577.666 0,273.441 c 0,124.949 68.813,199.195 184.708,199.195 119.517,0 188.329,-74.246 188.329,-199.195 l 0,-273.441 -94.164,0 0,273.441 c 0,70.623 -30.785,110.463 -92.354,110.463 -65.191,0 -94.165,-41.65 -94.165,-110.463 l 0,-273.441 -92.354,0 0,0 z m 494.365,56.137 c 32.596,0 57.948,-23.541 57.948,-56.137 0,-34.406 -23.541,-57.947 -57.948,-57.947 -32.596,0 -57.948,23.54 -57.948,57.947 0.001,32.596 25.353,56.137 57.948,56.137 z m -47.082,43.461 0,367.605 94.165,0 0,-367.605 -94.165,0 z m 561.37,217.304 c 101.408,0 168.409,-59.758 168.409,-159.356 0,-95.977 -65.19,-157.546 -168.409,-157.546 l -177.465,0 0,469.015 94.164,0 0,-150.303 83.301,0 0,-1.81 z m -10.866,-74.246 -74.246,0 0,-166.6 74.246,0 c 54.325,0 83.3,30.784 83.3,81.489 0,54.327 -28.975,85.111 -83.3,85.111 z m 210.059,41.65 c 0,110.463 70.624,188.33 170.222,188.33 59.759,0 97.788,-21.73 119.519,-56.137 l 0,52.516 94.164,0 0,-369.417 -94.164,0 0,57.948 c -23.542,-38.028 -61.571,-61.57 -119.519,-61.57 -101.408,10e-4 -170.222,79.679 -170.222,188.33 z m 289.739,0 c 0,63.381 -39.84,105.031 -97.788,105.031 -63.379,0 -95.975,-45.271 -95.975,-105.031 0,-65.191 36.217,-106.84 95.975,-106.84 59.76,0 97.788,43.46 97.788,106.84 z m 329.577,103.219 c -36.217,0 -45.271,-16.297 -45.271,-48.893 l 0,-159.356 81.488,0 0,-79.679 -81.488,0 0,-101.409 -94.165,0 0,101.409 -43.46,0 0,79.679 43.46,0 0,159.356 c 0,86.922 38.027,128.57 128.571,128.57 l 48.893,0 0,-79.678 -38.028,0 z m 182.897,-235.412 0,-173.842 -94.165,0 0,490.744 94.165,0 0,-195.574 c 0,-63.379 32.596,-101.409 88.732,-101.409 54.327,0 83.301,36.218 83.301,92.354 l 0,202.816 94.164,0 0,-211.871 c 0,-95.976 -68.813,-159.356 -155.733,-159.356 -54.327,0 -88.733,19.921 -110.464,56.138 z m 258.954,-175.654 0,14.487 30.785,0 0,94.165 18.107,0 0,-94.165 28.975,0 0,-14.487 -77.867,0 z m 195.574,0 -38.029,86.923 -36.216,-86.923 -21.73,0 0,108.653 16.297,0 0,-83.301 36.218,83.301 12.675,0 34.405,-83.301 0,83.301 16.298,0 0,-108.653 -19.918,0 0,0 z"
         inkscape:connector-curvature="0"
         style="fill:#ff3300" /></g></g></svg>