<?xml version="1.0" encoding="UTF-8" standalone="no"?>
<svg
   xmlns:dc="http://purl.org/dc/elements/1.1/"
   xmlns:cc="http://creativecommons.org/ns#"
   xmlns:rdf="http://www.w3.org/1999/02/22-rdf-syntax-ns#"
   xmlns:svg="http://www.w3.org/2000/svg"
   xmlns="http://www.w3.org/2000/svg"
   xmlns:xlink="http://www.w3.org/1999/xlink"
   xmlns:sodipodi="http://sodipodi.sourceforge.net/DTD/sodipodi-0.dtd"
   xmlns:inkscape="http://www.inkscape.org/namespaces/inkscape"
   id="svg8"
   version="1.1"
   viewBox="0 0 661.45837 132.29171"
   height="500"
   width="2500"
   sodipodi:docname="zigma.svg"
   inkscape:version="0.92.5 (2060ec1f9f, 2020-04-08)">
  <sodipodi:namedview
     pagecolor="#ffffff"
     bordercolor="#666666"
     borderopacity="1"
     objecttolerance="10"
     gridtolerance="10"
     guidetolerance="10"
     inkscape:pageopacity="0"
     inkscape:pageshadow="2"
     inkscape:window-width="1920"
     inkscape:window-height="1056"
     id="namedview83"
     showgrid="false"
     inkscape:zoom="0.25000001"
     inkscape:cx="1346.9218"
     inkscape:cy="884.46242"
     inkscape:window-x="0"
     inkscape:window-y="0"
     inkscape:window-maximized="1"
     inkscape:current-layer="g2248"
     showguides="true"
     inkscape:guide-bbox="true"
     inkscape:pagecheckerboard="true"
     inkscape:document-rotation="0" />
  <defs
     id="defs2">
    <linearGradient
       id="linearGradient851">
      <stop
         id="stop847"
         offset="0"
         style="stop-color:#ffffff;stop-opacity:1" />
      <stop
         style="stop-color:#999999;stop-opacity:1"
         offset="0.44523811"
         id="stop866" />
      <stop
         style="stop-color:#999999;stop-opacity:1"
         offset="0.55476195"
         id="stop864" />
      <stop
         id="stop849"
         offset="1"
         style="stop-color:#ffffff;stop-opacity:1" />
    </linearGradient>
    <linearGradient
       gradientUnits="userSpaceOnUse"
       y2="167.60172"
       x2="-5.7193484"
       y1="167.60172"
       x1="-290.71341"
       id="linearGradient853"
       xlink:href="#linearGradient851" />
  </defs>
  <metadata
     id="metadata5">
    <rdf:RDF>
      <cc:Work
         rdf:about="">
        <dc:format>image/svg+xml</dc:format>
        <dc:type
           rdf:resource="http://purl.org/dc/dcmitype/StillImage" />
        <dc:title></dc:title>
      </cc:Work>
    </rdf:RDF>
  </metadata>
  <g
     transform="translate(185.33586,-40.536722)"
     id="layer1">
    <g
       transform="translate(26.45834,-1.5853344)"
       id="g1272">
      <g
         id="g1670">
        <g
           transform="matrix(0.8979396,0,0,0.96545992,-53.922693,-0.85887985)"
           id="g862" />
        <g
           transform="matrix(3.0190816,0,0,3.0258444,703.14458,-357.87358)"
           id="g2248">
          <text
             id="text926"
             y="151.01982"
             x="-121.75313"
             style="font-style:normal;font-variant:normal;font-weight:normal;font-stretch:normal;font-size:10.58329964px;line-height:0%;font-family:Calibri;-inkscape-font-specification:Calibri;letter-spacing:0px;word-spacing:0px;fill:#000000;fill-opacity:1;stroke:none;stroke-width:0.26458299"
             xml:space="preserve"><tspan
               style="font-size:4.93888998px;stroke-width:0.26458299"
               y="160.28024"
               x="-121.75313"
               id="tspan924" /></text>
          <text
             xml:space="preserve"
             style="font-style:normal;font-variant:normal;font-weight:normal;font-stretch:normal;font-size:10.58329964px;line-height:0%;font-family:Calibri;-inkscape-font-specification:Calibri;letter-spacing:0px;word-spacing:0px;fill:#000000;fill-opacity:1;stroke:none;stroke-width:0.26458299"
             x="-121.75313"
             y="156.31149"
             id="text934"><tspan
               id="tspan932"
               x="-121.75313"
               y="165.57191"
               style="font-size:4.93888998px;stroke-width:0.26458299" /></text>
          <text
             id="text944"
             y="161.60316"
             x="-121.75313"
             style="font-style:normal;font-variant:normal;font-weight:normal;font-stretch:normal;font-size:10.58329964px;line-height:0%;font-family:Calibri;-inkscape-font-specification:Calibri;letter-spacing:0px;word-spacing:0px;fill:#000000;fill-opacity:1;stroke:none;stroke-width:0.26458299"
             xml:space="preserve"><tspan
               style="font-size:4.93888998px;stroke-width:0.26458299"
               y="170.86359"
               x="-121.75313"
               id="tspan942" /></text>
          <path
             id="path1036"
             style="font-style:normal;font-variant:normal;font-weight:bold;font-stretch:normal;font-size:10.58329964px;line-height:1.25;font-family:Calibri;-inkscape-font-specification:'Calibri Bold';letter-spacing:0px;word-spacing:0px;fill:#000000;fill-opacity:1;stroke:none;stroke-width:0.26458299"
             d="m -165.22345,152.7126 q 0,0.0699 -0.007,0.12058 -0.005,0.0506 -0.0169,0.082 -0.01,0.0289 -0.0265,0.041 -0.0145,0.0121 -0.0362,0.0121 -0.0313,0 -0.10128,-0.0434 -0.0699,-0.0434 -0.18569,-0.0941 -0.11576,-0.0506 -0.27733,-0.094 -0.15917,-0.0434 -0.37139,-0.0434 -0.22668,0 -0.40997,0.0796 -0.18327,0.0772 -0.31351,0.22187 -0.13022,0.14228 -0.20016,0.34485 -0.0699,0.20016 -0.0699,0.44373 0,0.26768 0.0699,0.47267 0.0724,0.20257 0.20016,0.34003 0.12783,0.13746 0.30628,0.20739 0.18086,0.0699 0.3979,0.0699 0.10611,0 0.20982,-0.0241 0.1037,-0.0241 0.19291,-0.0724 v -0.72347 h -0.59083 q -0.0434,0 -0.0675,-0.0531 -0.0241,-0.0555 -0.0241,-0.18569 0,-0.0675 0.005,-0.11334 0.007,-0.0458 0.0193,-0.0724 0.0121,-0.0289 0.0289,-0.041 0.0169,-0.0145 0.0386,-0.0145 h 1.05385 q 0.0386,0 0.0675,0.0145 0.0314,0.0121 0.053,0.0386 0.0241,0.0265 0.0362,0.0651 0.0121,0.0362 0.0121,0.0844 v 1.24196 q 0,0.0724 -0.0265,0.12781 -0.0241,0.0531 -0.1037,0.0844 -0.0772,0.0314 -0.19293,0.0651 -0.11575,0.0338 -0.24115,0.0579 -0.12299,0.0241 -0.2508,0.0362 -0.12541,0.0121 -0.25322,0.0121 -0.37379,0 -0.67042,-0.10611 -0.29421,-0.10852 -0.49919,-0.31109 -0.20498,-0.20498 -0.3135,-0.49678 -0.10852,-0.29421 -0.10852,-0.6656 0,-0.38343 0.11575,-0.68729 0.11576,-0.30627 0.32797,-0.51849 0.21222,-0.21463 0.51126,-0.32797 0.30144,-0.11335 0.67041,-0.11335 0.20257,0 0.36897,0.0289 0.1664,0.0265 0.28939,0.0675 0.1254,0.0386 0.20739,0.0844 0.082,0.0458 0.11335,0.0796 0.0338,0.0338 0.0482,0.0965 0.0145,0.0603 0.0145,0.18086 z"
             inkscape:connector-curvature="0" />
          <path
             id="path1038"
             style="font-style:normal;font-variant:normal;font-weight:bold;font-stretch:normal;font-size:10.58329964px;line-height:1.25;font-family:Calibri;-inkscape-font-specification:'Calibri Bold';letter-spacing:0px;word-spacing:0px;fill:#000000;fill-opacity:1;stroke:none;stroke-width:0.26458299"
             d="m -162.73231,154.41276 q 0,0.24598 -0.0916,0.43167 -0.0916,0.18569 -0.24839,0.31109 -0.15675,0.12299 -0.36656,0.18569 -0.2098,0.0627 -0.44855,0.0627 -0.16158,0 -0.30145,-0.0265 -0.13745,-0.0265 -0.24356,-0.0627 -0.10611,-0.0386 -0.17846,-0.0796 -0.0699,-0.041 -0.10129,-0.0723 -0.0314,-0.0314 -0.0458,-0.0892 -0.012,-0.0603 -0.012,-0.17122 0,-0.0748 0.005,-0.12541 0.005,-0.0506 0.0145,-0.082 0.0121,-0.0314 0.0289,-0.0434 0.0193,-0.0145 0.0434,-0.0145 0.0338,0 0.0941,0.041 0.0627,0.0386 0.15916,0.0868 0.0965,0.0482 0.2291,0.0892 0.13505,0.0386 0.31109,0.0386 0.11576,0 0.2074,-0.0265 0.0916,-0.0289 0.15434,-0.0796 0.0651,-0.0506 0.0989,-0.1254 0.0338,-0.0748 0.0338,-0.1664 0,-0.10611 -0.0579,-0.18087 -0.0579,-0.0772 -0.15193,-0.13504 -0.0916,-0.0603 -0.20981,-0.11094 -0.11817,-0.053 -0.24357,-0.11093 -0.1254,-0.0579 -0.24357,-0.13022 -0.11816,-0.0748 -0.21221,-0.17605 -0.0916,-0.10369 -0.14952,-0.24357 -0.0579,-0.13987 -0.0579,-0.3352 0,-0.22428 0.082,-0.39309 0.0844,-0.17122 0.22428,-0.28215 0.14228,-0.11335 0.3328,-0.16881 0.19292,-0.0555 0.40755,-0.0555 0.11093,0 0.22187,0.0169 0.11093,0.0169 0.20739,0.0458 0.0965,0.0289 0.17122,0.0651 0.0748,0.0362 0.0989,0.0603 0.0241,0.0241 0.0314,0.041 0.01,0.0169 0.0145,0.0458 0.007,0.0265 0.01,0.0699 0.002,0.041 0.002,0.10369 0,0.0699 -0.005,0.11817 -0.002,0.0482 -0.0121,0.0796 -0.007,0.0314 -0.0241,0.0458 -0.0145,0.0145 -0.041,0.0145 -0.0265,0 -0.0844,-0.0338 -0.0579,-0.0338 -0.14229,-0.0724 -0.0844,-0.041 -0.19533,-0.0723 -0.11094,-0.0338 -0.24357,-0.0338 -0.1037,0 -0.18087,0.0265 -0.0772,0.0241 -0.13022,0.0699 -0.0506,0.0434 -0.0772,0.10611 -0.0241,0.0627 -0.0241,0.13263 0,0.1037 0.0555,0.18087 0.0579,0.0748 0.15192,0.13505 0.0965,0.0579 0.21705,0.11093 0.12057,0.0506 0.24598,0.10852 0.1254,0.0579 0.24598,0.13264 0.12057,0.0723 0.21462,0.17604 0.0941,0.10129 0.15193,0.24116 0.0579,0.13746 0.0579,0.32556 z"
             inkscape:connector-curvature="0" />
          <path
             id="path1040"
             style="font-style:normal;font-variant:normal;font-weight:bold;font-stretch:normal;font-size:10.58329964px;line-height:1.25;font-family:Calibri;-inkscape-font-specification:'Calibri Bold';letter-spacing:0px;word-spacing:0px;fill:#000000;fill-opacity:1;stroke:none;stroke-width:0.26458299"
             d="m -160.21946,152.48833 q 0,0.0699 -0.007,0.12058 -0.005,0.0482 -0.0169,0.0796 -0.0121,0.0289 -0.0314,0.0434 -0.0169,0.0145 -0.0386,0.0145 h -0.78135 v 2.51526 q 0,0.0241 -0.0169,0.0434 -0.0145,0.0193 -0.0506,0.0314 -0.0362,0.0121 -0.0989,0.0193 -0.0603,0.007 -0.15193,0.007 -0.0916,0 -0.15434,-0.007 -0.0603,-0.007 -0.0965,-0.0193 -0.0362,-0.0121 -0.0531,-0.0314 -0.0145,-0.0193 -0.0145,-0.0434 v -2.51526 h -0.78135 q -0.0241,0 -0.041,-0.0145 -0.0169,-0.0145 -0.0289,-0.0434 -0.0121,-0.0314 -0.0193,-0.0796 -0.005,-0.0506 -0.005,-0.12058 0,-0.0724 0.005,-0.12299 0.007,-0.0506 0.0193,-0.0796 0.0121,-0.0314 0.0289,-0.0434 0.0169,-0.0145 0.041,-0.0145 h 2.19935 q 0.0217,0 0.0386,0.0145 0.0193,0.0121 0.0314,0.0434 0.0121,0.0289 0.0169,0.0796 0.007,0.0506 0.007,0.12299 z"
             inkscape:connector-curvature="0" />
          <path
             id="path1043"
             style="font-style:normal;font-variant:normal;font-weight:bold;font-stretch:normal;font-size:10.58329964px;line-height:1.25;font-family:Calibri;-inkscape-font-specification:'Calibri Bold';letter-spacing:0px;word-spacing:0px;fill:#000000;fill-opacity:1;stroke:none;stroke-width:0.26458299"
             d="m -159.20901,155.26163 q 0,0.0241 -0.0169,0.0434 -0.0145,0.0193 -0.0506,0.0314 -0.0362,0.0121 -0.0965,0.0193 -0.0603,0.007 -0.15434,0.007 -0.0916,0 -0.15434,-0.007 -0.0603,-0.007 -0.0965,-0.0193 -0.0362,-0.0121 -0.0531,-0.0314 -0.0145,-0.0193 -0.0145,-0.0434 v -2.94693 q 0,-0.0241 0.0145,-0.0434 0.0169,-0.0193 0.0531,-0.0314 0.0386,-0.0121 0.0989,-0.0193 0.0603,-0.007 0.15193,-0.007 0.094,0 0.15434,0.007 0.0603,0.007 0.0965,0.0193 0.0362,0.012 0.0506,0.0314 0.0169,0.0193 0.0169,0.0434 z"
             inkscape:connector-curvature="0" />
          <path
             id="path1045"
             style="font-style:normal;font-variant:normal;font-weight:bold;font-stretch:normal;font-size:10.58329964px;line-height:1.25;font-family:Calibri;-inkscape-font-specification:'Calibri Bold';letter-spacing:0px;word-spacing:0px;fill:#000000;fill-opacity:1;stroke:none;stroke-width:0.26458299"
             d="m -155.95098,155.12658 q 0,0.0555 -0.0193,0.0989 -0.0193,0.0434 -0.053,0.0723 -0.0314,0.0289 -0.0772,0.0434 -0.0434,0.0121 -0.0892,0.0121 h -0.27011 q -0.0844,0 -0.14709,-0.0169 -0.0603,-0.0169 -0.11335,-0.0603 -0.0506,-0.0458 -0.0989,-0.12058 -0.0482,-0.0772 -0.10852,-0.19775 l -0.77653,-1.459 q -0.0675,-0.13022 -0.13746,-0.27974 -0.0699,-0.15193 -0.12541,-0.29421 h -0.005 q 0.01,0.17363 0.0145,0.34727 0.005,0.17122 0.005,0.3545 v 1.63263 q 0,0.0241 -0.0145,0.0434 -0.0121,0.0193 -0.0458,0.0338 -0.0314,0.0121 -0.0868,0.0193 -0.0555,0.007 -0.14229,0.007 -0.0844,0 -0.13987,-0.007 -0.0555,-0.007 -0.0868,-0.0193 -0.0314,-0.0145 -0.0434,-0.0338 -0.0121,-0.0193 -0.0121,-0.0434 v -2.80465 q 0,-0.11335 0.0651,-0.16881 0.0675,-0.0579 0.16399,-0.0579 h 0.34003 q 0.0916,0 0.15434,0.0169 0.0627,0.0145 0.11093,0.0506 0.0506,0.0362 0.0941,0.10129 0.0434,0.0627 0.0892,0.15675 l 0.60772,1.14067 q 0.0531,0.1037 0.10369,0.20498 0.0531,0.0989 0.10129,0.20016 0.0482,0.0989 0.0941,0.19534 0.0458,0.0965 0.0892,0.19293 h 0.002 q -0.007,-0.16881 -0.0121,-0.35209 -0.002,-0.18328 -0.002,-0.34968 v -1.46382 q 0,-0.0241 0.0145,-0.0434 0.0145,-0.0193 0.0482,-0.0338 0.0338,-0.0145 0.0892,-0.0193 0.0555,-0.007 0.14228,-0.007 0.082,0 0.13746,0.007 0.0555,0.005 0.0844,0.0193 0.0314,0.0145 0.0434,0.0338 0.0121,0.0193 0.0121,0.0434 z"
             inkscape:connector-curvature="0" />
          <path
             id="path1047"
             style="font-style:normal;font-variant:normal;font-weight:bold;font-stretch:normal;font-size:10.58329964px;line-height:1.25;font-family:Calibri;-inkscape-font-specification:'Calibri Bold';letter-spacing:0px;word-spacing:0px;fill:#000000;fill-opacity:1;stroke:none;stroke-width:0.26458299"
             d="m -155.00565,155.97304 q -0.0121,0.0313 -0.0314,0.0506 -0.0193,0.0193 -0.0555,0.0314 -0.0338,0.012 -0.0868,0.0169 -0.0506,0.007 -0.13023,0.007 -0.0989,0 -0.16157,-0.01 -0.0627,-0.01 -0.0965,-0.0289 -0.0314,-0.0193 -0.0362,-0.0506 -0.005,-0.0289 0.01,-0.0699 l 1.44211,-4.04902 q 0.01,-0.0313 0.0289,-0.0506 0.0193,-0.0217 0.0531,-0.0338 0.0338,-0.0121 0.0868,-0.0169 0.0555,-0.007 0.13264,-0.007 0.10128,0 0.16158,0.01 0.0627,0.01 0.0941,0.0289 0.0314,0.0193 0.0362,0.0506 0.005,0.0289 -0.007,0.0699 z"
             inkscape:connector-curvature="0" />
          <path
             id="path1049"
             style="font-style:normal;font-variant:normal;font-weight:bold;font-stretch:normal;font-size:10.58329964px;line-height:1.25;font-family:Calibri;-inkscape-font-specification:'Calibri Bold';letter-spacing:0px;word-spacing:0px;fill:#000000;fill-opacity:1;stroke:none;stroke-width:0.26458299"
             d="m -150.60453,154.18607 q 0,0.28698 -0.0844,0.51366 -0.0844,0.22669 -0.24839,0.38344 -0.16399,0.15676 -0.40514,0.23875 -0.24116,0.082 -0.55466,0.082 -0.29422,0 -0.52814,-0.0723 -0.23392,-0.0748 -0.39549,-0.22428 -0.16158,-0.14952 -0.2484,-0.37138 -0.0844,-0.22428 -0.0844,-0.52331 v -1.8979 q 0,-0.0241 0.0145,-0.0434 0.0145,-0.0193 0.0506,-0.0314 0.0386,-0.0121 0.0989,-0.0193 0.0603,-0.007 0.15434,-0.007 0.0916,0 0.15192,0.007 0.0603,0.007 0.0965,0.0193 0.0362,0.012 0.0506,0.0314 0.0169,0.0193 0.0169,0.0434 v 1.84243 q 0,0.18569 0.0458,0.32315 0.0458,0.13505 0.13024,0.22428 0.0868,0.0892 0.20498,0.13505 0.12058,0.0434 0.26768,0.0434 0.14952,0 0.26769,-0.0458 0.11816,-0.0458 0.20016,-0.13263 0.082,-0.0892 0.1254,-0.21704 0.0458,-0.13023 0.0458,-0.29421 v -1.87861 q 0,-0.0241 0.0145,-0.0434 0.0145,-0.0193 0.0506,-0.0314 0.0362,-0.0121 0.0965,-0.0193 0.0627,-0.007 0.15434,-0.007 0.0916,0 0.14952,0.007 0.0603,0.007 0.0965,0.0193 0.0362,0.012 0.0506,0.0314 0.0145,0.0193 0.0145,0.0434 z"
             inkscape:connector-curvature="0" />
          <path
             id="path1051"
             style="font-style:normal;font-variant:normal;font-weight:bold;font-stretch:normal;font-size:10.58329964px;line-height:1.25;font-family:Calibri;-inkscape-font-specification:'Calibri Bold';letter-spacing:0px;word-spacing:0px;fill:#000000;fill-opacity:1;stroke:none;stroke-width:0.26458299"
             d="m -149.29264,155.26163 q 0,0.0241 -0.0169,0.0434 -0.0145,0.0193 -0.0506,0.0314 -0.0362,0.0121 -0.0965,0.0193 -0.0603,0.007 -0.15434,0.007 -0.0916,0 -0.15434,-0.007 -0.0603,-0.007 -0.0965,-0.0193 -0.0362,-0.0121 -0.0531,-0.0314 -0.0145,-0.0193 -0.0145,-0.0434 v -2.94693 q 0,-0.0241 0.0145,-0.0434 0.0169,-0.0193 0.0531,-0.0314 0.0386,-0.0121 0.0989,-0.0193 0.0603,-0.007 0.15193,-0.007 0.094,0 0.15434,0.007 0.0603,0.007 0.0965,0.0193 0.0362,0.012 0.0506,0.0314 0.0169,0.0193 0.0169,0.0434 z"
             inkscape:connector-curvature="0" />
          <path
             id="path1053"
             style="font-style:normal;font-variant:normal;font-weight:bold;font-stretch:normal;font-size:10.58329964px;line-height:1.25;font-family:Calibri;-inkscape-font-specification:'Calibri Bold';letter-spacing:0px;word-spacing:0px;fill:#000000;fill-opacity:1;stroke:none;stroke-width:0.26458299"
             d="m -146.03462,155.12658 q 0,0.0555 -0.0193,0.0989 -0.0193,0.0434 -0.0531,0.0723 -0.0314,0.0289 -0.0772,0.0434 -0.0434,0.0121 -0.0892,0.0121 h -0.27011 q -0.0844,0 -0.1471,-0.0169 -0.0603,-0.0169 -0.11334,-0.0603 -0.0506,-0.0458 -0.0989,-0.12058 -0.0482,-0.0772 -0.10852,-0.19775 l -0.77653,-1.459 q -0.0675,-0.13022 -0.13746,-0.27974 -0.0699,-0.15193 -0.12541,-0.29421 h -0.005 q 0.01,0.17363 0.0145,0.34727 0.005,0.17122 0.005,0.3545 v 1.63263 q 0,0.0241 -0.0145,0.0434 -0.0121,0.0193 -0.0458,0.0338 -0.0314,0.0121 -0.0868,0.0193 -0.0555,0.007 -0.14229,0.007 -0.0844,0 -0.13987,-0.007 -0.0555,-0.007 -0.0868,-0.0193 -0.0314,-0.0145 -0.0434,-0.0338 -0.0121,-0.0193 -0.0121,-0.0434 v -2.80465 q 0,-0.11335 0.0651,-0.16881 0.0675,-0.0579 0.16399,-0.0579 h 0.34003 q 0.0916,0 0.15434,0.0169 0.0627,0.0145 0.11093,0.0506 0.0506,0.0362 0.0941,0.10129 0.0434,0.0627 0.0892,0.15675 l 0.60772,1.14067 q 0.0531,0.1037 0.10369,0.20498 0.0531,0.0989 0.10129,0.20016 0.0482,0.0989 0.0941,0.19534 0.0458,0.0965 0.0892,0.19293 h 0.002 q -0.007,-0.16881 -0.0121,-0.35209 -0.002,-0.18328 -0.002,-0.34968 v -1.46382 q 0,-0.0241 0.0145,-0.0434 0.0145,-0.0193 0.0482,-0.0338 0.0338,-0.0145 0.0892,-0.0193 0.0555,-0.007 0.14228,-0.007 0.082,0 0.13746,0.007 0.0555,0.005 0.0844,0.0193 0.0314,0.0145 0.0434,0.0338 0.0121,0.0193 0.0121,0.0434 z"
             inkscape:connector-curvature="0" />
          <path
             id="path1055"
             style="font-style:normal;font-variant:normal;font-weight:bold;font-stretch:normal;font-size:10.58329964px;line-height:1.25;font-family:Calibri;-inkscape-font-specification:'Calibri Bold';letter-spacing:0px;word-spacing:0px;fill:#000000;fill-opacity:1;stroke:none;stroke-width:0.26458299"
             d="m -144.6311,153.44331 q 0,0.10128 -0.0169,0.16881 -0.0169,0.0675 -0.0579,0.11093 -0.0386,0.0434 -0.1037,0.0627 -0.0651,0.0169 -0.164,0.0169 -0.0989,0 -0.16398,-0.0169 -0.0651,-0.0193 -0.10611,-0.0627 -0.0386,-0.0434 -0.0531,-0.11093 -0.0145,-0.0675 -0.0145,-0.16881 0,-0.1037 0.0145,-0.17363 0.0145,-0.0699 0.0531,-0.11335 0.041,-0.0434 0.10611,-0.0627 0.0651,-0.0193 0.16398,-0.0193 0.0989,0 0.164,0.0193 0.0651,0.0193 0.1037,0.0627 0.041,0.0434 0.0579,0.11335 0.0169,0.0699 0.0169,0.17363 z m 0,1.57475 q 0,0.10129 -0.0169,0.17122 -0.0169,0.0675 -0.0579,0.11093 -0.0386,0.0434 -0.1037,0.0603 -0.0651,0.0193 -0.164,0.0193 -0.0989,0 -0.16398,-0.0193 -0.0651,-0.0169 -0.10611,-0.0603 -0.0386,-0.0434 -0.0531,-0.11093 -0.0145,-0.0699 -0.0145,-0.17122 0,-0.10128 0.0145,-0.17122 0.0145,-0.0724 0.0531,-0.11575 0.041,-0.0434 0.10611,-0.0603 0.0651,-0.0193 0.16398,-0.0193 0.0989,0 0.164,0.0193 0.0651,0.0169 0.1037,0.0603 0.041,0.0434 0.0579,0.11575 0.0169,0.0699 0.0169,0.17122 z"
             inkscape:connector-curvature="0" />
          <path
             id="path1179"
             style="font-style:normal;font-variant:normal;font-weight:bold;font-stretch:normal;font-size:10.58329964px;line-height:1.25;font-family:Calibri;-inkscape-font-specification:'Calibri Bold';letter-spacing:0px;word-spacing:0px;fill:#000000;fill-opacity:1;stroke:none;stroke-width:0.26458299"
             d="m -240.29312,163.07167 q 0,0.0699 -0.007,0.12058 -0.005,0.0482 -0.0169,0.0796 -0.012,0.0289 -0.0314,0.0434 -0.0169,0.0145 -0.0386,0.0145 h -0.78135 v 2.51526 q 0,0.0241 -0.0169,0.0434 -0.0145,0.0193 -0.0506,0.0314 -0.0362,0.0121 -0.0989,0.0193 -0.0603,0.007 -0.15193,0.007 -0.0916,0 -0.15434,-0.007 -0.0603,-0.007 -0.0965,-0.0193 -0.0362,-0.0121 -0.053,-0.0314 -0.0145,-0.0193 -0.0145,-0.0434 v -2.51526 h -0.78135 q -0.0241,0 -0.041,-0.0145 -0.0169,-0.0145 -0.0289,-0.0434 -0.0121,-0.0314 -0.0193,-0.0796 -0.005,-0.0506 -0.005,-0.12058 0,-0.0724 0.005,-0.12299 0.007,-0.0506 0.0193,-0.0796 0.0121,-0.0314 0.0289,-0.0434 0.0169,-0.0145 0.041,-0.0145 h 2.19935 q 0.0217,0 0.0386,0.0145 0.0193,0.0121 0.0314,0.0434 0.0121,0.0289 0.0169,0.0796 0.007,0.0506 0.007,0.12299 z"
             inkscape:connector-curvature="0" />
          <path
             id="path1181"
             style="font-style:normal;font-variant:normal;font-weight:bold;font-stretch:normal;font-size:10.58329964px;line-height:1.25;font-family:Calibri;-inkscape-font-specification:'Calibri Bold';letter-spacing:0px;word-spacing:0px;fill:#000000;fill-opacity:1;stroke:none;stroke-width:0.26458299"
             d="m -238.39282,164.71154 q 0,0.11093 -0.0506,0.16398 -0.0482,0.0531 -0.13505,0.0531 h -1.30948 q 0,0.13746 0.0314,0.2508 0.0338,0.11093 0.1037,0.19051 0.0724,0.0772 0.18328,0.11817 0.11334,0.041 0.2701,0.041 0.15916,0 0.27974,-0.0217 0.12058,-0.0241 0.20739,-0.0506 0.0892,-0.0289 0.14711,-0.0506 0.0579,-0.0241 0.094,-0.0241 0.0217,0 0.0362,0.01 0.0145,0.007 0.0241,0.0289 0.01,0.0217 0.0121,0.0627 0.005,0.0386 0.005,0.0989 0,0.0531 -0.002,0.0916 -0.002,0.0362 -0.007,0.0627 -0.005,0.0265 -0.0145,0.0458 -0.01,0.0169 -0.0265,0.0338 -0.0145,0.0169 -0.0844,0.0458 -0.0699,0.0289 -0.17845,0.0579 -0.10853,0.0265 -0.2484,0.0458 -0.13987,0.0217 -0.29902,0.0217 -0.28698,0 -0.50402,-0.0724 -0.21463,-0.0724 -0.35932,-0.21945 -0.1447,-0.14711 -0.21704,-0.37139 -0.0699,-0.22427 -0.0699,-0.52572 0,-0.28697 0.0748,-0.51607 0.0748,-0.23151 0.21704,-0.39068 0.14228,-0.16157 0.34486,-0.24598 0.20498,-0.0844 0.4606,-0.0844 0.2701,0 0.46061,0.0796 0.19293,0.0796 0.31592,0.22187 0.12299,0.13987 0.18087,0.33279 0.0579,0.19293 0.0579,0.41961 z m -0.58842,-0.17364 q 0.007,-0.25562 -0.1037,-0.40032 -0.10852,-0.1471 -0.33761,-0.1471 -0.11576,0 -0.20258,0.0434 -0.0844,0.0434 -0.14228,0.11816 -0.0555,0.0724 -0.0868,0.17364 -0.0289,0.0989 -0.0338,0.21221 z"
             inkscape:connector-curvature="0" />
          <path
             id="path1183"
             style="font-style:normal;font-variant:normal;font-weight:bold;font-stretch:normal;font-size:10.58329964px;line-height:1.25;font-family:Calibri;-inkscape-font-specification:'Calibri Bold';letter-spacing:0px;word-spacing:0px;fill:#000000;fill-opacity:1;stroke:none;stroke-width:0.26458299"
             d="m -237.28349,165.8498 q 0,0.0241 -0.0145,0.0434 -0.0145,0.0169 -0.0507,0.0289 -0.0338,0.0121 -0.0916,0.0169 -0.0579,0.007 -0.1471,0.007 -0.0892,0 -0.14711,-0.007 -0.0579,-0.005 -0.0941,-0.0169 -0.0338,-0.012 -0.0482,-0.0289 -0.0145,-0.0193 -0.0145,-0.0434 v -3.17121 q 0,-0.0241 0.0145,-0.0434 0.0145,-0.0193 0.0482,-0.0314 0.0362,-0.0145 0.0941,-0.0217 0.0579,-0.007 0.14711,-0.007 0.0892,0 0.1471,0.007 0.0579,0.007 0.0916,0.0217 0.0362,0.0121 0.0507,0.0314 0.0145,0.0193 0.0145,0.0434 z"
             inkscape:connector-curvature="0" />
          <path
             id="path1185"
             style="font-style:normal;font-variant:normal;font-weight:bold;font-stretch:normal;font-size:10.58329964px;line-height:1.25;font-family:Calibri;-inkscape-font-specification:'Calibri Bold';letter-spacing:0px;word-spacing:0px;fill:#000000;fill-opacity:1;stroke:none;stroke-width:0.26458299"
             d="m -235.91371,164.02665 q 0,0.10129 -0.0169,0.16881 -0.0169,0.0675 -0.0579,0.11093 -0.0386,0.0434 -0.1037,0.0627 -0.0651,0.0169 -0.16399,0.0169 -0.0989,0 -0.16398,-0.0169 -0.0651,-0.0193 -0.10611,-0.0627 -0.0386,-0.0434 -0.0531,-0.11093 -0.0145,-0.0675 -0.0145,-0.16881 0,-0.1037 0.0145,-0.17363 0.0145,-0.0699 0.0531,-0.11334 0.041,-0.0434 0.10611,-0.0627 0.0651,-0.0193 0.16398,-0.0193 0.0989,0 0.16399,0.0193 0.0651,0.0193 0.1037,0.0627 0.041,0.0434 0.0579,0.11334 0.0169,0.0699 0.0169,0.17363 z m 0,1.57476 q 0,0.10128 -0.0169,0.17122 -0.0169,0.0675 -0.0579,0.11093 -0.0386,0.0434 -0.1037,0.0603 -0.0651,0.0193 -0.16399,0.0193 -0.0989,0 -0.16398,-0.0193 -0.0651,-0.0169 -0.10611,-0.0603 -0.0386,-0.0434 -0.0531,-0.11093 -0.0145,-0.0699 -0.0145,-0.17122 0,-0.10129 0.0145,-0.17123 0.0145,-0.0723 0.0531,-0.11575 0.041,-0.0434 0.10611,-0.0603 0.0651,-0.0193 0.16398,-0.0193 0.0989,0 0.16399,0.0193 0.0651,0.0169 0.1037,0.0603 0.041,0.0434 0.0579,0.11575 0.0169,0.0699 0.0169,0.17123 z"
             inkscape:connector-curvature="0" />
          <path
             id="path1211"
             style="font-style:normal;font-variant:normal;font-weight:bold;font-stretch:normal;font-size:10.58329964px;line-height:1.25;font-family:Calibri;-inkscape-font-specification:'Calibri Bold';letter-spacing:0px;word-spacing:0px;fill:#000000;fill-opacity:1;stroke:none;stroke-width:0.26458299"
             d="m -164.92181,161.78661 q 0,0.0603 -0.005,0.1037 -0.002,0.041 -0.01,0.0724 -0.007,0.0289 -0.0193,0.0506 -0.0121,0.0217 -0.0386,0.0506 -0.0265,0.0265 -0.10369,0.0699 -0.0748,0.0434 -0.18569,0.0844 -0.10852,0.0386 -0.25081,0.0651 -0.13987,0.0265 -0.30385,0.0265 -0.32074,0 -0.57878,-0.0989 -0.25804,-0.0989 -0.43891,-0.29421 -0.18086,-0.19775 -0.27733,-0.49196 -0.0965,-0.29421 -0.0965,-0.68489 0,-0.39791 0.10611,-0.70659 0.10611,-0.30868 0.29662,-0.51848 0.19052,-0.20981 0.45579,-0.31833 0.26768,-0.10852 0.58842,-0.10852 0.13023,0 0.25081,0.0217 0.12057,0.0217 0.22186,0.0579 0.1037,0.0338 0.18569,0.0796 0.082,0.0458 0.11334,0.0796 0.0338,0.0314 0.0458,0.0531 0.0121,0.0217 0.0193,0.0555 0.007,0.0338 0.01,0.0796 0.005,0.0458 0.005,0.11334 0,0.0724 -0.005,0.12299 -0.005,0.0506 -0.0169,0.082 -0.0121,0.0314 -0.0289,0.0458 -0.0169,0.0145 -0.0386,0.0145 -0.0362,0 -0.0916,-0.041 -0.0555,-0.0434 -0.1447,-0.0941 -0.0868,-0.053 -0.2098,-0.0941 -0.12058,-0.0434 -0.28939,-0.0434 -0.18569,0 -0.3328,0.0772 -0.14469,0.0748 -0.24839,0.21704 -0.10128,0.13987 -0.15434,0.34003 -0.0531,0.20016 -0.0531,0.45096 0,0.27492 0.0555,0.47749 0.0579,0.20016 0.16158,0.33039 0.10611,0.13022 0.25321,0.19533 0.14952,0.0627 0.33521,0.0627 0.16881,0 0.2918,-0.0386 0.12299,-0.041 0.20981,-0.0892 0.0892,-0.0482 0.14469,-0.0868 0.0579,-0.0386 0.0892,-0.0386 0.0241,0 0.0386,0.01 0.0145,0.01 0.0241,0.0386 0.01,0.0289 0.0145,0.082 0.005,0.0506 0.005,0.13746 z"
             inkscape:connector-curvature="0" />
          <path
             id="path1213"
             style="font-style:normal;font-variant:normal;font-weight:bold;font-stretch:normal;font-size:10.58329964px;line-height:1.25;font-family:Calibri;-inkscape-font-specification:'Calibri Bold';letter-spacing:0px;word-spacing:0px;fill:#000000;fill-opacity:1;stroke:none;stroke-width:0.26458299"
             d="m -162.32697,161.08002 q 0,0.27492 -0.0723,0.50161 -0.0724,0.22669 -0.21944,0.39067 -0.14711,0.16399 -0.36897,0.25322 -0.22187,0.0892 -0.51849,0.0892 -0.28698,0 -0.49921,-0.0796 -0.21221,-0.0796 -0.35208,-0.23151 -0.13988,-0.15193 -0.2074,-0.37379 -0.0675,-0.22186 -0.0675,-0.50643 0,-0.27492 0.0723,-0.5016 0.0748,-0.2291 0.22187,-0.39068 0.14709,-0.16398 0.36655,-0.25321 0.22186,-0.0892 0.51849,-0.0892 0.28939,0 0.50161,0.0796 0.21222,0.0772 0.34968,0.2291 0.13987,0.15193 0.20739,0.37379 0.0675,0.22187 0.0675,0.50884 z m -0.62459,0.0241 q 0,-0.15916 -0.0265,-0.2918 -0.0241,-0.13505 -0.0844,-0.23392 -0.0603,-0.0989 -0.16158,-0.15434 -0.0989,-0.0555 -0.2508,-0.0555 -0.13505,0 -0.23633,0.0506 -0.10129,0.0482 -0.1664,0.1447 -0.0651,0.094 -0.0989,0.2291 -0.0314,0.13263 -0.0314,0.30385 0,0.15917 0.0265,0.29422 0.0265,0.13263 0.0844,0.23151 0.0603,0.0989 0.16158,0.15434 0.10129,0.053 0.2508,0.053 0.13746,0 0.23875,-0.0482 0.10128,-0.0506 0.1664,-0.14469 0.0651,-0.0941 0.0965,-0.22669 0.0314,-0.13505 0.0314,-0.30627 z"
             inkscape:connector-curvature="0" />
          <path
             id="path1215"
             style="font-style:normal;font-variant:normal;font-weight:bold;font-stretch:normal;font-size:10.58329964px;line-height:1.25;font-family:Calibri;-inkscape-font-specification:'Calibri Bold';letter-spacing:0px;word-spacing:0px;fill:#000000;fill-opacity:1;stroke:none;stroke-width:0.26458299"
             d="m -158.42746,162.17729 q 0,0.0241 -0.0145,0.0434 -0.0145,0.0169 -0.0482,0.0289 -0.0338,0.0121 -0.0916,0.0169 -0.0579,0.007 -0.1471,0.007 -0.0916,0 -0.14951,-0.007 -0.0579,-0.005 -0.094,-0.0169 -0.0338,-0.012 -0.0482,-0.0289 -0.012,-0.0193 -0.012,-0.0434 v -1.27572 q 0,-0.10852 -0.0217,-0.19775 -0.0193,-0.0892 -0.0627,-0.15193 -0.041,-0.0651 -0.10611,-0.0989 -0.0627,-0.0362 -0.15193,-0.0362 -0.10852,0 -0.21945,0.0844 -0.11092,0.0844 -0.24115,0.24598 v 1.43006 q 0,0.0241 -0.0145,0.0434 -0.0145,0.0169 -0.0506,0.0289 -0.0338,0.0121 -0.0916,0.0169 -0.0579,0.007 -0.14469,0.007 -0.0892,0 -0.14711,-0.007 -0.0579,-0.005 -0.0941,-0.0169 -0.0338,-0.012 -0.0482,-0.0289 -0.0145,-0.0193 -0.0145,-0.0434 v -1.27572 q 0,-0.10852 -0.0217,-0.19775 -0.0193,-0.0892 -0.0603,-0.15193 -0.041,-0.0651 -0.10611,-0.0989 -0.0651,-0.0362 -0.15193,-0.0362 -0.11093,0 -0.22186,0.0844 -0.11094,0.0844 -0.23875,0.24598 v 1.43006 q 0,0.0241 -0.0145,0.0434 -0.0145,0.0169 -0.0506,0.0289 -0.0338,0.0121 -0.0916,0.0169 -0.0579,0.007 -0.14711,0.007 -0.0892,0 -0.1471,-0.007 -0.0579,-0.005 -0.094,-0.0169 -0.0338,-0.012 -0.0482,-0.0289 -0.0145,-0.0193 -0.0145,-0.0434 v -2.15112 q 0,-0.0241 0.012,-0.041 0.0121,-0.0193 0.0434,-0.0313 0.0313,-0.0121 0.0796,-0.0169 0.0506,-0.007 0.12541,-0.007 0.0772,0 0.12781,0.007 0.0506,0.005 0.0772,0.0169 0.0289,0.0121 0.041,0.0313 0.0121,0.0169 0.0121,0.041 v 0.24839 q 0.17846,-0.19293 0.3545,-0.28939 0.17846,-0.0965 0.37139,-0.0965 0.13263,0 0.23874,0.0289 0.10611,0.0265 0.1881,0.0796 0.0844,0.0506 0.1447,0.12299 0.0603,0.0724 0.10128,0.16157 0.0965,-0.10369 0.1881,-0.17845 0.0941,-0.0748 0.18328,-0.12058 0.0916,-0.0482 0.18087,-0.0699 0.0916,-0.0241 0.18569,-0.0241 0.21463,0 0.36174,0.0724 0.1471,0.0723 0.23633,0.19774 0.0916,0.12299 0.13023,0.28939 0.0386,0.1664 0.0386,0.35209 z"
             inkscape:connector-curvature="0" />
          <path
             id="path1217"
             style="font-style:normal;font-variant:normal;font-weight:bold;font-stretch:normal;font-size:10.58329964px;line-height:1.25;font-family:Calibri;-inkscape-font-specification:'Calibri Bold';letter-spacing:0px;word-spacing:0px;fill:#000000;fill-opacity:1;stroke:none;stroke-width:0.26458299"
             d="m -155.6614,161.07038 q 0,0.28697 -0.0627,0.51848 -0.0603,0.2291 -0.17845,0.39068 -0.11817,0.16157 -0.29421,0.24839 -0.17605,0.0868 -0.40272,0.0868 -0.0941,0 -0.17365,-0.0193 -0.0772,-0.0169 -0.15192,-0.053 -0.0723,-0.0386 -0.14469,-0.0941 -0.0724,-0.0555 -0.14952,-0.13023 v 1.01286 q 0,0.0241 -0.0145,0.0434 -0.0145,0.0193 -0.0506,0.0314 -0.0338,0.0145 -0.0916,0.0217 -0.0579,0.007 -0.1471,0.007 -0.0892,0 -0.14711,-0.007 -0.0579,-0.007 -0.094,-0.0217 -0.0338,-0.0121 -0.0482,-0.0314 -0.0145,-0.0193 -0.0145,-0.0434 v -3.00481 q 0,-0.0241 0.0121,-0.041 0.012,-0.0193 0.041,-0.0313 0.0314,-0.0121 0.0796,-0.0169 0.0506,-0.007 0.12541,-0.007 0.0723,0 0.12056,0.007 0.0507,0.005 0.0796,0.0169 0.0313,0.0121 0.0434,0.0313 0.0121,0.0169 0.0121,0.041 v 0.25321 q 0.0941,-0.0965 0.18328,-0.16881 0.0916,-0.0747 0.18569,-0.12299 0.094,-0.0506 0.19293,-0.0748 0.10128,-0.0241 0.21463,-0.0241 0.23633,0 0.40273,0.094 0.1664,0.0916 0.27009,0.25322 0.10611,0.16157 0.15434,0.3762 0.0482,0.21463 0.0482,0.4582 z m -0.63184,0.0434 q 0,-0.13746 -0.0217,-0.26287 -0.0193,-0.12781 -0.0699,-0.22668 -0.0482,-0.0989 -0.13023,-0.15675 -0.0796,-0.0603 -0.20016,-0.0603 -0.0603,0 -0.12058,0.0193 -0.0579,0.0169 -0.12058,0.0579 -0.0603,0.041 -0.1254,0.10611 -0.0651,0.0651 -0.13746,0.16157 v 0.709 q 0.12782,0.16158 0.24357,0.2508 0.11576,0.0868 0.24116,0.0868 0.11816,0 0.20016,-0.0603 0.0844,-0.0603 0.13746,-0.15675 0.053,-0.0989 0.0772,-0.22186 0.0265,-0.12299 0.0265,-0.24598 z"
             inkscape:connector-curvature="0" />
          <path
             id="path1219"
             style="font-style:normal;font-variant:normal;font-weight:bold;font-stretch:normal;font-size:10.58329964px;line-height:1.25;font-family:Calibri;-inkscape-font-specification:'Calibri Bold';letter-spacing:0px;word-spacing:0px;fill:#000000;fill-opacity:1;stroke:none;stroke-width:0.26458299"
             d="m -153.34147,162.18452 q 0,0.0338 -0.0241,0.0531 -0.0241,0.0193 -0.0772,0.0265 -0.0506,0.01 -0.15193,0.01 -0.10852,0 -0.15917,-0.01 -0.0482,-0.007 -0.0699,-0.0265 -0.0193,-0.0193 -0.0193,-0.0531 v -0.17122 q -0.13264,0.14228 -0.30386,0.22186 -0.16881,0.0796 -0.3762,0.0796 -0.17122,0 -0.31592,-0.0458 -0.14228,-0.0434 -0.24839,-0.13023 -0.1037,-0.0892 -0.16158,-0.21945 -0.0579,-0.13023 -0.0579,-0.30386 0,-0.1881 0.0723,-0.32556 0.0748,-0.13987 0.21946,-0.2291 0.1471,-0.0916 0.36414,-0.13505 0.21704,-0.0434 0.50402,-0.0434 h 0.20981 v -0.13022 q 0,-0.10129 -0.0217,-0.17604 -0.0193,-0.0772 -0.0675,-0.12782 -0.0458,-0.0506 -0.1254,-0.0748 -0.0772,-0.0241 -0.19293,-0.0241 -0.15193,0 -0.2725,0.0338 -0.11817,0.0338 -0.20981,0.0748 -0.0916,0.041 -0.15434,0.0748 -0.0603,0.0338 -0.0989,0.0338 -0.0265,0 -0.0482,-0.0169 -0.0193,-0.0169 -0.0338,-0.0482 -0.0121,-0.0314 -0.0193,-0.0772 -0.007,-0.0458 -0.007,-0.10129 0,-0.0748 0.0121,-0.11817 0.0121,-0.0434 0.0458,-0.0772 0.0338,-0.0362 0.11817,-0.0772 0.0844,-0.0434 0.19775,-0.0796 0.11334,-0.0362 0.24598,-0.0579 0.13504,-0.0241 0.27733,-0.0241 0.25321,0 0.43167,0.0506 0.18086,0.0482 0.29662,0.15193 0.11576,0.10129 0.16881,0.26286 0.0531,0.16158 0.0531,0.38344 z m -0.59565,-0.92122 h -0.23151 q -0.14711,0 -0.25081,0.0217 -0.10369,0.0217 -0.16881,0.0651 -0.0651,0.0434 -0.0965,0.10611 -0.0289,0.0603 -0.0289,0.13987 0,0.13505 0.0844,0.21222 0.0868,0.0772 0.23874,0.0772 0.12782,0 0.23392,-0.0651 0.10853,-0.0651 0.21946,-0.19051 z"
             inkscape:connector-curvature="0" />
          <path
             id="path1221"
             style="font-style:normal;font-variant:normal;font-weight:bold;font-stretch:normal;font-size:10.58329964px;line-height:1.25;font-family:Calibri;-inkscape-font-specification:'Calibri Bold';letter-spacing:0px;word-spacing:0px;fill:#000000;fill-opacity:1;stroke:none;stroke-width:0.26458299"
             d="m -150.67911,162.17729 q 0,0.0241 -0.0145,0.0434 -0.0145,0.0169 -0.0482,0.0289 -0.0338,0.0121 -0.094,0.0169 -0.0579,0.007 -0.14469,0.007 -0.0892,0 -0.14951,-0.007 -0.0579,-0.005 -0.0916,-0.0169 -0.0338,-0.012 -0.0482,-0.0289 -0.0145,-0.0193 -0.0145,-0.0434 v -1.22749 q 0,-0.15675 -0.0241,-0.24598 -0.0217,-0.0892 -0.0651,-0.15193 -0.0434,-0.0651 -0.11334,-0.0989 -0.0675,-0.0362 -0.15916,-0.0362 -0.11576,0 -0.23393,0.0844 -0.11815,0.0844 -0.24598,0.24598 v 1.43006 q 0,0.0241 -0.0145,0.0434 -0.0145,0.0169 -0.0506,0.0289 -0.0338,0.0121 -0.0916,0.0169 -0.0579,0.007 -0.1471,0.007 -0.0892,0 -0.14711,-0.007 -0.0579,-0.005 -0.0941,-0.0169 -0.0338,-0.012 -0.0482,-0.0289 -0.0145,-0.0193 -0.0145,-0.0434 v -2.15112 q 0,-0.0241 0.0121,-0.041 0.012,-0.0193 0.0434,-0.0313 0.0314,-0.0121 0.0796,-0.0169 0.0506,-0.007 0.12541,-0.007 0.0772,0 0.12781,0.007 0.0506,0.005 0.0772,0.0169 0.0289,0.0121 0.041,0.0313 0.0121,0.0169 0.0121,0.041 v 0.24839 q 0.17845,-0.19293 0.36173,-0.28939 0.18569,-0.0965 0.38585,-0.0965 0.21945,0 0.36897,0.0724 0.15193,0.0723 0.24357,0.19774 0.0941,0.12299 0.13505,0.28939 0.041,0.1664 0.041,0.40032 z"
             inkscape:connector-curvature="0" />
          <path
             id="path1223"
             style="font-style:normal;font-variant:normal;font-weight:bold;font-stretch:normal;font-size:10.58329964px;line-height:1.25;font-family:Calibri;-inkscape-font-specification:'Calibri Bold';letter-spacing:0px;word-spacing:0px;fill:#000000;fill-opacity:1;stroke:none;stroke-width:0.26458299"
             d="m -148.92107,162.25928 -0.26045,0.76205 q -0.0217,0.0603 -0.11816,0.0868 -0.0965,0.0265 -0.28215,0.0265 -0.0965,0 -0.15434,-0.01 -0.0579,-0.007 -0.0868,-0.0265 -0.0289,-0.0193 -0.0314,-0.0482 -0.002,-0.0289 0.0145,-0.0699 l 0.28698,-0.72106 q -0.0314,-0.0145 -0.0579,-0.0434 -0.0241,-0.0314 -0.0362,-0.0651 l -0.74035,-1.97749 q -0.0314,-0.0844 -0.0314,-0.12781 0,-0.0458 0.0289,-0.0699 0.0289,-0.0265 0.0965,-0.0362 0.0699,-0.01 0.18327,-0.01 0.10369,0 0.16399,0.005 0.0603,0.002 0.094,0.0169 0.0338,0.0145 0.0507,0.0458 0.0169,0.0289 0.0338,0.0844 l 0.50643,1.43971 h 0.007 l 0.46302,-1.46864 q 0.0145,-0.0627 0.0362,-0.082 0.0241,-0.0217 0.0772,-0.0314 0.0531,-0.01 0.18569,-0.01 0.1037,0 0.17122,0.01 0.0699,0.01 0.10129,0.0362 0.0338,0.0265 0.0338,0.0723 0,0.0434 -0.0193,0.1037 z"
             inkscape:connector-curvature="0" />
          <path
             id="path1225"
             style="font-style:normal;font-variant:normal;font-weight:bold;font-stretch:normal;font-size:10.58329964px;line-height:1.25;font-family:Calibri;-inkscape-font-specification:'Calibri Bold';letter-spacing:0px;word-spacing:0px;fill:#000000;fill-opacity:1;stroke:none;stroke-width:0.26458299"
             d="m -147.32703,160.06475 q 0,0.0265 -0.0121,0.0458 -0.0121,0.0193 -0.0386,0.0314 -0.0265,0.0121 -0.0699,0.0193 -0.041,0.005 -0.10369,0.005 -0.0651,0 -0.10852,-0.007 -0.041,-0.007 -0.0675,-0.0193 -0.0265,-0.0121 -0.0386,-0.0314 -0.01,-0.0193 -0.0121,-0.0434 l -0.0555,-1.07797 q -0.002,-0.0241 0.0121,-0.0434 0.0169,-0.0193 0.0506,-0.0314 0.0338,-0.0145 0.0868,-0.0193 0.0555,-0.007 0.13264,-0.007 0.0796,0 0.13263,0.007 0.0531,0.005 0.0868,0.0169 0.0338,0.0121 0.0482,0.0314 0.0145,0.0193 0.0121,0.0458 z"
             inkscape:connector-curvature="0" />
          <path
             id="path1228"
             style="font-style:normal;font-variant:normal;font-weight:bold;font-stretch:normal;font-size:10.58329964px;line-height:1.25;font-family:Calibri;-inkscape-font-specification:'Calibri Bold';letter-spacing:0px;word-spacing:0px;fill:#000000;fill-opacity:1;stroke:none;stroke-width:0.26458299"
             d="m -145.15179,161.56957 q 0,0.18328 -0.0699,0.32315 -0.0675,0.13987 -0.19292,0.23392 -0.1254,0.094 -0.29663,0.13987 -0.17122,0.0482 -0.37138,0.0482 -0.12057,0 -0.23151,-0.0193 -0.10852,-0.0169 -0.19533,-0.0434 -0.0868,-0.0289 -0.1447,-0.0579 -0.0579,-0.0289 -0.0844,-0.0531 -0.0265,-0.0265 -0.041,-0.0796 -0.0145,-0.0555 -0.0145,-0.16157 0,-0.0699 0.005,-0.11094 0.005,-0.0434 0.0145,-0.0675 0.01,-0.0265 0.0241,-0.0338 0.0145,-0.01 0.0362,-0.01 0.0265,0 0.0772,0.0314 0.0531,0.0289 0.13023,0.0651 0.0772,0.0362 0.17845,0.0675 0.1037,0.0314 0.23393,0.0314 0.082,0 0.14469,-0.0169 0.0651,-0.0169 0.11093,-0.0482 0.0482,-0.0314 0.0724,-0.0796 0.0241,-0.0482 0.0241,-0.11093 0,-0.0723 -0.0458,-0.12299 -0.0434,-0.0531 -0.11816,-0.0916 -0.0724,-0.0386 -0.1664,-0.0723 -0.0916,-0.0338 -0.19051,-0.0748 -0.0965,-0.041 -0.19052,-0.0941 -0.0916,-0.0531 -0.1664,-0.13023 -0.0723,-0.0772 -0.11816,-0.18569 -0.0434,-0.10852 -0.0434,-0.26045 0,-0.15434 0.0603,-0.28215 0.0603,-0.13023 0.17363,-0.22187 0.11334,-0.0916 0.27492,-0.14228 0.16399,-0.0506 0.36656,-0.0506 0.10128,0 0.19533,0.0145 0.0965,0.0145 0.17364,0.0362 0.0772,0.0217 0.13022,0.0482 0.0531,0.0241 0.0748,0.0434 0.0241,0.0169 0.0338,0.0362 0.01,0.0169 0.0145,0.0434 0.005,0.0241 0.007,0.0627 0.005,0.0362 0.005,0.0916 0,0.0651 -0.005,0.10611 -0.002,0.041 -0.0121,0.0651 -0.007,0.0241 -0.0217,0.0338 -0.0145,0.007 -0.0338,0.007 -0.0217,0 -0.0675,-0.0241 -0.0458,-0.0265 -0.11576,-0.0555 -0.0675,-0.0289 -0.15916,-0.0531 -0.0892,-0.0265 -0.20498,-0.0265 -0.082,0 -0.14229,0.0169 -0.0603,0.0169 -0.0989,0.0482 -0.0386,0.0313 -0.0579,0.0748 -0.0193,0.041 -0.0193,0.0892 0,0.0748 0.0458,0.1254 0.0458,0.0506 0.12058,0.0892 0.0748,0.0386 0.16881,0.0723 0.0965,0.0338 0.19292,0.0748 0.0989,0.0386 0.19293,0.0916 0.0965,0.0531 0.17122,0.13023 0.0748,0.0772 0.12058,0.18569 0.0458,0.10611 0.0458,0.25321 z"
             inkscape:connector-curvature="0" />
          <path
             id="path1230"
             style="font-style:normal;font-variant:normal;font-weight:bold;font-stretch:normal;font-size:10.58329964px;line-height:1.25;font-family:Calibri;-inkscape-font-specification:'Calibri Bold';letter-spacing:0px;word-spacing:0px;fill:#000000;fill-opacity:1;stroke:none;stroke-width:0.26458299"
             d="m -141.40663,160.08646 q 0,0.26286 -0.082,0.46543 -0.082,0.20257 -0.23875,0.34244 -0.15675,0.13746 -0.38585,0.20981 -0.22668,0.0724 -0.53536,0.0724 h -0.26046 v 0.99597 q 0,0.0241 -0.0169,0.0434 -0.0145,0.0193 -0.0507,0.0314 -0.0362,0.0121 -0.0965,0.0193 -0.0603,0.007 -0.15434,0.007 -0.0916,0 -0.15434,-0.007 -0.0603,-0.007 -0.0965,-0.0193 -0.0362,-0.0121 -0.0506,-0.0314 -0.0145,-0.0193 -0.0145,-0.0434 v -2.80706 q 0,-0.11334 0.0579,-0.16881 0.0603,-0.0579 0.15675,-0.0579 h 0.73553 q 0.11093,0 0.20981,0.01 0.10129,0.007 0.24116,0.0362 0.13987,0.0265 0.28215,0.10129 0.14469,0.0748 0.24598,0.19051 0.10128,0.11335 0.15435,0.26769 0.053,0.15192 0.053,0.34244 z m -0.66317,0.0458 q 0,-0.16399 -0.0579,-0.2701 -0.0579,-0.10611 -0.14228,-0.15675 -0.0844,-0.0506 -0.17845,-0.0627 -0.0916,-0.0145 -0.19051,-0.0145 h -0.2701 v 1.05868 h 0.28456 q 0.15193,0 0.25322,-0.041 0.10369,-0.041 0.16882,-0.11334 0.0651,-0.0748 0.0989,-0.17605 0.0338,-0.10369 0.0338,-0.22427 z"
             inkscape:connector-curvature="0" />
          <path
             id="path1232"
             style="font-style:normal;font-variant:normal;font-weight:bold;font-stretch:normal;font-size:10.58329964px;line-height:1.25;font-family:Calibri;-inkscape-font-specification:'Calibri Bold';letter-spacing:0px;word-spacing:0px;fill:#000000;fill-opacity:1;stroke:none;stroke-width:0.26458299"
             d="m -138.6912,162.02295 q 0.0289,0.0868 0.0362,0.13746 0.007,0.0506 -0.0193,0.0772 -0.0265,0.0241 -0.0941,0.0289 -0.0675,0.007 -0.18569,0.007 -0.12299,0 -0.19292,-0.005 -0.0675,-0.002 -0.1037,-0.0121 -0.0362,-0.0121 -0.0506,-0.0314 -0.0145,-0.0193 -0.0241,-0.0506 l -0.20981,-0.627 h -1.17202 l -0.19774,0.61012 q -0.01,0.0338 -0.0265,0.0579 -0.0145,0.0217 -0.0507,0.0362 -0.0338,0.012 -0.0989,0.0169 -0.0627,0.005 -0.16639,0.005 -0.11093,0 -0.17364,-0.007 -0.0627,-0.007 -0.0868,-0.0338 -0.0241,-0.0289 -0.0169,-0.0796 0.007,-0.0506 0.0362,-0.13505 l 0.96221,-2.76848 q 0.0145,-0.041 0.0338,-0.0651 0.0193,-0.0265 0.0603,-0.0386 0.0434,-0.0145 0.11817,-0.0169 0.0748,-0.005 0.19775,-0.005 0.14228,0 0.22668,0.005 0.0844,0.002 0.13023,0.0169 0.0482,0.012 0.0675,0.0386 0.0217,0.0265 0.0362,0.0724 z m -1.43247,-2.28858 h -0.002 l -0.44132,1.32636 h 0.88505 z"
             inkscape:connector-curvature="0" />
          <path
             id="path1234"
             style="font-style:normal;font-variant:normal;font-weight:bold;font-stretch:normal;font-size:10.58329964px;line-height:1.25;font-family:Calibri;-inkscape-font-specification:'Calibri Bold';letter-spacing:0px;word-spacing:0px;fill:#000000;fill-opacity:1;stroke:none;stroke-width:0.26458299"
             d="m -135.68398,162.03742 q 0,0.0555 -0.0193,0.0989 -0.0193,0.0434 -0.053,0.0724 -0.0314,0.0289 -0.0772,0.0434 -0.0434,0.012 -0.0892,0.012 h -0.27009 q -0.0844,0 -0.1471,-0.0169 -0.0603,-0.0169 -0.11334,-0.0603 -0.0507,-0.0458 -0.0989,-0.12058 -0.0482,-0.0772 -0.10851,-0.19774 l -0.77653,-1.459 q -0.0675,-0.13023 -0.13746,-0.27974 -0.0699,-0.15193 -0.1254,-0.29422 h -0.005 q 0.01,0.17364 0.0145,0.34727 0.005,0.17122 0.005,0.3545 v 1.63263 q 0,0.0241 -0.0145,0.0434 -0.012,0.0193 -0.0458,0.0338 -0.0314,0.0121 -0.0868,0.0193 -0.0555,0.007 -0.14228,0.007 -0.0844,0 -0.13987,-0.007 -0.0555,-0.007 -0.0868,-0.0193 -0.0314,-0.0145 -0.0434,-0.0338 -0.0121,-0.0193 -0.0121,-0.0434 v -2.80465 q 0,-0.11334 0.0651,-0.16881 0.0675,-0.0579 0.16398,-0.0579 h 0.34003 q 0.0916,0 0.15434,0.0169 0.0627,0.0145 0.11094,0.0507 0.0506,0.0362 0.094,0.10128 0.0434,0.0627 0.0892,0.15675 l 0.60772,1.14067 q 0.053,0.1037 0.1037,0.20499 0.053,0.0989 0.10128,0.20016 0.0482,0.0989 0.094,0.19533 0.0458,0.0965 0.0892,0.19293 h 0.002 q -0.007,-0.16881 -0.0121,-0.35209 -0.002,-0.18328 -0.002,-0.34968 v -1.46382 q 0,-0.0241 0.0145,-0.0434 0.0145,-0.0193 0.0482,-0.0338 0.0338,-0.0145 0.0892,-0.0193 0.0555,-0.007 0.14228,-0.007 0.082,0 0.13747,0.007 0.0555,0.005 0.0844,0.0193 0.0314,0.0145 0.0434,0.0338 0.012,0.0193 0.012,0.0434 z"
             inkscape:connector-curvature="0" />
          <path
             id="path1236"
             style="font-style:normal;font-variant:normal;font-weight:bold;font-stretch:normal;font-size:10.58329964px;line-height:1.25;font-family:Calibri;-inkscape-font-specification:'Calibri Bold';letter-spacing:0px;word-spacing:0px;fill:#000000;fill-opacity:1;stroke:none;stroke-width:0.26458299"
             d="m -134.28044,160.35414 q 0,0.10129 -0.0169,0.16881 -0.0169,0.0675 -0.0579,0.11093 -0.0386,0.0434 -0.1037,0.0627 -0.0651,0.0169 -0.16397,0.0169 -0.0989,0 -0.164,-0.0169 -0.0651,-0.0193 -0.10611,-0.0627 -0.0386,-0.0434 -0.053,-0.11093 -0.0145,-0.0675 -0.0145,-0.16881 0,-0.1037 0.0145,-0.17363 0.0145,-0.0699 0.053,-0.11334 0.041,-0.0434 0.10611,-0.0627 0.0651,-0.0193 0.164,-0.0193 0.0989,0 0.16397,0.0193 0.0651,0.0193 0.1037,0.0627 0.041,0.0434 0.0579,0.11334 0.0169,0.0699 0.0169,0.17363 z m 0,1.57476 q 0,0.10128 -0.0169,0.17122 -0.0169,0.0675 -0.0579,0.11093 -0.0386,0.0434 -0.1037,0.0603 -0.0651,0.0193 -0.16397,0.0193 -0.0989,0 -0.164,-0.0193 -0.0651,-0.0169 -0.10611,-0.0603 -0.0386,-0.0434 -0.053,-0.11093 -0.0145,-0.0699 -0.0145,-0.17122 0,-0.10129 0.0145,-0.17123 0.0145,-0.0723 0.053,-0.11575 0.041,-0.0434 0.10611,-0.0603 0.0651,-0.0193 0.164,-0.0193 0.0989,0 0.16397,0.0193 0.0651,0.0169 0.1037,0.0603 0.041,0.0434 0.0579,0.11575 0.0169,0.0699 0.0169,0.17123 z"
             inkscape:connector-curvature="0" />
          <path
             id="path1259"
             style="font-style:normal;font-variant:normal;font-weight:bold;font-stretch:normal;font-size:10.58329964px;line-height:1.25;font-family:Calibri;-inkscape-font-specification:'Calibri Bold';letter-spacing:0px;word-spacing:0px;fill:#000000;fill-opacity:1;stroke:none;stroke-width:0.26458299"
             d="m -240.41853,170.00321 q 0,0.11093 -0.0506,0.16399 -0.0482,0.0531 -0.13505,0.0531 h -1.30948 q 0,0.13746 0.0314,0.2508 0.0338,0.11093 0.10369,0.19052 0.0724,0.0772 0.18328,0.11816 0.11335,0.041 0.2701,0.041 0.15916,0 0.27974,-0.0217 0.12058,-0.0241 0.2074,-0.0506 0.0892,-0.0289 0.1471,-0.0506 0.0579,-0.0241 0.094,-0.0241 0.0217,0 0.0362,0.01 0.0145,0.007 0.0241,0.0289 0.01,0.0217 0.0121,0.0627 0.005,0.0386 0.005,0.0989 0,0.0531 -0.002,0.0916 -0.002,0.0362 -0.007,0.0627 -0.005,0.0265 -0.0145,0.0458 -0.01,0.0169 -0.0265,0.0338 -0.0145,0.0169 -0.0844,0.0458 -0.0699,0.0289 -0.17845,0.0579 -0.10852,0.0265 -0.24839,0.0458 -0.13987,0.0217 -0.29904,0.0217 -0.28696,0 -0.504,-0.0724 -0.21463,-0.0724 -0.35933,-0.21945 -0.14469,-0.14711 -0.21704,-0.37138 -0.0699,-0.22428 -0.0699,-0.52572 0,-0.28698 0.0747,-0.51608 0.0748,-0.23151 0.21705,-0.39067 0.14228,-0.16158 0.34485,-0.24598 0.20498,-0.0844 0.46061,-0.0844 0.27009,0 0.46061,0.0796 0.19292,0.0796 0.31591,0.22187 0.12299,0.13987 0.18087,0.33279 0.0579,0.19293 0.0579,0.41962 z m -0.58842,-0.17363 q 0.007,-0.25563 -0.1037,-0.40032 -0.10852,-0.14711 -0.33762,-0.14711 -0.11576,0 -0.20257,0.0434 -0.0844,0.0434 -0.14228,0.11817 -0.0555,0.0723 -0.0868,0.17363 -0.0289,0.0989 -0.0338,0.21222 z"
             inkscape:connector-curvature="0" />
          <path
             id="path1261"
             style="font-style:normal;font-variant:normal;font-weight:bold;font-stretch:normal;font-size:10.58329964px;line-height:1.25;font-family:Calibri;-inkscape-font-specification:'Calibri Bold';letter-spacing:0px;word-spacing:0px;fill:#000000;fill-opacity:1;stroke:none;stroke-width:0.26458299"
             d="m -238.85101,170.01044 q 0,0.13987 -0.0265,0.19534 -0.0265,0.0555 -0.0844,0.0555 h -1.00321 q -0.0603,0 -0.0868,-0.0555 -0.0265,-0.0579 -0.0265,-0.19534 0,-0.13504 0.0265,-0.19051 0.0265,-0.0555 0.0868,-0.0555 h 1.00321 q 0.0289,0 0.0482,0.0121 0.0217,0.0121 0.0362,0.041 0.0145,0.0289 0.0193,0.0772 0.007,0.0482 0.007,0.11575 z"
             inkscape:connector-curvature="0" />
          <path
             id="path1263"
             style="font-style:normal;font-variant:normal;font-weight:bold;font-stretch:normal;font-size:10.58329964px;line-height:1.25;font-family:Calibri;-inkscape-font-specification:'Calibri Bold';letter-spacing:0px;word-spacing:0px;fill:#000000;fill-opacity:1;stroke:none;stroke-width:0.26458299"
             d="m -234.98044,171.14147 q 0,0.0241 -0.0145,0.0434 -0.0145,0.0169 -0.0482,0.0289 -0.0338,0.0121 -0.0916,0.0169 -0.0579,0.007 -0.14709,0.007 -0.0916,0 -0.14952,-0.007 -0.0579,-0.005 -0.094,-0.0169 -0.0338,-0.0121 -0.0482,-0.0289 -0.0121,-0.0193 -0.0121,-0.0434 v -1.27572 q 0,-0.10852 -0.0217,-0.19775 -0.0193,-0.0892 -0.0627,-0.15193 -0.041,-0.0651 -0.10611,-0.0989 -0.0627,-0.0362 -0.15192,-0.0362 -0.10852,0 -0.21946,0.0844 -0.11092,0.0844 -0.24115,0.24598 v 1.43006 q 0,0.0241 -0.0145,0.0434 -0.0145,0.0169 -0.0506,0.0289 -0.0338,0.0121 -0.0916,0.0169 -0.0579,0.007 -0.14469,0.007 -0.0892,0 -0.14709,-0.007 -0.0579,-0.005 -0.0941,-0.0169 -0.0338,-0.0121 -0.0482,-0.0289 -0.0145,-0.0193 -0.0145,-0.0434 v -1.27572 q 0,-0.10852 -0.0217,-0.19775 -0.0193,-0.0892 -0.0603,-0.15193 -0.041,-0.0651 -0.10611,-0.0989 -0.0651,-0.0362 -0.15193,-0.0362 -0.11093,0 -0.22186,0.0844 -0.11093,0.0844 -0.23875,0.24598 v 1.43006 q 0,0.0241 -0.0145,0.0434 -0.0145,0.0169 -0.0506,0.0289 -0.0338,0.0121 -0.0916,0.0169 -0.0579,0.007 -0.1471,0.007 -0.0892,0 -0.14711,-0.007 -0.0579,-0.005 -0.094,-0.0169 -0.0338,-0.0121 -0.0482,-0.0289 -0.0145,-0.0193 -0.0145,-0.0434 v -2.15112 q 0,-0.0241 0.0121,-0.041 0.0121,-0.0193 0.0434,-0.0314 0.0313,-0.012 0.0796,-0.0169 0.0506,-0.007 0.1254,-0.007 0.0772,0 0.12782,0.007 0.0506,0.005 0.0772,0.0169 0.0289,0.0121 0.041,0.0314 0.0121,0.0169 0.0121,0.041 v 0.24839 q 0.17845,-0.19292 0.3545,-0.28939 0.17845,-0.0965 0.37137,-0.0965 0.13264,0 0.23875,0.0289 0.10611,0.0265 0.18809,0.0796 0.0844,0.0506 0.1447,0.12299 0.0603,0.0724 0.10128,0.16158 0.0965,-0.1037 0.18811,-0.17846 0.0941,-0.0748 0.18328,-0.12058 0.0916,-0.0482 0.18086,-0.0699 0.0916,-0.0241 0.18569,-0.0241 0.21463,0 0.36174,0.0724 0.1471,0.0724 0.23633,0.19775 0.0916,0.12299 0.13023,0.28938 0.0386,0.1664 0.0386,0.35209 z"
             inkscape:connector-curvature="0" />
          <path
             id="path1265"
             style="font-style:normal;font-variant:normal;font-weight:bold;font-stretch:normal;font-size:10.58329964px;line-height:1.25;font-family:Calibri;-inkscape-font-specification:'Calibri Bold';letter-spacing:0px;word-spacing:0px;fill:#000000;fill-opacity:1;stroke:none;stroke-width:0.26458299"
             d="m -232.54718,171.1487 q 0,0.0338 -0.0241,0.0531 -0.0241,0.0193 -0.0772,0.0265 -0.0506,0.01 -0.15193,0.01 -0.10852,0 -0.15916,-0.01 -0.0482,-0.007 -0.0699,-0.0265 -0.0193,-0.0193 -0.0193,-0.0531 v -0.17122 q -0.13264,0.14228 -0.30386,0.22187 -0.16881,0.0796 -0.3762,0.0796 -0.17123,0 -0.31592,-0.0458 -0.14228,-0.0434 -0.24839,-0.13023 -0.1037,-0.0892 -0.16158,-0.21945 -0.0579,-0.13022 -0.0579,-0.30386 0,-0.1881 0.0723,-0.32556 0.0748,-0.13987 0.21946,-0.2291 0.1471,-0.0916 0.36414,-0.13505 0.21704,-0.0434 0.50402,-0.0434 h 0.20981 v -0.13023 q 0,-0.10128 -0.0217,-0.17604 -0.0193,-0.0772 -0.0675,-0.12782 -0.0458,-0.0506 -0.1254,-0.0747 -0.0772,-0.0241 -0.19293,-0.0241 -0.15193,0 -0.27251,0.0338 -0.11816,0.0338 -0.2098,0.0748 -0.0916,0.041 -0.15434,0.0748 -0.0603,0.0338 -0.0989,0.0338 -0.0265,0 -0.0482,-0.0169 -0.0193,-0.0169 -0.0338,-0.0482 -0.0121,-0.0314 -0.0193,-0.0772 -0.007,-0.0458 -0.007,-0.10129 0,-0.0748 0.0121,-0.11816 0.0121,-0.0434 0.0458,-0.0772 0.0338,-0.0362 0.11817,-0.0772 0.0844,-0.0434 0.19775,-0.0796 0.11334,-0.0362 0.24598,-0.0579 0.13504,-0.0241 0.27733,-0.0241 0.25321,0 0.43167,0.0506 0.18086,0.0482 0.29662,0.15193 0.11575,0.10129 0.16881,0.26286 0.053,0.16158 0.053,0.38344 z m -0.59565,-0.92122 h -0.2315 q -0.14711,0 -0.25081,0.0217 -0.10369,0.0217 -0.16882,0.0651 -0.0651,0.0434 -0.0965,0.10611 -0.0289,0.0603 -0.0289,0.13987 0,0.13505 0.0844,0.21222 0.0868,0.0772 0.23874,0.0772 0.12781,0 0.23392,-0.0651 0.10852,-0.0651 0.21946,-0.19052 z"
             inkscape:connector-curvature="0" />
          <path
             id="path1267"
             style="font-style:normal;font-variant:normal;font-weight:bold;font-stretch:normal;font-size:10.58329964px;line-height:1.25;font-family:Calibri;-inkscape-font-specification:'Calibri Bold';letter-spacing:0px;word-spacing:0px;fill:#000000;fill-opacity:1;stroke:none;stroke-width:0.26458299"
             d="m -231.33175,171.14147 q 0,0.0241 -0.0145,0.0434 -0.0145,0.0169 -0.0506,0.0289 -0.0338,0.0121 -0.0916,0.0169 -0.0579,0.007 -0.14709,0.007 -0.0892,0 -0.14711,-0.007 -0.0579,-0.005 -0.0941,-0.0169 -0.0338,-0.0121 -0.0482,-0.0289 -0.0145,-0.0193 -0.0145,-0.0434 v -2.1463 q 0,-0.0241 0.0145,-0.041 0.0145,-0.0193 0.0482,-0.0314 0.0362,-0.0145 0.0941,-0.0217 0.0579,-0.007 0.14711,-0.007 0.0892,0 0.14709,0.007 0.0579,0.007 0.0916,0.0217 0.0362,0.0121 0.0506,0.0314 0.0145,0.0169 0.0145,0.041 z m 0.0458,-2.87941 q 0,0.18328 -0.0748,0.25321 -0.0747,0.0699 -0.27734,0.0699 -0.20498,0 -0.27733,-0.0675 -0.0699,-0.0675 -0.0699,-0.24356 0,-0.18328 0.0724,-0.25322 0.0747,-0.0724 0.27974,-0.0724 0.20257,0 0.27492,0.0699 0.0723,0.0675 0.0723,0.24357 z"
             inkscape:connector-curvature="0" />
          <path
             id="path1269"
             style="font-style:normal;font-variant:normal;font-weight:bold;font-stretch:normal;font-size:10.58329964px;line-height:1.25;font-family:Calibri;-inkscape-font-specification:'Calibri Bold';letter-spacing:0px;word-spacing:0px;fill:#000000;fill-opacity:1;stroke:none;stroke-width:0.26458299"
             d="m -230.11632,171.14147 q 0,0.0241 -0.0145,0.0434 -0.0145,0.0169 -0.0506,0.0289 -0.0338,0.0121 -0.0916,0.0169 -0.0579,0.007 -0.14711,0.007 -0.0892,0 -0.14709,-0.007 -0.0579,-0.005 -0.0941,-0.0169 -0.0338,-0.0121 -0.0482,-0.0289 -0.0145,-0.0193 -0.0145,-0.0434 v -3.17121 q 0,-0.0241 0.0145,-0.0434 0.0145,-0.0193 0.0482,-0.0314 0.0362,-0.0145 0.0941,-0.0217 0.0579,-0.007 0.14709,-0.007 0.0892,0 0.14711,0.007 0.0579,0.007 0.0916,0.0217 0.0362,0.0121 0.0506,0.0314 0.0145,0.0193 0.0145,0.0434 z"
             inkscape:connector-curvature="0" />
          <path
             id="path1271"
             style="font-style:normal;font-variant:normal;font-weight:bold;font-stretch:normal;font-size:10.58329964px;line-height:1.25;font-family:Calibri;-inkscape-font-specification:'Calibri Bold';letter-spacing:0px;word-spacing:0px;fill:#000000;fill-opacity:1;stroke:none;stroke-width:0.26458299"
             d="m -228.74654,169.31832 q 0,0.10129 -0.0169,0.16881 -0.0169,0.0675 -0.0579,0.11094 -0.0386,0.0434 -0.10369,0.0627 -0.0651,0.0169 -0.16399,0.0169 -0.0989,0 -0.16399,-0.0169 -0.0651,-0.0193 -0.10611,-0.0627 -0.0386,-0.0434 -0.0531,-0.11094 -0.0145,-0.0675 -0.0145,-0.16881 0,-0.10369 0.0145,-0.17363 0.0145,-0.0699 0.0531,-0.11334 0.041,-0.0434 0.10611,-0.0627 0.0651,-0.0193 0.16399,-0.0193 0.0989,0 0.16399,0.0193 0.0651,0.0193 0.10369,0.0627 0.041,0.0434 0.0579,0.11334 0.0169,0.0699 0.0169,0.17363 z m 0,1.57476 q 0,0.10128 -0.0169,0.17122 -0.0169,0.0675 -0.0579,0.11093 -0.0386,0.0434 -0.10369,0.0603 -0.0651,0.0193 -0.16399,0.0193 -0.0989,0 -0.16399,-0.0193 -0.0651,-0.0169 -0.10611,-0.0603 -0.0386,-0.0434 -0.0531,-0.11093 -0.0145,-0.0699 -0.0145,-0.17122 0,-0.10129 0.0145,-0.17122 0.0145,-0.0724 0.0531,-0.11576 0.041,-0.0434 0.10611,-0.0603 0.0651,-0.0193 0.16399,-0.0193 0.0989,0 0.16399,0.0193 0.0651,0.0169 0.10369,0.0603 0.041,0.0434 0.0579,0.11576 0.0169,0.0699 0.0169,0.17122 z"
             inkscape:connector-curvature="0" />
          <text
             xml:space="preserve"
             style="font-style:normal;font-weight:normal;font-size:6.06936979px;line-height:1.25;font-family:sans-serif;fill:#000000;fill-opacity:1;stroke:none;stroke-width:0.087539"
             x="-143.22542"
             y="155.5468"
             id="text1117"
             transform="scale(1.0011194,0.99888186)"><tspan
               sodipodi:role="line"
               id="tspan1115"
               x="-143.22542"
               y="155.5468"
               style="font-style:normal;font-variant:normal;font-weight:normal;font-stretch:normal;font-size:6.06936979px;font-family:Arial;-inkscape-font-specification:Arial;stroke-width:0.087539">xxxxxxxxxxxxxxx</tspan></text>
          <text
             xml:space="preserve"
             style="font-style:normal;font-weight:normal;font-size:6.06936979px;line-height:1.25;font-family:sans-serif;fill:#000000;fill-opacity:1;stroke:none;stroke-width:0.087539"
             x="-133.15842"
             y="162.37483"
             id="text2007"
             transform="scale(1.0011194,0.99888186)"><tspan
               sodipodi:role="line"
               id="tspan2005"
               x="-133.15842"
               y="162.37483"
               style="font-style:normal;font-variant:normal;font-weight:normal;font-stretch:normal;font-size:6.06936979px;font-family:Arial;-inkscape-font-specification:Arial;stroke-width:0.087539">xxxxxxxxxx</tspan></text>
          <text
             xml:space="preserve"
             style="font-style:normal;font-variant:normal;font-weight:bold;font-stretch:normal;font-size:8.40375042px;line-height:1.25;font-family:Arial;-inkscape-font-specification:'Arial Bold';fill:#000000;fill-opacity:1;stroke:none;stroke-width:0.087539"
             x="-242.66138"
             y="144.42143"
             id="text2130"
             transform="scale(1.0011194,0.99888186)"><tspan
               sodipodi:role="line"
               id="tspan2128"
               x="-242.66138"
               y="144.42143"
               style="font-style:normal;font-variant:normal;font-weight:bold;font-stretch:normal;font-size:8.40375042px;font-family:Arial;-inkscape-font-specification:'Arial Bold';stroke-width:0.087539">Zigma Technologies Pvt. Ltd.</tspan></text>
          <g
             id="g2373"
             transform="translate(-4.7324001,2.9729993)">
            <text
               xml:space="preserve"
               style="font-style:normal;font-weight:normal;font-size:4.66874981px;line-height:1.25;font-family:sans-serif;fill:#000000;fill-opacity:1;stroke:none;stroke-width:0.087539"
               x="-237.76759"
               y="147.66827"
               id="text2345"
               transform="scale(1.0011194,0.99888186)"><tspan
                 sodipodi:role="line"
                 id="tspan2343"
                 x="-237.76759"
                 y="147.66827"
                 style="font-style:normal;font-variant:normal;font-weight:normal;font-stretch:normal;font-size:4.66874981px;font-family:Arial;-inkscape-font-specification:Arial;stroke-width:0.087539">#8, Tirumala home, 3rd Cross</tspan></text>
            <text
               xml:space="preserve"
               style="font-style:normal;font-weight:normal;font-size:4.66874981px;line-height:1.25;font-family:sans-serif;fill:#000000;fill-opacity:1;stroke:none;stroke-width:0.087539"
               x="-237.76759"
               y="152.83308"
               id="text2349"
               transform="scale(1.0011194,0.99888186)"><tspan
                 sodipodi:role="line"
                 id="tspan2347"
                 x="-237.76759"
                 y="152.83308"
                 style="font-style:normal;font-variant:normal;font-weight:normal;font-stretch:normal;font-size:4.66874981px;font-family:Arial;-inkscape-font-specification:Arial;stroke-width:0.087539">Roopena agarhara</tspan></text>
            <text
               xml:space="preserve"
               style="font-style:normal;font-weight:normal;font-size:4.66874981px;line-height:1.25;font-family:sans-serif;fill:#000000;fill-opacity:1;stroke:none;stroke-width:0.087539"
               x="-237.76759"
               y="158.17297"
               id="text2353"
               transform="scale(1.0011194,0.99888186)"><tspan
                 sodipodi:role="line"
                 id="tspan2351"
                 x="-237.76759"
                 y="158.17297"
                 style="font-style:normal;font-variant:normal;font-weight:normal;font-stretch:normal;font-size:4.66874981px;font-family:Arial;-inkscape-font-specification:Arial;stroke-width:0.087539">Bangalore-68, India</tspan></text>
            <text
               xml:space="preserve"
               style="font-style:normal;font-weight:normal;font-size:4.66874981px;line-height:1.25;font-family:sans-serif;fill:#000000;fill-opacity:1;stroke:none;stroke-width:0.087539"
               x="-229.18877"
               y="163.33778"
               id="text2357"
               transform="scale(1.0011194,0.99888186)"><tspan
                 sodipodi:role="line"
                 id="tspan2355"
                 x="-229.18877"
                 y="163.33778"
                 style="font-style:normal;font-variant:normal;font-weight:normal;font-stretch:normal;font-size:4.66874981px;font-family:Arial;-inkscape-font-specification:Arial;stroke-width:0.087539">080- 64569538/ 9590137666</tspan></text>
            <text
               xml:space="preserve"
               style="font-style:normal;font-weight:normal;font-size:4.66874981px;line-height:1.25;font-family:sans-serif;fill:#000000;fill-opacity:1;stroke:none;stroke-width:0.087539"
               x="-222.18564"
               y="168.50259"
               id="text2361"
               transform="scale(1.0011194,0.99888186)"><tspan
                 sodipodi:role="line"
                 id="tspan2359"
                 x="-222.18564"
                 y="168.50259"
                 style="font-style:normal;font-variant:normal;font-weight:normal;font-stretch:normal;font-size:4.66874981px;font-family:Arial;-inkscape-font-specification:Arial;stroke-width:0.087539">services@zigma-technologies.com</tspan></text>
          </g>
          <g
             id="g1008">
            <path
               id="rect123"
               style="opacity:1;fill:#00376d;fill-opacity:1;stroke-width:0.175078"
               d="m -296.02273,138.13906 c -2.26076,0 -4.08077,1.82011 -4.08077,4.08087 v 15.44737 c 0,2.26076 1.82001,4.08088 4.08077,4.08088 h 14.90223 v -0.76511 a 10.684326,11.036698 0 0 1 -8.94924,-10.89019 10.684326,11.036698 0 0 1 8.94924,-10.89018 v -1.06364 z m 18.93011,0 v 1.17431 a 10.684326,11.036698 0 0 1 8.39159,10.77951 10.684326,11.036698 0 0 1 -8.39159,10.77952 v 0.87578 h 13.30902 c 2.26076,0 4.08077,-1.82012 4.08077,-4.08088 v -15.44737 c 0,-2.26076 -1.82001,-4.08087 -4.08077,-4.08087 z m -7.03595,4.70235 -0.37828,4.04928 h 0.37828 c 0.15675,-0.66639 0.37149,-1.21714 0.6441,-1.65233 0.27942,-0.43519 0.62685,-0.78202 1.04257,-1.04041 0.42254,-0.2652 0.87241,-0.44206 1.34947,-0.53046 0.25216,-0.0476 0.77685,-0.0714 1.57422,-0.0714 h 2.05485 l -8.15778,13.07621 h 12.69659 l 0.56228,-4.99798 h -0.39865 c -0.22489,1.10158 -0.63037,1.98226 -1.21647,2.64185 -0.5861,0.65279 -1.28476,1.10149 -2.09576,1.34628 -0.4975,0.1564 -1.3698,0.23466 -2.61696,0.23466 h -2.6375 l 8.14751,-13.05572 z"
               inkscape:connector-curvature="0" />
            <g
               aria-label="Technologies"
               transform="scale(1.0011194,0.99888186)"
               id="text127"
               style="font-style:normal;font-weight:normal;font-size:7.44987011px;line-height:1.25;font-family:sans-serif;fill:#01366c;fill-opacity:1;stroke:none;stroke-width:0.18624701">
              <path
                 d="m -295.06831,163.30153 0.0546,1.15677 h -0.13823 q -0.04,-0.30556 -0.10913,-0.43652 -0.11276,-0.21098 -0.30192,-0.3092 -0.18552,-0.10185 -0.49108,-0.10185 h -0.69479 v 3.76859 q 0,0.4547 0.0982,0.56747 0.13823,0.15278 0.4256,0.15278 h 0.17097 v 0.13459 h -2.09164 v -0.13459 h 0.17461 q 0.31283,0 0.44379,-0.18916 0.08,-0.1164 0.08,-0.53109 v -3.76859 h -0.59294 q -0.34557,0 -0.49108,0.0509 -0.18915,0.0691 -0.32375,0.26555 -0.13459,0.19643 -0.16005,0.53109 h -0.13823 l 0.0582,-1.15677 z"
                 style="font-style:normal;font-variant:normal;font-weight:normal;font-stretch:normal;font-family:'Times New Roman';-inkscape-font-specification:'Times New Roman, ';fill:#01366c;fill-opacity:1;stroke-width:0.18624701"
                 id="path138"
                 inkscape:connector-curvature="0" />
              <path
                 d="m -294.55541,166.15707 q -0.004,0.74208 0.36013,1.16405 0.36376,0.42196 0.85484,0.42196 0.32739,0 0.56747,-0.17824 0.24372,-0.18188 0.40742,-0.6184 l 0.11276,0.0728 q -0.0764,0.49836 -0.44379,0.90941 -0.3674,0.40742 -0.92032,0.40742 -0.60021,0 -1.02945,-0.46562 -0.4256,-0.46926 -0.4256,-1.25862 0,-0.85485 0.43652,-1.33138 0.44015,-0.48016 1.1022,-0.48016 0.56019,0 0.92032,0.37104 0.36012,0.3674 0.36012,0.98579 z m 0,-0.21098 h 1.54236 q -0.0182,-0.32011 -0.0764,-0.45107 -0.0909,-0.2037 -0.27282,-0.32011 -0.17825,-0.1164 -0.37468,-0.1164 -0.30192,0 -0.54201,0.23644 -0.23644,0.23281 -0.27646,0.65114 z"
                 style="font-style:normal;font-variant:normal;font-weight:normal;font-stretch:normal;font-family:'Times New Roman';-inkscape-font-specification:'Times New Roman, ';fill:#01366c;fill-opacity:1;stroke-width:0.18624701"
                 id="path140"
                 inkscape:connector-curvature="0" />
              <path
                 d="m -288.97892,166.96827 q -0.13459,0.65841 -0.52745,1.01489 -0.39287,0.35286 -0.8694,0.35286 -0.56747,0 -0.98943,-0.47653 -0.42197,-0.47653 -0.42197,-1.28773 0,-0.78572 0.46562,-1.27681 0.46925,-0.49108 1.12403,-0.49108 0.49108,0 0.80755,0.26191 0.31648,0.25828 0.31648,0.53837 0,0.13823 -0.091,0.22554 -0.0873,0.0837 -0.24735,0.0837 -0.21462,0 -0.32375,-0.13823 -0.0618,-0.0764 -0.0837,-0.29101 -0.0182,-0.21462 -0.1455,-0.32739 -0.12732,-0.10912 -0.35285,-0.10912 -0.36377,0 -0.58566,0.26918 -0.29465,0.35649 -0.29465,0.94215 0,0.59657 0.29101,1.05491 0.29465,0.4547 0.793,0.4547 0.35649,0 0.64023,-0.24372 0.20007,-0.16733 0.38922,-0.60748 z"
                 style="font-style:normal;font-variant:normal;font-weight:normal;font-stretch:normal;font-family:'Times New Roman';-inkscape-font-specification:'Times New Roman, ';fill:#01366c;fill-opacity:1;stroke-width:0.18624701"
                 id="path142"
                 inkscape:connector-curvature="0" />
              <path
                 d="m -287.52386,163.06145 v 2.43721 q 0.40377,-0.44379 0.64022,-0.56747 0.23645,-0.12732 0.47289,-0.12732 0.28374,0 0.48744,0.15642 0.20371,0.15642 0.30193,0.49108 0.0691,0.23281 0.0691,0.85121 v 1.17859 q 0,0.31648 0.0509,0.43288 0.0364,0.0873 0.12368,0.13823 0.0873,0.0509 0.32011,0.0509 v 0.13095 h -1.63693 v -0.13095 h 0.0764 q 0.23281,0 0.32375,-0.0691 0.0909,-0.0727 0.12731,-0.21098 0.0109,-0.0582 0.0109,-0.34194 v -1.17859 q 0,-0.54565 -0.0582,-0.71661 -0.0546,-0.17097 -0.17824,-0.25464 -0.12368,-0.0873 -0.29829,-0.0873 -0.17824,0 -0.37103,0.0946 -0.1928,0.0946 -0.46198,0.38195 v 1.76061 q 0,0.34194 0.0364,0.4256 0.04,0.0837 0.14187,0.14187 0.10549,0.0546 0.36013,0.0546 v 0.13095 h -1.65149 v -0.13095 q 0.2219,0 0.34921,-0.0691 0.0728,-0.0364 0.11641,-0.13823 0.0437,-0.10185 0.0437,-0.41469 v -3.0156 q 0,-0.5711 -0.0291,-0.70206 -0.0255,-0.13095 -0.0837,-0.17824 -0.0546,-0.0473 -0.14914,-0.0473 -0.0764,0 -0.24736,0.0582 l -0.0509,-0.12732 0.99672,-0.40741 z"
                 style="font-style:normal;font-variant:normal;font-weight:normal;font-stretch:normal;font-family:'Times New Roman';-inkscape-font-specification:'Times New Roman, ';fill:#01366c;fill-opacity:1;stroke-width:0.18624701"
                 id="path144"
                 inkscape:connector-curvature="0" />
              <path
                 d="m -283.8062,165.50958 q 0.58566,-0.70571 1.11675,-0.70571 0.27282,0 0.46925,0.13823 0.19644,0.1346 0.31284,0.44743 0.08,0.21826 0.08,0.66933 v 1.42231 q 0,0.31648 0.0509,0.42924 0.04,0.0909 0.12731,0.14187 0.0909,0.0509 0.33103,0.0509 v 0.13095 h -1.64785 v -0.13095 h 0.0691 q 0.23281,0 0.32375,-0.0691 0.0946,-0.0727 0.13096,-0.21098 0.0145,-0.0546 0.0145,-0.34194 v -1.36411 q 0,-0.4547 -0.12004,-0.65841 -0.11641,-0.20735 -0.3965,-0.20735 -0.43288,0 -0.86212,0.4729 v 1.75697 q 0,0.3383 0.04,0.41833 0.0509,0.10549 0.13823,0.15642 0.0909,0.0473 0.36376,0.0473 v 0.13095 h -1.64784 v -0.13095 h 0.0727 q 0.25463,0 0.34194,-0.12732 0.0909,-0.13096 0.0909,-0.49472 v -1.23679 q 0,-0.60021 -0.0291,-0.73117 -0.0255,-0.13095 -0.0837,-0.17824 -0.0546,-0.0473 -0.14914,-0.0473 -0.10186,0 -0.24372,0.0546 l -0.0546,-0.13095 1.00399,-0.40742 h 0.15642 z"
                 style="font-style:normal;font-variant:normal;font-weight:normal;font-stretch:normal;font-family:'Times New Roman';-inkscape-font-specification:'Times New Roman, ';fill:#01366c;fill-opacity:1;stroke-width:0.18624701"
                 id="path146"
                 inkscape:connector-curvature="0" />
              <path
                 d="m -279.42286,164.80387 q 0.75663,0 1.21497,0.57475 0.38923,0.49108 0.38923,1.12767 0,0.44742 -0.21462,0.90577 -0.21462,0.45834 -0.59294,0.69115 -0.37467,0.23281 -0.83665,0.23281 -0.75299,0 -1.19678,-0.60021 -0.37468,-0.50564 -0.37468,-1.13495 0,-0.45834 0.22554,-0.9094 0.22917,-0.45471 0.6002,-0.66933 0.37104,-0.21826 0.78573,-0.21826 z m -0.11276,0.23645 q -0.1928,0 -0.38923,0.1164 -0.19279,0.11277 -0.31284,0.40014 -0.12004,0.28738 -0.12004,0.73844 0,0.72753 0.28737,1.25499 0.29102,0.52745 0.76391,0.52745 0.35285,0 0.58202,-0.29101 0.22917,-0.29101 0.22917,-1.00035 0,-0.88758 -0.38195,-1.39685 -0.25827,-0.34921 -0.65841,-0.34921 z"
                 style="font-style:normal;font-variant:normal;font-weight:normal;font-stretch:normal;font-family:'Times New Roman';-inkscape-font-specification:'Times New Roman, ';fill:#01366c;fill-opacity:1;stroke-width:0.18624701"
                 id="path148"
                 inkscape:connector-curvature="0" />
              <path
                 d="m -276.18173,163.06145 v 4.41972 q 0,0.31284 0.0437,0.41469 0.0473,0.10186 0.14187,0.15642 0.0946,0.0509 0.35285,0.0509 v 0.13095 h -1.6333 v -0.13095 q 0.22918,0 0.31284,-0.0473 0.0837,-0.0473 0.13096,-0.15642 0.0473,-0.10913 0.0473,-0.41833 v -3.02651 q 0,-0.56383 -0.0255,-0.69115 -0.0255,-0.13095 -0.0837,-0.17824 -0.0546,-0.0473 -0.14187,-0.0473 -0.0946,0 -0.24009,0.0582 l -0.0618,-0.12732 0.99307,-0.40741 z"
                 style="font-style:normal;font-variant:normal;font-weight:normal;font-stretch:normal;font-family:'Times New Roman';-inkscape-font-specification:'Times New Roman, ';fill:#01366c;fill-opacity:1;stroke-width:0.18624701"
                 id="path150"
                 inkscape:connector-curvature="0" />
              <path
                 d="m -273.62811,164.80387 q 0.75663,0 1.21497,0.57475 0.38923,0.49108 0.38923,1.12767 0,0.44742 -0.21462,0.90577 -0.21463,0.45834 -0.59294,0.69115 -0.37467,0.23281 -0.83665,0.23281 -0.75299,0 -1.19679,-0.60021 -0.37467,-0.50564 -0.37467,-1.13495 0,-0.45834 0.22553,-0.9094 0.22917,-0.45471 0.60021,-0.66933 0.37104,-0.21826 0.78573,-0.21826 z m -0.11277,0.23645 q -0.19279,0 -0.38922,0.1164 -0.1928,0.11277 -0.31284,0.40014 -0.12004,0.28738 -0.12004,0.73844 0,0.72753 0.28737,1.25499 0.29101,0.52745 0.7639,0.52745 0.35285,0 0.58203,-0.29101 0.22917,-0.29101 0.22917,-1.00035 0,-0.88758 -0.38196,-1.39685 -0.25827,-0.34921 -0.65841,-0.34921 z"
                 style="font-style:normal;font-variant:normal;font-weight:normal;font-stretch:normal;font-family:'Times New Roman';-inkscape-font-specification:'Times New Roman, ';fill:#01366c;fill-opacity:1;stroke-width:0.18624701"
                 id="path152"
                 inkscape:connector-curvature="0" />
              <path
                 d="m -270.64161,167.01919 q -0.30556,-0.14914 -0.46926,-0.41469 -0.16369,-0.26918 -0.16369,-0.59293 0,-0.49472 0.37104,-0.85121 0.37467,-0.35649 0.95669,-0.35649 0.47653,0 0.82575,0.23281 h 0.7057 q 0.15641,0 0.18188,0.0109 0.0255,0.007 0.0364,0.0291 0.0218,0.0327 0.0218,0.1164 0,0.0946 -0.0182,0.13096 -0.0109,0.0182 -0.04,0.0291 -0.0255,0.0109 -0.18188,0.0109 h -0.43288 q 0.20371,0.26191 0.20371,0.66932 0,0.46562 -0.35649,0.79665 -0.35649,0.33102 -0.9567,0.33102 -0.24736,0 -0.50563,-0.0727 -0.16006,0.13823 -0.21826,0.24372 -0.0546,0.10185 -0.0546,0.1746 0,0.0618 0.0582,0.12005 0.0618,0.0582 0.23645,0.0837 0.10185,0.0145 0.50926,0.0255 0.74936,0.0182 0.97125,0.0509 0.3383,0.0473 0.53837,0.251 0.20371,0.20371 0.20371,0.50199 0,0.41105 -0.38559,0.77118 -0.56747,0.53109 -1.48052,0.53109 -0.70206,0 -1.18586,-0.31647 -0.27283,-0.18188 -0.27283,-0.37831 0,-0.0873 0.04,-0.17461 0.0618,-0.13459 0.25463,-0.37468 0.0255,-0.0327 0.37104,-0.39286 -0.18916,-0.11277 -0.26918,-0.20007 -0.0764,-0.0909 -0.0764,-0.20371 0,-0.12731 0.10186,-0.29828 0.10549,-0.17097 0.48017,-0.48381 z m 0.63294,-2.04071 q -0.26918,0 -0.45106,0.21462 -0.18188,0.21462 -0.18188,0.65841 0,0.57475 0.24736,0.89122 0.18915,0.24009 0.48016,0.24009 0.27646,0 0.45471,-0.20735 0.17824,-0.20734 0.17824,-0.65114 0,-0.57838 -0.251,-0.90577 -0.18552,-0.24008 -0.47653,-0.24008 z m -0.66932,3.25568 q -0.17097,0.18552 -0.25827,0.34558 -0.0873,0.16005 -0.0873,0.29464 0,0.17461 0.21099,0.30557 0.36376,0.22553 1.05127,0.22553 0.65478,0 0.96398,-0.23281 0.31283,-0.22917 0.31283,-0.49108 0,-0.18916 -0.18552,-0.26918 -0.18915,-0.08 -0.74935,-0.0946 -0.81847,-0.0218 -1.25862,-0.0837 z"
                 style="font-style:normal;font-variant:normal;font-weight:normal;font-stretch:normal;font-family:'Times New Roman';-inkscape-font-specification:'Times New Roman, ';fill:#01366c;fill-opacity:1;stroke-width:0.18624701"
                 id="path154"
                 inkscape:connector-curvature="0" />
              <path
                 d="m -266.96033,163.06145 q 0.15278,0 0.25827,0.10913 0.10913,0.10549 0.10913,0.25827 0,0.15278 -0.10913,0.26191 -0.10549,0.10913 -0.25827,0.10913 -0.15278,0 -0.26191,-0.10913 -0.10913,-0.10913 -0.10913,-0.26191 0,-0.15278 0.10549,-0.25827 0.10913,-0.10913 0.26555,-0.10913 z m 0.30192,1.74242 v 2.6773 q 0,0.31284 0.0437,0.41833 0.0473,0.10185 0.13459,0.15278 0.0909,0.0509 0.32738,0.0509 v 0.13095 h -1.61874 v -0.13095 q 0.24372,0 0.32738,-0.0473 0.0837,-0.0473 0.13096,-0.15642 0.0509,-0.10913 0.0509,-0.41833 v -1.28408 q 0,-0.54201 -0.0327,-0.70207 -0.0255,-0.1164 -0.08,-0.16005 -0.0546,-0.0473 -0.14914,-0.0473 -0.10186,0 -0.24736,0.0546 l -0.0509,-0.13095 1.00399,-0.40742 z"
                 style="font-style:normal;font-variant:normal;font-weight:normal;font-stretch:normal;font-family:'Times New Roman';-inkscape-font-specification:'Times New Roman, ';fill:#01366c;fill-opacity:1;stroke-width:0.18624701"
                 id="path156"
                 inkscape:connector-curvature="0" />
              <path
                 d="m -265.17789,166.15707 q -0.004,0.74208 0.36013,1.16405 0.36376,0.42196 0.85484,0.42196 0.32739,0 0.56747,-0.17824 0.24372,-0.18188 0.40741,-0.6184 l 0.11277,0.0728 q -0.0764,0.49836 -0.44379,0.90941 -0.3674,0.40742 -0.92032,0.40742 -0.60021,0 -1.02945,-0.46562 -0.4256,-0.46926 -0.4256,-1.25862 0,-0.85485 0.43651,-1.33138 0.44016,-0.48016 1.1022,-0.48016 0.5602,0 0.92033,0.37104 0.36012,0.3674 0.36012,0.98579 z m 0,-0.21098 h 1.54236 q -0.0182,-0.32011 -0.0764,-0.45107 -0.0909,-0.2037 -0.27283,-0.32011 -0.17824,-0.1164 -0.37467,-0.1164 -0.30193,0 -0.54201,0.23644 -0.23645,0.23281 -0.27646,0.65114 z"
                 style="font-style:normal;font-variant:normal;font-weight:normal;font-stretch:normal;font-family:'Times New Roman';-inkscape-font-specification:'Times New Roman, ';fill:#01366c;fill-opacity:1;stroke-width:0.18624701"
                 id="path158"
                 inkscape:connector-curvature="0" />
              <path
                 d="m -260.278,164.80387 v 1.13495 h -0.12004 q -0.13823,-0.53474 -0.35649,-0.72753 -0.21462,-0.1928 -0.54928,-0.1928 -0.25464,0 -0.41106,0.1346 -0.15641,0.13459 -0.15641,0.29828 0,0.20371 0.1164,0.34922 0.11277,0.14914 0.45834,0.31647 l 0.5311,0.25827 q 0.73844,0.36013 0.73844,0.94942 0,0.45471 -0.34558,0.73481 -0.34194,0.27646 -0.76754,0.27646 -0.30556,0 -0.69843,-0.10913 -0.12004,-0.0364 -0.19643,-0.0364 -0.0837,0 -0.13095,0.0946 h -0.12004 v -1.18951 h 0.12004 q 0.10185,0.50927 0.38922,0.76754 0.28738,0.25827 0.64387,0.25827 0.25099,0 0.40741,-0.1455 0.16006,-0.14914 0.16006,-0.35649 0,-0.251 -0.17825,-0.42196 -0.1746,-0.17097 -0.70206,-0.43288 -0.52746,-0.26191 -0.69115,-0.47289 -0.16369,-0.20735 -0.16369,-0.52382 0,-0.41106 0.28009,-0.68752 0.28374,-0.27646 0.73117,-0.27646 0.19643,0 0.47653,0.0837 0.18552,0.0546 0.24736,0.0546 0.0582,0 0.0909,-0.0255 0.0327,-0.0255 0.0764,-0.11277 z"
                 style="font-style:normal;font-variant:normal;font-weight:normal;font-stretch:normal;font-family:'Times New Roman';-inkscape-font-specification:'Times New Roman, ';fill:#01366c;fill-opacity:1;stroke-width:0.18624701"
                 id="path160"
                 inkscape:connector-curvature="0" />
            </g>
          </g>
          <g
             aria-label="Z"
             transform="scale(1.0011194,0.99888186)"
             id="text165"
             style="font-style:normal;font-weight:normal;font-size:20.91259956px;line-height:1.25;font-family:sans-serif;fill:#01366c;fill-opacity:1;stroke:none;stroke-width:0.10892" />
        </g>
      </g>
    </g>
  </g>
</svg>
