<svg width="501" height="500" viewBox="0 0 501 500" fill="none" xmlns="http://www.w3.org/2000/svg">
<g clip-path="url(#clip0)">
<rect x="1" width="500" height="500" rx="135" fill="url(#paint0_linear)"/>
<rect x="361.457" y="37.3086" width="145" height="457" rx="72.5" transform="rotate(45 361.457 37.3086)" fill="url(#paint1_linear)"/>
<rect x="38.3086" y="139.839" width="145" height="457" rx="72.5" transform="rotate(-45 38.3086 139.839)" fill="url(#paint2_linear)"/>
<g filter="url(#filter0_f)">
<circle cx="252" cy="250" r="75" fill="url(#paint3_linear)"/>
</g>
<path fill-rule="evenodd" clip-rule="evenodd" d="M74.2243 169.989C129.811 202.737 202.551 195.243 250.288 147.507C250.312 147.482 250.337 147.457 250.362 147.432L250.438 147.509L309.482 88.4655C315.739 82.2088 322.855 77.3347 330.45 73.8433C297.613 129.447 305.081 202.263 352.855 250.037C353.999 251.181 355.157 252.302 356.33 253.4L412.012 309.083C418.344 315.414 423.259 322.626 426.759 330.323C371.121 297.301 298.145 304.716 250.294 352.567C248.982 353.88 247.7 355.211 246.449 356.559L191.395 411.613C185.039 417.97 177.795 422.899 170.063 426.401C202.999 370.806 195.589 297.937 147.834 250.113L147.908 250.039L88.8645 190.996C82.597 184.728 77.7169 177.599 74.2243 169.989Z" fill="url(#paint4_linear)"/>
<g filter="url(#filter1_d)">
<circle cx="251" cy="251" r="41" transform="rotate(-180 251 251)" fill="url(#paint5_linear)"/>
<circle cx="251.148" cy="250.854" r="32" transform="rotate(-180 251.148 250.854)" fill="#FA0A36"/>
</g>
</g>
<defs>
<filter id="filter0_f" x="77" y="75" width="350" height="350" filterUnits="userSpaceOnUse" color-interpolation-filters="sRGB">
<feFlood flood-opacity="0" result="BackgroundImageFix"/>
<feBlend mode="normal" in="SourceGraphic" in2="BackgroundImageFix" result="shape"/>
<feGaussianBlur stdDeviation="50" result="effect1_foregroundBlur"/>
</filter>
<filter id="filter1_d" x="190" y="190" width="122" height="122" filterUnits="userSpaceOnUse" color-interpolation-filters="sRGB">
<feFlood flood-opacity="0" result="BackgroundImageFix"/>
<feColorMatrix in="SourceAlpha" type="matrix" values="0 0 0 0 0 0 0 0 0 0 0 0 0 0 0 0 0 0 127 0"/>
<feOffset/>
<feGaussianBlur stdDeviation="10"/>
<feColorMatrix type="matrix" values="0 0 0 0 0 0 0 0 0 0 0 0 0 0 0 0 0 0 0.15 0"/>
<feBlend mode="normal" in2="BackgroundImageFix" result="effect1_dropShadow"/>
<feBlend mode="normal" in="SourceGraphic" in2="effect1_dropShadow" result="shape"/>
</filter>
<linearGradient id="paint0_linear" x1="14" y1="26.5" x2="459.5" y2="487.5" gradientUnits="userSpaceOnUse">
<stop stop-color="#FF3E64"/>
<stop offset="1" stop-color="#FA012F"/>
</linearGradient>
<linearGradient id="paint1_linear" x1="507.287" y1="339.348" x2="386.612" y2="358.707" gradientUnits="userSpaceOnUse">
<stop stop-color="#FFBDCA"/>
<stop offset="1" stop-color="white"/>
</linearGradient>
<linearGradient id="paint2_linear" x1="188.944" y1="446.265" x2="63.0599" y2="466.46" gradientUnits="userSpaceOnUse">
<stop stop-color="#FFBDCA"/>
<stop offset="1" stop-color="white"/>
</linearGradient>
<linearGradient id="paint3_linear" x1="252" y1="175" x2="252" y2="325" gradientUnits="userSpaceOnUse">
<stop stop-color="#FC5474"/>
<stop offset="1" stop-color="#FA0633"/>
</linearGradient>
<linearGradient id="paint4_linear" x1="417.816" y1="310.682" x2="195.263" y2="285.757" gradientUnits="userSpaceOnUse">
<stop stop-color="#FFBDCA"/>
<stop offset="1" stop-color="white"/>
</linearGradient>
<linearGradient id="paint5_linear" x1="268.105" y1="287.43" x2="236.506" y2="247.866" gradientUnits="userSpaceOnUse">
<stop stop-color="#FFBDCA"/>
<stop offset="1" stop-color="white"/>
</linearGradient>
<clipPath id="clip0">
<rect width="501" height="500" fill="white"/>
</clipPath>
</defs>
</svg>
