<?xml version="1.0" encoding="UTF-8" standalone="no"?>
<!-- Created with Inkscape (http://www.inkscape.org/) -->
<svg
   xmlns:dc="http://purl.org/dc/elements/1.1/"
   xmlns:cc="http://web.resource.org/cc/"
   xmlns:rdf="http://www.w3.org/1999/02/22-rdf-syntax-ns#"
   xmlns:svg="http://www.w3.org/2000/svg"
   xmlns="http://www.w3.org/2000/svg"
   xmlns:sodipodi="http://sodipodi.sourceforge.net/DTD/sodipodi-0.dtd"
   xmlns:inkscape="http://www.inkscape.org/namespaces/inkscape"
   width="744.09448819"
   height="1052.3622047"
   id="svg4221"
   sodipodi:version="0.32"
   inkscape:version="0.44+devel"
   sodipodi:docbase="/home/duffy/Desktop"
   sodipodi:docname="gnome-letterhead-design.svg">
  <defs
     id="defs4223" />
  <sodipodi:namedview
     id="base"
     pagecolor="#ffffff"
     bordercolor="#666666"
     borderopacity="1.0"
     gridtolerance="10000"
     guidetolerance="10"
     objecttolerance="10"
     inkscape:pageopacity="0.0"
     inkscape:pageshadow="2"
     inkscape:zoom="0.175"
     inkscape:cx="375"
     inkscape:cy="520"
     inkscape:document-units="px"
     inkscape:current-layer="layer1"
     inkscape:window-width="814"
     inkscape:window-height="580"
     inkscape:window-x="4"
     inkscape:window-y="62" />
  <metadata
     id="metadata4226">
    <rdf:RDF>
      <cc:Work
         rdf:about="">
        <dc:format>image/svg+xml</dc:format>
        <dc:type
           rdf:resource="http://purl.org/dc/dcmitype/StillImage" />
      </cc:Work>
    </rdf:RDF>
  </metadata>
  <g
     inkscape:label="Layer 1"
     inkscape:groupmode="layer"
     id="layer1">
    <rect
       style="opacity:1;fill:white;fill-opacity:1;stroke:black;stroke-width:1.77290964;stroke-miterlimit:3.86369991;stroke-dasharray:none;stroke-opacity:1"
       id="rect8271"
       width="664.43658"
       height="752.3877"
       x="39.954506"
       y="156.31688"
       rx="0"
       ry="0" />
    <g
       inkscape:export-ydpi="72.000000"
       inkscape:export-xdpi="72.000000"
       inkscape:export-filename="/home/duffy/Desktop/gnome_logo_horiz.png"
       style="opacity:0.24431817;fill:#d3d7cf;fill-opacity:1;fill-rule:nonzero;stroke:none;stroke-miterlimit:4"
       transform="matrix(5.607452,0,0,5.607452,39.02301,251.0421)"
       id="g8460">
      <g
         id="g8462"
         style="fill:#d3d7cf;fill-opacity:1">
        <path
           id="path8464"
           d="M 86.068,0 C 61.466,0 56.851,35.041 70.691,35.041 C 84.529,35.041 110.671,0 86.068,0 z "
           style="fill:#d3d7cf;fill-opacity:1" />
        <path
           id="path8466"
           d="M 45.217,30.699 C 52.586,31.149 60.671,2.577 46.821,4.374 C 32.976,6.171 37.845,30.249 45.217,30.699 z "
           style="fill:#d3d7cf;fill-opacity:1" />
        <path
           id="path8468"
           d="M 11.445,48.453 C 16.686,46.146 12.12,23.581 3.208,29.735 C -5.7,35.89 6.204,50.759 11.445,48.453 z "
           style="fill:#d3d7cf;fill-opacity:1" />
        <path
           id="path8470"
           d="M 26.212,36.642 C 32.451,35.37 32.793,9.778 21.667,14.369 C 10.539,18.961 19.978,37.916 26.212,36.642 L 26.212,36.642 z "
           style="fill:#d3d7cf;fill-opacity:1" />
        <path
           d="M 58.791,93.913 C 59.898,102.367 52.589,106.542 45.431,101.092 C 22.644,83.743 83.16,75.088 79.171,51.386 C 75.86,31.712 15.495,37.769 8.621,68.553 C 3.968,89.374 27.774,118.26 52.614,118.26 C 64.834,118.26 78.929,107.226 81.566,93.248 C 83.58,82.589 57.867,86.86 58.791,93.913 L 58.791,93.913 z "
           id="path8472"
           style="fill:#d3d7cf;fill-opacity:1" />
      </g>
    </g>
    <rect
       y="849.33398"
       x="40.000343"
       height="57.367538"
       width="664.34491"
       id="rect9351"
       style="opacity:1;fill:#555753;fill-opacity:1;stroke:none;stroke-width:3;stroke-miterlimit:3.86369991;stroke-dasharray:none;stroke-opacity:1" />
    <rect
       style="opacity:1;fill:#2e3436;fill-opacity:1;stroke:none;stroke-width:3;stroke-miterlimit:3.86369991;stroke-dasharray:none;stroke-opacity:1"
       id="rect8307"
       width="664.34491"
       height="8.5033236"
       x="40.000343"
       y="156.03523" />
    <g
       id="g8991"
       transform="matrix(0.621529,0,0,0.621529,256.4095,1748.686)">
      <g
         id="g8556"
         transform="matrix(0.95129,0,0,0.95129,-319.7124,-2517.86)"
         style="fill:#888a85;fill-opacity:1;fill-rule:nonzero;stroke:none;stroke-miterlimit:4"
         inkscape:export-filename="/home/duffy/Desktop/gnome_logo_horiz.png"
         inkscape:export-xdpi="72.000000"
         inkscape:export-ydpi="72.000000">
        <g
           style="fill:#888a85;fill-opacity:1"
           id="g8558">
          <path
             style="fill:#888a85;fill-opacity:1"
             d="M 86.068,0 C 61.466,0 56.851,35.041 70.691,35.041 C 84.529,35.041 110.671,0 86.068,0 z "
             id="path8560" />
          <path
             style="fill:#888a85;fill-opacity:1"
             d="M 45.217,30.699 C 52.586,31.149 60.671,2.577 46.821,4.374 C 32.976,6.171 37.845,30.249 45.217,30.699 z "
             id="path8562" />
          <path
             style="fill:#888a85;fill-opacity:1"
             d="M 11.445,48.453 C 16.686,46.146 12.12,23.581 3.208,29.735 C -5.7,35.89 6.204,50.759 11.445,48.453 z "
             id="path8564" />
          <path
             style="fill:#888a85;fill-opacity:1"
             d="M 26.212,36.642 C 32.451,35.37 32.793,9.778 21.667,14.369 C 10.539,18.961 19.978,37.916 26.212,36.642 L 26.212,36.642 z "
             id="path8566" />
          <path
             style="fill:#888a85;fill-opacity:1"
             id="path8568"
             d="M 58.791,93.913 C 59.898,102.367 52.589,106.542 45.431,101.092 C 22.644,83.743 83.16,75.088 79.171,51.386 C 75.86,31.712 15.495,37.769 8.621,68.553 C 3.968,89.374 27.774,118.26 52.614,118.26 C 64.834,118.26 78.929,107.226 81.566,93.248 C 83.58,82.589 57.867,86.86 58.791,93.913 L 58.791,93.913 z " />
        </g>
      </g>
      <g
         transform="matrix(0.390099,0,0,0.390099,-1747.456,-2952.216)"
         style="fill:#888a85;fill-opacity:1"
         id="g8570">
        <path
           style="font-size:148.699646px;font-style:normal;font-variant:normal;font-weight:bold;font-stretch:normal;text-align:start;line-height:125%;writing-mode:lr-tb;text-anchor:start;fill:#888a85;fill-opacity:1;stroke:none;stroke-width:1pt;stroke-linecap:butt;stroke-linejoin:miter;stroke-opacity:1;font-family:Bitstream Vera Sans"
           d="M 4176.2963,1214.4401 C 4161.1885,1214.847 4149.2577,1220.2768 4140.4837,1230.6901 C 4131.3976,1241.527 4126.8275,1256.5005 4126.8275,1275.5964 C 4126.8275,1294.6396 4131.3978,1309.5721 4140.4837,1320.4088 C 4149.6142,1331.2457 4162.1501,1336.6588 4178.14,1336.6588 C 4194.174,1336.6588 4206.7414,1331.2457 4215.8275,1320.4088 C 4224.9134,1309.5721 4229.4526,1294.6396 4229.4525,1275.5964 C 4229.4524,1256.5005 4224.9134,1241.527 4215.8275,1230.6901 C 4206.7414,1219.8535 4194.1739,1214.4402 4178.14,1214.4401 C 4177.5154,1214.4401 4176.9104,1214.4236 4176.2963,1214.4401 z M 4177.4213,1236.4401 C 4177.6628,1236.4334 4177.895,1236.4401 4178.14,1236.4401 C 4186.0233,1236.4402 4192.1319,1239.8515 4196.4525,1246.6901 C 4200.7728,1253.5289 4202.9524,1263.1814 4202.9525,1275.5964 C 4202.9525,1287.9587 4200.7726,1297.5391 4196.4525,1304.3776 C 4192.1321,1311.2165 4186.0232,1314.6588 4178.14,1314.6588 C 4170.3009,1314.6588 4164.2417,1311.2165 4159.9213,1304.3776 C 4155.6009,1297.5391 4153.4214,1287.9587 4153.4213,1275.5964 C 4153.4213,1263.1815 4155.6011,1253.5289 4159.9213,1246.6901 C 4164.1065,1240.0652 4169.9336,1236.6473 4177.4213,1236.4401 z "
           id="path8572" />
        <path
           style="font-size:148.699646px;font-style:normal;font-variant:normal;font-weight:bold;font-stretch:normal;text-align:start;line-height:125%;writing-mode:lr-tb;text-anchor:start;fill:#888a85;fill-opacity:1;stroke:none;stroke-width:1pt;stroke-linecap:butt;stroke-linejoin:miter;stroke-opacity:1;font-family:Bitstream Vera Sans"
           d="M 4005.6293,1325.612 C 3992.3217,1336.7877 3972.5226,1336.6592 3964.2744,1336.6592 C 3947.6611,1336.6592 3934.4997,1331.1882 3924.7902,1320.2462 C 3915.0805,1309.2516 3910.2258,1294.3643 3910.2258,1275.584 C 3910.2258,1256.5934 3915.1696,1241.6535 3925.0574,1230.764 C 3934.9452,1219.8748 3948.4851,1214.4301 3965.6774,1214.43 C 3972.3137,1214.4301 3978.6605,1215.1666 3984.718,1216.6394 C 3990.8199,1218.1124 3996.5655,1220.2956 4001.9548,1223.1888 L 3995.0338,1243.6496 C 3992.004,1241.991 3988.5351,1240.3564 3985.3193,1239.2072 C 3979.8409,1237.3661 3974.3403,1236.4455 3968.8175,1236.4454 C 3958.5733,1236.4455 3950.6675,1239.8386 3945.1002,1246.6246 C 3939.5772,1253.3582 3936.8158,1263.0113 3936.8158,1275.584 C 3936.8158,1288.0516 3939.4881,1297.6785 3944.833,1304.4646 C 3950.1776,1311.2507 3958.2098,1314.6437 3967.6148,1314.6437 C 3977.1696,1314.6437 3983.0876,1312.2353 3986.2439,1309.6976 L 3986.2439,1289.3141 L 3965.5438,1289.3141 L 3965.5438,1268.9557 L 4005.6293,1268.9557"
           id="path8574"
           sodipodi:nodetypes="cscsssccccsssszccccc" />
        <path
           style="font-size:148.699646px;font-style:normal;font-variant:normal;font-weight:bold;font-stretch:normal;text-align:start;line-height:125%;writing-mode:lr-tb;text-anchor:start;fill:#888a85;fill-opacity:1;stroke:none;stroke-width:1pt;stroke-linecap:butt;stroke-linejoin:miter;stroke-opacity:1;font-family:Bitstream Vera Sans"
           d="M 4023.2108,1216.5605 L 4039.4387,1216.5605 L 4090.7162,1287.3627 L 4090.7162,1216.5605 L 4112.6015,1216.5605 L 4112.6015,1334.3708 L 4096.3736,1334.3708 L 4045.0962,1263.5686 L 4045.0962,1334.3708 L 4023.2108,1334.3708 L 4023.2108,1216.5605"
           id="path8576"
           sodipodi:nodetypes="ccccccccccc" />
        <path
           style="font-size:148.699646px;font-style:normal;font-variant:normal;font-weight:bold;font-stretch:normal;text-align:start;line-height:125%;writing-mode:lr-tb;text-anchor:start;fill:#888a85;fill-opacity:1;stroke:none;stroke-width:1pt;stroke-linecap:butt;stroke-linejoin:miter;stroke-opacity:1;font-family:Bitstream Vera Sans"
           d="M 4246.3361,1216.5605 L 4279.0727,1216.5605 L 4301.7878,1290.1084 L 4324.6365,1216.5605 L 4352.3063,1216.5605 L 4364.8063,1334.3708 L 4340.4877,1334.3708 L 4332.9877,1260.7028 L 4310.0054,1334.7241 L 4293.7039,1334.7241 L 4270.7215,1258.2028 L 4263.2215,1334.3708 L 4238.8361,1334.3708 L 4251.3361,1216.5605"
           id="path8578"
           sodipodi:nodetypes="cccccccccccccc" />
        <path
           style="font-size:148.699646px;font-style:normal;font-variant:normal;font-weight:bold;font-stretch:normal;text-align:start;line-height:125%;writing-mode:lr-tb;text-anchor:start;fill:#888a85;fill-opacity:1;stroke:none;stroke-width:1pt;stroke-linecap:butt;stroke-linejoin:miter;stroke-opacity:1;font-family:Bitstream Vera Sans"
           d="M 4382.3597,1216.5605 L 4451.7744,1216.5605 L 4451.7744,1239.5229 L 4408.0811,1239.5229 L 4408.0811,1263.9594 L 4441.6688,1263.9594 L 4441.6688,1284.4217 L 4408.0811,1284.4217 L 4408.0811,1311.4085 L 4453.2442,1311.4085 L 4453.2442,1334.3708 L 4382.3597,1334.3708 L 4382.3597,1216.5605"
           id="path8580"
           sodipodi:nodetypes="ccccccccccccc" />
        <text
           id="text8582"
           y="1215.743"
           x="4474.6182"
           style="font-size:30.68958855px;font-style:normal;font-weight:normal;fill:#888a85;fill-opacity:1;stroke:none;stroke-width:1pt;stroke-linecap:butt;stroke-linejoin:miter;stroke-opacity:1;font-family:Bitstream Vera Sans"
           xml:space="preserve"><tspan
             style="letter-spacing:11.06259632;fill:#888a85;fill-opacity:1"
             y="1215.743"
             x="4474.6182"
             id="tspan8584"
             sodipodi:role="line"><tspan
               style="letter-spacing:0.2523815;fill:#888a85;fill-opacity:1"
               id="tspan8586">TM</tspan></tspan></text>
      </g>
    </g>
    <g
       id="g9555"
       transform="matrix(0.621529,0,0,0.621529,255.1664,1747.443)">
      <rect
         ry="15.877485"
         y="-2521.1775"
         x="619.46881"
         height="65.952629"
         width="73.280701"
         id="rect8646"
         style="fill:#005da4;fill-opacity:1;stroke:none;stroke-width:3;stroke-miterlimit:3.86369991;stroke-dasharray:none;stroke-opacity:1" />
      <rect
         style="fill:#75507b;fill-opacity:1;stroke:none;stroke-width:3;stroke-miterlimit:3.86369991;stroke-dasharray:none;stroke-opacity:1"
         id="rect8648"
         width="73.280701"
         height="65.952629"
         x="619.46881"
         y="-2361.1775"
         ry="15.877485" />
      <rect
         ry="15.877485"
         y="-2201.1775"
         x="619.46881"
         height="65.952629"
         width="73.280701"
         id="rect8650"
         style="fill:#c00;fill-opacity:1;stroke:none;stroke-width:3;stroke-miterlimit:3.86369991;stroke-dasharray:none;stroke-opacity:1" />
      <rect
         style="fill:#f57900;fill-opacity:1;stroke:none;stroke-width:3;stroke-miterlimit:3.86369991;stroke-dasharray:none;stroke-opacity:1"
         id="rect8652"
         width="73.280701"
         height="65.952629"
         x="619.46881"
         y="-2281.1775"
         ry="15.877485" />
      <rect
         ry="15.877485"
         y="-2121.1775"
         x="619.46881"
         height="65.952629"
         width="73.280701"
         id="rect8654"
         style="fill:#edd400;fill-opacity:1;stroke:none;stroke-width:3;stroke-miterlimit:3.86369991;stroke-dasharray:none;stroke-opacity:1" />
      <rect
         style="fill:#73d216;fill-opacity:1;stroke:none;stroke-width:3;stroke-miterlimit:3.86369991;stroke-dasharray:none;stroke-opacity:1"
         id="rect8656"
         width="73.280701"
         height="65.952629"
         x="619.46881"
         y="-2441.1775"
         ry="15.877485" />
      <g
         transform="matrix(0.439521,0,0,0.439521,-16.87203,-2594.195)"
         id="g8658"
         style="fill:white;fill-opacity:1">
        <g
           inkscape:export-ydpi="72.000000"
           inkscape:export-xdpi="72.000000"
           inkscape:export-filename="/home/duffy/Desktop/gnome_logo_horiz.png"
           style="fill:white;fill-opacity:1;fill-rule:nonzero;stroke:none;stroke-miterlimit:4"
           transform="matrix(0.973754,0,0,0.973754,1481.807,180)"
           id="g8660">
          <g
             id="g8662"
             style="fill:white;fill-opacity:1">
            <path
               id="path8664"
               d="M 86.068,0 C 61.466,0 56.851,35.041 70.691,35.041 C 84.529,35.041 110.671,0 86.068,0 z "
               style="fill:white;fill-opacity:1" />
            <path
               id="path8666"
               d="M 45.217,30.699 C 52.586,31.149 60.671,2.577 46.821,4.374 C 32.976,6.171 37.845,30.249 45.217,30.699 z "
               style="fill:white;fill-opacity:1" />
            <path
               id="path8668"
               d="M 11.445,48.453 C 16.686,46.146 12.12,23.581 3.208,29.735 C -5.7,35.89 6.204,50.759 11.445,48.453 z "
               style="fill:white;fill-opacity:1" />
            <path
               id="path8670"
               d="M 26.212,36.642 C 32.451,35.37 32.793,9.778 21.667,14.369 C 10.539,18.961 19.978,37.916 26.212,36.642 L 26.212,36.642 z "
               style="fill:white;fill-opacity:1" />
            <path
               d="M 58.791,93.913 C 59.898,102.367 52.589,106.542 45.431,101.092 C 22.644,83.743 83.16,75.088 79.171,51.386 C 75.86,31.712 15.495,37.769 8.621,68.553 C 3.968,89.374 27.774,118.26 52.614,118.26 C 64.834,118.26 78.929,107.226 81.566,93.248 C 83.58,82.589 57.867,86.86 58.791,93.913 L 58.791,93.913 z "
               id="path8672"
               style="fill:white;fill-opacity:1" />
          </g>
        </g>
        <text
           inkscape:export-ydpi="72.000000"
           inkscape:export-xdpi="72.000000"
           inkscape:export-filename="/home/duffy/Desktop/gnome_logo_horiz.png"
           sodipodi:linespacing="100%"
           id="text8674"
           y="292.4837"
           x="1563.1455"
           style="font-size:9.5126915px;font-style:normal;font-variant:normal;font-weight:normal;font-stretch:normal;line-height:100%;writing-mode:lr-tb;text-anchor:start;fill:white;fill-opacity:1;stroke:none;stroke-width:1pt;stroke-linecap:butt;stroke-linejoin:miter;stroke-opacity:1;font-family:Trebuchet MS"
           xml:space="preserve"><tspan
             id="tspan8676"
             style="fill:white;fill-opacity:1">TM</tspan></text>
      </g>
      <g
         style="fill:white;fill-opacity:1"
         id="g8678"
         transform="matrix(0.439521,0,0,0.439521,-16.87203,-2514.195)">
        <g
           id="g8680"
           transform="matrix(0.973754,0,0,0.973754,1481.807,180)"
           style="fill:white;fill-opacity:1;fill-rule:nonzero;stroke:none;stroke-miterlimit:4"
           inkscape:export-filename="/home/duffy/Desktop/gnome_logo_horiz.png"
           inkscape:export-xdpi="72.000000"
           inkscape:export-ydpi="72.000000">
          <g
             style="fill:white;fill-opacity:1"
             id="g8682">
            <path
               style="fill:white;fill-opacity:1"
               d="M 86.068,0 C 61.466,0 56.851,35.041 70.691,35.041 C 84.529,35.041 110.671,0 86.068,0 z "
               id="path8684" />
            <path
               style="fill:white;fill-opacity:1"
               d="M 45.217,30.699 C 52.586,31.149 60.671,2.577 46.821,4.374 C 32.976,6.171 37.845,30.249 45.217,30.699 z "
               id="path8686" />
            <path
               style="fill:white;fill-opacity:1"
               d="M 11.445,48.453 C 16.686,46.146 12.12,23.581 3.208,29.735 C -5.7,35.89 6.204,50.759 11.445,48.453 z "
               id="path8688" />
            <path
               style="fill:white;fill-opacity:1"
               d="M 26.212,36.642 C 32.451,35.37 32.793,9.778 21.667,14.369 C 10.539,18.961 19.978,37.916 26.212,36.642 L 26.212,36.642 z "
               id="path8690" />
            <path
               style="fill:white;fill-opacity:1"
               id="path8692"
               d="M 58.791,93.913 C 59.898,102.367 52.589,106.542 45.431,101.092 C 22.644,83.743 83.16,75.088 79.171,51.386 C 75.86,31.712 15.495,37.769 8.621,68.553 C 3.968,89.374 27.774,118.26 52.614,118.26 C 64.834,118.26 78.929,107.226 81.566,93.248 C 83.58,82.589 57.867,86.86 58.791,93.913 L 58.791,93.913 z " />
          </g>
        </g>
        <text
           xml:space="preserve"
           style="font-size:9.5126915px;font-style:normal;font-variant:normal;font-weight:normal;font-stretch:normal;line-height:100%;writing-mode:lr-tb;text-anchor:start;fill:white;fill-opacity:1;stroke:none;stroke-width:1pt;stroke-linecap:butt;stroke-linejoin:miter;stroke-opacity:1;font-family:Trebuchet MS"
           x="1563.1455"
           y="292.4837"
           id="text8694"
           sodipodi:linespacing="100%"
           inkscape:export-filename="/home/duffy/Desktop/gnome_logo_horiz.png"
           inkscape:export-xdpi="72.000000"
           inkscape:export-ydpi="72.000000"><tspan
             style="fill:white;fill-opacity:1"
             id="tspan8696">TM</tspan></text>
      </g>
      <g
         transform="matrix(0.439521,0,0,0.439521,-16.87203,-2434.195)"
         id="g8698"
         style="fill:white;fill-opacity:1">
        <g
           inkscape:export-ydpi="72.000000"
           inkscape:export-xdpi="72.000000"
           inkscape:export-filename="/home/duffy/Desktop/gnome_logo_horiz.png"
           style="fill:white;fill-opacity:1;fill-rule:nonzero;stroke:none;stroke-miterlimit:4"
           transform="matrix(0.973754,0,0,0.973754,1481.807,180)"
           id="g8700">
          <g
             id="g8702"
             style="fill:white;fill-opacity:1">
            <path
               id="path8704"
               d="M 86.068,0 C 61.466,0 56.851,35.041 70.691,35.041 C 84.529,35.041 110.671,0 86.068,0 z "
               style="fill:white;fill-opacity:1" />
            <path
               id="path8706"
               d="M 45.217,30.699 C 52.586,31.149 60.671,2.577 46.821,4.374 C 32.976,6.171 37.845,30.249 45.217,30.699 z "
               style="fill:white;fill-opacity:1" />
            <path
               id="path8708"
               d="M 11.445,48.453 C 16.686,46.146 12.12,23.581 3.208,29.735 C -5.7,35.89 6.204,50.759 11.445,48.453 z "
               style="fill:white;fill-opacity:1" />
            <path
               id="path8710"
               d="M 26.212,36.642 C 32.451,35.37 32.793,9.778 21.667,14.369 C 10.539,18.961 19.978,37.916 26.212,36.642 L 26.212,36.642 z "
               style="fill:white;fill-opacity:1" />
            <path
               d="M 58.791,93.913 C 59.898,102.367 52.589,106.542 45.431,101.092 C 22.644,83.743 83.16,75.088 79.171,51.386 C 75.86,31.712 15.495,37.769 8.621,68.553 C 3.968,89.374 27.774,118.26 52.614,118.26 C 64.834,118.26 78.929,107.226 81.566,93.248 C 83.58,82.589 57.867,86.86 58.791,93.913 L 58.791,93.913 z "
               id="path8712"
               style="fill:white;fill-opacity:1" />
          </g>
        </g>
        <text
           inkscape:export-ydpi="72.000000"
           inkscape:export-xdpi="72.000000"
           inkscape:export-filename="/home/duffy/Desktop/gnome_logo_horiz.png"
           sodipodi:linespacing="100%"
           id="text8714"
           y="292.4837"
           x="1563.1455"
           style="font-size:9.5126915px;font-style:normal;font-variant:normal;font-weight:normal;font-stretch:normal;line-height:100%;writing-mode:lr-tb;text-anchor:start;fill:white;fill-opacity:1;stroke:none;stroke-width:1pt;stroke-linecap:butt;stroke-linejoin:miter;stroke-opacity:1;font-family:Trebuchet MS"
           xml:space="preserve"><tspan
             id="tspan8716"
             style="fill:white;fill-opacity:1">TM</tspan></text>
      </g>
      <g
         style="fill:white;fill-opacity:1"
         id="g8718"
         transform="matrix(0.439521,0,0,0.439521,-16.87203,-2354.195)">
        <g
           id="g8720"
           transform="matrix(0.973754,0,0,0.973754,1481.807,180)"
           style="fill:white;fill-opacity:1;fill-rule:nonzero;stroke:none;stroke-miterlimit:4"
           inkscape:export-filename="/home/duffy/Desktop/gnome_logo_horiz.png"
           inkscape:export-xdpi="72.000000"
           inkscape:export-ydpi="72.000000">
          <g
             style="fill:white;fill-opacity:1"
             id="g8722">
            <path
               style="fill:white;fill-opacity:1"
               d="M 86.068,0 C 61.466,0 56.851,35.041 70.691,35.041 C 84.529,35.041 110.671,0 86.068,0 z "
               id="path8724" />
            <path
               style="fill:white;fill-opacity:1"
               d="M 45.217,30.699 C 52.586,31.149 60.671,2.577 46.821,4.374 C 32.976,6.171 37.845,30.249 45.217,30.699 z "
               id="path8726" />
            <path
               style="fill:white;fill-opacity:1"
               d="M 11.445,48.453 C 16.686,46.146 12.12,23.581 3.208,29.735 C -5.7,35.89 6.204,50.759 11.445,48.453 z "
               id="path8728" />
            <path
               style="fill:white;fill-opacity:1"
               d="M 26.212,36.642 C 32.451,35.37 32.793,9.778 21.667,14.369 C 10.539,18.961 19.978,37.916 26.212,36.642 L 26.212,36.642 z "
               id="path8730" />
            <path
               style="fill:white;fill-opacity:1"
               id="path8732"
               d="M 58.791,93.913 C 59.898,102.367 52.589,106.542 45.431,101.092 C 22.644,83.743 83.16,75.088 79.171,51.386 C 75.86,31.712 15.495,37.769 8.621,68.553 C 3.968,89.374 27.774,118.26 52.614,118.26 C 64.834,118.26 78.929,107.226 81.566,93.248 C 83.58,82.589 57.867,86.86 58.791,93.913 L 58.791,93.913 z " />
          </g>
        </g>
        <text
           xml:space="preserve"
           style="font-size:9.5126915px;font-style:normal;font-variant:normal;font-weight:normal;font-stretch:normal;line-height:100%;writing-mode:lr-tb;text-anchor:start;fill:white;fill-opacity:1;stroke:none;stroke-width:1pt;stroke-linecap:butt;stroke-linejoin:miter;stroke-opacity:1;font-family:Trebuchet MS"
           x="1563.1455"
           y="292.4837"
           id="text8734"
           sodipodi:linespacing="100%"
           inkscape:export-filename="/home/duffy/Desktop/gnome_logo_horiz.png"
           inkscape:export-xdpi="72.000000"
           inkscape:export-ydpi="72.000000"><tspan
             style="fill:white;fill-opacity:1"
             id="tspan8736">TM</tspan></text>
      </g>
      <g
         transform="matrix(0.439521,0,0,0.439521,-16.87203,-2274.195)"
         id="g8738"
         style="fill:white;fill-opacity:1">
        <g
           inkscape:export-ydpi="72.000000"
           inkscape:export-xdpi="72.000000"
           inkscape:export-filename="/home/duffy/Desktop/gnome_logo_horiz.png"
           style="fill:white;fill-opacity:1;fill-rule:nonzero;stroke:none;stroke-miterlimit:4"
           transform="matrix(0.973754,0,0,0.973754,1481.807,180)"
           id="g8740">
          <g
             id="g8742"
             style="fill:white;fill-opacity:1">
            <path
               id="path8744"
               d="M 86.068,0 C 61.466,0 56.851,35.041 70.691,35.041 C 84.529,35.041 110.671,0 86.068,0 z "
               style="fill:white;fill-opacity:1" />
            <path
               id="path8746"
               d="M 45.217,30.699 C 52.586,31.149 60.671,2.577 46.821,4.374 C 32.976,6.171 37.845,30.249 45.217,30.699 z "
               style="fill:white;fill-opacity:1" />
            <path
               id="path8748"
               d="M 11.445,48.453 C 16.686,46.146 12.12,23.581 3.208,29.735 C -5.7,35.89 6.204,50.759 11.445,48.453 z "
               style="fill:white;fill-opacity:1" />
            <path
               id="path8750"
               d="M 26.212,36.642 C 32.451,35.37 32.793,9.778 21.667,14.369 C 10.539,18.961 19.978,37.916 26.212,36.642 L 26.212,36.642 z "
               style="fill:white;fill-opacity:1" />
            <path
               d="M 58.791,93.913 C 59.898,102.367 52.589,106.542 45.431,101.092 C 22.644,83.743 83.16,75.088 79.171,51.386 C 75.86,31.712 15.495,37.769 8.621,68.553 C 3.968,89.374 27.774,118.26 52.614,118.26 C 64.834,118.26 78.929,107.226 81.566,93.248 C 83.58,82.589 57.867,86.86 58.791,93.913 L 58.791,93.913 z "
               id="path8752"
               style="fill:white;fill-opacity:1" />
          </g>
        </g>
        <text
           inkscape:export-ydpi="72.000000"
           inkscape:export-xdpi="72.000000"
           inkscape:export-filename="/home/duffy/Desktop/gnome_logo_horiz.png"
           sodipodi:linespacing="100%"
           id="text8754"
           y="292.4837"
           x="1563.1455"
           style="font-size:9.5126915px;font-style:normal;font-variant:normal;font-weight:normal;font-stretch:normal;line-height:100%;writing-mode:lr-tb;text-anchor:start;fill:white;fill-opacity:1;stroke:none;stroke-width:1pt;stroke-linecap:butt;stroke-linejoin:miter;stroke-opacity:1;font-family:Trebuchet MS"
           xml:space="preserve"><tspan
             id="tspan8756"
             style="fill:white;fill-opacity:1">TM</tspan></text>
      </g>
      <g
         style="fill:white;fill-opacity:1"
         id="g8758"
         transform="matrix(0.439521,0,0,0.439521,-16.87203,-2194.195)">
        <g
           id="g8760"
           transform="matrix(0.973754,0,0,0.973754,1481.807,180)"
           style="fill:white;fill-opacity:1;fill-rule:nonzero;stroke:none;stroke-miterlimit:4"
           inkscape:export-filename="/home/duffy/Desktop/gnome_logo_horiz.png"
           inkscape:export-xdpi="72.000000"
           inkscape:export-ydpi="72.000000">
          <g
             style="fill:white;fill-opacity:1"
             id="g8762">
            <path
               style="fill:white;fill-opacity:1"
               d="M 86.068,0 C 61.466,0 56.851,35.041 70.691,35.041 C 84.529,35.041 110.671,0 86.068,0 z "
               id="path8764" />
            <path
               style="fill:white;fill-opacity:1"
               d="M 45.217,30.699 C 52.586,31.149 60.671,2.577 46.821,4.374 C 32.976,6.171 37.845,30.249 45.217,30.699 z "
               id="path8766" />
            <path
               style="fill:white;fill-opacity:1"
               d="M 11.445,48.453 C 16.686,46.146 12.12,23.581 3.208,29.735 C -5.7,35.89 6.204,50.759 11.445,48.453 z "
               id="path8768" />
            <path
               style="fill:white;fill-opacity:1"
               d="M 26.212,36.642 C 32.451,35.37 32.793,9.778 21.667,14.369 C 10.539,18.961 19.978,37.916 26.212,36.642 L 26.212,36.642 z "
               id="path8770" />
            <path
               style="fill:white;fill-opacity:1"
               id="path8772"
               d="M 58.791,93.913 C 59.898,102.367 52.589,106.542 45.431,101.092 C 22.644,83.743 83.16,75.088 79.171,51.386 C 75.86,31.712 15.495,37.769 8.621,68.553 C 3.968,89.374 27.774,118.26 52.614,118.26 C 64.834,118.26 78.929,107.226 81.566,93.248 C 83.58,82.589 57.867,86.86 58.791,93.913 L 58.791,93.913 z " />
          </g>
        </g>
        <text
           xml:space="preserve"
           style="font-size:9.5126915px;font-style:normal;font-variant:normal;font-weight:normal;font-stretch:normal;line-height:100%;writing-mode:lr-tb;text-anchor:start;fill:white;fill-opacity:1;stroke:none;stroke-width:1pt;stroke-linecap:butt;stroke-linejoin:miter;stroke-opacity:1;font-family:Trebuchet MS"
           x="1563.1455"
           y="292.4837"
           id="text8774"
           sodipodi:linespacing="100%"
           inkscape:export-filename="/home/duffy/Desktop/gnome_logo_horiz.png"
           inkscape:export-xdpi="72.000000"
           inkscape:export-ydpi="72.000000"><tspan
             style="fill:white;fill-opacity:1"
             id="tspan8776">TM</tspan></text>
      </g>
    </g>
    <text
       xml:space="preserve"
       style="font-size:11.66253471px;font-style:normal;font-weight:normal;fill:white;fill-opacity:1;stroke:none;stroke-width:1px;stroke-linecap:butt;stroke-linejoin:miter;stroke-opacity:1;font-family:Bitstream Vera Sans"
       x="372.37341"
       y="877.28174"
       id="text8987"><tspan
         sodipodi:role="line"
         id="tspan8989"
         x="372.37342"
         y="877.28174"
         style="text-align:center;letter-spacing:-0.7852819;text-anchor:middle;fill:white;fill-opacity:1">142 Street Address Road  |  Somewhere. Nice 10001-2346</tspan><tspan
         sodipodi:role="line"
         x="372.37341"
         y="891.85991"
         style="text-align:center;letter-spacing:-0.7852819;text-anchor:middle;fill:white;fill-opacity:1"
         id="tspan9011">www.gnome.org</tspan><tspan
         sodipodi:role="line"
         x="372.37341"
         y="906.43808"
         style="letter-spacing:-0.7852819;fill:white;fill-opacity:1"
         id="tspan9009" /></text>
    <text
       xml:space="preserve"
       style="font-size:11.38415909px;font-style:normal;font-weight:normal;fill:black;fill-opacity:1;stroke:none;stroke-width:1px;stroke-linecap:butt;stroke-linejoin:miter;stroke-opacity:1;font-family:Bitstream Vera Sans"
       x="70.684731"
       y="322.55368"
       id="text9461"><tspan
         sodipodi:role="line"
         id="tspan9463"
         x="70.684731"
         y="322.55368">Ray Strode</tspan><tspan
         sodipodi:role="line"
         x="70.684731"
         y="336.78388"
         id="tspan9465">143 Elm Street</tspan><tspan
         sodipodi:role="line"
         x="70.684731"
         y="351.01408"
         id="tspan9469">Westford, MA 01886</tspan><tspan
         sodipodi:role="line"
         x="70.684731"
         y="365.24428"
         id="tspan9471">October 25, 2006</tspan></text>
    <text
       id="text9473"
       y="433.18588"
       x="70.684731"
       style="font-size:11.38415909px;font-style:normal;font-weight:normal;fill:black;fill-opacity:1;stroke:none;stroke-width:1px;stroke-linecap:butt;stroke-linejoin:miter;stroke-opacity:1;font-family:Bitstream Vera Sans"
       xml:space="preserve"><tspan
         id="tspan9483"
         y="433.18588"
         x="70.684731"
         sodipodi:role="line">Dear Ray:</tspan><tspan
         y="447.41608"
         x="70.684731"
         sodipodi:role="line"
         id="tspan9499" /><tspan
         y="461.64628"
         x="70.684731"
         sodipodi:role="line"
         id="tspan9503">Look at this new GNOME branding! It's a letterhead. It would probably not be as </tspan><tspan
         y="475.87648"
         x="70.684731"
         sodipodi:role="line"
         id="tspan9507">inexpensive to produce as letterheads go, but it's pretty stylin' isn't it? It's hopefully</tspan><tspan
         y="490.10668"
         x="70.684731"
         sodipodi:role="line"
         id="tspan9509">got the vibrant colors and shapes that broadcast the GNOME brand.</tspan><tspan
         y="504.33688"
         x="70.684731"
         sodipodi:role="line"
         id="tspan9511" /><tspan
         y="518.56708"
         x="70.684731"
         sodipodi:role="line"
         id="tspan9513">Anyway, I hope you like this letterhead and it meets with your aesthetic approval.</tspan><tspan
         y="532.79727"
         x="70.684731"
         sodipodi:role="line"
         id="tspan9515">If not, I have failed. In that case, can you buy me a cookie so I feel better?</tspan><tspan
         y="547.02747"
         x="70.684731"
         sodipodi:role="line"
         id="tspan9517" /><tspan
         y="561.25767"
         x="70.684731"
         sodipodi:role="line"
         id="tspan9519">I look forward to your feedback and potentially a cookie.</tspan><tspan
         y="575.48787"
         x="70.684731"
         sodipodi:role="line"
         id="tspan9521" /><tspan
         y="589.71807"
         x="70.684731"
         sodipodi:role="line"
         id="tspan9523" /><tspan
         y="603.94827"
         x="70.684731"
         sodipodi:role="line"
         id="tspan9525" /><tspan
         y="618.17847"
         x="70.684731"
         sodipodi:role="line"
         id="tspan9527" /><tspan
         y="632.40867"
         x="70.684731"
         sodipodi:role="line"
         id="tspan9529">Thanks,</tspan><tspan
         y="646.63887"
         x="70.684731"
         sodipodi:role="line"
         id="tspan9531" /><tspan
         y="660.86906"
         x="70.684731"
         sodipodi:role="line"
         id="tspan9533" /><tspan
         y="675.09926"
         x="70.684731"
         sodipodi:role="line"
         id="tspan9537">Mairin Duffy</tspan></text>
    <g
       id="g9547"
       transform="matrix(0.621529,0,0,0.621529,245.2219,1767.332)">
      <path
         id="path9543"
         d="M -309.11686,-1792.2445 C -296.56557,-1798.6865 -276.67593,-1811.596 -259.97978,-1816.3663 C -257.67122,-1817.0259 -255.21498,-1816.9619 -252.83257,-1817.2598 C -248.00096,-1817.8637 -261.91348,-1800.7379 -267.12699,-1785.0973 C -267.68247,-1783.4309 -291.84399,-1757.7001 -276.06101,-1773.4831 C -271.58459,-1777.9595 -242.74943,-1812.4108 -251.04577,-1795.8181 C -263.43212,-1771.0454 -255.19276,-1775.3032 -243.89856,-1792.2445 C -239.67788,-1798.5755 -244.47781,-1784.9402 -237.64475,-1781.5237 C -231.102,-1778.2523 -214.01413,-1802.273 -225.13713,-1796.7115 C -226.84267,-1795.8587 -228.11514,-1794.3291 -229.60414,-1793.1379 C -233.21418,-1790.2499 -219.47215,-1792.8333 -216.20312,-1789.5643 C -208.88224,-1782.2434 -207.1632,-1804.2226 -204.5889,-1791.3511 C -203.77421,-1787.2777 -188.80851,-1815.7829 -184.04067,-1796.7115 C -181.38654,-1786.095 -146.62777,-1810.731 -153.66503,-1793.1379"
         style="fill:none;fill-rule:evenodd;stroke:black;stroke-width:1px;stroke-linecap:butt;stroke-linejoin:miter;stroke-opacity:1" />
      <path
         id="path9545"
         d="M -136.6904,-1808.3257 C -136.03061,-1805.6866 -151.06579,-1786.4918 -154.55843,-1782.4171 C -176.43787,-1756.8911 -152.01709,-1780.2432 -136.6904,-1785.9907 C -134.308,-1786.8841 -131.92559,-1787.7775 -129.54319,-1788.6709 C -128.13325,-1789.1996 -145.00823,-1807.7096 -149.19802,-1811.8993 C -151.466,-1814.1673 -148.73606,-1803.7432 -145.62442,-1802.9653 C -128.66737,-1798.7261 -138.06258,-1815.3298 -131.32999,-1798.4983 C -126.6637,-1786.8326 -108.92874,-1799.4579 -105.42136,-1802.9653 C -98.565475,-1809.8212 -121.48479,-1791.3778 -126.86299,-1783.3105 C -131.15935,-1776.866 -135.1703,-1771.853 -125.07618,-1774.3765 C -102.88371,-1779.9246 -126.58046,-1783.3105 -92.913737,-1783.3105 C -89.637932,-1783.3105 -86.362128,-1783.3105 -83.086323,-1783.3105 C -74.084895,-1783.3105 -93.009168,-1800.6147 -70.578704,-1793.1379 C -66.092508,-1791.6425 -59.706755,-1788.5953 -56.284283,-1786.8841"
         style="fill:none;fill-rule:evenodd;stroke:black;stroke-width:1px;stroke-linecap:butt;stroke-linejoin:miter;stroke-opacity:1" />
    </g>
  </g>
</svg>
